<?xml version="1.0" encoding="UTF-8" standalone="no"?>
<svg
   xmlns:dc="http://purl.org/dc/elements/1.1/"
   xmlns:cc="http://creativecommons.org/ns#"
   xmlns:rdf="http://www.w3.org/1999/02/22-rdf-syntax-ns#"
   xmlns:svg="http://www.w3.org/2000/svg"
   xmlns="http://www.w3.org/2000/svg"
   xmlns:xlink="http://www.w3.org/1999/xlink"
   xmlns:sodipodi="http://sodipodi.sourceforge.net/DTD/sodipodi-0.dtd"
   xmlns:inkscape="http://www.inkscape.org/namespaces/inkscape"
   version="1.0"
   inkscape:output_extension="org.inkscape.output.svg.inkscape"
   sodipodi:docname="im_inv_gamma.svg"
   inkscape:version="1.0.2 (e86c870879, 2021-01-15)"
   sodipodi:version="0.32"
   id="svg3470"
   height="82.509476"
   width="258.07288">
  <sodipodi:namedview
     inkscape:document-rotation="0"
     inkscape:snap-to-guides="false"
     inkscape:snap-object-midpoints="false"
     inkscape:snap-grids="true"
     inkscape:window-maximized="0"
     inkscape:snap-guide="true"
     inkscape:snap-global="true"
     inkscape:bbox-paths="true"
     inkscape:snap-nodes="true"
     inkscape:snap-bbox="false"
     inkscape:object-bbox="true"
     inkscape:object-nodes="true"
     inkscape:guide-points="false"
     inkscape:guide-bbox="true"
     showguides="true"
     height="359.4px"
     width="349.29px"
     inkscape:window-y="23"
     inkscape:window-x="26"
     inkscape:window-height="856"
     inkscape:window-width="1436"
     inkscape:grid-bbox="false"
     inkscape:object-points="false"
     inkscape:object-paths="true"
     inkscape:grid-points="true"
     showgrid="true"
     inkscape:current-layer="layer2"
     inkscape:document-units="px"
     inkscape:cy="88.53752"
     inkscape:cx="63.244718"
     inkscape:zoom="1.7469907"
     inkscape:pageshadow="2"
     inkscape:pageopacity="0.0"
     objecttolerance="10"
     guidetolerance="10"
     gridtolerance="36.6"
     borderopacity="1.0"
     bordercolor="#666666"
     pagecolor="#ffffff"
     id="base"
     fit-margin-top="0"
     fit-margin-left="0"
     fit-margin-right="0"
     fit-margin-bottom="0">
    <inkscape:grid
       enabled="true"
       visible="true"
       id="GridFromPre046Settings"
       type="xygrid"
       originx="-323.08098"
       originy="-44.740525"
       spacingx="0.5"
       spacingy="0.5"
       color="#0000ff"
       empcolor="#0000ff"
       opacity="0.2"
       empopacity="0.4"
       empspacing="5"
       snapvisiblegridlinesonly="true" />
    <sodipodi:guide
       inkscape:locked="false"
       orientation="0,1"
       position="1626.4382,1071.9227"
       id="guide35742" />
    <sodipodi:guide
       inkscape:locked="false"
       orientation="1,0"
       position="-343.08098,158.84587"
       id="guide3449" />
  </sodipodi:namedview>
  <defs
     id="defs3472">
    <marker
       inkscape:stockid="DotM"
       orient="auto"
       refY="0"
       refX="0"
       id="marker19838"
       style="overflow:visible">
      <path
         inkscape:connector-curvature="0"
         id="path19840"
         d="m -2.5,-1 c 0,2.76 -2.24,5 -5,5 -2.76,0 -5,-2.24 -5,-5 0,-2.76 2.24,-5 5,-5 2.76,0 5,2.24 5,5 z"
         style="fill-rule:evenodd;stroke:#000000;stroke-width:1pt;marker-start:none;marker-end:none"
         transform="matrix(0.4,0,0,0.4,2.96,0.4)" />
    </marker>
    <marker
       refX="0"
       inkscape:stockid="Arrow2Mstart"
       refY="0"
       orient="auto"
       id="Arrow2Mstart-021"
       style="overflow:visible">
      <path
         id="path21014-8"
         d="M 8.7185878,4.0337352 -2.2072895,0.01601326 8.7185884,-4.0017078 c -1.7454984,2.3720609 -1.7354408,5.6174519 -6e-7,8.035443 z"
         transform="scale(0.6)"
         style="font-size:12px;fill-rule:evenodd;stroke-width:0.625;stroke-linejoin:round" />
    </marker>
    <g
       id="g3163">
      <symbol
         overflow="visible"
         id="symbol6819">
        <path
           style="stroke:none"
           d=""
           id="path7905" />
      </symbol>
      <symbol
         overflow="visible"
         id="symbol9451">
        <path
           style="stroke:none"
           d="m 3.734375,-6.125 c 0.0625,-0.234375 0.09375,-0.328125 0.28125,-0.359375 C 4.109375,-6.5 4.421875,-6.5 4.625,-6.5 c 0.703125,0 1.8125,0 1.8125,0.984375 0,0.34375 -0.15625,1.03125 -0.546875,1.421875 -0.265625,0.25 -0.78125,0.578125 -1.6875,0.578125 H 3.09375 Z m 1.4375,2.734375 c 1.015625,-0.21875 2.1875,-0.921875 2.1875,-1.921875 0,-0.859375 -0.890625,-1.5 -2.203125,-1.5 H 2.328125 c -0.203125,0 -0.296875,0 -0.296875,0.203125 C 2.03125,-6.5 2.125,-6.5 2.3125,-6.5 c 0.015625,0 0.203125,0 0.375,0.015625 0.1875,0.03125 0.265625,0.03125 0.265625,0.171875 0,0.03125 0,0.0625 -0.03125,0.1875 l -1.34375,5.34375 C 1.484375,-0.390625 1.46875,-0.3125 0.671875,-0.3125 0.5,-0.3125 0.40625,-0.3125 0.40625,-0.109375 0.40625,0 0.53125,0 0.546875,0 c 0.28125,0 0.984375,-0.03125 1.25,-0.03125 0.28125,0 1,0.03125 1.28125,0.03125 0.078125,0 0.1875,0 0.1875,-0.203125 0,-0.109375 -0.078125,-0.109375 -0.28125,-0.109375 -0.359375,0 -0.640625,0 -0.640625,-0.171875 0,-0.0625 0.015625,-0.109375 0.03125,-0.171875 l 0.65625,-2.640625 h 1.1875 c 0.90625,0 1.078125,0.5625 1.078125,0.90625 0,0.140625 -0.078125,0.453125 -0.140625,0.6875 C 5.09375,-1.421875 5,-1.0625 5,-0.859375 5,0.21875 6.203125,0.21875 6.328125,0.21875 c 0.84375,0 1.203125,-1 1.203125,-1.140625 0,-0.125 -0.109375,-0.125 -0.125,-0.125 -0.09375,0 -0.109375,0.0625 -0.125,0.140625 C 7.03125,-0.171875 6.59375,0 6.375,0 6.046875,0 5.96875,-0.21875 5.96875,-0.609375 c 0,-0.3125 0.0625,-0.8125 0.109375,-1.140625 0.015625,-0.140625 0.03125,-0.328125 0.03125,-0.46875 0,-0.765625 -0.671875,-1.078125 -0.9375,-1.171875 z m 0,0"
           id="path43" />
      </symbol>
      <symbol
         overflow="visible"
         id="symbol8919">
        <path
           style="stroke:none"
           d=""
           id="path2034" />
      </symbol>
      <symbol
         overflow="visible"
         id="symbol2762">
        <path
           style="stroke:none"
           d="m 2.640625,-2.921875 c 0,-0.125 0,-0.1875 -0.09375,-0.1875 -0.03125,0 -0.046875,0 -0.140625,0.078125 -0.015625,0.015625 -0.078125,0.078125 -0.125,0.109375 -0.21875,-0.140625 -0.46875,-0.1875 -0.734375,-0.1875 -1,0 -1.234375,0.53125 -1.234375,0.875 0,0.21875 0.09375,0.40625 0.265625,0.546875 0.265625,0.21875 0.53125,0.265625 0.96875,0.34375 0.34375,0.0625 0.90625,0.15625 0.90625,0.625 0,0.265625 -0.1875,0.59375 -0.859375,0.59375 -0.671875,0 -0.90625,-0.4375 -1.03125,-0.90625 -0.03125,-0.09375 -0.03125,-0.125 -0.125,-0.125 -0.125,0 -0.125,0.046875 -0.125,0.1875 v 0.859375 C 0.3125,0 0.3125,0.0625 0.40625,0.0625 0.46875,0.0625 0.609375,-0.078125 0.75,-0.234375 1.046875,0.0625 1.421875,0.0625 1.59375,0.0625 c 0.90625,0 1.25,-0.484375 1.25,-0.96875 0,-0.265625 -0.125,-0.484375 -0.3125,-0.640625 -0.265625,-0.25 -0.578125,-0.3125 -0.828125,-0.34375 -0.546875,-0.109375 -1,-0.1875 -1,-0.5625 0,-0.21875 0.1875,-0.484375 0.84375,-0.484375 0.8125,0 0.84375,0.5625 0.859375,0.765625 0,0.078125 0.09375,0.078125 0.109375,0.078125 0.125,0 0.125,-0.046875 0.125,-0.1875 z m 0,0"
           id="path9847" />
      </symbol>
    </g>
    <g
       id="g1330">
      <symbol
         overflow="visible"
         id="symbol6236">
        <path
           style="stroke:none"
           d=""
           id="path4398" />
      </symbol>
      <symbol
         overflow="visible"
         id="symbol702">
        <path
           style="stroke:none"
           d="m 3.78125,-0.546875 v 0.65625 L 5.25,0 v -0.3125 c -0.6875,0 -0.78125,-0.0625 -0.78125,-0.5625 V -6.921875 L 3.046875,-6.8125 V -6.5 c 0.6875,0 0.765625,0.0625 0.765625,0.5625 v 2.15625 c -0.28125,-0.359375 -0.71875,-0.625 -1.25,-0.625 -1.171875,0 -2.21875,0.984375 -2.21875,2.265625 0,1.265625 0.96875,2.25 2.109375,2.25 0.640625,0 1.078125,-0.34375 1.328125,-0.65625 z m 0,-2.671875 v 2.046875 c 0,0.171875 0,0.1875 -0.109375,0.359375 C 3.375,-0.328125 2.9375,-0.109375 2.5,-0.109375 2.046875,-0.109375 1.6875,-0.375 1.453125,-0.75 1.203125,-1.15625 1.171875,-1.71875 1.171875,-2.140625 1.171875,-2.5 1.1875,-3.09375 1.46875,-3.546875 1.6875,-3.859375 2.0625,-4.1875 2.609375,-4.1875 c 0.34375,0 0.765625,0.15625 1.0625,0.59375 0.109375,0.171875 0.109375,0.1875 0.109375,0.375 z m 0,0"
           id="path7597" />
      </symbol>
      <symbol
         overflow="visible"
         id="symbol1949">
        <path
           style="stroke:none"
           d=""
           id="path5975" />
      </symbol>
      <symbol
         overflow="visible"
         id="symbol9314">
        <path
           style="stroke:none"
           d="m 5.515625,-6.5625 c 0.03125,-0.140625 0.03125,-0.171875 0.03125,-0.203125 0,-0.15625 -0.125,-0.15625 -0.21875,-0.15625 -0.203125,0 -0.21875,0.03125 -0.265625,0.234375 l -1.59375,6.375 c -1.015625,-0.109375 -1.125,-0.640625 -1.125,-1.015625 0,-0.25 0.03125,-0.515625 0.484375,-1.6875 C 2.984375,-3.375 3,-3.4375 3,-3.609375 3,-4.1875 2.421875,-4.5 1.875,-4.5 c -1.0625,0 -1.5625,1.34375 -1.5625,1.546875 0,0.140625 0.15625,0.140625 0.25,0.140625 0.109375,0 0.1875,0 0.21875,-0.125 0.328125,-1.109375 0.875,-1.203125 1.03125,-1.203125 0.0625,0 0.171875,0 0.171875,0.203125 0,0.234375 -0.09375,0.484375 -0.21875,0.78125 C 1.421875,-2.265625 1.25,-1.765625 1.25,-1.4375 c 0,1.3125 1.546875,1.453125 2.015625,1.5 0.078125,0 0.09375,0.015625 0.09375,0.03125 C 3.359375,0.125 3.1875,0.8125 3.15625,0.921875 3.078125,1.234375 2.9375,1.828125 2.9375,1.875 c 0,0.140625 0.140625,0.140625 0.21875,0.140625 0.1875,0 0.203125,-0.015625 0.25,-0.203125 l 0.4375,-1.734375 c 1.5,0 2.640625,-1.09375 3.109375,-2.109375 0.109375,-0.25 0.359375,-1.0625 0.359375,-1.578125 0,-0.90625 -0.671875,-0.90625 -0.6875,-0.90625 -0.375,0 -0.75,0.40625 -0.75,0.75 0,0.28125 0.203125,0.40625 0.296875,0.453125 0.390625,0.234375 0.5,0.40625 0.5,0.625 0,0.625 -1.109375,2.390625 -2.734375,2.40625 z m 0,0"
           id="path6513" />
      </symbol>
      <symbol
         overflow="visible"
         id="symbol8172">
        <path
           style="stroke:none"
           d=""
           id="path2143" />
      </symbol>
      <symbol
         overflow="visible"
         id="symbol2882">
        <path
           style="stroke:none"
           d="m 2.640625,-2.921875 c 0,-0.125 0,-0.1875 -0.09375,-0.1875 -0.03125,0 -0.046875,0 -0.140625,0.078125 -0.015625,0.015625 -0.078125,0.078125 -0.125,0.109375 -0.21875,-0.140625 -0.46875,-0.1875 -0.734375,-0.1875 -1,0 -1.234375,0.53125 -1.234375,0.875 0,0.21875 0.09375,0.40625 0.265625,0.546875 0.265625,0.21875 0.53125,0.265625 0.96875,0.34375 0.34375,0.0625 0.90625,0.15625 0.90625,0.625 0,0.265625 -0.1875,0.59375 -0.859375,0.59375 -0.671875,0 -0.90625,-0.4375 -1.03125,-0.90625 -0.03125,-0.09375 -0.03125,-0.125 -0.125,-0.125 -0.125,0 -0.125,0.046875 -0.125,0.1875 v 0.859375 C 0.3125,0 0.3125,0.0625 0.40625,0.0625 0.46875,0.0625 0.609375,-0.078125 0.75,-0.234375 1.046875,0.0625 1.421875,0.0625 1.59375,0.0625 c 0.90625,0 1.25,-0.484375 1.25,-0.96875 0,-0.265625 -0.125,-0.484375 -0.3125,-0.640625 -0.265625,-0.25 -0.578125,-0.3125 -0.828125,-0.34375 -0.546875,-0.109375 -1,-0.1875 -1,-0.5625 0,-0.21875 0.1875,-0.484375 0.84375,-0.484375 0.8125,0 0.84375,0.5625 0.859375,0.765625 0,0.078125 0.09375,0.078125 0.109375,0.078125 0.125,0 0.125,-0.046875 0.125,-0.1875 z m 0,0"
           id="path2195" />
      </symbol>
      <symbol
         overflow="visible"
         id="symbol2217">
        <path
           style="stroke:none"
           d=""
           id="path3908" />
      </symbol>
      <symbol
         overflow="visible"
         id="symbol4154">
        <path
           style="stroke:none"
           d="m 2.046875,-3.984375 h 0.9375 c 0.203125,0 0.3125,0 0.3125,-0.203125 0,-0.109375 -0.109375,-0.109375 -0.28125,-0.109375 h -0.875 C 2.5,-5.71875 2.546875,-5.90625 2.546875,-5.96875 c 0,-0.171875 -0.125,-0.265625 -0.296875,-0.265625 -0.03125,0 -0.3125,0 -0.390625,0.359375 L 1.46875,-4.296875 h -0.9375 c -0.203125,0 -0.296875,0 -0.296875,0.1875 0,0.125 0.078125,0.125 0.28125,0.125 h 0.875 C 0.671875,-1.15625 0.625,-0.984375 0.625,-0.8125 0.625,-0.265625 1,0.109375 1.546875,0.109375 2.5625,0.109375 3.125,-1.34375 3.125,-1.421875 3.125,-1.53125 3.046875,-1.53125 3.015625,-1.53125 2.921875,-1.53125 2.90625,-1.5 2.859375,-1.390625 2.4375,-0.34375 1.90625,-0.109375 1.5625,-0.109375 c -0.203125,0 -0.3125,-0.125 -0.3125,-0.453125 0,-0.25 0.03125,-0.3125 0.0625,-0.484375 z m 0,0"
           id="path7444" />
      </symbol>
    </g>
    <g
       id="g2652">
      <symbol
         overflow="visible"
         id="symbol4643">
        <path
           style="stroke:none"
           d=""
           id="path5194" />
      </symbol>
      <symbol
         overflow="visible"
         id="symbol7817">
        <path
           style="stroke:none"
           d="m 5.609375,-3.15625 c 0.078125,-0.28125 0.1875,-0.765625 0.1875,-0.828125 0,-0.21875 -0.15625,-0.4375 -0.46875,-0.4375 -0.15625,0 -0.515625,0.078125 -0.65625,0.53125 -0.03125,0.125 -0.484375,1.9375 -0.5625,2.265625 -0.0625,0.234375 -0.125,0.515625 -0.15625,0.703125 C 3.78125,-0.6875 3.390625,-0.28125 2.875,-0.28125 c -0.578125,0 -0.59375,-0.5 -0.59375,-0.71875 0,-0.609375 0.3125,-1.390625 0.59375,-2.109375 C 2.96875,-3.375 3,-3.4375 3,-3.609375 3,-4.1875 2.421875,-4.5 1.875,-4.5 c -1.0625,0 -1.5625,1.34375 -1.5625,1.546875 0,0.140625 0.15625,0.140625 0.25,0.140625 0.109375,0 0.1875,0 0.21875,-0.125 0.328125,-1.109375 0.875,-1.203125 1.03125,-1.203125 0.078125,0 0.171875,0 0.171875,0.203125 0,0.234375 -0.125,0.515625 -0.15625,0.625 -0.421875,1.046875 -0.609375,1.609375 -0.609375,2.09375 0,1.140625 1,1.296875 1.578125,1.296875 0.296875,0 0.734375,-0.03125 1.265625,-0.546875 0.328125,0.484375 0.90625,0.546875 1.140625,0.546875 0.375,0 0.65625,-0.203125 0.875,-0.5625 0.234375,-0.40625 0.375,-0.9375 0.375,-0.984375 0,-0.140625 -0.15625,-0.140625 -0.25,-0.140625 -0.109375,0 -0.140625,0 -0.1875,0.046875 -0.03125,0.015625 -0.03125,0.03125 -0.078125,0.28125 -0.203125,0.78125 -0.421875,1 -0.6875,1 -0.140625,0 -0.21875,-0.09375 -0.21875,-0.359375 0,-0.171875 0.03125,-0.34375 0.125,-0.734375 0.078125,-0.28125 0.171875,-0.671875 0.234375,-0.890625 z m 0,0"
           id="path4867" />
      </symbol>
      <symbol
         overflow="visible"
         id="symbol3603">
        <path
           style="stroke:none"
           d=""
           id="path9555" />
      </symbol>
      <symbol
         overflow="visible"
         id="symbol2131">
        <path
           style="stroke:none"
           d="m 2.640625,-2.921875 c 0,-0.125 0,-0.1875 -0.09375,-0.1875 -0.03125,0 -0.046875,0 -0.140625,0.078125 -0.015625,0.015625 -0.078125,0.078125 -0.125,0.109375 -0.21875,-0.140625 -0.46875,-0.1875 -0.734375,-0.1875 -1,0 -1.234375,0.53125 -1.234375,0.875 0,0.21875 0.09375,0.40625 0.265625,0.546875 0.265625,0.21875 0.53125,0.265625 0.96875,0.34375 0.34375,0.0625 0.90625,0.15625 0.90625,0.625 0,0.265625 -0.1875,0.59375 -0.859375,0.59375 -0.671875,0 -0.90625,-0.4375 -1.03125,-0.90625 -0.03125,-0.09375 -0.03125,-0.125 -0.125,-0.125 -0.125,0 -0.125,0.046875 -0.125,0.1875 v 0.859375 C 0.3125,0 0.3125,0.0625 0.40625,0.0625 0.46875,0.0625 0.609375,-0.078125 0.75,-0.234375 1.046875,0.0625 1.421875,0.0625 1.59375,0.0625 c 0.90625,0 1.25,-0.484375 1.25,-0.96875 0,-0.265625 -0.125,-0.484375 -0.3125,-0.640625 -0.265625,-0.25 -0.578125,-0.3125 -0.828125,-0.34375 -0.546875,-0.109375 -1,-0.1875 -1,-0.5625 0,-0.21875 0.1875,-0.484375 0.84375,-0.484375 0.8125,0 0.84375,0.5625 0.859375,0.765625 0,0.078125 0.09375,0.078125 0.109375,0.078125 0.125,0 0.125,-0.046875 0.125,-0.1875 z m 0,0"
           id="path345" />
      </symbol>
    </g>
    <g
       id="g1398">
      <symbol
         overflow="visible"
         id="symbol8431">
        <path
           style="stroke:none"
           d=""
           id="path1387" />
      </symbol>
      <symbol
         overflow="visible"
         id="symbol8824">
        <path
           style="stroke:none"
           d="m 3.328125,-6.4375 c 0,-0.265625 -0.203125,-0.484375 -0.484375,-0.484375 -0.375,0 -0.703125,0.359375 -0.703125,0.6875 0,0.265625 0.1875,0.484375 0.484375,0.484375 0.359375,0 0.703125,-0.34375 0.703125,-0.6875 z m 0.25,4.96875 c 0,-0.140625 -0.15625,-0.140625 -0.234375,-0.140625 -0.125,0 -0.1875,0 -0.234375,0.125 -0.3125,1.046875 -0.8125,1.203125 -1.03125,1.203125 -0.09375,0 -0.15625,-0.03125 -0.15625,-0.21875 0,-0.234375 0.09375,-0.453125 0.328125,-1.046875 l 0.671875,-1.71875 C 2.96875,-3.40625 3,-3.515625 3,-3.609375 3,-4.140625 2.484375,-4.5 1.859375,-4.5 0.828125,-4.5 0.3125,-3.171875 0.3125,-2.953125 c 0,0.140625 0.15625,0.140625 0.25,0.140625 0.109375,0 0.1875,0 0.21875,-0.125 0.3125,-1.046875 0.828125,-1.203125 1.03125,-1.203125 0.09375,0 0.15625,0.03125 0.15625,0.21875 0,0.21875 -0.078125,0.4375 -0.328125,1.046875 l -0.65625,1.71875 c -0.0625,0.125 -0.09375,0.25 -0.09375,0.34375 0,0.515625 0.53125,0.890625 1.140625,0.890625 1.046875,0 1.546875,-1.328125 1.546875,-1.546875 z m 0,0"
           id="path5751" />
      </symbol>
      <symbol
         overflow="visible"
         id="symbol5309">
        <path
           style="stroke:none"
           d=""
           id="path1318" />
      </symbol>
      <symbol
         overflow="visible"
         id="symbol3109">
        <path
           style="stroke:none"
           d="m 2.640625,-2.921875 c 0,-0.125 0,-0.1875 -0.09375,-0.1875 -0.03125,0 -0.046875,0 -0.140625,0.078125 -0.015625,0.015625 -0.078125,0.078125 -0.125,0.109375 -0.21875,-0.140625 -0.46875,-0.1875 -0.734375,-0.1875 -1,0 -1.234375,0.53125 -1.234375,0.875 0,0.21875 0.09375,0.40625 0.265625,0.546875 0.265625,0.21875 0.53125,0.265625 0.96875,0.34375 0.34375,0.0625 0.90625,0.15625 0.90625,0.625 0,0.265625 -0.1875,0.59375 -0.859375,0.59375 -0.671875,0 -0.90625,-0.4375 -1.03125,-0.90625 -0.03125,-0.09375 -0.03125,-0.125 -0.125,-0.125 -0.125,0 -0.125,0.046875 -0.125,0.1875 v 0.859375 C 0.3125,0 0.3125,0.0625 0.40625,0.0625 0.46875,0.0625 0.609375,-0.078125 0.75,-0.234375 1.046875,0.0625 1.421875,0.0625 1.59375,0.0625 c 0.90625,0 1.25,-0.484375 1.25,-0.96875 0,-0.265625 -0.125,-0.484375 -0.3125,-0.640625 -0.265625,-0.25 -0.578125,-0.3125 -0.828125,-0.34375 -0.546875,-0.109375 -1,-0.1875 -1,-0.5625 0,-0.21875 0.1875,-0.484375 0.84375,-0.484375 0.8125,0 0.84375,0.5625 0.859375,0.765625 0,0.078125 0.09375,0.078125 0.109375,0.078125 0.125,0 0.125,-0.046875 0.125,-0.1875 z m 0,0"
           id="path4562" />
      </symbol>
    </g>
    <g
       id="g110">
      <symbol
         overflow="visible"
         id="symbol6596">
        <path
           style="stroke:none"
           d=""
           id="path6613" />
      </symbol>
      <symbol
         overflow="visible"
         id="symbol7191">
        <path
           style="stroke:none"
           d="m 3.734375,-6.125 c 0.0625,-0.234375 0.09375,-0.328125 0.28125,-0.359375 C 4.109375,-6.5 4.421875,-6.5 4.625,-6.5 c 0.703125,0 1.8125,0 1.8125,0.984375 0,0.34375 -0.15625,1.03125 -0.546875,1.421875 -0.265625,0.25 -0.78125,0.578125 -1.6875,0.578125 H 3.09375 Z m 1.4375,2.734375 c 1.015625,-0.21875 2.1875,-0.921875 2.1875,-1.921875 0,-0.859375 -0.890625,-1.5 -2.203125,-1.5 H 2.328125 c -0.203125,0 -0.296875,0 -0.296875,0.203125 C 2.03125,-6.5 2.125,-6.5 2.3125,-6.5 c 0.015625,0 0.203125,0 0.375,0.015625 0.1875,0.03125 0.265625,0.03125 0.265625,0.171875 0,0.03125 0,0.0625 -0.03125,0.1875 l -1.34375,5.34375 C 1.484375,-0.390625 1.46875,-0.3125 0.671875,-0.3125 0.5,-0.3125 0.40625,-0.3125 0.40625,-0.109375 0.40625,0 0.53125,0 0.546875,0 c 0.28125,0 0.984375,-0.03125 1.25,-0.03125 0.28125,0 1,0.03125 1.28125,0.03125 0.078125,0 0.1875,0 0.1875,-0.203125 0,-0.109375 -0.078125,-0.109375 -0.28125,-0.109375 -0.359375,0 -0.640625,0 -0.640625,-0.171875 0,-0.0625 0.015625,-0.109375 0.03125,-0.171875 l 0.65625,-2.640625 h 1.1875 c 0.90625,0 1.078125,0.5625 1.078125,0.90625 0,0.140625 -0.078125,0.453125 -0.140625,0.6875 C 5.09375,-1.421875 5,-1.0625 5,-0.859375 5,0.21875 6.203125,0.21875 6.328125,0.21875 c 0.84375,0 1.203125,-1 1.203125,-1.140625 0,-0.125 -0.109375,-0.125 -0.125,-0.125 -0.09375,0 -0.109375,0.0625 -0.125,0.140625 C 7.03125,-0.171875 6.59375,0 6.375,0 6.046875,0 5.96875,-0.21875 5.96875,-0.609375 c 0,-0.3125 0.0625,-0.8125 0.109375,-1.140625 0.015625,-0.140625 0.03125,-0.328125 0.03125,-0.46875 0,-0.765625 -0.671875,-1.078125 -0.9375,-1.171875 z m 0,0"
           id="path4376" />
      </symbol>
      <symbol
         overflow="visible"
         id="symbol980">
        <path
           style="stroke:none"
           d=""
           id="path6858" />
      </symbol>
      <symbol
         overflow="visible"
         id="symbol4979">
        <path
           style="stroke:none"
           d="m 3.5,-2.375 c 0.625,-0.140625 1.25,-0.5625 1.25,-1.125 0,-0.6875 -0.921875,-1.265625 -2,-1.265625 H 0.40625 v 0.25 h 0.171875 c 0.53125,0 0.546875,0.078125 0.546875,0.328125 v 3.625 c 0,0.234375 -0.015625,0.3125 -0.546875,0.3125 H 0.40625 V 0 c 0,0 0.75,-0.03125 1.03125,-0.03125 0.296875,0 0.6875,0.015625 1.03125,0.03125 V -0.25 H 2.3125 C 1.765625,-0.25 1.75,-0.328125 1.75,-0.5625 v -1.71875 h 0.9375 c 0.125,0 0.484375,0 0.796875,0.28125 0.234375,0.21875 0.234375,0.390625 0.234375,0.859375 0,0.453125 0,0.734375 0.328125,1 0.296875,0.25 0.703125,0.28125 0.90625,0.28125 0.59375,0 0.734375,-0.5625 0.734375,-0.78125 0,-0.046875 0,-0.125 -0.109375,-0.125 -0.109375,0 -0.109375,0.0625 -0.125,0.125 C 5.421875,-0.234375 5.1875,-0.0625 4.96875,-0.0625 4.578125,-0.0625 4.515625,-0.46875 4.4375,-1.09375 4.359375,-1.65625 4.34375,-1.765625 4.140625,-2 4.0625,-2.078125 3.875,-2.265625 3.5,-2.375 Z M 2.65625,-2.484375 H 1.75 v -1.75 C 1.75,-4.4375 1.765625,-4.484375 1.9375,-4.5 2,-4.515625 2.234375,-4.515625 2.390625,-4.515625 3.046875,-4.515625 4,-4.515625 4,-3.5 4,-2.71875 3.40625,-2.484375 2.65625,-2.484375 Z m 0,0"
           id="path649" />
      </symbol>
    </g>
    <g
       id="g4062">
      <symbol
         overflow="visible"
         id="symbol5853">
        <path
           style="stroke:none"
           d=""
           id="path737" />
      </symbol>
      <symbol
         overflow="visible"
         id="symbol9187">
        <path
           style="stroke:none"
           d="M 3.734375,-6.03125 C 3.8125,-6.390625 3.84375,-6.5 4.78125,-6.5 c 0.296875,0 0.375,0 0.375,-0.1875 0,-0.125 -0.109375,-0.125 -0.15625,-0.125 -0.328125,0 -1.140625,0.03125 -1.46875,0.03125 -0.296875,0 -1.03125,-0.03125 -1.328125,-0.03125 -0.0625,0 -0.1875,0 -0.1875,0.203125 0,0.109375 0.09375,0.109375 0.28125,0.109375 0.015625,0 0.203125,0 0.375,0.015625 0.171875,0.03125 0.265625,0.03125 0.265625,0.171875 0,0.03125 0,0.0625 -0.03125,0.1875 L 1.5625,-0.78125 c -0.09375,0.390625 -0.109375,0.46875 -0.90625,0.46875 -0.171875,0 -0.265625,0 -0.265625,0.203125 C 0.390625,0 0.484375,0 0.65625,0 h 4.625 C 5.515625,0 5.515625,0 5.578125,-0.171875 L 6.375,-2.328125 c 0.03125,-0.109375 0.03125,-0.125 0.03125,-0.140625 0,-0.03125 -0.03125,-0.109375 -0.109375,-0.109375 -0.09375,0 -0.109375,0.0625 -0.171875,0.21875 -0.34375,0.90625 -0.78125,2.046875 -2.5,2.046875 H 2.6875 c -0.140625,0 -0.171875,0 -0.21875,0 -0.109375,-0.015625 -0.140625,-0.03125 -0.140625,-0.109375 0,-0.03125 0,-0.046875 0.046875,-0.21875 z m 0,0"
           id="path1626" />
      </symbol>
      <symbol
         overflow="visible"
         id="symbol5048">
        <path
           style="stroke:none"
           d=""
           id="path7226" />
      </symbol>
      <symbol
         overflow="visible"
         id="symbol2669">
        <path
           style="stroke:none"
           d="m 4.078125,-2.53125 c 0.109375,0 0.1875,0 0.25,-0.046875 0.09375,-0.078125 0.125,-0.1875 0.125,-0.234375 C 4.453125,-3 4.265625,-3 4.140625,-3 H 2.359375 C 1.25,-3 0.40625,-1.90625 0.40625,-1.0625 c 0,0.640625 0.484375,1.125 1.203125,1.125 0.875,0 1.875,-0.78125 1.875,-1.859375 0,-0.109375 0,-0.421875 -0.203125,-0.734375 z M 1.609375,-0.125 c -0.375,0 -0.6875,-0.25 -0.6875,-0.75 0,-0.203125 0.125,-1.65625 1.328125,-1.65625 0.34375,0 0.71875,0.140625 0.71875,0.65625 0,0.140625 -0.0625,0.765625 -0.40625,1.234375 C 2.265625,-0.265625 1.875,-0.125 1.609375,-0.125 Z m 0,0"
           id="path6922" />
      </symbol>
    </g>
    <g
       id="g1755">
      <symbol
         overflow="visible"
         id="symbol235">
        <path
           style="stroke:none"
           d=""
           id="path4235" />
      </symbol>
      <symbol
         overflow="visible"
         id="symbol2337">
        <path
           style="stroke:none"
           d="m 2.09375,-4.40625 -1.515625,0.109375 v 0.3125 c 0.765625,0 0.859375,0.0625 0.859375,0.5625 v 3.9375 c 0,0.453125 -0.09375,1.3125 -0.734375,1.3125 -0.046875,0 -0.28125,0 -0.53125,-0.140625 C 0.3125,1.65625 0.515625,1.515625 0.515625,1.25 0.515625,0.984375 0.34375,0.78125 0.0625,0.78125 c -0.28125,0 -0.46875,0.203125 -0.46875,0.46875 0,0.515625 0.5625,0.796875 1.140625,0.796875 C 1.46875,2.046875 2.09375,1.40625 2.09375,0.5 Z m 0,-1.734375 c 0,-0.296875 -0.234375,-0.53125 -0.53125,-0.53125 -0.28125,0 -0.53125,0.234375 -0.53125,0.53125 0,0.28125 0.25,0.53125 0.53125,0.53125 0.296875,0 0.53125,-0.25 0.53125,-0.53125 z m 0,0"
           id="path5604" />
      </symbol>
      <symbol
         overflow="visible"
         id="symbol950">
        <path
           style="stroke:none"
           d=""
           id="path9598" />
      </symbol>
      <symbol
         overflow="visible"
         id="symbol1356">
        <path
           style="stroke:none"
           d="m 6.03125,-3.703125 c 0,-0.453125 -0.171875,-0.703125 -0.40625,-0.703125 -0.25,0 -0.515625,0.234375 -0.515625,0.46875 0,0.09375 0.046875,0.203125 0.140625,0.296875 0.171875,0.15625 0.359375,0.421875 0.359375,0.84375 0,0.390625 -0.203125,0.96875 -0.5,1.421875 C 4.8125,-0.953125 4.4375,-0.609375 3.96875,-0.609375 3.40625,-0.609375 3.09375,-0.96875 3,-1.5 c 0.109375,-0.265625 0.34375,-0.90625 0.34375,-1.1875 0,-0.109375 -0.046875,-0.21875 -0.1875,-0.21875 -0.078125,0 -0.1875,0.03125 -0.265625,0.171875 C 2.78125,-2.53125 2.65625,-1.890625 2.65625,-1.53125 2.328125,-1.0625 1.9375,-0.609375 1.3125,-0.609375 c -0.671875,0 -0.875,-0.59375 -0.875,-1.140625 0,-1.25 1.015625,-2.296875 1.015625,-2.421875 0,-0.109375 -0.078125,-0.1875 -0.1875,-0.1875 -0.125,0 -0.203125,0.125 -0.265625,0.21875 -0.5,0.734375 -0.875,1.921875 -0.875,2.828125 0,0.6875 0.21875,1.421875 1.046875,1.421875 0.703125,0 1.171875,-0.5 1.53125,-1.046875 0.09375,0.578125 0.484375,1.046875 1.09375,1.046875 0.78125,0 1.25,-0.609375 1.609375,-1.359375 0.25,-0.484375 0.625,-1.84375 0.625,-2.453125 z m 0,0"
           id="path8796" />
      </symbol>
      <symbol
         overflow="visible"
         id="symbol7608">
        <path
           style="stroke:none"
           d=""
           id="path1713" />
      </symbol>
      <symbol
         overflow="visible"
         id="symbol3501">
        <path
           style="stroke:none"
           d="m 5.734375,-2.109375 c 0,-0.609375 -0.3125,-0.96875 -1.046875,-0.96875 -0.5625,0 -0.9375,0.296875 -1.125,0.65625 -0.140625,-0.5 -0.515625,-0.65625 -1.015625,-0.65625 -0.578125,0 -0.9375,0.3125 -1.140625,0.6875 v -0.6875 L 0.375,-3 v 0.25 c 0.46875,0 0.53125,0.046875 0.53125,0.390625 v 1.8125 C 0.90625,-0.25 0.828125,-0.25 0.375,-0.25 V 0 C 0.390625,0 0.875,-0.03125 1.171875,-0.03125 1.421875,-0.03125 1.90625,0 1.96875,0 v -0.25 c -0.453125,0 -0.515625,0 -0.515625,-0.296875 V -1.8125 c 0,-0.71875 0.578125,-1.0625 1.03125,-1.0625 0.484375,0 0.546875,0.375 0.546875,0.734375 v 1.59375 C 3.03125,-0.25 2.96875,-0.25 2.515625,-0.25 V 0 C 2.53125,0 3.015625,-0.03125 3.3125,-0.03125 3.5625,-0.03125 4.046875,0 4.109375,0 v -0.25 c -0.453125,0 -0.515625,0 -0.515625,-0.296875 V -1.8125 c 0,-0.71875 0.578125,-1.0625 1.03125,-1.0625 0.484375,0 0.546875,0.375 0.546875,0.734375 v 1.59375 C 5.171875,-0.25 5.109375,-0.25 4.65625,-0.25 V 0 c 0.015625,0 0.5,-0.03125 0.796875,-0.03125 C 5.703125,-0.03125 6.1875,0 6.25,0 v -0.25 c -0.453125,0 -0.515625,0 -0.515625,-0.296875 z m 0,0"
           id="path5544" />
      </symbol>
      <symbol
         overflow="visible"
         id="symbol7209">
        <path
           style="stroke:none"
           d="m 2.640625,-2.921875 c 0,-0.125 0,-0.1875 -0.09375,-0.1875 -0.03125,0 -0.046875,0 -0.140625,0.078125 -0.015625,0.015625 -0.078125,0.078125 -0.125,0.109375 -0.21875,-0.140625 -0.46875,-0.1875 -0.734375,-0.1875 -1,0 -1.234375,0.53125 -1.234375,0.875 0,0.21875 0.09375,0.40625 0.265625,0.546875 0.265625,0.21875 0.53125,0.265625 0.96875,0.34375 0.34375,0.0625 0.90625,0.15625 0.90625,0.625 0,0.265625 -0.1875,0.59375 -0.859375,0.59375 -0.671875,0 -0.90625,-0.4375 -1.03125,-0.90625 -0.03125,-0.09375 -0.03125,-0.125 -0.125,-0.125 -0.125,0 -0.125,0.046875 -0.125,0.1875 v 0.859375 C 0.3125,0 0.3125,0.0625 0.40625,0.0625 0.46875,0.0625 0.609375,-0.078125 0.75,-0.234375 1.046875,0.0625 1.421875,0.0625 1.59375,0.0625 c 0.90625,0 1.25,-0.484375 1.25,-0.96875 0,-0.265625 -0.125,-0.484375 -0.3125,-0.640625 -0.265625,-0.25 -0.578125,-0.3125 -0.828125,-0.34375 -0.546875,-0.109375 -1,-0.1875 -1,-0.5625 0,-0.21875 0.1875,-0.484375 0.84375,-0.484375 0.8125,0 0.84375,0.5625 0.859375,0.765625 0,0.078125 0.09375,0.078125 0.109375,0.078125 0.125,0 0.125,-0.046875 0.125,-0.1875 z m 0,0"
           id="path7527" />
      </symbol>
      <symbol
         overflow="visible"
         id="symbol7065">
        <path
           style="stroke:none"
           d="m 3.5,-2.375 c 0.625,-0.140625 1.25,-0.5625 1.25,-1.125 0,-0.6875 -0.921875,-1.265625 -2,-1.265625 H 0.40625 v 0.25 h 0.171875 c 0.53125,0 0.546875,0.078125 0.546875,0.328125 v 3.625 c 0,0.234375 -0.015625,0.3125 -0.546875,0.3125 H 0.40625 V 0 c 0,0 0.75,-0.03125 1.03125,-0.03125 0.296875,0 0.6875,0.015625 1.03125,0.03125 V -0.25 H 2.3125 C 1.765625,-0.25 1.75,-0.328125 1.75,-0.5625 v -1.71875 h 0.9375 c 0.125,0 0.484375,0 0.796875,0.28125 0.234375,0.21875 0.234375,0.390625 0.234375,0.859375 0,0.453125 0,0.734375 0.328125,1 0.296875,0.25 0.703125,0.28125 0.90625,0.28125 0.59375,0 0.734375,-0.5625 0.734375,-0.78125 0,-0.046875 0,-0.125 -0.109375,-0.125 -0.109375,0 -0.109375,0.0625 -0.125,0.125 C 5.421875,-0.234375 5.1875,-0.0625 4.96875,-0.0625 4.578125,-0.0625 4.515625,-0.46875 4.4375,-1.09375 4.359375,-1.65625 4.34375,-1.765625 4.140625,-2 4.0625,-2.078125 3.875,-2.265625 3.5,-2.375 Z M 2.65625,-2.484375 H 1.75 v -1.75 C 1.75,-4.4375 1.765625,-4.484375 1.9375,-4.5 2,-4.515625 2.234375,-4.515625 2.390625,-4.515625 3.046875,-4.515625 4,-4.515625 4,-3.5 4,-2.71875 3.40625,-2.484375 2.65625,-2.484375 Z m 0,0"
           id="path5379" />
      </symbol>
      <symbol
         overflow="visible"
         id="symbol1460">
        <path
           style="stroke:none"
           d=""
           id="path1569" />
      </symbol>
      <symbol
         overflow="visible"
         id="symbol4371">
        <path
           style="stroke:none"
           d="m 5.515625,-6.5625 c 0.03125,-0.140625 0.03125,-0.171875 0.03125,-0.203125 0,-0.15625 -0.125,-0.15625 -0.21875,-0.15625 -0.203125,0 -0.21875,0.03125 -0.265625,0.234375 l -1.59375,6.375 c -1.015625,-0.109375 -1.125,-0.640625 -1.125,-1.015625 0,-0.25 0.03125,-0.515625 0.484375,-1.6875 C 2.984375,-3.375 3,-3.4375 3,-3.609375 3,-4.1875 2.421875,-4.5 1.875,-4.5 c -1.0625,0 -1.5625,1.34375 -1.5625,1.546875 0,0.140625 0.15625,0.140625 0.25,0.140625 0.109375,0 0.1875,0 0.21875,-0.125 0.328125,-1.109375 0.875,-1.203125 1.03125,-1.203125 0.0625,0 0.171875,0 0.171875,0.203125 0,0.234375 -0.09375,0.484375 -0.21875,0.78125 C 1.421875,-2.265625 1.25,-1.765625 1.25,-1.4375 c 0,1.3125 1.546875,1.453125 2.015625,1.5 0.078125,0 0.09375,0.015625 0.09375,0.03125 C 3.359375,0.125 3.1875,0.8125 3.15625,0.921875 3.078125,1.234375 2.9375,1.828125 2.9375,1.875 c 0,0.140625 0.140625,0.140625 0.21875,0.140625 0.1875,0 0.203125,-0.015625 0.25,-0.203125 l 0.4375,-1.734375 c 1.5,0 2.640625,-1.09375 3.109375,-2.109375 0.109375,-0.25 0.359375,-1.0625 0.359375,-1.578125 0,-0.90625 -0.671875,-0.90625 -0.6875,-0.90625 -0.375,0 -0.75,0.40625 -0.75,0.75 0,0.28125 0.203125,0.40625 0.296875,0.453125 0.390625,0.234375 0.5,0.40625 0.5,0.625 0,0.625 -1.109375,2.390625 -2.734375,2.40625 z m 0,0"
           id="path1204" />
      </symbol>
    </g>
    <g
       id="g7814">
      <symbol
         overflow="visible"
         id="symbol627">
        <path
           style="stroke:none"
           d=""
           id="path708" />
      </symbol>
      <symbol
         overflow="visible"
         id="symbol6064">
        <path
           style="stroke:none"
           d="m 3.328125,-6.4375 c 0,-0.265625 -0.203125,-0.484375 -0.484375,-0.484375 -0.375,0 -0.703125,0.359375 -0.703125,0.6875 0,0.265625 0.1875,0.484375 0.484375,0.484375 0.359375,0 0.703125,-0.34375 0.703125,-0.6875 z m 0.25,4.96875 c 0,-0.140625 -0.15625,-0.140625 -0.234375,-0.140625 -0.125,0 -0.1875,0 -0.234375,0.125 -0.3125,1.046875 -0.8125,1.203125 -1.03125,1.203125 -0.09375,0 -0.15625,-0.03125 -0.15625,-0.21875 0,-0.234375 0.09375,-0.453125 0.328125,-1.046875 l 0.671875,-1.71875 C 2.96875,-3.40625 3,-3.515625 3,-3.609375 3,-4.140625 2.484375,-4.5 1.859375,-4.5 0.828125,-4.5 0.3125,-3.171875 0.3125,-2.953125 c 0,0.140625 0.15625,0.140625 0.25,0.140625 0.109375,0 0.1875,0 0.21875,-0.125 0.3125,-1.046875 0.828125,-1.203125 1.03125,-1.203125 0.09375,0 0.15625,0.03125 0.15625,0.21875 0,0.21875 -0.078125,0.4375 -0.328125,1.046875 l -0.65625,1.71875 c -0.0625,0.125 -0.09375,0.25 -0.09375,0.34375 0,0.515625 0.53125,0.890625 1.140625,0.890625 1.046875,0 1.546875,-1.328125 1.546875,-1.546875 z m 0,0"
           id="path7667" />
      </symbol>
      <symbol
         overflow="visible"
         id="symbol4487">
        <path
           style="stroke:none"
           d=""
           id="path2250" />
      </symbol>
      <symbol
         overflow="visible"
         id="symbol9696">
        <path
           style="stroke:none"
           d="m 2.640625,-2.921875 c 0,-0.125 0,-0.1875 -0.09375,-0.1875 -0.03125,0 -0.046875,0 -0.140625,0.078125 -0.015625,0.015625 -0.078125,0.078125 -0.125,0.109375 -0.21875,-0.140625 -0.46875,-0.1875 -0.734375,-0.1875 -1,0 -1.234375,0.53125 -1.234375,0.875 0,0.21875 0.09375,0.40625 0.265625,0.546875 0.265625,0.21875 0.53125,0.265625 0.96875,0.34375 0.34375,0.0625 0.90625,0.15625 0.90625,0.625 0,0.265625 -0.1875,0.59375 -0.859375,0.59375 -0.671875,0 -0.90625,-0.4375 -1.03125,-0.90625 -0.03125,-0.09375 -0.03125,-0.125 -0.125,-0.125 -0.125,0 -0.125,0.046875 -0.125,0.1875 v 0.859375 C 0.3125,0 0.3125,0.0625 0.40625,0.0625 0.46875,0.0625 0.609375,-0.078125 0.75,-0.234375 1.046875,0.0625 1.421875,0.0625 1.59375,0.0625 c 0.90625,0 1.25,-0.484375 1.25,-0.96875 0,-0.265625 -0.125,-0.484375 -0.3125,-0.640625 -0.265625,-0.25 -0.578125,-0.3125 -0.828125,-0.34375 -0.546875,-0.109375 -1,-0.1875 -1,-0.5625 0,-0.21875 0.1875,-0.484375 0.84375,-0.484375 0.8125,0 0.84375,0.5625 0.859375,0.765625 0,0.078125 0.09375,0.078125 0.109375,0.078125 0.125,0 0.125,-0.046875 0.125,-0.1875 z m 0,0"
           id="path3035" />
      </symbol>
      <symbol
         overflow="visible"
         id="symbol2947">
        <path
           style="stroke:none"
           d="m 3.5,-2.375 c 0.625,-0.140625 1.25,-0.5625 1.25,-1.125 0,-0.6875 -0.921875,-1.265625 -2,-1.265625 H 0.40625 v 0.25 h 0.171875 c 0.53125,0 0.546875,0.078125 0.546875,0.328125 v 3.625 c 0,0.234375 -0.015625,0.3125 -0.546875,0.3125 H 0.40625 V 0 c 0,0 0.75,-0.03125 1.03125,-0.03125 0.296875,0 0.6875,0.015625 1.03125,0.03125 V -0.25 H 2.3125 C 1.765625,-0.25 1.75,-0.328125 1.75,-0.5625 v -1.71875 h 0.9375 c 0.125,0 0.484375,0 0.796875,0.28125 0.234375,0.21875 0.234375,0.390625 0.234375,0.859375 0,0.453125 0,0.734375 0.328125,1 0.296875,0.25 0.703125,0.28125 0.90625,0.28125 0.59375,0 0.734375,-0.5625 0.734375,-0.78125 0,-0.046875 0,-0.125 -0.109375,-0.125 -0.109375,0 -0.109375,0.0625 -0.125,0.125 C 5.421875,-0.234375 5.1875,-0.0625 4.96875,-0.0625 4.578125,-0.0625 4.515625,-0.46875 4.4375,-1.09375 4.359375,-1.65625 4.34375,-1.765625 4.140625,-2 4.0625,-2.078125 3.875,-2.265625 3.5,-2.375 Z M 2.65625,-2.484375 H 1.75 v -1.75 C 1.75,-4.4375 1.765625,-4.484375 1.9375,-4.5 2,-4.515625 2.234375,-4.515625 2.390625,-4.515625 3.046875,-4.515625 4,-4.515625 4,-3.5 4,-2.71875 3.40625,-2.484375 2.65625,-2.484375 Z m 0,0"
           id="path8194" />
      </symbol>
    </g>
    <g
       id="g715">
      <symbol
         overflow="visible"
         id="symbol6422">
        <path
           style="stroke:none"
           d=""
           id="path8023" />
      </symbol>
      <symbol
         overflow="visible"
         id="symbol5081">
        <path
           style="stroke:none"
           d="m 3.78125,-0.546875 v 0.65625 L 5.25,0 v -0.3125 c -0.6875,0 -0.78125,-0.0625 -0.78125,-0.5625 V -6.921875 L 3.046875,-6.8125 V -6.5 c 0.6875,0 0.765625,0.0625 0.765625,0.5625 v 2.15625 c -0.28125,-0.359375 -0.71875,-0.625 -1.25,-0.625 -1.171875,0 -2.21875,0.984375 -2.21875,2.265625 0,1.265625 0.96875,2.25 2.109375,2.25 0.640625,0 1.078125,-0.34375 1.328125,-0.65625 z m 0,-2.671875 v 2.046875 c 0,0.171875 0,0.1875 -0.109375,0.359375 C 3.375,-0.328125 2.9375,-0.109375 2.5,-0.109375 2.046875,-0.109375 1.6875,-0.375 1.453125,-0.75 1.203125,-1.15625 1.171875,-1.71875 1.171875,-2.140625 1.171875,-2.5 1.1875,-3.09375 1.46875,-3.546875 1.6875,-3.859375 2.0625,-4.1875 2.609375,-4.1875 c 0.34375,0 0.765625,0.15625 1.0625,0.59375 0.109375,0.171875 0.109375,0.1875 0.109375,0.375 z m 0,0"
           id="path111" />
      </symbol>
      <symbol
         overflow="visible"
         id="symbol928">
        <path
           style="stroke:none"
           d=""
           id="path1395" />
      </symbol>
      <symbol
         overflow="visible"
         id="symbol9250">
        <path
           style="stroke:none"
           d="m 5.515625,-6.5625 c 0.03125,-0.140625 0.03125,-0.171875 0.03125,-0.203125 0,-0.15625 -0.125,-0.15625 -0.21875,-0.15625 -0.203125,0 -0.21875,0.03125 -0.265625,0.234375 l -1.59375,6.375 c -1.015625,-0.109375 -1.125,-0.640625 -1.125,-1.015625 0,-0.25 0.03125,-0.515625 0.484375,-1.6875 C 2.984375,-3.375 3,-3.4375 3,-3.609375 3,-4.1875 2.421875,-4.5 1.875,-4.5 c -1.0625,0 -1.5625,1.34375 -1.5625,1.546875 0,0.140625 0.15625,0.140625 0.25,0.140625 0.109375,0 0.1875,0 0.21875,-0.125 0.328125,-1.109375 0.875,-1.203125 1.03125,-1.203125 0.0625,0 0.171875,0 0.171875,0.203125 0,0.234375 -0.09375,0.484375 -0.21875,0.78125 C 1.421875,-2.265625 1.25,-1.765625 1.25,-1.4375 c 0,1.3125 1.546875,1.453125 2.015625,1.5 0.078125,0 0.09375,0.015625 0.09375,0.03125 C 3.359375,0.125 3.1875,0.8125 3.15625,0.921875 3.078125,1.234375 2.9375,1.828125 2.9375,1.875 c 0,0.140625 0.140625,0.140625 0.21875,0.140625 0.1875,0 0.203125,-0.015625 0.25,-0.203125 l 0.4375,-1.734375 c 1.5,0 2.640625,-1.09375 3.109375,-2.109375 0.109375,-0.25 0.359375,-1.0625 0.359375,-1.578125 0,-0.90625 -0.671875,-0.90625 -0.6875,-0.90625 -0.375,0 -0.75,0.40625 -0.75,0.75 0,0.28125 0.203125,0.40625 0.296875,0.453125 0.390625,0.234375 0.5,0.40625 0.5,0.625 0,0.625 -1.109375,2.390625 -2.734375,2.40625 z m 0,0"
           id="path3643" />
      </symbol>
      <symbol
         overflow="visible"
         id="symbol4481">
        <path
           style="stroke:none"
           d=""
           id="path6771" />
      </symbol>
      <symbol
         overflow="visible"
         id="symbol7594">
        <path
           style="stroke:none"
           d="m 2.640625,-2.921875 c 0,-0.125 0,-0.1875 -0.09375,-0.1875 -0.03125,0 -0.046875,0 -0.140625,0.078125 -0.015625,0.015625 -0.078125,0.078125 -0.125,0.109375 -0.21875,-0.140625 -0.46875,-0.1875 -0.734375,-0.1875 -1,0 -1.234375,0.53125 -1.234375,0.875 0,0.21875 0.09375,0.40625 0.265625,0.546875 0.265625,0.21875 0.53125,0.265625 0.96875,0.34375 0.34375,0.0625 0.90625,0.15625 0.90625,0.625 0,0.265625 -0.1875,0.59375 -0.859375,0.59375 -0.671875,0 -0.90625,-0.4375 -1.03125,-0.90625 -0.03125,-0.09375 -0.03125,-0.125 -0.125,-0.125 -0.125,0 -0.125,0.046875 -0.125,0.1875 v 0.859375 C 0.3125,0 0.3125,0.0625 0.40625,0.0625 0.46875,0.0625 0.609375,-0.078125 0.75,-0.234375 1.046875,0.0625 1.421875,0.0625 1.59375,0.0625 c 0.90625,0 1.25,-0.484375 1.25,-0.96875 0,-0.265625 -0.125,-0.484375 -0.3125,-0.640625 -0.265625,-0.25 -0.578125,-0.3125 -0.828125,-0.34375 -0.546875,-0.109375 -1,-0.1875 -1,-0.5625 0,-0.21875 0.1875,-0.484375 0.84375,-0.484375 0.8125,0 0.84375,0.5625 0.859375,0.765625 0,0.078125 0.09375,0.078125 0.109375,0.078125 0.125,0 0.125,-0.046875 0.125,-0.1875 z m 0,0"
           id="path1154" />
      </symbol>
      <symbol
         overflow="visible"
         id="symbol26">
        <path
           style="stroke:none"
           d="m 3.5,-2.375 c 0.625,-0.140625 1.25,-0.5625 1.25,-1.125 0,-0.6875 -0.921875,-1.265625 -2,-1.265625 H 0.40625 v 0.25 h 0.171875 c 0.53125,0 0.546875,0.078125 0.546875,0.328125 v 3.625 c 0,0.234375 -0.015625,0.3125 -0.546875,0.3125 H 0.40625 V 0 c 0,0 0.75,-0.03125 1.03125,-0.03125 0.296875,0 0.6875,0.015625 1.03125,0.03125 V -0.25 H 2.3125 C 1.765625,-0.25 1.75,-0.328125 1.75,-0.5625 v -1.71875 h 0.9375 c 0.125,0 0.484375,0 0.796875,0.28125 0.234375,0.21875 0.234375,0.390625 0.234375,0.859375 0,0.453125 0,0.734375 0.328125,1 0.296875,0.25 0.703125,0.28125 0.90625,0.28125 0.59375,0 0.734375,-0.5625 0.734375,-0.78125 0,-0.046875 0,-0.125 -0.109375,-0.125 -0.109375,0 -0.109375,0.0625 -0.125,0.125 C 5.421875,-0.234375 5.1875,-0.0625 4.96875,-0.0625 4.578125,-0.0625 4.515625,-0.46875 4.4375,-1.09375 4.359375,-1.65625 4.34375,-1.765625 4.140625,-2 4.0625,-2.078125 3.875,-2.265625 3.5,-2.375 Z M 2.65625,-2.484375 H 1.75 v -1.75 C 1.75,-4.4375 1.765625,-4.484375 1.9375,-4.5 2,-4.515625 2.234375,-4.515625 2.390625,-4.515625 3.046875,-4.515625 4,-4.515625 4,-3.5 4,-2.71875 3.40625,-2.484375 2.65625,-2.484375 Z m 0,0"
           id="path2170" />
      </symbol>
      <symbol
         overflow="visible"
         id="symbol2952">
        <path
           style="stroke:none"
           d=""
           id="path358" />
      </symbol>
      <symbol
         overflow="visible"
         id="symbol1209">
        <path
           style="stroke:none"
           d="m 2.046875,-3.984375 h 0.9375 c 0.203125,0 0.3125,0 0.3125,-0.203125 0,-0.109375 -0.109375,-0.109375 -0.28125,-0.109375 h -0.875 C 2.5,-5.71875 2.546875,-5.90625 2.546875,-5.96875 c 0,-0.171875 -0.125,-0.265625 -0.296875,-0.265625 -0.03125,0 -0.3125,0 -0.390625,0.359375 L 1.46875,-4.296875 h -0.9375 c -0.203125,0 -0.296875,0 -0.296875,0.1875 0,0.125 0.078125,0.125 0.28125,0.125 h 0.875 C 0.671875,-1.15625 0.625,-0.984375 0.625,-0.8125 0.625,-0.265625 1,0.109375 1.546875,0.109375 2.5625,0.109375 3.125,-1.34375 3.125,-1.421875 3.125,-1.53125 3.046875,-1.53125 3.015625,-1.53125 2.921875,-1.53125 2.90625,-1.5 2.859375,-1.390625 2.4375,-0.34375 1.90625,-0.109375 1.5625,-0.109375 c -0.203125,0 -0.3125,-0.125 -0.3125,-0.453125 0,-0.25 0.03125,-0.3125 0.0625,-0.484375 z m 0,0"
           id="path2135" />
      </symbol>
    </g>
    <g
       id="g4858">
      <symbol
         overflow="visible"
         id="symbol1769">
        <path
           style="stroke:none"
           d=""
           id="path9369" />
      </symbol>
      <symbol
         overflow="visible"
         id="symbol1403">
        <path
           style="stroke:none"
           d="M 3.734375,-6.03125 C 3.8125,-6.390625 3.84375,-6.5 4.78125,-6.5 c 0.296875,0 0.375,0 0.375,-0.1875 0,-0.125 -0.109375,-0.125 -0.15625,-0.125 -0.328125,0 -1.140625,0.03125 -1.46875,0.03125 -0.296875,0 -1.03125,-0.03125 -1.328125,-0.03125 -0.0625,0 -0.1875,0 -0.1875,0.203125 0,0.109375 0.09375,0.109375 0.28125,0.109375 0.015625,0 0.203125,0 0.375,0.015625 0.171875,0.03125 0.265625,0.03125 0.265625,0.171875 0,0.03125 0,0.0625 -0.03125,0.1875 L 1.5625,-0.78125 c -0.09375,0.390625 -0.109375,0.46875 -0.90625,0.46875 -0.171875,0 -0.265625,0 -0.265625,0.203125 C 0.390625,0 0.484375,0 0.65625,0 h 4.625 C 5.515625,0 5.515625,0 5.578125,-0.171875 L 6.375,-2.328125 c 0.03125,-0.109375 0.03125,-0.125 0.03125,-0.140625 0,-0.03125 -0.03125,-0.109375 -0.109375,-0.109375 -0.09375,0 -0.109375,0.0625 -0.171875,0.21875 -0.34375,0.90625 -0.78125,2.046875 -2.5,2.046875 H 2.6875 c -0.140625,0 -0.171875,0 -0.21875,0 -0.109375,-0.015625 -0.140625,-0.03125 -0.140625,-0.109375 0,-0.03125 0,-0.046875 0.046875,-0.21875 z m 0,0"
           id="path3949" />
      </symbol>
      <symbol
         overflow="visible"
         id="symbol4819">
        <path
           style="stroke:none"
           d=""
           id="path4997" />
      </symbol>
      <symbol
         overflow="visible"
         id="symbol5733">
        <path
           style="stroke:none"
           d="m 1.921875,-4.609375 c -0.0625,-0.15625 -0.125,-0.15625 -0.265625,-0.15625 H 0.4375 v 0.25 h 0.15625 c 0.546875,0 0.5625,0.078125 0.5625,0.328125 V -0.75 c 0,0.1875 0,0.5 -0.71875,0.5 V 0 C 0.71875,-0.015625 1,-0.03125 1.28125,-0.03125 1.5625,-0.03125 1.84375,-0.015625 2.125,0 v -0.25 c -0.703125,0 -0.703125,-0.3125 -0.703125,-0.5 v -3.6875 l 1.8125,4.28125 C 3.265625,-0.078125 3.296875,0 3.40625,0 3.453125,0 3.515625,-0.015625 3.578125,-0.140625 L 5.421875,-4.5 v 3.9375 C 5.421875,-0.328125 5.40625,-0.25 4.875,-0.25 H 4.703125 V 0 c 0.328125,-0.015625 0.71875,-0.03125 1.015625,-0.03125 0.28125,0 0.671875,0.015625 1,0.03125 V -0.25 H 6.5625 C 6.015625,-0.25 6,-0.328125 6,-0.5625 v -3.625 c 0,-0.25 0.015625,-0.328125 0.5625,-0.328125 h 0.15625 v -0.25 H 5.515625 c -0.140625,0 -0.203125,0 -0.265625,0.140625 l -1.671875,3.953125 z m 0,0"
           id="path6848" />
      </symbol>
    </g>
  </defs>
  <metadata
     id="metadata3475">
    <rdf:RDF>
      <cc:Work
         rdf:about="">
        <dc:format>image/svg+xml</dc:format>
        <dc:type
           rdf:resource="http://purl.org/dc/dcmitype/StillImage" />
        <dc:title></dc:title>
      </cc:Work>
    </rdf:RDF>
  </metadata>
  <g
     inkscape:label="Circuit"
     style="display:inline"
     id="layer1"
     inkscape:groupmode="layer"
     transform="translate(-502.91598,-374.39507)" />
  <g
     inkscape:label="Labels"
     style="display:inline;opacity:1"
     id="layer2"
     inkscape:groupmode="layer"
     transform="translate(-323.08098,-44.740525)">
    <g
       inkscape:label="Circuit"
       style="display:inline"
       id="layer1-7"
       transform="translate(80.78574,-103.71623)" />
    <g
       inkscape:label="Circuit"
       style="display:inline"
       id="layer1-3"
       transform="translate(-114.835,-29.65454)" />
    <g
       transform="matrix(0.47239618,0,0,0.47239618,58.540603,62.534665)"
       id="layer1-9"
       style="display:inline"
       inkscape:label="Circuit" />
    <path
       id="path1098"
       sodipodi:nodetypes="cccc"
       d="m 510,65.000001 h 20 V 125 H 340"
       style="display:inline;fill:none;stroke:#000000;stroke-width:1px;stroke-linecap:square;stroke-linejoin:miter;stroke-opacity:1;marker-end:none"
       inkscape:connector-curvature="0" />
    <path
       inkscape:connector-curvature="0"
       inkscape:export-ydpi="300"
       inkscape:export-xdpi="300"
       inkscape:export-filename="/home/mhinkkan/Desktop/testi.png"
       id="path1100"
       sodipodi:nodetypes="cc"
       d="m 410,65 -20,10e-7"
       style="display:inline;fill:none;stroke:#000000;stroke-width:1px;stroke-linecap:square;stroke-linejoin:miter;stroke-opacity:1;marker-start:none;marker-mid:none;marker-end:none" />
    <path
       inkscape:connector-curvature="0"
       style="display:inline;fill:none;stroke:#000000;stroke-width:1px;stroke-linecap:butt;stroke-linejoin:miter;stroke-opacity:1;marker-start:url(#Arrow2Mstart-021);marker-mid:none"
       d="M 472,120 V 70"
       sodipodi:nodetypes="cc"
       id="path1102"
       inkscape:export-filename="C:\Documents and Settings\mhinkkan\Desktop\testi.png"
       inkscape:export-xdpi="300"
       inkscape:export-ydpi="300" />
    <path
       inkscape:connector-curvature="0"
       style="display:inline;fill:none;stroke:#000000;stroke-width:1.333;stroke-linecap:round;stroke-linejoin:miter;stroke-miterlimit:4;stroke-dasharray:none;stroke-opacity:1"
       d="m 510,65.000001 -2.5,5 -5,-10 -5,10 -5,-10 -5,10 -5,-10 -2.5,5"
       sodipodi:nodetypes="cccccccc"
       id="path1104" />
    <g
       transform="matrix(-1,0,0,1,505,66.595851)"
       style="display:inline"
       id="g1116">
      <circle
         r="10"
         cy="49.458618"
         cx="110"
         style="font-style:normal;font-variant:normal;font-weight:normal;font-stretch:normal;font-size:12px;line-height:125%;font-family:'Nimbus Roman No9 L';text-align:start;writing-mode:lr-tb;text-anchor:start;display:inline;fill:none;stroke:#000000;stroke-width:1.333;stroke-linecap:round;stroke-linejoin:round;stroke-miterlimit:4;stroke-dasharray:none;stroke-dashoffset:0;stroke-opacity:1"
         id="circle1106"
         transform="translate(-135,-21.054466)" />
      <g
         style="font-style:normal;font-variant:normal;font-weight:normal;font-stretch:normal;font-size:16.5px;line-height:125%;font-family:'Nimbus Roman No9 L';text-align:start;writing-mode:lr-tb;text-anchor:start;display:inline"
         transform="matrix(0.7272727,0,0,0.7272727,-45.545449,204.31843)"
         id="g1112">
        <path
           inkscape:connector-curvature="0"
           style="font-style:normal;font-variant:normal;font-weight:normal;font-stretch:normal;font-size:16.5px;line-height:125%;font-family:'Nimbus Roman No9 L';text-align:start;writing-mode:lr-tb;text-anchor:start;fill:none;stroke:#000000;stroke-width:1px;stroke-linecap:butt;stroke-linejoin:miter;stroke-opacity:1"
           d="m 9.5,-274.09586 v -10"
           sodipodi:nodetypes="cc"
           id="path1108"
           transform="translate(10.5,17.500004)" />
        <path
           inkscape:connector-curvature="0"
           style="font-style:normal;font-variant:normal;font-weight:normal;font-stretch:normal;font-size:16.5px;line-height:125%;font-family:'Nimbus Roman No9 L';text-align:start;writing-mode:lr-tb;text-anchor:start;display:inline;fill:none;stroke:#000000;stroke-width:1px;stroke-linecap:butt;stroke-linejoin:miter;stroke-opacity:1"
           d="m 19.999996,-279.59586 v 10"
           sodipodi:nodetypes="cc"
           id="path1110"
           transform="rotate(-90,26.5,-268.09586)" />
      </g>
      <path
         inkscape:connector-curvature="0"
         style="font-style:normal;font-variant:normal;font-weight:normal;font-stretch:normal;font-size:16.5px;line-height:125%;font-family:'Nimbus Roman No9 L';text-align:start;writing-mode:lr-tb;text-anchor:start;display:inline;fill:none;stroke:#000000;stroke-width:0.727273px;stroke-linecap:butt;stroke-linejoin:miter;stroke-opacity:1"
         d="m -34.636349,41.358664 h 7.27273"
         sodipodi:nodetypes="cc"
         id="path1114" />
    </g>
    <path
       inkscape:connector-curvature="0"
       style="display:inline;fill:none;stroke:#000000;stroke-width:1px;stroke-linecap:round;stroke-linejoin:miter;stroke-opacity:1;marker-end:url(#marker19838)"
       d="M 460,80 V 65"
       sodipodi:nodetypes="cc"
       id="path1118" />
    <path
       inkscape:connector-curvature="0"
       style="font-style:normal;font-variant:normal;font-weight:normal;font-stretch:normal;font-size:12px;line-height:125%;font-family:'Bitstream Vera Sans';text-align:start;writing-mode:lr-tb;text-anchor:start;display:inline;fill:none;stroke:#000000;stroke-width:1.333;stroke-linecap:round;stroke-linejoin:round;stroke-miterlimit:4;stroke-dasharray:none;stroke-opacity:1"
       d="m 460,110.00001 c 7,0 7,-10 0,-10 7,0 7,-10.00001 0,-10.00001 7,0 7,-10 0,-10"
       sodipodi:nodetypes="cccc"
       id="path1120" />
    <path
       id="path1122"
       sodipodi:nodetypes="cc"
       d="m 460,110 v 15"
       style="display:inline;fill:none;stroke:#000000;stroke-width:1px;stroke-linecap:round;stroke-linejoin:miter;stroke-opacity:1;marker-end:url(#marker19838)"
       inkscape:connector-curvature="0" />
    <path
       id="path1124"
       sodipodi:nodetypes="cccccccc"
       d="m 390,65.000001 -2.5,5 -5,-10 -5,10 -5,-10 -5,10 -5,-10 -2.5,5"
       style="display:inline;fill:none;stroke:#000000;stroke-width:1.333;stroke-linecap:round;stroke-linejoin:miter;stroke-miterlimit:4;stroke-dasharray:none;stroke-opacity:1"
       inkscape:connector-curvature="0" />
    <path
       style="display:inline;fill:none;stroke:#000000;stroke-width:1px;stroke-linecap:square;stroke-linejoin:miter;stroke-opacity:1;marker-start:none;marker-mid:none;marker-end:none"
       d="M 360,65.000001 H 340"
       sodipodi:nodetypes="cc"
       id="path1126"
       inkscape:export-filename="/home/mhinkkan/Desktop/testi.png"
       inkscape:export-xdpi="300"
       inkscape:export-ydpi="300"
       inkscape:connector-curvature="0" />
    <circle
       r="2"
       cy="65"
       cx="340"
       id="circle1128"
       style="display:inline;fill:#ffffff;fill-opacity:1;stroke:#000000;stroke-width:0.5;stroke-miterlimit:4;stroke-dasharray:none;stroke-opacity:1" />
    <path
       inkscape:export-ydpi="300"
       inkscape:export-xdpi="300"
       inkscape:export-filename="C:\Documents and Settings\mhinkkan\Desktop\testi.png"
       id="path1130"
       sodipodi:nodetypes="cc"
       d="m 354,65.000001 h -5"
       style="display:inline;fill:none;stroke:#000000;stroke-width:1px;stroke-linecap:butt;stroke-linejoin:miter;stroke-opacity:1;marker-start:url(#Arrow2Mstart-021);marker-mid:none"
       inkscape:connector-curvature="0" />
    <circle
       r="2"
       cy="125"
       cx="340"
       style="display:inline;fill:#ffffff;fill-opacity:1;stroke:#000000;stroke-width:0.5;stroke-miterlimit:4;stroke-dasharray:none;stroke-opacity:1"
       id="circle1132" />
    <path
       inkscape:export-ydpi="300"
       inkscape:export-xdpi="300"
       inkscape:export-filename="C:\Documents and Settings\mhinkkan\Desktop\testi.png"
       id="path1134"
       sodipodi:nodetypes="cc"
       d="M 400,120 V 70.000001"
       style="display:inline;fill:none;stroke:#000000;stroke-width:1px;stroke-linecap:butt;stroke-linejoin:miter;stroke-opacity:1;marker-start:url(#Arrow2Mstart-021);marker-mid:none"
       inkscape:connector-curvature="0" />
    <path
       inkscape:connector-curvature="0"
       style="display:inline;fill:none;stroke:#000000;stroke-width:1px;stroke-linecap:butt;stroke-linejoin:miter;stroke-opacity:1;marker-start:url(#Arrow2Mstart-021);marker-mid:none"
       d="M 340,120 V 70.000001"
       sodipodi:nodetypes="cc"
       id="path1136"
       inkscape:export-filename="C:\Documents and Settings\mhinkkan\Desktop\testi.png"
       inkscape:export-xdpi="300"
       inkscape:export-ydpi="300" />
    <path
       inkscape:connector-curvature="0"
       style="font-style:normal;font-variant:normal;font-weight:normal;font-stretch:normal;font-size:12px;line-height:125%;font-family:'Bitstream Vera Sans';text-align:start;writing-mode:lr-tb;text-anchor:start;display:inline;fill:none;stroke:#000000;stroke-width:1.333;stroke-linecap:round;stroke-linejoin:round;stroke-miterlimit:4;stroke-dasharray:none;stroke-opacity:1"
       d="m 440,65 c 0,-7 -10,-7 -10,0 0,-7 -10,-7 -10,0 0,-7 -10,-7 -10,0"
       sodipodi:nodetypes="cccc"
       id="path1138" />
    <path
       inkscape:connector-curvature="0"
       inkscape:export-ydpi="300"
       inkscape:export-xdpi="300"
       inkscape:export-filename="/home/mhinkkan/Desktop/testi.png"
       id="path1140"
       sodipodi:nodetypes="cc"
       d="M 480,65.000001 440,65"
       style="display:inline;fill:none;stroke:#000000;stroke-width:1px;stroke-linecap:round;stroke-linejoin:miter;stroke-opacity:1;marker-start:none;marker-mid:none;marker-end:none" />
    <g
       inkscape:label=""
       transform="matrix(1.25,0,0,1.25,253.33437,-49.099941)"
       id="g1152"
       style="stroke-width:0.8">
      <g
         id="g1150"
         style="stroke-width:0.8">
        <g
           style="fill:#000000;fill-opacity:1;stroke-width:0.8"
           id="g1144">
          <use
             xlink:href="#symbol9451"
             x="91.925003"
             y="81.962997"
             id="use1142"
             width="100%"
             height="100%"
             style="stroke-width:0.8" />
        </g>
        <g
           style="fill:#000000;fill-opacity:1;stroke-width:0.8"
           id="g1148">
          <use
             xlink:href="#symbol2762"
             x="99.489998"
             y="83.457001"
             id="use1146"
             width="100%"
             height="100%"
             style="stroke-width:0.8" />
        </g>
      </g>
    </g>
    <g
       inkscape:label=""
       transform="matrix(1.25,0,0,1.25,257.45947,-7.766949)"
       id="g1182"
       style="stroke-width:0.8">
      <g
         id="g1180"
         style="stroke-width:0.8">
        <g
           style="fill:#000000;fill-opacity:1;stroke-width:0.8"
           id="g1156">
          <use
             xlink:href="#symbol702"
             x="93.121002"
             y="79.458"
             id="use1154"
             width="100%"
             height="100%"
             style="stroke-width:0.8" />
        </g>
        <g
           style="fill:#000000;fill-opacity:1;stroke-width:0.8"
           id="g1160">
          <use
             xlink:href="#symbol9314"
             x="98.655998"
             y="79.458"
             id="use1158"
             width="100%"
             height="100%"
             style="stroke-width:0.8" />
        </g>
        <g
           style="fill:#000000;fill-opacity:1;stroke-width:0.8"
           id="g1164">
          <use
             xlink:href="#symbol2882"
             x="106.58"
             y="75.002998"
             id="use1162"
             width="100%"
             height="100%"
             style="stroke-width:0.8" />
        </g>
        <g
           style="fill:#000000;fill-opacity:1;stroke-width:0.8"
           id="g1168">
          <use
             xlink:href="#symbol2882"
             x="106.58"
             y="81.920998"
             id="use1166"
             width="100%"
             height="100%"
             style="stroke-width:0.8" />
        </g>
        <path
           style="fill:none;stroke:#000000;stroke-width:0.3184;stroke-linecap:butt;stroke-linejoin:miter;stroke-miterlimit:10;stroke-opacity:1"
           d="M 9.375e-5,-3.125e-5 H 17.113375"
           transform="matrix(1,0,0,-1,93.121,83.707)"
           id="path1170" />
        <g
           style="fill:#000000;fill-opacity:1;stroke-width:0.8"
           id="g1174">
          <use
             xlink:href="#symbol702"
             x="97.111"
             y="93.031998"
             id="use1172"
             width="100%"
             height="100%"
             style="stroke-width:0.8" />
        </g>
        <g
           style="fill:#000000;fill-opacity:1;stroke-width:0.8"
           id="g1178">
          <use
             xlink:href="#symbol4154"
             x="102.646"
             y="93.031998"
             id="use1176"
             width="100%"
             height="100%"
             style="stroke-width:0.8" />
        </g>
      </g>
    </g>
    <g
       id="g1226"
       style="stroke-width:0.8"
       transform="matrix(1.25,0,0,1.25,207.7841,-5.000078)">
      <g
         style="fill:#000000;fill-opacity:1;stroke-width:0.8"
         id="g1216">
        <use
           xlink:href="#symbol7817"
           x="91.925003"
           y="81.962997"
           id="use1214"
           width="100%"
           height="100%"
           style="stroke-width:0.8" />
      </g>
      <g
         style="fill:#000000;fill-opacity:1;stroke-width:0.8"
         id="g1220">
        <use
           xlink:href="#symbol2131"
           x="98.709999"
           y="78.347"
           id="use1218"
           width="100%"
           height="100%"
           style="stroke-width:0.8" />
      </g>
      <g
         style="fill:#000000;fill-opacity:1;stroke-width:0.8"
         id="g1224">
        <use
           xlink:href="#symbol2131"
           x="98.709999"
           y="84.426003"
           id="use1222"
           width="100%"
           height="100%"
           style="stroke-width:0.8" />
      </g>
    </g>
    <g
       inkscape:label=""
       transform="matrix(1.25,0,0,1.25,232.31082,-46.032884)"
       id="g1242"
       style="stroke-width:0.8">
      <g
         id="g1240"
         style="stroke-width:0.8">
        <g
           style="fill:#000000;fill-opacity:1;stroke-width:0.8"
           id="g1230">
          <use
             xlink:href="#symbol8824"
             x="91.925003"
             y="81.962997"
             id="use1228"
             width="100%"
             height="100%"
             style="stroke-width:0.8" />
        </g>
        <g
           style="fill:#000000;fill-opacity:1;stroke-width:0.8"
           id="g1234">
          <use
             xlink:href="#symbol3109"
             x="95.958"
             y="77.518997"
             id="use1232"
             width="100%"
             height="100%"
             style="stroke-width:0.8" />
        </g>
        <g
           style="fill:#000000;fill-opacity:1;stroke-width:0.8"
           id="g1238">
          <use
             xlink:href="#symbol3109"
             x="95.958"
             y="84.426003"
             id="use1236"
             width="100%"
             height="100%"
             style="stroke-width:0.8" />
        </g>
      </g>
    </g>
    <path
       inkscape:export-ydpi="300"
       inkscape:export-xdpi="300"
       inkscape:export-filename="C:\Documents and Settings\mhinkkan\Desktop\testi.png"
       id="path1324"
       sodipodi:nodetypes="cc"
       d="m 518,65.000001 h 5"
       style="display:inline;fill:none;stroke:#000000;stroke-width:1px;stroke-linecap:butt;stroke-linejoin:miter;stroke-opacity:1;marker-start:url(#Arrow2Mstart-021);marker-mid:none"
       inkscape:connector-curvature="0" />
    <g
       inkscape:label=""
       transform="matrix(1.25,0,0,1.25,371.55703,-49.197597)"
       id="g1649"
       style="stroke-width:0.8">
      <g
         id="g8142"
         style="stroke-width:0.8">
        <g
           style="fill:#000000;fill-opacity:1;stroke-width:0.8"
           id="g6585">
          <use
             xlink:href="#symbol7191"
             x="91.925003"
             y="81.962997"
             id="use3235"
             width="100%"
             height="100%"
             style="stroke-width:0.8" />
        </g>
        <g
           style="fill:#000000;fill-opacity:1;stroke-width:0.8"
           id="g7057">
          <use
             xlink:href="#symbol4979"
             x="99.489998"
             y="83.457001"
             id="use773"
             width="100%"
             height="100%"
             style="stroke-width:0.8" />
        </g>
      </g>
    </g>
    <g
       inkscape:label=""
       transform="matrix(1.25,0,0,1.25,302.8289,-49.099941)"
       id="g2009"
       style="stroke-width:0.8">
      <g
         id="g8683"
         style="stroke-width:0.8">
        <g
           style="fill:#000000;fill-opacity:1;stroke-width:0.8"
           id="g9629">
          <use
             xlink:href="#symbol9187"
             x="91.925003"
             y="81.962997"
             id="use3820"
             width="100%"
             height="100%"
             style="stroke-width:0.8" />
        </g>
        <g
           style="fill:#000000;fill-opacity:1;stroke-width:0.8"
           id="g7214">
          <use
             xlink:href="#symbol2669"
             x="98.705002"
             y="83.457001"
             id="use1111"
             width="100%"
             height="100%"
             style="stroke-width:0.8" />
        </g>
      </g>
    </g>
    <g
       inkscape:label=""
       transform="matrix(1.25,0,0,1.25,428.87197,-5.0977352)"
       id="g2830"
       style="stroke-width:0.8">
      <g
         id="g9537"
         style="stroke-width:0.8">
        <g
           style="fill:#000000;fill-opacity:1;stroke-width:0.8"
           id="g8882">
          <use
             xlink:href="#symbol2337"
             x="91.925003"
             y="81.962997"
             id="use6943"
             width="100%"
             height="100%"
             style="stroke-width:0.8" />
        </g>
        <g
           style="fill:#000000;fill-opacity:1;stroke-width:0.8"
           id="g3962">
          <use
             xlink:href="#symbol1356"
             x="94.969002"
             y="81.962997"
             id="use6202"
             width="100%"
             height="100%"
             style="stroke-width:0.8" />
        </g>
        <g
           style="fill:#000000;fill-opacity:1;stroke-width:0.8"
           id="g7450">
          <use
             xlink:href="#symbol3501"
             x="101.171"
             y="83.457001"
             id="use1241"
             width="100%"
             height="100%"
             style="stroke-width:0.8" />
        </g>
        <g
           style="fill:#000000;fill-opacity:1;stroke-width:0.8"
           id="g4086">
          <use
             xlink:href="#symbol4371"
             x="108.214"
             y="81.962997"
             id="use763"
             width="100%"
             height="100%"
             style="stroke-width:0.8" />
        </g>
        <g
           style="fill:#000000;fill-opacity:1;stroke-width:0.8"
           id="g1965">
          <use
             xlink:href="#symbol7209"
             x="116.138"
             y="77.507004"
             id="use7608"
             width="100%"
             height="100%"
             style="stroke-width:0.8" />
        </g>
        <g
           style="fill:#000000;fill-opacity:1;stroke-width:0.8"
           id="g9225">
          <use
             xlink:href="#symbol7065"
             x="116.138"
             y="84.426003"
             id="use6646"
             width="100%"
             height="100%"
             style="stroke-width:0.8" />
        </g>
      </g>
    </g>
    <g
       inkscape:label=""
       transform="matrix(1.25,0,0,1.25,400.74962,-46.130541)"
       id="g3283"
       style="stroke-width:0.8">
      <g
         id="g2024"
         style="stroke-width:0.8">
        <g
           style="fill:#000000;fill-opacity:1;stroke-width:0.8"
           id="g466">
          <use
             xlink:href="#symbol6064"
             x="91.925003"
             y="81.962997"
             id="use8838"
             width="100%"
             height="100%"
             style="stroke-width:0.8" />
        </g>
        <g
           style="fill:#000000;fill-opacity:1;stroke-width:0.8"
           id="g3062">
          <use
             xlink:href="#symbol9696"
             x="95.958"
             y="77.518997"
             id="use7382"
             width="100%"
             height="100%"
             style="stroke-width:0.8" />
        </g>
        <g
           style="fill:#000000;fill-opacity:1;stroke-width:0.8"
           id="g7195">
          <use
             xlink:href="#symbol2947"
             x="95.958"
             y="84.426003"
             id="use439"
             width="100%"
             height="100%"
             style="stroke-width:0.8" />
        </g>
      </g>
    </g>
    <g
       inkscape:label=""
       transform="matrix(1.25,0,0,1.25,361.23695,-7.766949)"
       id="g4260"
       style="stroke-width:0.8">
      <g
         id="g1778"
         style="stroke-width:0.8">
        <g
           style="fill:#000000;fill-opacity:1;stroke-width:0.8"
           id="g6344">
          <use
             xlink:href="#symbol5081"
             x="93.121002"
             y="79.458"
             id="use311"
             width="100%"
             height="100%"
             style="stroke-width:0.8" />
        </g>
        <g
           style="fill:#000000;fill-opacity:1;stroke-width:0.8"
           id="g1787">
          <use
             xlink:href="#symbol9250"
             x="98.655998"
             y="79.458"
             id="use9732"
             width="100%"
             height="100%"
             style="stroke-width:0.8" />
        </g>
        <g
           style="fill:#000000;fill-opacity:1;stroke-width:0.8"
           id="g8951">
          <use
             xlink:href="#symbol7594"
             x="106.58"
             y="75.002998"
             id="use8810"
             width="100%"
             height="100%"
             style="stroke-width:0.8" />
        </g>
        <g
           style="fill:#000000;fill-opacity:1;stroke-width:0.8"
           id="g3643">
          <use
             xlink:href="#symbol26"
             x="106.58"
             y="81.920998"
             id="use9916"
             width="100%"
             height="100%"
             style="stroke-width:0.8" />
        </g>
        <path
           style="fill:none;stroke:#000000;stroke-width:0.3184;stroke-linecap:butt;stroke-linejoin:miter;stroke-miterlimit:10;stroke-opacity:1"
           d="M 9.375e-5,-3.125e-5 H 19.742281"
           transform="matrix(1,0,0,-1,93.121,83.707)"
           id="path352" />
        <g
           style="fill:#000000;fill-opacity:1;stroke-width:0.8"
           id="g5732">
          <use
             xlink:href="#symbol5081"
             x="98.425003"
             y="93.031998"
             id="use1314"
             width="100%"
             height="100%"
             style="stroke-width:0.8" />
        </g>
        <g
           style="fill:#000000;fill-opacity:1;stroke-width:0.8"
           id="g4810">
          <use
             xlink:href="#symbol1209"
             x="103.96"
             y="93.031998"
             id="use704"
             width="100%"
             height="100%"
             style="stroke-width:0.8" />
        </g>
      </g>
    </g>
    <g
       inkscape:label=""
       transform="matrix(1.25,0,0,1.25,322.26758,-3.7107018)"
       id="g4780"
       style="stroke-width:0.8">
      <g
         id="g2606"
         style="stroke-width:0.8">
        <g
           style="fill:#000000;fill-opacity:1;stroke-width:0.8"
           id="g9677">
          <use
             xlink:href="#symbol1403"
             x="91.925003"
             y="81.962997"
             id="use290"
             width="100%"
             height="100%"
             style="stroke-width:0.8" />
        </g>
        <g
           style="fill:#000000;fill-opacity:1;stroke-width:0.8"
           id="g8938">
          <use
             xlink:href="#symbol5733"
             x="98.705002"
             y="83.457001"
             id="use1001"
             width="100%"
             height="100%"
             style="stroke-width:0.8" />
        </g>
      </g>
    </g>
  </g>
</svg>
