<?xml version="1.0" encoding="UTF-8" standalone="no"?>
<svg
   xmlns:dc="http://purl.org/dc/elements/1.1/"
   xmlns:cc="http://creativecommons.org/ns#"
   xmlns:rdf="http://www.w3.org/1999/02/22-rdf-syntax-ns#"
   xmlns:svg="http://www.w3.org/2000/svg"
   xmlns="http://www.w3.org/2000/svg"
   xmlns:xlink="http://www.w3.org/1999/xlink"
   xmlns:sodipodi="http://sodipodi.sourceforge.net/DTD/sodipodi-0.dtd"
   xmlns:inkscape="http://www.inkscape.org/namespaces/inkscape"
   width="480"
   height="85.000053"
   id="svg6781"
   version="1.1"
   inkscape:version="1.0.2 (e86c870879, 2021-01-15)"
   sodipodi:docname="mech_block.svg"
   viewBox="0 0 480.00001 85.000056">
  <sodipodi:namedview
     id="base"
     pagecolor="#ffffff"
     bordercolor="#666666"
     borderopacity="1.0"
     inkscape:pageopacity="0.0"
     inkscape:pageshadow="2"
     inkscape:zoom="1.979899"
     inkscape:cx="132.82802"
     inkscape:cy="46.518745"
     inkscape:document-units="px"
     inkscape:current-layer="layer1"
     showgrid="true"
     inkscape:window-width="1920"
     inkscape:window-height="1136"
     inkscape:window-x="0"
     inkscape:window-y="0"
     inkscape:window-maximized="1"
     inkscape:snap-object-midpoints="true"
     inkscape:snap-intersection-paths="true"
     inkscape:snap-grids="true"
     inkscape:object-paths="true"
     inkscape:document-rotation="0"
     fit-margin-top="0"
     fit-margin-left="0"
     fit-margin-right="0"
     fit-margin-bottom="0">
    <inkscape:grid
       spacingy="0.5"
       spacingx="0.5"
       snapvisiblegridlinesonly="true"
       enabled="true"
       visible="true"
       empspacing="5"
       id="grid7066"
       type="xygrid"
       originx="-75.000002"
       originy="-805.00001" />
  </sodipodi:namedview>
  <defs
     id="defs6783">
    <marker
       style="overflow:visible"
       id="DotM"
       refX="0"
       refY="0"
       orient="auto"
       inkscape:stockid="DotM">
      <path
         transform="matrix(0.4,0,0,0.4,2.96,0.4)"
         style="fill-rule:evenodd;stroke:#000000;stroke-width:1pt;marker-start:none;marker-end:none"
         d="m -2.5,-1 c 0,2.76 -2.24,5 -5,5 -2.76,0 -5,-2.24 -5,-5 0,-2.76 2.24,-5 5,-5 2.76,0 5,2.24 5,5 z"
         id="path4676"
         inkscape:connector-curvature="0" />
    </marker>
    <marker
       refX="0"
       inkscape:stockid="Arrow2Mend"
       refY="0"
       orient="auto"
       id="Arrow2Mend-9"
       style="overflow:visible">
      <path
         id="path18502-9"
         d="M 8.7185878,4.0337352 -2.2072895,0.01601326 8.7185884,-4.0017078 c -1.7454984,2.3720609 -1.7354408,5.6174519 -6e-7,8.035443 z"
         transform="scale(-0.6)"
         style="font-size:12px;fill-rule:evenodd;stroke-width:0.625;stroke-linejoin:round"
         inkscape:connector-curvature="0" />
    </marker>
    <marker
       style="overflow:visible"
       id="Arrow2Mend-9-7"
       orient="auto"
       refY="0"
       inkscape:stockid="Arrow2Mend"
       refX="0">
      <path
         inkscape:connector-curvature="0"
         style="font-size:12px;fill-rule:evenodd;stroke-width:0.625;stroke-linejoin:round"
         transform="scale(-0.6)"
         d="M 8.7185878,4.0337352 -2.2072895,0.01601326 8.7185884,-4.0017078 c -1.7454984,2.3720609 -1.7354408,5.6174519 -6e-7,8.035443 z"
         id="path18502-9-5" />
    </marker>
    <g
       id="g4009">
      <symbol
         overflow="visible"
         id="symbol1940">
        <path
           style="stroke:none"
           d=""
           id="path670" />
      </symbol>
      <symbol
         overflow="visible"
         id="symbol4516">
        <path
           style="stroke:none"
           d="m 2.9375,-6.375 c 0,-0.25 0,-0.265625 -0.234375,-0.265625 C 2.078125,-6 1.203125,-6 0.890625,-6 v 0.3125 c 0.203125,0 0.78125,0 1.296875,-0.265625 v 5.171875 c 0,0.359375 -0.03125,0.46875 -0.921875,0.46875 h -0.3125 V 0 c 0.34375,-0.03125 1.203125,-0.03125 1.609375,-0.03125 0.390625,0 1.265625,0 1.609375,0.03125 v -0.3125 h -0.3125 c -0.90625,0 -0.921875,-0.109375 -0.921875,-0.46875 z m 0,0"
           id="path118" />
      </symbol>
      <symbol
         overflow="visible"
         id="symbol4794">
        <path
           style="stroke:none"
           d=""
           id="path9147" />
      </symbol>
      <symbol
         overflow="visible"
         id="symbol2386">
        <path
           style="stroke:none"
           d="M 3.890625,-3.734375 C 3.625,-3.71875 3.421875,-3.5 3.421875,-3.28125 c 0,0.140625 0.09375,0.296875 0.3125,0.296875 0.21875,0 0.453125,-0.171875 0.453125,-0.5625 C 4.1875,-4 3.765625,-4.40625 3,-4.40625 c -1.3125,0 -1.6875,1.015625 -1.6875,1.453125 0,0.78125 0.734375,0.921875 1.03125,0.984375 0.515625,0.109375 1.03125,0.21875 1.03125,0.765625 0,0.25 -0.21875,1.09375 -1.421875,1.09375 -0.140625,0 -0.90625,0 -1.140625,-0.53125 0.390625,0.046875 0.640625,-0.25 0.640625,-0.53125 0,-0.21875 -0.171875,-0.34375 -0.375,-0.34375 -0.265625,0 -0.5625,0.203125 -0.5625,0.65625 0,0.5625 0.578125,0.96875 1.421875,0.96875 1.625,0 2.015625,-1.203125 2.015625,-1.65625 0,-0.359375 -0.1875,-0.609375 -0.3125,-0.71875 -0.265625,-0.28125 -0.5625,-0.34375 -1,-0.421875 -0.359375,-0.078125 -0.75,-0.15625 -0.75,-0.609375 C 1.890625,-3.578125 2.125,-4.1875 3,-4.1875 c 0.25,0 0.75,0.078125 0.890625,0.453125 z m 0,0"
           id="path7328" />
      </symbol>
    </g>
    <g
       id="g2151">
      <symbol
         overflow="visible"
         id="symbol2430">
        <path
           style="stroke:none"
           d=""
           id="path1504" />
      </symbol>
      <symbol
         overflow="visible"
         id="symbol5294">
        <path
           style="stroke:none"
           d="m 2.9375,-3.71875 h 1.671875 c 0.125,0 0.484375,0 0.484375,-0.34375 0,-0.234375 -0.203125,-0.234375 -0.40625,-0.234375 H 1.90625 c -0.203125,0 -0.59375,0 -1.03125,0.46875 -0.328125,0.359375 -0.609375,0.84375 -0.609375,0.890625 0,0.015625 0,0.109375 0.125,0.109375 0.078125,0 0.09375,-0.046875 0.15625,-0.125 C 1.03125,-3.71875 1.609375,-3.71875 1.8125,-3.71875 h 0.828125 l -0.96875,3.203125 C 1.625,-0.40625 1.5625,-0.1875 1.5625,-0.15625 c 0,0.109375 0.078125,0.28125 0.296875,0.28125 0.328125,0 0.375,-0.28125 0.40625,-0.4375 z m 0,0"
           id="path5638" />
      </symbol>
      <symbol
         overflow="visible"
         id="symbol5827">
        <path
           style="stroke:none"
           d=""
           id="path6118" />
      </symbol>
      <symbol
         overflow="visible"
         id="symbol6179">
        <path
           style="stroke:none"
           d="m 1.921875,-4.609375 c -0.0625,-0.15625 -0.125,-0.15625 -0.265625,-0.15625 H 0.4375 v 0.25 h 0.15625 c 0.546875,0 0.5625,0.078125 0.5625,0.328125 V -0.75 c 0,0.1875 0,0.5 -0.71875,0.5 V 0 C 0.71875,-0.015625 1,-0.03125 1.28125,-0.03125 1.5625,-0.03125 1.84375,-0.015625 2.125,0 v -0.25 c -0.703125,0 -0.703125,-0.3125 -0.703125,-0.5 v -3.6875 l 1.8125,4.28125 C 3.265625,-0.078125 3.296875,0 3.40625,0 3.453125,0 3.515625,-0.015625 3.578125,-0.140625 L 5.421875,-4.5 v 3.9375 C 5.421875,-0.328125 5.40625,-0.25 4.875,-0.25 H 4.703125 V 0 c 0.328125,-0.015625 0.71875,-0.03125 1.015625,-0.03125 0.28125,0 0.671875,0.015625 1,0.03125 V -0.25 H 6.5625 C 6.015625,-0.25 6,-0.328125 6,-0.5625 v -3.625 c 0,-0.25 0.015625,-0.328125 0.5625,-0.328125 h 0.15625 v -0.25 H 5.515625 c -0.140625,0 -0.203125,0 -0.265625,0.140625 l -1.671875,3.953125 z m 0,0"
           id="path5007" />
      </symbol>
    </g>
    <g
       id="g5116">
      <symbol
         overflow="visible"
         id="symbol9401">
        <path
           style="stroke:none"
           d=""
           id="path8379" />
      </symbol>
      <symbol
         overflow="visible"
         id="symbol3572">
        <path
           style="stroke:none"
           d="M 1.59375,-0.78125 C 1.5,-0.390625 1.46875,-0.3125 0.6875,-0.3125 c -0.171875,0 -0.265625,0 -0.265625,0.203125 C 0.421875,0 0.515625,0 0.6875,0 H 4.25 C 5.828125,0 7,-1.171875 7,-2.15625 7,-2.875 6.421875,-3.453125 5.453125,-3.5625 6.484375,-3.75 7.53125,-4.484375 7.53125,-5.4375 c 0,-0.734375 -0.65625,-1.375 -1.84375,-1.375 H 2.328125 c -0.1875,0 -0.28125,0 -0.28125,0.203125 0,0.109375 0.09375,0.109375 0.28125,0.109375 0.015625,0 0.203125,0 0.375,0.015625 0.171875,0.03125 0.265625,0.03125 0.265625,0.171875 0,0.03125 -0.015625,0.0625 -0.03125,0.1875 z m 1.5,-2.875 0.625,-2.46875 C 3.8125,-6.46875 3.828125,-6.5 4.25,-6.5 h 1.296875 c 0.875,0 1.078125,0.59375 1.078125,1.03125 0,0.875 -0.859375,1.8125 -2.0625,1.8125 z m -0.4375,3.34375 c -0.140625,0 -0.15625,0 -0.21875,0 -0.109375,-0.015625 -0.140625,-0.03125 -0.140625,-0.109375 0,-0.03125 0,-0.046875 0.0625,-0.21875 l 0.6875,-2.78125 h 1.875 c 0.953125,0 1.15625,0.734375 1.15625,1.15625 C 6.078125,-1.28125 5.1875,-0.3125 4,-0.3125 Z m 0,0"
           id="path1759" />
      </symbol>
    </g>
    <g
       id="g9929">
      <symbol
         overflow="visible"
         id="symbol1825">
        <path
           style="stroke:none"
           d=""
           id="path5910" />
      </symbol>
      <symbol
         overflow="visible"
         id="symbol9421">
        <path
           style="stroke:none"
           d="m 2.9375,-6.375 c 0,-0.25 0,-0.265625 -0.234375,-0.265625 C 2.078125,-6 1.203125,-6 0.890625,-6 v 0.3125 c 0.203125,0 0.78125,0 1.296875,-0.265625 v 5.171875 c 0,0.359375 -0.03125,0.46875 -0.921875,0.46875 h -0.3125 V 0 c 0.34375,-0.03125 1.203125,-0.03125 1.609375,-0.03125 0.390625,0 1.265625,0 1.609375,0.03125 v -0.3125 h -0.3125 c -0.90625,0 -0.921875,-0.109375 -0.921875,-0.46875 z m 0,0"
           id="path837" />
      </symbol>
      <symbol
         overflow="visible"
         id="symbol8462">
        <path
           style="stroke:none"
           d=""
           id="path4604" />
      </symbol>
      <symbol
         overflow="visible"
         id="symbol1999">
        <path
           style="stroke:none"
           d="M 5.390625,-6.078125 C 5.46875,-6.40625 5.5,-6.5 6.046875,-6.5 c 0.15625,0 0.265625,0 0.265625,-0.1875 0,-0.09375 -0.0625,-0.125 -0.140625,-0.125 -0.25,0 -0.859375,0.03125 -1.109375,0.03125 -0.328125,0 -1.140625,-0.03125 -1.46875,-0.03125 -0.078125,0 -0.203125,0 -0.203125,0.203125 C 3.390625,-6.5 3.46875,-6.5 3.734375,-6.5 c 0.21875,0 0.328125,0 0.578125,0.015625 0.234375,0.03125 0.296875,0.0625 0.296875,0.203125 0,0.0625 -0.015625,0.125 -0.03125,0.203125 L 3.421875,-1.5 C 3.1875,-0.53125 2.515625,0 2,0 1.734375,0 1.203125,-0.09375 1.046875,-0.625 c 0.03125,0.015625 0.09375,0.015625 0.125,0.015625 0.390625,0 0.640625,-0.34375 0.640625,-0.640625 0,-0.3125 -0.265625,-0.421875 -0.4375,-0.421875 -0.171875,0 -0.671875,0.125 -0.671875,0.796875 0,0.625 0.53125,1.09375 1.328125,1.09375 0.90625,0 1.953125,-0.65625 2.203125,-1.640625 z m 0,0"
           id="path7259" />
      </symbol>
    </g>
    <g
       id="g6188">
      <symbol
         overflow="visible"
         id="symbol8294">
        <path
           style="stroke:none"
           d=""
           id="path4311" />
      </symbol>
      <symbol
         overflow="visible"
         id="symbol529">
        <path
           style="stroke:none"
           d="m 2.9375,-3.71875 h 1.671875 c 0.125,0 0.484375,0 0.484375,-0.34375 0,-0.234375 -0.203125,-0.234375 -0.40625,-0.234375 H 1.90625 c -0.203125,0 -0.59375,0 -1.03125,0.46875 -0.328125,0.359375 -0.609375,0.84375 -0.609375,0.890625 0,0.015625 0,0.109375 0.125,0.109375 0.078125,0 0.09375,-0.046875 0.15625,-0.125 C 1.03125,-3.71875 1.609375,-3.71875 1.8125,-3.71875 h 0.828125 l -0.96875,3.203125 C 1.625,-0.40625 1.5625,-0.1875 1.5625,-0.15625 c 0,0.109375 0.078125,0.28125 0.296875,0.28125 0.328125,0 0.375,-0.28125 0.40625,-0.4375 z m 0,0"
           id="path6124" />
      </symbol>
      <symbol
         overflow="visible"
         id="symbol2518">
        <path
           style="stroke:none"
           d=""
           id="path4917" />
      </symbol>
      <symbol
         overflow="visible"
         id="symbol9847">
        <path
           style="stroke:none"
           d="M 4.53125,-1.828125 H 4.296875 C 4.21875,-1.15625 4.125,-0.25 2.796875,-0.25 h -0.6875 c -0.328125,0 -0.34375,-0.0625 -0.34375,-0.265625 V -4.1875 c 0,-0.234375 0,-0.328125 0.65625,-0.328125 h 0.25 v -0.25 C 2.515625,-4.75 1.625,-4.734375 1.453125,-4.734375 c -0.265625,0 -1.0625,-0.03125 -1.0625,-0.03125 v 0.25 H 0.5625 c 0.53125,0 0.546875,0.078125 0.546875,0.328125 v 3.625 c 0,0.234375 -0.015625,0.3125 -0.546875,0.3125 H 0.390625 V 0 h 3.9375 z m 0,0"
           id="path3048" />
      </symbol>
    </g>
    <g
       id="g4494">
      <symbol
         overflow="visible"
         id="symbol3173">
        <path
           style="stroke:none"
           d=""
           id="path6623" />
      </symbol>
      <symbol
         overflow="visible"
         id="symbol1324">
        <path
           style="stroke:none"
           d="m 6.03125,-3.703125 c 0,-0.453125 -0.171875,-0.703125 -0.40625,-0.703125 -0.25,0 -0.515625,0.234375 -0.515625,0.46875 0,0.09375 0.046875,0.203125 0.140625,0.296875 0.171875,0.15625 0.359375,0.421875 0.359375,0.84375 0,0.390625 -0.203125,0.96875 -0.5,1.421875 C 4.8125,-0.953125 4.4375,-0.609375 3.96875,-0.609375 3.40625,-0.609375 3.09375,-0.96875 3,-1.5 c 0.109375,-0.265625 0.34375,-0.90625 0.34375,-1.1875 0,-0.109375 -0.046875,-0.21875 -0.1875,-0.21875 -0.078125,0 -0.1875,0.03125 -0.265625,0.171875 C 2.78125,-2.53125 2.65625,-1.890625 2.65625,-1.53125 2.328125,-1.0625 1.9375,-0.609375 1.3125,-0.609375 c -0.671875,0 -0.875,-0.59375 -0.875,-1.140625 0,-1.25 1.015625,-2.296875 1.015625,-2.421875 0,-0.109375 -0.078125,-0.1875 -0.1875,-0.1875 -0.125,0 -0.203125,0.125 -0.265625,0.21875 -0.5,0.734375 -0.875,1.921875 -0.875,2.828125 0,0.6875 0.21875,1.421875 1.046875,1.421875 0.703125,0 1.171875,-0.5 1.53125,-1.046875 0.09375,0.578125 0.484375,1.046875 1.09375,1.046875 0.78125,0 1.25,-0.609375 1.609375,-1.359375 0.25,-0.484375 0.625,-1.84375 0.625,-2.453125 z m 0,0"
           id="path9134" />
      </symbol>
      <symbol
         overflow="visible"
         id="symbol2298">
        <path
           style="stroke:none"
           d=""
           id="path5930" />
      </symbol>
      <symbol
         overflow="visible"
         id="symbol5249">
        <path
           style="stroke:none"
           d="m 1.921875,-4.609375 c -0.0625,-0.15625 -0.125,-0.15625 -0.265625,-0.15625 H 0.4375 v 0.25 h 0.15625 c 0.546875,0 0.5625,0.078125 0.5625,0.328125 V -0.75 c 0,0.1875 0,0.5 -0.71875,0.5 V 0 C 0.71875,-0.015625 1,-0.03125 1.28125,-0.03125 1.5625,-0.03125 1.84375,-0.015625 2.125,0 v -0.25 c -0.703125,0 -0.703125,-0.3125 -0.703125,-0.5 v -3.6875 l 1.8125,4.28125 C 3.265625,-0.078125 3.296875,0 3.40625,0 3.453125,0 3.515625,-0.015625 3.578125,-0.140625 L 5.421875,-4.5 v 3.9375 C 5.421875,-0.328125 5.40625,-0.25 4.875,-0.25 H 4.703125 V 0 c 0.328125,-0.015625 0.71875,-0.03125 1.015625,-0.03125 0.28125,0 0.671875,0.015625 1,0.03125 V -0.25 H 6.5625 C 6.015625,-0.25 6,-0.328125 6,-0.5625 v -3.625 c 0,-0.25 0.015625,-0.328125 0.5625,-0.328125 h 0.15625 v -0.25 H 5.515625 c -0.140625,0 -0.203125,0 -0.265625,0.140625 l -1.671875,3.953125 z m 0,0"
           id="path279" />
      </symbol>
    </g>
    <g
       id="g2991">
      <symbol
         overflow="visible"
         id="symbol3685">
        <path
           style="stroke:none"
           d=""
           id="path9299" />
      </symbol>
      <symbol
         overflow="visible"
         id="symbol4983">
        <path
           style="stroke:none"
           d="m 2.9375,-3.71875 h 1.671875 c 0.125,0 0.484375,0 0.484375,-0.34375 0,-0.234375 -0.203125,-0.234375 -0.40625,-0.234375 H 1.90625 c -0.203125,0 -0.59375,0 -1.03125,0.46875 -0.328125,0.359375 -0.609375,0.84375 -0.609375,0.890625 0,0.015625 0,0.109375 0.125,0.109375 0.078125,0 0.09375,-0.046875 0.15625,-0.125 C 1.03125,-3.71875 1.609375,-3.71875 1.8125,-3.71875 h 0.828125 l -0.96875,3.203125 C 1.625,-0.40625 1.5625,-0.1875 1.5625,-0.15625 c 0,0.109375 0.078125,0.28125 0.296875,0.28125 0.328125,0 0.375,-0.28125 0.40625,-0.4375 z m 0,0"
           id="path8847" />
      </symbol>
      <symbol
         overflow="visible"
         id="symbol6641">
        <path
           style="stroke:none"
           d=""
           id="path2627" />
      </symbol>
      <symbol
         overflow="visible"
         id="symbol5600">
        <path
           style="stroke:none"
           d="M 0.828125,-0.953125 C 0.90625,-0.5 1.125,0.078125 1.71875,0.078125 1.9375,0.078125 2.1875,0 2.453125,-0.171875 2.5625,-0.234375 2.921875,-0.5 2.921875,-0.578125 c 0,-0.046875 -0.046875,-0.125 -0.109375,-0.125 -0.03125,0 -0.046875,0 -0.15625,0.09375 -0.296875,0.265625 -0.609375,0.5 -0.921875,0.5 C 1.25,-0.109375 1.25,-0.921875 1.25,-1.0625 c 0,-0.09375 0,-0.09375 0.015625,-0.234375 0.015625,-0.0625 0.015625,-0.078125 0.09375,-0.15625 0.375,-0.359375 1.703125,-1.640625 1.703125,-2.84375 0,-0.109375 0,-0.609375 -0.46875,-0.609375 C 2.015625,-4.90625 1.546875,-4 1.4375,-3.796875 1.140625,-3.203125 0.96875,-2.640625 0.90625,-2.28125 0.796875,-1.8125 0.796875,-1.578125 0.796875,-1.234375 0.75,-1.1875 0.34375,-0.828125 0.28125,-0.78125 c -0.109375,0.109375 -0.125,0.109375 -0.125,0.15625 0,0.046875 0.0625,0.125 0.125,0.125 0.046875,0 0.234375,-0.171875 0.28125,-0.21875 z m 0.5,-0.796875 C 1.453125,-2.453125 2,-4.703125 2.59375,-4.703125 c 0.15625,0 0.25,0.109375 0.25,0.359375 0,0.078125 0,0.703125 -0.609375,1.5625 C 1.875,-2.28125 1.5,-1.90625 1.328125,-1.75 Z m 0,0"
           id="path8314" />
      </symbol>
    </g>
  </defs>
  <metadata
     id="metadata6786">
    <rdf:RDF>
      <cc:Work
         rdf:about="">
        <dc:format>image/svg+xml</dc:format>
        <dc:type
           rdf:resource="http://purl.org/dc/dcmitype/StillImage" />
        <dc:title></dc:title>
      </cc:Work>
    </rdf:RDF>
  </metadata>
  <g
     id="layer1"
     inkscape:groupmode="layer"
     inkscape:label="Layer 1"
     transform="translate(-75,-804.99994)">
    <path
       style="display:inline;fill:none;stroke:#000000;stroke-width:1px;stroke-linecap:butt;stroke-linejoin:miter;stroke-opacity:1;marker-start:none;marker-end:url(#Arrow2Mend-9-7)"
       d="M 285,869.99997 H 267.5"
       id="path3787"
       inkscape:connector-curvature="0"
       sodipodi:nodetypes="cc" />
    <g
       id="g3793"
       transform="matrix(0,0.7272727,0.7272727,0,467.38788,847.45452)"
       style="font-style:normal;font-variant:normal;font-weight:normal;font-stretch:normal;font-size:16.5px;line-height:125%;font-family:'Nimbus Roman No9 L';text-align:start;writing-mode:lr-tb;text-anchor:start;display:inline">
      <path
         transform="translate(10.5,17.500004)"
         id="path3789"
         sodipodi:nodetypes="cc"
         d="m 9.5,-274.09586 v -10"
         style="font-style:normal;font-variant:normal;font-weight:normal;font-stretch:normal;font-size:16.5px;line-height:125%;font-family:'Nimbus Roman No9 L';text-align:start;writing-mode:lr-tb;text-anchor:start;fill:none;stroke:#000000;stroke-width:1px;stroke-linecap:butt;stroke-linejoin:miter;stroke-opacity:1"
         inkscape:connector-curvature="0" />
      <path
         transform="rotate(-90,26.5,-268.09586)"
         id="path3791"
         sodipodi:nodetypes="cc"
         d="m 19.999996,-279.59586 v 10"
         style="font-style:normal;font-variant:normal;font-weight:normal;font-stretch:normal;font-size:16.5px;line-height:125%;font-family:'Nimbus Roman No9 L';text-align:start;writing-mode:lr-tb;text-anchor:start;display:inline;fill:none;stroke:#000000;stroke-width:1px;stroke-linecap:butt;stroke-linejoin:miter;stroke-opacity:1"
         inkscape:connector-curvature="0" />
    </g>
    <g
       id="g3785"
       transform="translate(0,39.99997)">
      <path
         style="display:inline;fill:none;stroke:#000000;stroke-width:1px;stroke-linecap:butt;stroke-linejoin:miter;stroke-opacity:1;marker-start:none;marker-end:url(#Arrow2Mend-9-7)"
         d="m 215,830 h 37.5"
         id="path3777"
         inkscape:connector-curvature="0"
         sodipodi:nodetypes="cc" />
      <g
         id="g3783"
         transform="matrix(0,0.7272727,-0.7272727,0,52.61212,807.45455)"
         style="font-style:normal;font-variant:normal;font-weight:normal;font-stretch:normal;font-size:16.5px;line-height:125%;font-family:'Nimbus Roman No9 L';text-align:start;writing-mode:lr-tb;text-anchor:start;display:inline">
        <path
           transform="translate(10.5,17.500004)"
           id="path3779"
           sodipodi:nodetypes="cc"
           d="m 9.5,-274.09586 v -10"
           style="font-style:normal;font-variant:normal;font-weight:normal;font-stretch:normal;font-size:16.5px;line-height:125%;font-family:'Nimbus Roman No9 L';text-align:start;writing-mode:lr-tb;text-anchor:start;fill:none;stroke:#000000;stroke-width:1px;stroke-linecap:butt;stroke-linejoin:miter;stroke-opacity:1"
           inkscape:connector-curvature="0" />
        <path
           transform="rotate(-90,26.5,-268.09586)"
           id="path3781"
           sodipodi:nodetypes="cc"
           d="m 19.999996,-279.59586 v 10"
           style="font-style:normal;font-variant:normal;font-weight:normal;font-stretch:normal;font-size:16.5px;line-height:125%;font-family:'Nimbus Roman No9 L';text-align:start;writing-mode:lr-tb;text-anchor:start;display:inline;fill:none;stroke:#000000;stroke-width:1px;stroke-linecap:butt;stroke-linejoin:miter;stroke-opacity:1"
           inkscape:connector-curvature="0" />
      </g>
    </g>
    <path
       sodipodi:nodetypes="cc"
       inkscape:connector-curvature="0"
       id="path3369"
       d="m 305,829.99997 h 20"
       style="display:inline;fill:none;stroke:#000000;stroke-width:1px;stroke-linecap:butt;stroke-linejoin:miter;stroke-opacity:1;marker-start:none;marker-end:url(#Arrow2Mend-9-7)" />
    <path
       style="display:inline;fill:none;stroke:#000000;stroke-width:1px;stroke-linecap:butt;stroke-linejoin:miter;stroke-opacity:1;marker-start:none;marker-end:url(#Arrow2Mend-9-7)"
       d="M 267.5,830 H 285"
       id="path4636"
       inkscape:connector-curvature="0"
       sodipodi:nodetypes="cc" />
    <path
       sodipodi:nodetypes="ccc"
       inkscape:connector-curvature="0"
       id="path4754"
       d="m 355,829.99997 v 40 h -50"
       style="display:inline;fill:none;stroke:#000000;stroke-width:1px;stroke-linecap:butt;stroke-linejoin:miter;stroke-opacity:1;marker-start:url(#DotM);marker-end:url(#Arrow2Mend-9)" />
    <path
       sodipodi:nodetypes="cc"
       inkscape:connector-curvature="0"
       id="path4650"
       d="m 345,829.99994 h 30"
       style="display:inline;fill:none;stroke:#000000;stroke-width:1px;stroke-linecap:butt;stroke-linejoin:miter;stroke-opacity:1;marker-start:none;marker-end:url(#Arrow2Mend-9-7)" />
    <rect
       style="display:inline;fill:#ffffff;fill-opacity:1;fill-rule:nonzero;stroke:#000000;stroke-width:1.333;stroke-linecap:round;stroke-linejoin:miter;stroke-miterlimit:4;stroke-dasharray:none;stroke-dashoffset:0;stroke-opacity:1"
       id="rect4620"
       width="20"
       y="810"
       x="325"
       height="40"
       inkscape:export-filename="C:\Documents and Settings\mhinkkan\Desktop\testi3.png"
       inkscape:export-xdpi="300"
       inkscape:export-ydpi="300" />
    <g
       id="g3775">
      <path
         style="display:inline;fill:none;stroke:#000000;stroke-width:1px;stroke-linecap:butt;stroke-linejoin:miter;stroke-opacity:1;marker-start:none;marker-end:url(#Arrow2Mend-9-7)"
         d="m 215,830 h 37.5"
         id="path4648"
         inkscape:connector-curvature="0"
         sodipodi:nodetypes="cc" />
      <g
         id="g4642"
         transform="matrix(0,0.7272727,-0.7272727,0,52.61212,807.45455)"
         style="font-style:normal;font-variant:normal;font-weight:normal;font-stretch:normal;font-size:16.5px;line-height:125%;font-family:'Nimbus Roman No9 L';text-align:start;writing-mode:lr-tb;text-anchor:start;display:inline">
        <path
           transform="translate(10.5,17.500004)"
           id="path4638"
           sodipodi:nodetypes="cc"
           d="m 9.5,-274.09586 v -10"
           style="font-style:normal;font-variant:normal;font-weight:normal;font-stretch:normal;font-size:16.5px;line-height:125%;font-family:'Nimbus Roman No9 L';text-align:start;writing-mode:lr-tb;text-anchor:start;fill:none;stroke:#000000;stroke-width:1px;stroke-linecap:butt;stroke-linejoin:miter;stroke-opacity:1"
           inkscape:connector-curvature="0" />
        <path
           transform="rotate(-90,26.5,-268.09586)"
           id="path4640"
           sodipodi:nodetypes="cc"
           d="m 19.999996,-279.59586 v 10"
           style="font-style:normal;font-variant:normal;font-weight:normal;font-stretch:normal;font-size:16.5px;line-height:125%;font-family:'Nimbus Roman No9 L';text-align:start;writing-mode:lr-tb;text-anchor:start;display:inline;fill:none;stroke:#000000;stroke-width:1px;stroke-linecap:butt;stroke-linejoin:miter;stroke-opacity:1"
           inkscape:connector-curvature="0" />
      </g>
    </g>
    <path
       id="path4644"
       sodipodi:nodetypes="cc"
       d="m 247.72724,845.50008 h 7.27273"
       style="font-style:normal;font-variant:normal;font-weight:normal;font-stretch:normal;font-size:16.5px;line-height:125%;font-family:'Nimbus Roman No9 L';text-align:start;writing-mode:lr-tb;text-anchor:start;display:inline;fill:none;stroke:#000000;stroke-width:0.727273px;stroke-linecap:butt;stroke-linejoin:miter;stroke-opacity:1"
       inkscape:connector-curvature="0" />
    <rect
       style="display:inline;fill:#ffffff;fill-opacity:1;fill-rule:nonzero;stroke:#000000;stroke-width:1.333;stroke-linecap:round;stroke-linejoin:miter;stroke-miterlimit:4;stroke-dasharray:none;stroke-dashoffset:0;stroke-opacity:1"
       id="rect4748"
       width="20"
       y="860"
       x="285"
       height="20"
       inkscape:export-filename="C:\Documents and Settings\mhinkkan\Desktop\testi3.png"
       inkscape:export-xdpi="300"
       inkscape:export-ydpi="300" />
    <g
       inkscape:label=""
       transform="matrix(1.25,0,0,1.25,215.48584,727.57322)"
       id="g2446"
       style="stroke-width:0.8">
      <g
         id="g9459"
         style="stroke-width:0.8">
        <g
           style="fill:#000000;fill-opacity:1;stroke-width:0.8"
           id="g7778">
          <use
             xlink:href="#symbol4516"
             x="93.121002"
             y="78.419998"
             id="use6355"
             width="100%"
             height="100%"
             style="stroke-width:0.8" />
        </g>
        <path
           style="fill:none;stroke:#000000;stroke-width:0.3184;stroke-linecap:butt;stroke-linejoin:miter;stroke-miterlimit:10;stroke-opacity:1"
           d="M 9.375e-5,0.00103125 H 4.980563"
           transform="matrix(1,0,0,-1,93.121,82.669)"
           id="path8636" />
        <g
           style="fill:#000000;fill-opacity:1;stroke-width:0.8"
           id="g4817">
          <use
             xlink:href="#symbol2386"
             x="93.276001"
             y="91.994003"
             id="use448"
             width="100%"
             height="100%"
             style="stroke-width:0.8" />
        </g>
      </g>
    </g>
    <g
       inkscape:label=""
       transform="matrix(1.25,0,0,1.25,99.60156,721.00029)"
       id="g1735"
       style="stroke-width:0.8">
      <g
         id="g8364"
         style="stroke-width:0.8">
        <g
           style="fill:#000000;fill-opacity:1;stroke-width:0.8"
           id="g4573">
          <use
             xlink:href="#symbol5294"
             x="91.925003"
             y="81.962997"
             id="use8496"
             width="100%"
             height="100%"
             style="stroke-width:0.8" />
        </g>
        <g
           style="fill:#000000;fill-opacity:1;stroke-width:0.8"
           id="g1175">
          <use
             xlink:href="#symbol6179"
             x="96.279999"
             y="83.457001"
             id="use2262"
             width="100%"
             height="100%"
             style="stroke-width:0.8" />
        </g>
      </g>
    </g>
    <g
       inkscape:label=""
       transform="matrix(1.25,0,0,1.25,175.12304,771.80407)"
       id="g2116"
       style="stroke-width:0.8">
      <g
         id="g5189"
         style="stroke-width:0.8">
        <g
           style="fill:#000000;fill-opacity:1;stroke-width:0.8"
           id="g123">
          <use
             xlink:href="#symbol3572"
             x="91.925003"
             y="81.962997"
             id="use2997"
             width="100%"
             height="100%"
             style="stroke-width:0.8" />
        </g>
      </g>
    </g>
    <g
       inkscape:label=""
       transform="matrix(1.25,0,0,1.25,147.51803,748.70058)"
       id="g2920"
       style="stroke-width:0.8">
      <g
         id="g7886"
         style="stroke-width:0.8">
        <g
           style="fill:#000000;fill-opacity:1;stroke-width:0.8"
           id="g7945">
          <use
             xlink:href="#symbol529"
             x="91.925003"
             y="81.962997"
             id="use9597"
             width="100%"
             height="100%"
             style="stroke-width:0.8" />
        </g>
        <g
           style="fill:#000000;fill-opacity:1;stroke-width:0.8"
           id="g8028">
          <use
             xlink:href="#symbol9847"
             x="96.279999"
             y="83.457001"
             id="use7099"
             width="100%"
             height="100%"
             style="stroke-width:0.8" />
        </g>
      </g>
    </g>
    <g
       inkscape:label=""
       transform="matrix(1.25,0,0,1.25,238.60156,721.00029)"
       id="g3347"
       style="stroke-width:0.8">
      <g
         id="g7707"
         style="stroke-width:0.8">
        <g
           style="fill:#000000;fill-opacity:1;stroke-width:0.8"
           id="g9249">
          <use
             xlink:href="#symbol1324"
             x="91.925003"
             y="81.962997"
             id="use4865"
             width="100%"
             height="100%"
             style="stroke-width:0.8" />
        </g>
        <g
           style="fill:#000000;fill-opacity:1;stroke-width:0.8"
           id="g7210">
          <use
             xlink:href="#symbol5249"
             x="98.126999"
             y="83.457001"
             id="use7235"
             width="100%"
             height="100%"
             style="stroke-width:0.8" />
        </g>
      </g>
    </g>
    <rect
       style="display:inline;fill:#ffffff;fill-opacity:1;fill-rule:nonzero;stroke:#000000;stroke-width:1.333;stroke-linecap:round;stroke-linejoin:miter;stroke-miterlimit:4;stroke-dasharray:none;stroke-dashoffset:0;stroke-opacity:1"
       id="rect3367"
       width="20"
       y="810"
       x="285"
       height="40"
       inkscape:export-filename="C:\Documents and Settings\mhinkkan\Desktop\testi3.png"
       inkscape:export-xdpi="300"
       inkscape:export-ydpi="300" />
    <g
       inkscape:label=""
       transform="matrix(1.25,0,0,1.25,174.5459,727.50492)"
       id="g2507"
       style="stroke-width:0.8">
      <g
         id="g6566"
         style="stroke-width:0.8">
        <g
           style="fill:#000000;fill-opacity:1;stroke-width:0.8"
           id="g6990">
          <use
             xlink:href="#symbol9421"
             x="93.871002"
             y="78.419998"
             id="use8996"
             width="100%"
             height="100%"
             style="stroke-width:0.8" />
        </g>
        <path
           style="fill:none;stroke:#000000;stroke-width:0.3184;stroke-linecap:butt;stroke-linejoin:miter;stroke-miterlimit:10;stroke-opacity:1"
           d="M 9.375e-5,0.00103125 H 6.484469"
           transform="matrix(1,0,0,-1,93.121,82.669)"
           id="path8574" />
        <g
           style="fill:#000000;fill-opacity:1;stroke-width:0.8"
           id="g4307">
          <use
             xlink:href="#symbol1999"
             x="93.121002"
             y="91.994003"
             id="use3040"
             width="100%"
             height="100%"
             style="stroke-width:0.8" />
        </g>
      </g>
    </g>
    <ellipse
       ry="7.4999976"
       rx="7.5000033"
       cy="-260"
       cx="870"
       style="font-style:normal;font-variant:normal;font-weight:normal;font-stretch:normal;font-size:12px;line-height:125%;font-family:'Nimbus Roman No9 L';text-align:start;writing-mode:lr-tb;text-anchor:start;display:inline;fill:#ffffff;fill-opacity:1;stroke:#000000;stroke-width:1.333;stroke-linecap:round;stroke-linejoin:round;stroke-miterlimit:4;stroke-dasharray:none;stroke-dashoffset:0;stroke-opacity:1"
       id="ellipse3371"
       transform="rotate(90)" />
    <g
       inkscape:label=""
       transform="matrix(1.25,0,0,1.25,99.60156,761.64841)"
       id="g3749"
       style="stroke-width:0.8">
      <g
         id="g406"
         style="stroke-width:0.8">
        <g
           style="fill:#000000;fill-opacity:1;stroke-width:0.8"
           id="g109">
          <use
             xlink:href="#symbol4983"
             x="91.925003"
             y="81.962997"
             id="use6104"
             width="100%"
             height="100%"
             style="stroke-width:0.8" />
        </g>
        <g
           style="fill:#000000;fill-opacity:1;stroke-width:0.8"
           id="g8095">
          <use
             xlink:href="#symbol5600"
             x="96.279999"
             y="83.457001"
             id="use5337"
             width="100%"
             height="100%"
             style="stroke-width:0.8" />
        </g>
      </g>
    </g>
    <path
       sodipodi:nodetypes="cc"
       inkscape:connector-curvature="0"
       id="path3769"
       d="m 260,862.49997 v -25"
       style="display:inline;fill:none;stroke:#000000;stroke-width:1px;stroke-linecap:butt;stroke-linejoin:miter;stroke-opacity:1;marker-end:url(#Arrow2Mend-9)" />
    <ellipse
       ry="7.4999976"
       rx="7.5000033"
       cy="-260"
       cx="830"
       style="font-style:normal;font-variant:normal;font-weight:normal;font-stretch:normal;font-size:12px;line-height:125%;font-family:'Nimbus Roman No9 L';text-align:start;writing-mode:lr-tb;text-anchor:start;display:inline;fill:#ffffff;fill-opacity:1;stroke:#000000;stroke-width:1.333;stroke-linecap:round;stroke-linejoin:round;stroke-miterlimit:4;stroke-dasharray:none;stroke-dashoffset:0;stroke-opacity:1"
       id="ellipse4646"
       transform="rotate(90)" />
  </g>
</svg>
