<?xml version="1.0" encoding="UTF-8" standalone="no"?>
<svg
   width="480"
   height="125"
   id="svg6781"
   version="1.1"
   inkscape:version="1.2.2 (b0a8486541, 2022-12-01)"
   sodipodi:docname="2dof_pi.svg"
   viewBox="0 0 480.00001 125"
   xmlns:inkscape="http://www.inkscape.org/namespaces/inkscape"
   xmlns:sodipodi="http://sodipodi.sourceforge.net/DTD/sodipodi-0.dtd"
   xmlns="http://www.w3.org/2000/svg"
   xmlns:svg="http://www.w3.org/2000/svg"
   xmlns:rdf="http://www.w3.org/1999/02/22-rdf-syntax-ns#"
   xmlns:cc="http://creativecommons.org/ns#"
   xmlns:dc="http://purl.org/dc/elements/1.1/">
  <sodipodi:namedview
     id="base"
     pagecolor="#ffffff"
     bordercolor="#666666"
     borderopacity="1.0"
     inkscape:pageopacity="0.0"
     inkscape:pageshadow="2"
     inkscape:zoom="1.979899"
     inkscape:cx="410.37447"
     inkscape:cy="169.45309"
     inkscape:document-units="px"
     inkscape:current-layer="layer1"
     showgrid="true"
     inkscape:window-width="2560"
     inkscape:window-height="1403"
     inkscape:window-x="0"
     inkscape:window-y="0"
     inkscape:window-maximized="1"
     inkscape:document-rotation="0"
     fit-margin-top="0"
     fit-margin-left="0"
     fit-margin-right="0"
     fit-margin-bottom="0"
     inkscape:showpageshadow="2"
     inkscape:pagecheckerboard="0"
     inkscape:deskcolor="#d1d1d1">
    <inkscape:grid
       spacingy="0.5"
       spacingx="0.5"
       snapvisiblegridlinesonly="true"
       enabled="true"
       visible="true"
       empspacing="5"
       id="grid7066"
       type="xygrid"
       originx="-150"
       originy="-415"
       units="px" />
  </sodipodi:namedview>
  <defs
     id="defs6783">
    <marker
       style="overflow:visible"
       id="Arrow2Mend-9"
       orient="auto"
       refY="0"
       inkscape:stockid="Arrow2Mend"
       refX="0"
       viewBox="0 0 6.5555267 4.8212658"
       markerWidth="6.5555267"
       markerHeight="4.8212657"
       preserveAspectRatio="xMidYMid">
      <path
         inkscape:connector-curvature="0"
         style="font-size:12px;fill-rule:evenodd;stroke-width:0.625;stroke-linejoin:round"
         transform="scale(-0.6)"
         d="M 8.7185878,4.0337352 -2.2072895,0.01601326 8.7185884,-4.0017078 c -1.7454984,2.3720609 -1.7354408,5.6174519 -6e-7,8.035443 z"
         id="path18502-9" />
    </marker>
    <marker
       inkscape:stockid="DotM"
       orient="auto"
       refY="0"
       refX="0"
       id="DotM"
       style="overflow:visible">
      <path
         inkscape:connector-curvature="0"
         id="path4676"
         d="m -2.5,-1 c 0,2.76 -2.24,5 -5,5 -2.76,0 -5,-2.24 -5,-5 0,-2.76 2.24,-5 5,-5 2.76,0 5,2.24 5,5 z"
         style="fill-rule:evenodd;stroke:#000000;stroke-width:1pt;marker-start:none;marker-end:none"
         transform="matrix(0.4,0,0,0.4,2.96,0.4)" />
    </marker>
    <marker
       style="overflow:visible"
       id="marker3394"
       refX="4.5"
       refY="0"
       orient="auto-start-reverse"
       inkscape:stockid="Arrow2"
       markerWidth="6.6999998"
       markerHeight="4.8727274"
       viewBox="0 0 7.7 5.6"
       inkscape:isstock="true"
       inkscape:collect="always"
       preserveAspectRatio="xMidYMid">
      <path
         transform="scale(0.7)"
         d="M -2,-4 9,0 -2,4 c 2,-2.33 2,-5.66 0,-8 z"
         style="fill:context-stroke;fill-rule:evenodd;stroke:none"
         id="path3392" />
    </marker>
    <marker
       refX="0"
       inkscape:stockid="Arrow2Mstart"
       refY="0"
       orient="auto"
       id="Arrow2Mstart"
       style="overflow:visible">
      <path
         id="path21014"
         d="M 8.7185878,4.0337352 -2.2072895,0.01601326 8.7185884,-4.0017078 c -1.7454984,2.3720609 -1.7354408,5.6174519 -6e-7,8.035443 z"
         transform="scale(0.6)"
         style="font-size:12px;fill-rule:evenodd;stroke-width:0.625;stroke-linejoin:round"
         inkscape:connector-curvature="0" />
    </marker>
    <clipPath
       id="clipPath845">
      <path
         clip-rule="nonzero"
         d="M 0,0 H 5.304688 V 3.859375 H 0 Z m 0,0"
         id="path9225" />
    </clipPath>
    <clipPath
       id="clipPath1172">
      <path
         clip-rule="nonzero"
         d="M 0,0 H 4.859375 V 5.605469 H 0 Z m 0,0"
         id="path7000" />
    </clipPath>
    <clipPath
       id="clipPath4091">
      <path
         clip-rule="nonzero"
         d="M 0,0 H 4.414062 V 3.859375 H 0 Z m 0,0"
         id="path1544" />
    </clipPath>
    <clipPath
       id="clipPath2728">
      <path
         clip-rule="nonzero"
         d="M 5,3 H 8 V 7.222656 H 5 Z m 0,0"
         id="path4169" />
    </clipPath>
    <clipPath
       id="clipPath8044">
      <path
         clip-rule="nonzero"
         d="M 5,3 H 7 V 7.222656 H 5 Z m 0,0"
         id="path3821" />
    </clipPath>
    <clipPath
       id="clipPath9866">
      <path
         clip-rule="nonzero"
         d="m 1,13 h 5 v 4.65625 H 1 Z m 0,0"
         id="path1091" />
    </clipPath>
    <clipPath
       id="clipPath1273">
      <path
         clip-rule="nonzero"
         d="M 5,4 H 9 V 8.386719 H 5 Z m 0,0"
         id="path4194" />
    </clipPath>
    <clipPath
       id="clipPath7894">
      <path
         clip-rule="nonzero"
         d="m 5,0 h 5 V 4.921875 H 5 Z m 0,0"
         id="path9901" />
    </clipPath>
  </defs>
  <metadata
     id="metadata6786">
    <rdf:RDF>
      <cc:Work
         rdf:about="">
        <dc:format>image/svg+xml</dc:format>
        <dc:type
           rdf:resource="http://purl.org/dc/dcmitype/StillImage" />
      </cc:Work>
    </rdf:RDF>
  </metadata>
  <g
     id="layer1"
     inkscape:groupmode="layer"
     inkscape:label="Layer 1"
     transform="translate(-150, -415)">
    <g
       transform="translate(-260.44921,151.86401)"
       id="g4675" />
    <path
       style="display:inline;fill:none;stroke:#000000;stroke-width:1px;stroke-linecap:butt;stroke-linejoin:miter;stroke-opacity:1;marker-start:none;marker-end:url(#Arrow2Mend-9)"
       d="M 419.99999,495 V 477.5"
       id="path16885"
       inkscape:connector-curvature="0"
       sodipodi:nodetypes="cc" />
    <path
       style="display:inline;fill:none;stroke:#000000;stroke-width:1px;stroke-linecap:butt;stroke-linejoin:miter;stroke-opacity:1;marker-start:none;marker-end:url(#Arrow2Mend-9)"
       d="m 322.50002,470 h 17.5"
       id="path5635"
       inkscape:connector-curvature="0"
       sodipodi:nodetypes="cc" />
    <path
       sodipodi:nodetypes="ccc"
       inkscape:connector-curvature="0"
       id="path5621"
       d="M 290.00002,470 290,435 h 50"
       style="display:inline;fill:none;stroke:#000000;stroke-width:1px;stroke-linecap:butt;stroke-linejoin:miter;stroke-opacity:1;marker-start:url(#DotM);marker-end:url(#marker3394)" />
    <path
       sodipodi:nodetypes="cc"
       inkscape:connector-curvature="0"
       id="path3849"
       d="m 360,470 h 15"
       style="display:inline;fill:none;stroke:#000000;stroke-width:1px;stroke-linecap:butt;stroke-linejoin:miter;stroke-opacity:1;marker-start:none;marker-end:url(#Arrow2Mend-9)" />
    <path
       sodipodi:nodetypes="ccc"
       inkscape:connector-curvature="0"
       id="path3809"
       d="m 360,435 h 60 l -2e-5,27.5"
       style="display:inline;fill:none;stroke:#000000;stroke-width:1px;stroke-linecap:butt;stroke-linejoin:miter;stroke-opacity:1;marker-start:none;marker-end:url(#Arrow2Mend-9)" />
    <path
       style="display:inline;fill:none;stroke:#000000;stroke-width:1px;stroke-linecap:butt;stroke-linejoin:miter;stroke-opacity:1;marker-start:none;marker-end:url(#Arrow2Mend-9)"
       d="m 270,470 h 37.50002"
       id="path3851"
       inkscape:connector-curvature="0"
       sodipodi:nodetypes="cc" />
    <path
       style="display:inline;fill:none;stroke:#000000;stroke-width:1px;stroke-linecap:butt;stroke-linejoin:miter;stroke-opacity:1;marker-end:url(#Arrow2Mend-9)"
       d="M 485,525 H 315 l -10e-6,-47.49999"
       id="path3783"
       inkscape:connector-curvature="0"
       sodipodi:nodetypes="ccc" />
    <path
       style="display:inline;fill:none;stroke:#000000;stroke-width:1;stroke-linecap:butt;stroke-linejoin:miter;stroke-dasharray:none;stroke-opacity:1;marker-start:none;marker-end:url(#Arrow2Mend-9)"
       d="m 395,470 h 17.49998"
       id="path3813"
       inkscape:connector-curvature="0"
       sodipodi:nodetypes="cc" />
    <g
       style="font-style:normal;font-variant:normal;font-weight:normal;font-stretch:normal;font-size:16.5px;line-height:125%;font-family:'Nimbus Roman No9 L';text-align:start;writing-mode:lr-tb;text-anchor:start;display:inline"
       transform="matrix(0,0.7272727,-0.7272727,0,216.6121,447.45455)"
       id="g3799">
      <path
         inkscape:connector-curvature="0"
         style="font-style:normal;font-variant:normal;font-weight:normal;font-stretch:normal;font-size:16.5px;line-height:125%;font-family:'Nimbus Roman No9 L';text-align:start;writing-mode:lr-tb;text-anchor:start;fill:none;stroke:#000000;stroke-width:1px;stroke-linecap:butt;stroke-linejoin:miter;stroke-opacity:1"
         d="m 9.5,-274.09586 v -10"
         sodipodi:nodetypes="cc"
         id="path3801"
         transform="translate(10.5,17.500004)" />
      <path
         inkscape:connector-curvature="0"
         style="font-style:normal;font-variant:normal;font-weight:normal;font-stretch:normal;font-size:16.5px;line-height:125%;font-family:'Nimbus Roman No9 L';text-align:start;writing-mode:lr-tb;text-anchor:start;display:inline;fill:none;stroke:#000000;stroke-width:1px;stroke-linecap:butt;stroke-linejoin:miter;stroke-opacity:1"
         d="m 19.999996,-279.59586 v 10"
         sodipodi:nodetypes="cc"
         id="path3803"
         transform="rotate(-90,26.5,-268.09586)" />
    </g>
    <ellipse
       transform="rotate(90)"
       id="path3805"
       style="font-style:normal;font-variant:normal;font-weight:normal;font-stretch:normal;font-size:12px;line-height:125%;font-family:'Nimbus Roman No9 L';text-align:start;writing-mode:lr-tb;text-anchor:start;display:inline;fill:#ffffff;fill-opacity:1;stroke:#000000;stroke-width:1.333;stroke-linecap:round;stroke-linejoin:round;stroke-miterlimit:4;stroke-dasharray:none;stroke-dashoffset:0;stroke-opacity:1"
       cx="470"
       cy="-419.99997"
       rx="7.5000033"
       ry="7.4999976" />
    <g
       id="g3825"
       transform="matrix(-0.7272727,0,0,-0.7272727,442.54543,266.61212)"
       style="font-style:normal;font-variant:normal;font-weight:normal;font-stretch:normal;font-size:16.5px;line-height:125%;font-family:'Nimbus Roman No9 L';text-align:start;writing-mode:lr-tb;text-anchor:start;display:inline">
      <path
         transform="translate(10.5,17.500004)"
         id="path3827"
         sodipodi:nodetypes="cc"
         d="m 9.5,-274.09586 v -10"
         style="font-style:normal;font-variant:normal;font-weight:normal;font-stretch:normal;font-size:16.5px;line-height:125%;font-family:'Nimbus Roman No9 L';text-align:start;writing-mode:lr-tb;text-anchor:start;fill:none;stroke:#000000;stroke-width:1px;stroke-linecap:butt;stroke-linejoin:miter;stroke-opacity:1"
         inkscape:connector-curvature="0" />
      <path
         transform="rotate(-90,26.5,-268.09586)"
         id="path3829"
         sodipodi:nodetypes="cc"
         d="m 19.999996,-279.59586 v 10"
         style="font-style:normal;font-variant:normal;font-weight:normal;font-stretch:normal;font-size:16.5px;line-height:125%;font-family:'Nimbus Roman No9 L';text-align:start;writing-mode:lr-tb;text-anchor:start;display:inline;fill:none;stroke:#000000;stroke-width:1px;stroke-linecap:butt;stroke-linejoin:miter;stroke-opacity:1"
         inkscape:connector-curvature="0" />
    </g>
    <g
       style="font-style:normal;font-variant:normal;font-weight:normal;font-stretch:normal;font-size:16.5px;line-height:125%;font-family:'Nimbus Roman No9 L';text-align:start;writing-mode:lr-tb;text-anchor:start;display:inline"
       transform="matrix(0,0.7272727,-0.7272727,0,111.61213,447.45455)"
       id="g3835">
      <path
         inkscape:connector-curvature="0"
         style="font-style:normal;font-variant:normal;font-weight:normal;font-stretch:normal;font-size:16.5px;line-height:125%;font-family:'Nimbus Roman No9 L';text-align:start;writing-mode:lr-tb;text-anchor:start;fill:none;stroke:#000000;stroke-width:1px;stroke-linecap:butt;stroke-linejoin:miter;stroke-opacity:1"
         d="m 9.5,-274.09586 v -10"
         sodipodi:nodetypes="cc"
         id="path3837"
         transform="translate(10.5,17.500004)" />
      <path
         inkscape:connector-curvature="0"
         style="font-style:normal;font-variant:normal;font-weight:normal;font-stretch:normal;font-size:16.5px;line-height:125%;font-family:'Nimbus Roman No9 L';text-align:start;writing-mode:lr-tb;text-anchor:start;display:inline;fill:none;stroke:#000000;stroke-width:1px;stroke-linecap:butt;stroke-linejoin:miter;stroke-opacity:1"
         d="m 19.999996,-279.59586 v 10"
         sodipodi:nodetypes="cc"
         id="path3839"
         transform="rotate(-90,26.5,-268.09586)" />
    </g>
    <ellipse
       transform="rotate(90)"
       id="path3841"
       style="font-style:normal;font-variant:normal;font-weight:normal;font-stretch:normal;font-size:12px;line-height:125%;font-family:'Nimbus Roman No9 L';text-align:start;writing-mode:lr-tb;text-anchor:start;display:inline;fill:#ffffff;fill-opacity:1;stroke:#000000;stroke-width:1.333;stroke-linecap:round;stroke-linejoin:round;stroke-miterlimit:4;stroke-dasharray:none;stroke-dashoffset:0;stroke-opacity:1"
       cx="470"
       cy="-315"
       rx="7.5000033"
       ry="7.4999976" />
    <path
       inkscape:connector-curvature="0"
       style="font-style:normal;font-variant:normal;font-weight:normal;font-stretch:normal;font-size:16.5px;line-height:125%;font-family:'Nimbus Roman No9 L';text-align:start;writing-mode:lr-tb;text-anchor:start;display:inline;fill:none;stroke:#000000;stroke-width:0.727273px;stroke-linecap:butt;stroke-linejoin:miter;stroke-opacity:1"
       d="m 302.72726,483.50008 h 7.27273"
       sodipodi:nodetypes="cc"
       id="path3843" />
    <path
       style="display:inline;fill:none;stroke:#000000;stroke-width:1px;stroke-linecap:butt;stroke-linejoin:miter;stroke-opacity:1;marker-start:url(#DotM);marker-end:url(#Arrow2Mend-9)"
       d="M 420.00002,525 420,510"
       id="path18563"
       inkscape:connector-curvature="0"
       sodipodi:nodetypes="cc" />
    <rect
       style="display:inline;fill:#ffffff;fill-opacity:1;fill-rule:nonzero;stroke:#000000;stroke-width:1.333;stroke-linecap:round;stroke-linejoin:miter;stroke-miterlimit:4;stroke-dasharray:none;stroke-dashoffset:0;stroke-opacity:1"
       id="rect3787-7"
       width="20"
       y="450"
       x="375"
       height="40"
       inkscape:export-filename="C:\Documents and Settings\mhinkkan\Desktop\testi3.png"
       inkscape:export-xdpi="300"
       inkscape:export-ydpi="300" />
    <path
       id="path3059"
       sodipodi:nodetypes="cc"
       d="m 408.36364,483.13637 h 7.27273"
       style="font-style:normal;font-variant:normal;font-weight:normal;font-stretch:normal;font-size:16.5px;line-height:125%;font-family:'Nimbus Roman No9 L';text-align:start;writing-mode:lr-tb;text-anchor:start;display:inline;fill:none;stroke:#000000;stroke-width:0.727273px;stroke-linecap:butt;stroke-linejoin:miter;stroke-opacity:1"
       inkscape:connector-curvature="0" />
    <rect
       inkscape:export-ydpi="300"
       inkscape:export-xdpi="300"
       inkscape:export-filename="C:\Documents and Settings\mhinkkan\Desktop\testi3.png"
       height="20"
       x="340"
       y="425"
       width="20"
       id="rect3940"
       style="display:inline;fill:#ffffff;fill-opacity:1;fill-rule:nonzero;stroke:#000000;stroke-width:1.333;stroke-linecap:round;stroke-linejoin:miter;stroke-miterlimit:4;stroke-dasharray:none;stroke-dashoffset:0;stroke-opacity:1" />
    <rect
       inkscape:export-ydpi="300"
       inkscape:export-xdpi="300"
       inkscape:export-filename="C:\Documents and Settings\mhinkkan\Desktop\testi3.png"
       height="20"
       x="340"
       y="460"
       width="20"
       id="rect4138"
       style="display:inline;fill:#ffffff;fill-opacity:1;fill-rule:nonzero;stroke:#000000;stroke-width:1.333;stroke-linecap:round;stroke-linejoin:miter;stroke-miterlimit:4;stroke-dasharray:none;stroke-dashoffset:0;stroke-opacity:1" />
    <rect
       inkscape:export-ydpi="300"
       inkscape:export-xdpi="300"
       inkscape:export-filename="C:\Documents and Settings\mhinkkan\Desktop\testi3.png"
       height="20"
       x="410"
       y="490"
       width="20"
       id="rect4144"
       style="display:inline;fill:#ffffff;fill-opacity:1;fill-rule:nonzero;stroke:#000000;stroke-width:1.333;stroke-linecap:round;stroke-linejoin:miter;stroke-miterlimit:4;stroke-dasharray:none;stroke-dashoffset:0;stroke-opacity:1" />
    <path
       style="display:inline;fill:none;stroke:#000000;stroke-width:1px;stroke-linecap:round;stroke-linejoin:miter;stroke-opacity:1;marker-start:url(#Arrow2Mstart);marker-mid:none"
       d="m 447.5,470 h -20"
       sodipodi:nodetypes="cc"
       id="path1916"
       inkscape:export-filename="C:\Documents and Settings\mhinkkan\Desktop\testi.png"
       inkscape:export-xdpi="300"
       inkscape:export-ydpi="300"
       inkscape:connector-curvature="0" />
    <g
       inkscape:label=""
       transform="translate(475.04168,459.20834)"
       id="g4688">
      <g
         clip-path="url(#clipPath845)"
         id="g4686"
         transform="matrix(1.33333,0,0,1.33333,-0.354167,0.143667)">
        <g
           fill="#000000"
           fill-opacity="1"
           id="g4684">
          <g
             id="g4682"
             transform="translate(0,3.8610001)">
            <path
               d="m 4.375,-2.921875 c 0.046875,-0.234375 0.15625,-0.640625 0.15625,-0.6875 0,-0.109375 -0.078125,-0.25 -0.28125,-0.25 -0.125,0 -0.265625,0.078125 -0.328125,0.1875 C 3.890625,-3.59375 3.28125,-1.15625 3.21875,-0.859375 3.03125,-0.53125 2.671875,-0.125 2.171875,-0.125 1.625,-0.125 1.625,-0.6875 1.625,-0.859375 c 0,-0.40625 0.109375,-0.84375 0.5,-1.84375 0.078125,-0.21875 0.125,-0.34375 0.125,-0.5 0,-0.453125 -0.328125,-0.765625 -0.765625,-0.765625 -0.859375,0 -1.21875,1.28125 -1.21875,1.390625 0,0.078125 0.0625,0.109375 0.125,0.109375 0.09375,0 0.109375,-0.0625 0.140625,-0.171875 0.1875,-0.65625 0.53125,-1.09375 0.921875,-1.09375 0.1875,0 0.21875,0.125 0.21875,0.296875 0,0.140625 -0.046875,0.3125 -0.125,0.515625 -0.421875,1.125 -0.53125,1.5 -0.53125,1.921875 0,1 0.8125,1.09375 1.140625,1.09375 0.5,0 0.875,-0.3125 1.09375,-0.59375 0.171875,0.59375 0.765625,0.59375 0.8125,0.59375 0.265625,0 0.484375,-0.125 0.671875,-0.46875 0.15625,-0.296875 0.296875,-0.875 0.296875,-0.90625 0,-0.046875 -0.03125,-0.109375 -0.109375,-0.109375 -0.109375,0 -0.125,0.046875 -0.15625,0.21875 C 4.578125,-0.46875 4.390625,-0.125 4.09375,-0.125 3.875,-0.125 3.8125,-0.3125 3.8125,-0.53125 c 0,-0.171875 0.046875,-0.359375 0.125,-0.671875 L 4.15625,-2.125 Z m 0,0"
               id="path4680" />
          </g>
        </g>
      </g>
    </g>
    <g
       inkscape:label=""
       transform="translate(475.37501,513.68751)"
       id="g5648">
      <g
         clip-path="url(#clipPath1172)"
         id="g16"
         transform="matrix(1.33333,0,0,1.33333,-0.354167,0.143667)">
        <g
           fill="#000000"
           fill-opacity="1"
           id="g14">
          <g
             id="use12"
             transform="translate(0,3.8610001)">
            <path
               d="M 4.5,-3.453125 C 4.515625,-3.5 4.53125,-3.546875 4.53125,-3.609375 c 0,-0.109375 -0.078125,-0.25 -0.28125,-0.25 -0.109375,0 -0.28125,0.0625 -0.34375,0.234375 C 3.890625,-3.59375 3.796875,-3.21875 3.75,-3.015625 l -0.453125,1.78125 c -0.0625,0.265625 -0.0625,0.28125 -0.09375,0.359375 0,0.046875 -0.375,0.75 -1.03125,0.75 C 1.625,-0.125 1.625,-0.6875 1.625,-0.859375 c 0,-0.40625 0.109375,-0.84375 0.5,-1.84375 0.078125,-0.21875 0.125,-0.34375 0.125,-0.5 0,-0.453125 -0.328125,-0.765625 -0.765625,-0.765625 -0.859375,0 -1.21875,1.28125 -1.21875,1.390625 0,0.078125 0.0625,0.109375 0.125,0.109375 0.09375,0 0.109375,-0.0625 0.140625,-0.171875 0.1875,-0.671875 0.546875,-1.09375 0.921875,-1.09375 0.21875,0 0.21875,0.171875 0.21875,0.296875 0,0.140625 -0.046875,0.3125 -0.125,0.515625 -0.421875,1.125 -0.53125,1.5 -0.53125,1.921875 0,1 0.8125,1.09375 1.140625,1.09375 0.4375,0 0.75,-0.234375 0.90625,-0.390625 C 2.953125,0.15625 2.859375,0.5625 2.5,1.015625 2.234375,1.375 1.875,1.609375 1.484375,1.609375 1.234375,1.609375 0.9375,1.53125 0.8125,1.28125 1.28125,1.28125 1.34375,0.875 1.34375,0.796875 1.34375,0.59375 1.203125,0.46875 1,0.46875 c -0.203125,0 -0.5,0.171875 -0.5,0.578125 0,0.46875 0.421875,0.796875 0.984375,0.796875 0.90625,0 1.890625,-0.78125 2.140625,-1.828125 z m 0,0"
               id="path22" />
          </g>
        </g>
      </g>
    </g>
    <g
       inkscape:label=""
       transform="translate(271.35419,459.71051)"
       id="g6626">
      <g
         clip-path="url(#clipPath4091)"
         id="g6624"
         transform="matrix(1.33333,0,0,1.33333,-0.354167,0.143667)">
        <g
           fill="#000000"
           fill-opacity="1"
           id="g6622">
          <g
             id="g6620"
             transform="translate(0,3.8610001)">
            <path
               d="m 3.625,-3.625 c -0.296875,0.046875 -0.453125,0.296875 -0.453125,0.484375 0,0.171875 0.125,0.328125 0.359375,0.328125 0.234375,0 0.484375,-0.203125 0.484375,-0.546875 0,-0.34375 -0.328125,-0.609375 -0.765625,-0.609375 -0.671875,0 -1.046875,0.5 -1.171875,0.671875 C 1.96875,-3.78125 1.5625,-3.96875 1.234375,-3.96875 c -0.328125,0 -0.53125,0.203125 -0.6875,0.515625 -0.171875,0.328125 -0.28125,0.828125 -0.28125,0.875 0,0.078125 0.0625,0.109375 0.125,0.109375 0.09375,0 0.109375,-0.046875 0.15625,-0.234375 0.171875,-0.703125 0.359375,-1.03125 0.65625,-1.03125 0.28125,0 0.28125,0.28125 0.28125,0.421875 0,0.1875 -0.078125,0.453125 -0.125,0.6875 -0.0625,0.234375 -0.15625,0.625 -0.1875,0.734375 L 0.8125,-0.421875 C 0.75,-0.203125 0.75,-0.1875 0.75,-0.15625 c 0,0.109375 0.078125,0.25 0.265625,0.25 0.296875,0 0.359375,-0.234375 0.421875,-0.5 C 1.546875,-0.796875 1.546875,-0.8125 1.625,-1.171875 1.96875,-2.515625 2.015625,-2.734375 2.03125,-2.78125 2.09375,-2.890625 2.5,-3.734375 3.25,-3.734375 c 0.203125,0 0.328125,0.0625 0.375,0.109375 z m 0,0"
               id="path6618" />
          </g>
        </g>
      </g>
    </g>
    <g
       inkscape:label=""
       transform="translate(345.53051,430.19041)"
       id="g7613">
      <g
         fill="#000000"
         fill-opacity="1"
         id="g17"
         transform="matrix(1.33333,0,0,1.33333,-0.666667,-0.0110003)">
        <g
           id="use15"
           transform="translate(0,6.2270002)">
          <path
             d="m 2.578125,-5.921875 c 0.03125,-0.125 0.03125,-0.140625 0.03125,-0.171875 0,-0.078125 -0.046875,-0.125 -0.140625,-0.125 -0.125,0 -0.90625,0.0625 -1.09375,0.078125 -0.078125,0.015625 -0.1875,0.03125 -0.1875,0.171875 0,0.125 0.109375,0.125 0.25,0.125 0.421875,0 0.421875,0.0625 0.421875,0.140625 0,0.03125 0,0.046875 -0.046875,0.21875 l -1.28125,5.15625 C 0.5,-0.203125 0.5,-0.1875 0.5,-0.15625 c 0,0.140625 0.109375,0.25 0.265625,0.25 0.296875,0 0.359375,-0.25 0.40625,-0.4375 l 0.421875,-1.6875 c 0.609375,0.046875 1.0625,0.296875 1.0625,0.734375 0,0.0625 0,0.09375 -0.015625,0.234375 -0.015625,0.03125 -0.046875,0.15625 -0.046875,0.25 0,0.53125 0.375,0.90625 0.875,0.90625 0.328125,0 0.546875,-0.203125 0.703125,-0.46875 0.234375,-0.328125 0.359375,-0.875 0.359375,-0.90625 0,-0.046875 -0.03125,-0.109375 -0.125,-0.109375 -0.09375,0 -0.109375,0.046875 -0.15625,0.203125 -0.109375,0.46875 -0.34375,1.0625 -0.765625,1.0625 -0.25,0 -0.28125,-0.234375 -0.28125,-0.4375 0,-0.21875 0.046875,-0.453125 0.0625,-0.46875 0.015625,-0.046875 0.03125,-0.15625 0.03125,-0.265625 0,-0.625 -0.65625,-0.875 -1.34375,-0.953125 0.265625,-0.171875 0.46875,-0.359375 0.75,-0.640625 0.46875,-0.46875 0.84375,-0.84375 1.3125,-0.84375 0.109375,0 0.234375,0.015625 0.296875,0.109375 -0.40625,0.03125 -0.5,0.359375 -0.5,0.484375 0,0.171875 0.125,0.328125 0.34375,0.328125 0.21875,0 0.5,-0.171875 0.5,-0.5625 0,-0.296875 -0.21875,-0.59375 -0.640625,-0.59375 -0.546875,0 -0.984375,0.4375 -1.359375,0.828125 C 2.21875,-2.71875 2.015625,-2.5 1.671875,-2.359375 Z m 0,0"
             id="path29" />
        </g>
      </g>
      <g
         clip-path="url(#clipPath2728)"
         id="g23"
         transform="matrix(1.33333,0,0,1.33333,-0.666667,-0.0110003)">
        <g
           fill="#000000"
           fill-opacity="1"
           id="g21">
          <g
             id="use19"
             transform="translate(4.7979999,7.223)">
            <path
               d="M 1.296875,-2.34375 H 2.28125 V -2.578125 H 1.296875 V -3.6875 h -0.21875 c 0,0.546875 -0.265625,1.125 -0.859375,1.15625 v 0.1875 H 0.8125 V -0.75 c 0,0.625 0.46875,0.8125 0.875,0.8125 0.40625,0 0.71875,-0.328125 0.71875,-0.8125 V -1.078125 H 2.171875 v 0.3125 c 0,0.421875 -0.21875,0.609375 -0.4375,0.609375 -0.4375,0 -0.4375,-0.484375 -0.4375,-0.59375 z m 0,0"
               id="path33" />
          </g>
        </g>
      </g>
    </g>
    <g
       inkscape:label=""
       transform="translate(345.96801,465.19041)"
       id="g8229">
      <g
         fill="#000000"
         fill-opacity="1"
         id="g8219"
         transform="matrix(1.33333,0,0,1.33333,-0.666667,-0.0110003)">
        <g
           id="g8217"
           transform="translate(0,6.2270002)">
          <path
             d="m 2.578125,-5.921875 c 0.03125,-0.125 0.03125,-0.140625 0.03125,-0.171875 0,-0.078125 -0.046875,-0.125 -0.140625,-0.125 -0.125,0 -0.90625,0.0625 -1.09375,0.078125 -0.078125,0.015625 -0.1875,0.03125 -0.1875,0.171875 0,0.125 0.109375,0.125 0.25,0.125 0.421875,0 0.421875,0.0625 0.421875,0.140625 0,0.03125 0,0.046875 -0.046875,0.21875 l -1.28125,5.15625 C 0.5,-0.203125 0.5,-0.1875 0.5,-0.15625 c 0,0.140625 0.109375,0.25 0.265625,0.25 0.296875,0 0.359375,-0.25 0.40625,-0.4375 l 0.421875,-1.6875 c 0.609375,0.046875 1.0625,0.296875 1.0625,0.734375 0,0.0625 0,0.09375 -0.015625,0.234375 -0.015625,0.03125 -0.046875,0.15625 -0.046875,0.25 0,0.53125 0.375,0.90625 0.875,0.90625 0.328125,0 0.546875,-0.203125 0.703125,-0.46875 0.234375,-0.328125 0.359375,-0.875 0.359375,-0.90625 0,-0.046875 -0.03125,-0.109375 -0.125,-0.109375 -0.09375,0 -0.109375,0.046875 -0.15625,0.203125 -0.109375,0.46875 -0.34375,1.0625 -0.765625,1.0625 -0.25,0 -0.28125,-0.234375 -0.28125,-0.4375 0,-0.21875 0.046875,-0.453125 0.0625,-0.46875 0.015625,-0.046875 0.03125,-0.15625 0.03125,-0.265625 0,-0.625 -0.65625,-0.875 -1.34375,-0.953125 0.265625,-0.171875 0.46875,-0.359375 0.75,-0.640625 0.46875,-0.46875 0.84375,-0.84375 1.3125,-0.84375 0.109375,0 0.234375,0.015625 0.296875,0.109375 -0.40625,0.03125 -0.5,0.359375 -0.5,0.484375 0,0.171875 0.125,0.328125 0.34375,0.328125 0.21875,0 0.5,-0.171875 0.5,-0.5625 0,-0.296875 -0.21875,-0.59375 -0.640625,-0.59375 -0.546875,0 -0.984375,0.4375 -1.359375,0.828125 C 2.21875,-2.71875 2.015625,-2.5 1.671875,-2.359375 Z m 0,0"
             id="path8215" />
        </g>
      </g>
      <g
         clip-path="url(#clipPath8044)"
         id="g8227"
         transform="matrix(1.33333,0,0,1.33333,-0.666667,-0.0110003)">
        <g
           fill="#000000"
           fill-opacity="1"
           id="g8225">
          <g
             id="g8223"
             transform="translate(4.7979999,7.223)">
            <path
               d="m 1.359375,-3.6875 c 0,-0.171875 -0.15625,-0.359375 -0.359375,-0.359375 -0.1875,0 -0.359375,0.140625 -0.359375,0.359375 0,0.21875 0.171875,0.359375 0.359375,0.359375 0.203125,0 0.359375,-0.171875 0.359375,-0.359375 z M 0.40625,-2.578125 v 0.234375 c 0.390625,0 0.453125,0.046875 0.453125,0.34375 v 1.515625 c 0,0.25 -0.0625,0.25 -0.46875,0.25 V 0 c 0.171875,-0.015625 0.625,-0.03125 0.6875,-0.03125 0.0625,0 0.515625,0.015625 0.671875,0.03125 v -0.234375 c -0.375,0 -0.421875,0 -0.421875,-0.25 v -2.15625 z m 0,0"
               id="path8221" />
          </g>
        </g>
      </g>
    </g>
    <g
       inkscape:label=""
       transform="translate(381.92709,458.10203)"
       id="g8469">
      <g
         fill="#000000"
         fill-opacity="1"
         id="g8461"
         transform="matrix(1.33333,0,0,1.33333,-1.59375,0.254333)">
        <g
           id="g8459"
           transform="translate(1.196,5.7779999)">
          <path
             d="m 2.71875,-5.734375 c 0,-0.21875 0,-0.234375 -0.21875,-0.234375 -0.5625,0.5625 -1.390625,0.5625 -1.671875,0.5625 V -5.125 c 0.171875,0 0.71875,0 1.203125,-0.234375 v 4.640625 c 0,0.328125 -0.015625,0.4375 -0.859375,0.4375 H 0.890625 V 0 c 0.3125,-0.03125 1.125,-0.03125 1.484375,-0.03125 0.375,0 1.171875,0 1.5,0.03125 V -0.28125 H 3.59375 c -0.84375,0 -0.875,-0.109375 -0.875,-0.4375 z m 0,0"
             id="path31" />
        </g>
      </g>
      <path
         fill="none"
         stroke-width="0.379"
         stroke-linecap="butt"
         stroke-linejoin="miter"
         stroke="#000000"
         stroke-opacity="1"
         stroke-miterlimit="10"
         d="M 0,9.5266876 H 4.6093755"
         id="path19"
         transform="scale(1.33333)" />
      <g
         clip-path="url(#clipPath9866)"
         id="g25"
         transform="matrix(1.33333,0,0,1.33333,-1.59375,0.254333)">
        <g
           fill="#000000"
           fill-opacity="1"
           id="g8466">
          <g
             id="use21"
             transform="translate(1.353,17.658001)">
            <path
               d="m 3.5625,-3.359375 c -0.390625,0.046875 -0.421875,0.34375 -0.421875,0.40625 0,0.15625 0.109375,0.265625 0.28125,0.265625 0.25,0 0.421875,-0.203125 0.421875,-0.5 0,-0.4375 -0.4375,-0.78125 -1.09375,-0.78125 -1.203125,0 -1.546875,0.90625 -1.546875,1.3125 0,0.34375 0.171875,0.515625 0.28125,0.625 0.1875,0.171875 0.421875,0.234375 0.75,0.296875 0.40625,0.078125 0.484375,0.09375 0.65625,0.203125 0.140625,0.109375 0.21875,0.25 0.21875,0.453125 0,0.21875 -0.21875,0.953125 -1.296875,0.953125 -0.203125,0 -0.828125,-0.03125 -1.03125,-0.4375 0.453125,0 0.53125,-0.359375 0.53125,-0.484375 C 1.3125,-1.3125 1.078125,-1.375 0.984375,-1.375 0.8125,-1.375 0.46875,-1.25 0.46875,-0.78125 c 0,0.5625 0.578125,0.875 1.328125,0.875 1.515625,0 1.84375,-1.09375 1.84375,-1.484375 0,-0.34375 -0.1875,-0.5625 -0.296875,-0.65625 -0.234375,-0.25 -0.515625,-0.296875 -0.828125,-0.359375 -0.109375,-0.03125 -0.3125,-0.0625 -0.34375,-0.078125 -0.28125,-0.0625 -0.453125,-0.234375 -0.453125,-0.46875 0,-0.09375 0.0625,-0.390625 0.3125,-0.578125 0.25,-0.203125 0.59375,-0.203125 0.71875,-0.203125 0.3125,0 0.671875,0.09375 0.8125,0.375 z m 0,0"
               id="path35" />
          </g>
        </g>
      </g>
    </g>
    <g
       inkscape:label=""
       transform="translate(414.65552,494.41868)"
       id="g9008">
      <g
         fill="#000000"
         fill-opacity="1"
         id="g8998"
         transform="matrix(1.33333,0,0,1.33333,-0.666667,-0.00966644)">
        <g
           id="g8996"
           transform="translate(0,6.2259998)">
          <path
             d="m 2.578125,-5.921875 c 0.03125,-0.125 0.03125,-0.140625 0.03125,-0.171875 0,-0.078125 -0.046875,-0.125 -0.140625,-0.125 -0.125,0 -0.90625,0.0625 -1.09375,0.078125 -0.078125,0.015625 -0.1875,0.03125 -0.1875,0.171875 0,0.125 0.109375,0.125 0.25,0.125 0.421875,0 0.421875,0.0625 0.421875,0.140625 0,0.03125 0,0.046875 -0.046875,0.21875 l -1.28125,5.15625 C 0.5,-0.203125 0.5,-0.1875 0.5,-0.15625 c 0,0.140625 0.109375,0.25 0.265625,0.25 0.296875,0 0.359375,-0.25 0.40625,-0.4375 l 0.421875,-1.6875 c 0.609375,0.046875 1.0625,0.296875 1.0625,0.734375 0,0.0625 0,0.09375 -0.015625,0.234375 -0.015625,0.03125 -0.046875,0.15625 -0.046875,0.25 0,0.53125 0.375,0.90625 0.875,0.90625 0.328125,0 0.546875,-0.203125 0.703125,-0.46875 0.234375,-0.328125 0.359375,-0.875 0.359375,-0.90625 0,-0.046875 -0.03125,-0.109375 -0.125,-0.109375 -0.09375,0 -0.109375,0.046875 -0.15625,0.203125 -0.109375,0.46875 -0.34375,1.0625 -0.765625,1.0625 -0.25,0 -0.28125,-0.234375 -0.28125,-0.4375 0,-0.21875 0.046875,-0.453125 0.0625,-0.46875 0.015625,-0.046875 0.03125,-0.15625 0.03125,-0.265625 0,-0.625 -0.65625,-0.875 -1.34375,-0.953125 0.265625,-0.171875 0.46875,-0.359375 0.75,-0.640625 0.46875,-0.46875 0.84375,-0.84375 1.3125,-0.84375 0.109375,0 0.234375,0.015625 0.296875,0.109375 -0.40625,0.03125 -0.5,0.359375 -0.5,0.484375 0,0.171875 0.125,0.328125 0.34375,0.328125 0.21875,0 0.5,-0.171875 0.5,-0.5625 0,-0.296875 -0.21875,-0.59375 -0.640625,-0.59375 -0.546875,0 -0.984375,0.4375 -1.359375,0.828125 C 2.21875,-2.71875 2.015625,-2.5 1.671875,-2.359375 Z m 0,0"
             id="path8994" />
        </g>
      </g>
      <g
         clip-path="url(#clipPath1273)"
         id="g9006"
         transform="matrix(1.33333,0,0,1.33333,-0.666667,-0.00966644)">
        <g
           fill="#000000"
           fill-opacity="1"
           id="g9004">
          <g
             id="g9002"
             transform="translate(4.7979999,7.223)">
            <path
               d="m 1.796875,0.921875 c -0.421875,0 -0.484375,0 -0.484375,-0.25 V -0.28125 C 1.5625,-0.046875 1.84375,0.0625 2.171875,0.0625 3,0.0625 3.71875,-0.53125 3.71875,-1.296875 c 0,-0.71875 -0.625,-1.34375 -1.453125,-1.34375 -0.546875,0 -0.890625,0.265625 -0.96875,0.359375 v -0.359375 l -0.953125,0.0625 v 0.234375 c 0.40625,0 0.46875,0 0.46875,0.28125 v 2.734375 c 0,0.25 -0.046875,0.25 -0.46875,0.25 V 1.15625 c 0.046875,0 0.453125,-0.015625 0.71875,-0.015625 0.265625,0 0.671875,0.015625 0.734375,0.015625 z M 1.3125,-1.984375 c 0.203125,-0.28125 0.53125,-0.4375 0.890625,-0.4375 0.546875,0 0.9375,0.515625 0.9375,1.125 0,0.671875 -0.46875,1.171875 -1,1.171875 -0.46875,0 -0.734375,-0.328125 -0.828125,-0.515625 z m 0,0"
               id="path9000" />
          </g>
        </g>
      </g>
    </g>
    <path
       sodipodi:nodetypes="cc"
       inkscape:connector-curvature="0"
       id="path27958"
       d="m 455,425 10e-6,37.5"
       style="display:inline;fill:none;stroke:#000000;stroke-width:1px;stroke-linecap:butt;stroke-linejoin:miter;stroke-opacity:1;marker-start:none;marker-end:url(#Arrow2Mend-9)" />
    <path
       style="display:inline;fill:none;stroke:#000000;stroke-width:1px;stroke-linecap:round;stroke-linejoin:miter;stroke-opacity:1;marker-start:url(#Arrow2Mstart);marker-mid:none"
       d="M 485,470 H 462.5"
       sodipodi:nodetypes="cc"
       id="path27970"
       inkscape:export-filename="C:\Documents and Settings\mhinkkan\Desktop\testi.png"
       inkscape:export-xdpi="300"
       inkscape:export-ydpi="300"
       inkscape:connector-curvature="0" />
    <g
       inkscape:label=""
       transform="translate(438.58889,425.3125)"
       id="g32705">
      <g
         fill="#000000"
         fill-opacity="1"
         id="g32695"
         transform="matrix(1.33333,0,0,1.33333,-0.354167,0.145)">
        <g
           id="g32693"
           transform="translate(0,3.8599999)">
          <path
             d="m 4.375,-2.921875 c 0.046875,-0.234375 0.15625,-0.640625 0.15625,-0.6875 0,-0.109375 -0.078125,-0.25 -0.28125,-0.25 -0.125,0 -0.265625,0.078125 -0.328125,0.1875 C 3.890625,-3.59375 3.28125,-1.15625 3.21875,-0.859375 3.03125,-0.53125 2.671875,-0.125 2.171875,-0.125 1.625,-0.125 1.625,-0.6875 1.625,-0.859375 c 0,-0.40625 0.109375,-0.84375 0.5,-1.84375 0.078125,-0.21875 0.125,-0.34375 0.125,-0.5 0,-0.453125 -0.328125,-0.765625 -0.765625,-0.765625 -0.859375,0 -1.21875,1.28125 -1.21875,1.390625 0,0.078125 0.0625,0.109375 0.125,0.109375 0.09375,0 0.109375,-0.0625 0.140625,-0.171875 0.1875,-0.65625 0.53125,-1.09375 0.921875,-1.09375 0.1875,0 0.21875,0.125 0.21875,0.296875 0,0.140625 -0.046875,0.3125 -0.125,0.515625 -0.421875,1.125 -0.53125,1.5 -0.53125,1.921875 0,1 0.8125,1.09375 1.140625,1.09375 0.5,0 0.875,-0.3125 1.09375,-0.59375 0.171875,0.59375 0.765625,0.59375 0.8125,0.59375 0.265625,0 0.484375,-0.125 0.671875,-0.46875 0.15625,-0.296875 0.296875,-0.875 0.296875,-0.90625 0,-0.046875 -0.03125,-0.109375 -0.109375,-0.109375 -0.109375,0 -0.125,0.046875 -0.15625,0.21875 C 4.578125,-0.46875 4.390625,-0.125 4.09375,-0.125 3.875,-0.125 3.8125,-0.3125 3.8125,-0.53125 c 0,-0.171875 0.046875,-0.359375 0.125,-0.671875 L 4.15625,-2.125 Z m 0,0"
             id="path32691" />
        </g>
      </g>
      <g
         clip-path="url(#clipPath7894)"
         id="g32703"
         transform="matrix(1.33333,0,0,1.33333,-0.354167,0.145)">
        <g
           fill="#000000"
           fill-opacity="1"
           id="g32701">
          <g
             id="g32699"
             transform="translate(5.303,4.9229999)">
            <path
               d="M 3.390625,-2.34375 H 4.1875 V -2.578125 H 3.359375 v -0.65625 c 0,-0.546875 0.328125,-0.78125 0.609375,-0.78125 C 4.046875,-4.015625 4.109375,-4 4.140625,-4 4.09375,-3.96875 4.03125,-3.921875 4.03125,-3.765625 c 0,0.15625 0.109375,0.28125 0.28125,0.28125 0.171875,0 0.28125,-0.125 0.28125,-0.28125 0,-0.28125 -0.265625,-0.453125 -0.625,-0.453125 -0.1875,0 -0.46875,0.046875 -0.71875,0.25 -0.171875,-0.171875 -0.46875,-0.25 -0.84375,-0.25 -0.703125,0 -1.59375,0.296875 -1.59375,1 v 0.640625 H 0.265625 V -2.34375 H 0.8125 v 1.859375 c 0,0.25 -0.046875,0.25 -0.46875,0.25 V 0 C 0.53125,-0.015625 1,-0.03125 1.046875,-0.03125 c 0.25,0 0.484375,0.015625 0.71875,0.03125 v -0.234375 c -0.40625,0 -0.46875,0 -0.46875,-0.25 V -2.34375 h 1.625 v 1.859375 c 0,0.25 -0.0625,0.25 -0.484375,0.25 V 0 C 2.59375,-0.015625 3.03125,-0.03125 3.171875,-0.03125 3.484375,-0.03125 3.890625,0 3.96875,0 v -0.234375 h -0.125 c -0.453125,0 -0.453125,-0.0625 -0.453125,-0.265625 z m -2.125,-0.234375 V -3.21875 c 0,-0.578125 0.625,-0.796875 1.125,-0.796875 0.0625,0 0.34375,0 0.546875,0.078125 -0.015625,0 -0.15625,0.078125 -0.15625,0.25 0,0.078125 0.03125,0.1875 0.15625,0.25 -0.015625,0.0625 -0.015625,0.140625 -0.015625,0.203125 v 0.65625 z m 0,0"
               id="path32697" />
          </g>
        </g>
      </g>
    </g>
    <g
       id="g38890"
       transform="translate(120,-10)">
      <ellipse
         transform="rotate(90)"
         id="ellipse27960"
         style="font-style:normal;font-variant:normal;font-weight:normal;font-stretch:normal;font-size:12px;line-height:125%;font-family:'Nimbus Roman No9 L';text-align:start;writing-mode:lr-tb;text-anchor:start;display:inline;fill:#ffffff;fill-opacity:1;stroke:#000000;stroke-width:1.333;stroke-linecap:round;stroke-linejoin:round;stroke-miterlimit:4;stroke-dasharray:none;stroke-dashoffset:0;stroke-opacity:1"
         cx="480"
         cy="-335"
         rx="7.5000033"
         ry="7.4999976" />
      <g
         id="g27966"
         transform="matrix(-0.7272727,0,0,-0.7272727,357.54546,276.61212)"
         style="font-style:normal;font-variant:normal;font-weight:normal;font-stretch:normal;font-size:16.5px;line-height:125%;font-family:'Nimbus Roman No9 L';text-align:start;writing-mode:lr-tb;text-anchor:start;display:inline">
        <path
           transform="translate(10.5,17.500004)"
           id="path27962"
           sodipodi:nodetypes="cc"
           d="m 9.5,-274.09586 v -10"
           style="font-style:normal;font-variant:normal;font-weight:normal;font-stretch:normal;font-size:16.5px;line-height:125%;font-family:'Nimbus Roman No9 L';text-align:start;writing-mode:lr-tb;text-anchor:start;fill:none;stroke:#000000;stroke-width:1px;stroke-linecap:butt;stroke-linejoin:miter;stroke-opacity:1"
           inkscape:connector-curvature="0" />
        <path
           transform="rotate(-90,26.5,-268.09586)"
           id="path27964"
           sodipodi:nodetypes="cc"
           d="m 19.999996,-279.59586 v 10"
           style="font-style:normal;font-variant:normal;font-weight:normal;font-stretch:normal;font-size:16.5px;line-height:125%;font-family:'Nimbus Roman No9 L';text-align:start;writing-mode:lr-tb;text-anchor:start;display:inline;fill:none;stroke:#000000;stroke-width:1px;stroke-linecap:butt;stroke-linejoin:miter;stroke-opacity:1"
           inkscape:connector-curvature="0" />
      </g>
      <g
         style="font-style:normal;font-variant:normal;font-weight:normal;font-stretch:normal;font-size:16.5px;line-height:125%;font-family:'Nimbus Roman No9 L';text-align:start;writing-mode:lr-tb;text-anchor:start;display:inline"
         transform="matrix(0,0.7272727,-0.7272727,0,131.61216,457.45454)"
         id="g33274">
        <path
           inkscape:connector-curvature="0"
           style="font-style:normal;font-variant:normal;font-weight:normal;font-stretch:normal;font-size:16.5px;line-height:125%;font-family:'Nimbus Roman No9 L';text-align:start;writing-mode:lr-tb;text-anchor:start;fill:none;stroke:#000000;stroke-width:1px;stroke-linecap:butt;stroke-linejoin:miter;stroke-opacity:1"
           d="m 9.5,-274.09586 v -10"
           sodipodi:nodetypes="cc"
           id="path33270"
           transform="translate(10.5,17.500004)" />
        <path
           inkscape:connector-curvature="0"
           style="font-style:normal;font-variant:normal;font-weight:normal;font-stretch:normal;font-size:16.5px;line-height:125%;font-family:'Nimbus Roman No9 L';text-align:start;writing-mode:lr-tb;text-anchor:start;display:inline;fill:none;stroke:#000000;stroke-width:1px;stroke-linecap:butt;stroke-linejoin:miter;stroke-opacity:1"
           d="m 19.999996,-279.59586 v 10"
           sodipodi:nodetypes="cc"
           id="path33272"
           transform="rotate(-90,26.5,-268.09586)" />
      </g>
    </g>
  </g>
</svg>
