<?xml version="1.0" encoding="UTF-8" standalone="no"?>
<svg
   viewBox="0 0 480.00001 145"
   sodipodi:docname="complex_vector_2dof_pi.svg"
   inkscape:version="1.2.2 (b0a8486541, 2022-12-01)"
   version="1.1"
   id="svg6781"
   height="145"
   width="480"
   xmlns:inkscape="http://www.inkscape.org/namespaces/inkscape"
   xmlns:sodipodi="http://sodipodi.sourceforge.net/DTD/sodipodi-0.dtd"
   xmlns="http://www.w3.org/2000/svg"
   xmlns:svg="http://www.w3.org/2000/svg"
   xmlns:rdf="http://www.w3.org/1999/02/22-rdf-syntax-ns#"
   xmlns:cc="http://creativecommons.org/ns#"
   xmlns:dc="http://purl.org/dc/elements/1.1/">
  <sodipodi:namedview
     id="base"
     pagecolor="#ffffff"
     bordercolor="#666666"
     borderopacity="1.0"
     inkscape:pageopacity="0.0"
     inkscape:pageshadow="2"
     inkscape:zoom="2.8"
     inkscape:cx="410.17857"
     inkscape:cy="174.10714"
     inkscape:document-units="px"
     inkscape:current-layer="svg6781"
     showgrid="true"
     inkscape:window-width="2560"
     inkscape:window-height="1403"
     inkscape:window-x="0"
     inkscape:window-y="0"
     inkscape:window-maximized="1"
     inkscape:document-rotation="0"
     fit-margin-top="0"
     fit-margin-left="0"
     fit-margin-right="0"
     fit-margin-bottom="0"
     inkscape:showpageshadow="2"
     inkscape:pagecheckerboard="0"
     inkscape:deskcolor="#d1d1d1">
    <inkscape:grid
       spacingy="0.5"
       spacingx="0.5"
       snapvisiblegridlinesonly="true"
       enabled="true"
       visible="true"
       empspacing="5"
       id="grid7066"
       type="xygrid"
       originx="-150"
       originy="-410"
       units="px" />
  </sodipodi:namedview>
  <defs
     id="defs6783">
    <marker
       style="overflow:visible"
       id="Arrow2Mend-9"
       orient="auto"
       refY="0"
       inkscape:stockid="Arrow2Mend"
       refX="0"
       viewBox="0 0 6.5555267 4.8212658"
       markerWidth="6.5555267"
       markerHeight="4.8212657"
       preserveAspectRatio="xMidYMid">
      <path
         inkscape:connector-curvature="0"
         style="font-size:12px;fill-rule:evenodd;stroke-width:0.625;stroke-linejoin:round"
         transform="scale(-0.6)"
         d="M 8.7185878,4.0337352 -2.2072895,0.01601326 8.7185884,-4.0017078 c -1.7454984,2.3720609 -1.7354408,5.6174519 -6e-7,8.035443 z"
         id="path18502-9" />
    </marker>
    <marker
       inkscape:stockid="DotM"
       orient="auto"
       refY="0"
       refX="0"
       id="DotM"
       style="overflow:visible">
      <path
         inkscape:connector-curvature="0"
         id="path4676"
         d="m -2.5,-1 c 0,2.76 -2.24,5 -5,5 -2.76,0 -5,-2.24 -5,-5 0,-2.76 2.24,-5 5,-5 2.76,0 5,2.24 5,5 z"
         style="fill-rule:evenodd;stroke:#000000;stroke-width:1pt;marker-start:none;marker-end:none"
         transform="matrix(0.4,0,0,0.4,2.96,0.4)" />
    </marker>
    <marker
       style="overflow:visible"
       id="marker3394"
       refX="4.5"
       refY="0"
       orient="auto-start-reverse"
       inkscape:stockid="Arrow2"
       markerWidth="6.6999998"
       markerHeight="4.8727274"
       viewBox="0 0 7.7 5.6"
       inkscape:isstock="true"
       inkscape:collect="always"
       preserveAspectRatio="xMidYMid">
      <path
         transform="scale(0.7)"
         d="M -2,-4 9,0 -2,4 c 2,-2.33 2,-5.66 0,-8 z"
         style="fill:context-stroke;fill-rule:evenodd;stroke:none"
         id="path3392" />
    </marker>
    <marker
       refX="0"
       inkscape:stockid="Arrow2Mstart"
       refY="0"
       orient="auto"
       id="Arrow2Mstart"
       style="overflow:visible">
      <path
         id="path21014"
         d="M 8.7185878,4.0337352 -2.2072895,0.01601326 8.7185884,-4.0017078 c -1.7454984,2.3720609 -1.7354408,5.6174519 -6e-7,8.035443 z"
         transform="scale(0.6)"
         style="font-size:12px;fill-rule:evenodd;stroke-width:0.625;stroke-linejoin:round"
         inkscape:connector-curvature="0" />
    </marker>
    <clipPath
       id="clipPath845">
      <path
         clip-rule="nonzero"
         d="M 0,0 H 5.304688 V 3.859375 H 0 Z m 0,0"
         id="path9225" />
    </clipPath>
    <clipPath
       id="clipPath1172">
      <path
         clip-rule="nonzero"
         d="M 0,0 H 4.859375 V 5.605469 H 0 Z m 0,0"
         id="path7000" />
    </clipPath>
    <clipPath
       id="clipPath4091">
      <path
         clip-rule="nonzero"
         d="M 0,0 H 4.414062 V 3.859375 H 0 Z m 0,0"
         id="path1544" />
    </clipPath>
    <clipPath
       id="clipPath2728">
      <path
         clip-rule="nonzero"
         d="M 5,3 H 8 V 7.222656 H 5 Z m 0,0"
         id="path4169" />
    </clipPath>
    <clipPath
       id="clipPath8044">
      <path
         clip-rule="nonzero"
         d="M 5,3 H 7 V 7.222656 H 5 Z m 0,0"
         id="path3821" />
    </clipPath>
    <clipPath
       id="clipPath9866">
      <path
         clip-rule="nonzero"
         d="m 1,13 h 5 v 4.65625 H 1 Z m 0,0"
         id="path1091" />
    </clipPath>
    <clipPath
       id="clipPath1273">
      <path
         clip-rule="nonzero"
         d="M 5,4 H 9 V 8.386719 H 5 Z m 0,0"
         id="path4194" />
    </clipPath>
    <clipPath
       id="clipPath9233">
      <path
         clip-rule="nonzero"
         d="m 6,4 h 4 V 8.386719 H 6 Z m 0,0"
         id="path5652" />
    </clipPath>
    <clipPath
       id="clipPath4920">
      <path
         clip-rule="nonzero"
         d="M 5,3 H 9 V 7.222656 H 5 Z m 0,0"
         id="path2812" />
    </clipPath>
    <clipPath
       id="clipPath7364">
      <path
         clip-rule="nonzero"
         d="m 6,0 h 5 V 5.046875 H 6 Z m 0,0"
         id="path9522" />
    </clipPath>
    <clipPath
       id="clipPath4683">
      <path
         clip-rule="nonzero"
         d="M 0,0 H 6.316406 V 3.984375 H 0 Z m 0,0"
         id="path3227" />
    </clipPath>
    <clipPath
       id="clipPath2242">
      <path
         clip-rule="nonzero"
         d="M 0,0 H 5 V 3.984375 H 0 Z m 0,0"
         id="path1677" />
    </clipPath>
    <clipPath
       id="clipPath7894">
      <path
         clip-rule="nonzero"
         d="m 5,0 h 5 V 4.921875 H 5 Z m 0,0"
         id="path9901" />
    </clipPath>
    <clipPath
       id="clipPath5247">
      <path
         clip-rule="nonzero"
         d="M 0,0 H 2 V 7.96875 H 0 Z m 0,0"
         id="path7934" />
    </clipPath>
    <clipPath
       id="clipPath4144">
      <path
         clip-rule="nonzero"
         d="m 8,3 h 3 V 7.96875 H 8 Z m 0,0"
         id="path7274" />
    </clipPath>
    <clipPath
       id="clipPath3008">
      <path
         clip-rule="nonzero"
         d="M 0,0 H 6 V 3.859375 H 0 Z m 0,0"
         id="path7712" />
    </clipPath>
    <clipPath
       id="clipPath4299">
      <path
         clip-rule="nonzero"
         d="M 6,3 H 8 V 7.222656 H 6 Z m 0,0"
         id="path7557" />
    </clipPath>
  </defs>
  <metadata
     id="metadata6786">
    <rdf:RDF>
      <cc:Work
         rdf:about="">
        <dc:format>image/svg+xml</dc:format>
        <dc:type
           rdf:resource="http://purl.org/dc/dcmitype/StillImage" />
      </cc:Work>
    </rdf:RDF>
  </metadata>
  <g
     id="layer1"
     inkscape:groupmode="layer"
     inkscape:label="Layer 1"
     transform="translate(-150,-410)">
    <path
       sodipodi:nodetypes="cc"
       inkscape:connector-curvature="0"
       id="path41967"
       d="m 382.49997,465 h 17.50002"
       style="display:inline;fill:none;stroke:#000000;stroke-width:1px;stroke-linecap:butt;stroke-linejoin:miter;stroke-opacity:1;marker-start:none;marker-end:url(#Arrow2Mend-9)" />
    <path
       style="display:inline;fill:none;stroke:#000000;stroke-width:1px;stroke-linecap:butt;stroke-linejoin:miter;stroke-opacity:1;marker-start:none;marker-end:url(#Arrow2Mend-9)"
       d="m 375,545 -3e-5,-37.5"
       id="path38908"
       inkscape:connector-curvature="0"
       sodipodi:nodetypes="cc" />
    <path
       sodipodi:nodetypes="cc"
       inkscape:connector-curvature="0"
       id="path35616"
       d="m 349.99997,500 h 17.5"
       style="display:inline;fill:none;stroke:#000000;stroke-width:1px;stroke-linecap:butt;stroke-linejoin:miter;stroke-opacity:1;marker-start:none;marker-end:url(#Arrow2Mend-9)" />
    <g
       transform="translate(-260.44921,151.86401)"
       id="g4675" />
    <g
       inkscape:label=""
       transform="translate(463.39585,421.625)"
       id="g20122">
      <g
         fill="#000000"
         fill-opacity="1"
         id="g20112"
         transform="matrix(1.33333,0,0,1.33333,-0.395833,0.0825001)">
        <g
           id="g20110"
           transform="translate(0,3.9849999)">
          <path
             d="m 3.703125,-0.890625 c -0.171875,0.21875 -0.515625,0.609375 -1,0.609375 -0.390625,0 -0.5625,-0.234375 -0.5625,-0.65625 0,-0.53125 0.296875,-1.296875 0.546875,-1.90625 0.046875,-0.125 0.109375,-0.265625 0.109375,-0.40625 0,-0.46875 -0.46875,-0.796875 -1.0625,-0.796875 -0.953125,0 -1.4375,1.171875 -1.4375,1.390625 0,0.140625 0.125,0.140625 0.234375,0.140625 0.140625,0 0.1875,0 0.21875,-0.125 0.3125,-1.03125 0.84375,-1.046875 0.921875,-1.046875 0.0625,0 0.15625,0 0.15625,0.1875 0,0.203125 -0.09375,0.4375 -0.140625,0.546875 -0.375,0.921875 -0.546875,1.40625 -0.546875,1.84375 0,0.90625 0.734375,1.1875 1.484375,1.1875 0.1875,0 0.65625,0 1.171875,-0.5 0.3125,0.453125 0.859375,0.5 1.0625,0.5 0.21875,0 0.515625,-0.0625 0.8125,-0.53125 0.1875,-0.3125 0.34375,-0.796875 0.34375,-0.875 0,-0.140625 -0.15625,-0.140625 -0.234375,-0.140625 -0.1875,0 -0.21875,0.046875 -0.25,0.1875 -0.125,0.515625 -0.28125,1 -0.625,1 -0.15625,0 -0.21875,-0.15625 -0.21875,-0.34375 0,-0.140625 0.109375,-0.515625 0.171875,-0.78125 0.046875,-0.21875 0.1875,-0.765625 0.21875,-0.921875 L 5.25,-3.015625 C 5.296875,-3.203125 5.375,-3.5 5.375,-3.5625 c 0,-0.3125 -0.25,-0.421875 -0.4375,-0.421875 -0.46875,0 -0.59375,0.4375 -0.625,0.609375 l -0.515625,2.046875 c -0.0625,0.25 -0.0625,0.265625 -0.09375,0.4375 z m 0,0"
             id="path20108" />
        </g>
      </g>
      <g
         clip-path="url(#clipPath7364)"
         id="g20120"
         transform="matrix(1.33333,0,0,1.33333,-0.395833,0.0825001)">
        <g
           fill="#000000"
           fill-opacity="1"
           id="g20118">
          <g
             id="g20116"
             transform="translate(6.3169999,5.0479999)">
            <path
               d="M 3.390625,-2.34375 H 4.1875 V -2.578125 H 3.359375 v -0.65625 c 0,-0.546875 0.328125,-0.78125 0.609375,-0.78125 C 4.046875,-4.015625 4.109375,-4 4.140625,-4 4.09375,-3.96875 4.03125,-3.921875 4.03125,-3.765625 c 0,0.15625 0.109375,0.28125 0.28125,0.28125 0.171875,0 0.28125,-0.125 0.28125,-0.28125 0,-0.28125 -0.265625,-0.453125 -0.625,-0.453125 -0.1875,0 -0.46875,0.046875 -0.71875,0.25 -0.171875,-0.171875 -0.46875,-0.25 -0.84375,-0.25 -0.703125,0 -1.59375,0.296875 -1.59375,1 v 0.640625 H 0.265625 V -2.34375 H 0.8125 v 1.859375 c 0,0.25 -0.046875,0.25 -0.46875,0.25 V 0 C 0.53125,-0.015625 1,-0.03125 1.046875,-0.03125 c 0.25,0 0.484375,0.015625 0.71875,0.03125 v -0.234375 c -0.40625,0 -0.46875,0 -0.46875,-0.25 V -2.34375 h 1.625 v 1.859375 c 0,0.25 -0.0625,0.25 -0.484375,0.25 V 0 C 2.59375,-0.015625 3.03125,-0.03125 3.171875,-0.03125 3.484375,-0.03125 3.890625,0 3.96875,0 v -0.234375 h -0.125 c -0.453125,0 -0.453125,-0.0625 -0.453125,-0.265625 z m -2.125,-0.234375 V -3.21875 c 0,-0.578125 0.625,-0.796875 1.125,-0.796875 0.0625,0 0.34375,0 0.546875,0.078125 -0.015625,0 -0.15625,0.078125 -0.15625,0.25 0,0.078125 0.03125,0.1875 0.15625,0.25 -0.015625,0.0625 -0.015625,0.140625 -0.015625,0.203125 v 0.65625 z m 0,0"
               id="path20114" />
          </g>
        </g>
      </g>
    </g>
    <g
       inkscape:label=""
       transform="translate(501.18751,454.25001)"
       id="g21877">
      <g
         clip-path="url(#clipPath4683)"
         id="g21875"
         transform="matrix(1.33333,0,0,1.33333,-0.395833,0.0825001)">
        <g
           fill="#000000"
           fill-opacity="1"
           id="g21873">
          <g
             id="g21871"
             transform="translate(0,3.9849999)">
            <path
               d="m 3.703125,-0.890625 c -0.171875,0.21875 -0.515625,0.609375 -1,0.609375 -0.390625,0 -0.5625,-0.234375 -0.5625,-0.65625 0,-0.53125 0.296875,-1.296875 0.546875,-1.90625 0.046875,-0.125 0.109375,-0.265625 0.109375,-0.40625 0,-0.46875 -0.46875,-0.796875 -1.0625,-0.796875 -0.953125,0 -1.4375,1.171875 -1.4375,1.390625 0,0.140625 0.125,0.140625 0.234375,0.140625 0.140625,0 0.1875,0 0.21875,-0.125 0.3125,-1.03125 0.84375,-1.046875 0.921875,-1.046875 0.0625,0 0.15625,0 0.15625,0.1875 0,0.203125 -0.09375,0.4375 -0.140625,0.546875 -0.375,0.921875 -0.546875,1.40625 -0.546875,1.84375 0,0.90625 0.734375,1.1875 1.484375,1.1875 0.1875,0 0.65625,0 1.171875,-0.5 0.3125,0.453125 0.859375,0.5 1.0625,0.5 0.21875,0 0.515625,-0.0625 0.8125,-0.53125 0.1875,-0.3125 0.34375,-0.796875 0.34375,-0.875 0,-0.140625 -0.15625,-0.140625 -0.234375,-0.140625 -0.1875,0 -0.21875,0.046875 -0.25,0.1875 -0.125,0.515625 -0.28125,1 -0.625,1 -0.15625,0 -0.21875,-0.15625 -0.21875,-0.34375 0,-0.140625 0.109375,-0.515625 0.171875,-0.78125 0.046875,-0.21875 0.1875,-0.765625 0.21875,-0.921875 L 5.25,-3.015625 C 5.296875,-3.203125 5.375,-3.5 5.375,-3.5625 c 0,-0.3125 -0.25,-0.421875 -0.4375,-0.421875 -0.46875,0 -0.59375,0.4375 -0.625,0.609375 l -0.515625,2.046875 c -0.0625,0.25 -0.0625,0.265625 -0.09375,0.4375 z m 0,0"
               id="path21869" />
          </g>
        </g>
      </g>
    </g>
    <g
       inkscape:label=""
       transform="translate(501.81251,513.39584)"
       id="g23637">
      <g
         fill="#000000"
         fill-opacity="1"
         id="g11"
         transform="matrix(1.33333,0,0,1.33333,-0.395833,0.0811666)">
        <g
           id="use9"
           transform="translate(0,3.9860001)">
          <path
             d="M 5.34375,-3.34375 C 5.375,-3.484375 5.375,-3.53125 5.375,-3.5625 c 0,-0.3125 -0.25,-0.421875 -0.4375,-0.421875 -0.46875,0 -0.578125,0.4375 -0.640625,0.671875 L 4.0625,-2.390625 c -0.125,0.5 -0.234375,0.984375 -0.375,1.484375 -0.015625,0.0625 -0.40625,0.625 -0.984375,0.625 -0.390625,0 -0.5625,-0.234375 -0.5625,-0.65625 0,-0.53125 0.296875,-1.296875 0.546875,-1.90625 0.046875,-0.125 0.109375,-0.265625 0.109375,-0.40625 0,-0.46875 -0.46875,-0.796875 -1.0625,-0.796875 -0.953125,0 -1.4375,1.171875 -1.4375,1.390625 0,0.140625 0.125,0.140625 0.234375,0.140625 0.140625,0 0.1875,0 0.21875,-0.125 0.3125,-1.03125 0.84375,-1.046875 0.921875,-1.046875 0.0625,0 0.15625,0 0.15625,0.1875 0,0.203125 -0.09375,0.4375 -0.140625,0.546875 -0.359375,0.90625 -0.546875,1.40625 -0.546875,1.84375 0,0.90625 0.734375,1.1875 1.484375,1.1875 0.140625,0 0.484375,0 0.890625,-0.28125 C 3.3125,0.75 2.65625,1.453125 1.9375,1.453125 c -0.015625,0 -0.28125,0 -0.5,-0.09375 C 1.65625,1.25 1.828125,1.03125 1.828125,0.765625 c 0,-0.328125 -0.25,-0.453125 -0.46875,-0.453125 -0.375,0 -0.671875,0.34375 -0.671875,0.703125 0,0.515625 0.546875,0.796875 1.25,0.796875 1.09375,0 2.28125,-0.703125 2.5625,-1.796875 z m 0,0"
             id="path23633" />
        </g>
      </g>
    </g>
    <g
       inkscape:label=""
       transform="translate(250.39583,454.60501)"
       id="g25408">
      <g
         clip-path="url(#clipPath2242)"
         id="g25406"
         transform="matrix(1.33333,0,0,1.33333,-0.395833,0.0825001)">
        <g
           fill="#000000"
           fill-opacity="1"
           id="g25404">
          <g
             id="g25402"
             transform="translate(0,3.9849999)">
            <path
               d="M 2.578125,-2.921875 C 2.625,-3.09375 3.046875,-3.6875 3.734375,-3.6875 c 0.171875,0 0.28125,0.046875 0.359375,0.125 -0.3125,0.0625 -0.5625,0.328125 -0.5625,0.640625 0,0.328125 0.25,0.453125 0.46875,0.453125 0.328125,0 0.6875,-0.25 0.6875,-0.75 0,-0.484375 -0.375,-0.828125 -0.921875,-0.828125 C 3.046875,-4.046875 2.59375,-3.5625 2.53125,-3.5 2.34375,-3.875 1.875,-4.046875 1.453125,-4.046875 c -0.234375,0 -0.53125,0.0625 -0.8125,0.515625 -0.21875,0.34375 -0.34375,0.8125 -0.34375,0.875 0,0.140625 0.125,0.140625 0.234375,0.140625 0.1875,0 0.1875,-0.015625 0.25,-0.203125 C 0.9375,-3.375 1.125,-3.6875 1.40625,-3.6875 c 0.140625,0 0.203125,0.109375 0.203125,0.328125 0,0.15625 -0.015625,0.265625 -0.09375,0.5625 -0.0625,0.21875 -0.109375,0.421875 -0.171875,0.6875 L 1,-0.734375 C 0.953125,-0.59375 0.921875,-0.40625 0.921875,-0.34375 c 0,0.3125 0.234375,0.421875 0.421875,0.421875 0.25,0 0.515625,-0.171875 0.609375,-0.484375 0.03125,-0.15625 0.3125,-1.28125 0.375,-1.546875 z m 0,0"
               id="path25400" />
          </g>
        </g>
      </g>
    </g>
    <path
       style="display:inline;fill:none;stroke:#000000;stroke-width:1px;stroke-linecap:butt;stroke-linejoin:miter;stroke-opacity:1;marker-start:none;marker-end:url(#Arrow2Mend-9)"
       d="M 444.99996,490 V 472.5"
       id="path33278"
       inkscape:connector-curvature="0"
       sodipodi:nodetypes="cc" />
    <path
       style="display:inline;fill:none;stroke:#000000;stroke-width:1px;stroke-linecap:butt;stroke-linejoin:miter;stroke-opacity:1;marker-start:none;marker-end:url(#Arrow2Mend-9)"
       d="m 302.5,465 h 27.49997"
       id="path33280"
       inkscape:connector-curvature="0"
       sodipodi:nodetypes="cc" />
    <path
       sodipodi:nodetypes="ccc"
       inkscape:connector-curvature="0"
       id="path33282"
       d="m 270,465 -2e-5,-35 h 59.99999"
       style="display:inline;fill:none;stroke:#000000;stroke-width:1px;stroke-linecap:butt;stroke-linejoin:miter;stroke-opacity:1;marker-start:url(#DotM);marker-end:url(#marker3394)" />
    <path
       sodipodi:nodetypes="cc"
       inkscape:connector-curvature="0"
       id="path33284"
       d="m 349.99995,465 h 17.50002"
       style="display:inline;fill:none;stroke:#000000;stroke-width:1px;stroke-linecap:butt;stroke-linejoin:miter;stroke-opacity:1;marker-start:none;marker-end:url(#Arrow2Mend-9)" />
    <path
       sodipodi:nodetypes="ccc"
       inkscape:connector-curvature="0"
       id="path33286"
       d="m 349.99995,430 h 95.00002 l -2e-5,27.5"
       style="display:inline;fill:none;stroke:#000000;stroke-width:1px;stroke-linecap:butt;stroke-linejoin:miter;stroke-opacity:1;marker-start:none;marker-end:url(#Arrow2Mend-9)" />
    <path
       style="display:inline;fill:none;stroke:#000000;stroke-width:1px;stroke-linecap:butt;stroke-linejoin:miter;stroke-opacity:1;marker-start:none;marker-end:url(#Arrow2Mend-9)"
       d="m 250,465 h 37.5"
       id="path33288"
       inkscape:connector-curvature="0"
       sodipodi:nodetypes="cc" />
    <path
       style="display:inline;fill:none;stroke:#000000;stroke-width:1px;stroke-linecap:butt;stroke-linejoin:miter;stroke-opacity:1;marker-end:url(#Arrow2Mend-9)"
       d="m 509.99997,525 h -215 l -1e-5,-52.49999"
       id="path33290"
       inkscape:connector-curvature="0"
       sodipodi:nodetypes="ccc" />
    <path
       style="display:inline;fill:none;stroke:#000000;stroke-width:1;stroke-linecap:butt;stroke-linejoin:miter;stroke-dasharray:none;stroke-opacity:1;marker-start:none;marker-end:url(#Arrow2Mend-9)"
       d="m 419.99997,465 h 17.5"
       id="path33292"
       inkscape:connector-curvature="0"
       sodipodi:nodetypes="cc" />
    <g
       style="font-style:normal;font-variant:normal;font-weight:normal;font-stretch:normal;font-size:16.5px;line-height:125%;font-family:'Nimbus Roman No9 L';text-align:start;writing-mode:lr-tb;text-anchor:start;display:inline"
       transform="matrix(0,0.7272727,-0.7272727,0,241.61207,442.45455)"
       id="g33298">
      <path
         inkscape:connector-curvature="0"
         style="font-style:normal;font-variant:normal;font-weight:normal;font-stretch:normal;font-size:16.5px;line-height:125%;font-family:'Nimbus Roman No9 L';text-align:start;writing-mode:lr-tb;text-anchor:start;fill:none;stroke:#000000;stroke-width:1px;stroke-linecap:butt;stroke-linejoin:miter;stroke-opacity:1"
         d="m 9.5,-274.09586 v -10"
         sodipodi:nodetypes="cc"
         id="path33294"
         transform="translate(10.5,17.500004)" />
      <path
         inkscape:connector-curvature="0"
         style="font-style:normal;font-variant:normal;font-weight:normal;font-stretch:normal;font-size:16.5px;line-height:125%;font-family:'Nimbus Roman No9 L';text-align:start;writing-mode:lr-tb;text-anchor:start;display:inline;fill:none;stroke:#000000;stroke-width:1px;stroke-linecap:butt;stroke-linejoin:miter;stroke-opacity:1"
         d="m 19.999996,-279.59586 v 10"
         sodipodi:nodetypes="cc"
         id="path33296"
         transform="rotate(-90,26.5,-268.09586)" />
    </g>
    <ellipse
       transform="rotate(90)"
       id="ellipse33300"
       style="font-style:normal;font-variant:normal;font-weight:normal;font-stretch:normal;font-size:12px;line-height:125%;font-family:'Nimbus Roman No9 L';text-align:start;writing-mode:lr-tb;text-anchor:start;display:inline;fill:#ffffff;fill-opacity:1;stroke:#000000;stroke-width:1.333;stroke-linecap:round;stroke-linejoin:round;stroke-miterlimit:4;stroke-dasharray:none;stroke-dashoffset:0;stroke-opacity:1"
       cx="465"
       cy="-444.99994"
       rx="7.5000033"
       ry="7.4999976" />
    <g
       id="g33306"
       transform="matrix(-0.7272727,0,0,-0.7272727,467.5454,261.61212)"
       style="font-style:normal;font-variant:normal;font-weight:normal;font-stretch:normal;font-size:16.5px;line-height:125%;font-family:'Nimbus Roman No9 L';text-align:start;writing-mode:lr-tb;text-anchor:start;display:inline">
      <path
         transform="translate(10.5,17.500004)"
         id="path33302"
         sodipodi:nodetypes="cc"
         d="m 9.5,-274.09586 v -10"
         style="font-style:normal;font-variant:normal;font-weight:normal;font-stretch:normal;font-size:16.5px;line-height:125%;font-family:'Nimbus Roman No9 L';text-align:start;writing-mode:lr-tb;text-anchor:start;fill:none;stroke:#000000;stroke-width:1px;stroke-linecap:butt;stroke-linejoin:miter;stroke-opacity:1"
         inkscape:connector-curvature="0" />
      <path
         transform="rotate(-90,26.5,-268.09586)"
         id="path33304"
         sodipodi:nodetypes="cc"
         d="m 19.999996,-279.59586 v 10"
         style="font-style:normal;font-variant:normal;font-weight:normal;font-stretch:normal;font-size:16.5px;line-height:125%;font-family:'Nimbus Roman No9 L';text-align:start;writing-mode:lr-tb;text-anchor:start;display:inline;fill:none;stroke:#000000;stroke-width:1px;stroke-linecap:butt;stroke-linejoin:miter;stroke-opacity:1"
         inkscape:connector-curvature="0" />
    </g>
    <g
       style="font-style:normal;font-variant:normal;font-weight:normal;font-stretch:normal;font-size:16.5px;line-height:125%;font-family:'Nimbus Roman No9 L';text-align:start;writing-mode:lr-tb;text-anchor:start;display:inline"
       transform="matrix(0,0.7272727,-0.7272727,0,91.612123,442.45455)"
       id="g33312">
      <path
         inkscape:connector-curvature="0"
         style="font-style:normal;font-variant:normal;font-weight:normal;font-stretch:normal;font-size:16.5px;line-height:125%;font-family:'Nimbus Roman No9 L';text-align:start;writing-mode:lr-tb;text-anchor:start;fill:none;stroke:#000000;stroke-width:1px;stroke-linecap:butt;stroke-linejoin:miter;stroke-opacity:1"
         d="m 9.5,-274.09586 v -10"
         sodipodi:nodetypes="cc"
         id="path33308"
         transform="translate(10.5,17.500004)" />
      <path
         inkscape:connector-curvature="0"
         style="font-style:normal;font-variant:normal;font-weight:normal;font-stretch:normal;font-size:16.5px;line-height:125%;font-family:'Nimbus Roman No9 L';text-align:start;writing-mode:lr-tb;text-anchor:start;display:inline;fill:none;stroke:#000000;stroke-width:1px;stroke-linecap:butt;stroke-linejoin:miter;stroke-opacity:1"
         d="m 19.999996,-279.59586 v 10"
         sodipodi:nodetypes="cc"
         id="path33310"
         transform="rotate(-90,26.5,-268.09586)" />
    </g>
    <ellipse
       transform="rotate(90)"
       id="ellipse33314"
       style="font-style:normal;font-variant:normal;font-weight:normal;font-stretch:normal;font-size:12px;line-height:125%;font-family:'Nimbus Roman No9 L';text-align:start;writing-mode:lr-tb;text-anchor:start;display:inline;fill:#ffffff;fill-opacity:1;stroke:#000000;stroke-width:1.333;stroke-linecap:round;stroke-linejoin:round;stroke-miterlimit:4;stroke-dasharray:none;stroke-dashoffset:0;stroke-opacity:1"
       cx="465"
       cy="-294.99997"
       rx="7.5000033"
       ry="7.4999976" />
    <path
       inkscape:connector-curvature="0"
       style="font-style:normal;font-variant:normal;font-weight:normal;font-stretch:normal;font-size:16.5px;line-height:125%;font-family:'Nimbus Roman No9 L';text-align:start;writing-mode:lr-tb;text-anchor:start;display:inline;fill:none;stroke:#000000;stroke-width:0.727273px;stroke-linecap:butt;stroke-linejoin:miter;stroke-opacity:1"
       d="m 282.72724,478.50008 h 7.27273"
       sodipodi:nodetypes="cc"
       id="path33316" />
    <path
       style="display:inline;fill:none;stroke:#000000;stroke-width:1px;stroke-linecap:butt;stroke-linejoin:miter;stroke-opacity:1;marker-start:url(#DotM);marker-end:url(#Arrow2Mend-9)"
       d="M 445,525 V 510"
       id="path33318"
       inkscape:connector-curvature="0"
       sodipodi:nodetypes="cc" />
    <rect
       style="display:inline;fill:#ffffff;fill-opacity:1;fill-rule:nonzero;stroke:#000000;stroke-width:1.333;stroke-linecap:round;stroke-linejoin:miter;stroke-miterlimit:4;stroke-dasharray:none;stroke-dashoffset:0;stroke-opacity:1"
       id="rect33320"
       width="20"
       y="445"
       x="400"
       height="40"
       inkscape:export-filename="C:\Documents and Settings\mhinkkan\Desktop\testi3.png"
       inkscape:export-xdpi="300"
       inkscape:export-ydpi="300" />
    <path
       id="path33322"
       sodipodi:nodetypes="cc"
       d="m 433.36361,478.13637 h 7.27273"
       style="font-style:normal;font-variant:normal;font-weight:normal;font-stretch:normal;font-size:16.5px;line-height:125%;font-family:'Nimbus Roman No9 L';text-align:start;writing-mode:lr-tb;text-anchor:start;display:inline;fill:none;stroke:#000000;stroke-width:0.727273px;stroke-linecap:butt;stroke-linejoin:miter;stroke-opacity:1"
       inkscape:connector-curvature="0" />
    <rect
       inkscape:export-ydpi="300"
       inkscape:export-xdpi="300"
       inkscape:export-filename="C:\Documents and Settings\mhinkkan\Desktop\testi3.png"
       height="20"
       x="329.99994"
       y="420"
       width="20"
       id="rect33324"
       style="display:inline;fill:#ffffff;fill-opacity:1;fill-rule:nonzero;stroke:#000000;stroke-width:1.333;stroke-linecap:round;stroke-linejoin:miter;stroke-miterlimit:4;stroke-dasharray:none;stroke-dashoffset:0;stroke-opacity:1" />
    <rect
       inkscape:export-ydpi="300"
       inkscape:export-xdpi="300"
       inkscape:export-filename="C:\Documents and Settings\mhinkkan\Desktop\testi3.png"
       height="20"
       x="329.99994"
       y="455"
       width="20"
       id="rect33326"
       style="display:inline;fill:#ffffff;fill-opacity:1;fill-rule:nonzero;stroke:#000000;stroke-width:1.333;stroke-linecap:round;stroke-linejoin:miter;stroke-miterlimit:4;stroke-dasharray:none;stroke-dashoffset:0;stroke-opacity:1" />
    <rect
       inkscape:export-ydpi="300"
       inkscape:export-xdpi="300"
       inkscape:export-filename="C:\Documents and Settings\mhinkkan\Desktop\testi3.png"
       height="20"
       x="435"
       y="490"
       width="20"
       id="rect33328"
       style="display:inline;fill:#ffffff;fill-opacity:1;fill-rule:nonzero;stroke:#000000;stroke-width:1.333;stroke-linecap:round;stroke-linejoin:miter;stroke-miterlimit:4;stroke-dasharray:none;stroke-dashoffset:0;stroke-opacity:1" />
    <path
       style="display:inline;fill:none;stroke:#000000;stroke-width:1px;stroke-linecap:round;stroke-linejoin:miter;stroke-opacity:1;marker-start:url(#Arrow2Mstart);marker-mid:none"
       d="m 472.49997,465 h -20"
       sodipodi:nodetypes="cc"
       id="path33330"
       inkscape:export-filename="C:\Documents and Settings\mhinkkan\Desktop\testi.png"
       inkscape:export-xdpi="300"
       inkscape:export-ydpi="300"
       inkscape:connector-curvature="0" />
    <path
       sodipodi:nodetypes="cc"
       inkscape:connector-curvature="0"
       id="path33428"
       d="m 480,420 -2e-5,37.5"
       style="display:inline;fill:none;stroke:#000000;stroke-width:1px;stroke-linecap:butt;stroke-linejoin:miter;stroke-opacity:1;marker-start:none;marker-end:url(#Arrow2Mend-9)" />
    <ellipse
       transform="rotate(90)"
       id="ellipse33430"
       style="font-style:normal;font-variant:normal;font-weight:normal;font-stretch:normal;font-size:12px;line-height:125%;font-family:'Nimbus Roman No9 L';text-align:start;writing-mode:lr-tb;text-anchor:start;display:inline;fill:#ffffff;fill-opacity:1;stroke:#000000;stroke-width:1.333;stroke-linecap:round;stroke-linejoin:round;stroke-miterlimit:4;stroke-dasharray:none;stroke-dashoffset:0;stroke-opacity:1"
       cx="465"
       cy="-480"
       rx="7.5000033"
       ry="7.4999976" />
    <g
       id="g33436"
       transform="matrix(-0.7272727,0,0,-0.7272727,502.54543,261.61212)"
       style="font-style:normal;font-variant:normal;font-weight:normal;font-stretch:normal;font-size:16.5px;line-height:125%;font-family:'Nimbus Roman No9 L';text-align:start;writing-mode:lr-tb;text-anchor:start;display:inline">
      <path
         transform="translate(10.5,17.500004)"
         id="path33432"
         sodipodi:nodetypes="cc"
         d="m 9.5,-274.09586 v -10"
         style="font-style:normal;font-variant:normal;font-weight:normal;font-stretch:normal;font-size:16.5px;line-height:125%;font-family:'Nimbus Roman No9 L';text-align:start;writing-mode:lr-tb;text-anchor:start;fill:none;stroke:#000000;stroke-width:1px;stroke-linecap:butt;stroke-linejoin:miter;stroke-opacity:1"
         inkscape:connector-curvature="0" />
      <path
         transform="rotate(-90,26.5,-268.09586)"
         id="path33434"
         sodipodi:nodetypes="cc"
         d="m 19.999996,-279.59586 v 10"
         style="font-style:normal;font-variant:normal;font-weight:normal;font-stretch:normal;font-size:16.5px;line-height:125%;font-family:'Nimbus Roman No9 L';text-align:start;writing-mode:lr-tb;text-anchor:start;display:inline;fill:none;stroke:#000000;stroke-width:1px;stroke-linecap:butt;stroke-linejoin:miter;stroke-opacity:1"
         inkscape:connector-curvature="0" />
    </g>
    <path
       style="display:inline;fill:none;stroke:#000000;stroke-width:1px;stroke-linecap:round;stroke-linejoin:miter;stroke-opacity:1;marker-start:url(#Arrow2Mstart);marker-mid:none"
       d="m 509.99997,465 h -22.5"
       sodipodi:nodetypes="cc"
       id="path33438"
       inkscape:export-filename="C:\Documents and Settings\mhinkkan\Desktop\testi.png"
       inkscape:export-xdpi="300"
       inkscape:export-ydpi="300"
       inkscape:connector-curvature="0" />
    <g
       style="font-style:normal;font-variant:normal;font-weight:normal;font-stretch:normal;font-size:16.5px;line-height:125%;font-family:'Nimbus Roman No9 L';text-align:start;writing-mode:lr-tb;text-anchor:start;display:inline"
       transform="matrix(0,0.7272727,-0.7272727,0,276.61213,442.45454)"
       id="g33460">
      <path
         inkscape:connector-curvature="0"
         style="font-style:normal;font-variant:normal;font-weight:normal;font-stretch:normal;font-size:16.5px;line-height:125%;font-family:'Nimbus Roman No9 L';text-align:start;writing-mode:lr-tb;text-anchor:start;fill:none;stroke:#000000;stroke-width:1px;stroke-linecap:butt;stroke-linejoin:miter;stroke-opacity:1"
         d="m 9.5,-274.09586 v -10"
         sodipodi:nodetypes="cc"
         id="path33456"
         transform="translate(10.5,17.500004)" />
      <path
         inkscape:connector-curvature="0"
         style="font-style:normal;font-variant:normal;font-weight:normal;font-stretch:normal;font-size:16.5px;line-height:125%;font-family:'Nimbus Roman No9 L';text-align:start;writing-mode:lr-tb;text-anchor:start;display:inline;fill:none;stroke:#000000;stroke-width:1px;stroke-linecap:butt;stroke-linejoin:miter;stroke-opacity:1"
         d="m 19.999996,-279.59586 v 10"
         sodipodi:nodetypes="cc"
         id="path33458"
         transform="rotate(-90,26.5,-268.09586)" />
    </g>
    <path
       sodipodi:nodetypes="ccc"
       inkscape:connector-curvature="0"
       id="path33648"
       d="m 314.99997,465 -2e-5,35 h 15.00002"
       style="display:inline;fill:none;stroke:#000000;stroke-width:1px;stroke-linecap:butt;stroke-linejoin:miter;stroke-opacity:1;marker-start:url(#DotM);marker-end:url(#marker3394)" />
    <g
       id="g4319"
       transform="matrix(0.75,0,0,-0.75,116.24997,696.77164)"
       style="stroke-width:1.33333">
      <rect
         style="display:inline;fill:#ffffff;fill-opacity:1;fill-rule:nonzero;stroke:#000000;stroke-width:1.77733;stroke-linecap:round;stroke-linejoin:miter;stroke-miterlimit:4;stroke-dasharray:none;stroke-dashoffset:0;stroke-opacity:1"
         id="rect14546"
         width="20"
         y="252.36218"
         x="335"
         height="20"
         inkscape:export-filename="C:\Documents and Settings\mhinkkan\Desktop\testi3.png"
         inkscape:export-xdpi="300"
         inkscape:export-ydpi="300" />
      <path
         sodipodi:nodetypes="cc"
         inkscape:connector-curvature="0"
         id="path14552"
         d="m 340,257.36218 10,10"
         style="fill:none;stroke:#000000;stroke-width:0.8;stroke-linecap:butt;stroke-linejoin:miter;stroke-miterlimit:4;stroke-dasharray:none;stroke-opacity:1" />
      <path
         style="fill:none;stroke:#000000;stroke-width:0.8;stroke-linecap:butt;stroke-linejoin:miter;stroke-miterlimit:4;stroke-dasharray:none;stroke-opacity:1"
         d="m 350,257.36218 -10,10"
         id="path14558"
         inkscape:connector-curvature="0"
         sodipodi:nodetypes="cc" />
    </g>
    <rect
       inkscape:export-ydpi="300"
       inkscape:export-xdpi="300"
       inkscape:export-filename="C:\Documents and Settings\mhinkkan\Desktop\testi3.png"
       height="20"
       x="329.99997"
       y="490"
       width="20"
       id="rect35614"
       style="display:inline;fill:#ffffff;fill-opacity:1;fill-rule:nonzero;stroke:#000000;stroke-width:1.333;stroke-linecap:round;stroke-linejoin:miter;stroke-miterlimit:4;stroke-dasharray:none;stroke-dashoffset:0;stroke-opacity:1" />
    <g
       inkscape:label=""
       transform="translate(332.25216,494.69301)"
       id="g38041">
      <g
         clip-path="url(#clipPath5247)"
         id="g38030"
         transform="matrix(1.33333,0,0,1.33333,0.458333,-0.0110003)">
        <g
           fill="#000000"
           fill-opacity="1"
           id="g38028">
          <g
             id="g38026"
             transform="translate(0,6.2270002)">
            <path
               d="M 1.953125,-3.96875 0.5625,-3.859375 v 0.265625 c 0.671875,0 0.75,0.0625 0.75,0.515625 v 3.53125 c 0,0.265625 -0.03125,1.15625 -0.640625,1.15625 -0.03125,0 -0.265625,0 -0.46875,-0.109375 0.28125,-0.078125 0.28125,-0.328125 0.28125,-0.390625 0,-0.234375 -0.171875,-0.40625 -0.40625,-0.40625 -0.265625,0 -0.421875,0.171875 -0.421875,0.421875 0,0.46875 0.515625,0.71875 1.03125,0.71875 0.703125,0 1.265625,-0.59375 1.265625,-1.40625 z m 0,-1.5625 c 0,-0.265625 -0.21875,-0.484375 -0.484375,-0.484375 -0.265625,0 -0.484375,0.21875 -0.484375,0.484375 0,0.28125 0.21875,0.484375 0.484375,0.484375 0.265625,0 0.484375,-0.203125 0.484375,-0.484375 z m 0,0"
               id="path41" />
          </g>
        </g>
      </g>
      <g
         fill="#000000"
         fill-opacity="1"
         id="g29"
         transform="matrix(1.33333,0,0,1.33333,0.458333,-0.0110003)">
        <g
           id="use27"
           transform="translate(2.816,6.2270002)">
          <path
             d="m 2.875,-5.90625 c 0.03125,-0.109375 0.03125,-0.125 0.03125,-0.140625 0,-0.109375 -0.109375,-0.171875 -0.21875,-0.171875 -0.03125,0 -0.046875,0 -0.0625,0 l -1.140625,0.0625 c -0.125,0 -0.3125,0.015625 -0.3125,0.265625 0,0.03125 0,0.171875 0.234375,0.1875 0.0625,0 0.328125,0.015625 0.375,0.015625 L 0.5,-0.578125 c -0.03125,0.140625 -0.03125,0.21875 -0.03125,0.234375 0,0.234375 0.171875,0.421875 0.453125,0.421875 0.203125,0 0.421875,-0.15625 0.515625,-0.328125 0.046875,-0.078125 0.15625,-0.515625 0.21875,-0.78125 0.078125,-0.28125 0.140625,-0.578125 0.21875,-0.875 0.640625,0.078125 1,0.296875 1,0.65625 0,0.046875 0,0.078125 -0.015625,0.171875 -0.03125,0.09375 -0.046875,0.203125 -0.046875,0.21875 0,0.59375 0.59375,0.9375 1.171875,0.9375 0.9375,0 1.28125,-1.3125 1.28125,-1.40625 0,-0.140625 -0.15625,-0.140625 -0.234375,-0.140625 -0.1875,0 -0.203125,0.046875 -0.234375,0.1875 -0.0625,0.21875 -0.28125,1 -0.75,1 -0.140625,0 -0.234375,-0.09375 -0.234375,-0.375 0,-0.0625 0.015625,-0.21875 0.046875,-0.328125 0.015625,-0.09375 0.046875,-0.203125 0.046875,-0.3125 0,-0.78125 -0.984375,-0.921875 -1.5625,-0.96875 0.1875,-0.140625 0.390625,-0.3125 0.640625,-0.53125 C 3.4375,-3.21875 3.953125,-3.6875 4.46875,-3.6875 c 0.109375,0 0.1875,0.03125 0.21875,0.109375 -0.484375,0.046875 -0.640625,0.421875 -0.640625,0.65625 0,0.328125 0.25,0.453125 0.46875,0.453125 0.28125,0 0.6875,-0.21875 0.6875,-0.8125 C 5.203125,-3.65625 5,-4.046875 4.5,-4.046875 c -0.578125,0 -1.09375,0.40625 -1.65625,0.9375 -0.3125,0.296875 -0.5625,0.515625 -0.828125,0.65625 z m 0,0"
             id="path38032" />
        </g>
      </g>
      <g
         clip-path="url(#clipPath4144)"
         id="g35"
         transform="matrix(1.33333,0,0,1.33333,0.458333,-0.0110003)">
        <g
           fill="#000000"
           fill-opacity="1"
           id="g33">
          <g
             id="use31"
             transform="translate(8.5279999,7.223)">
            <path
               d="M 1.296875,-2.34375 H 2.28125 V -2.578125 H 1.296875 V -3.6875 h -0.21875 c 0,0.546875 -0.265625,1.125 -0.859375,1.15625 v 0.1875 H 0.8125 V -0.75 c 0,0.625 0.46875,0.8125 0.875,0.8125 0.40625,0 0.71875,-0.328125 0.71875,-0.8125 V -1.078125 H 2.171875 v 0.3125 c 0,0.421875 -0.21875,0.609375 -0.4375,0.609375 -0.4375,0 -0.4375,-0.484375 -0.4375,-0.59375 z m 0,0"
               id="path38036" />
          </g>
        </g>
      </g>
    </g>
    <path
       style="display:inline;fill:none;stroke:#000000;stroke-width:1px;stroke-linecap:butt;stroke-linejoin:miter;stroke-opacity:1;marker-start:none;marker-end:url(#Arrow2Mend-9)"
       d="m 374.99997,492.5 v -20"
       id="path38881"
       inkscape:connector-curvature="0"
       sodipodi:nodetypes="cc" />
    <g
       id="g38906"
       transform="rotate(-90,347.49999,452.50001)">
      <ellipse
         transform="rotate(90)"
         id="ellipse38892"
         style="font-style:normal;font-variant:normal;font-weight:normal;font-stretch:normal;font-size:12px;line-height:125%;font-family:'Nimbus Roman No9 L';text-align:start;writing-mode:lr-tb;text-anchor:start;display:inline;fill:#ffffff;fill-opacity:1;stroke:#000000;stroke-width:1.333;stroke-linecap:round;stroke-linejoin:round;stroke-miterlimit:4;stroke-dasharray:none;stroke-dashoffset:0;stroke-opacity:1"
         cx="480"
         cy="-335"
         rx="7.5000033"
         ry="7.4999976" />
      <g
         id="g38898"
         transform="matrix(-0.7272727,0,0,-0.7272727,357.54546,276.61212)"
         style="font-style:normal;font-variant:normal;font-weight:normal;font-stretch:normal;font-size:16.5px;line-height:125%;font-family:'Nimbus Roman No9 L';text-align:start;writing-mode:lr-tb;text-anchor:start;display:inline">
        <path
           transform="translate(10.5,17.500004)"
           id="path38894"
           sodipodi:nodetypes="cc"
           d="m 9.5,-274.09586 v -10"
           style="font-style:normal;font-variant:normal;font-weight:normal;font-stretch:normal;font-size:16.5px;line-height:125%;font-family:'Nimbus Roman No9 L';text-align:start;writing-mode:lr-tb;text-anchor:start;fill:none;stroke:#000000;stroke-width:1px;stroke-linecap:butt;stroke-linejoin:miter;stroke-opacity:1"
           inkscape:connector-curvature="0" />
        <path
           transform="rotate(-90,26.5,-268.09586)"
           id="path38896"
           sodipodi:nodetypes="cc"
           d="m 19.999996,-279.59586 v 10"
           style="font-style:normal;font-variant:normal;font-weight:normal;font-stretch:normal;font-size:16.5px;line-height:125%;font-family:'Nimbus Roman No9 L';text-align:start;writing-mode:lr-tb;text-anchor:start;display:inline;fill:none;stroke:#000000;stroke-width:1px;stroke-linecap:butt;stroke-linejoin:miter;stroke-opacity:1"
           inkscape:connector-curvature="0" />
      </g>
      <g
         style="font-style:normal;font-variant:normal;font-weight:normal;font-stretch:normal;font-size:16.5px;line-height:125%;font-family:'Nimbus Roman No9 L';text-align:start;writing-mode:lr-tb;text-anchor:start;display:inline"
         transform="matrix(0,0.7272727,-0.7272727,0,131.61216,457.45454)"
         id="g38904">
        <path
           inkscape:connector-curvature="0"
           style="font-style:normal;font-variant:normal;font-weight:normal;font-stretch:normal;font-size:16.5px;line-height:125%;font-family:'Nimbus Roman No9 L';text-align:start;writing-mode:lr-tb;text-anchor:start;fill:none;stroke:#000000;stroke-width:1px;stroke-linecap:butt;stroke-linejoin:miter;stroke-opacity:1"
           d="m 9.5,-274.09586 v -10"
           sodipodi:nodetypes="cc"
           id="path38900"
           transform="translate(10.5,17.500004)" />
        <path
           inkscape:connector-curvature="0"
           style="font-style:normal;font-variant:normal;font-weight:normal;font-stretch:normal;font-size:16.5px;line-height:125%;font-family:'Nimbus Roman No9 L';text-align:start;writing-mode:lr-tb;text-anchor:start;display:inline;fill:none;stroke:#000000;stroke-width:1px;stroke-linecap:butt;stroke-linejoin:miter;stroke-opacity:1"
           d="m 19.999996,-279.59586 v 10"
           sodipodi:nodetypes="cc"
           id="path38902"
           transform="rotate(-90,26.5,-268.09586)" />
      </g>
    </g>
    <g
       inkscape:label=""
       transform="translate(364.16666,539.71051)"
       id="g40786">
      <g
         clip-path="url(#clipPath3008)"
         id="g40784"
         transform="matrix(1.33333,0,0,1.33333,-0.166667,0.143667)">
        <g
           fill="#000000"
           fill-opacity="1"
           id="g40782">
          <g
             id="g40780"
             transform="translate(0,3.8610001)">
            <path
               d="m 5.578125,-3.3125 c 0,-0.265625 -0.09375,-0.65625 -0.40625,-0.65625 -0.234375,0 -0.46875,0.234375 -0.46875,0.453125 0,0.140625 0.046875,0.15625 0.125,0.234375 C 4.9375,-3.171875 5.15625,-2.9375 5.15625,-2.5 c 0,0.546875 -0.578125,1.9375 -1.484375,1.9375 -0.5,0 -0.796875,-0.359375 -0.875,-0.734375 0,-0.125 0.3125,-0.765625 0.3125,-1.09375 0,-0.125 -0.0625,-0.234375 -0.203125,-0.234375 -0.078125,0 -0.15625,0.046875 -0.203125,0.109375 -0.171875,0.203125 -0.25,0.9375 -0.25,1.15625 -0.296875,0.421875 -0.671875,0.78125 -1.21875,0.78125 -0.578125,0 -0.78125,-0.484375 -0.78125,-1 0,-0.6875 0.265625,-1.28125 0.84375,-2.03125 C 1.34375,-3.6875 1.34375,-3.71875 1.34375,-3.765625 c 0,-0.078125 -0.078125,-0.15625 -0.15625,-0.15625 -0.09375,0 -0.171875,0.078125 -0.203125,0.140625 -0.5,0.703125 -0.859375,1.6875 -0.859375,2.546875 0,0.703125 0.25,1.328125 1.03125,1.328125 0.5625,0 1.078125,-0.484375 1.34375,-0.890625 0.125,0.359375 0.328125,0.890625 1.046875,0.890625 0.703125,0 1.15625,-0.5625 1.5,-1.265625 C 5.203125,-1.53125 5.3125,-1.90625 5.40625,-2.28125 5.5,-2.671875 5.578125,-3.046875 5.578125,-3.3125 Z m 0,0"
               id="path40778" />
          </g>
        </g>
      </g>
    </g>
    <g
       inkscape:label=""
       transform="translate(439.02535,494.41868)"
       id="g16251">
      <g
         fill="#000000"
         fill-opacity="1"
         id="g16241"
         transform="matrix(1.33333,0,0,1.33333,-0.625,-0.00966644)">
        <g
           id="g16239"
           transform="translate(0,6.2259998)">
          <path
             d="m 2.875,-5.90625 c 0.03125,-0.109375 0.03125,-0.125 0.03125,-0.140625 0,-0.109375 -0.109375,-0.171875 -0.21875,-0.171875 -0.03125,0 -0.046875,0 -0.0625,0 l -1.140625,0.0625 c -0.125,0 -0.3125,0.015625 -0.3125,0.265625 0,0.03125 0,0.171875 0.234375,0.1875 0.0625,0 0.328125,0.015625 0.375,0.015625 L 0.5,-0.578125 c -0.03125,0.140625 -0.03125,0.21875 -0.03125,0.234375 0,0.234375 0.171875,0.421875 0.453125,0.421875 0.203125,0 0.421875,-0.15625 0.515625,-0.328125 0.046875,-0.078125 0.15625,-0.515625 0.21875,-0.78125 0.078125,-0.28125 0.140625,-0.578125 0.21875,-0.875 0.640625,0.078125 1,0.296875 1,0.65625 0,0.046875 0,0.078125 -0.015625,0.171875 -0.03125,0.09375 -0.046875,0.203125 -0.046875,0.21875 0,0.59375 0.59375,0.9375 1.171875,0.9375 0.9375,0 1.28125,-1.3125 1.28125,-1.40625 0,-0.140625 -0.15625,-0.140625 -0.234375,-0.140625 -0.1875,0 -0.203125,0.046875 -0.234375,0.1875 -0.0625,0.21875 -0.28125,1 -0.75,1 -0.140625,0 -0.234375,-0.09375 -0.234375,-0.375 0,-0.0625 0.015625,-0.21875 0.046875,-0.328125 0.015625,-0.09375 0.046875,-0.203125 0.046875,-0.3125 0,-0.78125 -0.984375,-0.921875 -1.5625,-0.96875 0.1875,-0.140625 0.390625,-0.3125 0.640625,-0.53125 C 3.4375,-3.21875 3.953125,-3.6875 4.46875,-3.6875 c 0.109375,0 0.1875,0.03125 0.21875,0.109375 -0.484375,0.046875 -0.640625,0.421875 -0.640625,0.65625 0,0.328125 0.25,0.453125 0.46875,0.453125 0.28125,0 0.6875,-0.21875 0.6875,-0.8125 C 5.203125,-3.65625 5,-4.046875 4.5,-4.046875 c -0.578125,0 -1.09375,0.40625 -1.65625,0.9375 -0.3125,0.296875 -0.5625,0.515625 -0.828125,0.65625 z m 0,0"
             id="path16237" />
        </g>
      </g>
      <g
         clip-path="url(#clipPath9233)"
         id="g16249"
         transform="matrix(1.33333,0,0,1.33333,-0.625,-0.00966644)">
        <g
           fill="#000000"
           fill-opacity="1"
           id="g16247">
          <g
             id="g16245"
             transform="translate(5.7119999,7.223)">
            <path
               d="m 1.796875,0.921875 c -0.421875,0 -0.484375,0 -0.484375,-0.25 V -0.28125 C 1.5625,-0.046875 1.84375,0.0625 2.171875,0.0625 3,0.0625 3.71875,-0.53125 3.71875,-1.296875 c 0,-0.71875 -0.625,-1.34375 -1.453125,-1.34375 -0.546875,0 -0.890625,0.265625 -0.96875,0.359375 v -0.359375 l -0.953125,0.0625 v 0.234375 c 0.40625,0 0.46875,0 0.46875,0.28125 v 2.734375 c 0,0.25 -0.046875,0.25 -0.46875,0.25 V 1.15625 c 0.046875,0 0.453125,-0.015625 0.71875,-0.015625 0.265625,0 0.671875,0.015625 0.734375,0.015625 z M 1.3125,-1.984375 c 0.203125,-0.28125 0.53125,-0.4375 0.890625,-0.4375 0.546875,0 0.9375,0.515625 0.9375,1.125 0,0.671875 -0.46875,1.171875 -1,1.171875 -0.46875,0 -0.734375,-0.328125 -0.828125,-0.515625 z m 0,0"
               id="path16243" />
          </g>
        </g>
      </g>
    </g>
    <g
       inkscape:label=""
       transform="translate(406.92709,453.10203)"
       id="g41985">
      <g
         fill="#000000"
         fill-opacity="1"
         id="g41973"
         transform="matrix(1.33333,0,0,1.33333,-1.59375,0.254333)">
        <g
           id="g41971"
           transform="translate(1.196,5.7779999)">
          <path
             d="m 2.71875,-5.734375 c 0,-0.21875 0,-0.234375 -0.21875,-0.234375 -0.5625,0.5625 -1.390625,0.5625 -1.671875,0.5625 V -5.125 c 0.171875,0 0.71875,0 1.203125,-0.234375 v 4.640625 c 0,0.328125 -0.015625,0.4375 -0.859375,0.4375 H 0.890625 V 0 c 0.3125,-0.03125 1.125,-0.03125 1.484375,-0.03125 0.375,0 1.171875,0 1.5,0.03125 V -0.28125 H 3.59375 c -0.84375,0 -0.875,-0.109375 -0.875,-0.4375 z m 0,0"
             id="path41969" />
        </g>
      </g>
      <path
         fill="none"
         stroke-width="0.379"
         stroke-linecap="butt"
         stroke-linejoin="miter"
         stroke="#000000"
         stroke-opacity="1"
         stroke-miterlimit="10"
         d="M 0,9.5266876 H 4.6093755"
         id="path41975"
         transform="scale(1.33333)" />
      <g
         clip-path="url(#clipPath9866)"
         id="g41983"
         transform="matrix(1.33333,0,0,1.33333,-1.59375,0.254333)">
        <g
           fill="#000000"
           fill-opacity="1"
           id="g41981">
          <g
             id="g41979"
             transform="translate(1.353,17.658001)">
            <path
               d="m 3.5625,-3.359375 c -0.390625,0.046875 -0.421875,0.34375 -0.421875,0.40625 0,0.15625 0.109375,0.265625 0.28125,0.265625 0.25,0 0.421875,-0.203125 0.421875,-0.5 0,-0.4375 -0.4375,-0.78125 -1.09375,-0.78125 -1.203125,0 -1.546875,0.90625 -1.546875,1.3125 0,0.34375 0.171875,0.515625 0.28125,0.625 0.1875,0.171875 0.421875,0.234375 0.75,0.296875 0.40625,0.078125 0.484375,0.09375 0.65625,0.203125 0.140625,0.109375 0.21875,0.25 0.21875,0.453125 0,0.21875 -0.21875,0.953125 -1.296875,0.953125 -0.203125,0 -0.828125,-0.03125 -1.03125,-0.4375 0.453125,0 0.53125,-0.359375 0.53125,-0.484375 C 1.3125,-1.3125 1.078125,-1.375 0.984375,-1.375 0.8125,-1.375 0.46875,-1.25 0.46875,-0.78125 c 0,0.5625 0.578125,0.875 1.328125,0.875 1.515625,0 1.84375,-1.09375 1.84375,-1.484375 0,-0.34375 -0.1875,-0.5625 -0.296875,-0.65625 -0.234375,-0.25 -0.515625,-0.296875 -0.828125,-0.359375 -0.109375,-0.03125 -0.3125,-0.0625 -0.34375,-0.078125 -0.28125,-0.0625 -0.453125,-0.234375 -0.453125,-0.46875 0,-0.09375 0.0625,-0.390625 0.3125,-0.578125 0.25,-0.203125 0.59375,-0.203125 0.71875,-0.203125 0.3125,0 0.671875,0.09375 0.8125,0.375 z m 0,0"
               id="path41977" />
          </g>
        </g>
      </g>
    </g>
    <g
       inkscape:label=""
       transform="translate(334.90029,425.19041)"
       id="g18381">
      <g
         fill="#000000"
         fill-opacity="1"
         id="g18371"
         transform="matrix(1.33333,0,0,1.33333,-0.625,-0.0110003)">
        <g
           id="g18369"
           transform="translate(0,6.2270002)">
          <path
             d="m 2.875,-5.90625 c 0.03125,-0.109375 0.03125,-0.125 0.03125,-0.140625 0,-0.109375 -0.109375,-0.171875 -0.21875,-0.171875 -0.03125,0 -0.046875,0 -0.0625,0 l -1.140625,0.0625 c -0.125,0 -0.3125,0.015625 -0.3125,0.265625 0,0.03125 0,0.171875 0.234375,0.1875 0.0625,0 0.328125,0.015625 0.375,0.015625 L 0.5,-0.578125 c -0.03125,0.140625 -0.03125,0.21875 -0.03125,0.234375 0,0.234375 0.171875,0.421875 0.453125,0.421875 0.203125,0 0.421875,-0.15625 0.515625,-0.328125 0.046875,-0.078125 0.15625,-0.515625 0.21875,-0.78125 0.078125,-0.28125 0.140625,-0.578125 0.21875,-0.875 0.640625,0.078125 1,0.296875 1,0.65625 0,0.046875 0,0.078125 -0.015625,0.171875 -0.03125,0.09375 -0.046875,0.203125 -0.046875,0.21875 0,0.59375 0.59375,0.9375 1.171875,0.9375 0.9375,0 1.28125,-1.3125 1.28125,-1.40625 0,-0.140625 -0.15625,-0.140625 -0.234375,-0.140625 -0.1875,0 -0.203125,0.046875 -0.234375,0.1875 -0.0625,0.21875 -0.28125,1 -0.75,1 -0.140625,0 -0.234375,-0.09375 -0.234375,-0.375 0,-0.0625 0.015625,-0.21875 0.046875,-0.328125 0.015625,-0.09375 0.046875,-0.203125 0.046875,-0.3125 0,-0.78125 -0.984375,-0.921875 -1.5625,-0.96875 0.1875,-0.140625 0.390625,-0.3125 0.640625,-0.53125 C 3.4375,-3.21875 3.953125,-3.6875 4.46875,-3.6875 c 0.109375,0 0.1875,0.03125 0.21875,0.109375 -0.484375,0.046875 -0.640625,0.421875 -0.640625,0.65625 0,0.328125 0.25,0.453125 0.46875,0.453125 0.28125,0 0.6875,-0.21875 0.6875,-0.8125 C 5.203125,-3.65625 5,-4.046875 4.5,-4.046875 c -0.578125,0 -1.09375,0.40625 -1.65625,0.9375 -0.3125,0.296875 -0.5625,0.515625 -0.828125,0.65625 z m 0,0"
             id="path18367" />
        </g>
      </g>
      <g
         clip-path="url(#clipPath4920)"
         id="g18379"
         transform="matrix(1.33333,0,0,1.33333,-0.625,-0.0110003)">
        <g
           fill="#000000"
           fill-opacity="1"
           id="g18377">
          <g
             id="g18375"
             transform="translate(5.7119999,7.223)">
            <path
               d="M 1.296875,-2.34375 H 2.28125 V -2.578125 H 1.296875 V -3.6875 h -0.21875 c 0,0.546875 -0.265625,1.125 -0.859375,1.15625 v 0.1875 H 0.8125 V -0.75 c 0,0.625 0.46875,0.8125 0.875,0.8125 0.40625,0 0.71875,-0.328125 0.71875,-0.8125 V -1.078125 H 2.171875 v 0.3125 c 0,0.421875 -0.21875,0.609375 -0.4375,0.609375 -0.4375,0 -0.4375,-0.484375 -0.4375,-0.59375 z m 0,0"
               id="path18373" />
          </g>
        </g>
      </g>
    </g>
    <g
       inkscape:label=""
       transform="translate(335.33779,460.19041)"
       id="g46026">
      <g
         fill="#000000"
         fill-opacity="1"
         id="g46016"
         transform="matrix(1.33333,0,0,1.33333,-0.625,-0.0110003)">
        <g
           id="g46014"
           transform="translate(0,6.2270002)">
          <path
             d="m 2.875,-5.90625 c 0.03125,-0.109375 0.03125,-0.125 0.03125,-0.140625 0,-0.109375 -0.109375,-0.171875 -0.21875,-0.171875 -0.03125,0 -0.046875,0 -0.0625,0 l -1.140625,0.0625 c -0.125,0 -0.3125,0.015625 -0.3125,0.265625 0,0.03125 0,0.171875 0.234375,0.1875 0.0625,0 0.328125,0.015625 0.375,0.015625 L 0.5,-0.578125 c -0.03125,0.140625 -0.03125,0.21875 -0.03125,0.234375 0,0.234375 0.171875,0.421875 0.453125,0.421875 0.203125,0 0.421875,-0.15625 0.515625,-0.328125 0.046875,-0.078125 0.15625,-0.515625 0.21875,-0.78125 0.078125,-0.28125 0.140625,-0.578125 0.21875,-0.875 0.640625,0.078125 1,0.296875 1,0.65625 0,0.046875 0,0.078125 -0.015625,0.171875 -0.03125,0.09375 -0.046875,0.203125 -0.046875,0.21875 0,0.59375 0.59375,0.9375 1.171875,0.9375 0.9375,0 1.28125,-1.3125 1.28125,-1.40625 0,-0.140625 -0.15625,-0.140625 -0.234375,-0.140625 -0.1875,0 -0.203125,0.046875 -0.234375,0.1875 -0.0625,0.21875 -0.28125,1 -0.75,1 -0.140625,0 -0.234375,-0.09375 -0.234375,-0.375 0,-0.0625 0.015625,-0.21875 0.046875,-0.328125 0.015625,-0.09375 0.046875,-0.203125 0.046875,-0.3125 0,-0.78125 -0.984375,-0.921875 -1.5625,-0.96875 0.1875,-0.140625 0.390625,-0.3125 0.640625,-0.53125 C 3.4375,-3.21875 3.953125,-3.6875 4.46875,-3.6875 c 0.109375,0 0.1875,0.03125 0.21875,0.109375 -0.484375,0.046875 -0.640625,0.421875 -0.640625,0.65625 0,0.328125 0.25,0.453125 0.46875,0.453125 0.28125,0 0.6875,-0.21875 0.6875,-0.8125 C 5.203125,-3.65625 5,-4.046875 4.5,-4.046875 c -0.578125,0 -1.09375,0.40625 -1.65625,0.9375 -0.3125,0.296875 -0.5625,0.515625 -0.828125,0.65625 z m 0,0"
             id="path46012" />
        </g>
      </g>
      <g
         clip-path="url(#clipPath4299)"
         id="g46024"
         transform="matrix(1.33333,0,0,1.33333,-0.625,-0.0110003)">
        <g
           fill="#000000"
           fill-opacity="1"
           id="g46022">
          <g
             id="g46020"
             transform="translate(5.7119999,7.223)">
            <path
               d="m 1.359375,-3.6875 c 0,-0.171875 -0.15625,-0.359375 -0.359375,-0.359375 -0.1875,0 -0.359375,0.140625 -0.359375,0.359375 0,0.21875 0.171875,0.359375 0.359375,0.359375 0.203125,0 0.359375,-0.171875 0.359375,-0.359375 z M 0.40625,-2.578125 v 0.234375 c 0.390625,0 0.453125,0.046875 0.453125,0.34375 v 1.515625 c 0,0.25 -0.0625,0.25 -0.46875,0.25 V 0 c 0.171875,-0.015625 0.625,-0.03125 0.6875,-0.03125 0.0625,0 0.515625,0.015625 0.671875,0.03125 v -0.234375 c -0.375,0 -0.421875,0 -0.421875,-0.25 v -2.15625 z m 0,0"
               id="path46018" />
          </g>
        </g>
      </g>
    </g>
  </g>
</svg>
