<?xml version="1.0" encoding="UTF-8" standalone="no"?>
<!-- Created with Inkscape (http://www.inkscape.org/) -->

<svg
   width="480"
   height="100"
   viewBox="0 0 127 26.45835"
   version="1.1"
   id="svg1"
   inkscape:version="1.3.2 (091e20e, 2023-11-25)"
   sodipodi:docname="DC_bus_dynamics.svg"
   xmlns:inkscape="http://www.inkscape.org/namespaces/inkscape"
   xmlns:sodipodi="http://sodipodi.sourceforge.net/DTD/sodipodi-0.dtd"
   xmlns="http://www.w3.org/2000/svg"
   xmlns:svg="http://www.w3.org/2000/svg">
  <sodipodi:namedview
     id="namedview1"
     pagecolor="#ffffff"
     bordercolor="#000000"
     borderopacity="0.25"
     inkscape:showpageshadow="2"
     inkscape:pageopacity="0.0"
     inkscape:pagecheckerboard="0"
     inkscape:deskcolor="#d1d1d1"
     inkscape:document-units="mm"
     inkscape:zoom="1.8856557"
     inkscape:cx="233.07542"
     inkscape:cy="81.934362"
     inkscape:window-width="1312"
     inkscape:window-height="542"
     inkscape:window-x="0"
     inkscape:window-y="38"
     inkscape:window-maximized="0"
     inkscape:current-layer="layer1" />
  <defs
     id="defs1">
    <clipPath
       clipPathUnits="userSpaceOnUse"
       id="clipPath86">
      <path
         d="M 0,0 H 120.55663 V 156.54639 H 0 Z"
         transform="matrix(1,0,0,-1,-2.5000002e-6,156.54639)"
         id="path86" />
    </clipPath>
    <clipPath
       clipPathUnits="userSpaceOnUse"
       id="clipPath87">
      <path
         d="M 0,0 H 120.55663 V 156.54639 H 0 Z"
         transform="matrix(1,0,0,-1,-2.5000002e-6,156.54639)"
         id="path87" />
    </clipPath>
    <clipPath
       clipPathUnits="userSpaceOnUse"
       id="clipPath88">
      <path
         d="M 0,0 H 120.55663 V 156.54639 H 0 Z"
         transform="matrix(1,0,0,-1,-2.5000002e-6,156.54639)"
         id="path88" />
    </clipPath>
    <clipPath
       clipPathUnits="userSpaceOnUse"
       id="clipPath89">
      <path
         d="M 0,0 H 120.55663 V 156.54639 H 0 Z"
         transform="matrix(0,1,1,0,-156.54639,-2.5000002e-6)"
         id="path89" />
    </clipPath>
    <clipPath
       clipPathUnits="userSpaceOnUse"
       id="clipPath90">
      <path
         d="M 0,0 H 120.55663 V 156.54639 H 0 Z"
         transform="matrix(1,0,0,-1,-2.5000002e-6,156.54639)"
         id="path90" />
    </clipPath>
    <clipPath
       clipPathUnits="userSpaceOnUse"
       id="clipPath91">
      <path
         d="M 0,0 H 120.55663 V 156.54639 H 0 Z"
         transform="matrix(1,0,0,-1,-2.5000002e-6,156.54639)"
         id="path91" />
    </clipPath>
    <clipPath
       clipPathUnits="userSpaceOnUse"
       id="clipPath92">
      <path
         d="M 0,0 H 120.55663 V 156.54639 H 0 Z"
         transform="matrix(1,0,0,-1,-2.5000002e-6,156.54639)"
         id="path92" />
    </clipPath>
    <clipPath
       clipPathUnits="userSpaceOnUse"
       id="clipPath93">
      <path
         d="M 0,0 H 120.55663 V 156.54639 H 0 Z"
         transform="matrix(0,-1,-1,0,156.54639,2.5000002e-6)"
         id="path93" />
    </clipPath>
    <clipPath
       clipPathUnits="userSpaceOnUse"
       id="clipPath94">
      <path
         d="M 0,0 H 120.55663 V 156.54639 H 0 Z"
         transform="matrix(1,0,0,-1,-2.5000002e-6,156.54639)"
         id="path94" />
    </clipPath>
    <clipPath
       clipPathUnits="userSpaceOnUse"
       id="clipPath95">
      <path
         d="M 0,0 H 120.55663 V 156.54639 H 0 Z"
         transform="matrix(0,-1,-1,0,156.54639,2.5000002e-6)"
         id="path95" />
    </clipPath>
    <clipPath
       clipPathUnits="userSpaceOnUse"
       id="clipPath96">
      <path
         d="M 0,0 H 120.55663 V 156.54639 H 0 Z"
         transform="matrix(1,0,0,-1,-2.5000002e-6,156.54639)"
         id="path96" />
    </clipPath>
    <clipPath
       clipPathUnits="userSpaceOnUse"
       id="clipPath97">
      <path
         d="M 0,0 H 120.55663 V 156.54639 H 0 Z"
         transform="matrix(1,0,0,-1,-2.5000002e-6,156.54639)"
         id="path97" />
    </clipPath>
    <clipPath
       clipPathUnits="userSpaceOnUse"
       id="clipPath98">
      <path
         d="M 0,0 H 120.55663 V 156.54639 H 0 Z"
         transform="matrix(1,0,0,-1,-2.5000002e-6,156.54639)"
         id="path98" />
    </clipPath>
    <clipPath
       clipPathUnits="userSpaceOnUse"
       id="clipPath99">
      <path
         d="M 0,0 H 120.55663 V 156.54639 H 0 Z"
         transform="matrix(1,0,0,-1,-2.5000002e-6,156.54639)"
         id="path99" />
    </clipPath>
    <clipPath
       clipPathUnits="userSpaceOnUse"
       id="clipPath100">
      <path
         d="M 0,0 H 120.55663 V 156.54639 H 0 Z"
         transform="matrix(1,0,0,-1,-2.5000002e-6,156.54639)"
         id="path100" />
    </clipPath>
    <clipPath
       clipPathUnits="userSpaceOnUse"
       id="clipPath101">
      <path
         d="M 0,0 H 120.55663 V 156.54639 H 0 Z"
         transform="matrix(1,0,0,-1,-2.5000002e-6,156.54639)"
         id="path101" />
    </clipPath>
    <clipPath
       clipPathUnits="userSpaceOnUse"
       id="clipPath102">
      <path
         d="M 0,0 H 120.55663 V 156.54639 H 0 Z"
         transform="matrix(1,0,0,-1,-2.5000002e-6,156.54639)"
         id="path102" />
    </clipPath>
    <clipPath
       clipPathUnits="userSpaceOnUse"
       id="clipPath103">
      <path
         d="M 0,0 H 120.55663 V 156.54639 H 0 Z"
         transform="matrix(1,0,0,-1,-2.5000002e-6,156.54639)"
         id="path103" />
    </clipPath>
    <clipPath
       clipPathUnits="userSpaceOnUse"
       id="clipPath104">
      <path
         d="M 0,0 H 120.55663 V 156.54639 H 0 Z"
         transform="matrix(1,0,0,-1,-2.5000002e-6,156.54639)"
         id="path104" />
    </clipPath>
    <clipPath
       clipPathUnits="userSpaceOnUse"
       id="clipPath105">
      <path
         d="M 0,0 H 120.55663 V 156.54639 H 0 Z"
         transform="matrix(1,0,0,-1,-2.5000002e-6,156.54639)"
         id="path105" />
    </clipPath>
    <clipPath
       clipPathUnits="userSpaceOnUse"
       id="clipPath77">
      <path
         d="M 0,0 H 120.55663 V 156.54639 H 0 Z"
         transform="matrix(1,0,0,-1,-2.5000002e-6,156.54639)"
         id="path77" />
    </clipPath>
    <clipPath
       clipPathUnits="userSpaceOnUse"
       id="clipPath78">
      <path
         d="M 0,0 H 120.55663 V 156.54639 H 0 Z"
         transform="matrix(1,0,0,-1,-2.5000002e-6,156.54639)"
         id="path78" />
    </clipPath>
    <clipPath
       clipPathUnits="userSpaceOnUse"
       id="clipPath79">
      <path
         d="M 0,0 H 120.55663 V 156.54639 H 0 Z"
         transform="matrix(-1,0,0,1,2.5000002e-6,-156.54639)"
         id="path79" />
    </clipPath>
  </defs>
  <g
     inkscape:label="Layer 1"
     inkscape:groupmode="layer"
     id="layer1">
    <g
       id="g82"
       transform="matrix(0.26458333,0,0,0.26458333,-64.27506,-14.604664)"
       style="opacity:1">
      <path
         d="m 66.836,17.172 h 45 v 45 h -45 z"
         style="fill:#ebebeb;fill-opacity:1;fill-rule:nonzero;stroke:none"
         transform="matrix(1.3333333,0,0,1.3333333,393.33067,67.186151)"
         clip-path="url(#clipPath77)"
         id="path80" />
      <path
         d="m 33.832,20.93 h -3.75"
         style="fill:none;stroke:#000000;stroke-width:0.75;stroke-linecap:butt;stroke-linejoin:miter;stroke-miterlimit:4;stroke-dasharray:none;stroke-opacity:1"
         transform="matrix(1.3333333,0,0,1.3333333,393.33067,67.186151)"
         clip-path="url(#clipPath78)"
         id="path81" />
      <path
         d="m -29.906,-19.117 -4.918,-1.809 4.918,-1.804 c -0.785,1.066 -0.782,2.527 0,3.613 z"
         style="fill:#000000;fill-opacity:1;fill-rule:evenodd;stroke:#000000;stroke-width:0.28125;stroke-linecap:butt;stroke-linejoin:round;stroke-miterlimit:4;stroke-dasharray:none;stroke-opacity:1"
         transform="matrix(-1.3333333,0,0,-1.3333333,393.33067,67.186151)"
         clip-path="url(#clipPath79)"
         id="path82" />
    </g>
  </g>
  <g
     id="g125"
     transform="matrix(0.26458333,0,0,0.26458333,-63.760179,-14.614349)">
    <path
       d="m 21.836,20.922 h 63.75"
       style="fill:none;stroke:#000000;stroke-width:0.75;stroke-linecap:round;stroke-linejoin:miter;stroke-miterlimit:4;stroke-dasharray:none;stroke-opacity:1"
       transform="matrix(1.3333333,0,0,1.3333333,393.33067,67.186151)"
       clip-path="url(#clipPath86)"
       id="path106" />
    <path
       d="m 21.836,58.422 h 63.75"
       style="fill:none;stroke:#000000;stroke-width:0.75;stroke-linecap:round;stroke-linejoin:miter;stroke-miterlimit:4;stroke-dasharray:none;stroke-opacity:1"
       transform="matrix(1.3333333,0,0,1.3333333,393.33067,67.186151)"
       clip-path="url(#clipPath87)"
       id="path107" />
    <path
       d="M 39.836,35.574 V 30.117"
       style="fill:none;stroke:#000000;stroke-width:0.545455;stroke-linecap:butt;stroke-linejoin:miter;stroke-miterlimit:4;stroke-dasharray:none;stroke-opacity:1"
       transform="matrix(1.3333333,0,0,1.3333333,393.33067,67.186151)"
       clip-path="url(#clipPath88)"
       id="path108" />
    <path
       d="m -32.844,37.109 v 5.453"
       style="fill:none;stroke:#000000;stroke-width:0.545455;stroke-linecap:butt;stroke-linejoin:miter;stroke-miterlimit:4;stroke-dasharray:none;stroke-opacity:1"
       transform="matrix(0,-1.3333333,1.3333333,0,393.33067,67.186151)"
       clip-path="url(#clipPath89)"
       id="path109" />
    <path
       d="m 48.086,37.719 h -7.5"
       style="fill:none;stroke:#000000;stroke-width:1.9125;stroke-linecap:square;stroke-linejoin:miter;stroke-miterlimit:4;stroke-dasharray:none;stroke-opacity:1"
       transform="matrix(1.3333333,0,0,1.3333333,393.33067,67.186151)"
       clip-path="url(#clipPath90)"
       id="path110" />
    <path
       d="m 48.086,41.469 h -7.5"
       style="fill:none;stroke:#000000;stroke-width:1.9125;stroke-linecap:square;stroke-linejoin:miter;stroke-miterlimit:4;stroke-dasharray:none;stroke-opacity:1"
       transform="matrix(1.3333333,0,0,1.3333333,393.33067,67.186151)"
       clip-path="url(#clipPath91)"
       id="path111" />
    <path
       d="M 44.336,41.469 V 58.344"
       style="fill:none;stroke:#000000;stroke-width:0.75;stroke-linecap:square;stroke-linejoin:miter;stroke-miterlimit:4;stroke-dasharray:none;stroke-opacity:1"
       transform="matrix(1.3333333,0,0,1.3333333,393.33067,67.186151)"
       clip-path="url(#clipPath92)"
       id="path112" />
    <path
       d="m 59.816,-44.336 c 0,0.828 -0.671,1.5 -1.5,1.5 -0.828,0 -1.5,-0.672 -1.5,-1.5 0,-0.828 0.672,-1.5 1.5,-1.5 0.829,0 1.5,0.672 1.5,1.5 z"
       style="fill:#000000;fill-opacity:1;fill-rule:evenodd;stroke:#000000;stroke-width:0.4;stroke-linecap:butt;stroke-linejoin:miter;stroke-miterlimit:4;stroke-dasharray:none;stroke-opacity:1"
       transform="matrix(0,1.3333333,-1.3333333,0,393.33067,67.186151)"
       clip-path="url(#clipPath93)"
       id="path113" />
    <path
       d="m 44.336,20.844 v 16.5"
       style="fill:none;stroke:#000000;stroke-width:0.75;stroke-linecap:square;stroke-linejoin:miter;stroke-miterlimit:4;stroke-dasharray:none;stroke-opacity:1"
       transform="matrix(1.3333333,0,0,1.3333333,393.33067,67.186151)"
       clip-path="url(#clipPath94)"
       id="path114" />
    <path
       d="m 22.316,-44.336 c 0,0.828 -0.671,1.5 -1.5,1.5 -0.828,0 -1.5,-0.672 -1.5,-1.5 0,-0.828 0.672,-1.5 1.5,-1.5 0.829,0 1.5,0.672 1.5,1.5 z"
       style="fill:#000000;fill-opacity:1;fill-rule:evenodd;stroke:#000000;stroke-width:0.4;stroke-linecap:butt;stroke-linejoin:miter;stroke-miterlimit:4;stroke-dasharray:none;stroke-opacity:1"
       transform="matrix(0,1.3333333,-1.3333333,0,393.33067,67.186151)"
       clip-path="url(#clipPath95)"
       id="path115" />
    <path
       d="m 23.336,20.922 c 0,0.832 -0.672,1.5 -1.5,1.5 -0.828,0 -1.5,-0.668 -1.5,-1.5 0,-0.828 0.672,-1.5 1.5,-1.5 0.828,0 1.5,0.672 1.5,1.5 z"
       style="fill:#ffffff;fill-opacity:1;fill-rule:nonzero;stroke:#000000;stroke-width:0.28125;stroke-linecap:butt;stroke-linejoin:miter;stroke-miterlimit:4;stroke-dasharray:none;stroke-opacity:1"
       transform="matrix(1.3333333,0,0,1.3333333,393.33067,67.186151)"
       clip-path="url(#clipPath96)"
       id="path116" />
    <path
       d="m 23.336,58.422 c 0,0.832 -0.672,1.5 -1.5,1.5 -0.828,0 -1.5,-0.668 -1.5,-1.5 0,-0.828 0.672,-1.5 1.5,-1.5 0.828,0 1.5,0.672 1.5,1.5 z"
       style="fill:#ffffff;fill-opacity:1;fill-rule:nonzero;stroke:#000000;stroke-width:0.28125;stroke-linecap:butt;stroke-linejoin:miter;stroke-miterlimit:4;stroke-dasharray:none;stroke-opacity:1"
       transform="matrix(1.3333333,0,0,1.3333333,393.33067,67.186151)"
       clip-path="url(#clipPath97)"
       id="path117" />
    <path
       d="m 93.086,39.676 c 0,4.14 -3.359,7.5 -7.5,7.5 -4.145,0 -7.5,-3.36 -7.5,-7.5 0,-4.145 3.355,-7.5 7.5,-7.5 4.141,0 7.5,3.355 7.5,7.5 z"
       style="fill:#ffffff;fill-opacity:1;fill-rule:nonzero;stroke:#000000;stroke-width:0.99975;stroke-linecap:round;stroke-linejoin:round;stroke-miterlimit:4;stroke-dasharray:none;stroke-opacity:1"
       transform="matrix(1.3333333,0,0,1.3333333,393.33067,67.186151)"
       clip-path="url(#clipPath98)"
       id="path118" />
    <path
       d="m 85.586,47.172 v 7.5"
       style="fill:none;stroke:#000000;stroke-width:0.75;stroke-linecap:round;stroke-linejoin:miter;stroke-miterlimit:4;stroke-dasharray:none;stroke-opacity:1"
       transform="matrix(1.3333333,0,0,1.3333333,393.33067,67.186151)"
       clip-path="url(#clipPath99)"
       id="path119" />
    <path
       d="m 87.398,50.75 -1.804,4.918 -1.809,-4.918 c 1.067,0.785 2.527,0.781 3.613,0 z"
       style="fill:#000000;fill-opacity:1;fill-rule:evenodd;stroke:none"
       transform="matrix(1.3333333,0,0,1.3333333,393.33067,67.186151)"
       clip-path="url(#clipPath100)"
       id="path120" />
    <path
       d="m 78.086,39.672 h 15"
       style="fill:none;stroke:#000000;stroke-width:0.75;stroke-linecap:round;stroke-linejoin:miter;stroke-miterlimit:4;stroke-dasharray:none;stroke-opacity:1"
       transform="matrix(1.3333333,0,0,1.3333333,393.33067,67.186151)"
       clip-path="url(#clipPath101)"
       id="path121" />
    <path
       d="m 85.586,20.922 v 11.25"
       style="fill:none;stroke:#000000;stroke-width:0.75;stroke-linecap:round;stroke-linejoin:miter;stroke-miterlimit:4;stroke-dasharray:none;stroke-opacity:1"
       transform="matrix(1.3333333,0,0,1.3333333,393.33067,67.186151)"
       clip-path="url(#clipPath102)"
       id="path122" />
    <path
       d="m 85.586,52.797 v 5.625"
       style="fill:none;stroke:#000000;stroke-width:0.75;stroke-linecap:round;stroke-linejoin:miter;stroke-miterlimit:4;stroke-dasharray:none;stroke-opacity:1"
       transform="matrix(1.3333333,0,0,1.3333333,393.33067,67.186151)"
       clip-path="url(#clipPath103)"
       id="path123" />
    <path
       d="m 21.836,24.672 v 30"
       style="fill:none;stroke:#000000;stroke-width:0.75;stroke-linecap:round;stroke-linejoin:miter;stroke-miterlimit:4;stroke-dasharray:none;stroke-opacity:1"
       transform="matrix(1.3333333,0,0,1.3333333,393.33067,67.186151)"
       clip-path="url(#clipPath104)"
       id="path124" />
    <path
       d="m 23.648,50.75 -1.804,4.918 -1.809,-4.918 c 1.067,0.785 2.527,0.781 3.613,0 z"
       style="fill:#000000;fill-opacity:1;fill-rule:evenodd;stroke:none"
       transform="matrix(1.3333333,0,0,1.3333333,393.33067,67.186151)"
       clip-path="url(#clipPath105)"
       id="path125" />
  </g>
  <g
     inkscape:groupmode="layer"
     id="layer2"
     inkscape:label="Layer 2">
    <g
       id="g83"
       aria-label="i&#10;dc"
       transform="matrix(0.35277776,0,0,0.35277776,49.323725,8.7439935)">
      <path
         id="path83"
         d="m 2.8241016,-6.2223437 c 0,-0.1992188 -0.1289063,-0.3632813 -0.3632813,-0.3632813 -0.2695312,0 -0.5390625,0.2578125 -0.5390625,0.5273438 0,0.1875 0.140625,0.3632812 0.375,0.3632812 0.234375,0 0.5273438,-0.234375 0.5273438,-0.5273437 z m -0.75,3.7382812 C 2.1912891,-2.7653125 2.1912891,-2.78875 2.2967578,-3.0582812 2.3670703,-3.2575 2.4256641,-3.398125 2.4256641,-3.585625 c 0,-0.4453125 -0.328125,-0.8203125 -0.8203125,-0.8203125 -0.93750004,0 -1.31250004,1.453125 -1.31250004,1.5351563 0,0.1054687 0.09375,0.1054687 0.1171875,0.1054687 0.09375,0 0.10546875,-0.023437 0.15234375,-0.1875 0.26953125,-0.9375 0.66796879,-1.2304687 1.00781249,-1.2304687 0.082031,0 0.2578125,0 0.2578125,0.3164062 0,0.2109375 -0.070312,0.421875 -0.1171875,0.515625 -0.082031,0.2578125 -0.5273437,1.4179688 -0.6796875,1.8515625 -0.10546874,0.2578125 -0.23437499,0.5859375 -0.23437499,0.796875 0,0.46875 0.33984379,0.80859375 0.82031249,0.80859375 0.9375,0 1.3007813,-1.44140625 1.3007813,-1.53515625 0,-0.09375 -0.09375,-0.09375 -0.1171875,-0.09375 -0.1054688,0 -0.1054688,0.023437 -0.1523438,0.1757813 -0.1757812,0.63281245 -0.5039062,1.24218745 -1.0195312,1.24218745 -0.1640625,0 -0.234375,-0.10546875 -0.234375,-0.328125 0,-0.2578125 0.058594,-0.3984375 0.2929687,-0.99609375 z m 0,0"
         style="fill:#000000;fill-opacity:1;fill-rule:nonzero;stroke:none" />
      <path
         id="path84"
         d="m 5.9149219,-3.2633594 v 0.2460938 c 0.46875,0 0.515625,0.046875 0.515625,0.3867187 v 1.453125 C 6.1727344,-1.4352344 5.8446094,-1.5758594 5.4578906,-1.5758594 c -0.9257812,0 -1.7109375,0.69140628 -1.7109375,1.57031253 0,0.8671875 0.7382813,1.57031247 1.6289063,1.57031247 0.5742187,0 0.9140625,-0.3046875 1.03125,-0.4335937 v 0.4335937 l 1.078125,-0.070312 V 1.2483594 c -0.46875,0 -0.5273438,-0.058594 -0.5273438,-0.39843752 V -3.3453906 Z M 6.4071094,0.76789063 C 6.2313281,1.0842969 5.8680469,1.3655469 5.4227344,1.3655469 5.0242969,1.3655469 4.7430469,1.1428906 4.6141406,0.93195313 4.4735156,0.73273438 4.3914844,0.45148438 4.3914844,0.00617188 c 0,-0.1640625 0,-0.69140625 0.28125,-1.01953128 0.28125,-0.3046875 0.6210937,-0.375 0.8203125,-0.375 0.3398437,0 0.6328125,0.1523438 0.8320312,0.41015628 0.082031,0.10546875 0.082031,0.1171875 0.082031,0.24609375 z M 10.540898,-1.2828906 c -0.117187,0.046875 -0.1875,0.1640625 -0.1875,0.30468748 0,0.1875 0.128907,0.328125 0.328125,0.328125 0.1875,0 0.328125,-0.1171875 0.328125,-0.33984375 0,-0.62109373 -0.960937,-0.62109373 -1.1601558,-0.62109373 -1.0429688,0 -1.6992188,0.79687498 -1.6992188,1.59374998 0,0.87890625 0.75,1.58203122 1.6640625,1.58203122 1.0429691,0 1.2773441,-0.82031247 1.2773441,-0.90234372 0,-0.09375 -0.08203,-0.09375 -0.117188,-0.09375 -0.08203,0 -0.09375,0.0234375 -0.128906,0.12890625 -0.152344,0.42187497 -0.527344,0.64453127 -0.9492188,0.64453127 -0.4804688,0 -1.1015625,-0.35156252 -1.1015625,-1.35937502 0,-0.890625 0.421875,-1.37109378 1.078125,-1.37109378 0.082031,0 0.4218753,0 0.6679683,0.1054688 z m 0,0"
         style="fill:#000000;fill-opacity:1;fill-rule:nonzero;stroke:none" />
    </g>
    <path
       id="path85"
       d="m 61.414934,16.352941 c 0,-0.0083 -0.0083,-0.03307 -0.03721,-0.03307 -0.0124,0 -0.01654,0.0041 -0.05374,0.04134 l -0.248047,0.268718 c -0.02894,-0.04961 -0.190169,-0.310059 -0.58291,-0.310059 -0.781348,0 -1.570964,0.777214 -1.570964,1.591634 0,0.578776 0.413412,0.963249 0.950846,0.963249 0.305925,0 0.570508,-0.14056 0.756543,-0.301791 0.33073,-0.289388 0.388607,-0.607714 0.388607,-0.620117 0,-0.03721 -0.03721,-0.03721 -0.04134,-0.03721 -0.02067,0 -0.04134,0.0083 -0.04547,0.03721 -0.03307,0.103353 -0.111621,0.3514 -0.355534,0.553972 -0.243913,0.198437 -0.463021,0.256315 -0.649056,0.256315 -0.314193,0 -0.686263,-0.181901 -0.686263,-0.727604 0,-0.202572 0.07441,-0.77308 0.425814,-1.182357 0.214974,-0.248047 0.541569,-0.425814 0.855761,-0.425814 0.359668,0 0.566374,0.272852 0.566374,0.677995 0,0.14056 -0.0124,0.144694 -0.0124,0.177767 0,0.03721 0.04134,0.03721 0.05374,0.03721 0.04548,0 0.04548,-0.0083 0.06201,-0.07028 z m 0,0"
       style="fill:#000000;fill-opacity:1;fill-rule:nonzero;stroke:none;stroke-width:0.352778"
       aria-label="C" />
    <g
       id="g126"
       aria-label="p&#10;c"
       transform="matrix(0.35277776,0,0,0.35277776,74.591463,15.708656)">
      <path
         id="path126"
         d="m 0.44550781,1.2179922 c -0.0820313,0.3398437 -0.09375,0.4101562 -0.5390625,0.4101562 -0.1171875,0 -0.22265625,0 -0.22265625,0.1875 0,0.082031 0.046875,0.1171875 0.12890625,0.1171875 0.26953125,0 0.55078125,-0.035156 0.83203125,-0.035156 0.328125,0 0.66796874,0.035156 0.98437504,0.035156 0.058594,0 0.1875,0 0.1875,-0.1992187 0,-0.1054688 -0.1054688,-0.1054688 -0.2460938,-0.1054688 -0.4921875,0 -0.4921875,-0.070312 -0.4921875,-0.1640625 0,-0.1171875 0.421875,-1.74609371 0.4804688,-1.99218746 0.140625,0.29296875 0.4101562,0.6328125 0.9257812,0.6328125 1.1484375,0 2.4023438,-1.45312504 2.4023438,-2.91796874 0,-0.9375 -0.5742188,-1.59375 -1.3359375,-1.59375 -0.4921875,0 -0.9726563,0.3632812 -1.3007813,0.75 -0.09375,-0.5390625 -0.5273437,-0.75 -0.890625,-0.75 -0.45703124,0 -0.65624999,0.3867187 -0.73828124,0.5742187 -0.1875,0.3398438 -0.31640625,0.9375 -0.31640625,0.9609375 0,0.1054688 0.10546875,0.1054688 0.12890625,0.1054688 0.09375,0 0.10546875,-0.011719 0.1640625,-0.234375 0.1640625,-0.703125 0.36328125,-1.1835938 0.72656254,-1.1835938 0.1757812,0 0.3046875,0.082031 0.3046875,0.4570313 0,0.234375 -0.023437,0.3398437 -0.070312,0.5039062 z M 2.2033203,-3.1062266 c 0.070312,-0.2695312 0.3398438,-0.5507812 0.515625,-0.703125 0.3515625,-0.3046875 0.6328125,-0.375 0.8085938,-0.375 0.3984375,0 0.6328125,0.3515625 0.6328125,0.9375 0,0.5859375 -0.328125,1.734375 -0.5039063,2.109375 -0.3398437,0.70312504 -0.8203125,1.03125004 -1.1835937,1.03125004 -0.65625,0 -0.7851563,-0.83203125 -0.7851563,-0.890625 0,-0.0234375 0,-0.0351562 0.023437,-0.16406254 z m 0,0"
         style="fill:#000000;fill-opacity:1;fill-rule:nonzero;stroke:none" />
      <path
         id="path127"
         d="m 7.7199219,-1.2839609 c -0.1171875,0.046875 -0.1875,0.1640625 -0.1875,0.30468746 0,0.1875 0.1289062,0.328125 0.328125,0.328125 0.1875,0 0.328125,-0.1171875 0.328125,-0.33984375 0,-0.62109371 -0.9609375,-0.62109371 -1.1601563,-0.62109371 -1.0429687,0 -1.6992187,0.79687496 -1.6992187,1.59374996 0,0.87890625 0.75,1.58203124 1.6640625,1.58203124 1.0429687,0 1.2773437,-0.82031249 1.2773437,-0.90234374 0,-0.09375 -0.082031,-0.09375 -0.1171875,-0.09375 -0.082031,0 -0.09375,0.0234375 -0.1289062,0.12890625 C 7.8722656,1.1183828 7.4972656,1.3410391 7.0753906,1.3410391 c -0.4804687,0 -1.1015625,-0.35156254 -1.1015625,-1.35937504 0,-0.890625 0.421875,-1.37109376 1.078125,-1.37109376 0.082031,0 0.421875,0 0.6679688,0.1054688 z m 0,0"
         style="fill:#000000;fill-opacity:1;fill-rule:nonzero;stroke:none" />
    </g>
    <path
       id="path128"
       d="m 73.693293,17.207608 h 4.989689"
       style="fill:none;stroke:#000000;stroke-width:0.140406;stroke-linecap:butt;stroke-linejoin:miter;stroke-miterlimit:10;stroke-dasharray:none;stroke-opacity:1" />
    <g
       id="g128"
       aria-label="u&#10;dc"
       transform="matrix(0.35277776,0,0,0.35277776,73.693293,20.496908)">
      <path
         id="path129"
         d="m 3.4924844,-0.56301562 c 0.1054687,0.41015625 0.4570312,0.66796875 0.8789062,0.66796875 0.3515625,0 0.5742188,-0.22265625 0.7382813,-0.5390625 0.1757812,-0.36328125 0.3046875,-0.97265623 0.3046875,-0.99609373 0,-0.09375 -0.09375,-0.09375 -0.1289063,-0.09375 -0.09375,0 -0.1054687,0.035156 -0.140625,0.1757812 -0.1289062,0.56250003 -0.328125,1.24218753 -0.7382812,1.24218753 -0.2109375,0 -0.3164063,-0.12890625 -0.3164063,-0.45703125 0,-0.22265625 0.1289063,-0.69140628 0.1992188,-1.04296878 l 0.28125,-1.078125 c 0.035156,-0.140625 0.1289062,-0.5273437 0.1757812,-0.6679687 0.046875,-0.234375 0.140625,-0.609375 0.140625,-0.6679688 0,-0.1875 -0.140625,-0.2695312 -0.28125,-0.2695312 -0.058594,0 -0.3164062,0 -0.3867187,0.3398437 -0.1992188,0.7265625 -0.6328125,2.4726563 -0.75,3.00000003 -0.011719,0.046875 -0.4101563,0.84375 -1.1367188,0.84375 -0.515625,0 -0.6210937,-0.45703125 -0.6210937,-0.8203125 0,-0.56250003 0.28125,-1.34765623 0.5390625,-2.02734373 0.1171875,-0.3046875 0.1757812,-0.4453125 0.1757812,-0.6328125 0,-0.4453125 -0.328125,-0.8203125 -0.8203125,-0.8203125 -0.94921872,0 -1.31249997,1.453125 -1.31249997,1.5351562 0,0.1054688 0.09375,0.1054688 0.1171875,0.1054688 0.09375,0 0.10546875,-0.023437 0.15234375,-0.1875 0.2578125,-0.8671875 0.63281252,-1.2304688 1.00781252,-1.2304688 0.09375,0 0.2578125,0.011719 0.2578125,0.328125 0,0.234375 -0.1171875,0.5273438 -0.1757813,0.6796875 -0.3632812,0.984375 -0.5742187,1.6054688 -0.5742187,2.0859375 0,0.94921878 0.6796875,1.19531253 1.21875,1.19531253 0.65625,0 1.0195312,-0.4453125 1.1953125,-0.66796875 z m 0,0"
         style="fill:#000000;fill-opacity:1;fill-rule:nonzero;stroke:none" />
      <path
         id="path130"
         d="m 8.1887734,-3.2641875 v 0.2460938 c 0.46875,0 0.515625,0.046875 0.515625,0.3867187 V -1.17825 C 8.4465859,-1.4360625 8.1184609,-1.5766875 7.7317422,-1.5766875 c -0.9257813,0 -1.7109375,0.69140625 -1.7109375,1.5703125 0,0.8671875 0.7382812,1.5703125 1.6289062,1.5703125 0.5742188,0 0.9140625,-0.3046875 1.03125,-0.4335937 V 1.5639375 L 9.7590859,1.493625 V 1.2475313 c -0.46875,0 -0.5273437,-0.058594 -0.5273437,-0.39843755 V -3.3462187 Z m 0.4921875,4.03125 C 8.5051797,1.0834688 8.1418984,1.3647188 7.6965859,1.3647188 7.2981484,1.3647188 7.0168984,1.1420625 6.8879922,0.931125 6.7473672,0.73190625 6.6653359,0.45065625 6.6653359,0.00534375 c 0,-0.1640625 0,-0.69140625 0.28125,-1.01953125 0.28125,-0.3046875 0.6210938,-0.375 0.8203125,-0.375 0.3398438,0 0.6328125,0.1523438 0.8320313,0.41015625 0.082031,0.10546875 0.082031,0.1171875 0.082031,0.24609375 z M 12.81182,-1.2837187 c -0.117187,0.046875 -0.1875,0.1640625 -0.1875,0.30468745 0,0.1875 0.128907,0.328125 0.328125,0.328125 0.1875,0 0.328125,-0.1171875 0.328125,-0.33984375 0,-0.6210937 -0.960937,-0.6210937 -1.160156,-0.6210937 -1.042969,0 -1.699219,0.79687495 -1.699219,1.59374995 0,0.87890625 0.75,1.58203125 1.664063,1.58203125 1.042969,0 1.277344,-0.8203125 1.277344,-0.90234375 0,-0.09375 -0.08203,-0.09375 -0.117188,-0.09375 -0.08203,0 -0.09375,0.0234375 -0.128906,0.12890625 -0.152344,0.421875 -0.527344,0.6445313 -0.949219,0.6445313 -0.480469,0 -1.101562,-0.35156255 -1.101562,-1.35937505 0,-0.890625 0.421875,-1.37109375 1.078125,-1.37109375 0.08203,0 0.421875,0 0.667968,0.1054688 z m 0,0"
         style="fill:#000000;fill-opacity:1;fill-rule:nonzero;stroke:none" />
    </g>
    <g
       id="g130"
       aria-label="u&#10;dc"
       transform="matrix(0.35277776,0,0,0.35277776,41.800739,18.266875)">
      <path
         id="path131"
         d="m 3.491875,-0.56204687 c 0.1054688,0.41015625 0.4570313,0.66796875 0.8789063,0.66796875 0.3515625,0 0.5742187,-0.22265625 0.7382812,-0.5390625 C 5.2848438,-0.79642187 5.41375,-1.4057969 5.41375,-1.4292344 c 0,-0.09375 -0.09375,-0.09375 -0.1289062,-0.09375 -0.09375,0 -0.1054688,0.035156 -0.140625,0.1757813 -0.1289063,0.56249998 -0.328125,1.24218748 -0.7382813,1.24218748 -0.2109375,0 -0.3164062,-0.12890625 -0.3164062,-0.45703125 0,-0.22265625 0.1289062,-0.69140623 0.1992187,-1.04296873 L 4.57,-2.6831406 c 0.035156,-0.140625 0.1289063,-0.5273438 0.1757813,-0.6679688 0.046875,-0.234375 0.140625,-0.609375 0.140625,-0.6679687 0,-0.1875 -0.140625,-0.2695313 -0.28125,-0.2695313 -0.058594,0 -0.3164063,0 -0.3867188,0.3398438 -0.1992187,0.7265625 -0.6328125,2.4726562 -0.75,2.99999998 -0.011719,0.046875 -0.4101562,0.84375 -1.1367187,0.84375 -0.515625,0 -0.6210938,-0.45703125 -0.6210938,-0.8203125 0,-0.56249998 0.28125,-1.34765628 0.5390625,-2.02734378 0.1171875,-0.3046875 0.1757813,-0.4453125 0.1757813,-0.6328125 0,-0.4453125 -0.328125,-0.8203125 -0.8203125,-0.8203125 -0.9492188,0 -1.31250005,1.453125 -1.31250005,1.5351563 0,0.1054687 0.09375,0.1054687 0.1171875,0.1054687 0.09375,0 0.10546875,-0.023437 0.15234375,-0.1875 C 0.82,-3.8198594 1.195,-4.1831406 1.57,-4.1831406 c 0.09375,0 0.2578125,0.011719 0.2578125,0.328125 0,0.234375 -0.1171875,0.5273437 -0.1757812,0.6796875 -0.3632813,0.984375 -0.5742188,1.6054687 -0.5742188,2.0859375 0,0.94921873 0.6796875,1.19531248 1.21875,1.19531248 0.65625,0 1.0195313,-0.4453125 1.1953125,-0.66796875 z m 0,0"
         style="fill:#000000;fill-opacity:1;fill-rule:nonzero;stroke:none" />
      <path
         id="path132"
         d="m 8.1881641,-3.2632187 v 0.2460937 c 0.46875,0 0.515625,0.046875 0.515625,0.3867188 v 1.453125 C 8.4459766,-1.4350937 8.1178516,-1.5757187 7.7311328,-1.5757187 c -0.9257812,0 -1.7109375,0.6914062 -1.7109375,1.57031245 0,0.8671875 0.7382813,1.57031255 1.6289063,1.57031255 0.5742187,0 0.9140625,-0.3046875 1.03125,-0.4335938 v 0.4335938 l 1.078125,-0.070312 V 1.2485 c -0.46875,0 -0.5273438,-0.058594 -0.5273438,-0.3984375 V -3.34525 Z M 8.6803516,0.76803125 C 8.5045703,1.0844375 8.1412891,1.3656875 7.6959766,1.3656875 7.2975391,1.3656875 7.0162891,1.1430313 6.8873828,0.93209375 6.7467578,0.732875 6.6647266,0.451625 6.6647266,0.0063125 c 0,-0.1640625 0,-0.69140625 0.28125,-1.0195312 0.28125,-0.3046875 0.6210937,-0.375 0.8203125,-0.375 0.3398437,0 0.6328125,0.1523437 0.8320312,0.4101562 0.082031,0.10546875 0.082031,0.1171875 0.082031,0.24609375 z M 12.811211,-1.28275 c -0.117188,0.046875 -0.1875,0.1640625 -0.1875,0.3046875 0,0.1875 0.128906,0.328125 0.328125,0.328125 0.1875,0 0.328125,-0.1171875 0.328125,-0.33984375 0,-0.62109375 -0.960938,-0.62109375 -1.160156,-0.62109375 -1.042969,0 -1.699219,0.796875 -1.699219,1.59375 0,0.87890625 0.75,1.5820313 1.664062,1.5820313 1.042969,0 1.277344,-0.82031255 1.277344,-0.9023438 0,-0.09375 -0.08203,-0.09375 -0.117187,-0.09375 -0.08203,0 -0.09375,0.0234375 -0.128907,0.12890625 C 12.963555,1.1195938 12.588555,1.34225 12.16668,1.34225 c -0.480469,0 -1.101563,-0.3515625 -1.101563,-1.359375 0,-0.890625 0.421875,-1.3710937 1.078125,-1.3710937 0.08203,0 0.421875,0 0.667969,0.1054687 z m 0,0"
         style="fill:#000000;fill-opacity:1;fill-rule:nonzero;stroke:none" />
    </g>
    <path
       id="path133"
       d="m 64.535513,1.5081258 h -0.326595 v 2.563151 h 1.591634 v -0.289388 h -1.265039 z m 2.301668,0.669726 c -0.516764,0 -0.826823,0.367936 -0.826823,0.988054 0,0.615983 0.305925,0.988053 0.830957,0.988053 0.516764,0 0.835091,-0.37207 0.835091,-0.975651 0,-0.636654 -0.305924,-1.000456 -0.839225,-1.000456 z m 0.0041,0.268718 c 0.330729,0 0.529167,0.272851 0.529167,0.727604 0,0.434082 -0.206706,0.706933 -0.529167,0.706933 -0.326595,0 -0.525032,-0.268717 -0.525032,-0.715201 0,-0.442351 0.198437,-0.719336 0.525032,-0.719336 z m 2.532145,0.297656 c -0.0041,-0.363802 -0.239779,-0.566374 -0.665592,-0.566374 -0.429948,0 -0.706934,0.219108 -0.706934,0.56224 0,0.289388 0.148828,0.425814 0.58291,0.529166 l 0.272852,0.06615 c 0.206705,0.04961 0.285254,0.124024 0.285254,0.256315 0,0.173633 -0.169499,0.289388 -0.425814,0.289388 -0.161231,0 -0.293522,-0.04547 -0.367936,-0.124023 -0.04548,-0.04961 -0.06615,-0.103353 -0.08268,-0.235645 h -0.310059 c 0.0124,0.425814 0.252181,0.63252 0.735872,0.63252 0.463021,0 0.756543,-0.23151 0.756543,-0.587044 0,-0.272852 -0.152962,-0.42168 -0.520898,-0.512631 l -0.28112,-0.06614 c -0.235644,-0.05374 -0.338997,-0.132292 -0.338997,-0.264584 0,-0.165364 0.148828,-0.276985 0.388607,-0.276985 0.235644,0 0.363802,0.103353 0.37207,0.297656 z m 1.758032,0 c -0.0041,-0.363802 -0.239778,-0.566374 -0.665592,-0.566374 -0.429948,0 -0.706934,0.219108 -0.706934,0.56224 0,0.289388 0.148828,0.425814 0.582911,0.529166 l 0.272851,0.06615 c 0.206706,0.04961 0.285254,0.124024 0.285254,0.256315 0,0.173633 -0.169499,0.289388 -0.425814,0.289388 -0.16123,0 -0.293522,-0.04547 -0.367936,-0.124023 -0.04547,-0.04961 -0.06615,-0.103353 -0.08268,-0.235645 h -0.310059 c 0.0124,0.425814 0.252181,0.63252 0.735872,0.63252 0.463021,0 0.756544,-0.23151 0.756544,-0.587044 0,-0.272852 -0.152963,-0.42168 -0.520899,-0.512631 l -0.28112,-0.06614 c -0.235644,-0.05374 -0.338997,-0.132292 -0.338997,-0.264584 0,-0.165364 0.148828,-0.276985 0.388607,-0.276985 0.235644,0 0.363802,0.103353 0.37207,0.297656 z m 0.752409,-1.2361 h -0.293522 v 2.563151 h 0.293522 z m 2.049487,1.740462 c 0,-0.28112 -0.02067,-0.450619 -0.07441,-0.587044 -0.119889,-0.301791 -0.401009,-0.483692 -0.74414,-0.483692 -0.512631,0 -0.84336,0.392741 -0.84336,0.996322 0,0.603581 0.318327,0.979785 0.835091,0.979785 0.42168,0 0.715202,-0.239779 0.789616,-0.640788 h -0.297656 c -0.07855,0.239779 -0.243913,0.367936 -0.479557,0.367936 -0.186035,0 -0.343132,-0.08268 -0.44235,-0.239778 -0.07028,-0.103353 -0.09508,-0.21084 -0.09922,-0.392741 z m -1.347687,-0.239779 c 0.0248,-0.338997 0.23151,-0.562239 0.525033,-0.562239 0.289388,0 0.508496,0.239778 0.508496,0.541569 0,0.0083 0,0.01654 0,0.02067 z m 3.037541,-0.264583 c -0.0041,-0.363802 -0.239779,-0.566374 -0.665593,-0.566374 -0.429948,0 -0.706933,0.219108 -0.706933,0.56224 0,0.289388 0.148828,0.425814 0.58291,0.529166 l 0.272851,0.06615 c 0.206706,0.04961 0.285254,0.124024 0.285254,0.256315 0,0.173633 -0.169499,0.289388 -0.425814,0.289388 -0.16123,0 -0.293522,-0.04547 -0.367936,-0.124023 -0.04547,-0.04961 -0.06615,-0.103353 -0.08268,-0.235645 h -0.310059 c 0.0124,0.425814 0.252182,0.63252 0.735873,0.63252 0.46302,0 0.756543,-0.23151 0.756543,-0.587044 0,-0.272852 -0.152962,-0.42168 -0.520899,-0.512631 l -0.28112,-0.06614 c -0.235644,-0.05374 -0.338997,-0.132292 -0.338997,-0.264584 0,-0.165364 0.148828,-0.276985 0.388607,-0.276985 0.235644,0 0.363802,0.103353 0.37207,0.297656 z m 1.756998,0 c -0.0041,-0.363802 -0.239779,-0.566374 -0.665592,-0.566374 -0.429948,0 -0.706934,0.219108 -0.706934,0.56224 0,0.289388 0.148828,0.425814 0.582911,0.529166 l 0.272851,0.06615 c 0.206706,0.04961 0.285254,0.124024 0.285254,0.256315 0,0.173633 -0.169499,0.289388 -0.425814,0.289388 -0.161231,0 -0.293522,-0.04547 -0.367936,-0.124023 -0.04547,-0.04961 -0.06615,-0.103353 -0.08268,-0.235645 h -0.310059 c 0.0124,0.425814 0.252181,0.63252 0.735872,0.63252 0.463021,0 0.756543,-0.23151 0.756543,-0.587044 0,-0.272852 -0.152962,-0.42168 -0.520898,-0.512631 l -0.28112,-0.06614 c -0.235644,-0.05374 -0.338997,-0.132292 -0.338997,-0.264584 0,-0.165364 0.148828,-0.276985 0.388607,-0.276985 0.235644,0 0.363802,0.103353 0.37207,0.297656 z M 65.101887,6.7129755 c -0.0124,-0.177767 -0.04961,-0.293522 -0.11989,-0.396875 -0.128157,-0.173633 -0.3514,-0.272852 -0.607715,-0.272852 -0.491959,0 -0.818554,0.392741 -0.818554,1.00459 0,0.595312 0.318327,0.971517 0.818554,0.971517 0.438217,0 0.715202,-0.264584 0.748275,-0.715202 h -0.293522 c -0.04961,0.293522 -0.198438,0.44235 -0.450619,0.44235 -0.32246,0 -0.516764,-0.264583 -0.516764,-0.698665 0,-0.458887 0.190169,-0.735872 0.51263,-0.735872 0.243913,0 0.396875,0.144694 0.434082,0.401009 z m 1.058333,-0.669727 c -0.516764,0 -0.826823,0.367936 -0.826823,0.988054 0,0.615983 0.305924,0.988053 0.830957,0.988053 0.516764,0 0.835091,-0.37207 0.835091,-0.975651 0,-0.636654 -0.305924,-1.000456 -0.839225,-1.000456 z m 0.0041,0.268718 c 0.330729,0 0.529167,0.272851 0.529167,0.727604 0,0.434082 -0.206706,0.706933 -0.529167,0.706933 -0.326595,0 -0.525032,-0.268717 -0.525032,-0.715201 0,-0.442351 0.198437,-0.719336 0.525032,-0.719336 z m 1.243335,-0.214974 v 1.83968 h 0.293522 v -1.016992 c 0,-0.376204 0.198437,-0.620117 0.500228,-0.620117 0.23151,0 0.376204,0.14056 0.376204,0.359668 v 1.277441 h 0.293522 v -1.393196 c 0,-0.305924 -0.227376,-0.500228 -0.58291,-0.500228 -0.272851,0 -0.450618,0.103353 -0.611849,0.359668 v -0.305924 z m 2.635498,1.83968 0.706933,-1.83968 h -0.330729 l -0.520898,1.492415 -0.49196,-1.492415 h -0.326595 l 0.644922,1.83968 z m 2.4722,-0.822688 c 0,-0.28112 -0.02067,-0.450619 -0.07441,-0.587044 -0.119889,-0.301791 -0.401009,-0.483692 -0.744141,-0.483692 -0.51263,0 -0.843359,0.392741 -0.843359,0.996322 0,0.60358 0.318327,0.979785 0.835091,0.979785 0.42168,0 0.715202,-0.239779 0.789616,-0.640788 h -0.297656 c -0.07855,0.239779 -0.243913,0.367936 -0.479557,0.367936 -0.186036,0 -0.343132,-0.08268 -0.442351,-0.239778 -0.07028,-0.103353 -0.09508,-0.21084 -0.09922,-0.392741 z m -1.347687,-0.239779 c 0.0248,-0.338997 0.23151,-0.562239 0.525032,-0.562239 0.289388,0 0.508497,0.239778 0.508497,0.541569 0,0.0083 0,0.01654 0,0.02067 z m 1.742529,-0.777213 v 1.83968 h 0.293522 v -0.95498 c 0,-0.264583 0.06615,-0.438216 0.206706,-0.537435 0.09095,-0.06615 0.181901,-0.09095 0.384473,-0.09095 v -0.301791 c -0.04961,-0.0041 -0.07442,-0.0083 -0.111621,-0.0083 -0.19017,0 -0.334864,0.111621 -0.504363,0.384473 v -0.330729 z m 1.960604,0 h -0.30179 v -0.508496 h -0.293523 v 0.508496 H 74.02744 v 0.235644 h 0.248046 v 1.393197 c 0,0.186035 0.128158,0.293522 0.355534,0.293522 0.07028,0 0.14056,-0.0083 0.239779,-0.0248 v -0.248047 c -0.03721,0.0124 -0.08268,0.0124 -0.14056,0.0124 -0.128158,0 -0.16123,-0.03307 -0.16123,-0.161231 v -1.265041 h 0.30179 z m 1.886189,1.016992 c 0,-0.28112 -0.02067,-0.450619 -0.07441,-0.587044 -0.11989,-0.301791 -0.40101,-0.483692 -0.744141,-0.483692 -0.51263,0 -0.843359,0.392741 -0.843359,0.996322 0,0.60358 0.318326,0.979785 0.835091,0.979785 0.421679,0 0.715201,-0.239779 0.789615,-0.640788 h -0.297656 c -0.07855,0.239779 -0.243913,0.367936 -0.479557,0.367936 -0.186035,0 -0.343132,-0.08268 -0.44235,-0.239778 -0.07028,-0.103353 -0.09508,-0.21084 -0.09922,-0.392741 z m -1.347721,-0.239779 c 0.0248,-0.338997 0.231511,-0.562239 0.525033,-0.562239 0.289388,0 0.508496,0.239778 0.508496,0.541569 0,0.0083 0,0.01654 0,0.02067 z m 1.743563,-0.777213 v 1.83968 h 0.293522 v -0.95498 c 0,-0.264583 0.06615,-0.438216 0.206706,-0.537435 0.09095,-0.06615 0.181901,-0.09095 0.384472,-0.09095 v -0.301791 c -0.04961,-0.0041 -0.07441,-0.0083 -0.111621,-0.0083 -0.190169,0 -0.334863,0.111621 -0.504362,0.384473 v -0.330729 z m 0,0"
       style="fill:#000000;fill-opacity:1;fill-rule:nonzero;stroke:none;stroke-width:0.352778"
       aria-label="Lossless&#10;converter" />
  </g>
</svg>
