<?xml version="1.0" encoding="UTF-8" standalone="no"?>
<!-- Created with Inkscape (http://www.inkscape.org/) -->

<svg
   version="1.1"
   id="svg1"
   width="480"
   height="220"
   viewBox="0 0 480 220"
   sodipodi:docname="flux_vs_torque.svg"
   inkscape:version="1.4 (e7c3feb100, 2024-10-09)"
   xmlns:inkscape="http://www.inkscape.org/namespaces/inkscape"
   xmlns:sodipodi="http://sodipodi.sourceforge.net/DTD/sodipodi-0.dtd"
   xmlns="http://www.w3.org/2000/svg"
   xmlns:svg="http://www.w3.org/2000/svg"
   xmlns:ns8="http://www.iki.fi/pav/software/textext/">
  <sodipodi:namedview
     id="namedview1"
     pagecolor="#ffffff"
     bordercolor="#000000"
     borderopacity="0.25"
     inkscape:showpageshadow="2"
     inkscape:pageopacity="0.0"
     inkscape:pagecheckerboard="0"
     inkscape:deskcolor="#d1d1d1"
     showgrid="true"
     inkscape:zoom="2.6100041"
     inkscape:cx="236.3981"
     inkscape:cy="133.71626"
     inkscape:window-width="1920"
     inkscape:window-height="1131"
     inkscape:window-x="0"
     inkscape:window-y="0"
     inkscape:window-maximized="1"
     inkscape:current-layer="g1">
    <inkscape:page
       x="0"
       y="0"
       inkscape:label="1"
       id="page1"
       width="480"
       height="220"
       margin="0"
       bleed="0" />
    <inkscape:grid
       id="grid113"
       units="px"
       originx="90"
       originy="4.9999998"
       spacingx="0.99999999"
       spacingy="0.99999999"
       empcolor="#0099e5"
       empopacity="0.30196078"
       color="#0099e5"
       opacity="0.14901961"
       empspacing="5"
       enabled="true"
       visible="true" />
  </sodipodi:namedview>
  <defs
     id="defs1">
    <clipPath
       clipPathUnits="userSpaceOnUse"
       id="clipPath4">
      <path
         d="M 35.929489,32.601956 H 229.96949 V 171.20196 H 35.929489 Z"
         id="path4" />
    </clipPath>
    <clipPath
       clipPathUnits="userSpaceOnUse"
       id="clipPath10">
      <path
         d="M 35.929489,32.601956 H 229.96949 V 171.20196 H 35.929489 Z"
         id="path10" />
    </clipPath>
    <clipPath
       clipPathUnits="userSpaceOnUse"
       id="clipPath16">
      <path
         d="M 35.929489,32.601956 H 229.96949 V 171.20196 H 35.929489 Z"
         id="path16" />
    </clipPath>
    <clipPath
       clipPathUnits="userSpaceOnUse"
       id="clipPath22">
      <path
         d="M 35.929489,32.601956 H 229.96949 V 171.20196 H 35.929489 Z"
         id="path22" />
    </clipPath>
    <clipPath
       clipPathUnits="userSpaceOnUse"
       id="clipPath28">
      <path
         d="M 35.929489,32.601956 H 229.96949 V 171.20196 H 35.929489 Z"
         id="path28" />
    </clipPath>
    <clipPath
       clipPathUnits="userSpaceOnUse"
       id="clipPath34">
      <path
         d="M 35.929489,32.601956 H 229.96949 V 171.20196 H 35.929489 Z"
         id="path34" />
    </clipPath>
    <clipPath
       clipPathUnits="userSpaceOnUse"
       id="clipPath42">
      <path
         d="M 35.929489,32.601956 H 229.96949 V 171.20196 H 35.929489 Z"
         id="path42" />
    </clipPath>
    <clipPath
       clipPathUnits="userSpaceOnUse"
       id="clipPath48">
      <path
         d="M 35.929489,32.601956 H 229.96949 V 171.20196 H 35.929489 Z"
         id="path48" />
    </clipPath>
    <clipPath
       clipPathUnits="userSpaceOnUse"
       id="clipPath54">
      <path
         d="M 35.929489,32.601956 H 229.96949 V 171.20196 H 35.929489 Z"
         id="path54" />
    </clipPath>
    <clipPath
       clipPathUnits="userSpaceOnUse"
       id="clipPath60">
      <path
         d="M 35.929489,32.601956 H 229.96949 V 171.20196 H 35.929489 Z"
         id="path60" />
    </clipPath>
    <clipPath
       clipPathUnits="userSpaceOnUse"
       id="clipPath66">
      <path
         d="M 35.929489,32.601956 H 229.96949 V 171.20196 H 35.929489 Z"
         id="path66" />
    </clipPath>
    <clipPath
       clipPathUnits="userSpaceOnUse"
       id="clipPath72">
      <path
         d="M 35.929489,32.601956 H 229.96949 V 171.20196 H 35.929489 Z"
         id="path72" />
    </clipPath>
    <clipPath
       clipPathUnits="userSpaceOnUse"
       id="clipPath81">
      <path
         d="M 35.929489,32.601956 H 229.96949 V 171.20196 H 35.929489 Z"
         id="path81" />
    </clipPath>
    <clipPath
       clipPathUnits="userSpaceOnUse"
       id="clipPath83">
      <path
         d="M 35.929489,32.601956 H 229.96949 V 171.20196 H 35.929489 Z"
         id="path83" />
    </clipPath>
    <clipPath
       clipPathUnits="userSpaceOnUse"
       id="clipPath85">
      <path
         d="M 35.929489,32.601956 H 229.96949 V 171.20196 H 35.929489 Z"
         id="path85" />
    </clipPath>
    <clipPath
       clipPathUnits="userSpaceOnUse"
       id="clipPath87">
      <path
         d="M 35.929489,32.601956 H 229.96949 V 171.20196 H 35.929489 Z"
         id="path87" />
    </clipPath>
    <clipPath
       clipPathUnits="userSpaceOnUse"
       id="clipPath89">
      <path
         d="M 35.929489,32.601956 H 229.96949 V 171.20196 H 35.929489 Z"
         id="path89" />
    </clipPath>
  </defs>
  <g
     id="g1"
     inkscape:groupmode="layer"
     inkscape:label="1"
     transform="translate(90,5.000001)">
    <path
       id="path2"
       d="M 40.818944,178.27431 H 290 V 0.28783326 H 40.818944 Z"
       style="fill:#ffffff;fill-opacity:1;fill-rule:nonzero;stroke:none;stroke-width:1.28418" />
    <path
       id="path3"
       d="M 35.929489,32.601956 V 171.20196"
       style="fill:none;stroke:#b0b0b0;stroke-width:0.8;stroke-linecap:square;stroke-linejoin:round;stroke-miterlimit:10;stroke-dasharray:none;stroke-opacity:1"
       transform="matrix(1.2841737,0,0,-1.2841737,-5.3207605,220.14088)"
       clip-path="url(#clipPath4)" />
    <path
       id="path5"
       d="m 40.818944,178.27431 v 4.49461"
       style="fill:#000000;fill-opacity:1;fill-rule:nonzero;stroke:#000000;stroke-width:1.02734;stroke-linecap:butt;stroke-linejoin:round;stroke-miterlimit:10;stroke-dasharray:none;stroke-opacity:1" />
    <g
       id="g5"
       aria-label="0.0"
       transform="matrix(1.2841737,0,0,1.2841737,34.058727,194.28985)">
      <path
         id="path6"
         d="m 3.7966805,-2.6259633 c 0,-1.640625 -0.7265625,-2.765625 -1.7695312,-2.765625 -0.4453125,0 -0.7734375,0.140625 -1.06640626,0.421875 -0.46875,0.4453125 -0.7734375,1.359375 -0.7734375,2.296875 0,0.8671875 0.26953125,1.79296874 0.64453125,2.23828124 0.29296871,0.3515625 0.70312501,0.55078125 1.16015621,0.55078125 0.4101563,0 0.75,-0.140625 1.03125,-0.421875 0.46875,-0.43359375 0.7734375,-1.35937499 0.7734375,-2.32031249 z m -0.7734375,0.011719 c 0,1.66406254 -0.3515625,2.51953129 -1.03125,2.51953129 -0.6796875,0 -1.03124996,-0.85546875 -1.03124996,-2.50781249 0,-1.6992188 0.35156246,-2.578125 1.04296876,-2.578125 0.6679687,0 1.0195312,0.9023437 1.0195312,2.5664062 z m 0,0"
         style="fill:#000000;fill-opacity:1;fill-rule:nonzero;stroke:none" />
      <path
         id="path7"
         d="m 5.8240243,-0.34080706 c 0,-0.24609375 -0.2578125,-0.45703125 -0.5625,-0.45703125 -0.3046875,0 -0.5507813,0.19921875 -0.5507813,0.45703125 0,0.3046875 0.3398438,0.421875 0.5507813,0.421875 0.2109375,0 0.5625,-0.12890625 0.5625,-0.421875 z m 0,0"
         style="fill:#000000;fill-opacity:1;fill-rule:nonzero;stroke:none" />
      <path
         id="path8"
         d="m 10.341602,-2.6259633 c 0,-1.640625 -0.7265621,-2.765625 -1.7695308,-2.765625 -0.4453125,0 -0.7734375,0.140625 -1.0664063,0.421875 -0.46875,0.4453125 -0.7734375,1.359375 -0.7734375,2.296875 0,0.8671875 0.2695313,1.79296874 0.6445313,2.23828124 0.2929687,0.3515625 0.703125,0.55078125 1.1601562,0.55078125 0.4101563,0 0.75,-0.140625 1.03125,-0.421875 0.4687501,-0.43359375 0.7734371,-1.35937499 0.7734371,-2.32031249 z m -0.7734371,0.011719 c 0,1.66406254 -0.3515625,2.51953129 -1.03125,2.51953129 -0.6796875,0 -1.03125,-0.85546875 -1.03125,-2.50781249 0,-1.6992188 0.3515625,-2.578125 1.0429688,-2.578125 0.6679687,0 1.0195312,0.9023437 1.0195312,2.5664062 z m 0,0"
         style="fill:#000000;fill-opacity:1;fill-rule:nonzero;stroke:none" />
    </g>
    <path
       id="path9"
       d="M 69.157374,32.601956 V 171.20196"
       style="fill:none;stroke:#b0b0b0;stroke-width:0.8;stroke-linecap:square;stroke-linejoin:round;stroke-miterlimit:10;stroke-dasharray:none;stroke-opacity:1"
       transform="matrix(1.2841737,0,0,-1.2841737,-5.3207605,220.14088)"
       clip-path="url(#clipPath10)" />
    <path
       id="path11"
       d="m 83.489318,178.27431 v 4.49461"
       style="fill:#000000;fill-opacity:1;fill-rule:nonzero;stroke:#000000;stroke-width:1.02734;stroke-linecap:butt;stroke-linejoin:round;stroke-miterlimit:10;stroke-dasharray:none;stroke-opacity:1" />
    <g
       id="g11"
       aria-label="0.5"
       transform="matrix(1.2841737,0,0,1.2841737,76.729106,194.28985)">
      <path
         id="path12"
         d="m 3.7973109,-2.6259633 c 0,-1.640625 -0.7265625,-2.765625 -1.7695312,-2.765625 -0.4453125,0 -0.7734375,0.140625 -1.06640626,0.421875 -0.46875,0.4453125 -0.7734375,1.359375 -0.7734375,2.296875 0,0.8671875 0.26953125,1.79296874 0.64453125,2.23828124 0.29296871,0.3515625 0.70312501,0.55078125 1.16015621,0.55078125 0.4101563,0 0.75,-0.140625 1.03125,-0.421875 0.46875,-0.43359375 0.7734375,-1.35937499 0.7734375,-2.32031249 z m -0.7734375,0.011719 c 0,1.66406254 -0.3515625,2.51953129 -1.03125,2.51953129 -0.6796875,0 -1.03124996,-0.85546875 -1.03124996,-2.50781249 0,-1.6992188 0.35156246,-2.578125 1.04296876,-2.578125 0.6679687,0 1.0195312,0.9023437 1.0195312,2.5664062 z m 0,0"
         style="fill:#000000;fill-opacity:1;fill-rule:nonzero;stroke:none" />
      <path
         id="path13"
         d="m 5.8246547,-0.34080706 c 0,-0.24609375 -0.2578125,-0.45703125 -0.5625,-0.45703125 -0.3046875,0 -0.5507813,0.19921875 -0.5507813,0.45703125 0,0.3046875 0.3398438,0.421875 0.5507813,0.421875 0.2109375,0 0.5625,-0.12890625 0.5625,-0.421875 z m 0,0"
         style="fill:#000000;fill-opacity:1;fill-rule:nonzero;stroke:none" />
      <path
         id="path14"
         d="m 10.034616,-5.4267446 -0.070313,-0.058594 c -0.1171875,0.1640625 -0.1992187,0.2109375 -0.375,0.2109375 H 7.9252406 l -0.8671875,1.8867187 c 0,0.011719 0,0.035156 0,0.035156 0,0.046875 0.023437,0.070312 0.09375,0.070312 0.2460938,0 0.5742188,0.058594 0.9023438,0.1523437 0.9140625,0.3046875 1.3359375,0.796875 1.3359375,1.5820313 0,0.76171874 -0.4921875,1.35937499 -1.1132813,1.35937499 -0.1523437,0 -0.2929687,-0.046875 -0.5273437,-0.22265625 -0.2578125,-0.1875 -0.4453125,-0.26953125 -0.609375,-0.26953125 -0.234375,0 -0.3398438,0.09375 -0.3398438,0.29296875 0,0.3046875 0.375,0.50390625 0.9726563,0.50390625 0.6679687,0 1.2421875,-0.22265625 1.640625,-0.6328125 0.3632812,-0.3515625 0.5273437,-0.80859379 0.5273437,-1.41796879 0,-0.5742187 -0.1523437,-0.9375 -0.5507812,-1.3359375 -0.3398438,-0.3515625 -0.796875,-0.5273437 -1.734375,-0.703125 l 0.328125,-0.6679687 h 1.5585937 c 0.1289063,0 0.1640625,-0.023437 0.1875,-0.082031 z m 0,0"
         style="fill:#000000;fill-opacity:1;fill-rule:nonzero;stroke:none" />
    </g>
    <path
       id="path15"
       d="M 102.38526,32.601956 V 171.20196"
       style="fill:none;stroke:#b0b0b0;stroke-width:0.8;stroke-linecap:square;stroke-linejoin:round;stroke-miterlimit:10;stroke-dasharray:none;stroke-opacity:1"
       transform="matrix(1.2841737,0,0,-1.2841737,-5.3207605,220.14088)"
       clip-path="url(#clipPath16)" />
    <path
       id="path17"
       d="m 126.1597,178.27431 v 4.49461"
       style="fill:#000000;fill-opacity:1;fill-rule:nonzero;stroke:#000000;stroke-width:1.02734;stroke-linecap:butt;stroke-linejoin:round;stroke-miterlimit:10;stroke-dasharray:none;stroke-opacity:1" />
    <g
       id="g17"
       aria-label="1.0"
       transform="matrix(1.2841737,0,0,1.2841737,119.39949,194.28985)">
      <path
         id="path18"
         d="M 3.1416913,-9.633065e-4 V -0.11815081 c -0.6328125,-0.0117188 -0.7617187,-0.09375 -0.7617187,-0.46875 V -5.3681508 l -0.058594,-0.023437 -1.44140621,0.7265625 v 0.1171875 c 0.10546875,-0.046875 0.18750001,-0.070312 0.22265621,-0.09375 0.140625,-0.058594 0.28125,-0.082031 0.3515625,-0.082031 0.1757813,0 0.2460938,0.1171875 0.2460938,0.375 v 3.60937504 c 0,0.2578125 -0.070312,0.4453125 -0.1875,0.515625 -0.1289063,0.0703125 -0.234375,0.09375 -0.57421876,0.10546875 v 0.1171875035 z m 0,0"
         style="fill:#000000;fill-opacity:1;fill-rule:nonzero;stroke:none" />
      <path
         id="path19"
         d="m 5.8223554,-0.34080706 c 0,-0.24609375 -0.2578125,-0.45703125 -0.5625,-0.45703125 -0.3046875,0 -0.5507812,0.19921875 -0.5507812,0.45703125 0,0.3046875 0.3398437,0.421875 0.5507812,0.421875 0.2109375,0 0.5625,-0.12890625 0.5625,-0.421875 z m 0,0"
         style="fill:#000000;fill-opacity:1;fill-rule:nonzero;stroke:none" />
      <path
         id="path20"
         d="m 10.339934,-2.6259633 c 0,-1.640625 -0.726563,-2.765625 -1.7695317,-2.765625 -0.4453125,0 -0.7734375,0.140625 -1.0664063,0.421875 -0.46875,0.4453125 -0.7734375,1.359375 -0.7734375,2.296875 0,0.8671875 0.2695313,1.79296874 0.6445313,2.23828124 0.2929687,0.3515625 0.703125,0.55078125 1.1601562,0.55078125 0.4101563,0 0.75,-0.140625 1.03125,-0.421875 0.46875,-0.43359375 0.773438,-1.35937499 0.773438,-2.32031249 z m -0.773438,0.011719 c 0,1.66406254 -0.3515625,2.51953129 -1.03125,2.51953129 -0.6796875,0 -1.03125,-0.85546875 -1.03125,-2.50781249 0,-1.6992188 0.3515625,-2.578125 1.0429688,-2.578125 0.6679687,0 1.0195312,0.9023437 1.0195312,2.5664062 z m 0,0"
         style="fill:#000000;fill-opacity:1;fill-rule:nonzero;stroke:none" />
    </g>
    <path
       id="path21"
       d="M 135.61314,32.601956 V 171.20196"
       style="fill:none;stroke:#b0b0b0;stroke-width:0.8;stroke-linecap:square;stroke-linejoin:round;stroke-miterlimit:10;stroke-dasharray:none;stroke-opacity:1"
       transform="matrix(1.2841737,0,0,-1.2841737,-5.3207605,220.14088)"
       clip-path="url(#clipPath22)" />
    <path
       id="path23"
       d="m 168.83006,178.27431 v 4.49461"
       style="fill:#000000;fill-opacity:1;fill-rule:nonzero;stroke:#000000;stroke-width:1.02734;stroke-linecap:butt;stroke-linejoin:round;stroke-miterlimit:10;stroke-dasharray:none;stroke-opacity:1" />
    <g
       id="g23"
       aria-label="1.5"
       transform="matrix(1.2841737,0,0,1.2841737,162.06987,194.28985)">
      <path
         id="path24"
         d="M 3.1393921,-9.633065e-4 V -0.11815081 c -0.6328125,-0.0117188 -0.7617188,-0.09375 -0.7617188,-0.46875 V -5.3681508 l -0.058594,-0.023437 -1.4414063,0.7265625 v 0.1171875 c 0.10546875,-0.046875 0.1875,-0.070312 0.2226563,-0.09375 0.140625,-0.058594 0.28125,-0.082031 0.3515625,-0.082031 0.1757812,0 0.2460937,0.1171875 0.2460937,0.375 v 3.60937504 c 0,0.2578125 -0.070312,0.4453125 -0.1875,0.515625 -0.1289062,0.0703125 -0.234375,0.09375 -0.57421875,0.10546875 v 0.1171875035 z m 0,0"
         style="fill:#000000;fill-opacity:1;fill-rule:nonzero;stroke:none" />
      <path
         id="path25"
         d="m 5.8229858,-0.34080706 c 0,-0.24609375 -0.2578125,-0.45703125 -0.5625,-0.45703125 -0.3046875,0 -0.5507812,0.19921875 -0.5507812,0.45703125 0,0.3046875 0.3398437,0.421875 0.5507812,0.421875 0.2109375,0 0.5625,-0.12890625 0.5625,-0.421875 z m 0,0"
         style="fill:#000000;fill-opacity:1;fill-rule:nonzero;stroke:none" />
      <path
         id="path26"
         d="m 10.035876,-5.4267446 -0.070312,-0.058594 c -0.1171875,0.1640625 -0.1992187,0.2109375 -0.375,0.2109375 H 7.9265014 l -0.8671875,1.8867187 c 0,0.011719 0,0.035156 0,0.035156 0,0.046875 0.023437,0.070312 0.09375,0.070312 0.2460938,0 0.5742188,0.058594 0.9023438,0.1523437 0.9140625,0.3046875 1.3359375,0.796875 1.3359375,1.5820313 0,0.76171874 -0.4921875,1.35937499 -1.1132813,1.35937499 -0.1523437,0 -0.2929687,-0.046875 -0.5273437,-0.22265625 -0.2578125,-0.1875 -0.4453125,-0.26953125 -0.609375,-0.26953125 -0.234375,0 -0.3398438,0.09375 -0.3398438,0.29296875 0,0.3046875 0.375,0.50390625 0.9726563,0.50390625 0.6679687,0 1.2421875,-0.22265625 1.640625,-0.6328125 0.3632812,-0.3515625 0.5273437,-0.80859379 0.5273437,-1.41796879 0,-0.5742187 -0.1523437,-0.9375 -0.5507812,-1.3359375 -0.3398438,-0.3515625 -0.796875,-0.5273437 -1.734375,-0.703125 l 0.328125,-0.6679687 h 1.5585937 c 0.1289063,0 0.1640625,-0.023437 0.1875,-0.082031 z m 0,0"
         style="fill:#000000;fill-opacity:1;fill-rule:nonzero;stroke:none" />
    </g>
    <path
       id="path27"
       d="M 168.84103,32.601956 V 171.20196"
       style="fill:none;stroke:#b0b0b0;stroke-width:0.8;stroke-linecap:square;stroke-linejoin:round;stroke-miterlimit:10;stroke-dasharray:none;stroke-opacity:1"
       transform="matrix(1.2841737,0,0,-1.2841737,-5.3207605,220.14088)"
       clip-path="url(#clipPath28)" />
    <path
       id="path29"
       d="m 211.50044,178.27431 v 4.49461"
       style="fill:#000000;fill-opacity:1;fill-rule:nonzero;stroke:#000000;stroke-width:1.02734;stroke-linecap:butt;stroke-linejoin:round;stroke-miterlimit:10;stroke-dasharray:none;stroke-opacity:1" />
    <g
       id="g29"
       aria-label="2.0"
       transform="matrix(1.2841737,0,0,1.2841737,204.74024,194.28985)">
      <path
         id="path30"
         d="M 3.7845537,-1.0908071 3.679085,-1.1376821 c -0.2929688,0.45703129 -0.3984375,0.52734379 -0.75,0.52734379 H 1.0189287 L 2.3548662,-2.0048696 c 0.7148438,-0.75 1.0195313,-1.3476562 1.0195313,-1.96875 0,-0.796875 -0.6445313,-1.4179687 -1.4648438,-1.4179687 -0.4453125,0 -0.8554687,0.1757812 -1.1484375,0.4921875 -0.2578125,0.28125 -0.375,0.5273437 -0.515625,1.1015625 l 0.1640625,0.035156 c 0.328125,-0.7851562 0.609375,-1.03125 1.1601563,-1.03125 0.6679687,0 1.125,0.4453125 1.125,1.125 0,0.6210938 -0.3632813,1.359375 -1.0429688,2.0625 L 0.23377245,-0.09471331 V -9.633065e-4 H 3.35096 Z m 0,0"
         style="fill:#000000;fill-opacity:1;fill-rule:nonzero;stroke:none" />
      <path
         id="path31"
         d="m 5.8236162,-0.34080706 c 0,-0.24609375 -0.2578125,-0.45703125 -0.5625,-0.45703125 -0.3046875,0 -0.5507812,0.19921875 -0.5507812,0.45703125 0,0.3046875 0.3398437,0.421875 0.5507812,0.421875 0.2109375,0 0.5625,-0.12890625 0.5625,-0.421875 z m 0,0"
         style="fill:#000000;fill-opacity:1;fill-rule:nonzero;stroke:none" />
      <path
         id="path32"
         d="m 10.341194,-2.6259633 c 0,-1.640625 -0.7265622,-2.765625 -1.7695309,-2.765625 -0.4453125,0 -0.7734375,0.140625 -1.0664063,0.421875 -0.46875,0.4453125 -0.7734375,1.359375 -0.7734375,2.296875 0,0.8671875 0.2695313,1.79296874 0.6445313,2.23828124 0.2929687,0.3515625 0.703125,0.55078125 1.1601562,0.55078125 0.4101563,0 0.75,-0.140625 1.03125,-0.421875 0.4687502,-0.43359375 0.7734372,-1.35937499 0.7734372,-2.32031249 z m -0.7734372,0.011719 c 0,1.66406254 -0.3515625,2.51953129 -1.03125,2.51953129 -0.6796875,0 -1.03125,-0.85546875 -1.03125,-2.50781249 0,-1.6992188 0.3515625,-2.578125 1.0429688,-2.578125 0.6679687,0 1.0195312,0.9023437 1.0195312,2.5664062 z m 0,0"
         style="fill:#000000;fill-opacity:1;fill-rule:nonzero;stroke:none" />
    </g>
    <path
       id="path33"
       d="M 202.06891,32.601956 V 171.20196"
       style="fill:none;stroke:#b0b0b0;stroke-width:0.8;stroke-linecap:square;stroke-linejoin:round;stroke-miterlimit:10;stroke-dasharray:none;stroke-opacity:1"
       transform="matrix(1.2841737,0,0,-1.2841737,-5.3207605,220.14088)"
       clip-path="url(#clipPath34)" />
    <path
       id="path35"
       d="m 254.17082,178.27431 v 4.49461"
       style="fill:#000000;fill-opacity:1;fill-rule:nonzero;stroke:#000000;stroke-width:1.02734;stroke-linecap:butt;stroke-linejoin:round;stroke-miterlimit:10;stroke-dasharray:none;stroke-opacity:1" />
    <g
       id="g35"
       aria-label="2.5"
       transform="matrix(1.2841737,0,0,1.2841737,247.41062,194.28985)">
      <path
         id="path36"
         d="m 3.7851841,-1.0908071 -0.1054687,-0.046875 c -0.2929688,0.45703129 -0.3984375,0.52734379 -0.75,0.52734379 H 1.0195591 L 2.3554966,-2.0048696 c 0.7148438,-0.75 1.0195313,-1.3476562 1.0195313,-1.96875 0,-0.796875 -0.6445313,-1.4179687 -1.4648438,-1.4179687 -0.4453125,0 -0.8554687,0.1757812 -1.1484375,0.4921875 -0.2578125,0.28125 -0.375,0.5273437 -0.515625,1.1015625 l 0.1640625,0.035156 c 0.328125,-0.7851562 0.609375,-1.03125 1.1601563,-1.03125 0.6679687,0 1.125,0.4453125 1.125,1.125 0,0.6210938 -0.3632813,1.359375 -1.0429688,2.0625 L 0.23440285,-0.09471331 V -9.633065e-4 H 3.3515904 Z m 0,0"
         style="fill:#000000;fill-opacity:1;fill-rule:nonzero;stroke:none" />
      <path
         id="path37"
         d="m 5.8242466,-0.34080706 c 0,-0.24609375 -0.2578125,-0.45703125 -0.5625,-0.45703125 -0.3046875,0 -0.5507812,0.19921875 -0.5507812,0.45703125 0,0.3046875 0.3398437,0.421875 0.5507812,0.421875 0.2109375,0 0.5625,-0.12890625 0.5625,-0.421875 z m 0,0"
         style="fill:#000000;fill-opacity:1;fill-rule:nonzero;stroke:none" />
      <path
         id="path38"
         d="m 10.034208,-5.4267446 -0.070313,-0.058594 c -0.1171875,0.1640625 -0.1992187,0.2109375 -0.375,0.2109375 H 7.9248325 l -0.8671875,1.886719 c 0,0.011719 0,0.035156 0,0.035156 0,0.046875 0.023437,0.070312 0.09375,0.070312 0.2460938,0 0.5742188,0.058594 0.9023438,0.1523437 0.9140625,0.3046875 1.3359375,0.796875 1.3359375,1.5820313 0,0.76171874 -0.4921875,1.35937499 -1.1132813,1.35937499 -0.1523437,0 -0.2929687,-0.046875 -0.5273437,-0.22265625 -0.2578125,-0.1875 -0.4453125,-0.26953125 -0.609375,-0.26953125 -0.234375,0 -0.3398438,0.09375 -0.3398438,0.29296875 0,0.3046875 0.375,0.50390625 0.9726563,0.50390625 0.6679687,0 1.2421875,-0.22265625 1.640625,-0.6328125 0.3632812,-0.3515625 0.5273437,-0.80859379 0.5273437,-1.41796879 0,-0.5742187 -0.1523437,-0.9375 -0.5507812,-1.3359375 -0.3398438,-0.3515625 -0.796875,-0.5273437 -1.734375,-0.703125 l 0.328125,-0.6679687 H 9.54202 c 0.1289063,0 0.1640625,-0.023437 0.1875,-0.082031 z m 0,0"
         style="fill:#000000;fill-opacity:1;fill-rule:nonzero;stroke:none" />
    </g>
    <path
       id="path41"
       d="M 35.929489,32.601956 H 229.96949"
       style="fill:none;stroke:#b0b0b0;stroke-width:0.8;stroke-linecap:square;stroke-linejoin:round;stroke-miterlimit:10;stroke-dasharray:none;stroke-opacity:1"
       transform="matrix(1.2841737,0,0,-1.2841737,-5.3207605,220.14088)"
       clip-path="url(#clipPath42)" />
    <path
       id="path43"
       d="M 40.818944,178.27431 H 36.324335"
       style="fill:#000000;fill-opacity:1;fill-rule:nonzero;stroke:#000000;stroke-width:1.02734;stroke-linecap:butt;stroke-linejoin:round;stroke-miterlimit:10;stroke-dasharray:none;stroke-opacity:1" />
    <g
       id="g43"
       aria-label="0.0"
       transform="matrix(1.2841737,0,0,1.2841737,18.309292,181.78747)">
      <path
         id="path44"
         d="m 3.7972643,-2.6255793 c 0,-1.640625 -0.7265625,-2.765625 -1.7695313,-2.765625 -0.4453125,0 -0.7734375,0.140625 -1.06640621,0.421875 -0.46875,0.4453125 -0.7734375,1.359375 -0.7734375,2.296875 0,0.8671875 0.26953125,1.79296874 0.64453125,2.23828124 0.29296876,0.3515625 0.70312496,0.55078125 1.16015626,0.55078125 0.4101562,0 0.75,-0.140625 1.03125,-0.421875 0.46875,-0.43359375 0.7734375,-1.35937499 0.7734375,-2.32031249 z m -0.7734375,0.011719 c 0,1.66406254 -0.3515625,2.51953129 -1.03125,2.51953129 -0.6796875,0 -1.03125001,-0.85546875 -1.03125001,-2.50781249 0,-1.6992188 0.35156251,-2.578125 1.04296871,-2.578125 0.6679688,0 1.0195313,0.9023437 1.0195313,2.5664062 z m 0,0"
         style="fill:#000000;fill-opacity:1;fill-rule:nonzero;stroke:none" />
      <path
         id="path45"
         d="m 5.824608,-0.34042306 c 0,-0.24609375 -0.2578125,-0.45703125 -0.5625,-0.45703125 -0.3046875,0 -0.5507812,0.19921875 -0.5507812,0.45703125 0,0.3046875 0.3398437,0.421875 0.5507812,0.421875 0.2109375,0 0.5625,-0.12890625 0.5625,-0.421875 z m 0,0"
         style="fill:#000000;fill-opacity:1;fill-rule:nonzero;stroke:none" />
      <path
         id="path46"
         d="m 10.339256,-2.6255793 c 0,-1.640625 -0.726562,-2.765625 -1.7695308,-2.765625 -0.4453125,0 -0.7734375,0.140625 -1.0664062,0.421875 -0.46875,0.4453125 -0.7734375,1.359375 -0.7734375,2.296875 0,0.8671875 0.2695312,1.79296874 0.6445312,2.23828124 0.2929688,0.3515625 0.703125,0.55078125 1.1601563,0.55078125 0.4101562,0 0.75,-0.140625 1.03125,-0.421875 0.46875,-0.43359375 0.773437,-1.35937499 0.773437,-2.32031249 z m -0.773437,0.011719 c 0,1.66406254 -0.3515625,2.51953129 -1.03125,2.51953129 -0.6796875,0 -1.03125,-0.85546875 -1.03125,-2.50781249 0,-1.6992188 0.3515625,-2.578125 1.0429687,-2.578125 0.6679688,0 1.0195313,0.9023437 1.0195313,2.5664062 z m 0,0"
         style="fill:#000000;fill-opacity:1;fill-rule:nonzero;stroke:none" />
    </g>
    <path
       id="path47"
       d="M 35.929489,56.349342 H 229.96949"
       style="fill:none;stroke:#b0b0b0;stroke-width:0.8;stroke-linecap:square;stroke-linejoin:round;stroke-miterlimit:10;stroke-dasharray:none;stroke-opacity:1"
       transform="matrix(1.2841737,0,0,-1.2841737,-5.3207605,220.14088)"
       clip-path="url(#clipPath48)" />
    <path
       id="path49"
       d="M 40.818944,147.77854 H 36.324335"
       style="fill:#000000;fill-opacity:1;fill-rule:nonzero;stroke:#000000;stroke-width:1.02734;stroke-linecap:butt;stroke-linejoin:round;stroke-miterlimit:10;stroke-dasharray:none;stroke-opacity:1" />
    <g
       id="g49"
       aria-label="0.2"
       transform="matrix(1.2841737,0,0,1.2841737,18.309292,151.2917)">
      <path
         id="path50"
         d="m 3.7972643,-2.6262404 c 0,-1.640625 -0.7265625,-2.765625 -1.7695313,-2.765625 -0.4453125,0 -0.7734375,0.140625 -1.06640621,0.421875 -0.46875,0.4453125 -0.7734375,1.359375 -0.7734375,2.296875 0,0.8671875 0.26953125,1.79296878 0.64453125,2.23828128 0.29296876,0.3515625 0.70312496,0.55078125 1.16015626,0.55078125 0.4101562,0 0.75,-0.140625 1.03125,-0.421875 0.46875,-0.43359375 0.7734375,-1.35937503 0.7734375,-2.32031253 z m -0.7734375,0.011719 c 0,1.66406248 -0.3515625,2.51953123 -1.03125,2.51953123 -0.6796875,0 -1.03125001,-0.85546875 -1.03125001,-2.50781253 0,-1.6992187 0.35156251,-2.578125 1.04296871,-2.578125 0.6679688,0 1.0195313,0.9023438 1.0195313,2.5664063 z m 0,0"
         style="fill:#000000;fill-opacity:1;fill-rule:nonzero;stroke:none" />
      <path
         id="path51"
         d="m 5.824608,-0.34108412 c 0,-0.24609375 -0.2578125,-0.45703125 -0.5625,-0.45703125 -0.3046875,0 -0.5507812,0.19921875 -0.5507812,0.45703125 0,0.3046875 0.3398437,0.421875 0.5507812,0.421875 0.2109375,0 0.5625,-0.12890625 0.5625,-0.421875 z m 0,0"
         style="fill:#000000;fill-opacity:1;fill-rule:nonzero;stroke:none" />
      <path
         id="path52"
         d="m 10.327538,-1.0910841 -0.105469,-0.046875 c -0.2929688,0.45703123 -0.3984375,0.52734373 -0.75,0.52734373 H 7.5619127 L 8.8978502,-2.0051466 c 0.7148438,-0.75 1.0195313,-1.3476563 1.0195313,-1.96875 0,-0.796875 -0.6445313,-1.4179688 -1.4648438,-1.4179688 -0.4453125,0 -0.8554687,0.1757813 -1.1484375,0.4921875 -0.2578125,0.28125 -0.375,0.5273438 -0.515625,1.1015625 l 0.1640625,0.035156 c 0.328125,-0.7851563 0.609375,-1.03125 1.1601563,-1.03125 0.6679687,0 1.125,0.4453125 1.125,1.125 0,0.6210937 -0.3632813,1.359375 -1.0429688,2.0625 l -1.4179687,1.51171873 v 0.09375 H 9.893944 Z m 0,0"
         style="fill:#000000;fill-opacity:1;fill-rule:nonzero;stroke:none" />
    </g>
    <path
       id="path53"
       d="M 35.929489,80.096727 H 229.96949"
       style="fill:none;stroke:#b0b0b0;stroke-width:0.8;stroke-linecap:square;stroke-linejoin:round;stroke-miterlimit:10;stroke-dasharray:none;stroke-opacity:1"
       transform="matrix(1.2841737,0,0,-1.2841737,-5.3207605,220.14088)"
       clip-path="url(#clipPath54)" />
    <path
       id="path55"
       d="M 40.818944,117.28278 H 36.324335"
       style="fill:#000000;fill-opacity:1;fill-rule:nonzero;stroke:#000000;stroke-width:1.02734;stroke-linecap:butt;stroke-linejoin:round;stroke-miterlimit:10;stroke-dasharray:none;stroke-opacity:1" />
    <g
       id="g55"
       aria-label="0.4"
       transform="matrix(1.2841737,0,0,1.2841737,18.309292,120.79593)">
      <path
         id="path56"
         d="m 3.7972643,-2.6239717 c 0,-1.640625 -0.7265625,-2.765625 -1.7695313,-2.765625 -0.4453125,0 -0.7734375,0.140625 -1.06640621,0.421875 -0.46875,0.4453125 -0.7734375,1.359375 -0.7734375,2.296875 0,0.8671875 0.26953125,1.79296871 0.64453125,2.23828121 0.29296876,0.3515625 0.70312496,0.55078125 1.16015626,0.55078125 0.4101562,0 0.75,-0.140625 1.03125,-0.421875 0.46875,-0.43359375 0.7734375,-1.35937496 0.7734375,-2.32031246 z m -0.7734375,0.011719 c 0,1.66406251 -0.3515625,2.51953126 -1.03125,2.51953126 -0.6796875,0 -1.03125001,-0.85546875 -1.03125001,-2.50781246 0,-1.6992188 0.35156251,-2.578125 1.04296871,-2.578125 0.6679688,0 1.0195313,0.9023437 1.0195313,2.5664062 z m 0,0"
         style="fill:#000000;fill-opacity:1;fill-rule:nonzero;stroke:none" />
      <path
         id="path57"
         d="m 5.824608,-0.33881549 c 0,-0.24609375 -0.2578125,-0.45703125 -0.5625,-0.45703125 -0.3046875,0 -0.5507812,0.19921875 -0.5507812,0.45703125 0,0.3046875 0.3398437,0.421875 0.5507812,0.421875 0.2109375,0 0.5625,-0.12890625 0.5625,-0.421875 z m 0,0"
         style="fill:#000000;fill-opacity:1;fill-rule:nonzero;stroke:none" />
      <path
         id="path58"
         d="M 10.3041,-1.3349092 V -1.8388155 H 9.4955065 V -5.3895967 H 9.143944 l -2.5078125,3.5507812 v 0.5039063 H 8.8744127 V 0.00102826 H 9.4955065 V -1.3349092 Z M 8.8744127,-1.8388155 h -1.921875 l 1.921875,-2.7304687 z m 0,0"
         style="fill:#000000;fill-opacity:1;fill-rule:nonzero;stroke:none" />
    </g>
    <path
       id="path59"
       d="M 35.929489,103.84411 H 229.96949"
       style="fill:none;stroke:#b0b0b0;stroke-width:0.8;stroke-linecap:square;stroke-linejoin:round;stroke-miterlimit:10;stroke-dasharray:none;stroke-opacity:1"
       transform="matrix(1.2841737,0,0,-1.2841737,-5.3207605,220.14088)"
       clip-path="url(#clipPath60)" />
    <path
       id="path61"
       d="M 40.818944,86.78701 H 36.324335"
       style="fill:#000000;fill-opacity:1;fill-rule:nonzero;stroke:#000000;stroke-width:1.02734;stroke-linecap:butt;stroke-linejoin:round;stroke-miterlimit:10;stroke-dasharray:none;stroke-opacity:1" />
    <g
       id="g61"
       aria-label="0.6"
       transform="matrix(1.2841737,0,0,1.2841737,18.309292,90.300159)">
      <path
         id="path62"
         d="m 3.7972643,-2.6246328 c 0,-1.640625 -0.7265625,-2.765625 -1.7695313,-2.765625 -0.4453125,0 -0.7734375,0.140625 -1.06640621,0.421875 -0.46875,0.4453125 -0.7734375,1.359375 -0.7734375,2.296875 0,0.8671875 0.26953125,1.79296876 0.64453125,2.23828126 0.29296876,0.3515625 0.70312496,0.55078125 1.16015626,0.55078125 0.4101562,0 0.75,-0.140625 1.03125,-0.421875 0.46875,-0.43359375 0.7734375,-1.35937501 0.7734375,-2.32031251 z m -0.7734375,0.011719 c 0,1.66406246 -0.3515625,2.51953121 -1.03125,2.51953121 -0.6796875,0 -1.03125001,-0.85546875 -1.03125001,-2.50781251 0,-1.6992187 0.35156251,-2.578125 1.04296871,-2.578125 0.6679688,0 1.0195313,0.9023438 1.0195313,2.5664063 z m 0,0"
         style="fill:#000000;fill-opacity:1;fill-rule:nonzero;stroke:none" />
      <path
         id="path63"
         d="m 5.824608,-0.33947654 c 0,-0.24609375 -0.2578125,-0.45703125 -0.5625,-0.45703125 -0.3046875,0 -0.5507812,0.19921875 -0.5507812,0.45703125 0,0.3046875 0.3398437,0.421875 0.5507812,0.421875 0.2109375,0 0.5625,-0.12890625 0.5625,-0.421875 z m 0,0"
         style="fill:#000000;fill-opacity:1;fill-rule:nonzero;stroke:none" />
      <path
         id="path64"
         d="m 10.268944,-1.7457265 c 0,-1.0195313 -0.5742188,-1.6640625 -1.5,-1.6640625 -0.3515625,0 -0.515625,0.058594 -1.0195313,0.3632812 C 7.972069,-4.253539 8.862694,-5.1207265 10.1166,-5.3199453 l -0.02344,-0.1289062 c -0.902344,0.082031 -1.371094,0.234375 -1.9453128,0.6328125 -0.8671875,0.6210937 -1.3359375,1.5234375 -1.3359375,2.5898437 0,0.6914063 0.2109375,1.39453126 0.5625,1.79296876 0.3046875,0.3515625 0.7265625,0.55078125 1.21875,0.55078125 0.9960938,0 1.6757813,-0.76171875 1.6757813,-1.86328121 z m -0.7148438,0.2695312 c 0,0.87890626 -0.3046875,1.35937501 -0.8671875,1.35937501 -0.703125,0 -1.1367187,-0.73828125 -1.1367187,-1.98046871 0,-0.4101563 0.070312,-0.6328125 0.2226562,-0.75 0.1757813,-0.1289063 0.421875,-0.1992188 0.703125,-0.1992188 0.6796875,0 1.078125,0.5742188 1.078125,1.5703125 z m 0,0"
         style="fill:#000000;fill-opacity:1;fill-rule:nonzero;stroke:none" />
    </g>
    <path
       id="path65"
       d="M 35.929489,127.5915 H 229.96949"
       style="fill:none;stroke:#b0b0b0;stroke-width:0.8;stroke-linecap:square;stroke-linejoin:round;stroke-miterlimit:10;stroke-dasharray:none;stroke-opacity:1"
       transform="matrix(1.2841737,0,0,-1.2841737,-5.3207605,220.14088)"
       clip-path="url(#clipPath66)" />
    <path
       id="path67"
       d="M 40.818944,56.291237 H 36.324335"
       style="fill:#000000;fill-opacity:1;fill-rule:nonzero;stroke:#000000;stroke-width:1.02734;stroke-linecap:butt;stroke-linejoin:round;stroke-miterlimit:10;stroke-dasharray:none;stroke-opacity:1" />
    <g
       id="g67"
       aria-label="0.8"
       transform="matrix(1.2841737,0,0,1.2841737,18.309292,59.804393)">
      <path
         id="path68"
         d="m 3.7972643,-2.6252939 c 0,-1.640625 -0.7265625,-2.765625 -1.7695313,-2.765625 -0.4453125,0 -0.7734375,0.140625 -1.06640621,0.421875 -0.46875,0.4453125 -0.7734375,1.359375 -0.7734375,2.296875 0,0.8671875 0.26953125,1.7929688 0.64453125,2.2382813 0.29296876,0.3515625 0.70312496,0.55078125 1.16015626,0.55078125 0.4101562,0 0.75,-0.140625 1.03125,-0.421875 0.46875,-0.43359375 0.7734375,-1.35937505 0.7734375,-2.32031255 z m -0.7734375,0.011719 c 0,1.6640625 -0.3515625,2.51953125 -1.03125,2.51953125 -0.6796875,0 -1.03125001,-0.85546875 -1.03125001,-2.50781255 0,-1.6992187 0.35156251,-2.578125 1.04296871,-2.578125 0.6679688,0 1.0195313,0.9023438 1.0195313,2.5664063 z m 0,0"
         style="fill:#000000;fill-opacity:1;fill-rule:nonzero;stroke:none" />
      <path
         id="path69"
         d="m 5.824608,-0.3401376 c 0,-0.24609375 -0.2578125,-0.45703125 -0.5625,-0.45703125 -0.3046875,0 -0.5507812,0.19921875 -0.5507812,0.45703125 0,0.3046875 0.3398437,0.421875 0.5507812,0.421875 0.2109375,0 0.5625,-0.12890625 0.5625,-0.421875 z m 0,0"
         style="fill:#000000;fill-opacity:1;fill-rule:nonzero;stroke:none" />
      <path
         id="path70"
         d="m 10.093163,-1.2307626 c 0,-0.6210938 -0.2812503,-1.0078125 -1.2421878,-1.7226563 0.796875,-0.421875 1.0664063,-0.7617187 1.0664063,-1.3007812 0,-0.65625 -0.5742188,-1.1367188 -1.3710938,-1.1367188 -0.8671875,0 -1.5117187,0.5390625 -1.5117187,1.265625 0,0.515625 0.1523437,0.75 0.984375,1.4765625 -0.8554688,0.65625 -1.03125,0.9023438 -1.03125,1.4414063 0,0.7734375 0.6328125,1.32421875 1.5351562,1.32421875 0.9492188,0 1.5703128,-0.52734375 1.5703128,-1.34765625 z m -0.6093753,0.24609375 c 0,0.515625 -0.3632812,0.8671875 -0.8789062,0.8671875 -0.609375,0 -1.0078125,-0.45703125 -1.0078125,-1.14843755 0,-0.515625 0.1757812,-0.84375 0.6328125,-1.21875 l 0.4804687,0.3515625 c 0.5859375,0.4101563 0.7734375,0.703125 0.7734375,1.14843755 z M 9.3666002,-4.2659189 c 0,0.4570313 -0.2226562,0.8203125 -0.6679687,1.1132813 -0.046875,0.023437 -0.046875,0.023437 -0.082031,0.046875 -0.703125,-0.4570313 -0.9960937,-0.8203125 -0.9960937,-1.265625 0,-0.46875 0.3632812,-0.796875 0.8671875,-0.796875 0.5390625,0 0.8789062,0.3515625 0.8789059,0.9023437 z m 0,0"
         style="fill:#000000;fill-opacity:1;fill-rule:nonzero;stroke:none" />
    </g>
    <path
       id="path71"
       d="M 35.929489,151.33888 H 229.96949"
       style="fill:none;stroke:#b0b0b0;stroke-width:0.8;stroke-linecap:square;stroke-linejoin:round;stroke-miterlimit:10;stroke-dasharray:none;stroke-opacity:1"
       transform="matrix(1.2841737,0,0,-1.2841737,-5.3207605,220.14088)"
       clip-path="url(#clipPath72)" />
    <path
       id="path73"
       d="M 40.818944,25.795477 H 36.324335"
       style="fill:#000000;fill-opacity:1;fill-rule:nonzero;stroke:#000000;stroke-width:1.02734;stroke-linecap:butt;stroke-linejoin:round;stroke-miterlimit:10;stroke-dasharray:none;stroke-opacity:1" />
    <g
       id="g73"
       aria-label="1.0"
       transform="matrix(1.2841737,0,0,1.2841737,18.309292,29.308624)">
      <path
         id="path74"
         d="M 3.1410143,-9.549079e-4 V -0.11814241 c -0.6328125,-0.0117188 -0.7617188,-0.09375 -0.7617188,-0.46875 V -5.3681424 l -0.058594,-0.023437 -1.44140626,0.7265625 v 0.1171875 c 0.10546875,-0.046875 0.18749996,-0.070312 0.22265626,-0.09375 0.140625,-0.058594 0.28125,-0.082031 0.3515625,-0.082031 0.1757812,0 0.2460937,0.1171875 0.2460937,0.375 v 3.60937504 c 0,0.2578125 -0.070312,0.4453125 -0.1875,0.515625 -0.1289062,0.0703125 -0.234375,0.09375 -0.57421871,0.10546875 v 0.1171875021 z m 0,0"
         style="fill:#000000;fill-opacity:1;fill-rule:nonzero;stroke:none" />
      <path
         id="path75"
         d="m 5.824608,-0.34079866 c 0,-0.24609375 -0.2578125,-0.45703125 -0.5625,-0.45703125 -0.3046875,0 -0.5507812,0.19921875 -0.5507812,0.45703125 0,0.3046875 0.3398437,0.421875 0.5507812,0.421875 0.2109375,0 0.5625,-0.12890625 0.5625,-0.421875 z m 0,0"
         style="fill:#000000;fill-opacity:1;fill-rule:nonzero;stroke:none" />
      <path
         id="path76"
         d="m 10.339256,-2.6259549 c 0,-1.640625 -0.726562,-2.765625 -1.7695308,-2.765625 -0.4453125,0 -0.7734375,0.140625 -1.0664062,0.421875 -0.46875,0.4453125 -0.7734375,1.359375 -0.7734375,2.296875 0,0.8671875 0.2695312,1.79296874 0.6445312,2.23828124 0.2929688,0.3515625 0.703125,0.55078125 1.1601563,0.55078125 0.4101562,0 0.75,-0.140625 1.03125,-0.421875 0.46875,-0.43359375 0.773437,-1.35937499 0.773437,-2.32031249 z m -0.773437,0.011719 c 0,1.66406254 -0.3515625,2.51953129 -1.03125,2.51953129 -0.6796875,0 -1.03125,-0.85546875 -1.03125,-2.50781249 0,-1.6992188 0.3515625,-2.578125 1.0429687,-2.578125 0.6679688,0 1.0195313,0.9023437 1.0195313,2.5664062 z m 0,0"
         style="fill:#000000;fill-opacity:1;fill-rule:nonzero;stroke:none" />
    </g>
    <path
       id="path80"
       d="m 35.929489,89.416144 7.07991,7.678829 9.450371,14.492477 11.671849,14.15861 13.039781,10.73647 13.676698,7.62621 13.941712,5.63185 14.04797,4.09825 14.08334,3.63991 14.06038,2.76271 14.01268,2.52384 13.94975,1.89134 13.87076,2.10507 13.77741,1.72688 13.69607,1.53846 13.68132,1.17491"
       style="fill:none;stroke:#0000ff;stroke-width:1.5;stroke-linecap:square;stroke-linejoin:round;stroke-miterlimit:10;stroke-dasharray:none;stroke-opacity:1"
       transform="matrix(1.2841737,0,0,-1.2841737,-5.3207605,220.14088)"
       clip-path="url(#clipPath81)" />
    <path
       id="path82"
       d="m 35.929489,32.601956 2.793218,2.403576 2.815429,2.403577 2.858859,2.403577 2.921745,2.403576 3.001883,2.403577 3.096954,2.403577 3.204756,2.403576 3.323329,2.403577 3.451002,2.403576 3.586384,2.403577 3.728334,2.403577 3.87593,2.403576 4.028417,2.403577 4.185194,2.403577 4.345774,2.403576"
       style="fill:none;stroke:#ff0000;stroke-width:1.5;stroke-linecap:square;stroke-linejoin:round;stroke-miterlimit:10;stroke-dasharray:none;stroke-opacity:1"
       transform="matrix(1.2841737,0,0,-1.2841737,-5.3207605,220.14088)"
       clip-path="url(#clipPath83)" />
    <path
       id="path84"
       d="m 35.929489,56.342214 5.900518,1.809106 5.840856,4.758755 5.730109,6.528969 5.565627,7.450524 5.339579,7.877795 5.041384,7.999714 4.655763,7.885583 4.174229,7.5617 3.600986,7.04592 2.978695,6.41383 2.341511,5.72281 1.725118,5.03492 1.161531,4.41207 0.656198,3.86735 0.206505,3.39748"
       style="fill:none;stroke:#0000ff;stroke-width:1;stroke-linecap:butt;stroke-linejoin:round;stroke-miterlimit:10;stroke-dasharray:3.7, 1.6;stroke-dashoffset:0;stroke-opacity:1"
       transform="matrix(1.2841737,0,0,-1.2841737,-5.3207605,220.14088)"
       clip-path="url(#clipPath85)" />
    <path
       id="path86"
       d="m 35.929489,34.065461 15.007718,11.978737 14.915957,13.294965 14.722021,13.256487 14.359904,13.099924 13.679181,12.701434 12.47298,11.865622 10.68767,10.52439 8.6185,8.92389 6.654,7.40483 4.97718,6.13069 3.62938,5.14242 2.53428,4.37147 1.64277,3.7758 0.902,3.30804 0.26115,2.92114"
       style="fill:none;stroke:#ff0000;stroke-width:1;stroke-linecap:butt;stroke-linejoin:round;stroke-miterlimit:10;stroke-dasharray:3.7, 1.6;stroke-dashoffset:0;stroke-opacity:1"
       transform="matrix(1.2841737,0,0,-1.2841737,-5.3207605,220.14088)"
       clip-path="url(#clipPath87)" />
    <path
       id="path88"
       d="m 87.063072,68.655605 21.576878,12.203817 21.09771,12.53417 20.0428,12.282268 18.06753,11.38843 15.268,9.95074 12.25187,8.34594 9.51242,6.8769 7.3463,5.72918 5.59839,4.81741 4.21675,4.11354 3.12425,3.57628 2.21815,3.14348 1.47064,2.79946 0.82533,2.50778 0.2894,2.27696"
       style="fill:none;stroke:#0000ff;stroke-width:1;stroke-linecap:butt;stroke-linejoin:round;stroke-miterlimit:10;stroke-dasharray:6.4, 1.6, 1, 1.6;stroke-dashoffset:0;stroke-opacity:1"
       transform="matrix(1.2841737,0,0,-1.2841737,-5.3207605,220.14088)"
       clip-path="url(#clipPath89)" />
    <path
       id="path90"
       d="M 40.818944,178.27431 V 0.28783326"
       style="fill:none;stroke:#000000;stroke-width:1.02734;stroke-linecap:square;stroke-linejoin:miter;stroke-miterlimit:10;stroke-dasharray:none;stroke-opacity:1" />
    <path
       id="path91"
       d="M 290,178.27431 V 0.28783326"
       style="fill:none;stroke:#000000;stroke-width:1.02734;stroke-linecap:square;stroke-linejoin:miter;stroke-miterlimit:10;stroke-dasharray:none;stroke-opacity:1" />
    <path
       id="path92"
       d="M 40.818944,178.27431 H 290"
       style="fill:none;stroke:#000000;stroke-width:1.02734;stroke-linecap:square;stroke-linejoin:miter;stroke-miterlimit:10;stroke-dasharray:none;stroke-opacity:1" />
    <path
       id="path93"
       d="M 40.818944,0.28783326 H 290"
       style="fill:none;stroke:#000000;stroke-width:1.02734;stroke-linecap:square;stroke-linejoin:miter;stroke-miterlimit:10;stroke-dasharray:none;stroke-opacity:1" />
    <path
       id="path94"
       d="m 208.19516,173.13762 h 74.61347 c 1.36979,0 2.05468,-0.6849 2.05468,-2.05468 V 99.365004 c 0,-1.369784 -0.68489,-2.054678 -2.05468,-2.054678 h -74.61347 c -1.36979,0 -2.05467,0.684894 -2.05467,2.054678 v 71.717936 c 0,1.36978 0.68488,2.05468 2.05467,2.05468 z"
       style="fill:#ffffff;fill-opacity:0.8;fill-rule:nonzero;stroke:#cccccc;stroke-width:1.28418;stroke-linecap:butt;stroke-linejoin:miter;stroke-miterlimit:10;stroke-dasharray:none;stroke-opacity:0.8" />
    <path
       id="path95"
       d="m 210.24984,105.01537 h 10.27339 10.27339"
       style="fill:none;stroke:#0000ff;stroke-width:1.92627;stroke-linecap:square;stroke-linejoin:round;stroke-miterlimit:10;stroke-dasharray:none;stroke-opacity:1" />
    <path
       id="path96"
       d="m 247.85084,108.61139 v -0.19564 c -0.75244,-0.0452 -0.88788,-0.19563 -0.88788,-0.91798 V 102.953 c 0,-0.72235 0.13544,-0.85779 0.88788,-0.91798 v -0.19564 h -2.0316 l -2.27238,5.16178 -2.36268,-5.16178 h -2.01656 v 0.19564 c 0.82769,0.0451 0.96314,0.16553 0.96314,0.91798 v 4.1535 c 0,1.05342 -0.13545,1.24906 -0.99324,1.30925 v 0.19564 h 2.40782 v -0.19564 c -0.78253,-0.0452 -0.96312,-0.27088 -0.96312,-1.30925 v -4.1234 l 2.57336,5.62829 h 0.13544 l 2.61851,-5.86908 v 4.63507 c 0,0.85779 -0.12039,0.99323 -0.93303,1.03837 v 0.19564 z m 6.31678,-5.04139 -0.0601,-1.73062 h -5.76373 l -0.0602,1.73062 h 0.24078 c 0.24079,-1.11361 0.48157,-1.30925 1.62529,-1.30925 h 0.5568 v 5.11663 c 0,0.87284 -0.12039,0.99323 -0.96313,1.03837 v 0.19564 h 2.97969 v -0.19564 c -0.82769,-0.0452 -0.97817,-0.16553 -0.97817,-0.91798 v -5.23702 h 0.5568 c 1.15877,0 1.3845,0.19564 1.62528,1.30925 z m 5.74493,0.1204 c 0,-0.43642 -0.15049,-0.81265 -0.42138,-1.11362 -0.42137,-0.45147 -1.30925,-0.7374 -2.27238,-0.7374 h -2.69376 v 0.19564 c 0.75245,0.0752 0.85779,0.18058 0.85779,0.91798 v 4.42438 c 0,0.87284 -0.0752,0.96313 -0.85779,1.03837 v 0.19564 h 2.8593 v -0.19564 c -0.7976,-0.0301 -0.96314,-0.16553 -0.96314,-0.91798 v -1.86606 c 0.27088,0.0151 0.45147,0.0301 0.70731,0.0301 0.79759,0 1.3544,-0.10534 1.79081,-0.34613 0.61701,-0.33108 0.99324,-0.94808 0.99324,-1.62528 z m -1.12867,0.0602 c 0,0.99322 -0.60196,1.50489 -1.77578,1.50489 -0.19563,0 -0.34612,-0.015 -0.58691,-0.0301 v -2.66366 c 0,-0.27088 0.0752,-0.34613 0.34613,-0.34613 1.3845,0 2.01656,0.48157 2.01656,1.53499 z m 7.55832,4.86079 v -0.19563 c -0.46653,-0.0301 -0.55682,-0.13544 -0.918,-0.88789 l -2.54326,-5.80888 h -0.21069 l -2.12189,5.02634 c -0.66215,1.48984 -0.78254,1.64033 -1.27916,1.67043 v 0.19563 h 2.03161 v -0.19563 c -0.49662,0 -0.69226,-0.13544 -0.69226,-0.42137 0,-0.12039 0.0301,-0.25583 0.0753,-0.39127 l 0.46652,-1.20392 h 2.6787 l 0.42137,0.97818 c 0.13544,0.28593 0.19564,0.54176 0.19564,0.7073 0,0.0903 -0.0602,0.19564 -0.13544,0.24079 -0.1204,0.0753 -0.21069,0.0903 -0.57187,0.0903 v 0.19564 z m -2.64861,-2.63355 h -2.36268 l 1.17381,-2.81415 z m 0,0"
       style="fill:#000000;fill-opacity:1;fill-rule:nonzero;stroke:none;stroke-width:1.28418"
       aria-label="MTPA" />
    <path
       id="path97"
       d="m 210.24984,119.56443 h 10.27339 10.27339"
       style="fill:none;stroke:#ff0000;stroke-width:1.92627;stroke-linecap:square;stroke-linejoin:round;stroke-miterlimit:10;stroke-dasharray:none;stroke-opacity:1" />
    <path
       id="path98"
       d="m 247.85084,123.15993 v -0.19564 c -0.75244,-0.0451 -0.88788,-0.19563 -0.88788,-0.91798 v -4.54477 c 0,-0.72235 0.13544,-0.85779 0.88788,-0.91799 v -0.19562 h -2.0316 l -2.27238,5.16176 -2.36268,-5.16176 h -2.01656 v 0.19562 c 0.82769,0.0451 0.96314,0.16554 0.96314,0.91799 v 4.1535 c 0,1.05342 -0.13545,1.24906 -0.99324,1.30925 v 0.19564 h 2.40782 v -0.19564 c -0.78253,-0.0451 -0.96312,-0.27088 -0.96312,-1.30925 v -4.1234 l 2.57336,5.62829 h 0.13544 l 2.61851,-5.86907 v 4.63506 c 0,0.85778 -0.12039,0.99323 -0.93303,1.03837 v 0.19564 z m 6.31678,-5.04139 -0.0601,-1.73061 h -5.76373 l -0.0602,1.73061 h 0.24078 c 0.24079,-1.11361 0.48157,-1.30925 1.62529,-1.30925 h 0.5568 v 5.11663 c 0,0.87283 -0.12039,0.99323 -0.96313,1.03837 v 0.19564 h 2.97969 v -0.19564 c -0.82769,-0.0451 -0.97817,-0.16554 -0.97817,-0.91798 v -5.23702 h 0.5568 c 1.15877,0 1.3845,0.19564 1.62528,1.30925 z m 5.74493,0.1204 c 0,-0.43642 -0.15049,-0.81264 -0.42138,-1.11362 -0.42137,-0.45147 -1.30925,-0.73739 -2.27238,-0.73739 h -2.69376 v 0.19562 c 0.75245,0.0753 0.85779,0.18059 0.85779,0.91799 v 4.42438 c 0,0.87283 -0.0752,0.96313 -0.85779,1.03837 v 0.19564 h 2.8593 v -0.19564 c -0.7976,-0.0301 -0.96314,-0.16554 -0.96314,-0.91798 v -1.86607 c 0.27088,0.015 0.45147,0.0301 0.70731,0.0301 0.79759,0 1.3544,-0.10538 1.79081,-0.34613 0.61701,-0.33107 0.99324,-0.94808 0.99324,-1.62527 z m -1.12867,0.0602 c 0,0.99324 -0.60196,1.5049 -1.77578,1.5049 -0.19563,0 -0.34612,-0.015 -0.58691,-0.0301 v -2.66366 c 0,-0.27088 0.0752,-0.34613 0.34613,-0.34613 1.3845,0 2.01656,0.48157 2.01656,1.53499 z m 8.386,-1.71557 v -0.19563 h -2.09179 v 0.19563 c 0.5568,0.0301 0.73739,0.13545 0.73739,0.42138 0,0.16553 -0.0752,0.45146 -0.19564,0.75244 l -1.50489,3.76223 -1.53498,-3.46125 c -0.34613,-0.75245 -0.42138,-0.99324 -0.42138,-1.14372 0,-0.19563 0.13545,-0.30098 0.46651,-0.31603 0.0451,0 0.1505,-0.015 0.30098,-0.015 v -0.19563 h -2.72385 v 0.19563 c 0.49662,0.015 0.64711,0.16554 1.08353,1.06847 l 2.51317,5.61325 h 0.15048 l 2.27239,-5.73364 c 0.34612,-0.81264 0.45146,-0.91798 0.94808,-0.94808 z m 0,0"
       style="fill:#000000;fill-opacity:1;fill-rule:nonzero;stroke:none;stroke-width:1.28418"
       aria-label="MTPV" />
    <path
       id="path99"
       d="m 210.24984,134.11348 h 10.27339 10.27339"
       style="fill:none;stroke:#0000ff;stroke-width:1.28418;stroke-linecap:butt;stroke-linejoin:round;stroke-miterlimit:10;stroke-dasharray:4.75144, 2.05468;stroke-dashoffset:0;stroke-opacity:1" />
    <g
       id="g99"
       aria-label="ð‘–&#10;s&#10;=1p.u."
       transform="matrix(1.2841737,0,0,1.2841737,239.01535,137.70916)">
      <path
         id="path100"
         d="m 2.1342009,-0.82085466 -0.1289063,-0.09375 c -0.375,0.45703125 -0.5742187,0.6328125 -0.7265625,0.6328125 -0.070312,0 -0.140625,-0.0585938 -0.1523437,-0.12890625 0,-0.12890625 0.082031,-0.36328125 0.1289062,-0.52734375 l 0.65625,-2.56640624 0.046875,-0.011719 c -0.9492187,0.1523438 -1.13671873,0.1757813 -1.49999998,0.1992188 v 0.1289062 c 0.4921875,0.011719 0.56249998,0.035156 0.57421878,0.1875 0,0.070312 -0.023437,0.1992188 -0.0703125,0.3515625 l -0.3515625,1.4179688 c -0.12890625,0.46874999 -0.17578125,0.70312499 -0.17578125,0.86718749 0.0117188,0.29296875 0.1640625,0.4453125 0.43359375,0.4453125 0.4453125,0 0.7617187,-0.234375 1.265625,-0.90234355 z m 0.234375,-3.87890624 c -0.011719,-0.2226563 -0.2109375,-0.421875 -0.4570313,-0.421875 -0.2578125,0 -0.4335937,0.1757812 -0.4335937,0.421875 0.011719,0.2578125 0.1992187,0.421875 0.46875,0.421875 0.234375,0 0.4335937,-0.1875 0.421875,-0.421875 z m 0,0"
         style="fill:#000000;fill-opacity:1;fill-rule:nonzero;stroke:none" />
      <path
         id="path101"
         d="m 4.5453337,0.49164534 c 0,-0.3046875 -0.1289063,-0.50390625 -0.4921875,-0.71484375 L 3.4086149,-0.60991716 c -0.1757812,-0.09375 -0.2578125,-0.234375 -0.2578125,-0.39843754 0,-0.2460937 0.1757813,-0.4101562 0.4570313,-0.4101562 0.3398437,0 0.515625,0.1992187 0.65625,0.73828124 h 0.09375 L 4.3343962,-1.4888234 h -0.070312 l -0.011719,0.011719 c -0.058594,0.035156 -0.058594,0.046875 -0.082031,0.046875 -0.035156,0 -0.09375,-0.011719 -0.1640625,-0.046875 -0.1289063,-0.046875 -0.2578125,-0.070312 -0.4101563,-0.070312 -0.4804687,0 -0.8203125,0.2929688 -0.8203125,0.73828129 0,0.328125 0.1875,0.5625 0.703125,0.85546875 l 0.3398438,0.19921875 c 0.2109375,0.1171875 0.3164062,0.2578125 0.3164062,0.4453125 0,0.26953125 -0.1992187,0.43359371 -0.5039062,0.43359371 -0.4101563,0 -0.6210938,-0.22265621 -0.75,-0.84374996 h -0.09375 V 1.2182078 h 0.070312 c 0.046875,-0.058594 0.070312,-0.070312 0.140625,-0.070312 0.058594,0 0.1289062,0.011719 0.2695312,0.046875 0.1757813,0.035156 0.3164063,0.058594 0.4453125,0.058594 0.4570313,0 0.8320313,-0.33984376 0.8320313,-0.76171946 z m 0,0"
         style="fill:#000000;fill-opacity:1;fill-rule:nonzero;stroke:none" />
      <path
         id="path102"
         d="M 12.07756,-2.6255422 V -3.0708547 H 7.9994352 v 0.4453125 z m 0,1.6171875 V -1.4536672 H 7.9994352 v 0.4453125 z m 0,0"
         style="fill:#000000;fill-opacity:1;fill-rule:nonzero;stroke:none" />
      <path
         id="path103"
         d="M 17.711349,-5.421564e-4 V -0.11772966 c -0.632812,-0.0117188 -0.761718,-0.09375 -0.761718,-0.46875 V -5.3677297 l -0.05859,-0.023437 -1.441406,0.7265625 v 0.1171875 c 0.105468,-0.046875 0.1875,-0.070312 0.222656,-0.09375 0.140625,-0.058594 0.28125,-0.082031 0.351562,-0.082031 0.175782,0 0.246094,0.1171875 0.246094,0.375 v 3.60937499 c 0,0.2578125 -0.07031,0.4453125 -0.1875,0.515625 -0.128906,0.0703125 -0.234375,0.09375 -0.574219,0.10546875 V -5.421564e-4 Z M 24.297287,-1.9692922 c 0,-0.984375 -0.5625,-1.6992187 -1.335938,-1.6992187 -0.445312,0 -0.796875,0.1992187 -1.148437,0.6328125 v -0.609375 l -0.04687,-0.023437 c -0.433594,0.1640625 -0.703125,0.2695312 -1.148438,0.4101562 v 0.1289063 c 0.07031,-0.011719 0.128907,-0.011719 0.199219,-0.011719 0.269531,0 0.328125,0.082031 0.328125,0.4570313 v 3.7265625 c 0,0.4101562 -0.08203,0.5039062 -0.5625,0.5507812 v 0.140625 h 1.933594 v -0.152344 c -0.597656,0 -0.703125,-0.09375 -0.703125,-0.59765626 v -1.2421875 c 0.28125,0.2578125036 0.46875,0.33984375 0.808594,0.33984375 0.9375,0 1.675781,-0.890625 1.675781,-2.05078129 z m -0.691406,0.3164063 c 0,0.87890624 -0.386719,1.47656249 -0.960938,1.47656249 -0.375,0 -0.832031,-0.28125 -0.832031,-0.52734375 V -2.6606984 c 0,-0.2460938 0.445312,-0.5273438 0.808594,-0.5273438 0.597656,0 0.984375,0.609375 0.984375,1.5351563 z m 2.367187,1.31249999 c 0,-0.24609375 -0.210937,-0.45703125 -0.445312,-0.45703125 -0.234375,0 -0.433594,0.2109375 -0.433594,0.45703125 0,0.22265625 0.199219,0.421875 0.421875,0.421875 0.246094,0 0.457031,-0.19921875 0.457031,-0.421875 z m 4.371094,0.0585938 v -0.1171875 h -0.04687 c -0.363281,0 -0.445313,-0.0820313 -0.445313,-0.45703125 V -3.5864797 h -1.265625 v 0.140625 c 0.492188,0.023437 0.585938,0.09375 0.585938,0.4921875 v 1.875 c 0,0.22265629 -0.03516,0.33984379 -0.128906,0.41015629 -0.222657,0.1875 -0.46875,0.28125 -0.714844,0.28125 -0.316406,0 -0.574219,-0.26953125 -0.574219,-0.59765625 V -3.5864797 h -1.160156 v 0.1171875 c 0.386719,0.023437 0.492187,0.140625 0.492187,0.5039063 v 2.00390624 c 0,0.6328125 0.386719,1.04296875 0.972657,1.04296875 0.292968,0 0.597656,-0.12890625 0.820312,-0.33984375 l 0.339844,-0.3515625 v 0.66796875 l 0.03516,0.01171875 c 0.398438,-0.15234375 0.679688,-0.24609375 1.089844,-0.3515625 z m 1.608398,-0.0585938 c 0,-0.24609375 -0.210937,-0.45703125 -0.445312,-0.45703125 -0.234375,0 -0.433594,0.2109375 -0.433594,0.45703125 0,0.22265625 0.199219,0.421875 0.421875,0.421875 0.246094,0 0.457031,-0.19921875 0.457031,-0.421875 z m 0,0"
         style="fill:#000000;fill-opacity:1;fill-rule:nonzero;stroke:none" />
    </g>
    <path
       id="path104"
       d="m 210.24984,148.66253 h 10.27339 10.27339"
       style="fill:none;stroke:#ff0000;stroke-width:1.28418;stroke-linecap:butt;stroke-linejoin:round;stroke-miterlimit:10;stroke-dasharray:4.75144, 2.05468;stroke-dashoffset:0;stroke-opacity:1" />
    <g
       id="g104"
       aria-label="ð‘–&#10;s&#10;=2p.u."
       transform="matrix(1.2841737,0,0,1.2841737,239.01535,152.25822)">
      <path
         id="path105"
         d="m 2.1342009,-0.82125988 -0.1289063,-0.09375 c -0.375,0.45703125 -0.5742187,0.6328125 -0.7265625,0.6328125 -0.070312,0 -0.140625,-0.0585938 -0.1523437,-0.12890625 0,-0.12890625 0.082031,-0.36328125 0.1289062,-0.52734375 l 0.65625,-2.56640622 0.046875,-0.011719 c -0.9492187,0.1523438 -1.13671873,0.1757813 -1.49999998,0.1992188 v 0.1289062 c 0.4921875,0.011719 0.56249998,0.035156 0.57421878,0.1875 0,0.070312 -0.023437,0.1992188 -0.0703125,0.3515625 l -0.3515625,1.4179688 c -0.12890625,0.46874997 -0.17578125,0.70312497 -0.17578125,0.86718747 0.0117188,0.29296875 0.1640625,0.4453125 0.43359375,0.4453125 0.4453125,0 0.7617187,-0.234375 1.265625,-0.90234355 z m 0.234375,-3.87890622 c -0.011719,-0.2226563 -0.2109375,-0.421875 -0.4570313,-0.421875 -0.2578125,0 -0.4335937,0.1757812 -0.4335937,0.421875 0.011719,0.2578125 0.1992187,0.421875 0.46875,0.421875 0.234375,0 0.4335937,-0.1875 0.421875,-0.421875 z m 0,0"
         style="fill:#000000;fill-opacity:1;fill-rule:nonzero;stroke:none" />
      <path
         id="path106"
         d="m 4.5453337,0.49124012 c 0,-0.3046875 -0.1289063,-0.50390625 -0.4921875,-0.71484375 L 3.4086149,-0.61032238 c -0.1757812,-0.09375 -0.2578125,-0.234375 -0.2578125,-0.39843752 0,-0.2460937 0.1757813,-0.4101562 0.4570313,-0.4101562 0.3398437,0 0.515625,0.1992187 0.65625,0.73828122 h 0.09375 L 4.3343962,-1.4892286 h -0.070312 l -0.011719,0.011719 c -0.058594,0.035156 -0.058594,0.046875 -0.082031,0.046875 -0.035156,0 -0.09375,-0.011719 -0.1640625,-0.046875 -0.1289063,-0.046875 -0.2578125,-0.070312 -0.4101563,-0.070312 -0.4804687,0 -0.8203125,0.2929688 -0.8203125,0.73828127 0,0.328125 0.1875,0.5625 0.703125,0.85546875 l 0.3398438,0.19921875 c 0.2109375,0.1171875 0.3164062,0.2578125 0.3164062,0.4453125 0,0.26953125 -0.1992187,0.43359373 -0.5039062,0.43359373 -0.4101563,0 -0.6210938,-0.22265623 -0.75,-0.84374998 h -0.09375 V 1.2178026 h 0.070312 c 0.046875,-0.058594 0.070312,-0.070312 0.140625,-0.070312 0.058594,0 0.1289062,0.011719 0.2695312,0.046875 0.1757813,0.035156 0.3164063,0.058594 0.4453125,0.058594 0.4570313,0 0.8320313,-0.33984378 0.8320313,-0.76171948 z m 0,0"
         style="fill:#000000;fill-opacity:1;fill-rule:nonzero;stroke:none" />
      <path
         id="path107"
         d="M 12.07756,-2.6259474 V -3.0712599 H 7.9994352 v 0.4453125 z m 0,1.6171875 V -1.4540724 H 7.9994352 v 0.4453125 z m 0,0"
         style="fill:#000000;fill-opacity:1;fill-rule:nonzero;stroke:none" />
      <path
         id="path108"
         d="m 18.355881,-1.0907911 -0.105469,-0.046875 c -0.292969,0.45703122 -0.398438,0.52734372 -0.75,0.52734372 h -1.910156 l 1.335937,-1.39453122 c 0.714844,-0.75 1.019531,-1.3476563 1.019531,-1.96875 0,-0.796875 -0.644531,-1.4179688 -1.464843,-1.4179688 -0.445313,0 -0.855469,0.1757813 -1.148438,0.4921875 -0.257812,0.28125 -0.375,0.5273438 -0.515625,1.1015625 l 0.164063,0.035156 c 0.328125,-0.7851563 0.609375,-1.03125 1.160156,-1.03125 0.667969,0 1.125,0.4453125 1.125,1.125 0,0.6210937 -0.363281,1.359375 -1.042969,2.0625 l -1.417969,1.51171872 v 0.0937500049 h 3.117188 z m 5.941406,-0.8789063 c 0,-0.984375 -0.5625,-1.6992187 -1.335938,-1.6992187 -0.445312,0 -0.796875,0.1992187 -1.148437,0.6328125 v -0.609375 l -0.04687,-0.023437 c -0.433594,0.1640625 -0.703125,0.2695312 -1.148438,0.4101562 v 0.1289063 c 0.07031,-0.011719 0.128907,-0.011719 0.199219,-0.011719 0.269531,0 0.328125,0.082031 0.328125,0.4570313 v 3.7265625 c 0,0.4101562 -0.08203,0.5039062 -0.5625,0.5507812 v 0.140625 h 1.933594 v -0.152344 c -0.597656,0 -0.703125,-0.09375 -0.703125,-0.59765628 v -1.2421875 c 0.28125,0.2578125049 0.46875,0.33984375 0.808594,0.33984375 0.9375,0 1.675781,-0.890625 1.675781,-2.05078127 z m -0.691406,0.3164063 c 0,0.87890622 -0.386719,1.47656247 -0.960938,1.47656247 -0.375,0 -0.832031,-0.28125 -0.832031,-0.52734375 V -2.6611036 c 0,-0.2460938 0.445312,-0.5273438 0.808594,-0.5273438 0.597656,0 0.984375,0.609375 0.984375,1.5351563 z m 2.367187,1.31249997 c 0,-0.24609375 -0.210937,-0.45703125 -0.445312,-0.45703125 -0.234375,0 -0.433594,0.2109375 -0.433594,0.45703125 0,0.22265625 0.199219,0.421875 0.421875,0.421875 0.246094,0 0.457031,-0.19921875 0.457031,-0.421875 z m 4.371094,0.0585938 v -0.1171875 h -0.04687 c -0.363281,0 -0.445313,-0.0820313 -0.445313,-0.45703125 V -3.5868849 h -1.265625 v 0.140625 c 0.492188,0.023437 0.585938,0.09375 0.585938,0.4921875 v 1.875 c 0,0.22265627 -0.03516,0.33984377 -0.128906,0.41015627 -0.222657,0.1875 -0.46875,0.28125 -0.714844,0.28125 -0.316406,0 -0.574219,-0.26953125 -0.574219,-0.59765625 V -3.5868849 h -1.160156 v 0.1171875 c 0.386719,0.023437 0.492187,0.140625 0.492187,0.5039063 v 2.00390622 c 0,0.6328125 0.386719,1.04296875 0.972657,1.04296875 0.292968,0 0.597656,-0.12890625 0.820312,-0.33984375 l 0.339844,-0.3515625 v 0.66796875 l 0.03516,0.01171875 c 0.398438,-0.15234375 0.679688,-0.24609375 1.089844,-0.3515625 z m 1.608398,-0.0585938 c 0,-0.24609375 -0.210937,-0.45703125 -0.445312,-0.45703125 -0.234375,0 -0.433594,0.2109375 -0.433594,0.45703125 0,0.22265625 0.199219,0.421875 0.421875,0.421875 0.246094,0 0.457031,-0.19921875 0.457031,-0.421875 z m 0,0"
         style="fill:#000000;fill-opacity:1;fill-rule:nonzero;stroke:none" />
    </g>
    <path
       id="path109"
       d="m 210.24984,163.21159 h 10.27339 10.27339"
       style="fill:none;stroke:#0000ff;stroke-width:1.28418;stroke-linecap:butt;stroke-linejoin:round;stroke-miterlimit:10;stroke-dasharray:8.21871, 2.05468, 1.28418, 2.05468;stroke-dashoffset:0;stroke-opacity:1" />
    <g
       id="g109"
       aria-label="ð‘–&#10;s&#10;=3p.u."
       transform="matrix(1.2841737,0,0,1.2841737,239.01535,166.80727)">
      <path
         id="path110"
         d="m 2.1342009,-0.82166509 -0.1289063,-0.09375 c -0.375,0.45703125 -0.5742187,0.6328125 -0.7265625,0.6328125 -0.070312,0 -0.140625,-0.0585938 -0.1523437,-0.12890625 0,-0.12890625 0.082031,-0.36328125 0.1289062,-0.52734375 l 0.65625,-2.56640621 0.046875,-0.011719 C 1.0092009,-3.364634 0.82170087,-3.3411965 0.45841962,-3.317759 v 0.1289062 c 0.4921875,0.011719 0.56249998,0.035156 0.57421878,0.1875 0,0.070312 -0.023437,0.1992188 -0.0703125,0.3515625 l -0.3515625,1.4179688 c -0.12890625,0.46874996 -0.17578125,0.70312496 -0.17578125,0.86718746 0.0117188,0.29296875 0.1640625,0.4453125 0.43359375,0.4453125 0.4453125,0 0.7617187,-0.234375 1.265625,-0.90234355 z m 0.234375,-3.87890621 c -0.011719,-0.2226563 -0.2109375,-0.421875 -0.4570313,-0.421875 -0.2578125,0 -0.4335937,0.1757812 -0.4335937,0.421875 0.011719,0.2578125 0.1992187,0.421875 0.46875,0.421875 0.234375,0 0.4335937,-0.1875 0.421875,-0.421875 z m 0,0"
         style="fill:#000000;fill-opacity:1;fill-rule:nonzero;stroke:none" />
      <path
         id="path111"
         d="m 4.5453337,0.49376459 c 0,-0.3046875 -0.1289063,-0.50390625 -0.4921875,-0.71484375 L 3.4086149,-0.60779791 c -0.1757812,-0.09375 -0.2578125,-0.234375 -0.2578125,-0.39843749 0,-0.2460938 0.1757813,-0.4101563 0.4570313,-0.4101563 0.3398437,0 0.515625,0.1992188 0.65625,0.73828129 h 0.09375 L 4.3343962,-1.4867042 h -0.070312 l -0.011719,0.011719 c -0.058594,0.035156 -0.058594,0.046875 -0.082031,0.046875 -0.035156,0 -0.09375,-0.011719 -0.1640625,-0.046875 -0.1289063,-0.046875 -0.2578125,-0.070312 -0.4101563,-0.070312 -0.4804687,0 -0.8203125,0.2929687 -0.8203125,0.73828124 0,0.328125 0.1875,0.5625 0.703125,0.85546875 l 0.3398438,0.19921875 c 0.2109375,0.1171875 0.3164062,0.2578125 0.3164062,0.4453125 0,0.26953125 -0.1992187,0.43359376 -0.5039062,0.43359376 -0.4101563,0 -0.6210938,-0.22265626 -0.75,-0.84375001 h -0.09375 V 1.2203271 h 0.070312 c 0.046875,-0.058594 0.070312,-0.070312 0.140625,-0.070312 0.058594,0 0.1289062,0.011719 0.2695312,0.046875 0.1757813,0.035156 0.3164063,0.058594 0.4453125,0.058594 0.4570313,0 0.8320313,-0.33984371 0.8320313,-0.76171951 z m 0,0"
         style="fill:#000000;fill-opacity:1;fill-rule:nonzero;stroke:none" />
      <path
         id="path112"
         d="M 12.07756,-2.6263526 V -3.0716651 H 7.9994352 v 0.4453125 z m 0,1.6171875 V -1.4544776 H 7.9994352 v 0.4453125 z m 0,0"
         style="fill:#000000;fill-opacity:1;fill-rule:nonzero;stroke:none" />
      <path
         id="path113"
         d="m 18.016037,-1.7474463 c 0,-0.4101563 -0.128906,-0.7851563 -0.363281,-1.03125 -0.152344,-0.1757813 -0.304688,-0.2695313 -0.65625,-0.421875 0.550781,-0.375 0.75,-0.6679688 0.75,-1.1015625 0,-0.6445313 -0.515625,-1.0898438 -1.242188,-1.0898438 -0.398437,0 -0.75,0.140625 -1.042969,0.3984375 -0.234375,0.2109375 -0.351562,0.421875 -0.527343,0.890625 l 0.117187,0.035156 c 0.328125,-0.5742188 0.679688,-0.84375 1.183594,-0.84375 0.515625,0 0.878906,0.3515625 0.878906,0.8554687 0,0.28125 -0.117187,0.5742188 -0.316406,0.7734375 -0.246094,0.234375 -0.46875,0.3515625 -1.007813,0.5507813 v 0.1054687 c 0.46875,0 0.65625,0.011719 0.84375,0.082031 0.492188,0.1757812 0.808594,0.6328125 0.808594,1.1835937 0,0.66796876 -0.457031,1.18359376 -1.042969,1.18359376 -0.222656,0 -0.375,-0.0585938 -0.667968,-0.24609375 -0.246094,-0.140625 -0.375,-0.19921875 -0.515625,-0.19921875 -0.1875,0 -0.304688,0.10546875 -0.304688,0.28125 0,0.28125 0.339844,0.45703125 0.902344,0.45703125 0.609375,0 1.242187,-0.2109375 1.617187,-0.5390625 0.375,-0.328125 0.585938,-0.78515621 0.585938,-1.32421811 z m 6.28125,-0.2226563 c 0,-0.984375 -0.5625,-1.6992187 -1.335938,-1.6992187 -0.445312,0 -0.796875,0.1992187 -1.148437,0.6328125 v -0.609375 l -0.04687,-0.023437 c -0.433594,0.1640625 -0.703125,0.2695312 -1.148438,0.4101562 v 0.1289063 c 0.07031,-0.011719 0.128907,-0.011719 0.199219,-0.011719 0.269531,0 0.328125,0.082031 0.328125,0.4570313 v 3.7265625 c 0,0.4101562 -0.08203,0.5039062 -0.5625,0.5507812 v 0.140625 h 1.933594 v -0.152344 c -0.597656,0 -0.703125,-0.09375 -0.703125,-0.59765629 v -1.2421875 c 0.28125,0.2578125 0.46875,0.33984375 0.808594,0.33984375 0.9375,0 1.675781,-0.890625 1.675781,-2.05078126 z m -0.691406,0.3164063 c 0,0.87890621 -0.386719,1.47656246 -0.960938,1.47656246 -0.375,0 -0.832031,-0.28125 -0.832031,-0.52734375 V -2.6615088 c 0,-0.2460938 0.445312,-0.5273438 0.808594,-0.5273438 0.597656,0 0.984375,0.609375 0.984375,1.5351563 z m 2.367187,1.31249996 c 0,-0.24609375 -0.210937,-0.45703125 -0.445312,-0.45703125 -0.234375,0 -0.433594,0.2109375 -0.433594,0.45703125 0,0.22265625 0.199219,0.421875 0.421875,0.421875 0.246094,0 0.457031,-0.19921875 0.457031,-0.421875 z m 4.371094,0.0585938 v -0.1171875 h -0.04687 c -0.363281,0 -0.445313,-0.0820313 -0.445313,-0.45703125 V -3.5872901 h -1.265625 v 0.140625 c 0.492188,0.023437 0.585938,0.09375 0.585938,0.4921875 v 1.875 c 0,0.22265626 -0.03516,0.33984376 -0.128906,0.41015626 -0.222657,0.1875 -0.46875,0.28125 -0.714844,0.28125 -0.316406,0 -0.574219,-0.26953125 -0.574219,-0.59765625 V -3.5872901 h -1.160156 v 0.1171875 c 0.386719,0.023437 0.492187,0.140625 0.492187,0.5039063 v 2.00390621 c 0,0.6328125 0.386719,1.04296875 0.972657,1.04296875 0.292968,0 0.597656,-0.12890625 0.820312,-0.33984375 l 0.339844,-0.3515625 v 0.66796875 l 0.03516,0.01171875 c 0.398438,-0.15234375 0.679688,-0.24609375 1.089844,-0.3515625 z m 1.608398,-0.0585938 c 0,-0.24609375 -0.210937,-0.45703125 -0.445312,-0.45703125 -0.234375,0 -0.433594,0.2109375 -0.433594,0.45703125 0,0.22265625 0.199219,0.421875 0.421875,0.421875 0.246094,0 0.457031,-0.19921875 0.457031,-0.421875 z m 0,0"
         style="fill:#000000;fill-opacity:1;fill-rule:nonzero;stroke:none" />
    </g>
    <g
       id="g6531"
       transform="matrix(1.2,0,0,1.2,147.309,202.564)"
       ns8:version="1.12.0"
       ns8:texconverter="pdflatex"
       ns8:pdfconverter="inkscape"
       ns8:text="$\\tauM$ (p.u.)"
       ns8:preamble="/home/mhinkkan/GitHub/motulator/docs/source/inkscape_textext_preamble.sty"
       ns8:scale="0.9"
       ns8:alignment="middle center"
       ns8:inkscapeversion="1.4"
       ns8:jacobian_sqrt="1.2">
      <defs
         id="defs4347">
        <g
           id="g2268">
          <g
             id="g1169">
            <path
               d="M 4.21875,-3.953125 H 1.515625 c -0.828125,0 -1.40625,0.984375 -1.484375,1.15625 H 0.125 c 0.046875,-0.0625 0.421875,-0.5 0.890625,-0.5 H 2.03125 l -0.609375,1.9375 C 1.34375,-1.0625 1.28125,-0.8125 1.28125,-0.625 c 0,0.390625 0.203125,0.71875 0.640625,0.71875 0.21875,0 0.46875,-0.046875 0.46875,-0.375 C 2.390625,-0.796875 1.9375,-0.75 1.9375,-1.171875 1.9375,-1.265625 1.953125,-1.359375 2,-1.5 l 0.578125,-1.796875 h 1.4375 z m 0,0"
               id="path4982" />
          </g>
          <g
             id="g9926">
            <path
               d="m 5.671875,0 v -0.125 c -0.46875,-0.03125 -0.5625,-0.125 -0.5625,-0.59375 v -2.921875 c 0,-0.46875 0.078125,-0.546875 0.5625,-0.59375 v -0.125 H 4.375 L 2.921875,-1.03125 1.390625,-4.359375 H 0.09375 v 0.125 c 0.53125,0.03125 0.625,0.109375 0.625,0.59375 v 2.671875 c 0,0.671875 -0.09375,0.796875 -0.640625,0.84375 V 0 H 1.625 V -0.125 C 1.125,-0.15625 1,-0.296875 1,-0.96875 V -3.625 L 2.65625,0 H 2.75 l 1.6875,-3.765625 v 2.96875 C 4.4375,-0.25 4.359375,-0.15625 3.828125,-0.125 V 0 Z m 0,0"
               id="path1631" />
          </g>
          <g
             id="g5292">
            <path
               d="M 2.640625,-6.0625 C 1.984375,-5.625 1.71875,-5.40625 1.375,-4.984375 0.75,-4.203125 0.4375,-3.3125 0.4375,-2.265625 c 0,1.140625 0.328125,2.03125 1.109375,2.9375 0.375,0.4375 0.609375,0.625 1.078125,0.921875 L 2.71875,1.4375 C 2.015625,0.875 1.765625,0.5625 1.515625,-0.109375 c -0.21875,-0.59375 -0.3125,-1.28125 -0.3125,-2.171875 0,-0.953125 0.109375,-1.6875 0.359375,-2.234375 0.25,-0.5625 0.515625,-0.890625 1.15625,-1.40625 z m 0,0"
               id="path9954" />
          </g>
          <g
             id="g7748">
            <path
               d="m 0.078125,-3.53125 c 0.078125,0 0.140625,0 0.234375,0 0.296875,0 0.359375,0.09375 0.359375,0.515625 v 4.1875 c 0,0.46875 -0.09375,0.5625 -0.625,0.625 v 0.15625 H 2.21875 V 1.78125 c -0.671875,0 -0.796875,-0.109375 -0.796875,-0.671875 v -1.40625 C 1.734375,0 1.953125,0.09375 2.328125,0.09375 c 1.0625,0 1.890625,-1.015625 1.890625,-2.3125 0,-1.109375 -0.625,-1.90625 -1.5,-1.90625 -0.5,0 -0.890625,0.21875 -1.296875,0.703125 v -0.6875 L 1.375,-4.125 C 0.890625,-3.9375 0.578125,-3.828125 0.078125,-3.671875 Z M 1.421875,-3 c 0,-0.265625 0.5,-0.59375 0.921875,-0.59375 0.65625,0 1.09375,0.6875 1.09375,1.734375 0,0.984375 -0.4375,1.65625 -1.078125,1.65625 -0.421875,0 -0.9375,-0.3125 -0.9375,-0.59375 z m 0,0"
               id="path9800" />
          </g>
          <g
             id="g3448">
            <path
               d="m 1.125,-0.890625 c -0.265625,0 -0.5,0.234375 -0.5,0.5 0,0.265625 0.234375,0.484375 0.484375,0.484375 0.28125,0 0.515625,-0.21875 0.515625,-0.484375 0,-0.265625 -0.234375,-0.5 -0.5,-0.5 z m 0,0"
               id="path4282" />
          </g>
          <g
             id="g387">
            <path
               d="M 4.296875,-0.453125 H 4.25 c -0.40625,0 -0.515625,-0.09375 -0.515625,-0.5 V -4.03125 h -1.40625 v 0.140625 c 0.546875,0.03125 0.65625,0.125 0.65625,0.578125 v 2.109375 c 0,0.25 -0.046875,0.375 -0.171875,0.46875 C 2.578125,-0.53125 2.296875,-0.4375 2.03125,-0.4375 c -0.359375,0 -0.640625,-0.296875 -0.640625,-0.671875 V -4.03125 h -1.3125 v 0.125 c 0.4375,0.015625 0.5625,0.15625 0.5625,0.5625 v 2.265625 c 0,0.703125 0.421875,1.171875 1.078125,1.171875 0.328125,0 0.6875,-0.140625 0.921875,-0.390625 L 3.03125,-0.6875 v 0.75 L 3.0625,0.078125 c 0.453125,-0.171875 0.78125,-0.28125 1.234375,-0.40625 z m 0,0"
               id="path134" />
          </g>
          <g
             id="g5707">
            <path
               d="M 0.34375,1.59375 C 1,1.15625 1.28125,0.921875 1.609375,0.515625 2.25,-0.265625 2.5625,-1.171875 2.5625,-2.21875 2.5625,-3.359375 2.21875,-4.234375 1.4375,-5.140625 1.0625,-5.578125 0.828125,-5.78125 0.375,-6.0625 l -0.109375,0.140625 c 0.71875,0.5625 0.953125,0.875 1.203125,1.546875 0.21875,0.609375 0.3125,1.296875 0.3125,2.1875 0,0.9375 -0.109375,1.671875 -0.359375,2.21875 -0.25,0.5625 -0.515625,0.890625 -1.15625,1.40625 z m 0,0"
               id="path8310" />
          </g>
        </g>
      </defs>
      <g
         fill="#000000"
         fill-opacity="1"
         id="g7511"
         transform="translate(-154.837,-129.698)">
        <g
           transform="translate(154.806,135.761)"
           id="g7024">
          <path
             d="M 4.21875,-3.953125 H 1.515625 c -0.828125,0 -1.40625,0.984375 -1.484375,1.15625 H 0.125 c 0.046875,-0.0625 0.421875,-0.5 0.890625,-0.5 H 2.03125 l -0.609375,1.9375 C 1.34375,-1.0625 1.28125,-0.8125 1.28125,-0.625 c 0,0.390625 0.203125,0.71875 0.640625,0.71875 0.21875,0 0.46875,-0.046875 0.46875,-0.375 C 2.390625,-0.796875 1.9375,-0.75 1.9375,-1.171875 1.9375,-1.265625 1.953125,-1.359375 2,-1.5 l 0.578125,-1.796875 h 1.4375 z m 0,0"
             id="path7632" />
        </g>
      </g>
      <g
         fill="#000000"
         fill-opacity="1"
         id="g5427"
         transform="translate(-154.837,-129.698)">
        <g
           transform="translate(158.545,137.106)"
           id="g1750">
          <path
             d="m 5.671875,0 v -0.125 c -0.46875,-0.03125 -0.5625,-0.125 -0.5625,-0.59375 v -2.921875 c 0,-0.46875 0.078125,-0.546875 0.5625,-0.59375 v -0.125 H 4.375 L 2.921875,-1.03125 1.390625,-4.359375 H 0.09375 v 0.125 c 0.53125,0.03125 0.625,0.109375 0.625,0.59375 v 2.671875 c 0,0.671875 -0.09375,0.796875 -0.640625,0.84375 V 0 H 1.625 V -0.125 C 1.125,-0.15625 1,-0.296875 1,-0.96875 V -3.625 L 2.65625,0 H 2.75 l 1.6875,-3.765625 v 2.96875 C 4.4375,-0.25 4.359375,-0.15625 3.828125,-0.125 V 0 Z m 0,0"
             id="path2476" />
        </g>
      </g>
      <g
         fill="#000000"
         fill-opacity="1"
         id="g4269"
         transform="translate(-154.837,-129.698)">
        <g
           transform="translate(167.131,135.761)"
           id="g6471">
          <path
             d="M 2.640625,-6.0625 C 1.984375,-5.625 1.71875,-5.40625 1.375,-4.984375 0.75,-4.203125 0.4375,-3.3125 0.4375,-2.265625 c 0,1.140625 0.328125,2.03125 1.109375,2.9375 0.375,0.4375 0.609375,0.625 1.078125,0.921875 L 2.71875,1.4375 C 2.015625,0.875 1.765625,0.5625 1.515625,-0.109375 c -0.21875,-0.59375 -0.3125,-1.28125 -0.3125,-2.171875 0,-0.953125 0.109375,-1.6875 0.359375,-2.234375 0.25,-0.5625 0.515625,-0.890625 1.15625,-1.40625 z m 0,0"
             id="path5238" />
        </g>
        <g
           transform="translate(170.117,135.761)"
           id="g6023">
          <path
             d="m 0.078125,-3.53125 c 0.078125,0 0.140625,0 0.234375,0 0.296875,0 0.359375,0.09375 0.359375,0.515625 v 4.1875 c 0,0.46875 -0.09375,0.5625 -0.625,0.625 v 0.15625 H 2.21875 V 1.78125 c -0.671875,0 -0.796875,-0.109375 -0.796875,-0.671875 v -1.40625 C 1.734375,0 1.953125,0.09375 2.328125,0.09375 c 1.0625,0 1.890625,-1.015625 1.890625,-2.3125 0,-1.109375 -0.625,-1.90625 -1.5,-1.90625 -0.5,0 -0.890625,0.21875 -1.296875,0.703125 v -0.6875 L 1.375,-4.125 C 0.890625,-3.9375 0.578125,-3.828125 0.078125,-3.671875 Z M 1.421875,-3 c 0,-0.265625 0.5,-0.59375 0.921875,-0.59375 0.65625,0 1.09375,0.6875 1.09375,1.734375 0,0.984375 -0.4375,1.65625 -1.078125,1.65625 -0.421875,0 -0.9375,-0.3125 -0.9375,-0.59375 z m 0,0"
             id="path5474" />
        </g>
        <g
           transform="translate(174.6,135.761)"
           id="g8510">
          <path
             d="m 1.125,-0.890625 c -0.265625,0 -0.5,0.234375 -0.5,0.5 0,0.265625 0.234375,0.484375 0.484375,0.484375 0.28125,0 0.515625,-0.21875 0.515625,-0.484375 0,-0.265625 -0.234375,-0.5 -0.5,-0.5 z m 0,0"
             id="path1538" />
        </g>
        <g
           transform="translate(176.842,135.761)"
           id="g3992">
          <path
             d="M 4.296875,-0.453125 H 4.25 c -0.40625,0 -0.515625,-0.09375 -0.515625,-0.5 V -4.03125 h -1.40625 v 0.140625 c 0.546875,0.03125 0.65625,0.125 0.65625,0.578125 v 2.109375 c 0,0.25 -0.046875,0.375 -0.171875,0.46875 C 2.578125,-0.53125 2.296875,-0.4375 2.03125,-0.4375 c -0.359375,0 -0.640625,-0.296875 -0.640625,-0.671875 V -4.03125 h -1.3125 v 0.125 c 0.4375,0.015625 0.5625,0.15625 0.5625,0.5625 v 2.265625 c 0,0.703125 0.421875,1.171875 1.078125,1.171875 0.328125,0 0.6875,-0.140625 0.921875,-0.390625 L 3.03125,-0.6875 v 0.75 L 3.0625,0.078125 c 0.453125,-0.171875 0.78125,-0.28125 1.234375,-0.40625 z m 0,0"
             id="path9463" />
        </g>
        <g
           transform="translate(181.325,135.761)"
           id="g649">
          <path
             d="m 1.125,-0.890625 c -0.265625,0 -0.5,0.234375 -0.5,0.5 0,0.265625 0.234375,0.484375 0.484375,0.484375 0.28125,0 0.515625,-0.21875 0.515625,-0.484375 0,-0.265625 -0.234375,-0.5 -0.5,-0.5 z m 0,0"
             id="path6976" />
        </g>
        <g
           transform="translate(183.566,135.761)"
           id="g168">
          <path
             d="M 0.34375,1.59375 C 1,1.15625 1.28125,0.921875 1.609375,0.515625 2.25,-0.265625 2.5625,-1.171875 2.5625,-2.21875 2.5625,-3.359375 2.21875,-4.234375 1.4375,-5.140625 1.0625,-5.578125 0.828125,-5.78125 0.375,-6.0625 l -0.109375,0.140625 c 0.71875,0.5625 0.953125,0.875 1.203125,1.546875 0.21875,0.609375 0.3125,1.296875 0.3125,2.1875 0,0.9375 -0.109375,1.671875 -0.359375,2.21875 -0.25,0.5625 -0.515625,0.890625 -1.15625,1.40625 z m 0,0"
             id="path7196" />
        </g>
      </g>
    </g>
    <g
       id="g133"
       transform="matrix(0,-1.2,1.2,0,1.202525,107.2236)"
       ns8:version="1.12.0"
       ns8:texconverter="pdflatex"
       ns8:pdfconverter="inkscape"
       ns8:text="$\\psi_\\mathrm{s}$ (p.u.)"
       ns8:preamble="/home/mhinkkan/GitHub/motulator/docs/source/inkscape_textext_preamble.sty"
       ns8:scale="0.9"
       ns8:alignment="middle center"
       ns8:inkscapeversion="1.4"
       ns8:jacobian_sqrt="1.2">
      <defs
         id="defs7948">
        <g
           id="g1907">
          <g
             id="g6140">
            <path
               d="m 5.5,-3.84375 c -1.390625,0.015625 -1.640625,1.4375 -1.90625,2.4375 -0.25,0.890625 -0.921875,1.140625 -1.421875,1.140625 l 1.65625,-5.328125 -0.75,0.109375 -1.296875,5.21875 c -0.40625,0 -0.828125,-0.140625 -0.828125,-0.8125 0,-0.53125 0.390625,-1.171875 0.390625,-1.953125 0,-0.546875 -0.296875,-0.8125 -0.921875,-0.8125 l -0.03125,0.109375 c 0.078125,0 0.296875,0.046875 0.296875,0.546875 0,0.40625 -0.4375,1.46875 -0.4375,1.9375 0,1.09375 1.09375,1.34375 1.4375,1.34375 L 1.265625,1.859375 h 0.21875 L 2.0625,0.09375 c 0.8125,0 1.953125,-0.359375 2.328125,-1.703125 l 0.3125,-1.15625 c 0.109375,-0.375 0.46875,-0.953125 0.78125,-0.96875 z m 0,0"
               id="path7704" />
          </g>
          <g
             id="g4976">
            <path
               d="m 2.296875,-0.78125 c 0,-0.328125 -0.15625,-0.546875 -0.5625,-0.78125 L 1.03125,-1.984375 C 0.84375,-2.078125 0.75,-2.25 0.75,-2.421875 0.75,-2.703125 0.953125,-2.875 1.25,-2.875 c 0.375,0 0.578125,0.21875 0.71875,0.8125 h 0.109375 l -0.03125,-0.890625 h -0.09375 c -0.046875,0.046875 -0.0625,0.0625 -0.078125,0.0625 -0.046875,0 -0.109375,-0.015625 -0.1875,-0.046875 C 1.546875,-3 1.40625,-3.015625 1.25,-3.015625 c -0.546875,0 -0.921875,0.328125 -0.921875,0.8125 0,0.359375 0.21875,0.625 0.78125,0.9375 l 0.375,0.21875 c 0.234375,0.125 0.34375,0.296875 0.34375,0.5 0,0.28125 -0.203125,0.46875 -0.546875,0.46875 -0.453125,0 -0.6875,-0.25 -0.828125,-0.921875 H 0.34375 V 0.03125 H 0.421875 C 0.46875,-0.046875 0.5,-0.046875 0.578125,-0.046875 c 0.078125,0 0.140625,0 0.296875,0.046875 0.1875,0.046875 0.359375,0.0625 0.5,0.0625 0.5,0 0.921875,-0.375 0.921875,-0.84375 z m 0,0"
               id="path3202" />
          </g>
          <g
             id="g9968">
            <path
               d="M 2.640625,-6.0625 C 1.984375,-5.625 1.71875,-5.40625 1.375,-4.984375 0.75,-4.203125 0.4375,-3.3125 0.4375,-2.265625 c 0,1.140625 0.328125,2.03125 1.109375,2.9375 0.375,0.4375 0.609375,0.625 1.078125,0.921875 L 2.71875,1.4375 C 2.015625,0.875 1.765625,0.5625 1.515625,-0.109375 c -0.21875,-0.59375 -0.3125,-1.28125 -0.3125,-2.171875 0,-0.953125 0.109375,-1.6875 0.359375,-2.234375 0.25,-0.5625 0.515625,-0.890625 1.15625,-1.40625 z m 0,0"
               id="path3139" />
          </g>
          <g
             id="g6538">
            <path
               d="m 0.078125,-3.53125 c 0.078125,0 0.140625,0 0.234375,0 0.296875,0 0.359375,0.09375 0.359375,0.515625 v 4.1875 c 0,0.46875 -0.09375,0.5625 -0.625,0.625 v 0.15625 H 2.21875 V 1.78125 c -0.671875,0 -0.796875,-0.109375 -0.796875,-0.671875 v -1.40625 C 1.734375,0 1.953125,0.09375 2.328125,0.09375 c 1.0625,0 1.890625,-1.015625 1.890625,-2.3125 0,-1.109375 -0.625,-1.90625 -1.5,-1.90625 -0.5,0 -0.890625,0.21875 -1.296875,0.703125 v -0.6875 L 1.375,-4.125 C 0.890625,-3.9375 0.578125,-3.828125 0.078125,-3.671875 Z M 1.421875,-3 c 0,-0.265625 0.5,-0.59375 0.921875,-0.59375 0.65625,0 1.09375,0.6875 1.09375,1.734375 0,0.984375 -0.4375,1.65625 -1.078125,1.65625 -0.421875,0 -0.9375,-0.3125 -0.9375,-0.59375 z m 0,0"
               id="path7823" />
          </g>
          <g
             id="g8321">
            <path
               d="m 1.125,-0.890625 c -0.265625,0 -0.5,0.234375 -0.5,0.5 0,0.265625 0.234375,0.484375 0.484375,0.484375 0.28125,0 0.515625,-0.21875 0.515625,-0.484375 0,-0.265625 -0.234375,-0.5 -0.5,-0.5 z m 0,0"
               id="path9184" />
          </g>
          <g
             id="g7563">
            <path
               d="M 4.296875,-0.453125 H 4.25 c -0.40625,0 -0.515625,-0.09375 -0.515625,-0.5 V -4.03125 h -1.40625 v 0.140625 c 0.546875,0.03125 0.65625,0.125 0.65625,0.578125 v 2.109375 c 0,0.25 -0.046875,0.375 -0.171875,0.46875 C 2.578125,-0.53125 2.296875,-0.4375 2.03125,-0.4375 c -0.359375,0 -0.640625,-0.296875 -0.640625,-0.671875 V -4.03125 h -1.3125 v 0.125 c 0.4375,0.015625 0.5625,0.15625 0.5625,0.5625 v 2.265625 c 0,0.703125 0.421875,1.171875 1.078125,1.171875 0.328125,0 0.6875,-0.140625 0.921875,-0.390625 L 3.03125,-0.6875 v 0.75 L 3.0625,0.078125 c 0.453125,-0.171875 0.78125,-0.28125 1.234375,-0.40625 z m 0,0"
               id="path5140" />
          </g>
          <g
             id="g132">
            <path
               d="M 0.34375,1.59375 C 1,1.15625 1.28125,0.921875 1.609375,0.515625 2.25,-0.265625 2.5625,-1.171875 2.5625,-2.21875 2.5625,-3.359375 2.21875,-4.234375 1.4375,-5.140625 1.0625,-5.578125 0.828125,-5.78125 0.375,-6.0625 l -0.109375,0.140625 c 0.71875,0.5625 0.953125,0.875 1.203125,1.546875 0.21875,0.609375 0.3125,1.296875 0.3125,2.1875 0,0.9375 -0.109375,1.671875 -0.359375,2.21875 -0.25,0.5625 -0.515625,0.890625 -1.15625,1.40625 z m 0,0"
               id="path1817" />
          </g>
        </g>
      </defs>
      <g
         fill="#000000"
         fill-opacity="1"
         id="g7613"
         transform="translate(-154.949,-129.698)">
        <g
           transform="translate(154.699,135.761)"
           id="g6056">
          <path
             d="m 5.5,-3.84375 c -1.390625,0.015625 -1.640625,1.4375 -1.90625,2.4375 -0.25,0.890625 -0.921875,1.140625 -1.421875,1.140625 l 1.65625,-5.328125 -0.75,0.109375 -1.296875,5.21875 c -0.40625,0 -0.828125,-0.140625 -0.828125,-0.8125 0,-0.53125 0.390625,-1.171875 0.390625,-1.953125 0,-0.546875 -0.296875,-0.8125 -0.921875,-0.8125 l -0.03125,0.109375 c 0.078125,0 0.296875,0.046875 0.296875,0.546875 0,0.40625 -0.4375,1.46875 -0.4375,1.9375 0,1.09375 1.09375,1.34375 1.4375,1.34375 L 1.265625,1.859375 h 0.21875 L 2.0625,0.09375 c 0.8125,0 1.953125,-0.359375 2.328125,-1.703125 l 0.3125,-1.15625 c 0.109375,-0.375 0.46875,-0.953125 0.78125,-0.96875 z m 0,0"
             id="path9871" />
        </g>
      </g>
      <g
         fill="#000000"
         fill-opacity="1"
         id="g6755"
         transform="translate(-154.949,-129.698)">
        <g
           transform="translate(160.41,137.106)"
           id="g8216">
          <path
             d="m 2.296875,-0.78125 c 0,-0.328125 -0.15625,-0.546875 -0.5625,-0.78125 L 1.03125,-1.984375 C 0.84375,-2.078125 0.75,-2.25 0.75,-2.421875 0.75,-2.703125 0.953125,-2.875 1.25,-2.875 c 0.375,0 0.578125,0.21875 0.71875,0.8125 h 0.109375 l -0.03125,-0.890625 h -0.09375 c -0.046875,0.046875 -0.0625,0.0625 -0.078125,0.0625 -0.046875,0 -0.109375,-0.015625 -0.1875,-0.046875 C 1.546875,-3 1.40625,-3.015625 1.25,-3.015625 c -0.546875,0 -0.921875,0.328125 -0.921875,0.8125 0,0.359375 0.21875,0.625 0.78125,0.9375 l 0.375,0.21875 c 0.234375,0.125 0.34375,0.296875 0.34375,0.5 0,0.28125 -0.203125,0.46875 -0.546875,0.46875 -0.453125,0 -0.6875,-0.25 -0.828125,-0.921875 H 0.34375 V 0.03125 H 0.421875 C 0.46875,-0.046875 0.5,-0.046875 0.578125,-0.046875 c 0.078125,0 0.140625,0 0.296875,0.046875 0.1875,0.046875 0.359375,0.0625 0.5,0.0625 0.5,0 0.921875,-0.375 0.921875,-0.84375 z m 0,0"
             id="path5154" />
        </g>
      </g>
      <g
         fill="#000000"
         fill-opacity="1"
         id="g6316"
         transform="translate(-154.949,-129.698)">
        <g
           transform="translate(165.708,135.761)"
           id="g7858">
          <path
             d="M 2.640625,-6.0625 C 1.984375,-5.625 1.71875,-5.40625 1.375,-4.984375 0.75,-4.203125 0.4375,-3.3125 0.4375,-2.265625 c 0,1.140625 0.328125,2.03125 1.109375,2.9375 0.375,0.4375 0.609375,0.625 1.078125,0.921875 L 2.71875,1.4375 C 2.015625,0.875 1.765625,0.5625 1.515625,-0.109375 c -0.21875,-0.59375 -0.3125,-1.28125 -0.3125,-2.171875 0,-0.953125 0.109375,-1.6875 0.359375,-2.234375 0.25,-0.5625 0.515625,-0.890625 1.15625,-1.40625 z m 0,0"
             id="path9509" />
        </g>
        <g
           transform="translate(168.694,135.761)"
           id="g9152">
          <path
             d="m 0.078125,-3.53125 c 0.078125,0 0.140625,0 0.234375,0 0.296875,0 0.359375,0.09375 0.359375,0.515625 v 4.1875 c 0,0.46875 -0.09375,0.5625 -0.625,0.625 v 0.15625 H 2.21875 V 1.78125 c -0.671875,0 -0.796875,-0.109375 -0.796875,-0.671875 v -1.40625 C 1.734375,0 1.953125,0.09375 2.328125,0.09375 c 1.0625,0 1.890625,-1.015625 1.890625,-2.3125 0,-1.109375 -0.625,-1.90625 -1.5,-1.90625 -0.5,0 -0.890625,0.21875 -1.296875,0.703125 v -0.6875 L 1.375,-4.125 C 0.890625,-3.9375 0.578125,-3.828125 0.078125,-3.671875 Z M 1.421875,-3 c 0,-0.265625 0.5,-0.59375 0.921875,-0.59375 0.65625,0 1.09375,0.6875 1.09375,1.734375 0,0.984375 -0.4375,1.65625 -1.078125,1.65625 -0.421875,0 -0.9375,-0.3125 -0.9375,-0.59375 z m 0,0"
             id="path3212" />
        </g>
        <g
           transform="translate(173.177,135.761)"
           id="g1842">
          <path
             d="m 1.125,-0.890625 c -0.265625,0 -0.5,0.234375 -0.5,0.5 0,0.265625 0.234375,0.484375 0.484375,0.484375 0.28125,0 0.515625,-0.21875 0.515625,-0.484375 0,-0.265625 -0.234375,-0.5 -0.5,-0.5 z m 0,0"
             id="path5520" />
        </g>
        <g
           transform="translate(175.419,135.761)"
           id="g7459">
          <path
             d="M 4.296875,-0.453125 H 4.25 c -0.40625,0 -0.515625,-0.09375 -0.515625,-0.5 V -4.03125 h -1.40625 v 0.140625 c 0.546875,0.03125 0.65625,0.125 0.65625,0.578125 v 2.109375 c 0,0.25 -0.046875,0.375 -0.171875,0.46875 C 2.578125,-0.53125 2.296875,-0.4375 2.03125,-0.4375 c -0.359375,0 -0.640625,-0.296875 -0.640625,-0.671875 V -4.03125 h -1.3125 v 0.125 c 0.4375,0.015625 0.5625,0.15625 0.5625,0.5625 v 2.265625 c 0,0.703125 0.421875,1.171875 1.078125,1.171875 0.328125,0 0.6875,-0.140625 0.921875,-0.390625 L 3.03125,-0.6875 v 0.75 L 3.0625,0.078125 c 0.453125,-0.171875 0.78125,-0.28125 1.234375,-0.40625 z m 0,0"
             id="path3448" />
        </g>
        <g
           transform="translate(179.902,135.761)"
           id="g3452">
          <path
             d="m 1.125,-0.890625 c -0.265625,0 -0.5,0.234375 -0.5,0.5 0,0.265625 0.234375,0.484375 0.484375,0.484375 0.28125,0 0.515625,-0.21875 0.515625,-0.484375 0,-0.265625 -0.234375,-0.5 -0.5,-0.5 z m 0,0"
             id="path4607" />
        </g>
        <g
           transform="translate(182.143,135.761)"
           id="g8704">
          <path
             d="M 0.34375,1.59375 C 1,1.15625 1.28125,0.921875 1.609375,0.515625 2.25,-0.265625 2.5625,-1.171875 2.5625,-2.21875 2.5625,-3.359375 2.21875,-4.234375 1.4375,-5.140625 1.0625,-5.578125 0.828125,-5.78125 0.375,-6.0625 l -0.109375,0.140625 c 0.71875,0.5625 0.953125,0.875 1.203125,1.546875 0.21875,0.609375 0.3125,1.296875 0.3125,2.1875 0,0.9375 -0.109375,1.671875 -0.359375,2.21875 -0.25,0.5625 -0.515625,0.890625 -1.15625,1.40625 z m 0,0"
             id="path9716" />
        </g>
      </g>
    </g>
  </g>
</svg>
