<?xml version="1.0" encoding="UTF-8" standalone="no"?>
<svg
   width="480"
   height="85.000053"
   id="svg6781"
   version="1.1"
   inkscape:version="1.2.2 (b0a8486541, 2022-12-01)"
   sodipodi:docname="mech_block.svg"
   viewBox="0 0 480.00001 85.000056"
   xmlns:inkscape="http://www.inkscape.org/namespaces/inkscape"
   xmlns:sodipodi="http://sodipodi.sourceforge.net/DTD/sodipodi-0.dtd"
   xmlns:xlink="http://www.w3.org/1999/xlink"
   xmlns="http://www.w3.org/2000/svg"
   xmlns:svg="http://www.w3.org/2000/svg"
   xmlns:rdf="http://www.w3.org/1999/02/22-rdf-syntax-ns#"
   xmlns:cc="http://creativecommons.org/ns#"
   xmlns:dc="http://purl.org/dc/elements/1.1/">
  <sodipodi:namedview
     id="base"
     pagecolor="#ffffff"
     bordercolor="#666666"
     borderopacity="1.0"
     inkscape:pageopacity="0.0"
     inkscape:pageshadow="2"
     inkscape:zoom="5.6"
     inkscape:cx="253.75"
     inkscape:cy="72.232143"
     inkscape:document-units="px"
     inkscape:current-layer="layer1"
     showgrid="true"
     inkscape:window-width="2560"
     inkscape:window-height="1403"
     inkscape:window-x="0"
     inkscape:window-y="0"
     inkscape:window-maximized="1"
     inkscape:snap-object-midpoints="true"
     inkscape:snap-intersection-paths="true"
     inkscape:snap-grids="true"
     inkscape:object-paths="true"
     inkscape:document-rotation="0"
     fit-margin-top="0"
     fit-margin-left="0"
     fit-margin-right="0"
     fit-margin-bottom="0"
     inkscape:showpageshadow="2"
     inkscape:pagecheckerboard="0"
     inkscape:deskcolor="#d1d1d1">
    <inkscape:grid
       spacingy="0.5"
       spacingx="0.5"
       snapvisiblegridlinesonly="true"
       enabled="true"
       visible="true"
       empspacing="5"
       id="grid7066"
       type="xygrid"
       originx="-75.000002"
       originy="-805.00001" />
  </sodipodi:namedview>
  <defs
     id="defs6783">
    <marker
       style="overflow:visible"
       id="DotM"
       refX="0"
       refY="0"
       orient="auto"
       inkscape:stockid="DotM">
      <path
         transform="matrix(0.4,0,0,0.4,2.96,0.4)"
         style="fill-rule:evenodd;stroke:#000000;stroke-width:1pt;marker-start:none;marker-end:none"
         d="m -2.5,-1 c 0,2.76 -2.24,5 -5,5 -2.76,0 -5,-2.24 -5,-5 0,-2.76 2.24,-5 5,-5 2.76,0 5,2.24 5,5 z"
         id="path4676"
         inkscape:connector-curvature="0" />
    </marker>
    <marker
       refX="0"
       inkscape:stockid="Arrow2Mend"
       refY="0"
       orient="auto"
       id="Arrow2Mend-9"
       style="overflow:visible">
      <path
         id="path18502-9"
         d="M 8.7185878,4.0337352 -2.2072895,0.01601326 8.7185884,-4.0017078 c -1.7454984,2.3720609 -1.7354408,5.6174519 -6e-7,8.035443 z"
         transform="scale(-0.6)"
         style="font-size:12px;fill-rule:evenodd;stroke-width:0.625;stroke-linejoin:round"
         inkscape:connector-curvature="0" />
    </marker>
    <marker
       style="overflow:visible"
       id="Arrow2Mend-9-7"
       orient="auto"
       refY="0"
       inkscape:stockid="Arrow2Mend"
       refX="0">
      <path
         inkscape:connector-curvature="0"
         style="font-size:12px;fill-rule:evenodd;stroke-width:0.625;stroke-linejoin:round"
         transform="scale(-0.6)"
         d="M 8.7185878,4.0337352 -2.2072895,0.01601326 8.7185884,-4.0017078 c -1.7454984,2.3720609 -1.7354408,5.6174519 -6e-7,8.035443 z"
         id="path18502-9-5" />
    </marker>
    <g
       id="g4009">
      <symbol
         overflow="visible"
         id="symbol1940">
        <path
           style="stroke:none"
           d=""
           id="path670" />
      </symbol>
      <symbol
         overflow="visible"
         id="symbol4516">
        <path
           style="stroke:none"
           d="m 2.9375,-6.375 c 0,-0.25 0,-0.265625 -0.234375,-0.265625 C 2.078125,-6 1.203125,-6 0.890625,-6 v 0.3125 c 0.203125,0 0.78125,0 1.296875,-0.265625 v 5.171875 c 0,0.359375 -0.03125,0.46875 -0.921875,0.46875 h -0.3125 V 0 c 0.34375,-0.03125 1.203125,-0.03125 1.609375,-0.03125 0.390625,0 1.265625,0 1.609375,0.03125 v -0.3125 h -0.3125 c -0.90625,0 -0.921875,-0.109375 -0.921875,-0.46875 z m 0,0"
           id="path118" />
      </symbol>
      <symbol
         overflow="visible"
         id="symbol4794">
        <path
           style="stroke:none"
           d=""
           id="path9147" />
      </symbol>
      <symbol
         overflow="visible"
         id="symbol2386">
        <path
           style="stroke:none"
           d="M 3.890625,-3.734375 C 3.625,-3.71875 3.421875,-3.5 3.421875,-3.28125 c 0,0.140625 0.09375,0.296875 0.3125,0.296875 0.21875,0 0.453125,-0.171875 0.453125,-0.5625 C 4.1875,-4 3.765625,-4.40625 3,-4.40625 c -1.3125,0 -1.6875,1.015625 -1.6875,1.453125 0,0.78125 0.734375,0.921875 1.03125,0.984375 0.515625,0.109375 1.03125,0.21875 1.03125,0.765625 0,0.25 -0.21875,1.09375 -1.421875,1.09375 -0.140625,0 -0.90625,0 -1.140625,-0.53125 0.390625,0.046875 0.640625,-0.25 0.640625,-0.53125 0,-0.21875 -0.171875,-0.34375 -0.375,-0.34375 -0.265625,0 -0.5625,0.203125 -0.5625,0.65625 0,0.5625 0.578125,0.96875 1.421875,0.96875 1.625,0 2.015625,-1.203125 2.015625,-1.65625 0,-0.359375 -0.1875,-0.609375 -0.3125,-0.71875 -0.265625,-0.28125 -0.5625,-0.34375 -1,-0.421875 -0.359375,-0.078125 -0.75,-0.15625 -0.75,-0.609375 C 1.890625,-3.578125 2.125,-4.1875 3,-4.1875 c 0.25,0 0.75,0.078125 0.890625,0.453125 z m 0,0"
           id="path7328" />
      </symbol>
    </g>
    <g
       id="g2151">
      <symbol
         overflow="visible"
         id="symbol2430">
        <path
           style="stroke:none"
           d=""
           id="path1504" />
      </symbol>
      <symbol
         overflow="visible"
         id="symbol5294">
        <path
           style="stroke:none"
           d="m 2.9375,-3.71875 h 1.671875 c 0.125,0 0.484375,0 0.484375,-0.34375 0,-0.234375 -0.203125,-0.234375 -0.40625,-0.234375 H 1.90625 c -0.203125,0 -0.59375,0 -1.03125,0.46875 -0.328125,0.359375 -0.609375,0.84375 -0.609375,0.890625 0,0.015625 0,0.109375 0.125,0.109375 0.078125,0 0.09375,-0.046875 0.15625,-0.125 C 1.03125,-3.71875 1.609375,-3.71875 1.8125,-3.71875 h 0.828125 l -0.96875,3.203125 C 1.625,-0.40625 1.5625,-0.1875 1.5625,-0.15625 c 0,0.109375 0.078125,0.28125 0.296875,0.28125 0.328125,0 0.375,-0.28125 0.40625,-0.4375 z m 0,0"
           id="path5638" />
      </symbol>
      <symbol
         overflow="visible"
         id="symbol5827">
        <path
           style="stroke:none"
           d=""
           id="path6118" />
      </symbol>
      <symbol
         overflow="visible"
         id="symbol6179">
        <path
           style="stroke:none"
           d="m 1.921875,-4.609375 c -0.0625,-0.15625 -0.125,-0.15625 -0.265625,-0.15625 H 0.4375 v 0.25 h 0.15625 c 0.546875,0 0.5625,0.078125 0.5625,0.328125 V -0.75 c 0,0.1875 0,0.5 -0.71875,0.5 V 0 C 0.71875,-0.015625 1,-0.03125 1.28125,-0.03125 1.5625,-0.03125 1.84375,-0.015625 2.125,0 v -0.25 c -0.703125,0 -0.703125,-0.3125 -0.703125,-0.5 v -3.6875 l 1.8125,4.28125 C 3.265625,-0.078125 3.296875,0 3.40625,0 3.453125,0 3.515625,-0.015625 3.578125,-0.140625 L 5.421875,-4.5 v 3.9375 C 5.421875,-0.328125 5.40625,-0.25 4.875,-0.25 H 4.703125 V 0 c 0.328125,-0.015625 0.71875,-0.03125 1.015625,-0.03125 0.28125,0 0.671875,0.015625 1,0.03125 V -0.25 H 6.5625 C 6.015625,-0.25 6,-0.328125 6,-0.5625 v -3.625 c 0,-0.25 0.015625,-0.328125 0.5625,-0.328125 h 0.15625 v -0.25 H 5.515625 c -0.140625,0 -0.203125,0 -0.265625,0.140625 l -1.671875,3.953125 z m 0,0"
           id="path5007" />
      </symbol>
    </g>
    <g
       id="g5116">
      <symbol
         overflow="visible"
         id="symbol9401">
        <path
           style="stroke:none"
           d=""
           id="path8379" />
      </symbol>
      <symbol
         overflow="visible"
         id="symbol3572">
        <path
           style="stroke:none"
           d="M 1.59375,-0.78125 C 1.5,-0.390625 1.46875,-0.3125 0.6875,-0.3125 c -0.171875,0 -0.265625,0 -0.265625,0.203125 C 0.421875,0 0.515625,0 0.6875,0 H 4.25 C 5.828125,0 7,-1.171875 7,-2.15625 7,-2.875 6.421875,-3.453125 5.453125,-3.5625 6.484375,-3.75 7.53125,-4.484375 7.53125,-5.4375 c 0,-0.734375 -0.65625,-1.375 -1.84375,-1.375 H 2.328125 c -0.1875,0 -0.28125,0 -0.28125,0.203125 0,0.109375 0.09375,0.109375 0.28125,0.109375 0.015625,0 0.203125,0 0.375,0.015625 0.171875,0.03125 0.265625,0.03125 0.265625,0.171875 0,0.03125 -0.015625,0.0625 -0.03125,0.1875 z m 1.5,-2.875 0.625,-2.46875 C 3.8125,-6.46875 3.828125,-6.5 4.25,-6.5 h 1.296875 c 0.875,0 1.078125,0.59375 1.078125,1.03125 0,0.875 -0.859375,1.8125 -2.0625,1.8125 z m -0.4375,3.34375 c -0.140625,0 -0.15625,0 -0.21875,0 -0.109375,-0.015625 -0.140625,-0.03125 -0.140625,-0.109375 0,-0.03125 0,-0.046875 0.0625,-0.21875 l 0.6875,-2.78125 h 1.875 c 0.953125,0 1.15625,0.734375 1.15625,1.15625 C 6.078125,-1.28125 5.1875,-0.3125 4,-0.3125 Z m 0,0"
           id="path1759" />
      </symbol>
    </g>
    <g
       id="g9929">
      <symbol
         overflow="visible"
         id="symbol1825">
        <path
           style="stroke:none"
           d=""
           id="path5910" />
      </symbol>
      <symbol
         overflow="visible"
         id="symbol9421">
        <path
           style="stroke:none"
           d="m 2.9375,-6.375 c 0,-0.25 0,-0.265625 -0.234375,-0.265625 C 2.078125,-6 1.203125,-6 0.890625,-6 v 0.3125 c 0.203125,0 0.78125,0 1.296875,-0.265625 v 5.171875 c 0,0.359375 -0.03125,0.46875 -0.921875,0.46875 h -0.3125 V 0 c 0.34375,-0.03125 1.203125,-0.03125 1.609375,-0.03125 0.390625,0 1.265625,0 1.609375,0.03125 v -0.3125 h -0.3125 c -0.90625,0 -0.921875,-0.109375 -0.921875,-0.46875 z m 0,0"
           id="path837" />
      </symbol>
      <symbol
         overflow="visible"
         id="symbol8462">
        <path
           style="stroke:none"
           d=""
           id="path4604" />
      </symbol>
      <symbol
         overflow="visible"
         id="symbol1999">
        <path
           style="stroke:none"
           d="M 5.390625,-6.078125 C 5.46875,-6.40625 5.5,-6.5 6.046875,-6.5 c 0.15625,0 0.265625,0 0.265625,-0.1875 0,-0.09375 -0.0625,-0.125 -0.140625,-0.125 -0.25,0 -0.859375,0.03125 -1.109375,0.03125 -0.328125,0 -1.140625,-0.03125 -1.46875,-0.03125 -0.078125,0 -0.203125,0 -0.203125,0.203125 C 3.390625,-6.5 3.46875,-6.5 3.734375,-6.5 c 0.21875,0 0.328125,0 0.578125,0.015625 0.234375,0.03125 0.296875,0.0625 0.296875,0.203125 0,0.0625 -0.015625,0.125 -0.03125,0.203125 L 3.421875,-1.5 C 3.1875,-0.53125 2.515625,0 2,0 1.734375,0 1.203125,-0.09375 1.046875,-0.625 c 0.03125,0.015625 0.09375,0.015625 0.125,0.015625 0.390625,0 0.640625,-0.34375 0.640625,-0.640625 0,-0.3125 -0.265625,-0.421875 -0.4375,-0.421875 -0.171875,0 -0.671875,0.125 -0.671875,0.796875 0,0.625 0.53125,1.09375 1.328125,1.09375 0.90625,0 1.953125,-0.65625 2.203125,-1.640625 z m 0,0"
           id="path7259" />
      </symbol>
    </g>
    <g
       id="g6188">
      <symbol
         overflow="visible"
         id="symbol8294">
        <path
           style="stroke:none"
           d=""
           id="path4311" />
      </symbol>
      <symbol
         overflow="visible"
         id="symbol529">
        <path
           style="stroke:none"
           d="m 2.9375,-3.71875 h 1.671875 c 0.125,0 0.484375,0 0.484375,-0.34375 0,-0.234375 -0.203125,-0.234375 -0.40625,-0.234375 H 1.90625 c -0.203125,0 -0.59375,0 -1.03125,0.46875 -0.328125,0.359375 -0.609375,0.84375 -0.609375,0.890625 0,0.015625 0,0.109375 0.125,0.109375 0.078125,0 0.09375,-0.046875 0.15625,-0.125 C 1.03125,-3.71875 1.609375,-3.71875 1.8125,-3.71875 h 0.828125 l -0.96875,3.203125 C 1.625,-0.40625 1.5625,-0.1875 1.5625,-0.15625 c 0,0.109375 0.078125,0.28125 0.296875,0.28125 0.328125,0 0.375,-0.28125 0.40625,-0.4375 z m 0,0"
           id="path6124" />
      </symbol>
      <symbol
         overflow="visible"
         id="symbol2518">
        <path
           style="stroke:none"
           d=""
           id="path4917" />
      </symbol>
      <symbol
         overflow="visible"
         id="symbol9847">
        <path
           style="stroke:none"
           d="M 4.53125,-1.828125 H 4.296875 C 4.21875,-1.15625 4.125,-0.25 2.796875,-0.25 h -0.6875 c -0.328125,0 -0.34375,-0.0625 -0.34375,-0.265625 V -4.1875 c 0,-0.234375 0,-0.328125 0.65625,-0.328125 h 0.25 v -0.25 C 2.515625,-4.75 1.625,-4.734375 1.453125,-4.734375 c -0.265625,0 -1.0625,-0.03125 -1.0625,-0.03125 v 0.25 H 0.5625 c 0.53125,0 0.546875,0.078125 0.546875,0.328125 v 3.625 c 0,0.234375 -0.015625,0.3125 -0.546875,0.3125 H 0.390625 V 0 h 3.9375 z m 0,0"
           id="path3048" />
      </symbol>
    </g>
    <g
       id="g4494">
      <symbol
         overflow="visible"
         id="symbol3173">
        <path
           style="stroke:none"
           d=""
           id="path6623" />
      </symbol>
      <symbol
         overflow="visible"
         id="symbol1324">
        <path
           style="stroke:none"
           d="m 6.03125,-3.703125 c 0,-0.453125 -0.171875,-0.703125 -0.40625,-0.703125 -0.25,0 -0.515625,0.234375 -0.515625,0.46875 0,0.09375 0.046875,0.203125 0.140625,0.296875 0.171875,0.15625 0.359375,0.421875 0.359375,0.84375 0,0.390625 -0.203125,0.96875 -0.5,1.421875 C 4.8125,-0.953125 4.4375,-0.609375 3.96875,-0.609375 3.40625,-0.609375 3.09375,-0.96875 3,-1.5 c 0.109375,-0.265625 0.34375,-0.90625 0.34375,-1.1875 0,-0.109375 -0.046875,-0.21875 -0.1875,-0.21875 -0.078125,0 -0.1875,0.03125 -0.265625,0.171875 C 2.78125,-2.53125 2.65625,-1.890625 2.65625,-1.53125 2.328125,-1.0625 1.9375,-0.609375 1.3125,-0.609375 c -0.671875,0 -0.875,-0.59375 -0.875,-1.140625 0,-1.25 1.015625,-2.296875 1.015625,-2.421875 0,-0.109375 -0.078125,-0.1875 -0.1875,-0.1875 -0.125,0 -0.203125,0.125 -0.265625,0.21875 -0.5,0.734375 -0.875,1.921875 -0.875,2.828125 0,0.6875 0.21875,1.421875 1.046875,1.421875 0.703125,0 1.171875,-0.5 1.53125,-1.046875 0.09375,0.578125 0.484375,1.046875 1.09375,1.046875 0.78125,0 1.25,-0.609375 1.609375,-1.359375 0.25,-0.484375 0.625,-1.84375 0.625,-2.453125 z m 0,0"
           id="path9134" />
      </symbol>
      <symbol
         overflow="visible"
         id="symbol2298">
        <path
           style="stroke:none"
           d=""
           id="path5930" />
      </symbol>
      <symbol
         overflow="visible"
         id="symbol5249">
        <path
           style="stroke:none"
           d="m 1.921875,-4.609375 c -0.0625,-0.15625 -0.125,-0.15625 -0.265625,-0.15625 H 0.4375 v 0.25 h 0.15625 c 0.546875,0 0.5625,0.078125 0.5625,0.328125 V -0.75 c 0,0.1875 0,0.5 -0.71875,0.5 V 0 C 0.71875,-0.015625 1,-0.03125 1.28125,-0.03125 1.5625,-0.03125 1.84375,-0.015625 2.125,0 v -0.25 c -0.703125,0 -0.703125,-0.3125 -0.703125,-0.5 v -3.6875 l 1.8125,4.28125 C 3.265625,-0.078125 3.296875,0 3.40625,0 3.453125,0 3.515625,-0.015625 3.578125,-0.140625 L 5.421875,-4.5 v 3.9375 C 5.421875,-0.328125 5.40625,-0.25 4.875,-0.25 H 4.703125 V 0 c 0.328125,-0.015625 0.71875,-0.03125 1.015625,-0.03125 0.28125,0 0.671875,0.015625 1,0.03125 V -0.25 H 6.5625 C 6.015625,-0.25 6,-0.328125 6,-0.5625 v -3.625 c 0,-0.25 0.015625,-0.328125 0.5625,-0.328125 h 0.15625 v -0.25 H 5.515625 c -0.140625,0 -0.203125,0 -0.265625,0.140625 l -1.671875,3.953125 z m 0,0"
           id="path279" />
      </symbol>
    </g>
    <g
       id="g2991">
      <symbol
         overflow="visible"
         id="symbol3685">
        <path
           style="stroke:none"
           d=""
           id="path9299" />
      </symbol>
      <symbol
         overflow="visible"
         id="symbol4983">
        <path
           style="stroke:none"
           d="m 2.9375,-3.71875 h 1.671875 c 0.125,0 0.484375,0 0.484375,-0.34375 0,-0.234375 -0.203125,-0.234375 -0.40625,-0.234375 H 1.90625 c -0.203125,0 -0.59375,0 -1.03125,0.46875 -0.328125,0.359375 -0.609375,0.84375 -0.609375,0.890625 0,0.015625 0,0.109375 0.125,0.109375 0.078125,0 0.09375,-0.046875 0.15625,-0.125 C 1.03125,-3.71875 1.609375,-3.71875 1.8125,-3.71875 h 0.828125 l -0.96875,3.203125 C 1.625,-0.40625 1.5625,-0.1875 1.5625,-0.15625 c 0,0.109375 0.078125,0.28125 0.296875,0.28125 0.328125,0 0.375,-0.28125 0.40625,-0.4375 z m 0,0"
           id="path8847" />
      </symbol>
      <symbol
         overflow="visible"
         id="symbol6641">
        <path
           style="stroke:none"
           d=""
           id="path2627" />
      </symbol>
      <symbol
         overflow="visible"
         id="symbol5600">
        <path
           style="stroke:none"
           d="M 0.828125,-0.953125 C 0.90625,-0.5 1.125,0.078125 1.71875,0.078125 1.9375,0.078125 2.1875,0 2.453125,-0.171875 2.5625,-0.234375 2.921875,-0.5 2.921875,-0.578125 c 0,-0.046875 -0.046875,-0.125 -0.109375,-0.125 -0.03125,0 -0.046875,0 -0.15625,0.09375 -0.296875,0.265625 -0.609375,0.5 -0.921875,0.5 C 1.25,-0.109375 1.25,-0.921875 1.25,-1.0625 c 0,-0.09375 0,-0.09375 0.015625,-0.234375 0.015625,-0.0625 0.015625,-0.078125 0.09375,-0.15625 0.375,-0.359375 1.703125,-1.640625 1.703125,-2.84375 0,-0.109375 0,-0.609375 -0.46875,-0.609375 C 2.015625,-4.90625 1.546875,-4 1.4375,-3.796875 1.140625,-3.203125 0.96875,-2.640625 0.90625,-2.28125 0.796875,-1.8125 0.796875,-1.578125 0.796875,-1.234375 0.75,-1.1875 0.34375,-0.828125 0.28125,-0.78125 c -0.109375,0.109375 -0.125,0.109375 -0.125,0.15625 0,0.046875 0.0625,0.125 0.125,0.125 0.046875,0 0.234375,-0.171875 0.28125,-0.21875 z m 0.5,-0.796875 C 1.453125,-2.453125 2,-4.703125 2.59375,-4.703125 c 0.15625,0 0.25,0.109375 0.25,0.359375 0,0.078125 0,0.703125 -0.609375,1.5625 C 1.875,-2.28125 1.5,-1.90625 1.328125,-1.75 Z m 0,0"
           id="path8314" />
      </symbol>
    </g>
    <g
       id="g904">
      <symbol
         overflow="visible"
         id="symbol615">
        <path
           style="stroke:none;"
           d=""
           id="path1594" />
      </symbol>
      <symbol
         overflow="visible"
         id="symbol4813">
        <path
           style="stroke:none;"
           d="M 2.9375 -3.71875 L 4.609375 -3.71875 C 4.734375 -3.71875 5.09375 -3.71875 5.09375 -4.0625 C 5.09375 -4.296875 4.890625 -4.296875 4.6875 -4.296875 L 1.90625 -4.296875 C 1.703125 -4.296875 1.3125 -4.296875 0.875 -3.828125 C 0.546875 -3.46875 0.265625 -2.984375 0.265625 -2.9375 C 0.265625 -2.921875 0.265625 -2.828125 0.390625 -2.828125 C 0.46875 -2.828125 0.484375 -2.875 0.546875 -2.953125 C 1.03125 -3.71875 1.609375 -3.71875 1.8125 -3.71875 L 2.640625 -3.71875 L 1.671875 -0.515625 C 1.625 -0.40625 1.5625 -0.1875 1.5625 -0.15625 C 1.5625 -0.046875 1.640625 0.125 1.859375 0.125 C 2.1875 0.125 2.234375 -0.15625 2.265625 -0.3125 Z M 2.9375 -3.71875 "
           id="path5668" />
      </symbol>
      <symbol
         overflow="visible"
         id="symbol5552">
        <path
           style="stroke:none;"
           d=""
           id="path7020" />
      </symbol>
      <symbol
         overflow="visible"
         id="symbol2273">
        <path
           style="stroke:none;"
           d="M 4.53125 -1.828125 L 4.296875 -1.828125 C 4.21875 -1.15625 4.125 -0.25 2.796875 -0.25 L 2.109375 -0.25 C 1.78125 -0.25 1.765625 -0.3125 1.765625 -0.515625 L 1.765625 -4.1875 C 1.765625 -4.421875 1.765625 -4.515625 2.421875 -4.515625 L 2.671875 -4.515625 L 2.671875 -4.765625 C 2.515625 -4.75 1.625 -4.734375 1.453125 -4.734375 C 1.1875 -4.734375 0.390625 -4.765625 0.390625 -4.765625 L 0.390625 -4.515625 L 0.5625 -4.515625 C 1.09375 -4.515625 1.109375 -4.4375 1.109375 -4.1875 L 1.109375 -0.5625 C 1.109375 -0.328125 1.09375 -0.25 0.5625 -0.25 L 0.390625 -0.25 L 0.390625 0 L 4.328125 0 Z M 4.53125 -1.828125 "
           id="path9227" />
      </symbol>
      <symbol
         overflow="visible"
         id="symbol434">
        <path
           style="stroke:none;"
           d=""
           id="path4366" />
      </symbol>
      <symbol
         overflow="visible"
         id="symbol8577">
        <path
           style="stroke:none;"
           d="M 1.46875 -0.109375 C 1.46875 0.265625 1.40625 0.71875 0.921875 1.15625 C 0.90625 1.1875 0.875 1.21875 0.875 1.25 C 0.875 1.296875 0.9375 1.34375 0.96875 1.34375 C 1.078125 1.34375 1.671875 0.78125 1.671875 -0.046875 C 1.671875 -0.46875 1.5 -0.796875 1.171875 -0.796875 C 0.953125 -0.796875 0.78125 -0.625 0.78125 -0.40625 C 0.78125 -0.1875 0.9375 0 1.1875 0 C 1.359375 0 1.46875 -0.109375 1.46875 -0.109375 Z M 1.46875 -0.109375 "
           id="path2902" />
      </symbol>
      <symbol
         overflow="visible"
         id="symbol6693">
        <path
           style="stroke:none;"
           d="M 1.71875 -2.75 L 2.421875 -2.75 C 2.5625 -2.75 2.640625 -2.75 2.640625 -2.90625 C 2.640625 -3 2.5625 -3 2.4375 -3 L 1.78125 -3 L 2.03125 -4.03125 C 2.046875 -4.0625 2.0625 -4.109375 2.0625 -4.125 C 2.0625 -4.265625 1.953125 -4.359375 1.8125 -4.359375 C 1.640625 -4.359375 1.546875 -4.234375 1.484375 -4.0625 C 1.4375 -3.875 1.53125 -4.21875 1.21875 -3 L 0.515625 -3 C 0.390625 -3 0.296875 -3 0.296875 -2.84375 C 0.296875 -2.75 0.375 -2.75 0.5 -2.75 L 1.15625 -2.75 L 0.75 -1.109375 C 0.703125 -0.9375 0.640625 -0.6875 0.640625 -0.59375 C 0.640625 -0.1875 1 0.0625 1.390625 0.0625 C 2.171875 0.0625 2.609375 -0.90625 2.609375 -1 C 2.609375 -1.09375 2.515625 -1.09375 2.5 -1.09375 C 2.40625 -1.09375 2.40625 -1.078125 2.34375 -0.953125 C 2.15625 -0.515625 1.796875 -0.125 1.421875 -0.125 C 1.265625 -0.125 1.171875 -0.21875 1.171875 -0.46875 C 1.171875 -0.53125 1.203125 -0.6875 1.21875 -0.75 Z M 1.71875 -2.75 "
           id="path5446" />
      </symbol>
    </g>
    <g
       id="g2577">
      <symbol
         overflow="visible"
         id="symbol9159">
        <path
           style="stroke:none;"
           d=""
           id="path2212" />
      </symbol>
      <symbol
         overflow="visible"
         id="symbol449">
        <path
           style="stroke:none;"
           d="M 2.9375 -3.71875 L 4.609375 -3.71875 C 4.734375 -3.71875 5.09375 -3.71875 5.09375 -4.0625 C 5.09375 -4.296875 4.890625 -4.296875 4.6875 -4.296875 L 1.90625 -4.296875 C 1.703125 -4.296875 1.3125 -4.296875 0.875 -3.828125 C 0.546875 -3.46875 0.265625 -2.984375 0.265625 -2.9375 C 0.265625 -2.921875 0.265625 -2.828125 0.390625 -2.828125 C 0.46875 -2.828125 0.484375 -2.875 0.546875 -2.953125 C 1.03125 -3.71875 1.609375 -3.71875 1.8125 -3.71875 L 2.640625 -3.71875 L 1.671875 -0.515625 C 1.625 -0.40625 1.5625 -0.1875 1.5625 -0.15625 C 1.5625 -0.046875 1.640625 0.125 1.859375 0.125 C 2.1875 0.125 2.234375 -0.15625 2.265625 -0.3125 Z M 2.9375 -3.71875 "
           id="path9536" />
      </symbol>
      <symbol
         overflow="visible"
         id="symbol1074">
        <path
           style="stroke:none;"
           d=""
           id="path9683" />
      </symbol>
      <symbol
         overflow="visible"
         id="symbol1030">
        <path
           style="stroke:none;"
           d="M 4.53125 -1.828125 L 4.296875 -1.828125 C 4.21875 -1.15625 4.125 -0.25 2.796875 -0.25 L 2.109375 -0.25 C 1.78125 -0.25 1.765625 -0.3125 1.765625 -0.515625 L 1.765625 -4.1875 C 1.765625 -4.421875 1.765625 -4.515625 2.421875 -4.515625 L 2.671875 -4.515625 L 2.671875 -4.765625 C 2.515625 -4.75 1.625 -4.734375 1.453125 -4.734375 C 1.1875 -4.734375 0.390625 -4.765625 0.390625 -4.765625 L 0.390625 -4.515625 L 0.5625 -4.515625 C 1.09375 -4.515625 1.109375 -4.4375 1.109375 -4.1875 L 1.109375 -0.5625 C 1.109375 -0.328125 1.09375 -0.25 0.5625 -0.25 L 0.390625 -0.25 L 0.390625 0 L 4.328125 0 Z M 4.53125 -1.828125 "
           id="path971" />
      </symbol>
      <symbol
         overflow="visible"
         id="symbol1244">
        <path
           style="stroke:none;"
           d=""
           id="path9271" />
      </symbol>
      <symbol
         overflow="visible"
         id="symbol7057">
        <path
           style="stroke:none;"
           d="M 1.46875 -0.109375 C 1.46875 0.265625 1.40625 0.71875 0.921875 1.15625 C 0.90625 1.1875 0.875 1.21875 0.875 1.25 C 0.875 1.296875 0.9375 1.34375 0.96875 1.34375 C 1.078125 1.34375 1.671875 0.78125 1.671875 -0.046875 C 1.671875 -0.46875 1.5 -0.796875 1.171875 -0.796875 C 0.953125 -0.796875 0.78125 -0.625 0.78125 -0.40625 C 0.78125 -0.1875 0.9375 0 1.1875 0 C 1.359375 0 1.46875 -0.109375 1.46875 -0.109375 Z M 1.46875 -0.109375 "
           id="path1990" />
      </symbol>
      <symbol
         overflow="visible"
         id="symbol1585">
        <path
           style="stroke:none;"
           d="M 1.71875 -2.75 L 2.421875 -2.75 C 2.5625 -2.75 2.640625 -2.75 2.640625 -2.90625 C 2.640625 -3 2.5625 -3 2.4375 -3 L 1.78125 -3 L 2.03125 -4.03125 C 2.046875 -4.0625 2.0625 -4.109375 2.0625 -4.125 C 2.0625 -4.265625 1.953125 -4.359375 1.8125 -4.359375 C 1.640625 -4.359375 1.546875 -4.234375 1.484375 -4.0625 C 1.4375 -3.875 1.53125 -4.21875 1.21875 -3 L 0.515625 -3 C 0.390625 -3 0.296875 -3 0.296875 -2.84375 C 0.296875 -2.75 0.375 -2.75 0.5 -2.75 L 1.15625 -2.75 L 0.75 -1.109375 C 0.703125 -0.9375 0.640625 -0.6875 0.640625 -0.59375 C 0.640625 -0.1875 1 0.0625 1.390625 0.0625 C 2.171875 0.0625 2.609375 -0.90625 2.609375 -1 C 2.609375 -1.09375 2.515625 -1.09375 2.5 -1.09375 C 2.40625 -1.09375 2.40625 -1.078125 2.34375 -0.953125 C 2.15625 -0.515625 1.796875 -0.125 1.421875 -0.125 C 1.265625 -0.125 1.171875 -0.21875 1.171875 -0.46875 C 1.171875 -0.53125 1.203125 -0.6875 1.21875 -0.75 Z M 1.71875 -2.75 "
           id="path5645" />
      </symbol>
    </g>
    <g
       id="g6703">
      <symbol
         overflow="visible"
         id="symbol1479">
        <path
           style="stroke:none;"
           d=""
           id="path5928" />
      </symbol>
      <symbol
         overflow="visible"
         id="symbol5741">
        <path
           style="stroke:none;"
           d="M 2.9375 -3.71875 L 4.609375 -3.71875 C 4.734375 -3.71875 5.09375 -3.71875 5.09375 -4.0625 C 5.09375 -4.296875 4.890625 -4.296875 4.6875 -4.296875 L 1.90625 -4.296875 C 1.703125 -4.296875 1.3125 -4.296875 0.875 -3.828125 C 0.546875 -3.46875 0.265625 -2.984375 0.265625 -2.9375 C 0.265625 -2.921875 0.265625 -2.828125 0.390625 -2.828125 C 0.46875 -2.828125 0.484375 -2.875 0.546875 -2.953125 C 1.03125 -3.71875 1.609375 -3.71875 1.8125 -3.71875 L 2.640625 -3.71875 L 1.671875 -0.515625 C 1.625 -0.40625 1.5625 -0.1875 1.5625 -0.15625 C 1.5625 -0.046875 1.640625 0.125 1.859375 0.125 C 2.1875 0.125 2.234375 -0.15625 2.265625 -0.3125 Z M 2.9375 -3.71875 "
           id="path3984" />
      </symbol>
      <symbol
         overflow="visible"
         id="symbol6723">
        <path
           style="stroke:none;"
           d=""
           id="path6843" />
      </symbol>
      <symbol
         overflow="visible"
         id="symbol6347">
        <path
           style="stroke:none;"
           d="M 4.53125 -1.828125 L 4.296875 -1.828125 C 4.21875 -1.15625 4.125 -0.25 2.796875 -0.25 L 2.109375 -0.25 C 1.78125 -0.25 1.765625 -0.3125 1.765625 -0.515625 L 1.765625 -4.1875 C 1.765625 -4.421875 1.765625 -4.515625 2.421875 -4.515625 L 2.671875 -4.515625 L 2.671875 -4.765625 C 2.515625 -4.75 1.625 -4.734375 1.453125 -4.734375 C 1.1875 -4.734375 0.390625 -4.765625 0.390625 -4.765625 L 0.390625 -4.515625 L 0.5625 -4.515625 C 1.09375 -4.515625 1.109375 -4.4375 1.109375 -4.1875 L 1.109375 -0.5625 C 1.109375 -0.328125 1.09375 -0.25 0.5625 -0.25 L 0.390625 -0.25 L 0.390625 0 L 4.328125 0 Z M 4.53125 -1.828125 "
           id="path4526" />
      </symbol>
      <symbol
         overflow="visible"
         id="symbol6382">
        <path
           style="stroke:none;"
           d=""
           id="path2104" />
      </symbol>
      <symbol
         overflow="visible"
         id="symbol185">
        <path
           style="stroke:none;"
           d="M 1.46875 -0.109375 C 1.46875 0.265625 1.40625 0.71875 0.921875 1.15625 C 0.90625 1.1875 0.875 1.21875 0.875 1.25 C 0.875 1.296875 0.9375 1.34375 0.96875 1.34375 C 1.078125 1.34375 1.671875 0.78125 1.671875 -0.046875 C 1.671875 -0.46875 1.5 -0.796875 1.171875 -0.796875 C 0.953125 -0.796875 0.78125 -0.625 0.78125 -0.40625 C 0.78125 -0.1875 0.9375 0 1.1875 0 C 1.359375 0 1.46875 -0.109375 1.46875 -0.109375 Z M 1.46875 -0.109375 "
           id="path5194" />
      </symbol>
      <symbol
         overflow="visible"
         id="symbol6041">
        <path
           style="stroke:none;"
           d="M 4.765625 -2.578125 C 4.765625 -2.78125 4.671875 -3.078125 4.390625 -3.078125 C 4.21875 -3.078125 4.03125 -2.859375 4.03125 -2.6875 C 4.03125 -2.453125 4.40625 -2.40625 4.40625 -1.9375 C 4.40625 -1.484375 3.953125 -0.484375 3.171875 -0.484375 C 2.84375 -0.484375 2.5625 -0.71875 2.46875 -1.03125 C 2.5625 -1.171875 2.71875 -1.65625 2.71875 -1.84375 C 2.71875 -1.9375 2.65625 -2.046875 2.546875 -2.046875 C 2.1875 -2.046875 2.15625 -1.296875 2.15625 -1.046875 C 1.96875 -0.796875 1.609375 -0.484375 1.15625 -0.484375 C 0.78125 -0.484375 0.515625 -0.828125 0.515625 -1.296875 C 0.515625 -2.109375 1.21875 -2.78125 1.21875 -2.890625 C 1.21875 -2.96875 1.15625 -3.046875 1.078125 -3.046875 C 1.015625 -3.046875 0.96875 -3.015625 0.921875 -2.953125 C 0.828125 -2.84375 0.734375 -2.6875 0.65625 -2.546875 C 0.40625 -2.125 0.234375 -1.546875 0.234375 -1.03125 C 0.234375 -0.484375 0.453125 0.0625 1.09375 0.0625 C 1.5625 0.0625 1.96875 -0.234375 2.21875 -0.609375 C 2.359375 -0.1875 2.65625 0.0625 3.109375 0.0625 C 4.328125 0.0625 4.765625 -2 4.765625 -2.578125 Z M 4.765625 -2.578125 "
           id="path2799" />
      </symbol>
    </g>
    <clipPath
       id="clipPath103">
      <path
         clip-rule="nonzero"
         d="M 4,1 H 9 V 5.785156 H 4 Z m 0,0"
         id="path9146" />
    </clipPath>
    <clipPath
       id="clipPath7282">
      <path
         clip-rule="nonzero"
         d="m 10,4 h 1 v 3.140625 h -1 z m 0,0"
         id="path4249" />
    </clipPath>
  </defs>
  <metadata
     id="metadata6786">
    <rdf:RDF>
      <cc:Work
         rdf:about="">
        <dc:format>image/svg+xml</dc:format>
        <dc:type
           rdf:resource="http://purl.org/dc/dcmitype/StillImage" />
        <dc:title />
      </cc:Work>
    </rdf:RDF>
  </metadata>
  <g
     id="layer1"
     inkscape:groupmode="layer"
     inkscape:label="Layer 1"
     transform="translate(-75, -805)">
    <g
       id="g1711"
       transform="matrix(1,0,0,-1,7.499994,1747.4999)">
      <path
         style="display:inline;fill:none;stroke:#000000;stroke-width:1px;stroke-linecap:butt;stroke-linejoin:miter;stroke-opacity:1;marker-start:none;marker-end:url(#Arrow2Mend-9-7)"
         d="m 287.5,874.99997 -30,-4e-5"
         id="path3787"
         inkscape:connector-curvature="0"
         sodipodi:nodetypes="cc" />
      <g
         id="g3793"
         transform="matrix(0,0.7272727,0.7272727,0,455.38788,852.45437)"
         style="font-style:normal;font-variant:normal;font-weight:normal;font-stretch:normal;font-size:16.5px;line-height:125%;font-family:'Nimbus Roman No9 L';text-align:start;writing-mode:lr-tb;text-anchor:start;display:inline">
        <path
           transform="translate(10.5,17.500004)"
           id="path3789"
           sodipodi:nodetypes="cc"
           d="m 9.5,-274.09586 v -10"
           style="font-style:normal;font-variant:normal;font-weight:normal;font-stretch:normal;font-size:16.5px;line-height:125%;font-family:'Nimbus Roman No9 L';text-align:start;writing-mode:lr-tb;text-anchor:start;fill:none;stroke:#000000;stroke-width:1px;stroke-linecap:butt;stroke-linejoin:miter;stroke-opacity:1"
           inkscape:connector-curvature="0" />
        <path
           transform="rotate(-90,26.5,-268.09586)"
           id="path3791"
           sodipodi:nodetypes="cc"
           d="m 19.999996,-279.59586 v 10"
           style="font-style:normal;font-variant:normal;font-weight:normal;font-stretch:normal;font-size:16.5px;line-height:125%;font-family:'Nimbus Roman No9 L';text-align:start;writing-mode:lr-tb;text-anchor:start;display:inline;fill:none;stroke:#000000;stroke-width:1px;stroke-linecap:butt;stroke-linejoin:miter;stroke-opacity:1"
           inkscape:connector-curvature="0" />
      </g>
    </g>
    <g
       id="g1685"
       transform="matrix(1,0,0,-1,7.500004,1747.4998)">
      <path
         style="display:inline;fill:none;stroke:#000000;stroke-width:1px;stroke-linecap:butt;stroke-linejoin:miter;stroke-opacity:1;marker-start:none;marker-end:url(#Arrow2Mend-9-7)"
         d="m 204.99999,874.99982 h 37.5"
         id="path3777"
         inkscape:connector-curvature="0"
         sodipodi:nodetypes="cc" />
      <g
         id="g3783"
         transform="matrix(0,0.7272727,-0.7272727,0,44.612114,852.45437)"
         style="font-style:normal;font-variant:normal;font-weight:normal;font-stretch:normal;font-size:16.5px;line-height:125%;font-family:'Nimbus Roman No9 L';text-align:start;writing-mode:lr-tb;text-anchor:start;display:inline">
        <path
           transform="translate(10.5,17.500004)"
           id="path3779"
           sodipodi:nodetypes="cc"
           d="m 9.5,-274.09586 v -10"
           style="font-style:normal;font-variant:normal;font-weight:normal;font-stretch:normal;font-size:16.5px;line-height:125%;font-family:'Nimbus Roman No9 L';text-align:start;writing-mode:lr-tb;text-anchor:start;fill:none;stroke:#000000;stroke-width:1px;stroke-linecap:butt;stroke-linejoin:miter;stroke-opacity:1"
           inkscape:connector-curvature="0" />
        <path
           transform="rotate(-90,26.5,-268.09586)"
           id="path3781"
           sodipodi:nodetypes="cc"
           d="m 19.999996,-279.59586 v 10"
           style="font-style:normal;font-variant:normal;font-weight:normal;font-stretch:normal;font-size:16.5px;line-height:125%;font-family:'Nimbus Roman No9 L';text-align:start;writing-mode:lr-tb;text-anchor:start;display:inline;fill:none;stroke:#000000;stroke-width:1px;stroke-linecap:butt;stroke-linejoin:miter;stroke-opacity:1"
           inkscape:connector-curvature="0" />
      </g>
    </g>
    <path
       sodipodi:nodetypes="cc"
       inkscape:connector-curvature="0"
       id="path3369"
       d="m 305,827.49996 h 20"
       style="display:inline;fill:none;stroke:#000000;stroke-width:1px;stroke-linecap:butt;stroke-linejoin:miter;stroke-opacity:1;marker-start:none;marker-end:url(#Arrow2Mend-9-7)" />
    <path
       style="display:inline;fill:none;stroke:#000000;stroke-width:1px;stroke-linecap:butt;stroke-linejoin:miter;stroke-opacity:1;marker-start:none;marker-end:url(#Arrow2Mend-9-7)"
       d="m 257.5,827.49992 27.5,7e-5"
       id="path4636"
       inkscape:connector-curvature="0"
       sodipodi:nodetypes="cc" />
    <path
       sodipodi:nodetypes="ccc"
       inkscape:connector-curvature="0"
       id="path4754"
       d="m 355,827.49996 v 44.99996 h -20"
       style="display:inline;fill:none;stroke:#000000;stroke-width:1px;stroke-linecap:butt;stroke-linejoin:miter;stroke-opacity:1;marker-start:url(#DotM);marker-end:url(#Arrow2Mend-9)" />
    <path
       sodipodi:nodetypes="cc"
       inkscape:connector-curvature="0"
       id="path4650"
       d="m 345,827.49993 h 30"
       style="display:inline;fill:none;stroke:#000000;stroke-width:1px;stroke-linecap:butt;stroke-linejoin:miter;stroke-opacity:1;marker-start:none;marker-end:url(#Arrow2Mend-9-7)" />
    <rect
       style="display:inline;fill:#ffffff;fill-opacity:1;fill-rule:nonzero;stroke:#000000;stroke-width:1.333;stroke-linecap:round;stroke-linejoin:miter;stroke-miterlimit:4;stroke-dasharray:none;stroke-dashoffset:0;stroke-opacity:1"
       id="rect4620"
       width="20"
       y="807.5"
       x="325"
       height="40"
       inkscape:export-filename="C:\Documents and Settings\mhinkkan\Desktop\testi3.png"
       inkscape:export-xdpi="300"
       inkscape:export-ydpi="300" />
    <path
       style="display:inline;fill:none;stroke:#000000;stroke-width:1px;stroke-linecap:butt;stroke-linejoin:miter;stroke-opacity:1;marker-start:none;marker-end:url(#Arrow2Mend-9-7)"
       d="M 212.5,827.4999 H 250"
       id="path4648"
       inkscape:connector-curvature="0"
       sodipodi:nodetypes="cc" />
    <g
       id="g4642"
       transform="matrix(0,0.7272727,-0.7272727,0,52.112112,804.95445)"
       style="font-style:normal;font-variant:normal;font-weight:normal;font-stretch:normal;font-size:16.5px;line-height:125%;font-family:'Nimbus Roman No9 L';text-align:start;writing-mode:lr-tb;text-anchor:start;display:inline">
      <path
         transform="translate(10.5,17.500004)"
         id="path4638"
         sodipodi:nodetypes="cc"
         d="m 9.5,-274.09586 v -10"
         style="font-style:normal;font-variant:normal;font-weight:normal;font-stretch:normal;font-size:16.5px;line-height:125%;font-family:'Nimbus Roman No9 L';text-align:start;writing-mode:lr-tb;text-anchor:start;fill:none;stroke:#000000;stroke-width:1px;stroke-linecap:butt;stroke-linejoin:miter;stroke-opacity:1"
         inkscape:connector-curvature="0" />
      <path
         transform="rotate(-90,26.5,-268.09586)"
         id="path4640"
         sodipodi:nodetypes="cc"
         d="m 19.999996,-279.59586 v 10"
         style="font-style:normal;font-variant:normal;font-weight:normal;font-stretch:normal;font-size:16.5px;line-height:125%;font-family:'Nimbus Roman No9 L';text-align:start;writing-mode:lr-tb;text-anchor:start;display:inline;fill:none;stroke:#000000;stroke-width:1px;stroke-linecap:butt;stroke-linejoin:miter;stroke-opacity:1"
         inkscape:connector-curvature="0" />
    </g>
    <path
       id="path4644"
       sodipodi:nodetypes="cc"
       d="m 245.22724,842.99998 h 7.27273"
       style="font-style:normal;font-variant:normal;font-weight:normal;font-stretch:normal;font-size:16.5px;line-height:125%;font-family:'Nimbus Roman No9 L';text-align:start;writing-mode:lr-tb;text-anchor:start;display:inline;fill:none;stroke:#000000;stroke-width:0.727273px;stroke-linecap:butt;stroke-linejoin:miter;stroke-opacity:1"
       inkscape:connector-curvature="0" />
    <g
       inkscape:label=""
       transform="matrix(1.25,0,0,1.25,215.48584,725.07321)"
       id="g2446"
       style="stroke-width:0.8">
      <g
         id="g9459"
         style="stroke-width:0.8">
        <g
           style="fill:#000000;fill-opacity:1;stroke-width:0.8"
           id="g7778">
          <use
             xlink:href="#symbol4516"
             x="93.121002"
             y="78.419998"
             id="use6355"
             width="100%"
             height="100%"
             style="stroke-width:0.8" />
        </g>
        <path
           style="fill:none;stroke:#000000;stroke-width:0.3184;stroke-linecap:butt;stroke-linejoin:miter;stroke-miterlimit:10;stroke-opacity:1"
           d="M 9.375e-5,0.00103125 H 4.980563"
           transform="matrix(1,0,0,-1,93.121,82.669)"
           id="path8636" />
        <g
           style="fill:#000000;fill-opacity:1;stroke-width:0.8"
           id="g4817">
          <use
             xlink:href="#symbol2386"
             x="93.276001"
             y="91.994003"
             id="use448"
             width="100%"
             height="100%"
             style="stroke-width:0.8" />
        </g>
      </g>
    </g>
    <g
       inkscape:label=""
       transform="matrix(1.25,0,0,1.25,97.101552,718.50019)"
       id="g1735"
       style="stroke-width:0.8">
      <g
         id="g8364"
         style="stroke-width:0.8">
        <g
           style="fill:#000000;fill-opacity:1;stroke-width:0.8"
           id="g4573">
          <use
             xlink:href="#symbol5294"
             x="91.925003"
             y="81.962997"
             id="use8496"
             width="100%"
             height="100%"
             style="stroke-width:0.8" />
        </g>
        <g
           style="fill:#000000;fill-opacity:1;stroke-width:0.8"
           id="g1175">
          <use
             xlink:href="#symbol6179"
             x="96.279999"
             y="83.457001"
             id="use2262"
             width="100%"
             height="100%"
             style="stroke-width:0.8" />
        </g>
      </g>
    </g>
    <g
       inkscape:label=""
       transform="matrix(1.25,0,0,1.25,234.60156,718.50028)"
       id="g3347"
       style="stroke-width:0.8">
      <g
         id="g7707"
         style="stroke-width:0.8">
        <g
           style="fill:#000000;fill-opacity:1;stroke-width:0.8"
           id="g9249">
          <use
             xlink:href="#symbol1324"
             x="91.925003"
             y="81.962997"
             id="use4865"
             width="100%"
             height="100%"
             style="stroke-width:0.8" />
        </g>
        <g
           style="fill:#000000;fill-opacity:1;stroke-width:0.8"
           id="g7210">
          <use
             xlink:href="#symbol5249"
             x="98.126999"
             y="83.457001"
             id="use7235"
             width="100%"
             height="100%"
             style="stroke-width:0.8" />
        </g>
      </g>
    </g>
    <rect
       style="display:inline;fill:#ffffff;fill-opacity:1;fill-rule:nonzero;stroke:#000000;stroke-width:1.333;stroke-linecap:round;stroke-linejoin:miter;stroke-miterlimit:4;stroke-dasharray:none;stroke-dashoffset:0;stroke-opacity:1"
       id="rect3367"
       width="20"
       y="807.5"
       x="285"
       height="40"
       inkscape:export-filename="C:\Documents and Settings\mhinkkan\Desktop\testi3.png"
       inkscape:export-xdpi="300"
       inkscape:export-ydpi="300" />
    <g
       inkscape:label=""
       transform="matrix(1.25,0,0,1.25,174.5459,725.00491)"
       id="g2507"
       style="stroke-width:0.8">
      <g
         id="g6566"
         style="stroke-width:0.8">
        <g
           style="fill:#000000;fill-opacity:1;stroke-width:0.8"
           id="g6990">
          <use
             xlink:href="#symbol9421"
             x="93.871002"
             y="78.419998"
             id="use8996"
             width="100%"
             height="100%"
             style="stroke-width:0.8" />
        </g>
        <path
           style="fill:none;stroke:#000000;stroke-width:0.3184;stroke-linecap:butt;stroke-linejoin:miter;stroke-miterlimit:10;stroke-opacity:1"
           d="M 9.375e-5,0.00103125 H 6.484469"
           transform="matrix(1,0,0,-1,93.121,82.669)"
           id="path8574" />
        <g
           style="fill:#000000;fill-opacity:1;stroke-width:0.8"
           id="g4307">
          <use
             xlink:href="#symbol1999"
             x="93.121002"
             y="91.994003"
             id="use3040"
             width="100%"
             height="100%"
             style="stroke-width:0.8" />
        </g>
      </g>
    </g>
    <ellipse
       ry="7.4999976"
       rx="7.5000033"
       cy="-257.5"
       cx="872.49988"
       style="font-style:normal;font-variant:normal;font-weight:normal;font-stretch:normal;font-size:12px;line-height:125%;font-family:'Nimbus Roman No9 L';text-align:start;writing-mode:lr-tb;text-anchor:start;display:inline;fill:#ffffff;fill-opacity:1;stroke:#000000;stroke-width:1.333;stroke-linecap:round;stroke-linejoin:round;stroke-miterlimit:4;stroke-dasharray:none;stroke-dashoffset:0;stroke-opacity:1"
       id="ellipse3371"
       transform="rotate(90)" />
    <path
       sodipodi:nodetypes="cc"
       inkscape:connector-curvature="0"
       id="path3769"
       d="M 257.5,864.99991 V 834.99987"
       style="display:inline;fill:none;stroke:#000000;stroke-width:1px;stroke-linecap:butt;stroke-linejoin:miter;stroke-opacity:1;marker-end:url(#Arrow2Mend-9)" />
    <ellipse
       ry="7.4999976"
       rx="7.5000033"
       cy="-257.5"
       cx="827.49994"
       style="font-style:normal;font-variant:normal;font-weight:normal;font-stretch:normal;font-size:12px;line-height:125%;font-family:'Nimbus Roman No9 L';text-align:start;writing-mode:lr-tb;text-anchor:start;display:inline;fill:#ffffff;fill-opacity:1;stroke:#000000;stroke-width:1.333;stroke-linecap:round;stroke-linejoin:round;stroke-miterlimit:4;stroke-dasharray:none;stroke-dashoffset:0;stroke-opacity:1"
       id="ellipse4646"
       transform="rotate(90)" />
    <rect
       style="display:inline;fill:#ffffff;fill-opacity:1;fill-rule:nonzero;stroke:#000000;stroke-width:1.333;stroke-linecap:round;stroke-linejoin:miter;stroke-miterlimit:4;stroke-dasharray:none;stroke-dashoffset:0;stroke-opacity:1"
       id="rect1652"
       width="40.000004"
       y="857.49994"
       x="295"
       height="30.00001"
       inkscape:export-filename="C:\Documents and Settings\mhinkkan\Desktop\testi3.png"
       inkscape:export-xdpi="300"
       inkscape:export-ydpi="300" />
    <g
       id="g1669"
       transform="matrix(0.66666667,0,0,0.66666697,33.333326,255.833)"
       style="stroke-width:1.5">
      <rect
         inkscape:export-ydpi="300"
         inkscape:export-xdpi="300"
         inkscape:export-filename="C:\Documents and Settings\mhinkkan\Desktop\testi3.png"
         height="30"
         x="400"
         y="909.99994"
         width="45"
         id="rect1654"
         style="display:inline;fill:#ffffff;fill-opacity:1;fill-rule:nonzero;stroke:#000000;stroke-width:0.75;stroke-linecap:round;stroke-linejoin:miter;stroke-miterlimit:4;stroke-dasharray:none;stroke-dashoffset:0;stroke-opacity:1" />
      <path
         inkscape:connector-curvature="0"
         style="fill:none;stroke:#0000ff;stroke-width:2.25;stroke-linecap:round;stroke-linejoin:round;stroke-miterlimit:8.32;stroke-dasharray:none;stroke-dashoffset:0;stroke-opacity:1"
         d="m 422.5,925.17851 c 2.16655,9e-4 4.31035,-0.56958 6.25852,-1.52216 1.33717,-0.65338 2.59598,-1.46721 3.77246,-2.38674 2.8732,-2.24892 5.29672,-5.03814 7.46902,-7.98153"
         id="path1656"
         sodipodi:nodetypes="cccc" />
      <path
         sodipodi:nodetypes="cccc"
         id="path1658"
         d="m 422.5,925.25237 c -2.16655,-9e-4 -4.31035,0.56958 -6.25852,1.52216 -1.33717,0.65338 -2.59598,1.46721 -3.77246,2.38674 -2.8732,2.24892 -5.29672,5.03814 -7.46902,7.98153"
         style="fill:none;stroke:#0000ff;stroke-width:2.25;stroke-linecap:round;stroke-linejoin:round;stroke-miterlimit:8.32;stroke-dasharray:none;stroke-dashoffset:0;stroke-opacity:1"
         inkscape:connector-curvature="0" />
      <path
         style="display:inline;fill:none;stroke:#000000;stroke-width:0.75;stroke-linecap:square;stroke-linejoin:miter;stroke-miterlimit:4;stroke-dasharray:none;stroke-opacity:1;marker-start:none;marker-end:none"
         d="m 402.85714,925.17849 h 39.46429"
         id="path1660"
         inkscape:connector-curvature="0"
         sodipodi:nodetypes="cc" />
      <path
         sodipodi:nodetypes="cc"
         inkscape:connector-curvature="0"
         id="path1662"
         d="m 422.14285,912.49992 0.17858,25"
         style="display:inline;fill:none;stroke:#000000;stroke-width:0.75;stroke-linecap:square;stroke-linejoin:miter;stroke-miterlimit:4;stroke-dasharray:none;stroke-opacity:1;marker-start:none;marker-end:none" />
    </g>
    <g
       inkscape:label=""
       transform="translate(211.68752,860.96739)"
       id="g845">
      <g
         fill="#000000"
         fill-opacity="1"
         id="g17"
         transform="matrix(1.33333,0,0,1.33333,-0.354167,0.00916672)">
        <g
           id="use15"
           transform="translate(0,4.29)">
          <path
             d="m 2.9375,-3.71875 h 1.671875 c 0.125,0 0.484375,0 0.484375,-0.34375 0,-0.234375 -0.203125,-0.234375 -0.40625,-0.234375 H 1.90625 c -0.203125,0 -0.59375,0 -1.03125,0.46875 -0.328125,0.359375 -0.609375,0.84375 -0.609375,0.890625 0,0.015625 0,0.109375 0.125,0.109375 0.078125,0 0.09375,-0.046875 0.15625,-0.125 C 1.03125,-3.71875 1.609375,-3.71875 1.8125,-3.71875 h 0.828125 l -0.96875,3.203125 C 1.625,-0.40625 1.5625,-0.1875 1.5625,-0.15625 c 0,0.109375 0.078125,0.28125 0.296875,0.28125 0.328125,0 0.375,-0.28125 0.40625,-0.4375 z m 0,0"
             id="path29" />
        </g>
      </g>
      <g
         clip-path="url(#clipPath103)"
         id="g23"
         transform="matrix(1.33333,0,0,1.33333,-0.354167,0.00916672)">
        <g
           fill="#000000"
           fill-opacity="1"
           id="g21">
          <g
             id="use19"
             transform="translate(4.355,5.7839999)">
            <path
               d="M 4.53125,-1.828125 H 4.296875 C 4.21875,-1.15625 4.125,-0.25 2.796875,-0.25 h -0.6875 c -0.328125,0 -0.34375,-0.0625 -0.34375,-0.265625 V -4.1875 c 0,-0.234375 0,-0.328125 0.65625,-0.328125 h 0.25 v -0.25 C 2.515625,-4.75 1.625,-4.734375 1.453125,-4.734375 c -0.265625,0 -1.0625,-0.03125 -1.0625,-0.03125 v 0.25 H 0.5625 c 0.53125,0 0.546875,0.078125 0.546875,0.328125 v 3.625 c 0,0.234375 -0.015625,0.3125 -0.546875,0.3125 H 0.390625 V 0 h 3.9375 z m 0,0"
               id="path33" />
          </g>
        </g>
      </g>
    </g>
    <g
       inkscape:label=""
       transform="translate(259.78126,849.55207)"
       id="g1428">
      <g
         fill="#000000"
         fill-opacity="1"
         id="g1412"
         transform="matrix(1.33333,0,0,1.33333,-0.354167,0.00916672)">
        <g
           id="use24"
           transform="translate(0,4.29)">
          <path
             d="m 2.9375,-3.71875 h 1.671875 c 0.125,0 0.484375,0 0.484375,-0.34375 0,-0.234375 -0.203125,-0.234375 -0.40625,-0.234375 H 1.90625 c -0.203125,0 -0.59375,0 -1.03125,0.46875 -0.328125,0.359375 -0.609375,0.84375 -0.609375,0.890625 0,0.015625 0,0.109375 0.125,0.109375 0.078125,0 0.09375,-0.046875 0.15625,-0.125 C 1.03125,-3.71875 1.609375,-3.71875 1.8125,-3.71875 h 0.828125 l -0.96875,3.203125 C 1.625,-0.40625 1.5625,-0.1875 1.5625,-0.15625 c 0,0.109375 0.078125,0.28125 0.296875,0.28125 0.328125,0 0.375,-0.28125 0.40625,-0.4375 z m 0,0"
             id="path50" />
        </g>
      </g>
      <g
         fill="#000000"
         fill-opacity="1"
         id="g30"
         transform="matrix(1.33333,0,0,1.33333,-0.354167,0.00916672)">
        <g
           id="use28"
           transform="translate(4.355,5.7839999)">
          <path
             d="M 4.53125,-1.828125 H 4.296875 C 4.21875,-1.15625 4.125,-0.25 2.796875,-0.25 h -0.6875 c -0.328125,0 -0.34375,-0.0625 -0.34375,-0.265625 V -4.1875 c 0,-0.234375 0,-0.328125 0.65625,-0.328125 h 0.25 v -0.25 C 2.515625,-4.75 1.625,-4.734375 1.453125,-4.734375 c -0.265625,0 -1.0625,-0.03125 -1.0625,-0.03125 v 0.25 H 0.5625 c 0.53125,0 0.546875,0.078125 0.546875,0.328125 v 3.625 c 0,0.234375 -0.015625,0.3125 -0.546875,0.3125 H 0.390625 V 0 h 3.9375 z m 0,0"
             id="path54" />
        </g>
      </g>
      <g
         clip-path="url(#clipPath7282)"
         id="g36"
         transform="matrix(1.33333,0,0,1.33333,-0.354167,0.00916672)">
        <g
           fill="#000000"
           fill-opacity="1"
           id="g34">
          <g
             id="use32"
             transform="translate(9.2810001,5.7839999)">
            <path
               d="m 1.46875,-0.109375 c 0,0.375 -0.0625,0.828125 -0.546875,1.265625 C 0.90625,1.1875 0.875,1.21875 0.875,1.25 c 0,0.046875 0.0625,0.09375 0.09375,0.09375 0.109375,0 0.703125,-0.5625 0.703125,-1.390625 0,-0.421875 -0.171875,-0.75 -0.5,-0.75 -0.21875,0 -0.390625,0.171875 -0.390625,0.390625 C 0.78125,-0.1875 0.9375,0 1.1875,0 1.359375,0 1.46875,-0.109375 1.46875,-0.109375 Z m 0,0"
               id="path58" />
          </g>
        </g>
      </g>
      <g
         fill="#000000"
         fill-opacity="1"
         id="g44"
         transform="matrix(1.33333,0,0,1.33333,-0.354167,0.00916672)">
        <g
           id="use38"
           transform="translate(11.647,5.7839999)">
          <path
             d="M 1.40625,-2.75 H 2.484375 V -3 H 1.40625 v -1.28125 h -0.25 c 0,0.625 -0.28125,1.3125 -0.953125,1.328125 V -2.75 H 0.84375 v 1.875 c 0,0.78125 0.59375,0.9375 0.984375,0.9375 0.46875,0 0.78125,-0.390625 0.78125,-0.9375 V -1.265625 H 2.375 v 0.375 c 0,0.484375 -0.21875,0.734375 -0.5,0.734375 -0.46875,0 -0.46875,-0.578125 -0.46875,-0.703125 z m 0,0"
             id="path62" />
        </g>
        <g
           id="use40"
           transform="translate(14.760104,5.7839999)">
          <path
             d="m 3.6875,-1.484375 c 0,-0.875 -0.75,-1.625 -1.703125,-1.625 -0.96875,0 -1.71875,0.75 -1.71875,1.625 0,0.859375 0.765625,1.546875 1.71875,1.546875 0.9375,0 1.703125,-0.6875 1.703125,-1.546875 z M 1.984375,-0.15625 c -0.265625,0 -0.640625,-0.078125 -0.875,-0.421875 -0.1875,-0.28125 -0.203125,-0.640625 -0.203125,-0.96875 0,-0.296875 0,-0.71875 0.25,-1.015625 0.171875,-0.203125 0.46875,-0.34375 0.828125,-0.34375 0.40625,0 0.703125,0.1875 0.859375,0.40625 0.1875,0.265625 0.203125,0.625 0.203125,0.953125 0,0.328125 -0.015625,0.703125 -0.21875,0.984375 -0.1875,0.265625 -0.5,0.40625 -0.84375,0.40625 z m 0,0"
             id="path66" />
        </g>
        <g
           id="use42"
           transform="translate(18.731684,5.7839999)">
          <path
             d="M 1.40625,-2.75 H 2.484375 V -3 H 1.40625 v -1.28125 h -0.25 c 0,0.625 -0.28125,1.3125 -0.953125,1.328125 V -2.75 H 0.84375 v 1.875 c 0,0.78125 0.59375,0.9375 0.984375,0.9375 0.46875,0 0.78125,-0.390625 0.78125,-0.9375 V -1.265625 H 2.375 v 0.375 c 0,0.484375 -0.21875,0.734375 -0.5,0.734375 -0.46875,0 -0.46875,-0.578125 -0.46875,-0.703125 z m 0,0"
             id="path70" />
        </g>
      </g>
    </g>
  </g>
</svg>
