<?xml version="1.0" encoding="UTF-8" standalone="no"?>
<svg
   width="480"
   height="250"
   id="svg3470"
   sodipodi:version="0.32"
   inkscape:version="1.2.2 (b0a8486541, 2022-12-01)"
   sodipodi:docname="carrier_comparison.svg"
   inkscape:output_extension="org.inkscape.output.svg.inkscape"
   version="1.0"
   xmlns:inkscape="http://www.inkscape.org/namespaces/inkscape"
   xmlns:sodipodi="http://sodipodi.sourceforge.net/DTD/sodipodi-0.dtd"
   xmlns:xlink="http://www.w3.org/1999/xlink"
   xmlns="http://www.w3.org/2000/svg"
   xmlns:svg="http://www.w3.org/2000/svg"
   xmlns:rdf="http://www.w3.org/1999/02/22-rdf-syntax-ns#"
   xmlns:cc="http://creativecommons.org/ns#"
   xmlns:dc="http://purl.org/dc/elements/1.1/">
  <sodipodi:namedview
     id="base"
     pagecolor="#ffffff"
     bordercolor="#666666"
     borderopacity="1.0"
     gridtolerance="36.6"
     guidetolerance="10"
     objecttolerance="10"
     inkscape:pageopacity="0.0"
     inkscape:pageshadow="2"
     inkscape:zoom="2.5"
     inkscape:cx="228.2"
     inkscape:cy="141.4"
     inkscape:document-units="px"
     inkscape:current-layer="layer2"
     showgrid="true"
     inkscape:grid-points="true"
     inkscape:object-paths="true"
     inkscape:object-points="false"
     inkscape:grid-bbox="false"
     inkscape:window-width="2560"
     inkscape:window-height="1403"
     inkscape:window-x="0"
     inkscape:window-y="0"
     width="349.29px"
     height="359.4px"
     showguides="true"
     inkscape:guide-bbox="true"
     inkscape:guide-points="false"
     inkscape:object-nodes="true"
     inkscape:object-bbox="true"
     inkscape:snap-bbox="false"
     inkscape:snap-nodes="true"
     inkscape:bbox-paths="true"
     inkscape:snap-global="true"
     inkscape:snap-guide="true"
     inkscape:window-maximized="1"
     inkscape:snap-grids="true"
     inkscape:snap-object-midpoints="true"
     inkscape:document-rotation="0"
     fit-margin-top="0"
     fit-margin-left="0"
     fit-margin-right="0"
     fit-margin-bottom="0"
     inkscape:showpageshadow="2"
     inkscape:pagecheckerboard="0"
     inkscape:deskcolor="#d1d1d1">
    <inkscape:grid
       snapvisiblegridlinesonly="true"
       empspacing="5"
       empopacity="0.4"
       opacity="0.2"
       empcolor="#0000ff"
       color="#0000ff"
       spacingy="0.5"
       spacingx="0.5"
       originy="5.0000005"
       originx="100.00001"
       type="xygrid"
       id="GridFromPre046Settings"
       visible="true"
       enabled="true" />
    <sodipodi:guide
       id="guide35742"
       position="2049.5192,1189.6728"
       orientation="0,1"
       inkscape:locked="false" />
    <sodipodi:guide
       id="guide3449"
       position="-104.99999,61.595855"
       orientation="1,0"
       inkscape:locked="false" />
  </sodipodi:namedview>
  <defs
     id="defs3472">
    <marker
       style="overflow:visible"
       id="marker5956"
       refX="0"
       refY="0"
       orient="auto"
       inkscape:stockid="DotS"
       inkscape:isstock="true">
      <path
         transform="matrix(0.2,0,0,0.2,1.48,0.2)"
         style="fill:#ff0000;fill-opacity:1;fill-rule:evenodd;stroke:#ff0000;stroke-width:1pt;stroke-opacity:1"
         d="m -2.5,-1 c 0,2.76 -2.24,5 -5,5 -2.76,0 -5,-2.24 -5,-5 0,-2.76 2.24,-5 5,-5 2.76,0 5,2.24 5,5 z"
         id="path5954" />
    </marker>
    <marker
       style="overflow:visible"
       id="marker5782"
       refX="0"
       refY="0"
       orient="auto"
       inkscape:stockid="DotS"
       inkscape:isstock="true">
      <path
         transform="matrix(0.2,0,0,0.2,1.48,0.2)"
         style="fill:#ff0000;fill-opacity:1;fill-rule:evenodd;stroke:#ff0000;stroke-width:1pt;stroke-opacity:1"
         d="m -2.5,-1 c 0,2.76 -2.24,5 -5,5 -2.76,0 -5,-2.24 -5,-5 0,-2.76 2.24,-5 5,-5 2.76,0 5,2.24 5,5 z"
         id="path5780" />
    </marker>
    <marker
       style="overflow:visible"
       id="marker5640"
       refX="0"
       refY="0"
       orient="auto"
       inkscape:stockid="DotS"
       inkscape:isstock="true"
       inkscape:collect="always">
      <path
         transform="matrix(0.2,0,0,0.2,1.48,0.2)"
         style="fill:#ff0000;fill-opacity:1;fill-rule:evenodd;stroke:#ff0000;stroke-width:1pt;stroke-opacity:1"
         d="m -2.5,-1 c 0,2.76 -2.24,5 -5,5 -2.76,0 -5,-2.24 -5,-5 0,-2.76 2.24,-5 5,-5 2.76,0 5,2.24 5,5 z"
         id="path5638" />
    </marker>
    <marker
       style="overflow:visible"
       id="marker5506"
       refX="0"
       refY="0"
       orient="auto"
       inkscape:stockid="DotS"
       inkscape:isstock="true"
       inkscape:collect="always">
      <path
         transform="matrix(0.2,0,0,0.2,1.48,0.2)"
         style="fill:#ff0000;fill-opacity:1;fill-rule:evenodd;stroke:#ff0000;stroke-width:1pt;stroke-opacity:1"
         d="m -2.5,-1 c 0,2.76 -2.24,5 -5,5 -2.76,0 -5,-2.24 -5,-5 0,-2.76 2.24,-5 5,-5 2.76,0 5,2.24 5,5 z"
         id="path5504" />
    </marker>
    <marker
       style="overflow:visible"
       id="marker5368"
       refX="0"
       refY="0"
       orient="auto"
       inkscape:stockid="DotS"
       inkscape:isstock="true"
       inkscape:collect="always">
      <path
         transform="matrix(0.2,0,0,0.2,1.48,0.2)"
         style="fill:#ff0000;fill-opacity:1;fill-rule:evenodd;stroke:#ff0000;stroke-width:1pt;stroke-opacity:1"
         d="m -2.5,-1 c 0,2.76 -2.24,5 -5,5 -2.76,0 -5,-2.24 -5,-5 0,-2.76 2.24,-5 5,-5 2.76,0 5,2.24 5,5 z"
         id="path5366" />
    </marker>
    <marker
       style="overflow:visible"
       id="marker5250"
       refX="0"
       refY="0"
       orient="auto"
       inkscape:stockid="DotS"
       inkscape:isstock="true"
       inkscape:collect="always">
      <path
         transform="matrix(0.2,0,0,0.2,1.48,0.2)"
         style="fill:#ff0000;fill-opacity:1;fill-rule:evenodd;stroke:#ff0000;stroke-width:1pt;stroke-opacity:1"
         d="m -2.5,-1 c 0,2.76 -2.24,5 -5,5 -2.76,0 -5,-2.24 -5,-5 0,-2.76 2.24,-5 5,-5 2.76,0 5,2.24 5,5 z"
         id="path5248" />
    </marker>
    <marker
       style="overflow:visible"
       id="marker5140"
       refX="0"
       refY="0"
       orient="auto"
       inkscape:stockid="DotS"
       inkscape:isstock="true"
       inkscape:collect="always">
      <path
         transform="matrix(0.2,0,0,0.2,1.48,0.2)"
         style="fill:#ff0000;fill-opacity:1;fill-rule:evenodd;stroke:#ff0000;stroke-width:1pt;stroke-opacity:1"
         d="m -2.5,-1 c 0,2.76 -2.24,5 -5,5 -2.76,0 -5,-2.24 -5,-5 0,-2.76 2.24,-5 5,-5 2.76,0 5,2.24 5,5 z"
         id="path5138" />
    </marker>
    <marker
       style="overflow:visible"
       id="marker5032"
       refX="0"
       refY="0"
       orient="auto"
       inkscape:stockid="DotS"
       inkscape:isstock="true"
       inkscape:collect="always">
      <path
         transform="matrix(0.2,0,0,0.2,1.48,0.2)"
         style="fill:#ff0000;fill-opacity:1;fill-rule:evenodd;stroke:#ff0000;stroke-width:1pt;stroke-opacity:1"
         d="m -2.5,-1 c 0,2.76 -2.24,5 -5,5 -2.76,0 -5,-2.24 -5,-5 0,-2.76 2.24,-5 5,-5 2.76,0 5,2.24 5,5 z"
         id="path5030" />
    </marker>
    <marker
       style="overflow:visible"
       id="marker4928"
       refX="0"
       refY="0"
       orient="auto"
       inkscape:stockid="DotS"
       inkscape:isstock="true">
      <path
         transform="matrix(0.2,0,0,0.2,1.48,0.2)"
         style="fill:#ff0000;fill-opacity:1;fill-rule:evenodd;stroke:#ff0000;stroke-width:1pt;stroke-opacity:1"
         d="m -2.5,-1 c 0,2.76 -2.24,5 -5,5 -2.76,0 -5,-2.24 -5,-5 0,-2.76 2.24,-5 5,-5 2.76,0 5,2.24 5,5 z"
         id="path4926" />
    </marker>
    <marker
       style="overflow:visible"
       id="marker4848"
       refX="0"
       refY="0"
       orient="auto"
       inkscape:stockid="DotS"
       inkscape:isstock="true"
       inkscape:collect="always">
      <path
         transform="matrix(0.2,0,0,0.2,1.48,0.2)"
         style="fill:#ff0000;fill-opacity:1;fill-rule:evenodd;stroke:#ff0000;stroke-width:1pt;stroke-opacity:1"
         d="m -2.5,-1 c 0,2.76 -2.24,5 -5,5 -2.76,0 -5,-2.24 -5,-5 0,-2.76 2.24,-5 5,-5 2.76,0 5,2.24 5,5 z"
         id="path4846" />
    </marker>
    <marker
       style="overflow:visible"
       id="marker4770"
       refX="0"
       refY="0"
       orient="auto"
       inkscape:stockid="DotS"
       inkscape:isstock="true"
       inkscape:collect="always">
      <path
         transform="matrix(0.2,0,0,0.2,1.48,0.2)"
         style="fill:#ff0000;fill-opacity:1;fill-rule:evenodd;stroke:#ff0000;stroke-width:1pt;stroke-opacity:1"
         d="m -2.5,-1 c 0,2.76 -2.24,5 -5,5 -2.76,0 -5,-2.24 -5,-5 0,-2.76 2.24,-5 5,-5 2.76,0 5,2.24 5,5 z"
         id="path4768" />
    </marker>
    <marker
       style="overflow:visible"
       id="DotS"
       refX="0"
       refY="0"
       orient="auto"
       inkscape:stockid="DotS"
       inkscape:isstock="true"
       inkscape:collect="always">
      <path
         transform="matrix(0.2,0,0,0.2,1.48,0.2)"
         style="fill:#ff0000;fill-opacity:1;fill-rule:evenodd;stroke:#ff0000;stroke-width:1pt;stroke-opacity:1"
         d="m -2.5,-1 c 0,2.76 -2.24,5 -5,5 -2.76,0 -5,-2.24 -5,-5 0,-2.76 2.24,-5 5,-5 2.76,0 5,2.24 5,5 z"
         id="path4470" />
    </marker>
    <inkscape:path-effect
       is_visible="true"
       id="path-effect4296"
       effect="spiro"
       lpeversion="0" />
    <marker
       refX="0"
       inkscape:stockid="Arrow2Mend"
       refY="0"
       orient="auto"
       id="Arrow2Mend"
       style="overflow:visible">
      <path
         id="path18502"
         d="M 8.7185878,4.0337352 -2.2072895,0.01601326 8.7185884,-4.0017078 c -1.7454984,2.3720609 -1.7354408,5.6174519 -6e-7,8.035443 z"
         transform="scale(-0.6)"
         style="font-size:12px;fill-rule:evenodd;stroke-width:0.625;stroke-linejoin:round" />
    </marker>
    <marker
       refX="0"
       inkscape:stockid="Arrow1Mstart"
       refY="0"
       orient="auto"
       id="Arrow1Mstart"
       style="overflow:visible">
      <path
         inkscape:connector-curvature="0"
         id="path20996"
         d="M 0,0 5,-5 -12.5,0 5,5 Z"
         transform="matrix(0.4,0,0,0.4,4,0)"
         style="fill-rule:evenodd;stroke:#000000;stroke-width:1pt;marker-start:none" />
    </marker>
    <marker
       refX="0"
       inkscape:stockid="Arrow1Mend"
       refY="0"
       orient="auto"
       id="Arrow1Mend-21"
       style="overflow:visible">
      <path
         inkscape:connector-curvature="0"
         id="path18484-47"
         d="M 0,0 5,-5 -12.5,0 5,5 Z"
         transform="matrix(-0.4,0,0,-0.4,-4,0)"
         style="fill-rule:evenodd;stroke:#000000;stroke-width:1pt;marker-start:none" />
    </marker>
    <g
       id="g8686">
      <symbol
         overflow="visible"
         id="symbol3770">
        <path
           style="stroke:none"
           d=""
           id="path584" />
      </symbol>
      <symbol
         overflow="visible"
         id="symbol8604">
        <path
           style="stroke:none"
           d="m 2.9375,-6.375 c 0,-0.25 0,-0.265625 -0.234375,-0.265625 C 2.078125,-6 1.203125,-6 0.890625,-6 v 0.3125 c 0.203125,0 0.78125,0 1.296875,-0.265625 v 5.171875 c 0,0.359375 -0.03125,0.46875 -0.921875,0.46875 h -0.3125 V 0 c 0.34375,-0.03125 1.203125,-0.03125 1.609375,-0.03125 0.390625,0 1.265625,0 1.609375,0.03125 v -0.3125 h -0.3125 c -0.90625,0 -0.921875,-0.109375 -0.921875,-0.46875 z m 0,0"
           id="path7743" />
      </symbol>
    </g>
    <g
       id="g8224">
      <symbol
         overflow="visible"
         id="symbol5961">
        <path
           style="stroke:none"
           d=""
           id="path2987" />
      </symbol>
      <symbol
         overflow="visible"
         id="symbol8106">
        <path
           style="stroke:none"
           d="m 4.578125,-3.1875 c 0,-0.796875 -0.046875,-1.59375 -0.390625,-2.328125 -0.453125,-0.96875 -1.28125,-1.125 -1.6875,-1.125 -0.609375,0 -1.328125,0.265625 -1.75,1.1875 -0.3125,0.6875 -0.359375,1.46875 -0.359375,2.265625 0,0.75 0.03125,1.640625 0.453125,2.40625 0.421875,0.796875 1.15625,1 1.640625,1 0.53125,0 1.296875,-0.203125 1.734375,-1.15625 0.3125,-0.6875 0.359375,-1.46875 0.359375,-2.25 z M 2.484375,0 C 2.09375,0 1.5,-0.25 1.328125,-1.203125 1.21875,-1.796875 1.21875,-2.71875 1.21875,-3.3125 c 0,-0.640625 0,-1.296875 0.078125,-1.828125 0.1875,-1.1875 0.9375,-1.28125 1.1875,-1.28125 0.328125,0 0.984375,0.1875 1.171875,1.171875 0.109375,0.5625 0.109375,1.3125 0.109375,1.9375 0,0.75 0,1.421875 -0.109375,2.0625 C 3.5,-0.296875 2.9375,0 2.484375,0 Z m 0,0"
           id="path1083" />
      </symbol>
    </g>
    <g
       id="g2788">
      <symbol
         overflow="visible"
         id="symbol2946">
        <path
           style="stroke:none"
           d=""
           id="path7797" />
      </symbol>
      <symbol
         overflow="visible"
         id="symbol1201">
        <path
           style="stroke:none"
           d="m 2.046875,-3.984375 h 0.9375 c 0.203125,0 0.3125,0 0.3125,-0.203125 0,-0.109375 -0.109375,-0.109375 -0.28125,-0.109375 h -0.875 C 2.5,-5.71875 2.546875,-5.90625 2.546875,-5.96875 c 0,-0.171875 -0.125,-0.265625 -0.296875,-0.265625 -0.03125,0 -0.3125,0 -0.390625,0.359375 L 1.46875,-4.296875 h -0.9375 c -0.203125,0 -0.296875,0 -0.296875,0.1875 0,0.125 0.078125,0.125 0.28125,0.125 h 0.875 C 0.671875,-1.15625 0.625,-0.984375 0.625,-0.8125 0.625,-0.265625 1,0.109375 1.546875,0.109375 2.5625,0.109375 3.125,-1.34375 3.125,-1.421875 3.125,-1.53125 3.046875,-1.53125 3.015625,-1.53125 2.921875,-1.53125 2.90625,-1.5 2.859375,-1.390625 2.4375,-0.34375 1.90625,-0.109375 1.5625,-0.109375 c -0.203125,0 -0.3125,-0.125 -0.3125,-0.453125 0,-0.25 0.03125,-0.3125 0.0625,-0.484375 z m 0,0"
           id="path5021" />
      </symbol>
    </g>
    <g
       id="g9505">
      <symbol
         overflow="visible"
         id="symbol2514">
        <path
           style="stroke:none"
           d=""
           id="path677" />
      </symbol>
      <symbol
         overflow="visible"
         id="symbol9974">
        <path
           style="stroke:none"
           d="m 4.5,-4.296875 c 0,-0.046875 -0.03125,-0.09375 -0.09375,-0.09375 -0.109375,0 -0.515625,0.390625 -0.671875,0.6875 C 3.515625,-4.25 3.125,-4.40625 2.796875,-4.40625 c -1.171875,0 -2.390625,1.46875 -2.390625,2.921875 0,0.96875 0.578125,1.59375 1.3125,1.59375 0.421875,0 0.8125,-0.234375 1.171875,-0.59375 -0.09375,0.34375 -0.421875,1.6875 -0.453125,1.78125 -0.078125,0.28125 -0.15625,0.3125 -0.71875,0.328125 -0.125,0 -0.21875,0 -0.21875,0.203125 0,0 0,0.109375 0.125,0.109375 0.3125,0 0.671875,-0.03125 1,-0.03125 0.328125,0 0.6875,0.03125 1.03125,0.03125 0.046875,0 0.171875,0 0.171875,-0.203125 C 3.828125,1.625 3.734375,1.625 3.5625,1.625 3.09375,1.625 3.09375,1.5625 3.09375,1.46875 3.09375,1.390625 3.109375,1.328125 3.125,1.25 Z m -2.75,4.1875 c -0.609375,0 -0.640625,-0.765625 -0.640625,-0.9375 0,-0.484375 0.28125,-1.5625 0.453125,-1.984375 0.3125,-0.734375 0.828125,-1.15625 1.234375,-1.15625 0.65625,0 0.796875,0.8125 0.796875,0.875 0,0.0625 -0.546875,2.25 -0.578125,2.28125 C 2.859375,-0.75 2.296875,-0.109375 1.75,-0.109375 Z m 0,0"
           id="path3142" />
      </symbol>
      <symbol
         overflow="visible"
         id="symbol9491">
        <path
           style="stroke:none"
           d=""
           id="path2601" />
      </symbol>
      <symbol
         overflow="visible"
         id="symbol4744">
        <path
           style="stroke:none"
           d="m 3.109375,-1.875 c 0,-0.359375 0,-0.625 -0.328125,-0.890625 C 2.5,-3 2.171875,-3.109375 1.75,-3.109375 c -0.65625,0 -1.125,0.25 -1.125,0.671875 0,0.234375 0.15625,0.34375 0.34375,0.34375 0.1875,0 0.328125,-0.140625 0.328125,-0.328125 0,-0.109375 -0.0625,-0.265625 -0.25,-0.3125 0.25,-0.171875 0.65625,-0.171875 0.6875,-0.171875 0.390625,0 0.828125,0.25 0.828125,0.84375 v 0.203125 C 2.171875,-1.84375 1.71875,-1.8125 1.203125,-1.625 c -0.625,0.21875 -0.8125,0.609375 -0.8125,0.921875 0,0.59375 0.71875,0.765625 1.21875,0.765625 0.546875,0 0.875,-0.3125 1.03125,-0.578125 0.015625,0.28125 0.203125,0.546875 0.53125,0.546875 0.015625,0 0.6875,0 0.6875,-0.65625 V -1.015625 H 3.625 v 0.375 c 0,0.078125 0,0.40625 -0.265625,0.40625 -0.25,0 -0.25,-0.328125 -0.25,-0.40625 z M 2.5625,-0.984375 c 0,0.671875 -0.59375,0.859375 -0.90625,0.859375 -0.359375,0 -0.6875,-0.234375 -0.6875,-0.578125 0,-0.390625 0.328125,-0.921875 1.59375,-0.96875 z m 0,0"
           id="path7228" />
      </symbol>
    </g>
    <g
       id="g5861">
      <symbol
         overflow="visible"
         id="symbol3616">
        <path
           style="stroke:none"
           d=""
           id="path2767" />
      </symbol>
      <symbol
         overflow="visible"
         id="symbol1621">
        <path
           style="stroke:none"
           d="m 4.5,-4.296875 c 0,-0.046875 -0.03125,-0.09375 -0.09375,-0.09375 -0.109375,0 -0.515625,0.390625 -0.671875,0.6875 C 3.515625,-4.25 3.125,-4.40625 2.796875,-4.40625 c -1.171875,0 -2.390625,1.46875 -2.390625,2.921875 0,0.96875 0.578125,1.59375 1.3125,1.59375 0.421875,0 0.8125,-0.234375 1.171875,-0.59375 -0.09375,0.34375 -0.421875,1.6875 -0.453125,1.78125 -0.078125,0.28125 -0.15625,0.3125 -0.71875,0.328125 -0.125,0 -0.21875,0 -0.21875,0.203125 0,0 0,0.109375 0.125,0.109375 0.3125,0 0.671875,-0.03125 1,-0.03125 0.328125,0 0.6875,0.03125 1.03125,0.03125 0.046875,0 0.171875,0 0.171875,-0.203125 C 3.828125,1.625 3.734375,1.625 3.5625,1.625 3.09375,1.625 3.09375,1.5625 3.09375,1.46875 3.09375,1.390625 3.109375,1.328125 3.125,1.25 Z m -2.75,4.1875 c -0.609375,0 -0.640625,-0.765625 -0.640625,-0.9375 0,-0.484375 0.28125,-1.5625 0.453125,-1.984375 0.3125,-0.734375 0.828125,-1.15625 1.234375,-1.15625 0.65625,0 0.796875,0.8125 0.796875,0.875 0,0.0625 -0.546875,2.25 -0.578125,2.28125 C 2.859375,-0.75 2.296875,-0.109375 1.75,-0.109375 Z m 0,0"
           id="path3330" />
      </symbol>
      <symbol
         overflow="visible"
         id="symbol2089">
        <path
           style="stroke:none"
           d=""
           id="path8661" />
      </symbol>
      <symbol
         overflow="visible"
         id="symbol5523">
        <path
           style="stroke:none"
           d="M 1.390625,-4.84375 0.34375,-4.765625 v 0.25 c 0.46875,0 0.515625,0.0625 0.515625,0.40625 V 0 H 1.09375 l 0.25,-0.421875 C 1.609375,-0.078125 2,0.0625 2.359375,0.0625 3.28125,0.0625 4.0625,-0.625 4.0625,-1.5 c 0,-0.859375 -0.703125,-1.578125 -1.625,-1.578125 -0.421875,0 -0.796875,0.171875 -1.046875,0.421875 z m 0.03125,2.515625 C 1.609375,-2.65625 1.984375,-2.875 2.40625,-2.875 c 0.390625,0 0.671875,0.21875 0.8125,0.421875 0.140625,0.203125 0.21875,0.484375 0.21875,0.9375 0,0.15625 0,0.6875 -0.28125,1.015625 -0.28125,0.3125 -0.625,0.375 -0.828125,0.375 -0.5625,0 -0.84375,-0.4375 -0.90625,-0.578125 z m 0,0"
           id="path2839" />
      </symbol>
    </g>
    <g
       id="g7250">
      <symbol
         overflow="visible"
         id="symbol7058">
        <path
           style="stroke:none"
           d=""
           id="path5621" />
      </symbol>
      <symbol
         overflow="visible"
         id="symbol4406">
        <path
           style="stroke:none"
           d="m 4.5,-4.296875 c 0,-0.046875 -0.03125,-0.09375 -0.09375,-0.09375 -0.109375,0 -0.515625,0.390625 -0.671875,0.6875 C 3.515625,-4.25 3.125,-4.40625 2.796875,-4.40625 c -1.171875,0 -2.390625,1.46875 -2.390625,2.921875 0,0.96875 0.578125,1.59375 1.3125,1.59375 0.421875,0 0.8125,-0.234375 1.171875,-0.59375 -0.09375,0.34375 -0.421875,1.6875 -0.453125,1.78125 -0.078125,0.28125 -0.15625,0.3125 -0.71875,0.328125 -0.125,0 -0.21875,0 -0.21875,0.203125 0,0 0,0.109375 0.125,0.109375 0.3125,0 0.671875,-0.03125 1,-0.03125 0.328125,0 0.6875,0.03125 1.03125,0.03125 0.046875,0 0.171875,0 0.171875,-0.203125 C 3.828125,1.625 3.734375,1.625 3.5625,1.625 3.09375,1.625 3.09375,1.5625 3.09375,1.46875 3.09375,1.390625 3.109375,1.328125 3.125,1.25 Z m -2.75,4.1875 c -0.609375,0 -0.640625,-0.765625 -0.640625,-0.9375 0,-0.484375 0.28125,-1.5625 0.453125,-1.984375 0.3125,-0.734375 0.828125,-1.15625 1.234375,-1.15625 0.65625,0 0.796875,0.8125 0.796875,0.875 0,0.0625 -0.546875,2.25 -0.578125,2.28125 C 2.859375,-0.75 2.296875,-0.109375 1.75,-0.109375 Z m 0,0"
           id="path9206" />
      </symbol>
      <symbol
         overflow="visible"
         id="symbol8097">
        <path
           style="stroke:none"
           d=""
           id="path9050" />
      </symbol>
      <symbol
         overflow="visible"
         id="symbol5133">
        <path
           style="stroke:none"
           d="m 2.703125,-2.78125 c -0.125,0.0625 -0.1875,0.171875 -0.1875,0.3125 0,0.1875 0.125,0.328125 0.328125,0.328125 0.1875,0 0.328125,-0.125 0.328125,-0.34375 0,-0.625 -0.96875,-0.625 -1.15625,-0.625 -1.046875,0 -1.6875,0.796875 -1.6875,1.609375 0,0.875 0.734375,1.5625 1.65625,1.5625 1.03125,0 1.28125,-0.8125 1.28125,-0.90625 0,-0.078125 -0.09375,-0.078125 -0.125,-0.078125 -0.09375,0 -0.09375,0.015625 -0.125,0.125 C 2.859375,-0.375 2.484375,-0.15625 2.0625,-0.15625 c -0.484375,0 -1.109375,-0.359375 -1.109375,-1.359375 0,-0.875 0.4375,-1.375 1.078125,-1.375 0.09375,0 0.421875,0 0.671875,0.109375 z m 0,0"
           id="path187" />
      </symbol>
    </g>
    <g
       id="g3548">
      <symbol
         overflow="visible"
         id="symbol3065">
        <path
           style="stroke:none"
           d=""
           id="path5493" />
      </symbol>
      <symbol
         overflow="visible"
         id="symbol8154">
        <path
           style="stroke:none"
           d="m 5.140625,-6.8125 c 0,0 0,-0.109375 -0.125,-0.109375 -0.15625,0 -1.09375,0.09375 -1.265625,0.109375 -0.078125,0.015625 -0.140625,0.0625 -0.140625,0.1875 0,0.125 0.09375,0.125 0.234375,0.125 0.484375,0 0.5,0.0625 0.5,0.171875 L 4.3125,-6.125 3.71875,-3.765625 C 3.53125,-4.140625 3.25,-4.40625 2.796875,-4.40625 c -1.15625,0 -2.390625,1.46875 -2.390625,2.921875 0,0.9375 0.546875,1.59375 1.3125,1.59375 0.203125,0 0.703125,-0.046875 1.296875,-0.75 0.078125,0.421875 0.4375,0.75 0.90625,0.75 0.359375,0 0.578125,-0.234375 0.75,-0.546875 0.15625,-0.359375 0.296875,-0.96875 0.296875,-0.984375 0,-0.109375 -0.09375,-0.109375 -0.125,-0.109375 -0.09375,0 -0.109375,0.046875 -0.140625,0.1875 -0.171875,0.640625 -0.34375,1.234375 -0.75,1.234375 -0.28125,0 -0.296875,-0.265625 -0.296875,-0.453125 0,-0.25 0.015625,-0.3125 0.046875,-0.484375 z m -2.0625,5.625 C 3.015625,-1 3.015625,-0.984375 2.875,-0.8125 2.4375,-0.265625 2.03125,-0.109375 1.75,-0.109375 c -0.5,0 -0.640625,-0.546875 -0.640625,-0.9375 0,-0.5 0.3125,-1.71875 0.546875,-2.1875 0.3125,-0.578125 0.75,-0.953125 1.15625,-0.953125 0.640625,0 0.78125,0.8125 0.78125,0.875 0,0.0625 -0.015625,0.125 -0.03125,0.171875 z m 0,0"
           id="path5643" />
      </symbol>
      <symbol
         overflow="visible"
         id="symbol3730">
        <path
           style="stroke:none"
           d=""
           id="path181" />
      </symbol>
      <symbol
         overflow="visible"
         id="symbol8713">
        <path
           style="stroke:none"
           d="m 2.703125,-2.78125 c -0.125,0.0625 -0.1875,0.171875 -0.1875,0.3125 0,0.1875 0.125,0.328125 0.328125,0.328125 0.1875,0 0.328125,-0.125 0.328125,-0.34375 0,-0.625 -0.96875,-0.625 -1.15625,-0.625 -1.046875,0 -1.6875,0.796875 -1.6875,1.609375 0,0.875 0.734375,1.5625 1.65625,1.5625 1.03125,0 1.28125,-0.8125 1.28125,-0.90625 0,-0.078125 -0.09375,-0.078125 -0.125,-0.078125 -0.09375,0 -0.09375,0.015625 -0.125,0.125 C 2.859375,-0.375 2.484375,-0.15625 2.0625,-0.15625 c -0.484375,0 -1.109375,-0.359375 -1.109375,-1.359375 0,-0.875 0.4375,-1.375 1.078125,-1.375 0.09375,0 0.421875,0 0.671875,0.109375 z m 0,0"
           id="path4290" />
      </symbol>
    </g>
    <g
       id="g9812">
      <symbol
         overflow="visible"
         id="symbol1775">
        <path
           style="stroke:none"
           d=""
           id="path456" />
      </symbol>
      <symbol
         overflow="visible"
         id="symbol9660">
        <path
           style="stroke:none"
           d="m 5.140625,-6.8125 c 0,0 0,-0.109375 -0.125,-0.109375 -0.15625,0 -1.09375,0.09375 -1.265625,0.109375 -0.078125,0.015625 -0.140625,0.0625 -0.140625,0.1875 0,0.125 0.09375,0.125 0.234375,0.125 0.484375,0 0.5,0.0625 0.5,0.171875 L 4.3125,-6.125 3.71875,-3.765625 C 3.53125,-4.140625 3.25,-4.40625 2.796875,-4.40625 c -1.15625,0 -2.390625,1.46875 -2.390625,2.921875 0,0.9375 0.546875,1.59375 1.3125,1.59375 0.203125,0 0.703125,-0.046875 1.296875,-0.75 0.078125,0.421875 0.4375,0.75 0.90625,0.75 0.359375,0 0.578125,-0.234375 0.75,-0.546875 0.15625,-0.359375 0.296875,-0.96875 0.296875,-0.984375 0,-0.109375 -0.09375,-0.109375 -0.125,-0.109375 -0.09375,0 -0.109375,0.046875 -0.140625,0.1875 -0.171875,0.640625 -0.34375,1.234375 -0.75,1.234375 -0.28125,0 -0.296875,-0.265625 -0.296875,-0.453125 0,-0.25 0.015625,-0.3125 0.046875,-0.484375 z m -2.0625,5.625 C 3.015625,-1 3.015625,-0.984375 2.875,-0.8125 2.4375,-0.265625 2.03125,-0.109375 1.75,-0.109375 c -0.5,0 -0.640625,-0.546875 -0.640625,-0.9375 0,-0.5 0.3125,-1.71875 0.546875,-2.1875 0.3125,-0.578125 0.75,-0.953125 1.15625,-0.953125 0.640625,0 0.78125,0.8125 0.78125,0.875 0,0.0625 -0.015625,0.125 -0.03125,0.171875 z m 0,0"
           id="path4033" />
      </symbol>
      <symbol
         overflow="visible"
         id="symbol8599">
        <path
           style="stroke:none"
           d=""
           id="path8932" />
      </symbol>
      <symbol
         overflow="visible"
         id="symbol8103">
        <path
           style="stroke:none"
           d="M 1.390625,-4.84375 0.34375,-4.765625 v 0.25 c 0.46875,0 0.515625,0.0625 0.515625,0.40625 V 0 H 1.09375 l 0.25,-0.421875 C 1.609375,-0.078125 2,0.0625 2.359375,0.0625 3.28125,0.0625 4.0625,-0.625 4.0625,-1.5 c 0,-0.859375 -0.703125,-1.578125 -1.625,-1.578125 -0.421875,0 -0.796875,0.171875 -1.046875,0.421875 z m 0.03125,2.515625 C 1.609375,-2.65625 1.984375,-2.875 2.40625,-2.875 c 0.390625,0 0.671875,0.21875 0.8125,0.421875 0.140625,0.203125 0.21875,0.484375 0.21875,0.9375 0,0.15625 0,0.6875 -0.28125,1.015625 -0.28125,0.3125 -0.625,0.375 -0.828125,0.375 -0.5625,0 -0.84375,-0.4375 -0.90625,-0.578125 z m 0,0"
           id="path7302" />
      </symbol>
    </g>
    <g
       id="g6975">
      <symbol
         overflow="visible"
         id="symbol950">
        <path
           style="stroke:none"
           d=""
           id="path3189" />
      </symbol>
      <symbol
         overflow="visible"
         id="symbol5064">
        <path
           style="stroke:none"
           d="m 5.140625,-6.8125 c 0,0 0,-0.109375 -0.125,-0.109375 -0.15625,0 -1.09375,0.09375 -1.265625,0.109375 -0.078125,0.015625 -0.140625,0.0625 -0.140625,0.1875 0,0.125 0.09375,0.125 0.234375,0.125 0.484375,0 0.5,0.0625 0.5,0.171875 L 4.3125,-6.125 3.71875,-3.765625 C 3.53125,-4.140625 3.25,-4.40625 2.796875,-4.40625 c -1.15625,0 -2.390625,1.46875 -2.390625,2.921875 0,0.9375 0.546875,1.59375 1.3125,1.59375 0.203125,0 0.703125,-0.046875 1.296875,-0.75 0.078125,0.421875 0.4375,0.75 0.90625,0.75 0.359375,0 0.578125,-0.234375 0.75,-0.546875 0.15625,-0.359375 0.296875,-0.96875 0.296875,-0.984375 0,-0.109375 -0.09375,-0.109375 -0.125,-0.109375 -0.09375,0 -0.109375,0.046875 -0.140625,0.1875 -0.171875,0.640625 -0.34375,1.234375 -0.75,1.234375 -0.28125,0 -0.296875,-0.265625 -0.296875,-0.453125 0,-0.25 0.015625,-0.3125 0.046875,-0.484375 z m -2.0625,5.625 C 3.015625,-1 3.015625,-0.984375 2.875,-0.8125 2.4375,-0.265625 2.03125,-0.109375 1.75,-0.109375 c -0.5,0 -0.640625,-0.546875 -0.640625,-0.9375 0,-0.5 0.3125,-1.71875 0.546875,-2.1875 0.3125,-0.578125 0.75,-0.953125 1.15625,-0.953125 0.640625,0 0.78125,0.8125 0.78125,0.875 0,0.0625 -0.015625,0.125 -0.03125,0.171875 z m 0,0"
           id="path2565" />
      </symbol>
      <symbol
         overflow="visible"
         id="symbol2891">
        <path
           style="stroke:none"
           d=""
           id="path873" />
      </symbol>
      <symbol
         overflow="visible"
         id="symbol8949">
        <path
           style="stroke:none"
           d="m 3.109375,-1.875 c 0,-0.359375 0,-0.625 -0.328125,-0.890625 C 2.5,-3 2.171875,-3.109375 1.75,-3.109375 c -0.65625,0 -1.125,0.25 -1.125,0.671875 0,0.234375 0.15625,0.34375 0.34375,0.34375 0.1875,0 0.328125,-0.140625 0.328125,-0.328125 0,-0.109375 -0.0625,-0.265625 -0.25,-0.3125 0.25,-0.171875 0.65625,-0.171875 0.6875,-0.171875 0.390625,0 0.828125,0.25 0.828125,0.84375 v 0.203125 C 2.171875,-1.84375 1.71875,-1.8125 1.203125,-1.625 c -0.625,0.21875 -0.8125,0.609375 -0.8125,0.921875 0,0.59375 0.71875,0.765625 1.21875,0.765625 0.546875,0 0.875,-0.3125 1.03125,-0.578125 0.015625,0.28125 0.203125,0.546875 0.53125,0.546875 0.015625,0 0.6875,0 0.6875,-0.65625 V -1.015625 H 3.625 v 0.375 c 0,0.078125 0,0.40625 -0.265625,0.40625 -0.25,0 -0.25,-0.328125 -0.25,-0.40625 z M 2.5625,-0.984375 c 0,0.671875 -0.59375,0.859375 -0.90625,0.859375 -0.359375,0 -0.6875,-0.234375 -0.6875,-0.578125 0,-0.390625 0.328125,-0.921875 1.59375,-0.96875 z m 0,0"
           id="path8205" />
      </symbol>
    </g>
    <g
       id="g8431">
      <symbol
         overflow="visible"
         id="symbol7684">
        <path
           style="stroke:none"
           d=""
           id="path3925" />
      </symbol>
      <symbol
         overflow="visible"
         id="symbol8142">
        <path
           style="stroke:none"
           d="m 1.171875,-2.171875 c 0,-1.625 0.8125,-2.046875 1.34375,-2.046875 0.09375,0 0.71875,0.015625 1.0625,0.375 -0.40625,0.03125 -0.46875,0.328125 -0.46875,0.453125 0,0.265625 0.1875,0.453125 0.453125,0.453125 0.265625,0 0.46875,-0.15625 0.46875,-0.46875 0,-0.671875 -0.765625,-1.0625 -1.53125,-1.0625 -1.25,0 -2.15625,1.078125 -2.15625,2.3125 0,1.28125 0.984375,2.265625 2.140625,2.265625 1.328125,0 1.65625,-1.203125 1.65625,-1.296875 0,-0.09375 -0.109375,-0.09375 -0.140625,-0.09375 -0.078125,0 -0.109375,0.03125 -0.125,0.09375 -0.28125,0.921875 -0.9375,1.046875 -1.296875,1.046875 -0.53125,0 -1.40625,-0.421875 -1.40625,-2.03125 z m 0,0"
           id="path3544" />
      </symbol>
      <symbol
         overflow="visible"
         id="symbol6739">
        <path
           style="stroke:none"
           d="m 3.3125,-0.75 c 0.046875,0.390625 0.3125,0.8125 0.78125,0.8125 0.21875,0 0.828125,-0.140625 0.828125,-0.953125 v -0.5625 h -0.25 v 0.5625 c 0,0.578125 -0.25,0.640625 -0.359375,0.640625 -0.328125,0 -0.375,-0.453125 -0.375,-0.5 v -1.984375 c 0,-0.421875 0,-0.8125 -0.359375,-1.1875 C 3.1875,-4.3125 2.6875,-4.46875 2.21875,-4.46875 c -0.828125,0 -1.515625,0.46875 -1.515625,1.125 0,0.296875 0.203125,0.46875 0.46875,0.46875 0.28125,0 0.453125,-0.203125 0.453125,-0.453125 0,-0.125 -0.046875,-0.453125 -0.515625,-0.453125 C 1.390625,-4.140625 1.875,-4.25 2.1875,-4.25 c 0.5,0 1.0625,0.390625 1.0625,1.28125 v 0.359375 c -0.515625,0.03125 -1.203125,0.0625 -1.828125,0.359375 -0.75,0.34375 -1,0.859375 -1,1.296875 0,0.8125 0.96875,1.0625 1.59375,1.0625 0.65625,0 1.109375,-0.40625 1.296875,-0.859375 z M 3.25,-2.390625 v 1 c 0,0.9375 -0.71875,1.28125 -1.171875,1.28125 -0.484375,0 -0.890625,-0.34375 -0.890625,-0.84375 0,-0.546875 0.421875,-1.375 2.0625,-1.4375 z m 0,0"
           id="path6395" />
      </symbol>
      <symbol
         overflow="visible"
         id="symbol4044">
        <path
           style="stroke:none"
           d="M 1.671875,-3.3125 V -4.40625 L 0.28125,-4.296875 v 0.3125 c 0.703125,0 0.78125,0.0625 0.78125,0.5625 V -0.75 c 0,0.4375 -0.109375,0.4375 -0.78125,0.4375 V 0 c 0.390625,-0.015625 0.859375,-0.03125 1.140625,-0.03125 0.390625,0 0.859375,0 1.265625,0.03125 V -0.3125 H 2.46875 c -0.734375,0 -0.75,-0.109375 -0.75,-0.46875 V -2.3125 c 0,-0.984375 0.421875,-1.875 1.171875,-1.875 0.0625,0 0.09375,0 0.109375,0.015625 -0.03125,0 -0.234375,0.125 -0.234375,0.390625 0,0.265625 0.21875,0.421875 0.4375,0.421875 0.171875,0 0.421875,-0.125 0.421875,-0.4375 0,-0.3125 -0.3125,-0.609375 -0.734375,-0.609375 -0.734375,0 -1.09375,0.671875 -1.21875,1.09375 z m 0,0"
           id="path3639" />
      </symbol>
      <symbol
         overflow="visible"
         id="symbol9419">
        <path
           style="stroke:none"
           d="M 1.765625,-4.40625 0.375,-4.296875 v 0.3125 c 0.640625,0 0.734375,0.0625 0.734375,0.546875 V -0.75 c 0,0.4375 -0.109375,0.4375 -0.78125,0.4375 V 0 C 0.640625,-0.015625 1.1875,-0.03125 1.421875,-0.03125 1.78125,-0.03125 2.125,-0.015625 2.46875,0 v -0.3125 c -0.671875,0 -0.703125,-0.046875 -0.703125,-0.4375 z m 0.03125,-1.734375 c 0,-0.3125 -0.234375,-0.53125 -0.515625,-0.53125 -0.3125,0 -0.53125,0.265625 -0.53125,0.53125 0,0.265625 0.21875,0.53125 0.53125,0.53125 0.28125,0 0.515625,-0.21875 0.515625,-0.53125 z m 0,0"
           id="path5994" />
      </symbol>
      <symbol
         overflow="visible"
         id="symbol1462">
        <path
           style="stroke:none"
           d="M 1.109375,-2.515625 C 1.171875,-4 2.015625,-4.25 2.359375,-4.25 c 1.015625,0 1.125,1.34375 1.125,1.734375 z m 0,0.21875 h 2.78125 c 0.21875,0 0.25,0 0.25,-0.21875 0,-0.984375 -0.546875,-1.953125 -1.78125,-1.953125 -1.15625,0 -2.078125,1.03125 -2.078125,2.28125 0,1.328125 1.046875,2.296875 2.1875,2.296875 C 3.6875,0.109375 4.140625,-1 4.140625,-1.1875 4.140625,-1.28125 4.0625,-1.3125 4,-1.3125 c -0.078125,0 -0.109375,0.0625 -0.125,0.140625 -0.34375,1.03125 -1.25,1.03125 -1.34375,1.03125 -0.5,0 -0.890625,-0.296875 -1.125,-0.671875 -0.296875,-0.46875 -0.296875,-1.125 -0.296875,-1.484375 z m 0,0"
           id="path7070" />
      </symbol>
    </g>
    <g
       id="g2565">
      <symbol
         overflow="visible"
         id="symbol7799">
        <path
           style="stroke:none"
           d=""
           id="path1800" />
      </symbol>
      <symbol
         overflow="visible"
         id="symbol3048">
        <path
           style="stroke:none"
           d="m 4.25,-6.046875 c 0.078125,-0.28125 0.109375,-0.34375 0.234375,-0.375 0.09375,-0.015625 0.421875,-0.015625 0.625,-0.015625 1.015625,0 1.453125,0.03125 1.453125,0.8125 0,0.15625 -0.03125,0.546875 -0.078125,0.796875 0,0.046875 -0.03125,0.15625 -0.03125,0.1875 0,0.0625 0.03125,0.140625 0.125,0.140625 0.109375,0 0.125,-0.078125 0.15625,-0.234375 L 7,-6.46875 C 7.015625,-6.515625 7.015625,-6.609375 7.015625,-6.640625 7.015625,-6.75 6.921875,-6.75 6.75,-6.75 H 1.21875 c -0.234375,0 -0.25,0.015625 -0.328125,0.203125 l -0.59375,1.75 c 0,0.015625 -0.0625,0.15625 -0.0625,0.1875 0,0.046875 0.0625,0.109375 0.125,0.109375 0.09375,0 0.109375,-0.0625 0.171875,-0.21875 C 1.0625,-6.265625 1.328125,-6.4375 2.796875,-6.4375 H 3.1875 c 0.28125,0 0.28125,0.03125 0.28125,0.125 0,0.046875 -0.03125,0.171875 -0.046875,0.203125 L 2.09375,-0.78125 C 2,-0.421875 1.96875,-0.3125 0.90625,-0.3125 c -0.359375,0 -0.421875,0 -0.421875,0.1875 C 0.484375,0 0.59375,0 0.65625,0 c 0.265625,0 0.546875,-0.015625 0.8125,-0.015625 0.28125,0 0.578125,-0.015625 0.859375,-0.015625 0.28125,0 0.546875,0.015625 0.828125,0.015625 C 3.4375,-0.015625 3.734375,0 4.015625,0 c 0.09375,0 0.21875,0 0.21875,-0.203125 0,-0.109375 -0.078125,-0.109375 -0.34375,-0.109375 -0.234375,0 -0.375,0 -0.625,-0.015625 -0.296875,-0.03125 -0.375,-0.0625 -0.375,-0.21875 0,-0.015625 0,-0.0625 0.046875,-0.203125 z m 0,0"
           id="path9813" />
      </symbol>
      <symbol
         overflow="visible"
         id="symbol7790">
        <path
           style="stroke:none"
           d=""
           id="path7785" />
      </symbol>
      <symbol
         overflow="visible"
         id="symbol3364">
        <path
           style="stroke:none"
           d="m 2.640625,-2.921875 c 0,-0.125 0,-0.1875 -0.09375,-0.1875 -0.03125,0 -0.046875,0 -0.140625,0.078125 -0.015625,0.015625 -0.078125,0.078125 -0.125,0.109375 -0.21875,-0.140625 -0.46875,-0.1875 -0.734375,-0.1875 -1,0 -1.234375,0.53125 -1.234375,0.875 0,0.21875 0.09375,0.40625 0.265625,0.546875 0.265625,0.21875 0.53125,0.265625 0.96875,0.34375 0.34375,0.0625 0.90625,0.15625 0.90625,0.625 0,0.265625 -0.1875,0.59375 -0.859375,0.59375 -0.671875,0 -0.90625,-0.4375 -1.03125,-0.90625 -0.03125,-0.09375 -0.03125,-0.125 -0.125,-0.125 -0.125,0 -0.125,0.046875 -0.125,0.1875 v 0.859375 C 0.3125,0 0.3125,0.0625 0.40625,0.0625 0.46875,0.0625 0.609375,-0.078125 0.75,-0.234375 1.046875,0.0625 1.421875,0.0625 1.59375,0.0625 c 0.90625,0 1.25,-0.484375 1.25,-0.96875 0,-0.265625 -0.125,-0.484375 -0.3125,-0.640625 -0.265625,-0.25 -0.578125,-0.3125 -0.828125,-0.34375 -0.546875,-0.109375 -1,-0.1875 -1,-0.5625 0,-0.21875 0.1875,-0.484375 0.84375,-0.484375 0.8125,0 0.84375,0.5625 0.859375,0.765625 0,0.078125 0.09375,0.078125 0.109375,0.078125 0.125,0 0.125,-0.046875 0.125,-0.1875 z m 0,0"
           id="path1067" />
      </symbol>
    </g>
    <g
       id="g3867">
      <symbol
         overflow="visible"
         id="symbol1448">
        <path
           style="stroke:none"
           d=""
           id="path5977" />
      </symbol>
      <symbol
         overflow="visible"
         id="symbol1153">
        <path
           style="stroke:none"
           d="m 5.140625,-6.8125 c 0,0 0,-0.109375 -0.125,-0.109375 -0.15625,0 -1.09375,0.09375 -1.265625,0.109375 -0.078125,0.015625 -0.140625,0.0625 -0.140625,0.1875 0,0.125 0.09375,0.125 0.234375,0.125 0.484375,0 0.5,0.0625 0.5,0.171875 L 4.3125,-6.125 3.71875,-3.765625 C 3.53125,-4.140625 3.25,-4.40625 2.796875,-4.40625 c -1.15625,0 -2.390625,1.46875 -2.390625,2.921875 0,0.9375 0.546875,1.59375 1.3125,1.59375 0.203125,0 0.703125,-0.046875 1.296875,-0.75 0.078125,0.421875 0.4375,0.75 0.90625,0.75 0.359375,0 0.578125,-0.234375 0.75,-0.546875 0.15625,-0.359375 0.296875,-0.96875 0.296875,-0.984375 0,-0.109375 -0.09375,-0.109375 -0.125,-0.109375 -0.09375,0 -0.109375,0.046875 -0.140625,0.1875 -0.171875,0.640625 -0.34375,1.234375 -0.75,1.234375 -0.28125,0 -0.296875,-0.265625 -0.296875,-0.453125 0,-0.25 0.015625,-0.3125 0.046875,-0.484375 z m -2.0625,5.625 C 3.015625,-1 3.015625,-0.984375 2.875,-0.8125 2.4375,-0.265625 2.03125,-0.109375 1.75,-0.109375 c -0.5,0 -0.640625,-0.546875 -0.640625,-0.9375 0,-0.5 0.3125,-1.71875 0.546875,-2.1875 0.3125,-0.578125 0.75,-0.953125 1.15625,-0.953125 0.640625,0 0.78125,0.8125 0.78125,0.875 0,0.0625 -0.015625,0.125 -0.03125,0.171875 z m 0,0"
           id="path5752" />
      </symbol>
      <symbol
         overflow="visible"
         id="symbol9539">
        <path
           style="stroke:none"
           d="m 2.03125,-0.015625 c 0,-0.65625 -0.25,-1.046875 -0.640625,-1.046875 -0.328125,0 -0.53125,0.25 -0.53125,0.53125 C 0.859375,-0.265625 1.0625,0 1.390625,0 1.5,0 1.640625,-0.046875 1.734375,-0.125 1.765625,-0.15625 1.78125,-0.15625 1.78125,-0.15625 c 0.015625,0 0.015625,0 0.015625,0.140625 0,0.75 -0.34375,1.34375 -0.671875,1.671875 -0.109375,0.109375 -0.109375,0.125 -0.109375,0.15625 0,0.078125 0.046875,0.109375 0.09375,0.109375 0.109375,0 0.921875,-0.765625 0.921875,-1.9375 z m 0,0"
           id="path2797" />
      </symbol>
      <symbol
         overflow="visible"
         id="symbol4402">
        <path
           style="stroke:none"
           d="m 4.5,-4.296875 c 0,-0.046875 -0.03125,-0.09375 -0.09375,-0.09375 -0.109375,0 -0.515625,0.390625 -0.671875,0.6875 C 3.515625,-4.25 3.125,-4.40625 2.796875,-4.40625 c -1.171875,0 -2.390625,1.46875 -2.390625,2.921875 0,0.96875 0.578125,1.59375 1.3125,1.59375 0.421875,0 0.8125,-0.234375 1.171875,-0.59375 -0.09375,0.34375 -0.421875,1.6875 -0.453125,1.78125 -0.078125,0.28125 -0.15625,0.3125 -0.71875,0.328125 -0.125,0 -0.21875,0 -0.21875,0.203125 0,0 0,0.109375 0.125,0.109375 0.3125,0 0.671875,-0.03125 1,-0.03125 0.328125,0 0.6875,0.03125 1.03125,0.03125 0.046875,0 0.171875,0 0.171875,-0.203125 C 3.828125,1.625 3.734375,1.625 3.5625,1.625 3.09375,1.625 3.09375,1.5625 3.09375,1.46875 3.09375,1.390625 3.109375,1.328125 3.125,1.25 Z m -2.75,4.1875 c -0.609375,0 -0.640625,-0.765625 -0.640625,-0.9375 0,-0.484375 0.28125,-1.5625 0.453125,-1.984375 0.3125,-0.734375 0.828125,-1.15625 1.234375,-1.15625 0.65625,0 0.796875,0.8125 0.796875,0.875 0,0.0625 -0.546875,2.25 -0.578125,2.28125 C 2.859375,-0.75 2.296875,-0.109375 1.75,-0.109375 Z m 0,0"
           id="path3240" />
      </symbol>
      <symbol
         overflow="visible"
         id="symbol6222">
        <path
           style="stroke:none"
           d=""
           id="path1885" />
      </symbol>
      <symbol
         overflow="visible"
         id="symbol3105">
        <path
           style="stroke:none"
           d="m 3.109375,-1.875 c 0,-0.359375 0,-0.625 -0.328125,-0.890625 C 2.5,-3 2.171875,-3.109375 1.75,-3.109375 c -0.65625,0 -1.125,0.25 -1.125,0.671875 0,0.234375 0.15625,0.34375 0.34375,0.34375 0.1875,0 0.328125,-0.140625 0.328125,-0.328125 0,-0.109375 -0.0625,-0.265625 -0.25,-0.3125 0.25,-0.171875 0.65625,-0.171875 0.6875,-0.171875 0.390625,0 0.828125,0.25 0.828125,0.84375 v 0.203125 C 2.171875,-1.84375 1.71875,-1.8125 1.203125,-1.625 c -0.625,0.21875 -0.8125,0.609375 -0.8125,0.921875 0,0.59375 0.71875,0.765625 1.21875,0.765625 0.546875,0 0.875,-0.3125 1.03125,-0.578125 0.015625,0.28125 0.203125,0.546875 0.53125,0.546875 0.015625,0 0.6875,0 0.6875,-0.65625 V -1.015625 H 3.625 v 0.375 c 0,0.078125 0,0.40625 -0.265625,0.40625 -0.25,0 -0.25,-0.328125 -0.25,-0.40625 z M 2.5625,-0.984375 c 0,0.671875 -0.59375,0.859375 -0.90625,0.859375 -0.359375,0 -0.6875,-0.234375 -0.6875,-0.578125 0,-0.390625 0.328125,-0.921875 1.59375,-0.96875 z m 0,0"
           id="path5896" />
      </symbol>
    </g>
    <g
       id="g9985">
      <symbol
         overflow="visible"
         id="symbol5372">
        <path
           style="stroke:none"
           d=""
           id="path7272" />
      </symbol>
      <symbol
         overflow="visible"
         id="symbol8254">
        <path
           style="stroke:none"
           d="m 5.140625,-6.8125 c 0,0 0,-0.109375 -0.125,-0.109375 -0.15625,0 -1.09375,0.09375 -1.265625,0.109375 -0.078125,0.015625 -0.140625,0.0625 -0.140625,0.1875 0,0.125 0.09375,0.125 0.234375,0.125 0.484375,0 0.5,0.0625 0.5,0.171875 L 4.3125,-6.125 3.71875,-3.765625 C 3.53125,-4.140625 3.25,-4.40625 2.796875,-4.40625 c -1.15625,0 -2.390625,1.46875 -2.390625,2.921875 0,0.9375 0.546875,1.59375 1.3125,1.59375 0.203125,0 0.703125,-0.046875 1.296875,-0.75 0.078125,0.421875 0.4375,0.75 0.90625,0.75 0.359375,0 0.578125,-0.234375 0.75,-0.546875 0.15625,-0.359375 0.296875,-0.96875 0.296875,-0.984375 0,-0.109375 -0.09375,-0.109375 -0.125,-0.109375 -0.09375,0 -0.109375,0.046875 -0.140625,0.1875 -0.171875,0.640625 -0.34375,1.234375 -0.75,1.234375 -0.28125,0 -0.296875,-0.265625 -0.296875,-0.453125 0,-0.25 0.015625,-0.3125 0.046875,-0.484375 z m -2.0625,5.625 C 3.015625,-1 3.015625,-0.984375 2.875,-0.8125 2.4375,-0.265625 2.03125,-0.109375 1.75,-0.109375 c -0.5,0 -0.640625,-0.546875 -0.640625,-0.9375 0,-0.5 0.3125,-1.71875 0.546875,-2.1875 0.3125,-0.578125 0.75,-0.953125 1.15625,-0.953125 0.640625,0 0.78125,0.8125 0.78125,0.875 0,0.0625 -0.015625,0.125 -0.03125,0.171875 z m 0,0"
           id="path5944" />
      </symbol>
      <symbol
         overflow="visible"
         id="symbol8988">
        <path
           style="stroke:none"
           d="m 2.03125,-0.015625 c 0,-0.65625 -0.25,-1.046875 -0.640625,-1.046875 -0.328125,0 -0.53125,0.25 -0.53125,0.53125 C 0.859375,-0.265625 1.0625,0 1.390625,0 1.5,0 1.640625,-0.046875 1.734375,-0.125 1.765625,-0.15625 1.78125,-0.15625 1.78125,-0.15625 c 0.015625,0 0.015625,0 0.015625,0.140625 0,0.75 -0.34375,1.34375 -0.671875,1.671875 -0.109375,0.109375 -0.109375,0.125 -0.109375,0.15625 0,0.078125 0.046875,0.109375 0.09375,0.109375 0.109375,0 0.921875,-0.765625 0.921875,-1.9375 z m 0,0"
           id="path2463" />
      </symbol>
      <symbol
         overflow="visible"
         id="symbol8492">
        <path
           style="stroke:none"
           d="m 4.5,-4.296875 c 0,-0.046875 -0.03125,-0.09375 -0.09375,-0.09375 -0.109375,0 -0.515625,0.390625 -0.671875,0.6875 C 3.515625,-4.25 3.125,-4.40625 2.796875,-4.40625 c -1.171875,0 -2.390625,1.46875 -2.390625,2.921875 0,0.96875 0.578125,1.59375 1.3125,1.59375 0.421875,0 0.8125,-0.234375 1.171875,-0.59375 -0.09375,0.34375 -0.421875,1.6875 -0.453125,1.78125 -0.078125,0.28125 -0.15625,0.3125 -0.71875,0.328125 -0.125,0 -0.21875,0 -0.21875,0.203125 0,0 0,0.109375 0.125,0.109375 0.3125,0 0.671875,-0.03125 1,-0.03125 0.328125,0 0.6875,0.03125 1.03125,0.03125 0.046875,0 0.171875,0 0.171875,-0.203125 C 3.828125,1.625 3.734375,1.625 3.5625,1.625 3.09375,1.625 3.09375,1.5625 3.09375,1.46875 3.09375,1.390625 3.109375,1.328125 3.125,1.25 Z m -2.75,4.1875 c -0.609375,0 -0.640625,-0.765625 -0.640625,-0.9375 0,-0.484375 0.28125,-1.5625 0.453125,-1.984375 0.3125,-0.734375 0.828125,-1.15625 1.234375,-1.15625 0.65625,0 0.796875,0.8125 0.796875,0.875 0,0.0625 -0.546875,2.25 -0.578125,2.28125 C 2.859375,-0.75 2.296875,-0.109375 1.75,-0.109375 Z m 0,0"
           id="path6251" />
      </symbol>
      <symbol
         overflow="visible"
         id="symbol6045">
        <path
           style="stroke:none"
           d=""
           id="path3860" />
      </symbol>
      <symbol
         overflow="visible"
         id="symbol4360">
        <path
           style="stroke:none"
           d="M 1.390625,-4.84375 0.34375,-4.765625 v 0.25 c 0.46875,0 0.515625,0.0625 0.515625,0.40625 V 0 H 1.09375 l 0.25,-0.421875 C 1.609375,-0.078125 2,0.0625 2.359375,0.0625 3.28125,0.0625 4.0625,-0.625 4.0625,-1.5 c 0,-0.859375 -0.703125,-1.578125 -1.625,-1.578125 -0.421875,0 -0.796875,0.171875 -1.046875,0.421875 z m 0.03125,2.515625 C 1.609375,-2.65625 1.984375,-2.875 2.40625,-2.875 c 0.390625,0 0.671875,0.21875 0.8125,0.421875 0.140625,0.203125 0.21875,0.484375 0.21875,0.9375 0,0.15625 0,0.6875 -0.28125,1.015625 -0.28125,0.3125 -0.625,0.375 -0.828125,0.375 -0.5625,0 -0.84375,-0.4375 -0.90625,-0.578125 z m 0,0"
           id="path6309" />
      </symbol>
    </g>
    <g
       id="g8353">
      <symbol
         overflow="visible"
         id="symbol9191">
        <path
           style="stroke:none"
           d=""
           id="path6097" />
      </symbol>
      <symbol
         overflow="visible"
         id="symbol5938">
        <path
           style="stroke:none"
           d="m 5.140625,-6.8125 c 0,0 0,-0.109375 -0.125,-0.109375 -0.15625,0 -1.09375,0.09375 -1.265625,0.109375 -0.078125,0.015625 -0.140625,0.0625 -0.140625,0.1875 0,0.125 0.09375,0.125 0.234375,0.125 0.484375,0 0.5,0.0625 0.5,0.171875 L 4.3125,-6.125 3.71875,-3.765625 C 3.53125,-4.140625 3.25,-4.40625 2.796875,-4.40625 c -1.15625,0 -2.390625,1.46875 -2.390625,2.921875 0,0.9375 0.546875,1.59375 1.3125,1.59375 0.203125,0 0.703125,-0.046875 1.296875,-0.75 0.078125,0.421875 0.4375,0.75 0.90625,0.75 0.359375,0 0.578125,-0.234375 0.75,-0.546875 0.15625,-0.359375 0.296875,-0.96875 0.296875,-0.984375 0,-0.109375 -0.09375,-0.109375 -0.125,-0.109375 -0.09375,0 -0.109375,0.046875 -0.140625,0.1875 -0.171875,0.640625 -0.34375,1.234375 -0.75,1.234375 -0.28125,0 -0.296875,-0.265625 -0.296875,-0.453125 0,-0.25 0.015625,-0.3125 0.046875,-0.484375 z m -2.0625,5.625 C 3.015625,-1 3.015625,-0.984375 2.875,-0.8125 2.4375,-0.265625 2.03125,-0.109375 1.75,-0.109375 c -0.5,0 -0.640625,-0.546875 -0.640625,-0.9375 0,-0.5 0.3125,-1.71875 0.546875,-2.1875 0.3125,-0.578125 0.75,-0.953125 1.15625,-0.953125 0.640625,0 0.78125,0.8125 0.78125,0.875 0,0.0625 -0.015625,0.125 -0.03125,0.171875 z m 0,0"
           id="path4765" />
      </symbol>
      <symbol
         overflow="visible"
         id="symbol576">
        <path
           style="stroke:none"
           d="m 2.03125,-0.015625 c 0,-0.65625 -0.25,-1.046875 -0.640625,-1.046875 -0.328125,0 -0.53125,0.25 -0.53125,0.53125 C 0.859375,-0.265625 1.0625,0 1.390625,0 1.5,0 1.640625,-0.046875 1.734375,-0.125 1.765625,-0.15625 1.78125,-0.15625 1.78125,-0.15625 c 0.015625,0 0.015625,0 0.015625,0.140625 0,0.75 -0.34375,1.34375 -0.671875,1.671875 -0.109375,0.109375 -0.109375,0.125 -0.109375,0.15625 0,0.078125 0.046875,0.109375 0.09375,0.109375 0.109375,0 0.921875,-0.765625 0.921875,-1.9375 z m 0,0"
           id="path8392" />
      </symbol>
      <symbol
         overflow="visible"
         id="symbol1561">
        <path
           style="stroke:none"
           d="m 4.5,-4.296875 c 0,-0.046875 -0.03125,-0.09375 -0.09375,-0.09375 -0.109375,0 -0.515625,0.390625 -0.671875,0.6875 C 3.515625,-4.25 3.125,-4.40625 2.796875,-4.40625 c -1.171875,0 -2.390625,1.46875 -2.390625,2.921875 0,0.96875 0.578125,1.59375 1.3125,1.59375 0.421875,0 0.8125,-0.234375 1.171875,-0.59375 -0.09375,0.34375 -0.421875,1.6875 -0.453125,1.78125 -0.078125,0.28125 -0.15625,0.3125 -0.71875,0.328125 -0.125,0 -0.21875,0 -0.21875,0.203125 0,0 0,0.109375 0.125,0.109375 0.3125,0 0.671875,-0.03125 1,-0.03125 0.328125,0 0.6875,0.03125 1.03125,0.03125 0.046875,0 0.171875,0 0.171875,-0.203125 C 3.828125,1.625 3.734375,1.625 3.5625,1.625 3.09375,1.625 3.09375,1.5625 3.09375,1.46875 3.09375,1.390625 3.109375,1.328125 3.125,1.25 Z m -2.75,4.1875 c -0.609375,0 -0.640625,-0.765625 -0.640625,-0.9375 0,-0.484375 0.28125,-1.5625 0.453125,-1.984375 0.3125,-0.734375 0.828125,-1.15625 1.234375,-1.15625 0.65625,0 0.796875,0.8125 0.796875,0.875 0,0.0625 -0.546875,2.25 -0.578125,2.28125 C 2.859375,-0.75 2.296875,-0.109375 1.75,-0.109375 Z m 0,0"
           id="path395" />
      </symbol>
      <symbol
         overflow="visible"
         id="symbol848">
        <path
           style="stroke:none"
           d=""
           id="path5374" />
      </symbol>
      <symbol
         overflow="visible"
         id="symbol8349">
        <path
           style="stroke:none"
           d="m 2.703125,-2.78125 c -0.125,0.0625 -0.1875,0.171875 -0.1875,0.3125 0,0.1875 0.125,0.328125 0.328125,0.328125 0.1875,0 0.328125,-0.125 0.328125,-0.34375 0,-0.625 -0.96875,-0.625 -1.15625,-0.625 -1.046875,0 -1.6875,0.796875 -1.6875,1.609375 0,0.875 0.734375,1.5625 1.65625,1.5625 1.03125,0 1.28125,-0.8125 1.28125,-0.90625 0,-0.078125 -0.09375,-0.078125 -0.125,-0.078125 -0.09375,0 -0.09375,0.015625 -0.125,0.125 C 2.859375,-0.375 2.484375,-0.15625 2.0625,-0.15625 c -0.484375,0 -1.109375,-0.359375 -1.109375,-1.359375 0,-0.875 0.4375,-1.375 1.078125,-1.375 0.09375,0 0.421875,0 0.671875,0.109375 z m 0,0"
           id="path8034" />
      </symbol>
    </g>
    <g
       id="g9368">
      <symbol
         overflow="visible"
         id="symbol8431">
        <path
           style="stroke:none"
           d=""
           id="path8567" />
      </symbol>
      <symbol
         overflow="visible"
         id="symbol3020">
        <path
           style="stroke:none"
           d="m 4.25,-6.046875 c 0.078125,-0.28125 0.109375,-0.34375 0.234375,-0.375 0.09375,-0.015625 0.421875,-0.015625 0.625,-0.015625 1.015625,0 1.453125,0.03125 1.453125,0.8125 0,0.15625 -0.03125,0.546875 -0.078125,0.796875 0,0.046875 -0.03125,0.15625 -0.03125,0.1875 0,0.0625 0.03125,0.140625 0.125,0.140625 0.109375,0 0.125,-0.078125 0.15625,-0.234375 L 7,-6.46875 C 7.015625,-6.515625 7.015625,-6.609375 7.015625,-6.640625 7.015625,-6.75 6.921875,-6.75 6.75,-6.75 H 1.21875 c -0.234375,0 -0.25,0.015625 -0.328125,0.203125 l -0.59375,1.75 c 0,0.015625 -0.0625,0.15625 -0.0625,0.1875 0,0.046875 0.0625,0.109375 0.125,0.109375 0.09375,0 0.109375,-0.0625 0.171875,-0.21875 C 1.0625,-6.265625 1.328125,-6.4375 2.796875,-6.4375 H 3.1875 c 0.28125,0 0.28125,0.03125 0.28125,0.125 0,0.046875 -0.03125,0.171875 -0.046875,0.203125 L 2.09375,-0.78125 C 2,-0.421875 1.96875,-0.3125 0.90625,-0.3125 c -0.359375,0 -0.421875,0 -0.421875,0.1875 C 0.484375,0 0.59375,0 0.65625,0 c 0.265625,0 0.546875,-0.015625 0.8125,-0.015625 0.28125,0 0.578125,-0.015625 0.859375,-0.015625 0.28125,0 0.546875,0.015625 0.828125,0.015625 C 3.4375,-0.015625 3.734375,0 4.015625,0 c 0.09375,0 0.21875,0 0.21875,-0.203125 0,-0.109375 -0.078125,-0.109375 -0.34375,-0.109375 -0.234375,0 -0.375,0 -0.625,-0.015625 -0.296875,-0.03125 -0.375,-0.0625 -0.375,-0.21875 0,-0.015625 0,-0.0625 0.046875,-0.203125 z m 0,0"
           id="path6402" />
      </symbol>
      <symbol
         overflow="visible"
         id="symbol2717">
        <path
           style="stroke:none"
           d=""
           id="path4119" />
      </symbol>
      <symbol
         overflow="visible"
         id="symbol786">
        <path
           style="stroke:none"
           d="m 2.640625,-2.921875 c 0,-0.125 0,-0.1875 -0.09375,-0.1875 -0.03125,0 -0.046875,0 -0.140625,0.078125 -0.015625,0.015625 -0.078125,0.078125 -0.125,0.109375 -0.21875,-0.140625 -0.46875,-0.1875 -0.734375,-0.1875 -1,0 -1.234375,0.53125 -1.234375,0.875 0,0.21875 0.09375,0.40625 0.265625,0.546875 0.265625,0.21875 0.53125,0.265625 0.96875,0.34375 0.34375,0.0625 0.90625,0.15625 0.90625,0.625 0,0.265625 -0.1875,0.59375 -0.859375,0.59375 -0.671875,0 -0.90625,-0.4375 -1.03125,-0.90625 -0.03125,-0.09375 -0.03125,-0.125 -0.125,-0.125 -0.125,0 -0.125,0.046875 -0.125,0.1875 v 0.859375 C 0.3125,0 0.3125,0.0625 0.40625,0.0625 0.46875,0.0625 0.609375,-0.078125 0.75,-0.234375 1.046875,0.0625 1.421875,0.0625 1.59375,0.0625 c 0.90625,0 1.25,-0.484375 1.25,-0.96875 0,-0.265625 -0.125,-0.484375 -0.3125,-0.640625 -0.265625,-0.25 -0.578125,-0.3125 -0.828125,-0.34375 -0.546875,-0.109375 -1,-0.1875 -1,-0.5625 0,-0.21875 0.1875,-0.484375 0.84375,-0.484375 0.8125,0 0.84375,0.5625 0.859375,0.765625 0,0.078125 0.09375,0.078125 0.109375,0.078125 0.125,0 0.125,-0.046875 0.125,-0.1875 z m 0,0"
           id="path6769" />
      </symbol>
      <symbol
         overflow="visible"
         id="symbol1362">
        <path
           style="stroke:none"
           d="M 4.875,-2.328125 C 5.015625,-2.671875 5.25,-2.75 5.46875,-2.75 V -3 c -0.1875,0.015625 -0.3125,0.03125 -0.5,0.03125 C 4.75,-2.96875 4.484375,-2.984375 4.28125,-3 v 0.25 c 0.234375,0 0.359375,0.140625 0.359375,0.296875 0,0.0625 0,0.078125 -0.046875,0.171875 l -0.671875,1.734375 -0.75,-1.90625 c -0.015625,-0.03125 -0.03125,-0.078125 -0.03125,-0.125 0,-0.15625 0.171875,-0.171875 0.375,-0.171875 V -3 c -0.25,0.015625 -0.5,0.03125 -0.75,0.03125 -0.203125,0 -0.421875,-0.015625 -0.625,-0.03125 v 0.25 c 0.171875,0 0.3125,0 0.40625,0.046875 0.09375,0.078125 0.15625,0.3125 0.15625,0.3125 0,0.015625 -0.015625,0.0625 -0.03125,0.078125 l -0.65625,1.671875 -0.703125,-1.8125 c -0.03125,-0.09375 -0.03125,-0.09375 -0.03125,-0.125 0,-0.171875 0.25,-0.171875 0.375,-0.171875 V -3 c -0.015625,0 -0.515625,0.03125 -0.796875,0.03125 -0.21875,0 -0.4375,-0.015625 -0.65625,-0.03125 v 0.25 c 0.28125,0 0.4375,0 0.5,0.203125 l 0.96875,2.453125 C 1.71875,0.015625 1.734375,0.0625 1.875,0.0625 2,0.0625 2.015625,0.015625 2.046875,-0.078125 L 2.84375,-2.0625 3.609375,-0.09375 C 3.65625,0 3.671875,0.0625 3.8125,0.0625 3.9375,0.0625 3.953125,0.015625 4,-0.09375 Z m 0,0"
           id="path6520" />
      </symbol>
    </g>
  </defs>
  <metadata
     id="metadata3475">
    <rdf:RDF>
      <cc:Work
         rdf:about="">
        <dc:format>image/svg+xml</dc:format>
        <dc:type
           rdf:resource="http://purl.org/dc/dcmitype/StillImage" />
        <dc:title />
      </cc:Work>
    </rdf:RDF>
  </metadata>
  <g
     transform="translate(-79.83499,-324.65454)"
     inkscape:groupmode="layer"
     id="layer1"
     style="display:inline"
     inkscape:label="Circuit" />
  <g
     inkscape:groupmode="layer"
     id="layer2"
     style="display:inline;opacity:1"
     inkscape:label="Labels"
     transform="translate(100.00001,5.0000005)">
    <path
       style="display:inline;fill:#0000ff;fill-opacity:0.2;stroke:#0000ff;stroke-width:0.5;stroke-linecap:butt;stroke-linejoin:miter;stroke-miterlimit:4;stroke-dasharray:none;stroke-dashoffset:0;stroke-opacity:0.2;marker-end:none"
       d="M 105,15 V 230"
       id="path1523"
       inkscape:connector-curvature="0"
       sodipodi:nodetypes="cc" />
    <path
       style="display:inline;fill:#0000ff;fill-opacity:0.2;stroke:#0000ff;stroke-width:0.5;stroke-linecap:butt;stroke-linejoin:miter;stroke-miterlimit:4;stroke-dasharray:none;stroke-dashoffset:0;stroke-opacity:0.2;marker-end:none"
       d="M 225,15 V 230"
       id="path1521"
       inkscape:connector-curvature="0"
       sodipodi:nodetypes="cc" />
    <path
       style="display:inline;fill:#0000ff;fill-opacity:0.2;stroke:#0000ff;stroke-width:0.5;stroke-linecap:butt;stroke-linejoin:miter;stroke-miterlimit:4;stroke-dasharray:none;stroke-dashoffset:0;stroke-opacity:0.2;marker-end:none"
       d="M 185,15 V 230"
       id="path1519"
       inkscape:connector-curvature="0"
       sodipodi:nodetypes="cc" />
    <path
       style="display:inline;fill:none;stroke:#7f7f7f;stroke-width:0.8;stroke-linecap:butt;stroke-linejoin:miter;stroke-miterlimit:4;stroke-dasharray:none;stroke-opacity:1;marker-end:none"
       d="m 225,100 -40,40 -40,-40 -40,40 -40,-40"
       id="path5499-5-8-0-3-5-7-6"
       inkscape:connector-curvature="0"
       sodipodi:nodetypes="ccccc" />
    <path
       sodipodi:nodetypes="ccccc"
       inkscape:connector-curvature="0"
       id="path3613"
       d="M 225,20 185,60 145,20 105,60 65,20"
       style="display:inline;fill:none;stroke:#7f7f7f;stroke-width:0.8;stroke-linecap:butt;stroke-linejoin:miter;stroke-miterlimit:4;stroke-dasharray:none;stroke-opacity:1;marker-end:none" />
    <g
       inkscape:label="Circuit"
       style="display:inline"
       id="layer1-5"
       transform="translate(-135.83499,-325.1546)" />
    <g
       inkscape:label="Circuit"
       style="display:inline"
       id="layer1-9"
       transform="translate(68.16501,-22.15456)" />
    <g
       transform="translate(74.16501,-375.1546)"
       id="layer1-5-8"
       style="display:inline"
       inkscape:label="Circuit" />
    <g
       transform="translate(278.16501,-72.15456)"
       id="layer1-9-9"
       style="display:inline"
       inkscape:label="Circuit" />
    <path
       sodipodi:nodetypes="cc"
       inkscape:connector-curvature="0"
       id="path5499-5-8-0-3-5-7-4-1"
       d="M 65,62.499996 V 0"
       style="display:inline;fill:none;stroke:#000000;stroke-width:0.5;stroke-linecap:butt;stroke-linejoin:miter;stroke-miterlimit:4;stroke-dasharray:none;stroke-opacity:1;marker-end:url(#Arrow2Mend)" />
    <path
       sodipodi:nodetypes="cc"
       inkscape:connector-curvature="0"
       id="path5499-3-3-76-8-6-7-13"
       d="M 62.5,59.999996 H 240"
       style="display:inline;fill:#2b2200;stroke:#000000;stroke-width:0.5;stroke-linecap:butt;stroke-linejoin:miter;stroke-miterlimit:4;stroke-dasharray:none;stroke-opacity:1;marker-end:url(#Arrow2Mend)" />
    <path
       sodipodi:nodetypes="cc"
       inkscape:connector-curvature="0"
       id="path5499-5-8-0-3-5-7-4-4-8"
       d="M 65,142.5 V 79.999996"
       style="display:inline;fill:none;stroke:#000000;stroke-width:0.5;stroke-linecap:butt;stroke-linejoin:miter;stroke-miterlimit:4;stroke-dasharray:none;stroke-opacity:1;marker-end:url(#Arrow2Mend)" />
    <path
       sodipodi:nodetypes="cc"
       inkscape:connector-curvature="0"
       id="path5499-3-3-76-8-6-7-1-7"
       d="M 62.5,140 H 240"
       style="display:inline;fill:#2b2200;stroke:#000000;stroke-width:0.5;stroke-linecap:butt;stroke-linejoin:miter;stroke-miterlimit:4;stroke-dasharray:none;stroke-opacity:1;marker-end:url(#Arrow2Mend)" />
    <path
       style="display:inline;fill:#0000ff;fill-opacity:0.2;stroke:#0000ff;stroke-width:0.5;stroke-linecap:butt;stroke-linejoin:miter;stroke-miterlimit:4;stroke-dasharray:none;stroke-dashoffset:0;stroke-opacity:0.2;marker-end:none"
       d="M 145,15 V 230"
       id="path5499-3-3-76-3-0-7-4-8-0"
       inkscape:connector-curvature="0"
       sodipodi:nodetypes="cc" />
    <path
       sodipodi:nodetypes="cccccccccc"
       inkscape:connector-curvature="0"
       id="path5499-3-3-76-8-6-7-31-2-9"
       d="m 65,139.99999 h 5 V 100 h 65 v 39.99999 l 25,-1e-5 V 100 l 45,1e-5 V 140 l 20,-1e-5"
       style="display:inline;fill:none;stroke:#0000ff;stroke-width:1.5;stroke-linecap:butt;stroke-linejoin:miter;stroke-miterlimit:4;stroke-dasharray:none;stroke-opacity:1;marker-end:none" />
    <path
       sodipodi:nodetypes="cccccccccc"
       inkscape:connector-curvature="0"
       id="path5499-3-3-76-8-6-7-31-2-7-3"
       d="m 65,60 h 35 V 20 h 15 v 40 h 55 V 20 h 35 v 40 h 20"
       style="display:inline;fill:none;stroke:#0000ff;stroke-width:1.5;stroke-linecap:butt;stroke-linejoin:miter;stroke-miterlimit:4;stroke-dasharray:none;stroke-opacity:1;marker-end:none" />
    <path
       style="display:inline;fill:none;stroke:#000000;stroke-width:0.5;stroke-linecap:butt;stroke-linejoin:miter;stroke-miterlimit:4;stroke-dasharray:none;stroke-opacity:1;marker-end:none"
       d="m 62.5,20 h 5"
       id="path3076-4"
       inkscape:connector-curvature="0"
       sodipodi:nodetypes="cc" />
    <path
       sodipodi:nodetypes="cc"
       inkscape:connector-curvature="0"
       id="path4054-0"
       d="m 62.5,100 h 5"
       style="display:inline;fill:none;stroke:#000000;stroke-width:0.5;stroke-linecap:butt;stroke-linejoin:miter;stroke-miterlimit:4;stroke-dasharray:none;stroke-opacity:1;marker-end:none" />
    <g
       inkscape:label="Circuit"
       style="display:inline"
       id="layer1-5-1"
       transform="translate(324.16501,-380.1546)" />
    <g
       inkscape:label="Circuit"
       style="display:inline"
       id="layer1-9-0"
       transform="translate(528.16501,-77.15456)" />
    <path
       style="display:inline;fill:none;stroke:#7f7f7f;stroke-width:0.8;stroke-linecap:butt;stroke-linejoin:miter;stroke-miterlimit:4;stroke-dasharray:none;stroke-opacity:1;marker-end:none"
       d="m 225,180 -40,40 -40,-40 -40,40 -40,-40"
       id="path3365"
       inkscape:connector-curvature="0"
       sodipodi:nodetypes="ccccc" />
    <path
       style="display:inline;fill:none;stroke:#000000;stroke-width:0.5;stroke-linecap:butt;stroke-linejoin:miter;stroke-miterlimit:4;stroke-dasharray:none;stroke-opacity:1;marker-end:url(#Arrow2Mend)"
       d="M 65,227.5 V 160"
       id="path3369"
       inkscape:connector-curvature="0"
       sodipodi:nodetypes="cc" />
    <path
       style="display:inline;fill:#2b2200;stroke:#000000;stroke-width:0.5;stroke-linecap:butt;stroke-linejoin:miter;stroke-miterlimit:4;stroke-dasharray:none;stroke-opacity:1;marker-end:url(#Arrow2Mend)"
       d="M 62.5,220 H 240"
       id="path3371"
       inkscape:connector-curvature="0"
       sodipodi:nodetypes="cc" />
    <path
       style="display:inline;fill:none;stroke:#000000;stroke-width:0.5;stroke-linecap:butt;stroke-linejoin:miter;stroke-miterlimit:4;stroke-dasharray:none;stroke-opacity:1;marker-end:none"
       d="m 62.5,180 h 5"
       id="path3387"
       inkscape:connector-curvature="0"
       sodipodi:nodetypes="cc" />
    <path
       inkscape:connector-curvature="0"
       style="display:inline;fill:none;stroke:#000000;stroke-width:0.6;stroke-linecap:round;stroke-linejoin:miter;stroke-miterlimit:4;stroke-dasharray:none;stroke-opacity:1;marker-start:url(#Arrow1Mstart);marker-mid:none;marker-end:url(#Arrow1Mend-21)"
       d="m 145,225 h 40"
       sodipodi:nodetypes="cc"
       id="path3533-0-9-9-2-8-2-4-6-6-7-7-5-8-5"
       inkscape:export-filename="C:\Documents and Settings\mhinkkan\Desktop\testi.png"
       inkscape:export-xdpi="300"
       inkscape:export-ydpi="300" />
    <path
       style="display:inline;fill:none;stroke:#0000ff;stroke-width:1.5;stroke-linecap:butt;stroke-linejoin:miter;stroke-miterlimit:4;stroke-dasharray:none;stroke-opacity:1;marker-end:none"
       d="m 65,220 h 20 v -40 h 35 v 40 h 50 v -40 h 35 v 40 h 20"
       id="path4288"
       inkscape:connector-curvature="0"
       sodipodi:nodetypes="cccccccccc" />
    <path
       inkscape:connector-curvature="0"
       inkscape:original-d="m 79.21169,31.719676 c 1.45994,-1.68201 1.98406,-2.68182 1.84558,-3.62961 -0.6559,-4.48936 -0.82271,-4.53031 5.73612,-12.90233 0.94324,-1.20399 3.03427,-4.17418 4.18892,-5.18774 2.52985,-2.22066 2.77147,0.45293 3.63063,-2.48855"
       inkscape:path-effect="#path-effect4296"
       id="path4294"
       d="m 79.21169,31.719676 c 0.66421,-1.184101 1.280086,-2.395314 1.84558,-3.62961 1.962185,-4.282837 3.3246,-8.855426 5.73612,-12.90233 1.142262,-1.916893 2.519891,-3.706664 4.18892,-5.18774 1.100284,-0.9763785 2.323097,-1.8145341 3.63063,-2.48855"
       style="fill:none;stroke:#000000;stroke-width:0.4;stroke-linecap:butt;stroke-linejoin:miter;stroke-miterlimit:4;stroke-dasharray:none;stroke-opacity:1" />
    <g
       id="g6136">
      <g
         inkscape:label=""
         transform="matrix(1.25,0,0,1.25,-60.794619,-78.303356)"
         id="g1367"
         style="stroke-width:0.8">
        <g
           id="g3315"
           style="stroke-width:0.8">
          <g
             style="fill:#000000;fill-opacity:1;stroke-width:0.8"
             id="g787">
            <use
               xlink:href="#symbol8604"
               x="91.925003"
               y="81.962997"
               id="use4374"
               width="100%"
               height="100%"
               style="stroke-width:0.8" />
          </g>
        </g>
      </g>
      <g
         inkscape:label=""
         transform="matrix(1.25,0,0,1.25,-61.302431,-38.444883)"
         id="g1474"
         style="stroke-width:0.8">
        <g
           id="g8159"
           style="stroke-width:0.8">
          <g
             style="fill:#000000;fill-opacity:1;stroke-width:0.8"
             id="g9767">
            <use
               xlink:href="#symbol8106"
               x="91.925003"
               y="81.962997"
               id="use3206"
               width="100%"
               height="100%"
               style="stroke-width:0.8" />
          </g>
        </g>
      </g>
    </g>
    <g
       inkscape:label=""
       transform="matrix(1.25,0,0,1.25,120.63339,-29.510102)"
       id="g1590"
       style="stroke-width:0.8">
      <g
         id="g8710"
         style="stroke-width:0.8">
        <g
           style="fill:#000000;fill-opacity:1;stroke-width:0.8"
           id="g6960">
          <use
             xlink:href="#symbol1201"
             x="91.925003"
             y="81.962997"
             id="use4193"
             width="100%"
             height="100%"
             style="stroke-width:0.8" />
        </g>
      </g>
    </g>
    <g
       inkscape:label=""
       transform="matrix(1.25,0,0,1.25,76.63339,-89.510102)"
       id="g1721"
       style="fill:#0000ff;fill-opacity:1;stroke-width:0.8">
      <g
         id="g845"
         style="fill:#0000ff;fill-opacity:1;stroke-width:0.8">
        <g
           style="fill:#0000ff;fill-opacity:1;stroke-width:0.8"
           id="g9982">
          <use
             xlink:href="#symbol9974"
             x="91.925003"
             y="81.962997"
             id="use3545"
             width="100%"
             height="100%"
             style="fill:#0000ff;fill-opacity:1;stroke-width:0.8" />
        </g>
        <g
           style="fill:#0000ff;fill-opacity:1;stroke-width:0.8"
           id="g9622">
          <use
             xlink:href="#symbol4744"
             x="96.373001"
             y="83.457001"
             id="use1557"
             width="100%"
             height="100%"
             style="fill:#0000ff;fill-opacity:1;stroke-width:0.8" />
        </g>
      </g>
    </g>
    <g
       inkscape:label=""
       transform="matrix(1.25,0,0,1.25,76.506437,-9.510102)"
       id="g1873"
       style="fill:#0000ff;fill-opacity:1;stroke-width:0.8">
      <g
         id="g9594"
         style="fill:#0000ff;fill-opacity:1;stroke-width:0.8">
        <g
           style="fill:#0000ff;fill-opacity:1;stroke-width:0.8"
           id="g465">
          <use
             xlink:href="#symbol1621"
             x="91.925003"
             y="81.962997"
             id="use6702"
             width="100%"
             height="100%"
             style="fill:#0000ff;fill-opacity:1;stroke-width:0.8" />
        </g>
        <g
           style="fill:#0000ff;fill-opacity:1;stroke-width:0.8"
           id="g726">
          <use
             xlink:href="#symbol5523"
             x="96.373001"
             y="83.457001"
             id="use7763"
             width="100%"
             height="100%"
             style="fill:#0000ff;fill-opacity:1;stroke-width:0.8" />
        </g>
      </g>
    </g>
    <g
       inkscape:label=""
       transform="matrix(1.25,0,0,1.25,77.004484,70.489898)"
       id="g2040"
       style="fill:#0000ff;fill-opacity:1;stroke-width:0.8">
      <g
         id="g7759"
         style="fill:#0000ff;fill-opacity:1;stroke-width:0.8">
        <g
           style="fill:#0000ff;fill-opacity:1;stroke-width:0.8"
           id="g4661">
          <use
             xlink:href="#symbol4406"
             x="91.925003"
             y="81.962997"
             id="use9658"
             width="100%"
             height="100%"
             style="fill:#0000ff;fill-opacity:1;stroke-width:0.8" />
        </g>
        <g
           style="fill:#0000ff;fill-opacity:1;stroke-width:0.8"
           id="g9989">
          <use
             xlink:href="#symbol5133"
             x="96.373001"
             y="83.457001"
             id="use7365"
             width="100%"
             height="100%"
             style="fill:#0000ff;fill-opacity:1;stroke-width:0.8" />
        </g>
      </g>
    </g>
    <g
       inkscape:label=""
       transform="matrix(1.25,0,0,1.25,112.63339,100.4899)"
       id="g2222"
       style="fill:#ff0000;fill-opacity:1;stroke-width:0.8">
      <g
         id="g7308"
         style="fill:#ff0000;fill-opacity:1;stroke-width:0.8">
        <g
           style="fill:#ff0000;fill-opacity:1;stroke-width:0.8"
           id="g3891">
          <use
             xlink:href="#symbol8154"
             x="91.925003"
             y="81.962997"
             id="use4756"
             width="100%"
             height="100%"
             style="fill:#ff0000;fill-opacity:1;stroke-width:0.8" />
        </g>
        <g
           style="fill:#ff0000;fill-opacity:1;stroke-width:0.8"
           id="g202">
          <use
             xlink:href="#symbol8713"
             x="97.111"
             y="83.457001"
             id="use4896"
             width="100%"
             height="100%"
             style="fill:#ff0000;fill-opacity:1;stroke-width:0.8" />
        </g>
      </g>
    </g>
    <g
       inkscape:label=""
       transform="matrix(1.25,0,0,1.25,112.63339,20.489898)"
       id="g2419"
       style="fill:#ff0000;fill-opacity:1;stroke-width:0.8">
      <g
         id="g4947"
         style="fill:#ff0000;fill-opacity:1;stroke-width:0.8">
        <g
           style="fill:#ff0000;fill-opacity:1;stroke-width:0.8"
           id="g6148">
          <use
             xlink:href="#symbol9660"
             x="91.925003"
             y="81.962997"
             id="use3661"
             width="100%"
             height="100%"
             style="fill:#ff0000;fill-opacity:1;stroke-width:0.8" />
        </g>
        <g
           style="fill:#ff0000;fill-opacity:1;stroke-width:0.8"
           id="g5529">
          <use
             xlink:href="#symbol8103"
             x="97.111"
             y="83.457001"
             id="use1695"
             width="100%"
             height="100%"
             style="fill:#ff0000;fill-opacity:1;stroke-width:0.8" />
        </g>
      </g>
    </g>
    <g
       inkscape:label=""
       transform="matrix(1.25,0,0,1.25,112.63339,-59.510102)"
       id="g2631"
       style="fill:#ff0000;fill-opacity:1;stroke-width:0.8">
      <g
         id="g8949"
         style="fill:#ff0000;fill-opacity:1;stroke-width:0.8">
        <g
           style="fill:#ff0000;fill-opacity:1;stroke-width:0.8"
           id="g7343">
          <use
             xlink:href="#symbol5064"
             x="91.925003"
             y="81.962997"
             id="use4288"
             width="100%"
             height="100%"
             style="fill:#ff0000;fill-opacity:1;stroke-width:0.8" />
        </g>
        <g
           style="fill:#ff0000;fill-opacity:1;stroke-width:0.8"
           id="g8140">
          <use
             xlink:href="#symbol8949"
             x="97.111"
             y="83.457001"
             id="use8996"
             width="100%"
             height="100%"
             style="fill:#ff0000;fill-opacity:1;stroke-width:0.8" />
        </g>
      </g>
    </g>
    <g
       inkscape:label=""
       transform="matrix(1.25,0,0,1.25,120.63339,50.489898)"
       id="g2659"
       style="stroke-width:0.8">
      <g
         id="g2657"
         style="stroke-width:0.8">
        <g
           style="fill:#000000;fill-opacity:1;stroke-width:0.8"
           id="g2655">
          <use
             xlink:href="#symbol1201"
             x="91.925003"
             y="81.962997"
             id="use2653"
             width="100%"
             height="100%"
             style="stroke-width:0.8" />
        </g>
      </g>
    </g>
    <g
       inkscape:label=""
       transform="matrix(1.25,0,0,1.25,120.63339,130.4899)"
       id="g2667"
       style="stroke-width:0.8">
      <g
         id="g2665"
         style="stroke-width:0.8">
        <g
           style="fill:#000000;fill-opacity:1;stroke-width:0.8"
           id="g2663">
          <use
             xlink:href="#symbol1201"
             x="91.925003"
             y="81.962997"
             id="use2661"
             width="100%"
             height="100%"
             style="stroke-width:0.8" />
        </g>
      </g>
    </g>
    <g
       inkscape:label=""
       transform="matrix(1.25,0,0,1.25,44.531169,135.03516)"
       id="g3116"
       style="stroke-width:0.8">
      <g
         id="g5708"
         style="stroke-width:0.8">
        <g
           style="fill:#000000;fill-opacity:1;stroke-width:0.8"
           id="g2624">
          <use
             xlink:href="#symbol3048"
             x="91.925003"
             y="81.962997"
             id="use7720"
             width="100%"
             height="100%"
             style="stroke-width:0.8" />
        </g>
        <g
           style="fill:#000000;fill-opacity:1;stroke-width:0.8"
           id="g1258">
          <use
             xlink:href="#symbol3364"
             x="97.747002"
             y="83.457001"
             id="use4197"
             width="100%"
             height="100%"
             style="stroke-width:0.8" />
        </g>
      </g>
    </g>
    <g
       inkscape:label=""
       transform="matrix(1.25,0,0,1.25,-83.566492,-94.46359)"
       id="g3379"
       style="stroke-width:0.8">
      <g
         id="g387"
         style="stroke-width:0.8">
        <g
           style="fill:#000000;fill-opacity:1;stroke-width:0.8"
           id="g3864">
          <use
             xlink:href="#symbol1153"
             x="91.925003"
             y="81.962997"
             id="use6718"
             width="100%"
             height="100%"
             style="stroke-width:0.8" />
        </g>
        <g
           style="fill:#000000;fill-opacity:1;stroke-width:0.8"
           id="g8135">
          <use
             xlink:href="#symbol3105"
             x="97.111"
             y="83.457001"
             id="use9293"
             width="100%"
             height="100%"
             style="stroke-width:0.8" />
        </g>
        <g
           style="fill:#000000;fill-opacity:1;stroke-width:0.8"
           id="g3278">
          <use
             xlink:href="#symbol9539"
             x="101.58"
             y="81.962997"
             id="use8833"
             width="100%"
             height="100%"
             style="stroke-width:0.8" />
        </g>
        <g
           style="fill:#000000;fill-opacity:1;stroke-width:0.8"
           id="g3024">
          <use
             xlink:href="#symbol4402"
             x="106.01137"
             y="81.962997"
             id="use9600"
             width="100%"
             height="100%"
             style="stroke-width:0.8" />
        </g>
        <g
           style="fill:#000000;fill-opacity:1;stroke-width:0.8"
           id="g805">
          <use
             xlink:href="#symbol3105"
             x="110.455"
             y="83.457001"
             id="use9125"
             width="100%"
             height="100%"
             style="stroke-width:0.8" />
        </g>
      </g>
    </g>
    <g
       inkscape:label=""
       transform="matrix(1.25,0,0,1.25,-81.546816,-15.397182)"
       id="g4017"
       style="stroke-width:0.8">
      <g
         id="g898"
         style="stroke-width:0.8">
        <g
           style="fill:#000000;fill-opacity:1;stroke-width:0.8"
           id="g4751">
          <use
             xlink:href="#symbol8254"
             x="91.925003"
             y="81.962997"
             id="use4719"
             width="100%"
             height="100%"
             style="stroke-width:0.8" />
        </g>
        <g
           style="fill:#000000;fill-opacity:1;stroke-width:0.8"
           id="g574">
          <use
             xlink:href="#symbol4360"
             x="97.111"
             y="83.457001"
             id="use7930"
             width="100%"
             height="100%"
             style="stroke-width:0.8" />
        </g>
        <g
           style="fill:#000000;fill-opacity:1;stroke-width:0.8"
           id="g2652">
          <use
             xlink:href="#symbol8988"
             x="102.009"
             y="81.962997"
             id="use240"
             width="100%"
             height="100%"
             style="stroke-width:0.8" />
        </g>
        <g
           style="fill:#000000;fill-opacity:1;stroke-width:0.8"
           id="g2287">
          <use
             xlink:href="#symbol8492"
             x="106.44036"
             y="81.962997"
             id="use7187"
             width="100%"
             height="100%"
             style="stroke-width:0.8" />
        </g>
        <g
           style="fill:#000000;fill-opacity:1;stroke-width:0.8"
           id="g6026">
          <use
             xlink:href="#symbol4360"
             x="110.884"
             y="83.457001"
             id="use6454"
             width="100%"
             height="100%"
             style="stroke-width:0.8" />
        </g>
      </g>
    </g>
    <g
       inkscape:label=""
       transform="matrix(1.25,0,0,1.25,-79.47822,65.06494)"
       id="g4353"
       style="stroke-width:0.8">
      <g
         id="g3405"
         style="stroke-width:0.8">
        <g
           style="fill:#000000;fill-opacity:1;stroke-width:0.8"
           id="g7840">
          <use
             xlink:href="#symbol5938"
             x="91.925003"
             y="81.962997"
             id="use9669"
             width="100%"
             height="100%"
             style="stroke-width:0.8" />
        </g>
        <g
           style="fill:#000000;fill-opacity:1;stroke-width:0.8"
           id="g8172">
          <use
             xlink:href="#symbol8349"
             x="97.111"
             y="83.457001"
             id="use2516"
             width="100%"
             height="100%"
             style="stroke-width:0.8" />
        </g>
        <g
           style="fill:#000000;fill-opacity:1;stroke-width:0.8"
           id="g1861">
          <use
             xlink:href="#symbol576"
             x="101.151"
             y="81.962997"
             id="use2725"
             width="100%"
             height="100%"
             style="stroke-width:0.8" />
        </g>
        <g
           style="fill:#000000;fill-opacity:1;stroke-width:0.8"
           id="g6820">
          <use
             xlink:href="#symbol1561"
             x="105.58237"
             y="81.962997"
             id="use9539"
             width="100%"
             height="100%"
             style="stroke-width:0.8" />
        </g>
        <g
           style="fill:#000000;fill-opacity:1;stroke-width:0.8"
           id="g495">
          <use
             xlink:href="#symbol8349"
             x="110.026"
             y="83.457001"
             id="use9096"
             width="100%"
             height="100%"
             style="stroke-width:0.8" />
        </g>
      </g>
    </g>
    <path
       style="display:inline;fill:none;stroke:#ff0000;stroke-width:1.5;stroke-linecap:butt;stroke-linejoin:miter;stroke-miterlimit:4;stroke-dasharray:none;stroke-dashoffset:0;stroke-opacity:1;marker-start:url(#marker4848);marker-end:none"
       d="m 145,45 h 40"
       id="path4844"
       inkscape:connector-curvature="0"
       sodipodi:nodetypes="cc" />
    <path
       style="display:inline;fill:none;stroke:#ff0000;stroke-width:1.5;stroke-linecap:butt;stroke-linejoin:miter;stroke-miterlimit:4;stroke-dasharray:none;stroke-dashoffset:0;stroke-opacity:1;marker-start:url(#marker4928);marker-end:none"
       d="m 185,40 h 40"
       id="path4924"
       inkscape:connector-curvature="0"
       sodipodi:nodetypes="cc" />
    <path
       style="display:inline;fill:none;stroke:#ff0000;stroke-width:1.5;stroke-linecap:butt;stroke-linejoin:miter;stroke-miterlimit:4;stroke-dasharray:none;stroke-dashoffset:0;stroke-opacity:1;marker-start:url(#marker5032);marker-end:none"
       d="m 65,105 h 40"
       id="path5028"
       inkscape:connector-curvature="0"
       sodipodi:nodetypes="cc" />
    <path
       style="display:inline;fill:none;stroke:#ff0000;stroke-width:1.5;stroke-linecap:butt;stroke-linejoin:miter;stroke-miterlimit:4;stroke-dasharray:none;stroke-dashoffset:0;stroke-opacity:1;marker-start:url(#marker5140);marker-end:none"
       d="m 105,110 h 40"
       id="path5136"
       inkscape:connector-curvature="0"
       sodipodi:nodetypes="cc" />
    <path
       style="display:inline;fill:none;stroke:#ff0000;stroke-width:1.5;stroke-linecap:butt;stroke-linejoin:miter;stroke-miterlimit:4;stroke-dasharray:none;stroke-dashoffset:0;stroke-opacity:1;marker-start:url(#marker5506);marker-end:none"
       d="m 145,115 h 40"
       id="path5502"
       inkscape:connector-curvature="0"
       sodipodi:nodetypes="cc" />
    <path
       style="display:inline;fill:none;stroke:#ff0000;stroke-width:1.5;stroke-linecap:butt;stroke-linejoin:miter;stroke-miterlimit:4;stroke-dasharray:none;stroke-dashoffset:0;stroke-opacity:1;marker-start:url(#marker5640);marker-end:none"
       d="m 145,205 h 40"
       id="path5636"
       inkscape:connector-curvature="0"
       sodipodi:nodetypes="cc" />
    <path
       style="display:inline;fill:none;stroke:#ff0000;stroke-width:1.5;stroke-linecap:butt;stroke-linejoin:miter;stroke-miterlimit:4;stroke-dasharray:none;stroke-dashoffset:0;stroke-opacity:1;marker-start:url(#marker5782);marker-end:none"
       d="m 185,120 h 40"
       id="path5778"
       inkscape:connector-curvature="0"
       sodipodi:nodetypes="cc" />
    <g
       id="g6155"
       transform="translate(0,80)">
      <g
         inkscape:label=""
         transform="matrix(1.25,0,0,1.25,-60.794619,-78.303356)"
         id="g6144"
         style="stroke-width:0.8">
        <g
           id="g6142"
           style="stroke-width:0.8">
          <g
             style="fill:#000000;fill-opacity:1;stroke-width:0.8"
             id="g6140">
            <use
               xlink:href="#symbol8604"
               x="91.925003"
               y="81.962997"
               id="use6138"
               width="100%"
               height="100%"
               style="stroke-width:0.8" />
          </g>
        </g>
      </g>
      <g
         inkscape:label=""
         transform="matrix(1.25,0,0,1.25,-61.302431,-38.444883)"
         id="g6153"
         style="stroke-width:0.8">
        <g
           id="g6151"
           style="stroke-width:0.8">
          <g
             style="fill:#000000;fill-opacity:1;stroke-width:0.8"
             id="g6149">
            <use
               xlink:href="#symbol8106"
               x="91.925003"
               y="81.962997"
               id="use6146"
               width="100%"
               height="100%"
               style="stroke-width:0.8" />
          </g>
        </g>
      </g>
    </g>
    <g
       id="g6173"
       transform="translate(0,160)">
      <g
         inkscape:label=""
         transform="matrix(1.25,0,0,1.25,-60.794619,-78.303356)"
         id="g6163"
         style="stroke-width:0.8">
        <g
           id="g6161"
           style="stroke-width:0.8">
          <g
             style="fill:#000000;fill-opacity:1;stroke-width:0.8"
             id="g6159">
            <use
               xlink:href="#symbol8604"
               x="91.925003"
               y="81.962997"
               id="use6157"
               width="100%"
               height="100%"
               style="stroke-width:0.8" />
          </g>
        </g>
      </g>
      <g
         inkscape:label=""
         transform="matrix(1.25,0,0,1.25,-61.302431,-38.444883)"
         id="g6171"
         style="stroke-width:0.8">
        <g
           id="g6169"
           style="stroke-width:0.8">
          <g
             style="fill:#000000;fill-opacity:1;stroke-width:0.8"
             id="g6167">
            <use
               xlink:href="#symbol8106"
               x="91.925003"
               y="81.962997"
               id="use6165"
               width="100%"
               height="100%"
               style="stroke-width:0.8" />
          </g>
        </g>
      </g>
    </g>
    <path
       inkscape:connector-curvature="0"
       style="display:inline;fill:none;stroke:#000000;stroke-width:0.6;stroke-linecap:round;stroke-linejoin:miter;stroke-miterlimit:4;stroke-dasharray:none;stroke-opacity:1;marker-start:url(#Arrow1Mstart);marker-mid:none;marker-end:url(#Arrow1Mend-21)"
       d="m 185,225 h 40"
       sodipodi:nodetypes="cc"
       id="path6203"
       inkscape:export-filename="C:\Documents and Settings\mhinkkan\Desktop\testi.png"
       inkscape:export-xdpi="300"
       inkscape:export-ydpi="300" />
    <g
       inkscape:label=""
       transform="matrix(1.25,0,0,1.25,84.531169,135.03516)"
       id="g6215"
       style="stroke-width:0.8">
      <g
         id="g6213"
         style="stroke-width:0.8">
        <g
           style="fill:#000000;fill-opacity:1;stroke-width:0.8"
           id="g6207">
          <use
             xlink:href="#symbol3048"
             x="91.925003"
             y="81.962997"
             id="use6205"
             width="100%"
             height="100%"
             style="stroke-width:0.8" />
        </g>
        <g
           style="fill:#000000;fill-opacity:1;stroke-width:0.8"
           id="g6211">
          <use
             xlink:href="#symbol3364"
             x="97.747002"
             y="83.457001"
             id="use6209"
             width="100%"
             height="100%"
             style="stroke-width:0.8" />
        </g>
      </g>
    </g>
    <g
       inkscape:label=""
       transform="matrix(1.25,0,0,1.25,-19.08217,135.03516)"
       id="g6594"
       style="stroke-width:0.8">
      <g
         id="g2556"
         style="stroke-width:0.8">
        <g
           style="fill:#000000;fill-opacity:1;stroke-width:0.8"
           id="g3037">
          <use
             xlink:href="#symbol3020"
             x="91.925003"
             y="81.962997"
             id="use4707"
             width="100%"
             height="100%"
             style="stroke-width:0.8" />
        </g>
        <g
           style="fill:#000000;fill-opacity:1;stroke-width:0.8"
           id="g6013">
          <use
             xlink:href="#symbol786"
             x="97.747002"
             y="83.457001"
             id="use4212"
             width="100%"
             height="100%"
             style="stroke-width:0.8" />
          <use
             xlink:href="#symbol1362"
             x="100.90334"
             y="83.457001"
             id="use8506"
             width="100%"
             height="100%"
             style="stroke-width:0.8" />
        </g>
      </g>
    </g>
    <path
       inkscape:connector-curvature="0"
       style="display:inline;fill:none;stroke:#000000;stroke-width:0.6;stroke-linecap:round;stroke-linejoin:miter;stroke-miterlimit:4;stroke-dasharray:none;stroke-opacity:1;marker-start:url(#Arrow1Mstart);marker-mid:none;marker-end:url(#Arrow1Mend-21)"
       d="m 65,225 h 80"
       sodipodi:nodetypes="cc"
       id="path6619"
       inkscape:export-filename="C:\Documents and Settings\mhinkkan\Desktop\testi.png"
       inkscape:export-xdpi="300"
       inkscape:export-ydpi="300" />
    <path
       style="display:inline;fill:none;stroke:#ff0000;stroke-width:1.5;stroke-linecap:butt;stroke-linejoin:miter;stroke-miterlimit:4;stroke-dasharray:none;stroke-dashoffset:0;stroke-opacity:1;marker-start:url(#DotS);marker-end:none"
       d="m 65,55 h 40"
       id="path6723-5"
       inkscape:connector-curvature="0"
       sodipodi:nodetypes="cc" />
    <path
       style="display:inline;fill:none;stroke:#ff0000;stroke-width:1.5;stroke-linecap:butt;stroke-linejoin:miter;stroke-miterlimit:4;stroke-dasharray:none;stroke-dashoffset:0;stroke-opacity:1;marker-start:url(#marker4770);marker-end:none"
       d="m 105,50 h 40"
       id="path4766"
       inkscape:connector-curvature="0"
       sodipodi:nodetypes="cc" />
    <path
       style="display:inline;fill:none;stroke:#ff0000;stroke-width:1.5;stroke-linecap:butt;stroke-linejoin:miter;stroke-miterlimit:4;stroke-dasharray:none;stroke-dashoffset:0;stroke-opacity:1;marker-start:url(#marker5250);marker-end:none"
       d="m 65,200 h 40"
       id="path5246"
       inkscape:connector-curvature="0"
       sodipodi:nodetypes="cc" />
    <path
       style="display:inline;fill:none;stroke:#ff0000;stroke-width:1.5;stroke-linecap:butt;stroke-linejoin:miter;stroke-miterlimit:4;stroke-dasharray:none;stroke-dashoffset:0;stroke-opacity:1;marker-start:url(#marker5368);marker-end:none"
       d="m 105,205 h 40"
       id="path5364"
       inkscape:connector-curvature="0"
       sodipodi:nodetypes="cc" />
    <path
       style="display:inline;fill:none;stroke:#ff0000;stroke-width:1.5;stroke-linecap:butt;stroke-linejoin:miter;stroke-miterlimit:4;stroke-dasharray:none;stroke-dashoffset:0;stroke-opacity:1;marker-start:url(#marker5956);marker-end:none"
       d="m 185,200 h 40"
       id="path5952"
       inkscape:connector-curvature="0"
       sodipodi:nodetypes="cc" />
    <text
       xml:space="preserve"
       style="font-size:10.6667px;font-family:'Liberation Sans';-inkscape-font-specification:'Liberation Sans';text-align:start;text-anchor:start;fill:#000000;fill-opacity:1;stroke-width:1.333;stroke-linejoin:round;stroke-dashoffset:3.15"
       x="97.180107"
       y="8.7213697"
       id="text2943"><tspan
         sodipodi:role="line"
         x="97.180107"
         y="8.7213697"
         id="tspan2941"
         style="font-style:normal;font-variant:normal;font-weight:normal;font-stretch:normal;font-size:10.6667px;font-family:'Liberation Sans';-inkscape-font-specification:'Liberation Sans';text-align:start;text-anchor:start">carrier</tspan></text>
  </g>
</svg>
