<?xml version="1.0" encoding="UTF-8" standalone="no"?>
<svg
   width="480"
   height="250"
   id="svg3470"
   sodipodi:version="0.32"
   inkscape:version="1.4 (e7c3feb100, 2024-10-09)"
   sodipodi:docname="carrier_comparison.svg"
   inkscape:output_extension="org.inkscape.output.svg.inkscape"
   version="1.0"
   xmlns:inkscape="http://www.inkscape.org/namespaces/inkscape"
   xmlns:sodipodi="http://sodipodi.sourceforge.net/DTD/sodipodi-0.dtd"
   xmlns="http://www.w3.org/2000/svg"
   xmlns:svg="http://www.w3.org/2000/svg"
   xmlns:rdf="http://www.w3.org/1999/02/22-rdf-syntax-ns#"
   xmlns:cc="http://creativecommons.org/ns#"
   xmlns:dc="http://purl.org/dc/elements/1.1/"
   xmlns:ns3="http://www.iki.fi/pav/software/textext/">
  <sodipodi:namedview
     id="base"
     pagecolor="#ffffff"
     bordercolor="#666666"
     borderopacity="1.0"
     gridtolerance="36.6"
     guidetolerance="10"
     objecttolerance="10"
     inkscape:pageopacity="0.0"
     inkscape:pageshadow="2"
     inkscape:zoom="2.5000001"
     inkscape:cx="227.99999"
     inkscape:cy="106.4"
     inkscape:document-units="px"
     inkscape:current-layer="layer2"
     showgrid="true"
     inkscape:grid-points="true"
     inkscape:object-paths="true"
     inkscape:object-points="false"
     inkscape:grid-bbox="false"
     inkscape:window-width="1920"
     inkscape:window-height="1131"
     inkscape:window-x="0"
     inkscape:window-y="0"
     width="349.29px"
     height="359.4px"
     showguides="true"
     inkscape:guide-bbox="true"
     inkscape:guide-points="false"
     inkscape:object-nodes="true"
     inkscape:object-bbox="true"
     inkscape:snap-bbox="false"
     inkscape:snap-nodes="true"
     inkscape:bbox-paths="true"
     inkscape:snap-global="true"
     inkscape:snap-guide="true"
     inkscape:window-maximized="1"
     inkscape:snap-grids="true"
     inkscape:snap-object-midpoints="true"
     inkscape:document-rotation="0"
     fit-margin-top="0"
     fit-margin-left="0"
     fit-margin-right="0"
     fit-margin-bottom="0"
     inkscape:showpageshadow="2"
     inkscape:pagecheckerboard="0"
     inkscape:deskcolor="#d1d1d1">
    <inkscape:grid
       snapvisiblegridlinesonly="true"
       empspacing="5"
       empopacity="0.4"
       opacity="0.2"
       empcolor="#0000ff"
       color="#0000ff"
       spacingy="0.5"
       spacingx="0.5"
       originy="5.0000005"
       originx="100.00001"
       type="xygrid"
       id="GridFromPre046Settings"
       visible="true"
       enabled="true"
       units="px" />
    <sodipodi:guide
       id="guide35742"
       position="2049.5192,1189.6728"
       orientation="0,1"
       inkscape:locked="false" />
    <sodipodi:guide
       id="guide3449"
       position="-104.99999,61.595855"
       orientation="1,0"
       inkscape:locked="false" />
  </sodipodi:namedview>
  <defs
     id="defs3472">
    <marker
       style="overflow:visible"
       id="marker5956"
       refX="0"
       refY="0"
       orient="auto"
       inkscape:stockid="DotS"
       inkscape:isstock="true">
      <path
         transform="matrix(0.2,0,0,0.2,1.48,0.2)"
         style="fill:#ff0000;fill-opacity:1;fill-rule:evenodd;stroke:#ff0000;stroke-width:1pt;stroke-opacity:1"
         d="m -2.5,-1 c 0,2.76 -2.24,5 -5,5 -2.76,0 -5,-2.24 -5,-5 0,-2.76 2.24,-5 5,-5 2.76,0 5,2.24 5,5 z"
         id="path5954" />
    </marker>
    <marker
       style="overflow:visible"
       id="marker5782"
       refX="0"
       refY="0"
       orient="auto"
       inkscape:stockid="DotS"
       inkscape:isstock="true">
      <path
         transform="matrix(0.2,0,0,0.2,1.48,0.2)"
         style="fill:#ff0000;fill-opacity:1;fill-rule:evenodd;stroke:#ff0000;stroke-width:1pt;stroke-opacity:1"
         d="m -2.5,-1 c 0,2.76 -2.24,5 -5,5 -2.76,0 -5,-2.24 -5,-5 0,-2.76 2.24,-5 5,-5 2.76,0 5,2.24 5,5 z"
         id="path5780" />
    </marker>
    <marker
       style="overflow:visible"
       id="marker5640"
       refX="0"
       refY="0"
       orient="auto"
       inkscape:stockid="DotS"
       inkscape:isstock="true"
       inkscape:collect="always">
      <path
         transform="matrix(0.2,0,0,0.2,1.48,0.2)"
         style="fill:#ff0000;fill-opacity:1;fill-rule:evenodd;stroke:#ff0000;stroke-width:1pt;stroke-opacity:1"
         d="m -2.5,-1 c 0,2.76 -2.24,5 -5,5 -2.76,0 -5,-2.24 -5,-5 0,-2.76 2.24,-5 5,-5 2.76,0 5,2.24 5,5 z"
         id="path5638" />
    </marker>
    <marker
       style="overflow:visible"
       id="marker5506"
       refX="0"
       refY="0"
       orient="auto"
       inkscape:stockid="DotS"
       inkscape:isstock="true"
       inkscape:collect="always">
      <path
         transform="matrix(0.2,0,0,0.2,1.48,0.2)"
         style="fill:#ff0000;fill-opacity:1;fill-rule:evenodd;stroke:#ff0000;stroke-width:1pt;stroke-opacity:1"
         d="m -2.5,-1 c 0,2.76 -2.24,5 -5,5 -2.76,0 -5,-2.24 -5,-5 0,-2.76 2.24,-5 5,-5 2.76,0 5,2.24 5,5 z"
         id="path5504" />
    </marker>
    <marker
       style="overflow:visible"
       id="marker5368"
       refX="0"
       refY="0"
       orient="auto"
       inkscape:stockid="DotS"
       inkscape:isstock="true"
       inkscape:collect="always">
      <path
         transform="matrix(0.2,0,0,0.2,1.48,0.2)"
         style="fill:#ff0000;fill-opacity:1;fill-rule:evenodd;stroke:#ff0000;stroke-width:1pt;stroke-opacity:1"
         d="m -2.5,-1 c 0,2.76 -2.24,5 -5,5 -2.76,0 -5,-2.24 -5,-5 0,-2.76 2.24,-5 5,-5 2.76,0 5,2.24 5,5 z"
         id="path5366" />
    </marker>
    <marker
       style="overflow:visible"
       id="marker5250"
       refX="0"
       refY="0"
       orient="auto"
       inkscape:stockid="DotS"
       inkscape:isstock="true"
       inkscape:collect="always">
      <path
         transform="matrix(0.2,0,0,0.2,1.48,0.2)"
         style="fill:#ff0000;fill-opacity:1;fill-rule:evenodd;stroke:#ff0000;stroke-width:1pt;stroke-opacity:1"
         d="m -2.5,-1 c 0,2.76 -2.24,5 -5,5 -2.76,0 -5,-2.24 -5,-5 0,-2.76 2.24,-5 5,-5 2.76,0 5,2.24 5,5 z"
         id="path5248" />
    </marker>
    <marker
       style="overflow:visible"
       id="marker5140"
       refX="0"
       refY="0"
       orient="auto"
       inkscape:stockid="DotS"
       inkscape:isstock="true"
       inkscape:collect="always">
      <path
         transform="matrix(0.2,0,0,0.2,1.48,0.2)"
         style="fill:#ff0000;fill-opacity:1;fill-rule:evenodd;stroke:#ff0000;stroke-width:1pt;stroke-opacity:1"
         d="m -2.5,-1 c 0,2.76 -2.24,5 -5,5 -2.76,0 -5,-2.24 -5,-5 0,-2.76 2.24,-5 5,-5 2.76,0 5,2.24 5,5 z"
         id="path5138" />
    </marker>
    <marker
       style="overflow:visible"
       id="marker5032"
       refX="0"
       refY="0"
       orient="auto"
       inkscape:stockid="DotS"
       inkscape:isstock="true"
       inkscape:collect="always">
      <path
         transform="matrix(0.2,0,0,0.2,1.48,0.2)"
         style="fill:#ff0000;fill-opacity:1;fill-rule:evenodd;stroke:#ff0000;stroke-width:1pt;stroke-opacity:1"
         d="m -2.5,-1 c 0,2.76 -2.24,5 -5,5 -2.76,0 -5,-2.24 -5,-5 0,-2.76 2.24,-5 5,-5 2.76,0 5,2.24 5,5 z"
         id="path5030" />
    </marker>
    <marker
       style="overflow:visible"
       id="marker4928"
       refX="0"
       refY="0"
       orient="auto"
       inkscape:stockid="DotS"
       inkscape:isstock="true">
      <path
         transform="matrix(0.2,0,0,0.2,1.48,0.2)"
         style="fill:#ff0000;fill-opacity:1;fill-rule:evenodd;stroke:#ff0000;stroke-width:1pt;stroke-opacity:1"
         d="m -2.5,-1 c 0,2.76 -2.24,5 -5,5 -2.76,0 -5,-2.24 -5,-5 0,-2.76 2.24,-5 5,-5 2.76,0 5,2.24 5,5 z"
         id="path4926" />
    </marker>
    <marker
       style="overflow:visible"
       id="marker4848"
       refX="0"
       refY="0"
       orient="auto"
       inkscape:stockid="DotS"
       inkscape:isstock="true"
       inkscape:collect="always">
      <path
         transform="matrix(0.2,0,0,0.2,1.48,0.2)"
         style="fill:#ff0000;fill-opacity:1;fill-rule:evenodd;stroke:#ff0000;stroke-width:1pt;stroke-opacity:1"
         d="m -2.5,-1 c 0,2.76 -2.24,5 -5,5 -2.76,0 -5,-2.24 -5,-5 0,-2.76 2.24,-5 5,-5 2.76,0 5,2.24 5,5 z"
         id="path4846" />
    </marker>
    <marker
       style="overflow:visible"
       id="marker4770"
       refX="0"
       refY="0"
       orient="auto"
       inkscape:stockid="DotS"
       inkscape:isstock="true"
       inkscape:collect="always">
      <path
         transform="matrix(0.2,0,0,0.2,1.48,0.2)"
         style="fill:#ff0000;fill-opacity:1;fill-rule:evenodd;stroke:#ff0000;stroke-width:1pt;stroke-opacity:1"
         d="m -2.5,-1 c 0,2.76 -2.24,5 -5,5 -2.76,0 -5,-2.24 -5,-5 0,-2.76 2.24,-5 5,-5 2.76,0 5,2.24 5,5 z"
         id="path4768" />
    </marker>
    <marker
       style="overflow:visible"
       id="DotS"
       refX="0"
       refY="0"
       orient="auto"
       inkscape:stockid="DotS"
       inkscape:isstock="true"
       inkscape:collect="always">
      <path
         transform="matrix(0.2,0,0,0.2,1.48,0.2)"
         style="fill:#ff0000;fill-opacity:1;fill-rule:evenodd;stroke:#ff0000;stroke-width:1pt;stroke-opacity:1"
         d="m -2.5,-1 c 0,2.76 -2.24,5 -5,5 -2.76,0 -5,-2.24 -5,-5 0,-2.76 2.24,-5 5,-5 2.76,0 5,2.24 5,5 z"
         id="path4470" />
    </marker>
    <inkscape:path-effect
       is_visible="true"
       id="path-effect4296"
       effect="spiro"
       lpeversion="0" />
    <marker
       refX="0"
       inkscape:stockid="Arrow2Mend"
       refY="0"
       orient="auto"
       id="Arrow2Mend"
       style="overflow:visible">
      <path
         id="path18502"
         d="M 8.7185878,4.0337352 -2.2072895,0.01601326 8.7185884,-4.0017078 c -1.7454984,2.3720609 -1.7354408,5.6174519 -6e-7,8.035443 z"
         transform="scale(-0.6)"
         style="font-size:12px;fill-rule:evenodd;stroke-width:0.625;stroke-linejoin:round" />
    </marker>
    <marker
       refX="0"
       inkscape:stockid="Arrow1Mstart"
       refY="0"
       orient="auto"
       id="Arrow1Mstart"
       style="overflow:visible">
      <path
         inkscape:connector-curvature="0"
         id="path20996"
         d="M 0,0 5,-5 -12.5,0 5,5 Z"
         transform="matrix(0.4,0,0,0.4,4,0)"
         style="fill-rule:evenodd;stroke:#000000;stroke-width:1pt;marker-start:none" />
    </marker>
    <marker
       refX="0"
       inkscape:stockid="Arrow1Mend"
       refY="0"
       orient="auto"
       id="Arrow1Mend-21"
       style="overflow:visible">
      <path
         inkscape:connector-curvature="0"
         id="path18484-47"
         d="M 0,0 5,-5 -12.5,0 5,5 Z"
         transform="matrix(-0.4,0,0,-0.4,-4,0)"
         style="fill-rule:evenodd;stroke:#000000;stroke-width:1pt;marker-start:none" />
    </marker>
  </defs>
  <metadata
     id="metadata3475">
    <rdf:RDF>
      <cc:Work
         rdf:about="">
        <dc:format>image/svg+xml</dc:format>
        <dc:type
           rdf:resource="http://purl.org/dc/dcmitype/StillImage" />
        <dc:title />
      </cc:Work>
    </rdf:RDF>
  </metadata>
  <g
     transform="translate(-79.83499,-324.65454)"
     inkscape:groupmode="layer"
     id="layer1"
     style="display:inline"
     inkscape:label="Circuit" />
  <g
     inkscape:groupmode="layer"
     id="layer2"
     style="display:inline;opacity:1"
     inkscape:label="Labels"
     transform="translate(100.00001,5.0000005)">
    <path
       style="display:inline;fill:#0000ff;fill-opacity:0.2;stroke:#0000ff;stroke-width:0.5;stroke-linecap:butt;stroke-linejoin:miter;stroke-miterlimit:4;stroke-dasharray:none;stroke-dashoffset:0;stroke-opacity:0.2;marker-end:none"
       d="M 105,15 V 230"
       id="path1523"
       inkscape:connector-curvature="0"
       sodipodi:nodetypes="cc" />
    <path
       style="display:inline;fill:#0000ff;fill-opacity:0.2;stroke:#0000ff;stroke-width:0.5;stroke-linecap:butt;stroke-linejoin:miter;stroke-miterlimit:4;stroke-dasharray:none;stroke-dashoffset:0;stroke-opacity:0.2;marker-end:none"
       d="M 225,15 V 230"
       id="path1521"
       inkscape:connector-curvature="0"
       sodipodi:nodetypes="cc" />
    <path
       style="display:inline;fill:#0000ff;fill-opacity:0.2;stroke:#0000ff;stroke-width:0.5;stroke-linecap:butt;stroke-linejoin:miter;stroke-miterlimit:4;stroke-dasharray:none;stroke-dashoffset:0;stroke-opacity:0.2;marker-end:none"
       d="M 185,15 V 230"
       id="path1519"
       inkscape:connector-curvature="0"
       sodipodi:nodetypes="cc" />
    <path
       style="display:inline;fill:none;stroke:#7f7f7f;stroke-width:0.8;stroke-linecap:butt;stroke-linejoin:miter;stroke-miterlimit:4;stroke-dasharray:none;stroke-opacity:1;marker-end:none"
       d="m 225,100 -40,40 -40,-40 -40,40 -40,-40"
       id="path5499-5-8-0-3-5-7-6"
       inkscape:connector-curvature="0"
       sodipodi:nodetypes="ccccc" />
    <path
       sodipodi:nodetypes="ccccc"
       inkscape:connector-curvature="0"
       id="path3613"
       d="M 225,20 185,60 145,20 105,60 65,20"
       style="display:inline;fill:none;stroke:#7f7f7f;stroke-width:0.8;stroke-linecap:butt;stroke-linejoin:miter;stroke-miterlimit:4;stroke-dasharray:none;stroke-opacity:1;marker-end:none" />
    <g
       inkscape:label="Circuit"
       style="display:inline"
       id="layer1-5"
       transform="translate(-135.83499,-325.1546)" />
    <g
       inkscape:label="Circuit"
       style="display:inline"
       id="layer1-9"
       transform="translate(68.16501,-22.15456)" />
    <g
       transform="translate(74.16501,-375.1546)"
       id="layer1-5-8"
       style="display:inline"
       inkscape:label="Circuit" />
    <g
       transform="translate(278.16501,-72.15456)"
       id="layer1-9-9"
       style="display:inline"
       inkscape:label="Circuit" />
    <path
       sodipodi:nodetypes="cc"
       inkscape:connector-curvature="0"
       id="path5499-5-8-0-3-5-7-4-1"
       d="M 65,62.499996 V 0"
       style="display:inline;fill:none;stroke:#000000;stroke-width:0.5;stroke-linecap:butt;stroke-linejoin:miter;stroke-miterlimit:4;stroke-dasharray:none;stroke-opacity:1;marker-end:url(#Arrow2Mend)" />
    <path
       sodipodi:nodetypes="cc"
       inkscape:connector-curvature="0"
       id="path5499-3-3-76-8-6-7-13"
       d="M 62.5,59.999996 H 240"
       style="display:inline;fill:#2b2200;stroke:#000000;stroke-width:0.5;stroke-linecap:butt;stroke-linejoin:miter;stroke-miterlimit:4;stroke-dasharray:none;stroke-opacity:1;marker-end:url(#Arrow2Mend)" />
    <path
       sodipodi:nodetypes="cc"
       inkscape:connector-curvature="0"
       id="path5499-5-8-0-3-5-7-4-4-8"
       d="M 65,142.5 V 79.999996"
       style="display:inline;fill:none;stroke:#000000;stroke-width:0.5;stroke-linecap:butt;stroke-linejoin:miter;stroke-miterlimit:4;stroke-dasharray:none;stroke-opacity:1;marker-end:url(#Arrow2Mend)" />
    <path
       sodipodi:nodetypes="cc"
       inkscape:connector-curvature="0"
       id="path5499-3-3-76-8-6-7-1-7"
       d="M 62.5,140 H 240"
       style="display:inline;fill:#2b2200;stroke:#000000;stroke-width:0.5;stroke-linecap:butt;stroke-linejoin:miter;stroke-miterlimit:4;stroke-dasharray:none;stroke-opacity:1;marker-end:url(#Arrow2Mend)" />
    <path
       style="display:inline;fill:#0000ff;fill-opacity:0.2;stroke:#0000ff;stroke-width:0.5;stroke-linecap:butt;stroke-linejoin:miter;stroke-miterlimit:4;stroke-dasharray:none;stroke-dashoffset:0;stroke-opacity:0.2;marker-end:none"
       d="M 145,15 V 230"
       id="path5499-3-3-76-3-0-7-4-8-0"
       inkscape:connector-curvature="0"
       sodipodi:nodetypes="cc" />
    <path
       sodipodi:nodetypes="cccccccccc"
       inkscape:connector-curvature="0"
       id="path5499-3-3-76-8-6-7-31-2-9"
       d="m 65,139.99999 h 5 V 100 h 65 v 39.99999 l 25,-1e-5 V 100 l 45,1e-5 V 140 l 20,-1e-5"
       style="display:inline;fill:none;stroke:#0000ff;stroke-width:1.5;stroke-linecap:butt;stroke-linejoin:miter;stroke-miterlimit:4;stroke-dasharray:none;stroke-opacity:1;marker-end:none" />
    <path
       sodipodi:nodetypes="cccccccccc"
       inkscape:connector-curvature="0"
       id="path5499-3-3-76-8-6-7-31-2-7-3"
       d="m 65,60 h 35 V 20 h 15 v 40 h 55 V 20 h 35 v 40 h 20"
       style="display:inline;fill:none;stroke:#0000ff;stroke-width:1.5;stroke-linecap:butt;stroke-linejoin:miter;stroke-miterlimit:4;stroke-dasharray:none;stroke-opacity:1;marker-end:none" />
    <path
       style="display:inline;fill:none;stroke:#000000;stroke-width:0.5;stroke-linecap:butt;stroke-linejoin:miter;stroke-miterlimit:4;stroke-dasharray:none;stroke-opacity:1;marker-end:none"
       d="m 62.5,20 h 5"
       id="path3076-4"
       inkscape:connector-curvature="0"
       sodipodi:nodetypes="cc" />
    <path
       sodipodi:nodetypes="cc"
       inkscape:connector-curvature="0"
       id="path4054-0"
       d="m 62.5,100 h 5"
       style="display:inline;fill:none;stroke:#000000;stroke-width:0.5;stroke-linecap:butt;stroke-linejoin:miter;stroke-miterlimit:4;stroke-dasharray:none;stroke-opacity:1;marker-end:none" />
    <g
       inkscape:label="Circuit"
       style="display:inline"
       id="layer1-5-1"
       transform="translate(324.16501,-380.1546)" />
    <g
       inkscape:label="Circuit"
       style="display:inline"
       id="layer1-9-0"
       transform="translate(528.16501,-77.15456)" />
    <path
       style="display:inline;fill:none;stroke:#7f7f7f;stroke-width:0.8;stroke-linecap:butt;stroke-linejoin:miter;stroke-miterlimit:4;stroke-dasharray:none;stroke-opacity:1;marker-end:none"
       d="m 225,180 -40,40 -40,-40 -40,40 -40,-40"
       id="path3365"
       inkscape:connector-curvature="0"
       sodipodi:nodetypes="ccccc" />
    <path
       style="display:inline;fill:none;stroke:#000000;stroke-width:0.5;stroke-linecap:butt;stroke-linejoin:miter;stroke-miterlimit:4;stroke-dasharray:none;stroke-opacity:1;marker-end:url(#Arrow2Mend)"
       d="M 65,227.5 V 160"
       id="path3369"
       inkscape:connector-curvature="0"
       sodipodi:nodetypes="cc" />
    <path
       style="display:inline;fill:#2b2200;stroke:#000000;stroke-width:0.5;stroke-linecap:butt;stroke-linejoin:miter;stroke-miterlimit:4;stroke-dasharray:none;stroke-opacity:1;marker-end:url(#Arrow2Mend)"
       d="M 62.5,220 H 240"
       id="path3371"
       inkscape:connector-curvature="0"
       sodipodi:nodetypes="cc" />
    <path
       style="display:inline;fill:none;stroke:#000000;stroke-width:0.5;stroke-linecap:butt;stroke-linejoin:miter;stroke-miterlimit:4;stroke-dasharray:none;stroke-opacity:1;marker-end:none"
       d="m 62.5,180 h 5"
       id="path3387"
       inkscape:connector-curvature="0"
       sodipodi:nodetypes="cc" />
    <path
       inkscape:connector-curvature="0"
       style="display:inline;fill:none;stroke:#000000;stroke-width:0.6;stroke-linecap:round;stroke-linejoin:miter;stroke-miterlimit:4;stroke-dasharray:none;stroke-opacity:1;marker-start:url(#Arrow1Mstart);marker-mid:none;marker-end:url(#Arrow1Mend-21)"
       d="m 145,225 h 40"
       sodipodi:nodetypes="cc"
       id="path3533-0-9-9-2-8-2-4-6-6-7-7-5-8-5"
       inkscape:export-filename="C:\Documents and Settings\mhinkkan\Desktop\testi.png"
       inkscape:export-xdpi="300"
       inkscape:export-ydpi="300" />
    <path
       style="display:inline;fill:none;stroke:#0000ff;stroke-width:1.5;stroke-linecap:butt;stroke-linejoin:miter;stroke-miterlimit:4;stroke-dasharray:none;stroke-opacity:1;marker-end:none"
       d="m 65,220 h 20 v -40 h 35 v 40 h 50 v -40 h 35 v 40 h 20"
       id="path4288"
       inkscape:connector-curvature="0"
       sodipodi:nodetypes="cccccccccc" />
    <path
       inkscape:connector-curvature="0"
       inkscape:original-d="m 79.21169,31.719676 c 1.45994,-1.68201 1.98406,-2.68182 1.84558,-3.62961 -0.6559,-4.48936 -0.82271,-4.53031 5.73612,-12.90233 0.94324,-1.20399 3.03427,-4.17418 4.18892,-5.18774 2.52985,-2.22066 2.77147,0.45293 3.63063,-2.48855"
       inkscape:path-effect="#path-effect4296"
       id="path4294"
       d="m 79.21169,31.719676 c 0.66421,-1.184101 1.280086,-2.395314 1.84558,-3.62961 1.962185,-4.282837 3.3246,-8.855426 5.73612,-12.90233 1.142262,-1.916893 2.519891,-3.706664 4.18892,-5.18774 1.100284,-0.9763785 2.323097,-1.8145341 3.63063,-2.48855"
       style="fill:none;stroke:#000000;stroke-width:0.4;stroke-linecap:butt;stroke-linejoin:miter;stroke-miterlimit:4;stroke-dasharray:none;stroke-opacity:1" />
    <path
       style="display:inline;fill:none;stroke:#ff0000;stroke-width:1.5;stroke-linecap:butt;stroke-linejoin:miter;stroke-miterlimit:4;stroke-dasharray:none;stroke-dashoffset:0;stroke-opacity:1;marker-start:url(#marker4848);marker-end:none"
       d="m 145,45 h 40"
       id="path4844"
       inkscape:connector-curvature="0"
       sodipodi:nodetypes="cc" />
    <path
       style="display:inline;fill:none;stroke:#ff0000;stroke-width:1.5;stroke-linecap:butt;stroke-linejoin:miter;stroke-miterlimit:4;stroke-dasharray:none;stroke-dashoffset:0;stroke-opacity:1;marker-start:url(#marker4928);marker-end:none"
       d="m 185,40 h 40"
       id="path4924"
       inkscape:connector-curvature="0"
       sodipodi:nodetypes="cc" />
    <path
       style="display:inline;fill:none;stroke:#ff0000;stroke-width:1.5;stroke-linecap:butt;stroke-linejoin:miter;stroke-miterlimit:4;stroke-dasharray:none;stroke-dashoffset:0;stroke-opacity:1;marker-start:url(#marker5032);marker-end:none"
       d="m 65,105 h 40"
       id="path5028"
       inkscape:connector-curvature="0"
       sodipodi:nodetypes="cc" />
    <path
       style="display:inline;fill:none;stroke:#ff0000;stroke-width:1.5;stroke-linecap:butt;stroke-linejoin:miter;stroke-miterlimit:4;stroke-dasharray:none;stroke-dashoffset:0;stroke-opacity:1;marker-start:url(#marker5140);marker-end:none"
       d="m 105,110 h 40"
       id="path5136"
       inkscape:connector-curvature="0"
       sodipodi:nodetypes="cc" />
    <path
       style="display:inline;fill:none;stroke:#ff0000;stroke-width:1.5;stroke-linecap:butt;stroke-linejoin:miter;stroke-miterlimit:4;stroke-dasharray:none;stroke-dashoffset:0;stroke-opacity:1;marker-start:url(#marker5506);marker-end:none"
       d="m 145,115 h 40"
       id="path5502"
       inkscape:connector-curvature="0"
       sodipodi:nodetypes="cc" />
    <path
       style="display:inline;fill:none;stroke:#ff0000;stroke-width:1.5;stroke-linecap:butt;stroke-linejoin:miter;stroke-miterlimit:4;stroke-dasharray:none;stroke-dashoffset:0;stroke-opacity:1;marker-start:url(#marker5640);marker-end:none"
       d="m 145,205 h 40"
       id="path5636"
       inkscape:connector-curvature="0"
       sodipodi:nodetypes="cc" />
    <path
       style="display:inline;fill:none;stroke:#ff0000;stroke-width:1.5;stroke-linecap:butt;stroke-linejoin:miter;stroke-miterlimit:4;stroke-dasharray:none;stroke-dashoffset:0;stroke-opacity:1;marker-start:url(#marker5782);marker-end:none"
       d="m 185,120 h 40"
       id="path5778"
       inkscape:connector-curvature="0"
       sodipodi:nodetypes="cc" />
    <path
       inkscape:connector-curvature="0"
       style="display:inline;fill:none;stroke:#000000;stroke-width:0.6;stroke-linecap:round;stroke-linejoin:miter;stroke-miterlimit:4;stroke-dasharray:none;stroke-opacity:1;marker-start:url(#Arrow1Mstart);marker-mid:none;marker-end:url(#Arrow1Mend-21)"
       d="m 185,225 h 40"
       sodipodi:nodetypes="cc"
       id="path6203"
       inkscape:export-filename="C:\Documents and Settings\mhinkkan\Desktop\testi.png"
       inkscape:export-xdpi="300"
       inkscape:export-ydpi="300" />
    <path
       inkscape:connector-curvature="0"
       style="display:inline;fill:none;stroke:#000000;stroke-width:0.6;stroke-linecap:round;stroke-linejoin:miter;stroke-miterlimit:4;stroke-dasharray:none;stroke-opacity:1;marker-start:url(#Arrow1Mstart);marker-mid:none;marker-end:url(#Arrow1Mend-21)"
       d="m 65,225 h 80"
       sodipodi:nodetypes="cc"
       id="path6619"
       inkscape:export-filename="C:\Documents and Settings\mhinkkan\Desktop\testi.png"
       inkscape:export-xdpi="300"
       inkscape:export-ydpi="300" />
    <path
       style="display:inline;fill:none;stroke:#ff0000;stroke-width:1.5;stroke-linecap:butt;stroke-linejoin:miter;stroke-miterlimit:4;stroke-dasharray:none;stroke-dashoffset:0;stroke-opacity:1;marker-start:url(#DotS);marker-end:none"
       d="m 65,55 h 40"
       id="path6723-5"
       inkscape:connector-curvature="0"
       sodipodi:nodetypes="cc" />
    <path
       style="display:inline;fill:none;stroke:#ff0000;stroke-width:1.5;stroke-linecap:butt;stroke-linejoin:miter;stroke-miterlimit:4;stroke-dasharray:none;stroke-dashoffset:0;stroke-opacity:1;marker-start:url(#marker4770);marker-end:none"
       d="m 105,50 h 40"
       id="path4766"
       inkscape:connector-curvature="0"
       sodipodi:nodetypes="cc" />
    <path
       style="display:inline;fill:none;stroke:#ff0000;stroke-width:1.5;stroke-linecap:butt;stroke-linejoin:miter;stroke-miterlimit:4;stroke-dasharray:none;stroke-dashoffset:0;stroke-opacity:1;marker-start:url(#marker5250);marker-end:none"
       d="m 65,200 h 40"
       id="path5246"
       inkscape:connector-curvature="0"
       sodipodi:nodetypes="cc" />
    <path
       style="display:inline;fill:none;stroke:#ff0000;stroke-width:1.5;stroke-linecap:butt;stroke-linejoin:miter;stroke-miterlimit:4;stroke-dasharray:none;stroke-dashoffset:0;stroke-opacity:1;marker-start:url(#marker5368);marker-end:none"
       d="m 105,205 h 40"
       id="path5364"
       inkscape:connector-curvature="0"
       sodipodi:nodetypes="cc" />
    <path
       style="display:inline;fill:none;stroke:#ff0000;stroke-width:1.5;stroke-linecap:butt;stroke-linejoin:miter;stroke-miterlimit:4;stroke-dasharray:none;stroke-dashoffset:0;stroke-opacity:1;marker-start:url(#marker5956);marker-end:none"
       d="m 185,200 h 40"
       id="path5952"
       inkscape:connector-curvature="0"
       sodipodi:nodetypes="cc" />
    <text
       xml:space="preserve"
       style="font-size:10.6667px;font-family:'Liberation Sans';-inkscape-font-specification:'Liberation Sans';text-align:start;text-anchor:start;fill:#000000;fill-opacity:1;stroke-width:1.333;stroke-linejoin:round;stroke-dashoffset:3.15"
       x="97.180107"
       y="8.7213697"
       id="text2943"><tspan
         sodipodi:role="line"
         x="97.180107"
         y="8.7213697"
         id="tspan2941"
         style="font-style:normal;font-variant:normal;font-weight:normal;font-stretch:normal;font-size:10.6667px;font-family:'Liberation Sans';-inkscape-font-specification:'Liberation Sans';text-align:start;text-anchor:start">carrier</tspan></text>
    <g
       id="g85"
       transform="matrix(1.33333 0 0 1.33333 229.878 34.9783)"
       ns3:version="1.12.0"
       ns3:texconverter="pdflatex"
       ns3:pdfconverter="inkscape"
       ns3:text="$\\color{red}\\dA$"
       ns3:preamble="/home/mhinkkan/GitHub/motulator/docs/source/inkscape_textext_preamble.sty"
       ns3:scale="1.0"
       ns3:alignment="middle left"
       ns3:inkscapeversion="1.4"
       ns3:jacobian_sqrt="1.33333">
      <defs
         id="defs9184" />
      <g
         fill="#ff0000"
         fill-opacity="1"
         id="g2124"
         transform="translate(-155.055, -129.636)">
        <g
           transform="translate(154.914, 135.761)"
           id="g3061">
          <path
             d="M 4.265625,-0.90625 4.15625,-1 c -0.5,0.5625 -0.59375,0.640625 -0.734375,0.640625 C 3.328125,-0.359375 3.25,-0.4375 3.25,-0.53125 3.25,-0.6875 3.53125,-1.734375 3.84375,-2.75 L 4.734375,-6.078125 4.6875,-6.125 c -0.484375,0.09375 -0.796875,0.15625 -1.375,0.203125 v 0.15625 C 3.796875,-5.75 3.859375,-5.71875 3.859375,-5.53125 c 0,0.125 0,0.15625 -0.125,0.625 L 3.34375,-3.4375 C 3.265625,-3.8125 3.109375,-3.953125 2.75,-3.953125 c -1.15625,0 -2.609375,1.6875 -2.609375,3.03125 0,0.640625 0.359375,1.015625 0.9375,1.015625 0.609375,0 1,-0.28125 1.609375,-1.171875 -0.09375,0.4375 -0.109375,0.578125 -0.109375,0.796875 0,0.234375 0.140625,0.390625 0.375,0.390625 0.375,0 0.84375,-0.359375 1.3125,-1.015625 z M 3.1875,-3.234375 c 0,1.359375 -0.921875,2.90625 -1.75,2.90625 -0.3125,0 -0.515625,-0.234375 -0.515625,-0.59375 0,-0.75 0.4375,-1.78125 1.03125,-2.421875 C 2.203125,-3.59375 2.5,-3.75 2.75,-3.75 c 0.015625,0 0.03125,0 0.046875,0 C 3.0625,-3.734375 3.1875,-3.5625 3.1875,-3.234375 Z m 0,0"
             id="path1806" />
        </g>
      </g>
      <g
         fill="#ff0000"
         fill-opacity="1"
         id="g7206"
         transform="translate(-155.055, -129.636)">
        <g
           transform="translate(159.612, 137.106)"
           id="g673">
          <path
             d="M 2.90625,-0.265625 V -0.4375 c -0.109375,0.09375 -0.1875,0.125 -0.28125,0.125 -0.15625,0 -0.203125,-0.09375 -0.203125,-0.375 v -1.28125 c 0,-0.34375 -0.03125,-0.53125 -0.125,-0.671875 C 2.15625,-2.890625 1.875,-3.03125 1.46875,-3.03125 c -0.328125,0 -0.640625,0.09375 -0.828125,0.25 C 0.46875,-2.640625 0.375,-2.453125 0.375,-2.296875 0.375,-2.140625 0.5,-2 0.65625,-2 0.8125,-2 0.953125,-2.140625 0.953125,-2.28125 0.953125,-2.3125 0.9375,-2.34375 0.9375,-2.390625 0.921875,-2.453125 0.921875,-2.5 0.921875,-2.546875 0.921875,-2.71875 1.125,-2.875 1.390625,-2.875 c 0.3125,0 0.5,0.203125 0.5,0.546875 v 0.40625 c -1.015625,0.40625 -1.125,0.46875 -1.40625,0.71875 C 0.328125,-1.078125 0.25,-0.859375 0.25,-0.640625 0.25,-0.21875 0.53125,0.0625 0.9375,0.0625 1.21875,0.0625 1.5,-0.078125 1.890625,-0.421875 1.921875,-0.0625 2.046875,0.0625 2.3125,0.0625 c 0.234375,0 0.359375,-0.078125 0.59375,-0.328125 z M 1.890625,-0.8125 c 0,0.203125 -0.03125,0.265625 -0.171875,0.359375 C 1.5625,-0.375 1.375,-0.3125 1.234375,-0.3125 1,-0.3125 0.828125,-0.546875 0.828125,-0.828125 V -0.84375 c 0,-0.390625 0.265625,-0.625 1.0625,-0.921875 z m 0,0"
             id="path9525" />
        </g>
      </g>
    </g>
    <g
       id="g103"
       transform="matrix(1.33333 0 0 1.33333 229.878 115.34)"
       ns3:version="1.12.0"
       ns3:texconverter="pdflatex"
       ns3:pdfconverter="inkscape"
       ns3:text="$\\color{red}\\dB$"
       ns3:preamble="/home/mhinkkan/GitHub/motulator/docs/source/inkscape_textext_preamble.sty"
       ns3:scale="1.0"
       ns3:alignment="middle left"
       ns3:inkscapeversion="1.4"
       ns3:jacobian_sqrt="1.33333">
      <defs
         id="defs2776" />
      <g
         fill="#ff0000"
         fill-opacity="1"
         id="g1183"
         transform="translate(-155.055, -129.636)">
        <g
           transform="translate(154.914, 135.761)"
           id="g4553">
          <path
             d="M 4.265625,-0.90625 4.15625,-1 c -0.5,0.5625 -0.59375,0.640625 -0.734375,0.640625 C 3.328125,-0.359375 3.25,-0.4375 3.25,-0.53125 3.25,-0.6875 3.53125,-1.734375 3.84375,-2.75 L 4.734375,-6.078125 4.6875,-6.125 c -0.484375,0.09375 -0.796875,0.15625 -1.375,0.203125 v 0.15625 C 3.796875,-5.75 3.859375,-5.71875 3.859375,-5.53125 c 0,0.125 0,0.15625 -0.125,0.625 L 3.34375,-3.4375 C 3.265625,-3.8125 3.109375,-3.953125 2.75,-3.953125 c -1.15625,0 -2.609375,1.6875 -2.609375,3.03125 0,0.640625 0.359375,1.015625 0.9375,1.015625 0.609375,0 1,-0.28125 1.609375,-1.171875 -0.09375,0.4375 -0.109375,0.578125 -0.109375,0.796875 0,0.234375 0.140625,0.390625 0.375,0.390625 0.375,0 0.84375,-0.359375 1.3125,-1.015625 z M 3.1875,-3.234375 c 0,1.359375 -0.921875,2.90625 -1.75,2.90625 -0.3125,0 -0.515625,-0.234375 -0.515625,-0.59375 0,-0.75 0.4375,-1.78125 1.03125,-2.421875 C 2.203125,-3.59375 2.5,-3.75 2.75,-3.75 c 0.015625,0 0.03125,0 0.046875,0 C 3.0625,-3.734375 3.1875,-3.5625 3.1875,-3.234375 Z m 0,0"
             id="path310" />
        </g>
      </g>
      <g
         fill="#ff0000"
         fill-opacity="1"
         id="g2478"
         transform="translate(-155.055, -129.636)">
        <g
           transform="translate(159.612, 137.125)"
           id="g7706">
          <path
             d="m 3.078125,-1.59375 c 0,-0.8125 -0.5,-1.4375 -1.15625,-1.4375 -0.40625,0 -0.78125,0.234375 -0.921875,0.5625 V -4.484375 L 0.96875,-4.5 c -0.265625,0.109375 -0.453125,0.15625 -0.765625,0.25 l -0.1875,0.046875 V -4.09375 C 0.0625,-4.109375 0.078125,-4.109375 0.125,-4.109375 c 0.265625,0 0.328125,0.0625 0.328125,0.34375 v 3.40625 c 0,0.203125 0.5625,0.421875 1.09375,0.421875 0.859375,0 1.53125,-0.71875 1.53125,-1.65625 z M 2.5,-1.296875 c 0,0.734375 -0.3125,1.15625 -0.859375,1.15625 C 1.296875,-0.140625 1,-0.296875 1,-0.453125 V -2.125 c 0,-0.25 0.3125,-0.484375 0.65625,-0.484375 0.515625,0 0.84375,0.515625 0.84375,1.3125 z m 0,0"
             id="path2600" />
        </g>
      </g>
    </g>
    <g
       id="g112"
       transform="matrix(1.33333 0 0 1.33333 229.878 195.353)"
       ns3:version="1.12.0"
       ns3:texconverter="pdflatex"
       ns3:pdfconverter="inkscape"
       ns3:text="$\\color{red}\\dC$"
       ns3:preamble="/home/mhinkkan/GitHub/motulator/docs/source/inkscape_textext_preamble.sty"
       ns3:scale="1.0"
       ns3:alignment="middle left"
       ns3:inkscapeversion="1.4"
       ns3:jacobian_sqrt="1.33333">
      <defs
         id="defs21" />
      <g
         fill="#ff0000"
         fill-opacity="1"
         id="g720"
         transform="translate(-155.055, -129.636)">
        <g
           transform="translate(154.914, 135.761)"
           id="g5701">
          <path
             d="M 4.265625,-0.90625 4.15625,-1 c -0.5,0.5625 -0.59375,0.640625 -0.734375,0.640625 C 3.328125,-0.359375 3.25,-0.4375 3.25,-0.53125 3.25,-0.6875 3.53125,-1.734375 3.84375,-2.75 L 4.734375,-6.078125 4.6875,-6.125 c -0.484375,0.09375 -0.796875,0.15625 -1.375,0.203125 v 0.15625 C 3.796875,-5.75 3.859375,-5.71875 3.859375,-5.53125 c 0,0.125 0,0.15625 -0.125,0.625 L 3.34375,-3.4375 C 3.265625,-3.8125 3.109375,-3.953125 2.75,-3.953125 c -1.15625,0 -2.609375,1.6875 -2.609375,3.03125 0,0.640625 0.359375,1.015625 0.9375,1.015625 0.609375,0 1,-0.28125 1.609375,-1.171875 -0.09375,0.4375 -0.109375,0.578125 -0.109375,0.796875 0,0.234375 0.140625,0.390625 0.375,0.390625 0.375,0 0.84375,-0.359375 1.3125,-1.015625 z M 3.1875,-3.234375 c 0,1.359375 -0.921875,2.90625 -1.75,2.90625 -0.3125,0 -0.515625,-0.234375 -0.515625,-0.59375 0,-0.75 0.4375,-1.78125 1.03125,-2.421875 C 2.203125,-3.59375 2.5,-3.75 2.75,-3.75 c 0.015625,0 0.03125,0 0.046875,0 C 3.0625,-3.734375 3.1875,-3.5625 3.1875,-3.234375 Z m 0,0"
             id="path2681" />
        </g>
      </g>
      <g
         fill="#ff0000"
         fill-opacity="1"
         id="g7525"
         transform="translate(-155.055, -129.636)">
        <g
           transform="translate(159.612, 137.106)"
           id="g1147">
          <path
             d="M 2.703125,-0.96875 2.625,-1.03125 c -0.328125,0.46875 -0.5625,0.625 -0.9375,0.625 -0.609375,0 -1.015625,-0.53125 -1.015625,-1.28125 0,-0.6875 0.359375,-1.140625 0.890625,-1.140625 0.234375,0 0.328125,0.0625 0.390625,0.3125 L 2,-2.375 c 0.046875,0.1875 0.171875,0.296875 0.3125,0.296875 0.171875,0 0.3125,-0.125 0.3125,-0.265625 0,-0.375 -0.46875,-0.6875 -1.015625,-0.6875 -0.3125,0 -0.625,0.125 -0.890625,0.34375 -0.359375,0.296875 -0.546875,0.75 -0.546875,1.296875 0,0.84375 0.515625,1.453125 1.25,1.453125 0.28125,0 0.53125,-0.09375 0.75,-0.265625 C 2.375,-0.375 2.5,-0.5625 2.703125,-0.96875 Z m 0,0"
             id="path5506" />
        </g>
      </g>
    </g>
    <g
       id="g122"
       transform="matrix(1.33333 0 0 1.33333 191.878 6.50927)"
       ns3:version="1.12.0"
       ns3:texconverter="pdflatex"
       ns3:pdfconverter="inkscape"
       ns3:text="$\\color{blue}\\qA$"
       ns3:preamble="/home/mhinkkan/GitHub/motulator/docs/source/inkscape_textext_preamble.sty"
       ns3:scale="1.0"
       ns3:alignment="bottom left"
       ns3:inkscapeversion="1.4"
       ns3:jacobian_sqrt="1.33333">
      <defs
         id="defs6950" />
      <g
         fill="#0000ff"
         fill-opacity="1"
         id="g1068"
         transform="translate(-155.043, -131.808)">
        <g
           transform="translate(154.824, 135.761)"
           id="g639">
          <path
             d="M 3.53125,1.84375 V 1.671875 H 3.375 c -0.328125,0 -0.515625,-0.078125 -0.53125,-0.21875 0,-0.03125 0.015625,-0.0625 0.03125,-0.140625 l 1.453125,-5.140625 h -0.65625 l -0.125,0.421875 C 3.40625,-3.8125 3.21875,-3.953125 2.859375,-3.953125 c -1.203125,0 -2.640625,1.640625 -2.640625,3.015625 0,0.625 0.359375,1.03125 0.921875,1.03125 0.640625,0 1.046875,-0.3125 1.84375,-1.46875 l -0.78125,2.59375 c -0.109375,0.359375 -0.25,0.4375 -0.84375,0.46875 v 0.15625 z m -0.125,-5.0625 c 0,0.75 -0.59375,1.984375 -1.203125,2.515625 C 1.96875,-0.5 1.71875,-0.375 1.5,-0.375 1.1875,-0.375 1,-0.640625 1,-1.0625 1,-1.734375 1.46875,-2.71875 2.046875,-3.3125 2.328125,-3.59375 2.625,-3.765625 2.875,-3.765625 c 0.296875,0 0.53125,0.25 0.53125,0.546875 z m 0,0"
             id="path2154" />
        </g>
      </g>
      <g
         fill="#0000ff"
         fill-opacity="1"
         id="g2352"
         transform="translate(-155.043, -131.808)">
        <g
           transform="translate(159.666, 137.106)"
           id="g8929">
          <path
             d="M 2.90625,-0.265625 V -0.4375 c -0.109375,0.09375 -0.1875,0.125 -0.28125,0.125 -0.15625,0 -0.203125,-0.09375 -0.203125,-0.375 v -1.28125 c 0,-0.34375 -0.03125,-0.53125 -0.125,-0.671875 C 2.15625,-2.890625 1.875,-3.03125 1.46875,-3.03125 c -0.328125,0 -0.640625,0.09375 -0.828125,0.25 C 0.46875,-2.640625 0.375,-2.453125 0.375,-2.296875 0.375,-2.140625 0.5,-2 0.65625,-2 0.8125,-2 0.953125,-2.140625 0.953125,-2.28125 0.953125,-2.3125 0.9375,-2.34375 0.9375,-2.390625 0.921875,-2.453125 0.921875,-2.5 0.921875,-2.546875 0.921875,-2.71875 1.125,-2.875 1.390625,-2.875 c 0.3125,0 0.5,0.203125 0.5,0.546875 v 0.40625 c -1.015625,0.40625 -1.125,0.46875 -1.40625,0.71875 C 0.328125,-1.078125 0.25,-0.859375 0.25,-0.640625 0.25,-0.21875 0.53125,0.0625 0.9375,0.0625 1.21875,0.0625 1.5,-0.078125 1.890625,-0.421875 1.921875,-0.0625 2.046875,0.0625 2.3125,0.0625 c 0.234375,0 0.359375,-0.078125 0.59375,-0.328125 z M 1.890625,-0.8125 c 0,0.203125 -0.03125,0.265625 -0.171875,0.359375 C 1.5625,-0.375 1.375,-0.3125 1.234375,-0.3125 1,-0.3125 0.828125,-0.546875 0.828125,-0.828125 V -0.84375 c 0,-0.390625 0.265625,-0.625 1.0625,-0.921875 z m 0,0"
             id="path9783" />
        </g>
      </g>
    </g>
    <g
       id="g132"
       transform="matrix(1.33333 0 0 1.33333 191.878 86.509)"
       ns3:version="1.12.0"
       ns3:texconverter="pdflatex"
       ns3:pdfconverter="inkscape"
       ns3:text="$\\color{blue}\\qB$"
       ns3:preamble="/home/mhinkkan/GitHub/motulator/docs/source/inkscape_textext_preamble.sty"
       ns3:scale="1.0"
       ns3:alignment="bottom left"
       ns3:inkscapeversion="1.4"
       ns3:jacobian_sqrt="1.33333">
      <defs
         id="defs2207" />
      <g
         fill="#0000ff"
         fill-opacity="1"
         id="g7719"
         transform="translate(-155.043, -131.808)">
        <g
           transform="translate(154.824, 135.761)"
           id="g9196">
          <path
             d="M 3.53125,1.84375 V 1.671875 H 3.375 c -0.328125,0 -0.515625,-0.078125 -0.53125,-0.21875 0,-0.03125 0.015625,-0.0625 0.03125,-0.140625 l 1.453125,-5.140625 h -0.65625 l -0.125,0.421875 C 3.40625,-3.8125 3.21875,-3.953125 2.859375,-3.953125 c -1.203125,0 -2.640625,1.640625 -2.640625,3.015625 0,0.625 0.359375,1.03125 0.921875,1.03125 0.640625,0 1.046875,-0.3125 1.84375,-1.46875 l -0.78125,2.59375 c -0.109375,0.359375 -0.25,0.4375 -0.84375,0.46875 v 0.15625 z m -0.125,-5.0625 c 0,0.75 -0.59375,1.984375 -1.203125,2.515625 C 1.96875,-0.5 1.71875,-0.375 1.5,-0.375 1.1875,-0.375 1,-0.640625 1,-1.0625 1,-1.734375 1.46875,-2.71875 2.046875,-3.3125 2.328125,-3.59375 2.625,-3.765625 2.875,-3.765625 c 0.296875,0 0.53125,0.25 0.53125,0.546875 z m 0,0"
             id="path9641" />
        </g>
      </g>
      <g
         fill="#0000ff"
         fill-opacity="1"
         id="g7139"
         transform="translate(-155.043, -131.808)">
        <g
           transform="translate(159.666, 137.125)"
           id="g6536">
          <path
             d="m 3.078125,-1.59375 c 0,-0.8125 -0.5,-1.4375 -1.15625,-1.4375 -0.40625,0 -0.78125,0.234375 -0.921875,0.5625 V -4.484375 L 0.96875,-4.5 c -0.265625,0.109375 -0.453125,0.15625 -0.765625,0.25 l -0.1875,0.046875 V -4.09375 C 0.0625,-4.109375 0.078125,-4.109375 0.125,-4.109375 c 0.265625,0 0.328125,0.0625 0.328125,0.34375 v 3.40625 c 0,0.203125 0.5625,0.421875 1.09375,0.421875 0.859375,0 1.53125,-0.71875 1.53125,-1.65625 z M 2.5,-1.296875 c 0,0.734375 -0.3125,1.15625 -0.859375,1.15625 C 1.296875,-0.140625 1,-0.296875 1,-0.453125 V -2.125 c 0,-0.25 0.3125,-0.484375 0.65625,-0.484375 0.515625,0 0.84375,0.515625 0.84375,1.3125 z m 0,0"
             id="path8475" />
        </g>
      </g>
    </g>
    <g
       id="g141"
       transform="matrix(1.33333 0 0 1.33333 191.878 166.509)"
       ns3:version="1.12.0"
       ns3:texconverter="pdflatex"
       ns3:pdfconverter="inkscape"
       ns3:text="$\\color{blue}\\qC$"
       ns3:preamble="/home/mhinkkan/GitHub/motulator/docs/source/inkscape_textext_preamble.sty"
       ns3:scale="1.0"
       ns3:alignment="bottom left"
       ns3:inkscapeversion="1.4"
       ns3:jacobian_sqrt="1.33333">
      <defs
         id="defs1058" />
      <g
         fill="#0000ff"
         fill-opacity="1"
         id="g1934"
         transform="translate(-155.043, -131.808)">
        <g
           transform="translate(154.824, 135.761)"
           id="g9950">
          <path
             d="M 3.53125,1.84375 V 1.671875 H 3.375 c -0.328125,0 -0.515625,-0.078125 -0.53125,-0.21875 0,-0.03125 0.015625,-0.0625 0.03125,-0.140625 l 1.453125,-5.140625 h -0.65625 l -0.125,0.421875 C 3.40625,-3.8125 3.21875,-3.953125 2.859375,-3.953125 c -1.203125,0 -2.640625,1.640625 -2.640625,3.015625 0,0.625 0.359375,1.03125 0.921875,1.03125 0.640625,0 1.046875,-0.3125 1.84375,-1.46875 l -0.78125,2.59375 c -0.109375,0.359375 -0.25,0.4375 -0.84375,0.46875 v 0.15625 z m -0.125,-5.0625 c 0,0.75 -0.59375,1.984375 -1.203125,2.515625 C 1.96875,-0.5 1.71875,-0.375 1.5,-0.375 1.1875,-0.375 1,-0.640625 1,-1.0625 1,-1.734375 1.46875,-2.71875 2.046875,-3.3125 2.328125,-3.59375 2.625,-3.765625 2.875,-3.765625 c 0.296875,0 0.53125,0.25 0.53125,0.546875 z m 0,0"
             id="path4370" />
        </g>
      </g>
      <g
         fill="#0000ff"
         fill-opacity="1"
         id="g18"
         transform="translate(-155.043, -131.808)">
        <g
           transform="translate(159.666, 137.106)"
           id="g3864">
          <path
             d="M 2.703125,-0.96875 2.625,-1.03125 c -0.328125,0.46875 -0.5625,0.625 -0.9375,0.625 -0.609375,0 -1.015625,-0.53125 -1.015625,-1.28125 0,-0.6875 0.359375,-1.140625 0.890625,-1.140625 0.234375,0 0.328125,0.0625 0.390625,0.3125 L 2,-2.375 c 0.046875,0.1875 0.171875,0.296875 0.3125,0.296875 0.171875,0 0.3125,-0.125 0.3125,-0.265625 0,-0.375 -0.46875,-0.6875 -1.015625,-0.6875 -0.3125,0 -0.625,0.125 -0.890625,0.34375 -0.359375,0.296875 -0.546875,0.75 -0.546875,1.296875 0,0.84375 0.515625,1.453125 1.25,1.453125 0.28125,0 0.53125,-0.09375 0.75,-0.265625 C 2.375,-0.375 2.5,-0.5625 2.703125,-0.96875 Z m 0,0"
             id="path3598" />
        </g>
      </g>
    </g>
    <g
       id="g150"
       transform="matrix(1.33333,0,0,1.33333,237.55786,65.3525)"
       ns3:version="1.12.0"
       ns3:texconverter="pdflatex"
       ns3:pdfconverter="inkscape"
       ns3:text="$t$"
       ns3:preamble="/home/mhinkkan/GitHub/motulator/docs/source/inkscape_textext_preamble.sty"
       ns3:scale="1.0"
       ns3:alignment="top right"
       ns3:inkscapeversion="1.2.2"
       ns3:jacobian_sqrt="1.33333">
      <defs
         id="defs4253" />
      <g
         fill="#000000"
         fill-opacity="1"
         id="g6902"
         transform="translate(-154.982,-130.87)">
        <g
           transform="translate(154.654,135.761)"
           id="g6836">
          <path
             d="M 2.65625,-3.84375 H 1.9375 l 0.25,-0.921875 c 0.015625,-0.015625 0.015625,-0.03125 0.015625,-0.046875 0,-0.0625 -0.03125,-0.078125 -0.078125,-0.078125 -0.046875,0 -0.078125,0 -0.140625,0.078125 -0.84375,1.109375 -1.46875,0.921875 -1.46875,1.203125 0,0.015625 0,0.03125 0,0.0625 H 1.1875 l -0.65625,2.46875 c -0.015625,0.109375 -0.203125,0.671875 -0.203125,0.84375 0,0.1875 0.1875,0.328125 0.4375,0.328125 0.40625,0 0.703125,-0.25 1.265625,-1.078125 l -0.109375,-0.0625 c -0.4375,0.5625 -0.578125,0.703125 -0.734375,0.703125 -0.078125,0 -0.125,-0.0625 -0.125,-0.171875 0,-0.015625 0,-0.015625 0,-0.046875 l 0.796875,-2.984375 h 0.75 z m 0,0"
             id="path1322" />
        </g>
      </g>
    </g>
    <g
       id="g156"
       transform="matrix(1.33333,0,0,1.33333,237.55786,145.3525)"
       ns3:version="1.12.0"
       ns3:texconverter="pdflatex"
       ns3:pdfconverter="inkscape"
       ns3:text="$t$"
       ns3:preamble="/home/mhinkkan/GitHub/motulator/docs/source/inkscape_textext_preamble.sty"
       ns3:scale="1.0"
       ns3:alignment="top right"
       ns3:inkscapeversion="1.2.2"
       ns3:jacobian_sqrt="1.33333">
      <defs
         id="defs152" />
      <g
         fill="#000000"
         fill-opacity="1"
         id="g155"
         transform="translate(-154.982,-130.87)">
        <g
           transform="translate(154.654,135.761)"
           id="g154">
          <path
             d="M 2.65625,-3.84375 H 1.9375 l 0.25,-0.921875 c 0.015625,-0.015625 0.015625,-0.03125 0.015625,-0.046875 0,-0.0625 -0.03125,-0.078125 -0.078125,-0.078125 -0.046875,0 -0.078125,0 -0.140625,0.078125 -0.84375,1.109375 -1.46875,0.921875 -1.46875,1.203125 0,0.015625 0,0.03125 0,0.0625 H 1.1875 l -0.65625,2.46875 c -0.015625,0.109375 -0.203125,0.671875 -0.203125,0.84375 0,0.1875 0.1875,0.328125 0.4375,0.328125 0.40625,0 0.703125,-0.25 1.265625,-1.078125 l -0.109375,-0.0625 c -0.4375,0.5625 -0.578125,0.703125 -0.734375,0.703125 -0.078125,0 -0.125,-0.0625 -0.125,-0.171875 0,-0.015625 0,-0.015625 0,-0.046875 l 0.796875,-2.984375 h 0.75 z m 0,0"
             id="path152" />
        </g>
      </g>
    </g>
    <g
       id="g162"
       transform="matrix(1.33333,0,0,1.33333,237.55786,225.3525)"
       ns3:version="1.12.0"
       ns3:texconverter="pdflatex"
       ns3:pdfconverter="inkscape"
       ns3:text="$t$"
       ns3:preamble="/home/mhinkkan/GitHub/motulator/docs/source/inkscape_textext_preamble.sty"
       ns3:scale="1.0"
       ns3:alignment="top right"
       ns3:inkscapeversion="1.2.2"
       ns3:jacobian_sqrt="1.33333">
      <defs
         id="defs158" />
      <g
         fill="#000000"
         fill-opacity="1"
         id="g160"
         transform="translate(-154.982,-130.87)">
        <g
           transform="translate(154.654,135.761)"
           id="g159">
          <path
             d="M 2.65625,-3.84375 H 1.9375 l 0.25,-0.921875 c 0.015625,-0.015625 0.015625,-0.03125 0.015625,-0.046875 0,-0.0625 -0.03125,-0.078125 -0.078125,-0.078125 -0.046875,0 -0.078125,0 -0.140625,0.078125 -0.84375,1.109375 -1.46875,0.921875 -1.46875,1.203125 0,0.015625 0,0.03125 0,0.0625 H 1.1875 l -0.65625,2.46875 c -0.015625,0.109375 -0.203125,0.671875 -0.203125,0.84375 0,0.1875 0.1875,0.328125 0.4375,0.328125 0.40625,0 0.703125,-0.25 1.265625,-1.078125 l -0.109375,-0.0625 c -0.4375,0.5625 -0.578125,0.703125 -0.734375,0.703125 -0.078125,0 -0.125,-0.0625 -0.125,-0.171875 0,-0.015625 0,-0.015625 0,-0.046875 l 0.796875,-2.984375 h 0.75 z m 0,0"
             id="path158" />
        </g>
      </g>
    </g>
    <g
       id="g167"
       transform="matrix(1.33333,0,0,1.33333,200.75593,230.39517)"
       ns3:version="1.12.0"
       ns3:texconverter="pdflatex"
       ns3:pdfconverter="inkscape"
       ns3:text="$\\Ts$"
       ns3:preamble="/home/mhinkkan/GitHub/motulator/docs/source/inkscape_textext_preamble.sty"
       ns3:scale="1.0"
       ns3:alignment="top center"
       ns3:inkscapeversion="1.2.2"
       ns3:jacobian_sqrt="1.33333">
      <defs
         id="defs2829" />
      <g
         fill="#000000"
         fill-opacity="1"
         id="g8548"
         transform="translate(-154.907,-129.902)">
        <g
           transform="translate(154.376,135.761)"
           id="g1389">
          <path
             d="M 5.671875,-5.859375 H 0.90625 l -0.375,1.390625 0.15625,0.03125 c 0.453125,-0.921875 0.734375,-1.109375 1.953125,-1.109375 0.0625,0 0.125,0 0.1875,0 L 1.53125,-0.8125 c -0.140625,0.484375 -0.359375,0.625 -0.953125,0.671875 V 0 H 3.1875 V -0.140625 L 2.84375,-0.171875 C 2.46875,-0.203125 2.375,-0.28125 2.375,-0.5625 c 0,-0.09375 0.015625,-0.1875 0.109375,-0.515625 l 1.25,-4.46875 H 4.21875 c 0.65625,0 0.9375,0.234375 0.9375,0.734375 0,0.109375 -0.015625,0.25 -0.03125,0.40625 l 0.15625,0.015625 z m 0,0"
             id="path7690" />
        </g>
      </g>
      <g
         fill="#000000"
         fill-opacity="1"
         id="g268"
         transform="translate(-154.907,-129.902)">
        <g
           transform="translate(158.976,137.106)"
           id="g7117">
          <path
             d="m 2.296875,-0.78125 c 0,-0.328125 -0.15625,-0.546875 -0.5625,-0.78125 L 1.03125,-1.984375 C 0.84375,-2.078125 0.75,-2.25 0.75,-2.421875 0.75,-2.703125 0.953125,-2.875 1.25,-2.875 c 0.375,0 0.578125,0.21875 0.71875,0.8125 h 0.109375 l -0.03125,-0.890625 h -0.09375 c -0.046875,0.046875 -0.0625,0.0625 -0.078125,0.0625 -0.046875,0 -0.109375,-0.015625 -0.1875,-0.046875 C 1.546875,-3 1.40625,-3.015625 1.25,-3.015625 c -0.546875,0 -0.921875,0.328125 -0.921875,0.8125 0,0.359375 0.21875,0.625 0.78125,0.9375 l 0.375,0.21875 c 0.234375,0.125 0.34375,0.296875 0.34375,0.5 0,0.28125 -0.203125,0.46875 -0.546875,0.46875 -0.453125,0 -0.6875,-0.25 -0.828125,-0.921875 H 0.34375 V 0.03125 H 0.421875 C 0.46875,-0.046875 0.5,-0.046875 0.578125,-0.046875 c 0.078125,0 0.140625,0 0.296875,0.046875 0.1875,0.046875 0.359375,0.0625 0.5,0.0625 0.5,0 0.921875,-0.375 0.921875,-0.84375 z m 0,0"
             id="path2284" />
        </g>
      </g>
    </g>
    <g
       id="g175"
       transform="matrix(1.33333,0,0,1.33333,160.75593,230.39517)"
       ns3:version="1.12.0"
       ns3:texconverter="pdflatex"
       ns3:pdfconverter="inkscape"
       ns3:text="$\\Ts$"
       ns3:preamble="/home/mhinkkan/GitHub/motulator/docs/source/inkscape_textext_preamble.sty"
       ns3:scale="1.0"
       ns3:alignment="top center"
       ns3:inkscapeversion="1.2.2"
       ns3:jacobian_sqrt="1.33333">
      <defs
         id="defs170" />
      <g
         fill="#000000"
         fill-opacity="1"
         id="g172"
         transform="translate(-154.907,-129.902)">
        <g
           transform="translate(154.376,135.761)"
           id="g171">
          <path
             d="M 5.671875,-5.859375 H 0.90625 l -0.375,1.390625 0.15625,0.03125 c 0.453125,-0.921875 0.734375,-1.109375 1.953125,-1.109375 0.0625,0 0.125,0 0.1875,0 L 1.53125,-0.8125 c -0.140625,0.484375 -0.359375,0.625 -0.953125,0.671875 V 0 H 3.1875 V -0.140625 L 2.84375,-0.171875 C 2.46875,-0.203125 2.375,-0.28125 2.375,-0.5625 c 0,-0.09375 0.015625,-0.1875 0.109375,-0.515625 l 1.25,-4.46875 H 4.21875 c 0.65625,0 0.9375,0.234375 0.9375,0.734375 0,0.109375 -0.015625,0.25 -0.03125,0.40625 l 0.15625,0.015625 z m 0,0"
             id="path170" />
        </g>
      </g>
      <g
         fill="#000000"
         fill-opacity="1"
         id="g174"
         transform="translate(-154.907,-129.902)">
        <g
           transform="translate(158.976,137.106)"
           id="g173">
          <path
             d="m 2.296875,-0.78125 c 0,-0.328125 -0.15625,-0.546875 -0.5625,-0.78125 L 1.03125,-1.984375 C 0.84375,-2.078125 0.75,-2.25 0.75,-2.421875 0.75,-2.703125 0.953125,-2.875 1.25,-2.875 c 0.375,0 0.578125,0.21875 0.71875,0.8125 h 0.109375 l -0.03125,-0.890625 h -0.09375 c -0.046875,0.046875 -0.0625,0.0625 -0.078125,0.0625 -0.046875,0 -0.109375,-0.015625 -0.1875,-0.046875 C 1.546875,-3 1.40625,-3.015625 1.25,-3.015625 c -0.546875,0 -0.921875,0.328125 -0.921875,0.8125 0,0.359375 0.21875,0.625 0.78125,0.9375 l 0.375,0.21875 c 0.234375,0.125 0.34375,0.296875 0.34375,0.5 0,0.28125 -0.203125,0.46875 -0.546875,0.46875 -0.453125,0 -0.6875,-0.25 -0.828125,-0.921875 H 0.34375 V 0.03125 H 0.421875 C 0.46875,-0.046875 0.5,-0.046875 0.578125,-0.046875 c 0.078125,0 0.140625,0 0.296875,0.046875 0.1875,0.046875 0.359375,0.0625 0.5,0.0625 0.5,0 0.921875,-0.375 0.921875,-0.84375 z m 0,0"
             id="path172" />
        </g>
      </g>
    </g>
    <g
       id="g184"
       transform="matrix(1.33333,0,0,1.33333,97.540185,230.3535)"
       ns3:version="1.12.0"
       ns3:texconverter="pdflatex"
       ns3:pdfconverter="inkscape"
       ns3:text="$\\Tsw$"
       ns3:preamble="/home/mhinkkan/GitHub/motulator/docs/source/inkscape_textext_preamble.sty"
       ns3:scale="1.0"
       ns3:alignment="top center"
       ns3:inkscapeversion="1.2.2"
       ns3:jacobian_sqrt="1.33333">
      <defs
         id="defs1572" />
      <g
         fill="#000000"
         fill-opacity="1"
         id="g9376"
         transform="translate(-154.907,-129.902)">
        <g
           transform="translate(154.376,135.761)"
           id="g9216">
          <path
             d="M 5.671875,-5.859375 H 0.90625 l -0.375,1.390625 0.15625,0.03125 c 0.453125,-0.921875 0.734375,-1.109375 1.953125,-1.109375 0.0625,0 0.125,0 0.1875,0 L 1.53125,-0.8125 c -0.140625,0.484375 -0.359375,0.625 -0.953125,0.671875 V 0 H 3.1875 V -0.140625 L 2.84375,-0.171875 C 2.46875,-0.203125 2.375,-0.28125 2.375,-0.5625 c 0,-0.09375 0.015625,-0.1875 0.109375,-0.515625 l 1.25,-4.46875 H 4.21875 c 0.65625,0 0.9375,0.234375 0.9375,0.734375 0,0.109375 -0.015625,0.25 -0.03125,0.40625 l 0.15625,0.015625 z m 0,0"
             id="path8341" />
        </g>
      </g>
      <g
         fill="#000000"
         fill-opacity="1"
         id="g183"
         transform="translate(-154.907,-129.902)">
        <g
           transform="translate(158.976,137.106)"
           id="g2274">
          <path
             d="m 2.296875,-0.78125 c 0,-0.328125 -0.15625,-0.546875 -0.5625,-0.78125 L 1.03125,-1.984375 C 0.84375,-2.078125 0.75,-2.25 0.75,-2.421875 0.75,-2.703125 0.953125,-2.875 1.25,-2.875 c 0.375,0 0.578125,0.21875 0.71875,0.8125 h 0.109375 l -0.03125,-0.890625 h -0.09375 c -0.046875,0.046875 -0.0625,0.0625 -0.078125,0.0625 -0.046875,0 -0.109375,-0.015625 -0.1875,-0.046875 C 1.546875,-3 1.40625,-3.015625 1.25,-3.015625 c -0.546875,0 -0.921875,0.328125 -0.921875,0.8125 0,0.359375 0.21875,0.625 0.78125,0.9375 l 0.375,0.21875 c 0.234375,0.125 0.34375,0.296875 0.34375,0.5 0,0.28125 -0.203125,0.46875 -0.546875,0.46875 -0.453125,0 -0.6875,-0.25 -0.828125,-0.921875 H 0.34375 V 0.03125 H 0.421875 C 0.46875,-0.046875 0.5,-0.046875 0.578125,-0.046875 c 0.078125,0 0.140625,0 0.296875,0.046875 0.1875,0.046875 0.359375,0.0625 0.5,0.0625 0.5,0 0.921875,-0.375 0.921875,-0.84375 z m 0,0"
             id="path2741" />
        </g>
        <g
           transform="translate(161.534,137.106)"
           id="g4583">
          <path
             d="m 4.5625,-2.859375 v -0.09375 H 3.75 v 0.09375 c 0.234375,0.046875 0.296875,0.09375 0.296875,0.203125 0,0.09375 -0.046875,0.25 -0.109375,0.4375 l -0.59375,1.453125 -0.546875,-1.46875 c -0.125,-0.3125 -0.125,-0.3125 -0.125,-0.390625 0,-0.140625 0.078125,-0.1875 0.390625,-0.234375 v -0.09375 H 1.71875 v 0.09375 c 0.25,0.03125 0.328125,0.09375 0.453125,0.453125 L 2.3125,-2.046875 1.703125,-0.734375 1.0625,-2.453125 c -0.03125,-0.0625 -0.046875,-0.125 -0.046875,-0.1875 0,-0.140625 0.078125,-0.1875 0.3125,-0.21875 v -0.09375 h -1.1875 v 0.09375 c 0.15625,0.015625 0.203125,0.078125 0.34375,0.40625 l 0.890625,2.25 C 1.453125,0 1.5,0.09375 1.546875,0.09375 1.578125,0.09375 1.625,0 1.703125,-0.171875 l 0.75,-1.578125 0.59375,1.5625 c 0.09375,0.234375 0.125,0.28125 0.15625,0.28125 0.046875,0 0.078125,-0.0625 0.1875,-0.328125 L 4.296875,-2.5 C 4.40625,-2.78125 4.4375,-2.8125 4.5625,-2.859375 Z m 0,0"
             id="path8949" />
        </g>
      </g>
    </g>
    <g
       id="g194"
       transform="matrix(1.33333 0 0 1.33333 32.481 -0.662187)"
       ns3:version="1.12.0"
       ns3:texconverter="pdflatex"
       ns3:pdfconverter="inkscape"
       ns3:text="$\\dA, \\qA$"
       ns3:preamble="/home/mhinkkan/GitHub/motulator/docs/source/inkscape_textext_preamble.sty"
       ns3:scale="1.0"
       ns3:alignment="top right"
       ns3:inkscapeversion="1.4"
       ns3:jacobian_sqrt="1.33333">
      <defs
         id="defs6405" />
      <g
         fill="#000000"
         fill-opacity="1"
         id="g5718"
         transform="translate(-155.055, -129.636)">
        <g
           transform="translate(154.914, 135.761)"
           id="g8999">
          <path
             d="M 4.265625,-0.90625 4.15625,-1 c -0.5,0.5625 -0.59375,0.640625 -0.734375,0.640625 C 3.328125,-0.359375 3.25,-0.4375 3.25,-0.53125 3.25,-0.6875 3.53125,-1.734375 3.84375,-2.75 L 4.734375,-6.078125 4.6875,-6.125 c -0.484375,0.09375 -0.796875,0.15625 -1.375,0.203125 v 0.15625 C 3.796875,-5.75 3.859375,-5.71875 3.859375,-5.53125 c 0,0.125 0,0.15625 -0.125,0.625 L 3.34375,-3.4375 C 3.265625,-3.8125 3.109375,-3.953125 2.75,-3.953125 c -1.15625,0 -2.609375,1.6875 -2.609375,3.03125 0,0.640625 0.359375,1.015625 0.9375,1.015625 0.609375,0 1,-0.28125 1.609375,-1.171875 -0.09375,0.4375 -0.109375,0.578125 -0.109375,0.796875 0,0.234375 0.140625,0.390625 0.375,0.390625 0.375,0 0.84375,-0.359375 1.3125,-1.015625 z M 3.1875,-3.234375 c 0,1.359375 -0.921875,2.90625 -1.75,2.90625 -0.3125,0 -0.515625,-0.234375 -0.515625,-0.59375 0,-0.75 0.4375,-1.78125 1.03125,-2.421875 C 2.203125,-3.59375 2.5,-3.75 2.75,-3.75 c 0.015625,0 0.03125,0 0.046875,0 C 3.0625,-3.734375 3.1875,-3.5625 3.1875,-3.234375 Z m 0,0"
             id="path8516" />
        </g>
      </g>
      <g
         fill="#000000"
         fill-opacity="1"
         id="g6216"
         transform="translate(-155.055, -129.636)">
        <g
           transform="translate(159.612, 137.106)"
           id="g3926">
          <path
             d="M 2.90625,-0.265625 V -0.4375 c -0.109375,0.09375 -0.1875,0.125 -0.28125,0.125 -0.15625,0 -0.203125,-0.09375 -0.203125,-0.375 v -1.28125 c 0,-0.34375 -0.03125,-0.53125 -0.125,-0.671875 C 2.15625,-2.890625 1.875,-3.03125 1.46875,-3.03125 c -0.328125,0 -0.640625,0.09375 -0.828125,0.25 C 0.46875,-2.640625 0.375,-2.453125 0.375,-2.296875 0.375,-2.140625 0.5,-2 0.65625,-2 0.8125,-2 0.953125,-2.140625 0.953125,-2.28125 0.953125,-2.3125 0.9375,-2.34375 0.9375,-2.390625 0.921875,-2.453125 0.921875,-2.5 0.921875,-2.546875 0.921875,-2.71875 1.125,-2.875 1.390625,-2.875 c 0.3125,0 0.5,0.203125 0.5,0.546875 v 0.40625 c -1.015625,0.40625 -1.125,0.46875 -1.40625,0.71875 C 0.328125,-1.078125 0.25,-0.859375 0.25,-0.640625 0.25,-0.21875 0.53125,0.0625 0.9375,0.0625 1.21875,0.0625 1.5,-0.078125 1.890625,-0.421875 1.921875,-0.0625 2.046875,0.0625 2.3125,0.0625 c 0.234375,0 0.359375,-0.078125 0.59375,-0.328125 z M 1.890625,-0.8125 c 0,0.203125 -0.03125,0.265625 -0.171875,0.359375 C 1.5625,-0.375 1.375,-0.3125 1.234375,-0.3125 1,-0.3125 0.828125,-0.546875 0.828125,-0.828125 V -0.84375 c 0,-0.390625 0.265625,-0.625 1.0625,-0.921875 z m 0,0"
             id="path5803" />
        </g>
      </g>
      <g
         fill="#000000"
         fill-opacity="1"
         id="g4295"
         transform="translate(-155.055, -129.636)">
        <g
           transform="translate(163.03, 135.761)"
           id="g9274">
          <path
             d="m 1.75,-0.046875 c 0,-0.75 -0.515625,-0.875 -0.734375,-0.875 -0.21875,0 -0.515625,0.140625 -0.515625,0.53125 0,0.359375 0.328125,0.4375 0.5625,0.4375 0.0625,0 0.109375,0 0.125,-0.015625 0.046875,0 0.0625,-0.015625 0.09375,-0.015625 0.0625,0 0.125,0.046875 0.125,0.125 0,0.171875 -0.15625,0.578125 -0.75,0.953125 L 0.75,1.265625 c 0.265625,-0.09375 1,-0.6875 1,-1.3125 z m 0,0"
             id="path2258" />
        </g>
      </g>
      <g
         fill="#000000"
         fill-opacity="1"
         id="g4430"
         transform="translate(-155.055, -129.636)">
        <g
           transform="translate(167.002, 135.761)"
           id="g832">
          <path
             d="M 3.53125,1.84375 V 1.671875 H 3.375 c -0.328125,0 -0.515625,-0.078125 -0.53125,-0.21875 0,-0.03125 0.015625,-0.0625 0.03125,-0.140625 l 1.453125,-5.140625 h -0.65625 l -0.125,0.421875 C 3.40625,-3.8125 3.21875,-3.953125 2.859375,-3.953125 c -1.203125,0 -2.640625,1.640625 -2.640625,3.015625 0,0.625 0.359375,1.03125 0.921875,1.03125 0.640625,0 1.046875,-0.3125 1.84375,-1.46875 l -0.78125,2.59375 c -0.109375,0.359375 -0.25,0.4375 -0.84375,0.46875 v 0.15625 z m -0.125,-5.0625 c 0,0.75 -0.59375,1.984375 -1.203125,2.515625 C 1.96875,-0.5 1.71875,-0.375 1.5,-0.375 1.1875,-0.375 1,-0.640625 1,-1.0625 1,-1.734375 1.46875,-2.71875 2.046875,-3.3125 2.328125,-3.59375 2.625,-3.765625 2.875,-3.765625 c 0.296875,0 0.53125,0.25 0.53125,0.546875 z m 0,0"
             id="path4304" />
        </g>
      </g>
      <g
         fill="#000000"
         fill-opacity="1"
         id="g6366"
         transform="translate(-155.055, -129.636)">
        <g
           transform="translate(171.841, 137.106)"
           id="g4609">
          <path
             d="M 2.90625,-0.265625 V -0.4375 c -0.109375,0.09375 -0.1875,0.125 -0.28125,0.125 -0.15625,0 -0.203125,-0.09375 -0.203125,-0.375 v -1.28125 c 0,-0.34375 -0.03125,-0.53125 -0.125,-0.671875 C 2.15625,-2.890625 1.875,-3.03125 1.46875,-3.03125 c -0.328125,0 -0.640625,0.09375 -0.828125,0.25 C 0.46875,-2.640625 0.375,-2.453125 0.375,-2.296875 0.375,-2.140625 0.5,-2 0.65625,-2 0.8125,-2 0.953125,-2.140625 0.953125,-2.28125 0.953125,-2.3125 0.9375,-2.34375 0.9375,-2.390625 0.921875,-2.453125 0.921875,-2.5 0.921875,-2.546875 0.921875,-2.71875 1.125,-2.875 1.390625,-2.875 c 0.3125,0 0.5,0.203125 0.5,0.546875 v 0.40625 c -1.015625,0.40625 -1.125,0.46875 -1.40625,0.71875 C 0.328125,-1.078125 0.25,-0.859375 0.25,-0.640625 0.25,-0.21875 0.53125,0.0625 0.9375,0.0625 1.21875,0.0625 1.5,-0.078125 1.890625,-0.421875 1.921875,-0.0625 2.046875,0.0625 2.3125,0.0625 c 0.234375,0 0.359375,-0.078125 0.59375,-0.328125 z M 1.890625,-0.8125 c 0,0.203125 -0.03125,0.265625 -0.171875,0.359375 C 1.5625,-0.375 1.375,-0.3125 1.234375,-0.3125 1,-0.3125 0.828125,-0.546875 0.828125,-0.828125 V -0.84375 c 0,-0.390625 0.265625,-0.625 1.0625,-0.921875 z m 0,0"
             id="path9274" />
        </g>
      </g>
    </g>
    <g
       id="g210"
       transform="matrix(1.33333 0 0 1.33333 31.7612 79.3378)"
       ns3:version="1.12.0"
       ns3:texconverter="pdflatex"
       ns3:pdfconverter="inkscape"
       ns3:text="$\\dB, \\qB$"
       ns3:preamble="/home/mhinkkan/GitHub/motulator/docs/source/inkscape_textext_preamble.sty"
       ns3:scale="1.0"
       ns3:alignment="top right"
       ns3:inkscapeversion="1.4"
       ns3:jacobian_sqrt="1.33333">
      <defs
         id="defs3251" />
      <g
         fill="#000000"
         fill-opacity="1"
         id="g3347"
         transform="translate(-155.055, -129.636)">
        <g
           transform="translate(154.914, 135.761)"
           id="g2882">
          <path
             d="M 4.265625,-0.90625 4.15625,-1 c -0.5,0.5625 -0.59375,0.640625 -0.734375,0.640625 C 3.328125,-0.359375 3.25,-0.4375 3.25,-0.53125 3.25,-0.6875 3.53125,-1.734375 3.84375,-2.75 L 4.734375,-6.078125 4.6875,-6.125 c -0.484375,0.09375 -0.796875,0.15625 -1.375,0.203125 v 0.15625 C 3.796875,-5.75 3.859375,-5.71875 3.859375,-5.53125 c 0,0.125 0,0.15625 -0.125,0.625 L 3.34375,-3.4375 C 3.265625,-3.8125 3.109375,-3.953125 2.75,-3.953125 c -1.15625,0 -2.609375,1.6875 -2.609375,3.03125 0,0.640625 0.359375,1.015625 0.9375,1.015625 0.609375,0 1,-0.28125 1.609375,-1.171875 -0.09375,0.4375 -0.109375,0.578125 -0.109375,0.796875 0,0.234375 0.140625,0.390625 0.375,0.390625 0.375,0 0.84375,-0.359375 1.3125,-1.015625 z M 3.1875,-3.234375 c 0,1.359375 -0.921875,2.90625 -1.75,2.90625 -0.3125,0 -0.515625,-0.234375 -0.515625,-0.59375 0,-0.75 0.4375,-1.78125 1.03125,-2.421875 C 2.203125,-3.59375 2.5,-3.75 2.75,-3.75 c 0.015625,0 0.03125,0 0.046875,0 C 3.0625,-3.734375 3.1875,-3.5625 3.1875,-3.234375 Z m 0,0"
             id="path1667" />
        </g>
      </g>
      <g
         fill="#000000"
         fill-opacity="1"
         id="g7596"
         transform="translate(-155.055, -129.636)">
        <g
           transform="translate(159.612, 137.125)"
           id="g228">
          <path
             d="m 3.078125,-1.59375 c 0,-0.8125 -0.5,-1.4375 -1.15625,-1.4375 -0.40625,0 -0.78125,0.234375 -0.921875,0.5625 V -4.484375 L 0.96875,-4.5 c -0.265625,0.109375 -0.453125,0.15625 -0.765625,0.25 l -0.1875,0.046875 V -4.09375 C 0.0625,-4.109375 0.078125,-4.109375 0.125,-4.109375 c 0.265625,0 0.328125,0.0625 0.328125,0.34375 v 3.40625 c 0,0.203125 0.5625,0.421875 1.09375,0.421875 0.859375,0 1.53125,-0.71875 1.53125,-1.65625 z M 2.5,-1.296875 c 0,0.734375 -0.3125,1.15625 -0.859375,1.15625 C 1.296875,-0.140625 1,-0.296875 1,-0.453125 V -2.125 c 0,-0.25 0.3125,-0.484375 0.65625,-0.484375 0.515625,0 0.84375,0.515625 0.84375,1.3125 z m 0,0"
             id="path4067" />
        </g>
      </g>
      <g
         fill="#000000"
         fill-opacity="1"
         id="g9072"
         transform="translate(-155.055, -129.636)">
        <g
           transform="translate(163.398, 135.761)"
           id="g5799">
          <path
             d="m 1.75,-0.046875 c 0,-0.75 -0.515625,-0.875 -0.734375,-0.875 -0.21875,0 -0.515625,0.140625 -0.515625,0.53125 0,0.359375 0.328125,0.4375 0.5625,0.4375 0.0625,0 0.109375,0 0.125,-0.015625 0.046875,0 0.0625,-0.015625 0.09375,-0.015625 0.0625,0 0.125,0.046875 0.125,0.125 0,0.171875 -0.15625,0.578125 -0.75,0.953125 L 0.75,1.265625 c 0.265625,-0.09375 1,-0.6875 1,-1.3125 z m 0,0"
             id="path1328" />
        </g>
      </g>
      <g
         fill="#000000"
         fill-opacity="1"
         id="g8600"
         transform="translate(-155.055, -129.636)">
        <g
           transform="translate(167.37, 135.761)"
           id="g6564">
          <path
             d="M 3.53125,1.84375 V 1.671875 H 3.375 c -0.328125,0 -0.515625,-0.078125 -0.53125,-0.21875 0,-0.03125 0.015625,-0.0625 0.03125,-0.140625 l 1.453125,-5.140625 h -0.65625 l -0.125,0.421875 C 3.40625,-3.8125 3.21875,-3.953125 2.859375,-3.953125 c -1.203125,0 -2.640625,1.640625 -2.640625,3.015625 0,0.625 0.359375,1.03125 0.921875,1.03125 0.640625,0 1.046875,-0.3125 1.84375,-1.46875 l -0.78125,2.59375 c -0.109375,0.359375 -0.25,0.4375 -0.84375,0.46875 v 0.15625 z m -0.125,-5.0625 c 0,0.75 -0.59375,1.984375 -1.203125,2.515625 C 1.96875,-0.5 1.71875,-0.375 1.5,-0.375 1.1875,-0.375 1,-0.640625 1,-1.0625 1,-1.734375 1.46875,-2.71875 2.046875,-3.3125 2.328125,-3.59375 2.625,-3.765625 2.875,-3.765625 c 0.296875,0 0.53125,0.25 0.53125,0.546875 z m 0,0"
             id="path2786" />
        </g>
      </g>
      <g
         fill="#000000"
         fill-opacity="1"
         id="g1186"
         transform="translate(-155.055, -129.636)">
        <g
           transform="translate(172.209, 137.125)"
           id="g8714">
          <path
             d="m 3.078125,-1.59375 c 0,-0.8125 -0.5,-1.4375 -1.15625,-1.4375 -0.40625,0 -0.78125,0.234375 -0.921875,0.5625 V -4.484375 L 0.96875,-4.5 c -0.265625,0.109375 -0.453125,0.15625 -0.765625,0.25 l -0.1875,0.046875 V -4.09375 C 0.0625,-4.109375 0.078125,-4.109375 0.125,-4.109375 c 0.265625,0 0.328125,0.0625 0.328125,0.34375 v 3.40625 c 0,0.203125 0.5625,0.421875 1.09375,0.421875 0.859375,0 1.53125,-0.71875 1.53125,-1.65625 z M 2.5,-1.296875 c 0,0.734375 -0.3125,1.15625 -0.859375,1.15625 C 1.296875,-0.140625 1,-0.296875 1,-0.453125 V -2.125 c 0,-0.25 0.3125,-0.484375 0.65625,-0.484375 0.515625,0 0.84375,0.515625 0.84375,1.3125 z m 0,0"
             id="path5485" />
        </g>
      </g>
    </g>
    <g
       id="g227"
       transform="matrix(1.33333 0 0 1.33333 32.7518 159.338)"
       ns3:version="1.12.0"
       ns3:texconverter="pdflatex"
       ns3:pdfconverter="inkscape"
       ns3:text="$\\dC, \\qC$"
       ns3:preamble="/home/mhinkkan/GitHub/motulator/docs/source/inkscape_textext_preamble.sty"
       ns3:scale="1.0"
       ns3:alignment="top right"
       ns3:inkscapeversion="1.4"
       ns3:jacobian_sqrt="1.33333">
      <defs
         id="defs7676" />
      <g
         fill="#000000"
         fill-opacity="1"
         id="g6418"
         transform="translate(-155.055, -129.636)">
        <g
           transform="translate(154.914, 135.761)"
           id="g9251">
          <path
             d="M 4.265625,-0.90625 4.15625,-1 c -0.5,0.5625 -0.59375,0.640625 -0.734375,0.640625 C 3.328125,-0.359375 3.25,-0.4375 3.25,-0.53125 3.25,-0.6875 3.53125,-1.734375 3.84375,-2.75 L 4.734375,-6.078125 4.6875,-6.125 c -0.484375,0.09375 -0.796875,0.15625 -1.375,0.203125 v 0.15625 C 3.796875,-5.75 3.859375,-5.71875 3.859375,-5.53125 c 0,0.125 0,0.15625 -0.125,0.625 L 3.34375,-3.4375 C 3.265625,-3.8125 3.109375,-3.953125 2.75,-3.953125 c -1.15625,0 -2.609375,1.6875 -2.609375,3.03125 0,0.640625 0.359375,1.015625 0.9375,1.015625 0.609375,0 1,-0.28125 1.609375,-1.171875 -0.09375,0.4375 -0.109375,0.578125 -0.109375,0.796875 0,0.234375 0.140625,0.390625 0.375,0.390625 0.375,0 0.84375,-0.359375 1.3125,-1.015625 z M 3.1875,-3.234375 c 0,1.359375 -0.921875,2.90625 -1.75,2.90625 -0.3125,0 -0.515625,-0.234375 -0.515625,-0.59375 0,-0.75 0.4375,-1.78125 1.03125,-2.421875 C 2.203125,-3.59375 2.5,-3.75 2.75,-3.75 c 0.015625,0 0.03125,0 0.046875,0 C 3.0625,-3.734375 3.1875,-3.5625 3.1875,-3.234375 Z m 0,0"
             id="path7492" />
        </g>
      </g>
      <g
         fill="#000000"
         fill-opacity="1"
         id="g8301"
         transform="translate(-155.055, -129.636)">
        <g
           transform="translate(159.612, 137.106)"
           id="g5066">
          <path
             d="M 2.703125,-0.96875 2.625,-1.03125 c -0.328125,0.46875 -0.5625,0.625 -0.9375,0.625 -0.609375,0 -1.015625,-0.53125 -1.015625,-1.28125 0,-0.6875 0.359375,-1.140625 0.890625,-1.140625 0.234375,0 0.328125,0.0625 0.390625,0.3125 L 2,-2.375 c 0.046875,0.1875 0.171875,0.296875 0.3125,0.296875 0.171875,0 0.3125,-0.125 0.3125,-0.265625 0,-0.375 -0.46875,-0.6875 -1.015625,-0.6875 -0.3125,0 -0.625,0.125 -0.890625,0.34375 -0.359375,0.296875 -0.546875,0.75 -0.546875,1.296875 0,0.84375 0.515625,1.453125 1.25,1.453125 0.28125,0 0.53125,-0.09375 0.75,-0.265625 C 2.375,-0.375 2.5,-0.5625 2.703125,-0.96875 Z m 0,0"
             id="path2151" />
        </g>
      </g>
      <g
         fill="#000000"
         fill-opacity="1"
         id="g2703"
         transform="translate(-155.055, -129.636)">
        <g
           transform="translate(163.03, 135.761)"
           id="g4617">
          <path
             d="m 1.75,-0.046875 c 0,-0.75 -0.515625,-0.875 -0.734375,-0.875 -0.21875,0 -0.515625,0.140625 -0.515625,0.53125 0,0.359375 0.328125,0.4375 0.5625,0.4375 0.0625,0 0.109375,0 0.125,-0.015625 0.046875,0 0.0625,-0.015625 0.09375,-0.015625 0.0625,0 0.125,0.046875 0.125,0.125 0,0.171875 -0.15625,0.578125 -0.75,0.953125 L 0.75,1.265625 c 0.265625,-0.09375 1,-0.6875 1,-1.3125 z m 0,0"
             id="path4851" />
        </g>
      </g>
      <g
         fill="#000000"
         fill-opacity="1"
         id="g8479"
         transform="translate(-155.055, -129.636)">
        <g
           transform="translate(167.002, 135.761)"
           id="g2135">
          <path
             d="M 3.53125,1.84375 V 1.671875 H 3.375 c -0.328125,0 -0.515625,-0.078125 -0.53125,-0.21875 0,-0.03125 0.015625,-0.0625 0.03125,-0.140625 l 1.453125,-5.140625 h -0.65625 l -0.125,0.421875 C 3.40625,-3.8125 3.21875,-3.953125 2.859375,-3.953125 c -1.203125,0 -2.640625,1.640625 -2.640625,3.015625 0,0.625 0.359375,1.03125 0.921875,1.03125 0.640625,0 1.046875,-0.3125 1.84375,-1.46875 l -0.78125,2.59375 c -0.109375,0.359375 -0.25,0.4375 -0.84375,0.46875 v 0.15625 z m -0.125,-5.0625 c 0,0.75 -0.59375,1.984375 -1.203125,2.515625 C 1.96875,-0.5 1.71875,-0.375 1.5,-0.375 1.1875,-0.375 1,-0.640625 1,-1.0625 1,-1.734375 1.46875,-2.71875 2.046875,-3.3125 2.328125,-3.59375 2.625,-3.765625 2.875,-3.765625 c 0.296875,0 0.53125,0.25 0.53125,0.546875 z m 0,0"
             id="path2347" />
        </g>
      </g>
      <g
         fill="#000000"
         fill-opacity="1"
         id="g8143"
         transform="translate(-155.055, -129.636)">
        <g
           transform="translate(171.841, 137.106)"
           id="g6034">
          <path
             d="M 2.703125,-0.96875 2.625,-1.03125 c -0.328125,0.46875 -0.5625,0.625 -0.9375,0.625 -0.609375,0 -1.015625,-0.53125 -1.015625,-1.28125 0,-0.6875 0.359375,-1.140625 0.890625,-1.140625 0.234375,0 0.328125,0.0625 0.390625,0.3125 L 2,-2.375 c 0.046875,0.1875 0.171875,0.296875 0.3125,0.296875 0.171875,0 0.3125,-0.125 0.3125,-0.265625 0,-0.375 -0.46875,-0.6875 -1.015625,-0.6875 -0.3125,0 -0.625,0.125 -0.890625,0.34375 -0.359375,0.296875 -0.546875,0.75 -0.546875,1.296875 0,0.84375 0.515625,1.453125 1.25,1.453125 0.28125,0 0.53125,-0.09375 0.75,-0.265625 C 2.375,-0.375 2.5,-0.5625 2.703125,-0.96875 Z m 0,0"
             id="path5361" />
        </g>
      </g>
    </g>
    <g
       id="g243"
       transform="matrix(1.33333,0,0,1.33333,55.362766,15.957677)"
       ns3:version="1.12.0"
       ns3:texconverter="pdflatex"
       ns3:pdfconverter="inkscape"
       ns3:text="$1$"
       ns3:preamble="/home/mhinkkan/GitHub/motulator/docs/source/inkscape_textext_preamble.sty"
       ns3:scale="1.0"
       ns3:alignment="middle right"
       ns3:inkscapeversion="1.2.2"
       ns3:jacobian_sqrt="1.33333">
      <defs
         id="defs5407" />
      <g
         fill="#000000"
         fill-opacity="1"
         id="g3432"
         transform="translate(-155.69,-129.698)">
        <g
           transform="translate(154.69,135.761)"
           id="g8976">
          <path
             d="m 3.53125,0 v -0.140625 c -0.703125,0 -0.84375,-0.09375 -0.84375,-0.515625 V -6.046875 L 2.609375,-6.0625 1,-5.25 v 0.125 c 0.109375,-0.046875 0.203125,-0.078125 0.234375,-0.09375 0.171875,-0.0625 0.3125,-0.09375 0.40625,-0.09375 0.1875,0 0.265625,0.125 0.265625,0.421875 v 4.0625 c 0,0.296875 -0.0625,0.5 -0.21875,0.578125 -0.125,0.078125 -0.25,0.109375 -0.625,0.109375 V 0 Z m 0,0"
             id="path977" />
        </g>
      </g>
    </g>
    <g
       id="g248"
       transform="matrix(1.33333,0,0,1.33333,53.342271,55.869536)"
       ns3:version="1.12.0"
       ns3:texconverter="pdflatex"
       ns3:pdfconverter="inkscape"
       ns3:text="$0$"
       ns3:preamble="/home/mhinkkan/GitHub/motulator/docs/source/inkscape_textext_preamble.sty"
       ns3:scale="1.0"
       ns3:alignment="middle right"
       ns3:inkscapeversion="1.2.2"
       ns3:jacobian_sqrt="1.33333">
      <defs
         id="defs8696" />
      <g
         fill="#000000"
         fill-opacity="1"
         id="g7657"
         transform="translate(-154.909,-129.698)">
        <g
           transform="translate(154.69,135.761)"
           id="g5601">
          <path
             d="m 4.265625,-2.953125 c 0,-1.84375 -0.8125,-3.109375 -1.984375,-3.109375 -0.5,0 -0.875,0.15625 -1.203125,0.46875 -0.515625,0.5 -0.859375,1.53125 -0.859375,2.578125 0,0.984375 0.296875,2.03125 0.71875,2.53125 C 1.265625,-0.09375 1.71875,0.125 2.25,0.125 2.703125,0.125 3.078125,-0.03125 3.40625,-0.34375 3.921875,-0.828125 4.265625,-1.875 4.265625,-2.953125 Z M 3.40625,-2.9375 c 0,1.875 -0.390625,2.828125 -1.15625,2.828125 -0.78125,0 -1.171875,-0.953125 -1.171875,-2.828125 0,-1.890625 0.40625,-2.890625 1.171875,-2.890625 0.75,0 1.15625,1.015625 1.15625,2.890625 z m 0,0"
             id="path3459" />
        </g>
      </g>
    </g>
    <g
       id="g254"
       transform="matrix(1.33333,0,0,1.33333,55.362766,95.957677)"
       ns3:version="1.12.0"
       ns3:texconverter="pdflatex"
       ns3:pdfconverter="inkscape"
       ns3:text="$1$"
       ns3:preamble="/home/mhinkkan/GitHub/motulator/docs/source/inkscape_textext_preamble.sty"
       ns3:scale="1.0"
       ns3:alignment="middle right"
       ns3:inkscapeversion="1.2.2"
       ns3:jacobian_sqrt="1.33333">
      <defs
         id="defs251" />
      <g
         fill="#000000"
         fill-opacity="1"
         id="g253"
         transform="translate(-155.69,-129.698)">
        <g
           transform="translate(154.69,135.761)"
           id="g252">
          <path
             d="m 3.53125,0 v -0.140625 c -0.703125,0 -0.84375,-0.09375 -0.84375,-0.515625 V -6.046875 L 2.609375,-6.0625 1,-5.25 v 0.125 c 0.109375,-0.046875 0.203125,-0.078125 0.234375,-0.09375 0.171875,-0.0625 0.3125,-0.09375 0.40625,-0.09375 0.1875,0 0.265625,0.125 0.265625,0.421875 v 4.0625 c 0,0.296875 -0.0625,0.5 -0.21875,0.578125 -0.125,0.078125 -0.25,0.109375 -0.625,0.109375 V 0 Z m 0,0"
             id="path251" />
        </g>
      </g>
    </g>
    <g
       id="g259"
       transform="matrix(1.33333,0,0,1.33333,53.342271,135.86954)"
       ns3:version="1.12.0"
       ns3:texconverter="pdflatex"
       ns3:pdfconverter="inkscape"
       ns3:text="$0$"
       ns3:preamble="/home/mhinkkan/GitHub/motulator/docs/source/inkscape_textext_preamble.sty"
       ns3:scale="1.0"
       ns3:alignment="middle right"
       ns3:inkscapeversion="1.2.2"
       ns3:jacobian_sqrt="1.33333">
      <defs
         id="defs256" />
      <g
         fill="#000000"
         fill-opacity="1"
         id="g258"
         transform="translate(-154.909,-129.698)">
        <g
           transform="translate(154.69,135.761)"
           id="g257">
          <path
             d="m 4.265625,-2.953125 c 0,-1.84375 -0.8125,-3.109375 -1.984375,-3.109375 -0.5,0 -0.875,0.15625 -1.203125,0.46875 -0.515625,0.5 -0.859375,1.53125 -0.859375,2.578125 0,0.984375 0.296875,2.03125 0.71875,2.53125 C 1.265625,-0.09375 1.71875,0.125 2.25,0.125 2.703125,0.125 3.078125,-0.03125 3.40625,-0.34375 3.921875,-0.828125 4.265625,-1.875 4.265625,-2.953125 Z M 3.40625,-2.9375 c 0,1.875 -0.390625,2.828125 -1.15625,2.828125 -0.78125,0 -1.171875,-0.953125 -1.171875,-2.828125 0,-1.890625 0.40625,-2.890625 1.171875,-2.890625 0.75,0 1.15625,1.015625 1.15625,2.890625 z m 0,0"
             id="path256" />
        </g>
      </g>
    </g>
    <g
       id="g264"
       transform="matrix(1.33333,0,0,1.33333,55.362766,175.95768)"
       ns3:version="1.12.0"
       ns3:texconverter="pdflatex"
       ns3:pdfconverter="inkscape"
       ns3:text="$1$"
       ns3:preamble="/home/mhinkkan/GitHub/motulator/docs/source/inkscape_textext_preamble.sty"
       ns3:scale="1.0"
       ns3:alignment="middle right"
       ns3:inkscapeversion="1.2.2"
       ns3:jacobian_sqrt="1.33333">
      <defs
         id="defs261" />
      <g
         fill="#000000"
         fill-opacity="1"
         id="g263"
         transform="translate(-155.69,-129.698)">
        <g
           transform="translate(154.69,135.761)"
           id="g262">
          <path
             d="m 3.53125,0 v -0.140625 c -0.703125,0 -0.84375,-0.09375 -0.84375,-0.515625 V -6.046875 L 2.609375,-6.0625 1,-5.25 v 0.125 c 0.109375,-0.046875 0.203125,-0.078125 0.234375,-0.09375 0.171875,-0.0625 0.3125,-0.09375 0.40625,-0.09375 0.1875,0 0.265625,0.125 0.265625,0.421875 v 4.0625 c 0,0.296875 -0.0625,0.5 -0.21875,0.578125 -0.125,0.078125 -0.25,0.109375 -0.625,0.109375 V 0 Z m 0,0"
             id="path261" />
        </g>
      </g>
    </g>
    <g
       id="g270"
       transform="matrix(1.33333,0,0,1.33333,53.342271,215.86954)"
       ns3:version="1.12.0"
       ns3:texconverter="pdflatex"
       ns3:pdfconverter="inkscape"
       ns3:text="$0$"
       ns3:preamble="/home/mhinkkan/GitHub/motulator/docs/source/inkscape_textext_preamble.sty"
       ns3:scale="1.0"
       ns3:alignment="middle right"
       ns3:inkscapeversion="1.2.2"
       ns3:jacobian_sqrt="1.33333">
      <defs
         id="defs266" />
      <g
         fill="#000000"
         fill-opacity="1"
         id="g269"
         transform="translate(-154.909,-129.698)">
        <g
           transform="translate(154.69,135.761)"
           id="g267">
          <path
             d="m 4.265625,-2.953125 c 0,-1.84375 -0.8125,-3.109375 -1.984375,-3.109375 -0.5,0 -0.875,0.15625 -1.203125,0.46875 -0.515625,0.5 -0.859375,1.53125 -0.859375,2.578125 0,0.984375 0.296875,2.03125 0.71875,2.53125 C 1.265625,-0.09375 1.71875,0.125 2.25,0.125 2.703125,0.125 3.078125,-0.03125 3.40625,-0.34375 3.921875,-0.828125 4.265625,-1.875 4.265625,-2.953125 Z M 3.40625,-2.9375 c 0,1.875 -0.390625,2.828125 -1.15625,2.828125 -0.78125,0 -1.171875,-0.953125 -1.171875,-2.828125 0,-1.890625 0.40625,-2.890625 1.171875,-2.890625 0.75,0 1.15625,1.015625 1.15625,2.890625 z m 0,0"
             id="path266" />
        </g>
      </g>
    </g>
  </g>
</svg>
