<?xml version="1.0" encoding="UTF-8" standalone="no"?>
<svg
   width="480"
   height="115"
   id="svg3470"
   sodipodi:version="0.32"
   inkscape:version="1.4 (e7c3feb100, 2024-10-09)"
   sodipodi:docname="diode_bridge.svg"
   inkscape:output_extension="org.inkscape.output.svg.inkscape"
   version="1.0"
   xmlns:inkscape="http://www.inkscape.org/namespaces/inkscape"
   xmlns:sodipodi="http://sodipodi.sourceforge.net/DTD/sodipodi-0.dtd"
   xmlns="http://www.w3.org/2000/svg"
   xmlns:svg="http://www.w3.org/2000/svg"
   xmlns:rdf="http://www.w3.org/1999/02/22-rdf-syntax-ns#"
   xmlns:cc="http://creativecommons.org/ns#"
   xmlns:dc="http://purl.org/dc/elements/1.1/"
   xmlns:ns3="http://www.iki.fi/pav/software/textext/">
  <sodipodi:namedview
     id="base"
     pagecolor="#ffffff"
     bordercolor="#666666"
     borderopacity="1.0"
     gridtolerance="36.6"
     guidetolerance="10"
     objecttolerance="10"
     inkscape:pageopacity="0.0"
     inkscape:pageshadow="2"
     inkscape:zoom="2.8284272"
     inkscape:cx="241.47696"
     inkscape:cy="71.771336"
     inkscape:document-units="px"
     inkscape:current-layer="layer2"
     showgrid="true"
     inkscape:grid-points="true"
     inkscape:object-paths="true"
     inkscape:object-points="false"
     inkscape:grid-bbox="false"
     inkscape:window-width="1920"
     inkscape:window-height="1131"
     inkscape:window-x="0"
     inkscape:window-y="0"
     width="349.29px"
     height="359.4px"
     showguides="true"
     inkscape:guide-bbox="true"
     inkscape:guide-points="false"
     inkscape:object-nodes="true"
     inkscape:object-bbox="true"
     inkscape:snap-bbox="false"
     inkscape:snap-nodes="true"
     inkscape:bbox-paths="true"
     inkscape:snap-global="true"
     inkscape:snap-guide="true"
     inkscape:window-maximized="1"
     inkscape:snap-grids="true"
     inkscape:snap-object-midpoints="true"
     inkscape:snap-to-guides="false"
     inkscape:document-rotation="0"
     fit-margin-top="0"
     fit-margin-left="0"
     fit-margin-right="0"
     fit-margin-bottom="0"
     inkscape:showpageshadow="2"
     inkscape:pagecheckerboard="0"
     inkscape:deskcolor="#d1d1d1">
    <inkscape:grid
       snapvisiblegridlinesonly="true"
       empspacing="5"
       empopacity="0.4"
       opacity="0.2"
       empcolor="#0000ff"
       color="#0000ff"
       spacingy="0.5"
       spacingx="0.5"
       originy="-105"
       originx="305"
       type="xygrid"
       id="GridFromPre046Settings"
       visible="true"
       enabled="true"
       units="px" />
    <sodipodi:guide
       id="guide35742"
       position="2254.5192,1164.6728"
       orientation="0,1"
       inkscape:locked="false" />
  </sodipodi:namedview>
  <defs
     id="defs3472">
    <marker
       refX="0"
       inkscape:stockid="Dot_m"
       refY="0"
       orient="auto"
       id="marker52572"
       style="overflow:visible">
      <path
         inkscape:connector-curvature="0"
         id="path52574"
         d="m -2.5,-1 c 0,2.76 -2.24,5 -5,5 -2.76,0 -5,-2.24 -5,-5 0,-2.76 2.24,-5 5,-5 2.76,0 5,2.24 5,5 z"
         transform="matrix(0.4,0,0,0.4,2.96,0.4)"
         style="fill-rule:evenodd;stroke:#000000;stroke-width:1pt;marker-start:none;marker-end:none" />
    </marker>
    <marker
       inkscape:stockid="DotM"
       orient="auto"
       refY="0"
       refX="0"
       id="marker19838-3"
       style="overflow:visible">
      <path
         inkscape:connector-curvature="0"
         id="path19840-6"
         d="m -2.5,-1 c 0,2.76 -2.24,5 -5,5 -2.76,0 -5,-2.24 -5,-5 0,-2.76 2.24,-5 5,-5 2.76,0 5,2.24 5,5 z"
         style="fill-rule:evenodd;stroke:#000000;stroke-width:1pt;marker-start:none;marker-end:none"
         transform="matrix(0.4,0,0,0.4,2.96,0.4)" />
    </marker>
    <marker
       inkscape:stockid="DotM"
       orient="auto"
       refY="0"
       refX="0"
       id="DotM-7"
       style="overflow:visible">
      <path
         id="path4728-3"
         d="m -2.5,-1 c 0,2.76 -2.24,5 -5,5 -2.76,0 -5,-2.24 -5,-5 0,-2.76 2.24,-5 5,-5 2.76,0 5,2.24 5,5 z"
         style="fill-rule:evenodd;stroke:#000000;stroke-width:1pt;marker-start:none;marker-end:none"
         transform="matrix(0.4,0,0,0.4,2.96,0.4)" />
    </marker>
    <marker
       inkscape:stockid="DotM"
       orient="auto"
       refY="0"
       refX="0"
       id="marker3314"
       style="overflow:visible">
      <path
         inkscape:connector-curvature="0"
         id="path3316"
         d="m -2.5,-1 c 0,2.76 -2.24,5 -5,5 -2.76,0 -5,-2.24 -5,-5 0,-2.76 2.24,-5 5,-5 2.76,0 5,2.24 5,5 z"
         style="fill-rule:evenodd;stroke:#000000;stroke-width:1pt;marker-start:none;marker-end:none"
         transform="matrix(0.4,0,0,0.4,2.96,0.4)" />
    </marker>
    <marker
       style="overflow:visible"
       id="Arrow2Mstart"
       orient="auto"
       refY="0"
       inkscape:stockid="Arrow2Mstart"
       refX="0">
      <path
         style="font-size:12px;fill-rule:evenodd;stroke-width:0.625;stroke-linejoin:round"
         transform="scale(0.6)"
         d="M 8.7185878,4.0337352 -2.2072895,0.01601326 8.7185884,-4.0017078 c -1.7454984,2.3720609 -1.7354408,5.6174519 -6e-7,8.035443 z"
         id="path21014" />
    </marker>
    <marker
       style="overflow:visible"
       id="Arrow2Mstart-9"
       orient="auto"
       refY="0"
       inkscape:stockid="Arrow2Mstart"
       refX="0">
      <path
         style="font-size:12px;fill-rule:evenodd;stroke-width:0.625;stroke-linejoin:round"
         transform="scale(0.6)"
         d="M 8.7185878,4.0337352 -2.2072895,0.01601326 8.7185884,-4.0017078 c -1.7454984,2.3720609 -1.7354408,5.6174519 -6e-7,8.035443 z"
         id="path21014-9" />
    </marker>
  </defs>
  <metadata
     id="metadata3475">
    <rdf:RDF>
      <cc:Work
         rdf:about="">
        <dc:format>image/svg+xml</dc:format>
        <dc:type
           rdf:resource="http://purl.org/dc/dcmitype/StillImage" />
        <dc:title />
      </cc:Work>
    </rdf:RDF>
  </metadata>
  <g
     transform="translate(125.165,-434.65454)"
     inkscape:groupmode="layer"
     id="layer1"
     style="display:inline"
     inkscape:label="Circuit" />
  <g
     inkscape:groupmode="layer"
     id="layer2"
     style="display:inline;opacity:1"
     inkscape:label="Labels"
     transform="translate(305, -105)">
    <g
       transform="translate(70.78574,-218.71623)"
       id="layer1-7"
       style="display:inline"
       inkscape:label="Circuit" />
    <g
       inkscape:label="Circuit"
       style="display:inline"
       id="layer1-47"
       transform="translate(-20.85972,-237.79024)" />
    <g
       transform="translate(369.14028,-162.79024)"
       id="layer1-0"
       style="display:inline"
       inkscape:label="Circuit" />
    <g
       inkscape:label="Circuit"
       style="display:inline"
       id="layer1-5"
       transform="translate(149.14028,57.209758)" />
    <g
       transform="translate(21.64029,-127.79026)"
       id="layer1-4"
       style="display:inline"
       inkscape:label="Circuit" />
    <g
       inkscape:label="Circuit"
       style="display:inline"
       id="layer1-3"
       transform="translate(329.14028,-167.79024)" />
    <g
       inkscape:label="Circuit"
       style="display:inline"
       id="layer1-4-8"
       transform="translate(224.14029,-110.29026)" />
    <g
       transform="translate(-77.335,-193.15454)"
       id="layer1-9"
       style="display:inline"
       inkscape:label="Circuit" />
    <path
       id="path5837-9-6-8-9-5-6-0-8-9-8"
       sodipodi:nodetypes="cccc"
       d="m -130,145 h 15 l -1e-5,15 h 15"
       style="display:inline;fill:none;stroke:#000000;stroke-width:1px;stroke-linecap:round;stroke-linejoin:miter;stroke-opacity:1;marker-end:url(#marker19838-3)"
       inkscape:connector-curvature="0" />
    <path
       inkscape:connector-curvature="0"
       style="display:inline;fill:none;stroke:#000000;stroke-width:1px;stroke-linecap:round;stroke-linejoin:miter;stroke-opacity:1;marker-end:url(#marker19838-3)"
       d="m -130,170 h 50"
       sodipodi:nodetypes="cc"
       id="path3271" />
    <path
       id="path1081"
       sodipodi:nodetypes="cccc"
       d="m -130,195 h 15.00001 L -115,180 h 55"
       style="display:inline;fill:none;stroke:#000000;stroke-width:1px;stroke-linecap:round;stroke-linejoin:miter;stroke-opacity:1;marker-end:url(#marker19838-3)"
       inkscape:connector-curvature="0" />
    <g
       id="g1106">
      <path
         id="path3267"
         sodipodi:nodetypes="cc"
         d="m -80,130 v 80"
         style="display:inline;fill:none;stroke:#000000;stroke-width:1px;stroke-linecap:round;stroke-linejoin:miter;stroke-opacity:1;marker-start:url(#DotM-7);marker-end:url(#marker52572)"
         inkscape:connector-curvature="0" />
      <g
         style="display:inline;fill:#ffffff;fill-opacity:1;stroke:#000000;stroke-linecap:square;stroke-linejoin:miter;stroke-opacity:1"
         transform="rotate(-90,333.29793,376.70207)"
         id="g1091">
        <path
           inkscape:connector-curvature="0"
           style="fill:#ffffff;fill-opacity:1;stroke:#000000;stroke-width:1px;stroke-linecap:square;stroke-linejoin:miter;stroke-opacity:1"
           transform="translate(-1245,110)"
           id="path1087"
           d="m 1815,-151.59586 c 0,3.33334 0,6.66667 0,10" />
        <path
           inkscape:connector-curvature="0"
           style="fill:#ffffff;fill-opacity:1;stroke:#000000;stroke-width:1px;stroke-linecap:square;stroke-linejoin:miter;stroke-opacity:1"
           d="m 1805,-146.59586 -10,-5 v 10 z"
           sodipodi:nodetypes="cccc"
           id="path1089"
           transform="translate(-1235,110)" />
      </g>
      <g
         style="display:inline;fill:#ffffff;fill-opacity:1;stroke:#000000;stroke-linecap:square;stroke-linejoin:miter;stroke-opacity:1"
         transform="rotate(-90,358.29793,401.70207)"
         id="g1097">
        <path
           inkscape:connector-curvature="0"
           style="fill:#ffffff;fill-opacity:1;stroke:#000000;stroke-width:1px;stroke-linecap:square;stroke-linejoin:miter;stroke-opacity:1"
           transform="translate(-1245,110)"
           id="path1093"
           d="m 1815,-151.59586 c 0,3.33334 0,6.66667 0,10" />
        <path
           inkscape:connector-curvature="0"
           style="fill:#ffffff;fill-opacity:1;stroke:#000000;stroke-width:1px;stroke-linecap:square;stroke-linejoin:miter;stroke-opacity:1"
           d="m 1805,-146.59586 -10,-5 v 10 z"
           sodipodi:nodetypes="cccc"
           id="path1095"
           transform="translate(-1235,110)" />
      </g>
    </g>
    <g
       id="g1122"
       transform="translate(20)">
      <path
         id="path1108"
         sodipodi:nodetypes="cc"
         d="m -80,130 v 80"
         style="display:inline;fill:none;stroke:#000000;stroke-width:1px;stroke-linecap:round;stroke-linejoin:miter;stroke-opacity:1;marker-start:url(#DotM-7);marker-end:url(#marker52572)"
         inkscape:connector-curvature="0" />
      <g
         style="display:inline;fill:#ffffff;fill-opacity:1;stroke:#000000;stroke-linecap:square;stroke-linejoin:miter;stroke-opacity:1"
         transform="rotate(-90,333.29793,376.70207)"
         id="g1114">
        <path
           inkscape:connector-curvature="0"
           style="fill:#ffffff;fill-opacity:1;stroke:#000000;stroke-width:1px;stroke-linecap:square;stroke-linejoin:miter;stroke-opacity:1"
           transform="translate(-1245,110)"
           id="path1110"
           d="m 1815,-151.59586 c 0,3.33334 0,6.66667 0,10" />
        <path
           inkscape:connector-curvature="0"
           style="fill:#ffffff;fill-opacity:1;stroke:#000000;stroke-width:1px;stroke-linecap:square;stroke-linejoin:miter;stroke-opacity:1"
           d="m 1805,-146.59586 -10,-5 v 10 z"
           sodipodi:nodetypes="cccc"
           id="path1112"
           transform="translate(-1235,110)" />
      </g>
      <g
         style="display:inline;fill:#ffffff;fill-opacity:1;stroke:#000000;stroke-linecap:square;stroke-linejoin:miter;stroke-opacity:1"
         transform="rotate(-90,358.29793,401.70207)"
         id="g1120">
        <path
           inkscape:connector-curvature="0"
           style="fill:#ffffff;fill-opacity:1;stroke:#000000;stroke-width:1px;stroke-linecap:square;stroke-linejoin:miter;stroke-opacity:1"
           transform="translate(-1245,110)"
           id="path1116"
           d="m 1815,-151.59586 c 0,3.33334 0,6.66667 0,10" />
        <path
           inkscape:connector-curvature="0"
           style="fill:#ffffff;fill-opacity:1;stroke:#000000;stroke-width:1px;stroke-linecap:square;stroke-linejoin:miter;stroke-opacity:1"
           d="m 1805,-146.59586 -10,-5 v 10 z"
           sodipodi:nodetypes="cccc"
           id="path1118"
           transform="translate(-1235,110)" />
      </g>
    </g>
    <g
       id="g1786"
       transform="translate(50)">
      <circle
         r="10"
         cy="190"
         cx="145"
         style="font-style:normal;font-variant:normal;font-weight:normal;font-stretch:normal;font-size:12px;line-height:125%;font-family:'Nimbus Roman No9 L';text-align:start;writing-mode:lr-tb;text-anchor:start;display:inline;fill:#ffffff;fill-opacity:1;stroke:#000000;stroke-width:1.333;stroke-linecap:round;stroke-linejoin:round;stroke-miterlimit:4;stroke-dasharray:none;stroke-dashoffset:0;stroke-opacity:1"
         id="path5540"
         transform="rotate(90)" />
      <g
         style="display:inline;stroke:#000000;stroke-width:0.358894;stroke-linecap:round;stroke-miterlimit:4;stroke-dasharray:none;stroke-opacity:1"
         transform="matrix(2.2281693,0,0,-3.4843362,-197,145.0065)"
         id="g5536">
        <path
           id="path5538"
           d="M 0,0 C 0.201843,0.201843 0.403515,0.403513 0.609067,0.572102 0.775441,0.70856 0.942986,0.82222 1.115166,0.897984 1.266222,0.964453 1.416861,1 1.570796,1 1.724745,1 1.875396,0.964447 2.026464,0.897968 2.198618,0.822209 2.366139,0.708567 2.532489,0.572133 2.738053,0.403537 2.939738,0.201855 3.141593,0 3.343447,-0.201855 3.545131,-0.403536 3.750695,-0.572132 3.917046,-0.708566 4.084568,-0.822209 4.256722,-0.897968 4.40779,-0.964447 4.558441,-1 4.712389,-1 4.866337,-1 5.016988,-0.964447 5.168055,-0.897968 5.340209,-0.82221 5.50773,-0.708567 5.67408,-0.572134 5.879645,-0.403537 6.08133,-0.201855 6.283185,0"
           inkscape:connector-curvature="0"
           style="fill:none;stroke:#000000;stroke-width:0.358894;stroke-linecap:round;stroke-miterlimit:4;stroke-dasharray:none;stroke-opacity:1" />
      </g>
      <g
         style="font-style:normal;font-variant:normal;font-weight:normal;font-stretch:normal;font-size:16.5px;line-height:125%;font-family:'Nimbus Roman No9 L';text-align:start;writing-mode:lr-tb;text-anchor:start;display:inline;stroke:#000000;stroke-opacity:1"
         transform="matrix(0,0.7272727,-0.7272727,0,-365.91427,124.45454)"
         id="g3146">
        <path
           inkscape:connector-curvature="0"
           style="font-style:normal;font-variant:normal;font-weight:normal;font-stretch:normal;font-size:16.5px;line-height:125%;font-family:'Nimbus Roman No9 L';text-align:start;writing-mode:lr-tb;text-anchor:start;fill:none;stroke:#000000;stroke-width:1px;stroke-linecap:butt;stroke-linejoin:miter;stroke-opacity:1"
           d="m 9.5,-274.09586 v -10"
           sodipodi:nodetypes="cc"
           id="path3148"
           transform="translate(10.5,17.500004)" />
        <path
           inkscape:connector-curvature="0"
           style="font-style:normal;font-variant:normal;font-weight:normal;font-stretch:normal;font-size:16.5px;line-height:125%;font-family:'Nimbus Roman No9 L';text-align:start;writing-mode:lr-tb;text-anchor:start;display:inline;fill:none;stroke:#000000;stroke-width:1px;stroke-linecap:butt;stroke-linejoin:miter;stroke-opacity:1"
           d="m 19.999996,-279.59586 v 10"
           sodipodi:nodetypes="cc"
           id="path3150"
           transform="rotate(-90,26.5,-268.09586)" />
      </g>
      <path
         inkscape:connector-curvature="0"
         style="font-style:normal;font-variant:normal;font-weight:normal;font-stretch:normal;font-size:16.5px;line-height:125%;font-family:'Nimbus Roman No9 L';text-align:start;writing-mode:lr-tb;text-anchor:start;display:inline;fill:none;stroke:#000000;stroke-width:0.727273px;stroke-linecap:butt;stroke-linejoin:miter;stroke-opacity:1"
         d="m -200.70089,138.99997 h -7.27272"
         sodipodi:nodetypes="cc"
         id="path3178" />
      <circle
         r="10"
         cy="190"
         cx="170"
         transform="rotate(90)"
         id="path3454"
         style="font-style:normal;font-variant:normal;font-weight:normal;font-stretch:normal;font-size:12px;line-height:125%;font-family:'Nimbus Roman No9 L';text-align:start;writing-mode:lr-tb;text-anchor:start;display:inline;fill:#ffffff;fill-opacity:1;stroke:#000000;stroke-width:1.333;stroke-linecap:round;stroke-linejoin:round;stroke-miterlimit:4;stroke-dasharray:none;stroke-dashoffset:0;stroke-opacity:1" />
      <g
         id="g3450"
         transform="matrix(2.2281693,0,0,-3.4843362,-197,170.00651)"
         style="display:inline;stroke:#000000;stroke-width:0.358894;stroke-linecap:round;stroke-miterlimit:4;stroke-dasharray:none;stroke-opacity:1">
        <path
           style="fill:none;stroke:#000000;stroke-width:0.358894;stroke-linecap:round;stroke-miterlimit:4;stroke-dasharray:none;stroke-opacity:1"
           inkscape:connector-curvature="0"
           d="M 0,0 C 0.201843,0.201843 0.403515,0.403513 0.609067,0.572102 0.775441,0.70856 0.942986,0.82222 1.115166,0.897984 1.266222,0.964453 1.416861,1 1.570796,1 1.724745,1 1.875396,0.964447 2.026464,0.897968 2.198618,0.822209 2.366139,0.708567 2.532489,0.572133 2.738053,0.403537 2.939738,0.201855 3.141593,0 3.343447,-0.201855 3.545131,-0.403536 3.750695,-0.572132 3.917046,-0.708566 4.084568,-0.822209 4.256722,-0.897968 4.40779,-0.964447 4.558441,-1 4.712389,-1 4.866337,-1 5.016988,-0.964447 5.168055,-0.897968 5.340209,-0.82221 5.50773,-0.708567 5.67408,-0.572134 5.879645,-0.403537 6.08133,-0.201855 6.283185,0"
           id="path3452" />
      </g>
      <g
         id="g3456"
         transform="matrix(0,0.7272727,-0.7272727,0,-365.91427,149.45455)"
         style="font-style:normal;font-variant:normal;font-weight:normal;font-stretch:normal;font-size:16.5px;line-height:125%;font-family:'Nimbus Roman No9 L';text-align:start;writing-mode:lr-tb;text-anchor:start;display:inline;stroke:#000000;stroke-opacity:1">
        <path
           transform="translate(10.5,17.500004)"
           id="path3458"
           sodipodi:nodetypes="cc"
           d="m 9.5,-274.09586 v -10"
           style="font-style:normal;font-variant:normal;font-weight:normal;font-stretch:normal;font-size:16.5px;line-height:125%;font-family:'Nimbus Roman No9 L';text-align:start;writing-mode:lr-tb;text-anchor:start;fill:none;stroke:#000000;stroke-width:1px;stroke-linecap:butt;stroke-linejoin:miter;stroke-opacity:1"
           inkscape:connector-curvature="0" />
        <path
           transform="rotate(-90,26.5,-268.09586)"
           id="path3460"
           sodipodi:nodetypes="cc"
           d="m 19.999996,-279.59586 v 10"
           style="font-style:normal;font-variant:normal;font-weight:normal;font-stretch:normal;font-size:16.5px;line-height:125%;font-family:'Nimbus Roman No9 L';text-align:start;writing-mode:lr-tb;text-anchor:start;display:inline;fill:none;stroke:#000000;stroke-width:1px;stroke-linecap:butt;stroke-linejoin:miter;stroke-opacity:1"
           inkscape:connector-curvature="0" />
      </g>
      <path
         id="path3462"
         sodipodi:nodetypes="cc"
         d="m -200.70089,163.99998 h -7.27272"
         style="font-style:normal;font-variant:normal;font-weight:normal;font-stretch:normal;font-size:16.5px;line-height:125%;font-family:'Nimbus Roman No9 L';text-align:start;writing-mode:lr-tb;text-anchor:start;display:inline;fill:none;stroke:#000000;stroke-width:0.727273px;stroke-linecap:butt;stroke-linejoin:miter;stroke-opacity:1"
         inkscape:connector-curvature="0" />
      <path
         inkscape:connector-curvature="0"
         inkscape:export-ydpi="300"
         inkscape:export-xdpi="300"
         inkscape:export-filename="/home/mhinkkan/Desktop/testi.png"
         id="path3466"
         sodipodi:nodetypes="cc"
         d="m -200,170 h -15"
         style="display:inline;fill:none;stroke:#000000;stroke-width:1px;stroke-linecap:round;stroke-linejoin:miter;stroke-opacity:1;marker-start:none;marker-mid:none;marker-end:url(#marker3314)" />
      <circle
         r="10"
         cy="190"
         cx="195"
         style="font-style:normal;font-variant:normal;font-weight:normal;font-stretch:normal;font-size:12px;line-height:125%;font-family:'Nimbus Roman No9 L';text-align:start;writing-mode:lr-tb;text-anchor:start;display:inline;fill:#ffffff;fill-opacity:1;stroke:#000000;stroke-width:1.333;stroke-linecap:round;stroke-linejoin:round;stroke-miterlimit:4;stroke-dasharray:none;stroke-dashoffset:0;stroke-opacity:1"
         id="path3713"
         transform="rotate(90)" />
      <g
         style="display:inline;stroke:#000000;stroke-width:0.358894;stroke-linecap:round;stroke-miterlimit:4;stroke-dasharray:none;stroke-opacity:1"
         transform="matrix(2.2281693,0,0,-3.4843362,-197,195.00651)"
         id="g3709">
        <path
           id="path3711"
           d="M 0,0 C 0.201843,0.201843 0.403515,0.403513 0.609067,0.572102 0.775441,0.70856 0.942986,0.82222 1.115166,0.897984 1.266222,0.964453 1.416861,1 1.570796,1 1.724745,1 1.875396,0.964447 2.026464,0.897968 2.198618,0.822209 2.366139,0.708567 2.532489,0.572133 2.738053,0.403537 2.939738,0.201855 3.141593,0 3.343447,-0.201855 3.545131,-0.403536 3.750695,-0.572132 3.917046,-0.708566 4.084568,-0.822209 4.256722,-0.897968 4.40779,-0.964447 4.558441,-1 4.712389,-1 4.866337,-1 5.016988,-0.964447 5.168055,-0.897968 5.340209,-0.82221 5.50773,-0.708567 5.67408,-0.572134 5.879645,-0.403537 6.08133,-0.201855 6.283185,0"
           inkscape:connector-curvature="0"
           style="fill:none;stroke:#000000;stroke-width:0.358894;stroke-linecap:round;stroke-miterlimit:4;stroke-dasharray:none;stroke-opacity:1" />
      </g>
      <g
         style="font-style:normal;font-variant:normal;font-weight:normal;font-stretch:normal;font-size:16.5px;line-height:125%;font-family:'Nimbus Roman No9 L';text-align:start;writing-mode:lr-tb;text-anchor:start;display:inline;stroke:#000000;stroke-opacity:1"
         transform="matrix(0,0.7272727,-0.7272727,0,-365.91427,174.45455)"
         id="g3715">
        <path
           inkscape:connector-curvature="0"
           style="font-style:normal;font-variant:normal;font-weight:normal;font-stretch:normal;font-size:16.5px;line-height:125%;font-family:'Nimbus Roman No9 L';text-align:start;writing-mode:lr-tb;text-anchor:start;fill:none;stroke:#000000;stroke-width:1px;stroke-linecap:butt;stroke-linejoin:miter;stroke-opacity:1"
           d="m 9.5,-274.09586 v -10"
           sodipodi:nodetypes="cc"
           id="path3717"
           transform="translate(10.5,17.500004)" />
        <path
           inkscape:connector-curvature="0"
           style="font-style:normal;font-variant:normal;font-weight:normal;font-stretch:normal;font-size:16.5px;line-height:125%;font-family:'Nimbus Roman No9 L';text-align:start;writing-mode:lr-tb;text-anchor:start;display:inline;fill:none;stroke:#000000;stroke-width:1px;stroke-linecap:butt;stroke-linejoin:miter;stroke-opacity:1"
           d="m 19.999996,-279.59586 v 10"
           sodipodi:nodetypes="cc"
           id="path3719"
           transform="rotate(-90,26.5,-268.09586)" />
      </g>
      <path
         inkscape:connector-curvature="0"
         style="font-style:normal;font-variant:normal;font-weight:normal;font-stretch:normal;font-size:16.5px;line-height:125%;font-family:'Nimbus Roman No9 L';text-align:start;writing-mode:lr-tb;text-anchor:start;display:inline;fill:none;stroke:#000000;stroke-width:0.727273px;stroke-linecap:butt;stroke-linejoin:miter;stroke-opacity:1"
         d="m -200.70089,188.99998 h -7.27272"
         sodipodi:nodetypes="cc"
         id="path3721" />
      <path
         style="display:inline;fill:none;stroke:#000000;stroke-width:1px;stroke-linecap:round;stroke-linejoin:miter;stroke-opacity:1;marker-start:none;marker-mid:none;marker-end:none"
         d="m -200,195 h -15 v -50 h 15"
         sodipodi:nodetypes="cccc"
         id="path3725"
         inkscape:export-filename="/home/mhinkkan/Desktop/testi.png"
         inkscape:export-xdpi="300"
         inkscape:export-ydpi="300"
         inkscape:connector-curvature="0" />
    </g>
    <path
       inkscape:connector-curvature="0"
       style="font-style:normal;font-variant:normal;font-weight:normal;font-stretch:normal;font-size:12px;line-height:125%;font-family:'Bitstream Vera Sans';text-align:start;writing-mode:lr-tb;text-anchor:start;display:inline;fill:none;stroke:#000000;stroke-width:1.333;stroke-linecap:round;stroke-linejoin:round;stroke-miterlimit:4;stroke-dasharray:none;stroke-opacity:1"
       d="m -10,130 c 0,-7 -10,-7 -10,0 0,-7 -10,-7 -10,0 0,-7 -10,-7 -10,0"
       sodipodi:nodetypes="cccc"
       id="path1355" />
    <path
       inkscape:connector-curvature="0"
       inkscape:export-ydpi="300"
       inkscape:export-xdpi="300"
       inkscape:export-filename="/home/mhinkkan/Desktop/testi.png"
       id="path1357"
       sodipodi:nodetypes="cc"
       d="M 22.297503,129.99999 H -9.9893946"
       style="display:inline;fill:none;stroke:#000000;stroke-width:0.999997px;stroke-linecap:round;stroke-linejoin:miter;stroke-opacity:1;marker-start:none;marker-mid:none;marker-end:none" />
    <path
       inkscape:connector-curvature="0"
       style="display:inline;fill:none;stroke:#000000;stroke-width:1px;stroke-linecap:butt;stroke-linejoin:miter;stroke-opacity:1;marker-start:url(#Arrow2Mstart);marker-mid:none"
       d="M -45,205 V 135"
       sodipodi:nodetypes="cc"
       id="path3533-0-9-9-2-8-4-41"
       inkscape:export-filename="C:\Documents and Settings\mhinkkan\Desktop\testi.png"
       inkscape:export-xdpi="300"
       inkscape:export-ydpi="300" />
    <circle
       style="display:inline;fill:#ffffff;fill-opacity:1;stroke:#000000;stroke-width:0.5;stroke-miterlimit:4;stroke-dasharray:none;stroke-opacity:1"
       id="path8585"
       cx="25"
       cy="130"
       r="2" />
    <circle
       style="display:inline;fill:#ffffff;fill-opacity:1;stroke:#000000;stroke-width:0.5;stroke-miterlimit:4;stroke-dasharray:none;stroke-opacity:1"
       id="circle2223"
       cx="25"
       cy="210"
       r="2" />
    <path
       inkscape:connector-curvature="0"
       style="display:inline;fill:none;stroke:#000000;stroke-width:1px;stroke-linecap:butt;stroke-linejoin:miter;stroke-opacity:1;marker-start:url(#Arrow2Mstart);marker-mid:none"
       d="M 10,130 H 7.5"
       sodipodi:nodetypes="cc"
       id="path2225"
       inkscape:export-filename="C:\Documents and Settings\mhinkkan\Desktop\testi.png"
       inkscape:export-xdpi="300"
       inkscape:export-ydpi="300" />
    <path
       style="fill:none;stroke:#000004;stroke-width:0.999997;stroke-linecap:butt;stroke-dasharray:none"
       d="M 22.999999,209.99999 -99.999999,210 -100,130 h 37.5"
       id="path1"
       sodipodi:nodetypes="cccc" />
    <path
       style="fill:none;stroke:#000004;stroke-width:0.999999;stroke-linecap:round;stroke-dasharray:none"
       d="m -57.957654,130 h 17.957653"
       id="path4" />
    <path
       inkscape:connector-curvature="0"
       style="display:inline;fill:none;stroke:#000000;stroke-width:1px;stroke-linecap:butt;stroke-linejoin:miter;stroke-opacity:1;marker-start:url(#Arrow2Mstart-9);marker-mid:none"
       d="M 25,205 V 135"
       sodipodi:nodetypes="cc"
       id="path2221"
       inkscape:export-filename="C:\Documents and Settings\mhinkkan\Desktop\testi.png"
       inkscape:export-xdpi="300"
       inkscape:export-ydpi="300" />
    <g
       style="display:inline;fill:#ffffff;fill-opacity:1;stroke:#000000;stroke-linecap:square;stroke-linejoin:miter;stroke-opacity:1"
       transform="rotate(-90,323.29793,386.70207)"
       id="g5849-4-4-0-2-3-4-2">
      <path
         inkscape:connector-curvature="0"
         style="fill:#ffffff;fill-opacity:1;stroke:#000000;stroke-width:1px;stroke-linecap:square;stroke-linejoin:miter;stroke-opacity:1"
         transform="translate(-1245,110)"
         id="path5851-4-1-0-5-3-3-3"
         d="m 1815,-151.59586 c 0,3.33334 0,6.66667 0,10" />
      <path
         inkscape:connector-curvature="0"
         style="fill:#ffffff;fill-opacity:1;stroke:#000000;stroke-width:1px;stroke-linecap:square;stroke-linejoin:miter;stroke-opacity:1"
         d="m 1805,-146.59586 -10,-5 v 10 z"
         sodipodi:nodetypes="cccc"
         id="path5853-9-2-4-9-2-73-4"
         transform="translate(-1235,110)" />
    </g>
    <g
       style="display:inline;fill:#ffffff;fill-opacity:1;stroke:#000000;stroke-linecap:square;stroke-linejoin:miter;stroke-opacity:1"
       transform="rotate(-90,348.29793,411.70207)"
       id="g1128">
      <path
         inkscape:connector-curvature="0"
         style="fill:#ffffff;fill-opacity:1;stroke:#000000;stroke-width:1px;stroke-linecap:square;stroke-linejoin:miter;stroke-opacity:1"
         transform="translate(-1245,110)"
         id="path1124"
         d="m 1815,-151.59586 c 0,3.33334 0,6.66667 0,10" />
      <path
         inkscape:connector-curvature="0"
         style="fill:#ffffff;fill-opacity:1;stroke:#000000;stroke-width:1px;stroke-linecap:square;stroke-linejoin:miter;stroke-opacity:1"
         d="m 1805,-146.59586 -10,-5 v 10 z"
         sodipodi:nodetypes="cccc"
         id="path1126"
         transform="translate(-1235,110)" />
    </g>
    <g
       id="g12"
       transform="matrix(1.33333,0,0,1.33333,-32.656648,110.3965)"
       ns3:version="1.12.0"
       ns3:texconverter="pdflatex"
       ns3:pdfconverter="inkscape"
       ns3:text="$\\Ldc$"
       ns3:preamble="/home/mhinkkan/GitHub/motulator/docs/source/inkscape_textext_preamble.sty"
       ns3:scale="1.0"
       ns3:alignment="bottom center"
       ns3:inkscapeversion="1.2.2"
       ns3:jacobian_sqrt="1.33333"
       style="stroke-width:0">
      <defs
         id="defs4936"
         style="stroke-width:0" />
      <g
         fill="#000000"
         fill-opacity="1"
         id="g370"
         transform="translate(-155.024,-129.902)"
         style="stroke-width:0">
        <g
           transform="translate(155.102,135.761)"
           id="g5617"
           style="stroke-width:0">
          <path
             d="m 5.015625,-1.609375 -0.1875,-0.046875 c -0.3125,0.640625 -0.546875,0.921875 -0.9375,1.125 -0.3125,0.15625 -0.6875,0.203125 -1.484375,0.203125 -0.671875,0 -0.890625,-0.0625 -0.890625,-0.296875 0,-0.078125 0.03125,-0.265625 0.09375,-0.453125 l 1.09375,-3.96875 c 0.140625,-0.453125 0.375,-0.625 0.90625,-0.671875 v -0.140625 h -2.4375 v 0.140625 c 0.5625,0.0625 0.6875,0.125 0.6875,0.390625 0,0.140625 -0.03125,0.3125 -0.09375,0.5625 L 0.65625,-0.8125 C 0.5,-0.28125 0.4375,-0.234375 -0.078125,-0.140625 V 0 H 4.5 Z m 0,0"
             id="path3505"
             style="stroke-width:0" />
        </g>
      </g>
      <g
         fill="#000000"
         fill-opacity="1"
         id="g5030"
         transform="translate(-155.024,-129.902)"
         style="stroke-width:0">
        <g
           transform="translate(160.518,137.125)"
           id="g9833"
           style="stroke-width:0">
          <path
             d="M 3.234375,-0.28125 V -0.375 c -0.125,0 -0.140625,0 -0.15625,0 -0.234375,0 -0.28125,-0.078125 -0.28125,-0.375 V -4.484375 L 2.75,-4.5 C 2.4375,-4.375 2.203125,-4.3125 1.796875,-4.203125 V -4.09375 C 1.84375,-4.109375 1.875,-4.109375 1.9375,-4.109375 c 0.234375,0 0.296875,0.078125 0.296875,0.34375 V -2.75 c -0.25,-0.203125 -0.421875,-0.28125 -0.6875,-0.28125 -0.75,0 -1.375,0.75 -1.375,1.6875 0,0.84375 0.5,1.40625 1.21875,1.40625 0.375,0 0.625,-0.125 0.84375,-0.4375 V 0.046875 L 2.265625,0.0625 Z m -1,-0.390625 c 0,0.046875 -0.046875,0.125 -0.109375,0.203125 -0.125,0.125 -0.28125,0.1875 -0.46875,0.1875 -0.546875,0 -0.90625,-0.515625 -0.90625,-1.328125 0,-0.75 0.3125,-1.234375 0.8125,-1.234375 0.359375,0 0.671875,0.3125 0.671875,0.65625 z m 0,0"
             id="path825"
             style="stroke-width:0" />
        </g>
        <g
           transform="translate(163.806,137.125)"
           id="g3615"
           style="stroke-width:0">
          <path
             d="M 2.703125,-0.96875 2.625,-1.03125 c -0.328125,0.46875 -0.5625,0.625 -0.9375,0.625 -0.609375,0 -1.015625,-0.53125 -1.015625,-1.28125 0,-0.6875 0.359375,-1.140625 0.890625,-1.140625 0.234375,0 0.328125,0.0625 0.390625,0.3125 L 2,-2.375 c 0.046875,0.1875 0.171875,0.296875 0.3125,0.296875 0.171875,0 0.3125,-0.125 0.3125,-0.265625 0,-0.375 -0.46875,-0.6875 -1.015625,-0.6875 -0.3125,0 -0.625,0.125 -0.890625,0.34375 -0.359375,0.296875 -0.546875,0.75 -0.546875,1.296875 0,0.84375 0.515625,1.453125 1.25,1.453125 0.28125,0 0.53125,-0.09375 0.75,-0.265625 C 2.375,-0.375 2.5,-0.5625 2.703125,-0.96875 Z m 0,0"
             id="path8024"
             style="stroke-width:0" />
        </g>
      </g>
    </g>
    <g
       id="g23"
       transform="matrix(1.33333,0,0,1.33333,3.8719541,113.629)"
       ns3:version="1.12.0"
       ns3:texconverter="pdflatex"
       ns3:pdfconverter="inkscape"
       ns3:text="$\\iL$"
       ns3:preamble="/home/mhinkkan/GitHub/motulator/docs/source/inkscape_textext_preamble.sty"
       ns3:scale="1.0"
       ns3:alignment="bottom center"
       ns3:inkscapeversion="1.2.2"
       ns3:jacobian_sqrt="1.33333"
       style="stroke-width:0">
      <defs
         id="defs7819"
         style="stroke-width:0" />
      <g
         fill="#000000"
         fill-opacity="1"
         id="g3406"
         transform="translate(-154.948,-129.995)"
         style="stroke-width:0">
        <g
           transform="translate(154.511,135.761)"
           id="g5109"
           style="stroke-width:0">
          <path
             d="m 2.109375,-0.921875 -0.125,-0.09375 c -0.375,0.5 -0.578125,0.6875 -0.734375,0.6875 -0.0625,0 -0.140625,-0.0625 -0.140625,-0.125 0,-0.140625 0.09375,-0.421875 0.140625,-0.59375 L 2.046875,-3.9375 2.015625,-3.953125 c -0.90625,0.171875 -1.078125,0.1875 -1.4375,0.21875 v 0.140625 c 0.484375,0.015625 0.5625,0.046875 0.5625,0.21875 0,0.078125 -0.015625,0.234375 -0.078125,0.390625 l -0.421875,1.59375 C 0.5,-0.859375 0.4375,-0.59375 0.4375,-0.40625 c 0,0.328125 0.140625,0.5 0.421875,0.5 0.421875,0 0.734375,-0.265625 1.25,-1.015625 z M 2.46875,-5.28125 c 0,-0.25 -0.203125,-0.484375 -0.4375,-0.484375 -0.25,0 -0.421875,0.203125 -0.421875,0.46875 0,0.296875 0.171875,0.484375 0.421875,0.484375 0.234375,0 0.4375,-0.203125 0.4375,-0.46875 z m 0,0"
             id="path874"
             style="stroke-width:0" />
        </g>
      </g>
      <g
         fill="#000000"
         fill-opacity="1"
         id="g1338"
         transform="translate(-154.948,-129.995)"
         style="stroke-width:0">
        <g
           transform="translate(157.272,137.106)"
           id="g4030"
           style="stroke-width:0">
          <path
             d="M 3.9375,-1.140625 H 3.765625 c -0.109375,0.21875 -0.1875,0.375 -0.28125,0.484375 C 3.25,-0.375 2.890625,-0.25 2.328125,-0.25 h -0.4375 c -0.484375,0 -0.5625,-0.046875 -0.5625,-0.28125 v -3.109375 c 0,-0.46875 0.09375,-0.5625 0.609375,-0.59375 v -0.125 H 0.078125 v 0.125 c 0.484375,0.046875 0.578125,0.125 0.578125,0.59375 v 2.921875 c 0,0.46875 -0.09375,0.5625 -0.578125,0.59375 V 0 H 3.625 Z m 0,0"
             id="path3722"
             style="stroke-width:0" />
        </g>
      </g>
    </g>
    <g
       id="g33"
       transform="matrix(1.33333,0,0,1.33333,-40.133,166.41376)"
       ns3:version="1.12.0"
       ns3:texconverter="pdflatex"
       ns3:pdfconverter="inkscape"
       ns3:text="$\\udi$"
       ns3:preamble="/home/mhinkkan/GitHub/motulator/docs/source/inkscape_textext_preamble.sty"
       ns3:scale="1.0"
       ns3:alignment="middle left"
       ns3:inkscapeversion="1.2.2"
       ns3:jacobian_sqrt="1.33333"
       style="stroke-width:0">
      <defs
         id="defs3189"
         style="stroke-width:0" />
      <g
         fill="#000000"
         fill-opacity="1"
         id="g2033"
         transform="translate(-155.038,-131.808)"
         style="stroke-width:0">
        <g
           transform="translate(154.663,135.761)"
           id="g3486"
           style="stroke-width:0">
          <path
             d="m 4.265625,-0.96875 -0.125,-0.078125 c -0.484375,0.59375 -0.609375,0.703125 -0.75,0.703125 -0.0625,0 -0.09375,-0.046875 -0.09375,-0.15625 0,-0.046875 0,-0.046875 0.171875,-0.6875 L 4.171875,-3.875 H 3.5 C 3.015625,-2.546875 2.921875,-2.328125 2.515625,-1.6875 1.984375,-0.828125 1.546875,-0.375 1.25,-0.375 c -0.109375,0 -0.1875,-0.09375 -0.1875,-0.21875 0,-0.046875 0,-0.0625 0.015625,-0.09375 l 0.8125,-3.25 -0.03125,-0.015625 c -0.5,0.109375 -0.828125,0.171875 -1.34375,0.234375 v 0.125 c 0.34375,0 0.359375,0.015625 0.4375,0.0625 0.0625,0.015625 0.109375,0.09375 0.109375,0.15625 0,0.078125 -0.046875,0.3125 -0.125,0.609375 L 0.59375,-1.5 C 0.4375,-0.84375 0.375,-0.5625 0.375,-0.390625 c 0,0.328125 0.15625,0.484375 0.484375,0.484375 0.625,0 1.109375,-0.484375 2.140625,-2.203125 -0.28125,0.984375 -0.40625,1.5625 -0.40625,1.765625 0,0.265625 0.15625,0.421875 0.421875,0.421875 0.421875,0 0.625,-0.171875 1.25,-1.046875 z m 0,0"
             id="path1151"
             style="stroke-width:0" />
        </g>
      </g>
      <g
         fill="#000000"
         fill-opacity="1"
         id="g7620"
         transform="translate(-155.038,-131.808)"
         style="stroke-width:0">
        <g
           transform="translate(159.451,137.125)"
           id="g8082"
           style="stroke-width:0">
          <path
             d="M 3.234375,-0.28125 V -0.375 c -0.125,0 -0.140625,0 -0.15625,0 -0.234375,0 -0.28125,-0.078125 -0.28125,-0.375 V -4.484375 L 2.75,-4.5 C 2.4375,-4.375 2.203125,-4.3125 1.796875,-4.203125 V -4.09375 C 1.84375,-4.109375 1.875,-4.109375 1.9375,-4.109375 c 0.234375,0 0.296875,0.078125 0.296875,0.34375 V -2.75 c -0.25,-0.203125 -0.421875,-0.28125 -0.6875,-0.28125 -0.75,0 -1.375,0.75 -1.375,1.6875 0,0.84375 0.5,1.40625 1.21875,1.40625 0.375,0 0.625,-0.125 0.84375,-0.4375 V 0.046875 L 2.265625,0.0625 Z m -1,-0.390625 c 0,0.046875 -0.046875,0.125 -0.109375,0.203125 -0.125,0.125 -0.28125,0.1875 -0.46875,0.1875 -0.546875,0 -0.90625,-0.515625 -0.90625,-1.328125 0,-0.75 0.3125,-1.234375 0.8125,-1.234375 0.359375,0 0.671875,0.3125 0.671875,0.65625 z m 0,0"
             id="path2471"
             style="stroke-width:0" />
        </g>
        <g
           transform="translate(162.739,137.125)"
           id="g8558"
           style="stroke-width:0">
          <path
             d="m 1.671875,0 v -0.09375 c -0.4375,-0.03125 -0.5,-0.109375 -0.5,-0.578125 V -3 L 1.15625,-3.03125 0.125,-2.671875 V -2.5625 l 0.0625,-0.015625 c 0.078125,0 0.15625,-0.015625 0.21875,-0.015625 0.15625,0 0.21875,0.109375 0.21875,0.390625 v 1.53125 c 0,0.46875 -0.0625,0.546875 -0.515625,0.578125 V 0 Z m -0.4375,-4.15625 C 1.234375,-4.34375 1.09375,-4.5 0.90625,-4.5 c -0.1875,0 -0.34375,0.15625 -0.34375,0.34375 0,0.1875 0.15625,0.328125 0.34375,0.328125 0.1875,0 0.328125,-0.140625 0.328125,-0.328125 z m 0,0"
             id="path6644"
             style="stroke-width:0" />
        </g>
      </g>
    </g>
    <g
       id="g44"
       transform="matrix(1.33333,0,0,1.33333,28.8666,166.41376)"
       ns3:version="1.12.0"
       ns3:texconverter="pdflatex"
       ns3:pdfconverter="inkscape"
       ns3:text="$\\udc$"
       ns3:preamble="/home/mhinkkan/GitHub/motulator/docs/source/inkscape_textext_preamble.sty"
       ns3:scale="1.0"
       ns3:alignment="middle left"
       ns3:inkscapeversion="1.2.2"
       ns3:jacobian_sqrt="1.33333"
       style="stroke-width:0">
      <defs
         id="defs8990"
         style="stroke-width:0" />
      <g
         fill="#000000"
         fill-opacity="1"
         id="g8132"
         transform="translate(-155.038,-131.808)"
         style="stroke-width:0">
        <g
           transform="translate(154.663,135.761)"
           id="g5458"
           style="stroke-width:0">
          <path
             d="m 4.265625,-0.96875 -0.125,-0.078125 c -0.484375,0.59375 -0.609375,0.703125 -0.75,0.703125 -0.0625,0 -0.09375,-0.046875 -0.09375,-0.15625 0,-0.046875 0,-0.046875 0.171875,-0.6875 L 4.171875,-3.875 H 3.5 C 3.015625,-2.546875 2.921875,-2.328125 2.515625,-1.6875 1.984375,-0.828125 1.546875,-0.375 1.25,-0.375 c -0.109375,0 -0.1875,-0.09375 -0.1875,-0.21875 0,-0.046875 0,-0.0625 0.015625,-0.09375 l 0.8125,-3.25 -0.03125,-0.015625 c -0.5,0.109375 -0.828125,0.171875 -1.34375,0.234375 v 0.125 c 0.34375,0 0.359375,0.015625 0.4375,0.0625 0.0625,0.015625 0.109375,0.09375 0.109375,0.15625 0,0.078125 -0.046875,0.3125 -0.125,0.609375 L 0.59375,-1.5 C 0.4375,-0.84375 0.375,-0.5625 0.375,-0.390625 c 0,0.328125 0.15625,0.484375 0.484375,0.484375 0.625,0 1.109375,-0.484375 2.140625,-2.203125 -0.28125,0.984375 -0.40625,1.5625 -0.40625,1.765625 0,0.265625 0.15625,0.421875 0.421875,0.421875 0.421875,0 0.625,-0.171875 1.25,-1.046875 z m 0,0"
             id="path5115"
             style="stroke-width:0" />
        </g>
      </g>
      <g
         fill="#000000"
         fill-opacity="1"
         id="g2132"
         transform="translate(-155.038,-131.808)"
         style="stroke-width:0">
        <g
           transform="translate(159.451,137.125)"
           id="g515"
           style="stroke-width:0">
          <path
             d="M 3.234375,-0.28125 V -0.375 c -0.125,0 -0.140625,0 -0.15625,0 -0.234375,0 -0.28125,-0.078125 -0.28125,-0.375 V -4.484375 L 2.75,-4.5 C 2.4375,-4.375 2.203125,-4.3125 1.796875,-4.203125 V -4.09375 C 1.84375,-4.109375 1.875,-4.109375 1.9375,-4.109375 c 0.234375,0 0.296875,0.078125 0.296875,0.34375 V -2.75 c -0.25,-0.203125 -0.421875,-0.28125 -0.6875,-0.28125 -0.75,0 -1.375,0.75 -1.375,1.6875 0,0.84375 0.5,1.40625 1.21875,1.40625 0.375,0 0.625,-0.125 0.84375,-0.4375 V 0.046875 L 2.265625,0.0625 Z m -1,-0.390625 c 0,0.046875 -0.046875,0.125 -0.109375,0.203125 -0.125,0.125 -0.28125,0.1875 -0.46875,0.1875 -0.546875,0 -0.90625,-0.515625 -0.90625,-1.328125 0,-0.75 0.3125,-1.234375 0.8125,-1.234375 0.359375,0 0.671875,0.3125 0.671875,0.65625 z m 0,0"
             id="path6795"
             style="stroke-width:0" />
        </g>
        <g
           transform="translate(162.739,137.125)"
           id="g6551"
           style="stroke-width:0">
          <path
             d="M 2.703125,-0.96875 2.625,-1.03125 c -0.328125,0.46875 -0.5625,0.625 -0.9375,0.625 -0.609375,0 -1.015625,-0.53125 -1.015625,-1.28125 0,-0.6875 0.359375,-1.140625 0.890625,-1.140625 0.234375,0 0.328125,0.0625 0.390625,0.3125 L 2,-2.375 c 0.046875,0.1875 0.171875,0.296875 0.3125,0.296875 0.171875,0 0.3125,-0.125 0.3125,-0.265625 0,-0.375 -0.46875,-0.6875 -1.015625,-0.6875 -0.3125,0 -0.625,0.125 -0.890625,0.34375 -0.359375,0.296875 -0.546875,0.75 -0.546875,1.296875 0,0.84375 0.515625,1.453125 1.25,1.453125 0.28125,0 0.53125,-0.09375 0.75,-0.265625 C 2.375,-0.375 2.5,-0.5625 2.703125,-0.96875 Z m 0,0"
             id="path3621"
             style="stroke-width:0" />
        </g>
      </g>
    </g>
  </g>
</svg>
