<?xml version="1.0" encoding="UTF-8" standalone="no"?>
<svg
   width="480"
   height="175.00003"
   id="svg6781"
   version="1.1"
   inkscape:version="1.4 (e7c3feb100, 2024-10-09)"
   sodipodi:docname="im_block.svg"
   viewBox="0 0 480 175.00003"
   xmlns:inkscape="http://www.inkscape.org/namespaces/inkscape"
   xmlns:sodipodi="http://sodipodi.sourceforge.net/DTD/sodipodi-0.dtd"
   xmlns="http://www.w3.org/2000/svg"
   xmlns:svg="http://www.w3.org/2000/svg"
   xmlns:rdf="http://www.w3.org/1999/02/22-rdf-syntax-ns#"
   xmlns:cc="http://creativecommons.org/ns#"
   xmlns:dc="http://purl.org/dc/elements/1.1/"
   xmlns:ns3="http://www.iki.fi/pav/software/textext/">
  <sodipodi:namedview
     id="base"
     pagecolor="#ffffff"
     bordercolor="#666666"
     borderopacity="1.0"
     inkscape:pageopacity="0.0"
     inkscape:pageshadow="2"
     inkscape:zoom="2.8"
     inkscape:cx="197.85714"
     inkscape:cy="76.428571"
     inkscape:document-units="px"
     inkscape:current-layer="layer1"
     showgrid="true"
     inkscape:window-width="1920"
     inkscape:window-height="1131"
     inkscape:window-x="0"
     inkscape:window-y="0"
     inkscape:window-maximized="1"
     inkscape:snap-object-midpoints="true"
     inkscape:snap-intersection-paths="true"
     inkscape:snap-grids="true"
     inkscape:object-paths="true"
     inkscape:document-rotation="0"
     fit-margin-top="0"
     fit-margin-left="0"
     fit-margin-right="0"
     fit-margin-bottom="0"
     inkscape:showpageshadow="2"
     inkscape:pagecheckerboard="0"
     inkscape:deskcolor="#d1d1d1">
    <inkscape:grid
       spacingy="0.5"
       spacingx="0.5"
       snapvisiblegridlinesonly="true"
       enabled="true"
       visible="true"
       empspacing="5"
       id="grid7066"
       type="xygrid"
       originx="-95"
       originy="-784.99997"
       units="px" />
  </sodipodi:namedview>
  <defs
     id="defs6783">
    <marker
       style="overflow:visible"
       id="DotM"
       refX="0"
       refY="0"
       orient="auto"
       inkscape:stockid="DotM">
      <path
         transform="matrix(0.4,0,0,0.4,2.96,0.4)"
         style="fill-rule:evenodd;stroke:#000000;stroke-width:1pt;marker-start:none;marker-end:none"
         d="m -2.5,-1 c 0,2.76 -2.24,5 -5,5 -2.76,0 -5,-2.24 -5,-5 0,-2.76 2.24,-5 5,-5 2.76,0 5,2.24 5,5 z"
         id="path4676"
         inkscape:connector-curvature="0" />
    </marker>
    <marker
       refX="0"
       inkscape:stockid="Arrow2Mend"
       refY="0"
       orient="auto"
       id="Arrow2Mend-9"
       style="overflow:visible">
      <path
         id="path18502-9"
         d="M 8.7185878,4.0337352 -2.2072895,0.01601326 8.7185884,-4.0017078 c -1.7454984,2.3720609 -1.7354408,5.6174519 -6e-7,8.035443 z"
         transform="scale(-0.6)"
         style="font-size:12px;fill-rule:evenodd;stroke-width:0.625;stroke-linejoin:round"
         inkscape:connector-curvature="0" />
    </marker>
    <marker
       style="overflow:visible"
       id="Arrow2Mend-9-7"
       orient="auto"
       refY="0"
       inkscape:stockid="Arrow2Mend"
       refX="0">
      <path
         inkscape:connector-curvature="0"
         style="font-size:12px;fill-rule:evenodd;stroke-width:0.625;stroke-linejoin:round"
         transform="scale(-0.6)"
         d="M 8.7185878,4.0337352 -2.2072895,0.01601326 8.7185884,-4.0017078 c -1.7454984,2.3720609 -1.7354408,5.6174519 -6e-7,8.035443 z"
         id="path18502-9-5" />
    </marker>
  </defs>
  <metadata
     id="metadata6786">
    <rdf:RDF>
      <cc:Work
         rdf:about="">
        <dc:format>image/svg+xml</dc:format>
        <dc:type
           rdf:resource="http://purl.org/dc/dcmitype/StillImage" />
        <dc:title />
      </cc:Work>
    </rdf:RDF>
  </metadata>
  <g
     id="layer1"
     inkscape:groupmode="layer"
     inkscape:label="Layer 1"
     transform="translate(-95, -785)">
    <path
       style="display:inline;fill:none;stroke:#000000;stroke-width:1px;stroke-linecap:butt;stroke-linejoin:miter;stroke-opacity:1;marker-start:none;marker-end:url(#Arrow2Mend-9-7)"
       d="m 205,870.00003 h 25"
       id="path1745"
       inkscape:connector-curvature="0"
       sodipodi:nodetypes="cc" />
    <g
       id="g3079"
       transform="matrix(0,1,1,0,-550,718)">
      <path
         style="display:inline;fill:none;stroke:#000000;stroke-width:1px;stroke-linecap:butt;stroke-linejoin:miter;stroke-opacity:1;marker-start:none;marker-end:url(#Arrow2Mend-9-7)"
         d="m 159.5,830 h 25"
         id="path3067"
         inkscape:connector-curvature="0"
         sodipodi:nodetypes="cc" />
      <g
         id="g3073"
         transform="matrix(0,0.7272727,-0.7272727,0,-15.38788,807.45455)"
         style="font-style:normal;font-variant:normal;font-weight:normal;font-stretch:normal;font-size:16.5px;line-height:125%;font-family:'Nimbus Roman No9 L';text-align:start;writing-mode:lr-tb;text-anchor:start;display:inline">
        <path
           transform="translate(10.5,17.500004)"
           id="path3069"
           sodipodi:nodetypes="cc"
           d="m 9.5,-274.09586 v -10"
           style="font-style:normal;font-variant:normal;font-weight:normal;font-stretch:normal;font-size:16.5px;line-height:125%;font-family:'Nimbus Roman No9 L';text-align:start;writing-mode:lr-tb;text-anchor:start;fill:none;stroke:#000000;stroke-width:1px;stroke-linecap:butt;stroke-linejoin:miter;stroke-opacity:1"
           inkscape:connector-curvature="0" />
        <path
           transform="rotate(-90,26.5,-268.09586)"
           id="path3071"
           sodipodi:nodetypes="cc"
           d="m 19.999996,-279.59586 v 10"
           style="font-style:normal;font-variant:normal;font-weight:normal;font-stretch:normal;font-size:16.5px;line-height:125%;font-family:'Nimbus Roman No9 L';text-align:start;writing-mode:lr-tb;text-anchor:start;display:inline;fill:none;stroke:#000000;stroke-width:1px;stroke-linecap:butt;stroke-linejoin:miter;stroke-opacity:1"
           inkscape:connector-curvature="0" />
      </g>
    </g>
    <path
       style="display:inline;fill:none;stroke:#000000;stroke-width:1px;stroke-linecap:butt;stroke-linejoin:miter;stroke-opacity:1;marker-start:url(#DotM);marker-end:url(#Arrow2Mend-9)"
       d="M 335,910 V 870 H 325"
       id="path3065"
       inkscape:connector-curvature="0"
       sodipodi:nodetypes="ccc" />
    <path
       style="display:inline;fill:none;stroke:#000000;stroke-width:1px;stroke-linecap:butt;stroke-linejoin:miter;stroke-opacity:1;marker-start:url(#DotM);marker-end:url(#Arrow2Mend-9)"
       d="m 425,910 v 30 h -30"
       id="path2991"
       inkscape:connector-curvature="0"
       sodipodi:nodetypes="ccc" />
    <rect
       inkscape:export-ydpi="300"
       inkscape:export-xdpi="300"
       inkscape:export-filename="C:\Documents and Settings\mhinkkan\Desktop\testi3.png"
       height="20"
       x="375"
       y="930"
       width="20"
       id="rect2550"
       style="display:inline;fill:#ffffff;fill-opacity:1;fill-rule:nonzero;stroke:#000000;stroke-width:1.333;stroke-linecap:round;stroke-linejoin:miter;stroke-miterlimit:4;stroke-dasharray:none;stroke-dashoffset:0;stroke-opacity:1" />
    <g
       id="g2612"
       transform="matrix(1,0,0,-1,150,1865)">
      <path
         sodipodi:nodetypes="ccc"
         inkscape:connector-curvature="0"
         id="path2606"
         d="m 225,925 h -95 v 22.5"
         style="display:inline;fill:none;stroke:#000000;stroke-width:1px;stroke-linecap:butt;stroke-linejoin:miter;stroke-opacity:1;marker-end:url(#Arrow2Mend-9)" />
      <path
         inkscape:connector-curvature="0"
         style="font-style:normal;font-variant:normal;font-weight:normal;font-stretch:normal;font-size:16.5px;line-height:125%;font-family:'Nimbus Roman No9 L';text-align:start;writing-mode:lr-tb;text-anchor:start;display:inline;fill:none;stroke:#000000;stroke-width:0.727273px;stroke-linecap:butt;stroke-linejoin:miter;stroke-opacity:1"
         d="m 117.72724,939.49996 h 7.27273"
         sodipodi:nodetypes="cc"
         id="path2608" />
    </g>
    <path
       style="display:inline;fill:none;stroke:#000000;stroke-width:1px;stroke-linecap:butt;stroke-linejoin:miter;stroke-opacity:1;marker-start:none;marker-end:url(#Arrow2Mend-9-7)"
       d="M 205,830.00003 272.5,830"
       id="path4648"
       inkscape:connector-curvature="0"
       sodipodi:nodetypes="cc" />
    <path
       style="display:inline;fill:none;stroke:#000000;stroke-width:1px;stroke-linecap:butt;stroke-linejoin:miter;stroke-opacity:1;marker-start:none;marker-end:url(#Arrow2Mend-9-7)"
       d="M 287.5,830 H 305"
       id="path4636"
       inkscape:connector-curvature="0"
       sodipodi:nodetypes="cc" />
    <path
       sodipodi:nodetypes="ccc"
       inkscape:connector-curvature="0"
       id="path4760"
       d="m 375,800 h -95 v 22.5"
       style="display:inline;fill:none;stroke:#000000;stroke-width:1px;stroke-linecap:butt;stroke-linejoin:miter;stroke-opacity:1;marker-end:url(#Arrow2Mend-9)" />
    <path
       style="display:inline;fill:none;stroke:#000000;stroke-width:1px;stroke-linecap:butt;stroke-linejoin:miter;stroke-opacity:1;marker-start:url(#DotM);marker-end:url(#Arrow2Mend-9)"
       d="M 425,830 V 800 H 395"
       id="path4746"
       inkscape:connector-curvature="0"
       sodipodi:nodetypes="ccc" />
    <path
       sodipodi:nodetypes="cc"
       inkscape:connector-curvature="0"
       id="path4650"
       d="m 325,830 h 30"
       style="display:inline;fill:none;stroke:#000000;stroke-width:1px;stroke-linecap:butt;stroke-linejoin:miter;stroke-opacity:1;marker-start:none;marker-end:url(#Arrow2Mend-9-7)" />
    <rect
       style="display:inline;fill:#ffffff;fill-opacity:1;fill-rule:nonzero;stroke:#000000;stroke-width:1.333;stroke-linecap:round;stroke-linejoin:miter;stroke-miterlimit:4;stroke-dasharray:none;stroke-dashoffset:0;stroke-opacity:1"
       id="rect4620"
       width="20"
       y="810"
       x="305"
       height="40"
       inkscape:export-filename="C:\Documents and Settings\mhinkkan\Desktop\testi3.png"
       inkscape:export-xdpi="300"
       inkscape:export-ydpi="300" />
    <g
       id="g4642"
       transform="matrix(0,0.7272727,-0.7272727,0,72.612123,807.45455)"
       style="font-style:normal;font-variant:normal;font-weight:normal;font-stretch:normal;font-size:16.5px;line-height:125%;font-family:'Nimbus Roman No9 L';text-align:start;writing-mode:lr-tb;text-anchor:start;display:inline">
      <path
         transform="translate(10.5,17.500004)"
         id="path4638"
         sodipodi:nodetypes="cc"
         d="m 9.5,-274.09586 v -10"
         style="font-style:normal;font-variant:normal;font-weight:normal;font-stretch:normal;font-size:16.5px;line-height:125%;font-family:'Nimbus Roman No9 L';text-align:start;writing-mode:lr-tb;text-anchor:start;fill:none;stroke:#000000;stroke-width:1px;stroke-linecap:butt;stroke-linejoin:miter;stroke-opacity:1"
         inkscape:connector-curvature="0" />
      <path
         transform="rotate(-90,26.5,-268.09586)"
         id="path4640"
         sodipodi:nodetypes="cc"
         d="m 19.999996,-279.59586 v 10"
         style="font-style:normal;font-variant:normal;font-weight:normal;font-stretch:normal;font-size:16.5px;line-height:125%;font-family:'Nimbus Roman No9 L';text-align:start;writing-mode:lr-tb;text-anchor:start;display:inline;fill:none;stroke:#000000;stroke-width:1px;stroke-linecap:butt;stroke-linejoin:miter;stroke-opacity:1"
         inkscape:connector-curvature="0" />
    </g>
    <ellipse
       ry="7.4999976"
       rx="7.5000033"
       cy="-280"
       cx="830"
       style="font-style:normal;font-variant:normal;font-weight:normal;font-stretch:normal;font-size:12px;line-height:125%;font-family:'Nimbus Roman No9 L';text-align:start;writing-mode:lr-tb;text-anchor:start;display:inline;fill:#ffffff;fill-opacity:1;stroke:#000000;stroke-width:1.333;stroke-linecap:round;stroke-linejoin:round;stroke-miterlimit:4;stroke-dasharray:none;stroke-dashoffset:0;stroke-opacity:1"
       id="ellipse4646"
       transform="rotate(90)" />
    <rect
       inkscape:export-ydpi="300"
       inkscape:export-xdpi="300"
       inkscape:export-filename="C:\Documents and Settings\mhinkkan\Desktop\testi3.png"
       height="20"
       x="375"
       y="790"
       width="20"
       id="rect4589"
       style="display:inline;fill:#ffffff;fill-opacity:1;fill-rule:nonzero;stroke:#000000;stroke-width:1.333;stroke-linecap:round;stroke-linejoin:miter;stroke-miterlimit:4;stroke-dasharray:none;stroke-dashoffset:0;stroke-opacity:1" />
    <path
       style="display:inline;fill:none;stroke:#000000;stroke-width:1px;stroke-linecap:butt;stroke-linejoin:miter;stroke-opacity:1;marker-start:none;marker-end:url(#Arrow2Mend-9-7)"
       d="m 415,830 h 30"
       id="path4744"
       inkscape:connector-curvature="0"
       sodipodi:nodetypes="cc" />
    <path
       inkscape:connector-curvature="0"
       style="font-style:normal;font-variant:normal;font-weight:normal;font-stretch:normal;font-size:16.5px;line-height:125%;font-family:'Nimbus Roman No9 L';text-align:start;writing-mode:lr-tb;text-anchor:start;display:inline;fill:none;stroke:#000000;stroke-width:0.727273px;stroke-linecap:butt;stroke-linejoin:miter;stroke-opacity:1"
       d="m 267.72724,814.49996 h 7.27273"
       sodipodi:nodetypes="cc"
       id="path4778" />
    <path
       sodipodi:nodetypes="cc"
       inkscape:connector-curvature="0"
       id="path989"
       d="m 415,870 h 30"
       style="display:inline;fill:none;stroke:#000000;stroke-width:1px;stroke-linecap:butt;stroke-linejoin:miter;stroke-opacity:1;marker-start:none;marker-end:url(#Arrow2Mend-9-7)" />
    <rect
       style="display:inline;fill:#ffffff;fill-opacity:1;fill-rule:nonzero;stroke:#000000;stroke-width:1.333;stroke-linecap:round;stroke-linejoin:miter;stroke-miterlimit:4;stroke-dasharray:none;stroke-dashoffset:0;stroke-opacity:1"
       id="rect4748"
       width="20"
       y="-880"
       x="305"
       height="20"
       inkscape:export-filename="C:\Documents and Settings\mhinkkan\Desktop\testi3.png"
       inkscape:export-xdpi="300"
       inkscape:export-ydpi="300"
       transform="scale(1,-1)" />
    <path
       style="display:inline;fill:none;stroke:#000000;stroke-width:1px;stroke-linecap:butt;stroke-linejoin:miter;stroke-opacity:1;marker-start:none;marker-end:url(#Arrow2Mend-9-7)"
       d="M 250,870.00003 272.5,870"
       id="path965"
       inkscape:connector-curvature="0"
       sodipodi:nodetypes="cc" />
    <path
       sodipodi:nodetypes="cc"
       inkscape:connector-curvature="0"
       id="path967"
       d="M 305,870 H 287.5"
       style="display:inline;fill:none;stroke:#000000;stroke-width:1px;stroke-linecap:butt;stroke-linejoin:miter;stroke-opacity:1;marker-end:url(#Arrow2Mend-9)" />
    <g
       id="g4319"
       transform="matrix(0.75,0,0,-0.75,21.250003,1066.7716)"
       style="stroke-width:1.33333">
      <rect
         style="display:inline;fill:#ffffff;fill-opacity:1;fill-rule:nonzero;stroke:#000000;stroke-width:1.77733;stroke-linecap:round;stroke-linejoin:miter;stroke-miterlimit:4;stroke-dasharray:none;stroke-dashoffset:0;stroke-opacity:1"
         id="rect14546"
         width="20"
         y="252.36218"
         x="335"
         height="20"
         inkscape:export-filename="C:\Documents and Settings\mhinkkan\Desktop\testi3.png"
         inkscape:export-xdpi="300"
         inkscape:export-ydpi="300" />
      <path
         sodipodi:nodetypes="cc"
         inkscape:connector-curvature="0"
         id="path14552"
         d="m 340,257.36218 10,10"
         style="fill:none;stroke:#000000;stroke-width:0.8;stroke-linecap:butt;stroke-linejoin:miter;stroke-miterlimit:4;stroke-dasharray:none;stroke-opacity:1" />
      <path
         style="fill:none;stroke:#000000;stroke-width:0.8;stroke-linecap:butt;stroke-linejoin:miter;stroke-miterlimit:4;stroke-dasharray:none;stroke-opacity:1"
         d="m 350,257.36218 -10,10"
         id="path14558"
         inkscape:connector-curvature="0"
         sodipodi:nodetypes="cc" />
    </g>
    <g
       id="g1140" />
    <path
       style="display:inline;fill:none;stroke:#000000;stroke-width:1px;stroke-linecap:butt;stroke-linejoin:miter;stroke-opacity:1;marker-start:none;marker-end:url(#Arrow2Mend-9-7)"
       d="M 287.5,910 H 305"
       id="path2536"
       inkscape:connector-curvature="0"
       sodipodi:nodetypes="cc" />
    <rect
       style="display:inline;fill:#ffffff;fill-opacity:1;fill-rule:nonzero;stroke:#000000;stroke-width:1.333;stroke-linecap:round;stroke-linejoin:miter;stroke-miterlimit:4;stroke-dasharray:none;stroke-dashoffset:0;stroke-opacity:1"
       id="rect2540"
       width="20"
       y="890"
       x="305"
       height="40"
       inkscape:export-filename="C:\Documents and Settings\mhinkkan\Desktop\testi3.png"
       inkscape:export-xdpi="300"
       inkscape:export-ydpi="300" />
    <ellipse
       ry="7.4999976"
       rx="7.5000033"
       cy="-280"
       cx="910"
       style="font-style:normal;font-variant:normal;font-weight:normal;font-stretch:normal;font-size:12px;line-height:125%;font-family:'Nimbus Roman No9 L';text-align:start;writing-mode:lr-tb;text-anchor:start;display:inline;fill:#ffffff;fill-opacity:1;stroke:#000000;stroke-width:1.333;stroke-linecap:round;stroke-linejoin:round;stroke-miterlimit:4;stroke-dasharray:none;stroke-dashoffset:0;stroke-opacity:1"
       id="ellipse2548"
       transform="rotate(90)" />
    <path
       sodipodi:nodetypes="cc"
       inkscape:connector-curvature="0"
       id="path2967"
       d="m 325,910 h 30"
       style="display:inline;fill:none;stroke:#000000;stroke-width:1px;stroke-linecap:butt;stroke-linejoin:miter;stroke-opacity:1;marker-start:none;marker-end:url(#Arrow2Mend-9-7)" />
    <rect
       inkscape:export-ydpi="300"
       inkscape:export-xdpi="300"
       inkscape:export-filename="C:\Documents and Settings\mhinkkan\Desktop\testi3.png"
       height="100"
       x="355"
       y="820"
       width="60"
       id="rect4628"
       style="display:inline;fill:#ffffff;fill-opacity:1;fill-rule:nonzero;stroke:#000000;stroke-width:1.333;stroke-linecap:round;stroke-linejoin:miter;stroke-miterlimit:4;stroke-dasharray:none;stroke-dashoffset:0;stroke-opacity:1" />
    <path
       style="display:inline;fill:none;stroke:#000000;stroke-width:1px;stroke-linecap:butt;stroke-linejoin:miter;stroke-opacity:1;marker-start:none;marker-end:url(#Arrow2Mend-9-7)"
       d="m 415,910 h 30"
       id="path2989"
       inkscape:connector-curvature="0"
       sodipodi:nodetypes="cc" />
    <rect
       style="display:inline;fill:#ffffff;fill-opacity:1;fill-rule:nonzero;stroke:#000000;stroke-width:1.333;stroke-linecap:round;stroke-linejoin:miter;stroke-miterlimit:4;stroke-dasharray:none;stroke-dashoffset:0;stroke-opacity:1"
       id="rect1120"
       width="20"
       y="-880"
       x="230"
       height="20"
       inkscape:export-filename="C:\Documents and Settings\mhinkkan\Desktop\testi3.png"
       inkscape:export-xdpi="300"
       inkscape:export-ydpi="300"
       transform="scale(1,-1)" />
    <text
       xml:space="preserve"
       style="font-size:10.6667px;font-family:'Liberation Sans';-inkscape-font-specification:'Liberation Sans';text-align:center;text-anchor:middle;fill:#000000;fill-opacity:1;stroke-width:1.333;stroke-linejoin:round;stroke-dashoffset:3.15"
       x="384.70312"
       y="867.14581"
       id="text2943"><tspan
         sodipodi:role="line"
         x="384.70312"
         y="867.14581"
         id="tspan2941"
         style="font-style:normal;font-variant:normal;font-weight:normal;font-stretch:normal;font-size:10.6667px;font-family:'Liberation Sans';-inkscape-font-specification:'Liberation Sans';text-align:center;text-anchor:middle">Magnetic</tspan><tspan
         sodipodi:role="line"
         x="384.70312"
         y="880.47919"
         style="font-style:normal;font-variant:normal;font-weight:normal;font-stretch:normal;font-size:10.6667px;font-family:'Liberation Sans';-inkscape-font-specification:'Liberation Sans';text-align:center;text-anchor:middle"
         id="tspan3541">model</tspan></text>
    <g
       id="g294"
       transform="matrix(1.33333,0,0,1.33333,379.68368,795.15593)"
       ns3:version="1.12.0"
       ns3:texconverter="pdflatex"
       ns3:pdfconverter="inkscape"
       ns3:text="$\\Rs$"
       ns3:preamble="/home/mhinkkan/GitHub/motulator/docs/source/inkscape_textext_preamble.tex"
       ns3:scale="1.0"
       ns3:alignment="middle center"
       ns3:inkscapeversion="1.2.2"
       ns3:jacobian_sqrt="1.33333">
      <defs
         id="defs473" />
      <g
         fill="#000000"
         fill-opacity="1"
         id="g2026"
         transform="translate(-154.966,-129.902)">
        <g
           transform="translate(155.075,135.761)"
           id="g8493">
          <path
             d="M 5.078125,0 V -0.140625 C 4.6875,-0.171875 4.515625,-0.328125 4.34375,-0.796875 L 3.5,-2.984375 c 0.703125,-0.15625 1,-0.28125 1.3125,-0.5625 C 5.109375,-3.8125 5.28125,-4.15625 5.28125,-4.5625 c 0,-0.84375 -0.65625,-1.296875 -1.875,-1.296875 H 1.1875 v 0.140625 c 0.375,0.0625 0.421875,0.0625 0.515625,0.125 0.0625,0.046875 0.125,0.15625 0.125,0.25 0,0.109375 -0.046875,0.328125 -0.109375,0.578125 L 0.609375,-0.8125 c -0.15625,0.53125 -0.21875,0.59375 -0.71875,0.671875 V 0 h 2.1875 V -0.140625 C 1.515625,-0.21875 1.46875,-0.25 1.46875,-0.5625 c 0,-0.09375 0.015625,-0.1875 0.09375,-0.515625 l 0.515625,-1.875 L 2.65625,-2.90625 3.765625,0 Z m -0.75,-4.578125 c 0,0.890625 -0.5625,1.34375 -1.6875,1.34375 -0.171875,0 -0.234375,-0.015625 -0.46875,-0.046875 l 0.59375,-2.0625 c 0.046875,-0.1875 0.171875,-0.25 0.453125,-0.25 0.75,0 1.109375,0.34375 1.109375,1.015625 z m 0,0"
             id="path4256" />
        </g>
      </g>
      <g
         fill="#000000"
         fill-opacity="1"
         id="g7302"
         transform="translate(-154.966,-129.902)">
        <g
           transform="translate(160.644,137.106)"
           id="g2729">
          <path
             d="m 2.296875,-0.78125 c 0,-0.328125 -0.15625,-0.546875 -0.5625,-0.78125 L 1.03125,-1.984375 C 0.84375,-2.078125 0.75,-2.25 0.75,-2.421875 0.75,-2.703125 0.953125,-2.875 1.25,-2.875 c 0.375,0 0.578125,0.21875 0.71875,0.8125 h 0.109375 l -0.03125,-0.890625 h -0.09375 c -0.046875,0.046875 -0.0625,0.0625 -0.078125,0.0625 -0.046875,0 -0.109375,-0.015625 -0.1875,-0.046875 C 1.546875,-3 1.40625,-3.015625 1.25,-3.015625 c -0.546875,0 -0.921875,0.328125 -0.921875,0.8125 0,0.359375 0.21875,0.625 0.78125,0.9375 l 0.375,0.21875 c 0.234375,0.125 0.34375,0.296875 0.34375,0.5 0,0.28125 -0.203125,0.46875 -0.546875,0.46875 -0.453125,0 -0.6875,-0.25 -0.828125,-0.921875 H 0.34375 V 0.03125 H 0.421875 C 0.46875,-0.046875 0.5,-0.046875 0.578125,-0.046875 c 0.078125,0 0.140625,0 0.296875,0.046875 0.1875,0.046875 0.359375,0.0625 0.5,0.0625 0.5,0 0.921875,-0.375 0.921875,-0.84375 z m 0,0"
             id="path3670" />
        </g>
      </g>
    </g>
    <g
       id="g8"
       transform="matrix(1.33333 0 0 1.33333 252.859 858.797)"
       ns3:version="1.12.0"
       ns3:texconverter="pdflatex"
       ns3:pdfconverter="inkscape"
       ns3:text="$\\omegam$"
       ns3:preamble="/home/mhinkkan/GitHub/motulator/docs/source/inkscape_textext_preamble.tex"
       ns3:scale="1.0"
       ns3:alignment="bottom center"
       ns3:inkscapeversion="1.2.2"
       ns3:jacobian_sqrt="1.33333">
      <defs
         id="defs5170" />
      <g
         fill="#000000"
         fill-opacity="1"
         id="g5032"
         transform="translate(-154.893, -131.808)">
        <g
           transform="translate(154.69, 135.761)"
           id="g5384">
          <path
             d="m 5.984375,-2.265625 c 0,-0.9375 -0.609375,-1.609375 -0.6875,-1.6875 H 5 c 0.0625,0.109375 0.28125,0.53125 0.28125,1.171875 0,1.046875 -0.6875,2.515625 -1.5625,2.515625 -0.34375,0 -0.578125,-0.1875 -0.578125,-0.515625 0,-0.890625 0.484375,-1.734375 0.484375,-1.9375 0,-0.046875 -0.015625,-0.0625 -0.046875,-0.0625 h -0.4375 c -0.265625,0 -0.0625,2.515625 -1.453125,2.515625 -0.625,0 -0.671875,-0.625 -0.671875,-0.875 0,-1.421875 1.0625,-2.625 1.234375,-2.8125 H 1.953125 c 0,0 -1.75,1.171875 -1.75,2.78125 0,0.5625 0.296875,1.265625 1.234375,1.265625 1.09375,0 1.421875,-0.90625 1.421875,-0.921875 H 2.875 C 2.875,-0.8125 2.859375,-0.75 2.859375,-0.625 c 0,0.28125 0.109375,0.71875 0.90625,0.71875 1.125,0 2.21875,-1.21875 2.21875,-2.359375 z m 0,0"
             id="path6463" />
        </g>
      </g>
      <g
         fill="#000000"
         fill-opacity="1"
         id="g3983"
         transform="translate(-154.893, -131.808)">
        <g
           transform="translate(161.065, 137.106)"
           id="g8788">
          <path
             d="M 5.09375,0 V -0.09375 L 4.921875,-0.109375 C 4.734375,-0.125 4.640625,-0.25 4.640625,-0.5 v -1.359375 c 0,-0.765625 -0.25,-1.171875 -0.765625,-1.171875 -0.375,0 -0.703125,0.171875 -1.0625,0.5625 -0.125,-0.375 -0.34375,-0.5625 -0.703125,-0.5625 -0.28125,0 -0.46875,0.09375 -1.015625,0.515625 v -0.5 L 1.046875,-3.03125 c -0.34375,0.125 -0.5625,0.203125 -0.921875,0.296875 V -2.625 c 0.078125,-0.015625 0.140625,-0.015625 0.203125,-0.015625 0.171875,0 0.234375,0.09375 0.234375,0.421875 v 1.65625 c 0,0.359375 -0.09375,0.453125 -0.453125,0.46875 V 0 H 1.5625 V -0.09375 C 1.21875,-0.109375 1.125,-0.1875 1.125,-0.4375 v -1.859375 c 0,0 0.046875,-0.078125 0.09375,-0.125 C 1.375,-2.578125 1.671875,-2.6875 1.890625,-2.6875 c 0.296875,0 0.4375,0.234375 0.4375,0.6875 v 1.4375 C 2.328125,-0.203125 2.25,-0.125 1.875,-0.09375 V 0 H 3.359375 V -0.09375 C 2.984375,-0.109375 2.875,-0.21875 2.875,-0.625 V -2.28125 C 3.078125,-2.5625 3.296875,-2.6875 3.59375,-2.6875 c 0.375,0 0.5,0.1875 0.5,0.734375 v 1.375 c 0,0.375 -0.0625,0.4375 -0.4375,0.484375 V 0 Z m 0,0"
             id="path3027" />
        </g>
      </g>
    </g>
    <g
       id="g16"
       transform="matrix(1.33333,0,0,1.33333,312.01303,817.73745)"
       ns3:version="1.12.0"
       ns3:texconverter="pdflatex"
       ns3:pdfconverter="inkscape"
       ns3:text="$\\dfrac{1}{s}$"
       ns3:preamble="/home/mhinkkan/GitHub/motulator/docs/source/inkscape_textext_preamble.tex"
       ns3:scale="1.0"
       ns3:alignment="middle center"
       ns3:inkscapeversion="1.2.2"
       ns3:jacobian_sqrt="1.33333">
      <defs
         id="defs9237" />
      <g
         fill="#000000"
         fill-opacity="1"
         id="g5088"
         transform="translate(-155.887,-126.784)">
        <g
           transform="translate(155.885,132.847)"
           id="g2131">
          <path
             d="m 3.53125,0 v -0.140625 c -0.703125,0 -0.84375,-0.09375 -0.84375,-0.515625 V -6.046875 L 2.609375,-6.0625 1,-5.25 v 0.125 c 0.109375,-0.046875 0.203125,-0.078125 0.234375,-0.09375 0.171875,-0.0625 0.3125,-0.09375 0.40625,-0.09375 0.1875,0 0.265625,0.125 0.265625,0.421875 v 4.0625 c 0,0.296875 -0.0625,0.5 -0.21875,0.578125 -0.125,0.078125 -0.25,0.109375 -0.625,0.109375 V 0 Z m 0,0"
             id="path3972" />
        </g>
      </g>
      <path
         fill="#000000"
         d="M 0,9.5777811 H 4.4804682 V 10.079781 H 0 Z"
         id="path8874" />
      <g
         fill="#000000"
         fill-opacity="1"
         id="g9206"
         transform="translate(-155.887,-126.784)">
        <g
           transform="translate(156.388,145.068)"
           id="g1814">
          <path
             d="m 2.71875,-1.0625 c 0,-0.359375 -0.1875,-0.734375 -0.609375,-1.265625 C 1.78125,-2.75 1.625,-3.015625 1.625,-3.265625 1.625,-3.5625 1.828125,-3.75 2.140625,-3.75 c 0.453125,0 0.734375,0.328125 0.8125,1.03125 h 0.15625 l 0.171875,-1.25 h -0.125 c -0.078125,0.125 -0.140625,0.171875 -0.265625,0.171875 -0.078125,0 -0.15625,-0.03125 -0.328125,-0.0625 -0.21875,-0.078125 -0.34375,-0.09375 -0.5,-0.09375 -0.65625,0 -1.078125,0.390625 -1.078125,0.984375 0,0.28125 0.1875,0.671875 0.5625,1.15625 0.34375,0.453125 0.5,0.765625 0.5,1.03125 0,0.40625 -0.265625,0.6875 -0.671875,0.6875 -0.5,0 -0.765625,-0.359375 -0.90625,-1.21875 H 0.328125 l -0.1875,1.421875 H 0.28125 c 0.09375,-0.140625 0.125,-0.1875 0.21875,-0.1875 0.09375,0 0.265625,0.046875 0.4375,0.09375 0.203125,0.0625 0.34375,0.078125 0.5,0.078125 0.75,0 1.28125,-0.484375 1.28125,-1.15625 z m 0,0"
             id="path2873" />
        </g>
      </g>
    </g>
    <g
       id="g24"
       transform="matrix(1.33333 0 0 1.33333 339.04 894.292)"
       ns3:version="1.12.0"
       ns3:texconverter="pdflatex"
       ns3:pdfconverter="inkscape"
       ns3:text="$\\psirs$"
       ns3:preamble="/home/mhinkkan/GitHub/motulator/docs/source/inkscape_textext_preamble.tex"
       ns3:scale="1.0"
       ns3:alignment="bottom center"
       ns3:inkscapeversion="1.2.2"
       ns3:jacobian_sqrt="1.33333">
      <defs
         id="defs1748" />
      <g
         fill="#000000"
         fill-opacity="1"
         id="g2663"
         transform="translate(-155.337, -129.49)">
        <g
           transform="translate(155.228, 135.761)"
           id="g9868">
          <path
             d="M 6.09375,-3.953125 V -4.25 C 5.875,-4.328125 5.6875,-4.375 5.5,-4.375 c -1.125,0 -1.15625,1.140625 -1.25,1.953125 L 4.125,-1.25 c -0.046875,0.421875 -0.28125,0.734375 -0.65625,0.859375 v -3.875 H 2.75 v 3.875 C 2.375,-0.515625 2.140625,-0.828125 2.09375,-1.25 l -0.125,-1.171875 C 1.875,-3.234375 1.84375,-4.375 0.703125,-4.375 c -0.1875,0 -0.359375,0.046875 -0.59375,0.125 v 0.296875 c 0.484375,0.09375 0.625,0.125 0.6875,0.515625 0.21875,1.59375 -0.078125,3 1.953125,3.578125 V 1.9375 H 3.46875 V 0.140625 C 5.484375,-0.4375 5.203125,-1.84375 5.421875,-3.4375 5.484375,-3.828125 5.625,-3.859375 6.09375,-3.953125 Z m 0,0"
             id="path4764" />
        </g>
      </g>
      <g
         fill="#000000"
         fill-opacity="1"
         id="g6644"
         transform="translate(-155.337, -129.49)">
        <g
           transform="translate(161.98, 132.506)"
           id="g6897">
          <path
             d="m 2.296875,-0.78125 c 0,-0.328125 -0.15625,-0.546875 -0.5625,-0.78125 L 1.03125,-1.984375 C 0.84375,-2.078125 0.75,-2.25 0.75,-2.421875 0.75,-2.703125 0.953125,-2.875 1.25,-2.875 c 0.375,0 0.578125,0.21875 0.71875,0.8125 h 0.109375 l -0.03125,-0.890625 h -0.09375 c -0.046875,0.046875 -0.0625,0.0625 -0.078125,0.0625 -0.046875,0 -0.109375,-0.015625 -0.1875,-0.046875 C 1.546875,-3 1.40625,-3.015625 1.25,-3.015625 c -0.546875,0 -0.921875,0.328125 -0.921875,0.8125 0,0.359375 0.21875,0.625 0.78125,0.9375 l 0.375,0.21875 c 0.234375,0.125 0.34375,0.296875 0.34375,0.5 0,0.28125 -0.203125,0.46875 -0.546875,0.46875 -0.453125,0 -0.6875,-0.25 -0.828125,-0.921875 H 0.34375 V 0.03125 H 0.421875 C 0.46875,-0.046875 0.5,-0.046875 0.578125,-0.046875 c 0.078125,0 0.140625,0 0.296875,0.046875 0.1875,0.046875 0.359375,0.0625 0.5,0.0625 0.5,0 0.921875,-0.375 0.921875,-0.84375 z m 0,0"
             id="path5032" />
        </g>
      </g>
      <g
         fill="#000000"
         fill-opacity="1"
         id="g46"
         transform="translate(-155.337, -129.49)">
        <g
           transform="translate(161.98, 138.053)"
           id="g1614">
          <path
             d="m 2.203125,-2.671875 c 0,-0.21875 -0.140625,-0.359375 -0.359375,-0.359375 -0.28125,0 -0.46875,0.15625 -0.796875,0.625 V -3.015625 L 1.015625,-3.03125 C 0.671875,-2.875 0.4375,-2.796875 0.046875,-2.671875 V -2.5625 c 0.09375,-0.015625 0.15625,-0.03125 0.234375,-0.03125 0.15625,0 0.21875,0.109375 0.21875,0.390625 v 1.65625 c 0,0.328125 -0.046875,0.375 -0.46875,0.453125 V 0 h 1.578125 v -0.09375 c -0.4375,-0.03125 -0.5625,-0.125 -0.5625,-0.5 v -1.484375 c 0,-0.203125 0.28125,-0.53125 0.46875,-0.53125 0.03125,0 0.09375,0.03125 0.171875,0.09375 0.109375,0.09375 0.171875,0.140625 0.265625,0.140625 0.15625,0 0.25,-0.125 0.25,-0.296875 z m 0,0"
             id="path5455" />
        </g>
      </g>
    </g>
    <g
       id="g37"
       transform="matrix(1.33333,0,0,1.33333,338.0395,814.2095)"
       ns3:version="1.12.0"
       ns3:texconverter="pdflatex"
       ns3:pdfconverter="inkscape"
       ns3:text="$\\psiss$"
       ns3:preamble="/home/mhinkkan/GitHub/motulator/docs/source/inkscape_textext_preamble.tex"
       ns3:scale="1.0"
       ns3:alignment="bottom center"
       ns3:inkscapeversion="1.2.2"
       ns3:jacobian_sqrt="1.33333">
      <defs
         id="defs6248" />
      <g
         fill="#000000"
         fill-opacity="1"
         id="g8810"
         transform="translate(-155.337,-129.49)">
        <g
           transform="translate(155.228,135.761)"
           id="g7612">
          <path
             d="M 6.09375,-3.953125 V -4.25 C 5.875,-4.328125 5.6875,-4.375 5.5,-4.375 c -1.125,0 -1.15625,1.140625 -1.25,1.953125 L 4.125,-1.25 c -0.046875,0.421875 -0.28125,0.734375 -0.65625,0.859375 v -3.875 H 2.75 v 3.875 C 2.375,-0.515625 2.140625,-0.828125 2.09375,-1.25 l -0.125,-1.171875 C 1.875,-3.234375 1.84375,-4.375 0.703125,-4.375 c -0.1875,0 -0.359375,0.046875 -0.59375,0.125 v 0.296875 c 0.484375,0.09375 0.625,0.125 0.6875,0.515625 0.21875,1.59375 -0.078125,3 1.953125,3.578125 V 1.9375 H 3.46875 V 0.140625 C 5.484375,-0.4375 5.203125,-1.84375 5.421875,-3.4375 5.484375,-3.828125 5.625,-3.859375 6.09375,-3.953125 Z m 0,0"
             id="path1947" />
        </g>
      </g>
      <g
         fill="#000000"
         fill-opacity="1"
         id="g636"
         transform="translate(-155.337,-129.49)">
        <g
           transform="translate(161.98,132.506)"
           id="g3137">
          <path
             d="m 2.296875,-0.78125 c 0,-0.328125 -0.15625,-0.546875 -0.5625,-0.78125 L 1.03125,-1.984375 C 0.84375,-2.078125 0.75,-2.25 0.75,-2.421875 0.75,-2.703125 0.953125,-2.875 1.25,-2.875 c 0.375,0 0.578125,0.21875 0.71875,0.8125 h 0.109375 l -0.03125,-0.890625 h -0.09375 c -0.046875,0.046875 -0.0625,0.0625 -0.078125,0.0625 -0.046875,0 -0.109375,-0.015625 -0.1875,-0.046875 C 1.546875,-3 1.40625,-3.015625 1.25,-3.015625 c -0.546875,0 -0.921875,0.328125 -0.921875,0.8125 0,0.359375 0.21875,0.625 0.78125,0.9375 l 0.375,0.21875 c 0.234375,0.125 0.34375,0.296875 0.34375,0.5 0,0.28125 -0.203125,0.46875 -0.546875,0.46875 -0.453125,0 -0.6875,-0.25 -0.828125,-0.921875 H 0.34375 V 0.03125 H 0.421875 C 0.46875,-0.046875 0.5,-0.046875 0.578125,-0.046875 c 0.078125,0 0.140625,0 0.296875,0.046875 0.1875,0.046875 0.359375,0.0625 0.5,0.0625 0.5,0 0.921875,-0.375 0.921875,-0.84375 z m 0,0"
             id="path6126" />
        </g>
      </g>
      <g
         fill="#000000"
         fill-opacity="1"
         id="g1648"
         transform="translate(-155.337,-129.49)">
        <g
           transform="translate(161.98,138.053)"
           id="g7505">
          <path
             d="m 2.296875,-0.78125 c 0,-0.328125 -0.15625,-0.546875 -0.5625,-0.78125 L 1.03125,-1.984375 C 0.84375,-2.078125 0.75,-2.25 0.75,-2.421875 0.75,-2.703125 0.953125,-2.875 1.25,-2.875 c 0.375,0 0.578125,0.21875 0.71875,0.8125 h 0.109375 l -0.03125,-0.890625 h -0.09375 c -0.046875,0.046875 -0.0625,0.0625 -0.078125,0.0625 -0.046875,0 -0.109375,-0.015625 -0.1875,-0.046875 C 1.546875,-3 1.40625,-3.015625 1.25,-3.015625 c -0.546875,0 -0.921875,0.328125 -0.921875,0.8125 0,0.359375 0.21875,0.625 0.78125,0.9375 l 0.375,0.21875 c 0.234375,0.125 0.34375,0.296875 0.34375,0.5 0,0.28125 -0.203125,0.46875 -0.546875,0.46875 -0.453125,0 -0.6875,-0.25 -0.828125,-0.921875 H 0.34375 V 0.03125 H 0.421875 C 0.46875,-0.046875 0.5,-0.046875 0.578125,-0.046875 c 0.078125,0 0.140625,0 0.296875,0.046875 0.1875,0.046875 0.359375,0.0625 0.5,0.0625 0.5,0 0.921875,-0.375 0.921875,-0.84375 z m 0,0"
             id="path2079" />
        </g>
      </g>
    </g>
    <g
       id="g47"
       transform="matrix(1.33333,0,0,1.33333,379.74618,935.1976)"
       ns3:version="1.12.0"
       ns3:texconverter="pdflatex"
       ns3:pdfconverter="inkscape"
       ns3:text="$\\Rr$"
       ns3:preamble="/home/mhinkkan/GitHub/motulator/docs/source/inkscape_textext_preamble.tex"
       ns3:scale="1.0"
       ns3:alignment="middle center"
       ns3:inkscapeversion="1.2.2"
       ns3:jacobian_sqrt="1.33333">
      <defs
         id="defs158" />
      <g
         fill="#000000"
         fill-opacity="1"
         id="g45"
         transform="translate(-154.966,-129.902)">
        <g
           transform="translate(155.075,135.761)"
           id="g6859">
          <path
             d="M 5.078125,0 V -0.140625 C 4.6875,-0.171875 4.515625,-0.328125 4.34375,-0.796875 L 3.5,-2.984375 c 0.703125,-0.15625 1,-0.28125 1.3125,-0.5625 C 5.109375,-3.8125 5.28125,-4.15625 5.28125,-4.5625 c 0,-0.84375 -0.65625,-1.296875 -1.875,-1.296875 H 1.1875 v 0.140625 c 0.375,0.0625 0.421875,0.0625 0.515625,0.125 0.0625,0.046875 0.125,0.15625 0.125,0.25 0,0.109375 -0.046875,0.328125 -0.109375,0.578125 L 0.609375,-0.8125 c -0.15625,0.53125 -0.21875,0.59375 -0.71875,0.671875 V 0 h 2.1875 V -0.140625 C 1.515625,-0.21875 1.46875,-0.25 1.46875,-0.5625 c 0,-0.09375 0.015625,-0.1875 0.09375,-0.515625 l 0.515625,-1.875 L 2.65625,-2.90625 3.765625,0 Z m -0.75,-4.578125 c 0,0.890625 -0.5625,1.34375 -1.6875,1.34375 -0.171875,0 -0.234375,-0.015625 -0.46875,-0.046875 l 0.59375,-2.0625 c 0.046875,-0.1875 0.171875,-0.25 0.453125,-0.25 0.75,0 1.109375,0.34375 1.109375,1.015625 z m 0,0"
             id="path4834" />
        </g>
      </g>
      <g
         fill="#000000"
         fill-opacity="1"
         id="g9170"
         transform="translate(-154.966,-129.902)">
        <g
           transform="translate(160.644,137.106)"
           id="g6341">
          <path
             d="m 2.203125,-2.671875 c 0,-0.21875 -0.140625,-0.359375 -0.359375,-0.359375 -0.28125,0 -0.46875,0.15625 -0.796875,0.625 V -3.015625 L 1.015625,-3.03125 C 0.671875,-2.875 0.4375,-2.796875 0.046875,-2.671875 V -2.5625 c 0.09375,-0.015625 0.15625,-0.03125 0.234375,-0.03125 0.15625,0 0.21875,0.109375 0.21875,0.390625 v 1.65625 c 0,0.328125 -0.046875,0.375 -0.46875,0.453125 V 0 h 1.578125 v -0.09375 c -0.4375,-0.03125 -0.5625,-0.125 -0.5625,-0.5 v -1.484375 c 0,-0.203125 0.28125,-0.53125 0.46875,-0.53125 0.03125,0 0.09375,0.03125 0.171875,0.09375 0.109375,0.09375 0.171875,0.140625 0.265625,0.140625 0.15625,0 0.25,-0.125 0.25,-0.296875 z m 0,0"
             id="path8856" />
        </g>
      </g>
    </g>
    <g
       id="g55"
       transform="matrix(1.33333,0,0,1.33333,312.01303,897.73745)"
       ns3:version="1.12.0"
       ns3:texconverter="pdflatex"
       ns3:pdfconverter="inkscape"
       ns3:text="$\\dfrac{1}{s}$"
       ns3:preamble="/home/mhinkkan/GitHub/motulator/docs/source/inkscape_textext_preamble.tex"
       ns3:scale="1.0"
       ns3:alignment="middle center"
       ns3:inkscapeversion="1.2.2"
       ns3:jacobian_sqrt="1.33333">
      <defs
         id="defs50" />
      <g
         fill="#000000"
         fill-opacity="1"
         id="g52"
         transform="translate(-155.887,-126.784)">
        <g
           transform="translate(155.885,132.847)"
           id="g51">
          <path
             d="m 3.53125,0 v -0.140625 c -0.703125,0 -0.84375,-0.09375 -0.84375,-0.515625 V -6.046875 L 2.609375,-6.0625 1,-5.25 v 0.125 c 0.109375,-0.046875 0.203125,-0.078125 0.234375,-0.09375 0.171875,-0.0625 0.3125,-0.09375 0.40625,-0.09375 0.1875,0 0.265625,0.125 0.265625,0.421875 v 4.0625 c 0,0.296875 -0.0625,0.5 -0.21875,0.578125 -0.125,0.078125 -0.25,0.109375 -0.625,0.109375 V 0 Z m 0,0"
             id="path50" />
        </g>
      </g>
      <path
         fill="#000000"
         d="M 0,9.5777811 H 4.4804682 V 10.079781 H 0 Z"
         id="path52" />
      <g
         fill="#000000"
         fill-opacity="1"
         id="g54"
         transform="translate(-155.887,-126.784)">
        <g
           transform="translate(156.388,145.068)"
           id="g53">
          <path
             d="m 2.71875,-1.0625 c 0,-0.359375 -0.1875,-0.734375 -0.609375,-1.265625 C 1.78125,-2.75 1.625,-3.015625 1.625,-3.265625 1.625,-3.5625 1.828125,-3.75 2.140625,-3.75 c 0.453125,0 0.734375,0.328125 0.8125,1.03125 h 0.15625 l 0.171875,-1.25 h -0.125 c -0.078125,0.125 -0.140625,0.171875 -0.265625,0.171875 -0.078125,0 -0.15625,-0.03125 -0.328125,-0.0625 -0.21875,-0.078125 -0.34375,-0.09375 -0.5,-0.09375 -0.65625,0 -1.078125,0.390625 -1.078125,0.984375 0,0.28125 0.1875,0.671875 0.5625,1.15625 0.34375,0.453125 0.5,0.765625 0.5,1.03125 0,0.40625 -0.265625,0.6875 -0.671875,0.6875 -0.5,0 -0.765625,-0.359375 -0.90625,-1.21875 H 0.328125 l -0.1875,1.421875 H 0.28125 c 0.09375,-0.140625 0.125,-0.1875 0.21875,-0.1875 0.09375,0 0.265625,0.046875 0.4375,0.09375 0.203125,0.0625 0.34375,0.078125 0.5,0.078125 0.75,0 1.28125,-0.484375 1.28125,-1.15625 z m 0,0"
             id="path53" />
        </g>
      </g>
    </g>
    <g
       id="g63"
       transform="matrix(1.33333,0,0,1.33333,313.375,864.6146)"
       ns3:version="1.12.0"
       ns3:texconverter="pdflatex"
       ns3:pdfconverter="inkscape"
       ns3:text="$\\jj$"
       ns3:preamble="/home/mhinkkan/GitHub/motulator/docs/source/inkscape_textext_preamble.tex"
       ns3:scale="1.0"
       ns3:alignment="middle center"
       ns3:inkscapeversion="1.2.2"
       ns3:jacobian_sqrt="1.33333">
      <defs
         id="defs5725" />
      <g
         fill="#000000"
         fill-opacity="1"
         id="g9691"
         transform="translate(-154.065,-129.636)">
        <g
           transform="translate(154.69,135.761)"
           id="g1223">
          <path
             d="M 1.734375,0 V -4.09375 L 1.6875,-4.125 c -0.53125,0.203125 -0.875,0.328125 -1.40625,0.484375 V -3.5 H 0.328125 C 0.46875,-3.53125 0.59375,-3.53125 0.6875,-3.53125 0.890625,-3.53125 0.984375,-3.375 0.984375,-3 v 3.40625 c 0,0.671875 -0.03125,0.90625 -0.125,1.078125 -0.0625,0.09375 -0.1875,0.171875 -0.3125,0.171875 -0.140625,0 -0.21875,-0.0625 -0.375,-0.25 -0.15625,-0.21875 -0.28125,-0.296875 -0.4375,-0.296875 -0.203125,0 -0.359375,0.15625 -0.359375,0.359375 0,0.28125 0.34375,0.484375 0.828125,0.484375 1,0 1.53125,-0.671875 1.53125,-1.953125 z M 1.8125,-5.671875 c 0,-0.25 -0.203125,-0.453125 -0.453125,-0.453125 -0.25,0 -0.46875,0.203125 -0.46875,0.453125 0,0.265625 0.21875,0.46875 0.46875,0.46875 0.25,0 0.453125,-0.203125 0.453125,-0.46875 z m 0,0"
             id="path9970" />
        </g>
      </g>
    </g>
    <g
       id="g68"
       transform="matrix(1.33333 0 0 1.33333 234.426 866.241)"
       ns3:version="1.12.0"
       ns3:texconverter="pdflatex"
       ns3:pdfconverter="inkscape"
       ns3:text="$\\np$"
       ns3:preamble="/home/mhinkkan/GitHub/motulator/docs/source/inkscape_textext_preamble.tex"
       ns3:scale="1.0"
       ns3:alignment="middle center"
       ns3:inkscapeversion="1.2.2"
       ns3:jacobian_sqrt="1.33333">
      <defs
         id="defs443" />
      <g
         fill="#000000"
         fill-opacity="1"
         id="g8904"
         transform="translate(-154.86, -131.808)">
        <g
           transform="translate(154.735, 135.761)"
           id="g8022">
          <path
             d="M 4.25,-0.9375 4.125,-1.046875 C 4.0625,-0.96875 4,-0.890625 3.9375,-0.8125 3.671875,-0.484375 3.515625,-0.34375 3.390625,-0.34375 3.3125,-0.34375 3.25,-0.40625 3.25,-0.484375 c 0,-0.078125 0.03125,-0.234375 0.125,-0.5625 l 0.515625,-1.84375 C 3.9375,-3.078125 3.96875,-3.28125 3.96875,-3.40625 c 0,-0.328125 -0.25,-0.546875 -0.59375,-0.546875 -0.578125,0 -1.140625,0.546875 -2.0625,1.96875 L 1.90625,-3.9375 1.890625,-3.953125 0.4375,-3.671875 v 0.140625 c 0.453125,0 0.5625,0.0625 0.5625,0.234375 0,0.0625 0,0.109375 -0.015625,0.15625 L 0.125,0 h 0.671875 c 0.421875,-1.421875 0.5,-1.609375 0.890625,-2.21875 0.546875,-0.84375 1,-1.28125 1.328125,-1.28125 0.140625,0 0.21875,0.09375 0.21875,0.265625 0,0.109375 -0.046875,0.40625 -0.125,0.671875 L 2.71875,-1.078125 C 2.59375,-0.609375 2.578125,-0.5 2.578125,-0.40625 c 0,0.34375 0.125,0.484375 0.421875,0.484375 0.40625,0 0.625,-0.171875 1.25,-1.015625 z m 0,0"
             id="path8777" />
        </g>
      </g>
      <g
         fill="#000000"
         fill-opacity="1"
         id="g3625"
         transform="translate(-154.86, -131.808)">
        <g
           transform="translate(159.334, 137.106)"
           id="g1821">
          <path
             d="M 3.09375,-1.625 C 3.09375,-2.4375 2.625,-3.03125 2,-3.03125 1.625,-3.03125 1.328125,-2.859375 1.046875,-2.5 V -3.015625 L 1,-3.03125 C 0.65625,-2.890625 0.421875,-2.796875 0.0625,-2.6875 v 0.109375 C 0.125,-2.59375 0.171875,-2.59375 0.21875,-2.59375 c 0.234375,0 0.28125,0.0625 0.28125,0.375 V 0.859375 C 0.5,1.203125 0.421875,1.28125 0.03125,1.3125 V 1.421875 H 1.625 V 1.3125 C 1.125,1.296875 1.046875,1.234375 1.046875,0.8125 V -0.21875 C 1.28125,0 1.4375,0.0625 1.703125,0.0625 c 0.78125,0 1.390625,-0.734375 1.390625,-1.6875 z m -0.5625,0.25 c 0,0.734375 -0.328125,1.234375 -0.796875,1.234375 -0.3125,0 -0.6875,-0.234375 -0.6875,-0.4375 v -1.625 c 0,-0.1875 0.375,-0.421875 0.671875,-0.421875 0.484375,0 0.8125,0.5 0.8125,1.25 z m 0,0"
             id="path3210" />
        </g>
      </g>
    </g>
    <g
       id="g76"
       transform="matrix(1.33333 0 0 1.33333 206.474 858.797)"
       ns3:version="1.12.0"
       ns3:texconverter="pdflatex"
       ns3:pdfconverter="inkscape"
       ns3:text="$\\omegaM$"
       ns3:preamble="/home/mhinkkan/GitHub/motulator/docs/source/inkscape_textext_preamble.tex"
       ns3:scale="1.0"
       ns3:alignment="bottom left"
       ns3:inkscapeversion="1.2.2"
       ns3:jacobian_sqrt="1.33333">
      <defs
         id="defs6491" />
      <g
         fill="#000000"
         fill-opacity="1"
         id="g9825"
         transform="translate(-154.893, -131.808)">
        <g
           transform="translate(154.69, 135.761)"
           id="g3837">
          <path
             d="m 5.984375,-2.265625 c 0,-0.9375 -0.609375,-1.609375 -0.6875,-1.6875 H 5 c 0.0625,0.109375 0.28125,0.53125 0.28125,1.171875 0,1.046875 -0.6875,2.515625 -1.5625,2.515625 -0.34375,0 -0.578125,-0.1875 -0.578125,-0.515625 0,-0.890625 0.484375,-1.734375 0.484375,-1.9375 0,-0.046875 -0.015625,-0.0625 -0.046875,-0.0625 h -0.4375 c -0.265625,0 -0.0625,2.515625 -1.453125,2.515625 -0.625,0 -0.671875,-0.625 -0.671875,-0.875 0,-1.421875 1.0625,-2.625 1.234375,-2.8125 H 1.953125 c 0,0 -1.75,1.171875 -1.75,2.78125 0,0.5625 0.296875,1.265625 1.234375,1.265625 1.09375,0 1.421875,-0.90625 1.421875,-0.921875 H 2.875 C 2.875,-0.8125 2.859375,-0.75 2.859375,-0.625 c 0,0.28125 0.109375,0.71875 0.90625,0.71875 1.125,0 2.21875,-1.21875 2.21875,-2.359375 z m 0,0"
             id="path534" />
        </g>
      </g>
      <g
         fill="#000000"
         fill-opacity="1"
         id="g8226"
         transform="translate(-154.893, -131.808)">
        <g
           transform="translate(161.065, 137.106)"
           id="g6865">
          <path
             d="m 5.671875,0 v -0.125 c -0.46875,-0.03125 -0.5625,-0.125 -0.5625,-0.59375 v -2.921875 c 0,-0.46875 0.078125,-0.546875 0.5625,-0.59375 v -0.125 H 4.375 L 2.921875,-1.03125 1.390625,-4.359375 H 0.09375 v 0.125 c 0.53125,0.03125 0.625,0.109375 0.625,0.59375 v 2.671875 c 0,0.671875 -0.09375,0.796875 -0.640625,0.84375 V 0 H 1.625 V -0.125 C 1.125,-0.15625 1,-0.296875 1,-0.96875 V -3.625 L 2.65625,0 H 2.75 l 1.6875,-3.765625 v 2.96875 C 4.4375,-0.25 4.359375,-0.15625 3.828125,-0.125 V 0 Z m 0,0"
             id="path911" />
        </g>
      </g>
    </g>
    <g
       id="g86"
       transform="matrix(1.33333,0,0,1.33333,206.47467,815.3115)"
       ns3:version="1.12.0"
       ns3:texconverter="pdflatex"
       ns3:pdfconverter="inkscape"
       ns3:text="$\\uss$"
       ns3:preamble="/home/mhinkkan/GitHub/motulator/docs/source/inkscape_textext_preamble.tex"
       ns3:scale="1.0"
       ns3:alignment="bottom left"
       ns3:inkscapeversion="1.2.2"
       ns3:jacobian_sqrt="1.33333">
      <defs
         id="defs9872" />
      <g
         fill="#000000"
         fill-opacity="1"
         id="g8238"
         transform="translate(-154.831,-129.49)">
        <g
           transform="translate(154.69,135.761)"
           id="g4872">
          <path
             d="m 4.8125,-0.171875 v -0.21875 c -0.390625,-0.015625 -0.5,-0.125 -0.5,-0.515625 V -4.140625 H 2.515625 v 0.21875 c 0.4375,0.03125 0.546875,0.140625 0.546875,0.53125 v 2.53125 c -0.296875,0.296875 -0.46875,0.40625 -0.734375,0.40625 -0.359375,0 -0.5,-0.1875 -0.5,-0.640625 v -3.046875 h -1.6875 v 0.21875 c 0.375,0.078125 0.4375,0.15625 0.4375,0.53125 V -1.125 c 0,0.78125 0.453125,1.25 1.203125,1.25 0.46875,0 0.78125,-0.140625 1.296875,-0.59375 v 0.578125 c 0.390625,-0.125 0.59375,-0.15625 1.1875,-0.21875 z m 0,0"
             id="path2010" />
        </g>
      </g>
      <g
         fill="#000000"
         fill-opacity="1"
         id="g3611"
         transform="translate(-154.831,-129.49)">
        <g
           transform="translate(159.675,132.506)"
           id="g4211">
          <path
             d="m 2.296875,-0.78125 c 0,-0.328125 -0.15625,-0.546875 -0.5625,-0.78125 L 1.03125,-1.984375 C 0.84375,-2.078125 0.75,-2.25 0.75,-2.421875 0.75,-2.703125 0.953125,-2.875 1.25,-2.875 c 0.375,0 0.578125,0.21875 0.71875,0.8125 h 0.109375 l -0.03125,-0.890625 h -0.09375 c -0.046875,0.046875 -0.0625,0.0625 -0.078125,0.0625 -0.046875,0 -0.109375,-0.015625 -0.1875,-0.046875 C 1.546875,-3 1.40625,-3.015625 1.25,-3.015625 c -0.546875,0 -0.921875,0.328125 -0.921875,0.8125 0,0.359375 0.21875,0.625 0.78125,0.9375 l 0.375,0.21875 c 0.234375,0.125 0.34375,0.296875 0.34375,0.5 0,0.28125 -0.203125,0.46875 -0.546875,0.46875 -0.453125,0 -0.6875,-0.25 -0.828125,-0.921875 H 0.34375 V 0.03125 H 0.421875 C 0.46875,-0.046875 0.5,-0.046875 0.578125,-0.046875 c 0.078125,0 0.140625,0 0.296875,0.046875 0.1875,0.046875 0.359375,0.0625 0.5,0.0625 0.5,0 0.921875,-0.375 0.921875,-0.84375 z m 0,0"
             id="path273" />
        </g>
      </g>
      <g
         fill="#000000"
         fill-opacity="1"
         id="g156"
         transform="translate(-154.831,-129.49)">
        <g
           transform="translate(159.675,137.976)"
           id="g7405">
          <path
             d="m 2.296875,-0.78125 c 0,-0.328125 -0.15625,-0.546875 -0.5625,-0.78125 L 1.03125,-1.984375 C 0.84375,-2.078125 0.75,-2.25 0.75,-2.421875 0.75,-2.703125 0.953125,-2.875 1.25,-2.875 c 0.375,0 0.578125,0.21875 0.71875,0.8125 h 0.109375 l -0.03125,-0.890625 h -0.09375 c -0.046875,0.046875 -0.0625,0.0625 -0.078125,0.0625 -0.046875,0 -0.109375,-0.015625 -0.1875,-0.046875 C 1.546875,-3 1.40625,-3.015625 1.25,-3.015625 c -0.546875,0 -0.921875,0.328125 -0.921875,0.8125 0,0.359375 0.21875,0.625 0.78125,0.9375 l 0.375,0.21875 c 0.234375,0.125 0.34375,0.296875 0.34375,0.5 0,0.28125 -0.203125,0.46875 -0.546875,0.46875 -0.453125,0 -0.6875,-0.25 -0.828125,-0.921875 H 0.34375 V 0.03125 H 0.421875 C 0.46875,-0.046875 0.5,-0.046875 0.578125,-0.046875 c 0.078125,0 0.140625,0 0.296875,0.046875 0.1875,0.046875 0.359375,0.0625 0.5,0.0625 0.5,0 0.921875,-0.375 0.921875,-0.84375 z m 0,0"
             id="path1346" />
        </g>
      </g>
    </g>
    <g
       id="g96"
       transform="matrix(1.33333 0 0 1.33333 437.856 814.312)"
       ns3:version="1.12.0"
       ns3:texconverter="pdflatex"
       ns3:pdfconverter="inkscape"
       ns3:text="$\\iss$"
       ns3:preamble="/home/mhinkkan/GitHub/motulator/docs/source/inkscape_textext_preamble.tex"
       ns3:scale="1.0"
       ns3:alignment="bottom right"
       ns3:inkscapeversion="1.4"
       ns3:jacobian_sqrt="1.33333">
      <defs
         id="defs5879" />
      <g
         fill="#000000"
         fill-opacity="1"
         id="g9641"
         transform="translate(-154.831,-129.49)">
        <g
           transform="translate(154.69,135.761)"
           id="g847">
          <path
             d="m 2.28125,0 v -0.21875 c -0.3125,-0.046875 -0.421875,-0.171875 -0.421875,-0.5 v -3.421875 h -1.71875 v 0.21875 C 0.53125,-3.84375 0.625,-3.765625 0.625,-3.390625 V -0.75 c 0,0.359375 -0.0625,0.4375 -0.484375,0.53125 V 0 Z M 1.921875,-5.5 c 0,-0.40625 -0.3125,-0.703125 -0.6875,-0.703125 -0.390625,0 -0.703125,0.296875 -0.703125,0.703125 0,0.390625 0.3125,0.6875 0.703125,0.6875 0.375,0 0.6875,-0.296875 0.6875,-0.6875 z m 0,0"
             id="path4734" />
        </g>
      </g>
      <g
         fill="#000000"
         fill-opacity="1"
         id="g8613"
         transform="translate(-154.831,-129.49)">
        <g
           transform="translate(157.183,132.506)"
           id="g4010">
          <path
             d="m 2.296875,-0.78125 c 0,-0.328125 -0.15625,-0.546875 -0.5625,-0.78125 L 1.03125,-1.984375 C 0.84375,-2.078125 0.75,-2.25 0.75,-2.421875 0.75,-2.703125 0.953125,-2.875 1.25,-2.875 c 0.375,0 0.578125,0.21875 0.71875,0.8125 h 0.109375 l -0.03125,-0.890625 h -0.09375 c -0.046875,0.046875 -0.0625,0.0625 -0.078125,0.0625 -0.046875,0 -0.109375,-0.015625 -0.1875,-0.046875 C 1.546875,-3 1.40625,-3.015625 1.25,-3.015625 c -0.546875,0 -0.921875,0.328125 -0.921875,0.8125 0,0.359375 0.21875,0.625 0.78125,0.9375 l 0.375,0.21875 c 0.234375,0.125 0.34375,0.296875 0.34375,0.5 0,0.28125 -0.203125,0.46875 -0.546875,0.46875 -0.453125,0 -0.6875,-0.25 -0.828125,-0.921875 H 0.34375 V 0.03125 H 0.421875 C 0.46875,-0.046875 0.5,-0.046875 0.578125,-0.046875 c 0.078125,0 0.140625,0 0.296875,0.046875 0.1875,0.046875 0.359375,0.0625 0.5,0.0625 0.5,0 0.921875,-0.375 0.921875,-0.84375 z m 0,0"
             id="path6533" />
        </g>
      </g>
      <g
         fill="#000000"
         fill-opacity="1"
         id="g5360"
         transform="translate(-154.831,-129.49)">
        <g
           transform="translate(157.183,137.976)"
           id="g8867">
          <path
             d="m 2.296875,-0.78125 c 0,-0.328125 -0.15625,-0.546875 -0.5625,-0.78125 L 1.03125,-1.984375 C 0.84375,-2.078125 0.75,-2.25 0.75,-2.421875 0.75,-2.703125 0.953125,-2.875 1.25,-2.875 c 0.375,0 0.578125,0.21875 0.71875,0.8125 h 0.109375 l -0.03125,-0.890625 h -0.09375 c -0.046875,0.046875 -0.0625,0.0625 -0.078125,0.0625 -0.046875,0 -0.109375,-0.015625 -0.1875,-0.046875 C 1.546875,-3 1.40625,-3.015625 1.25,-3.015625 c -0.546875,0 -0.921875,0.328125 -0.921875,0.8125 0,0.359375 0.21875,0.625 0.78125,0.9375 l 0.375,0.21875 c 0.234375,0.125 0.34375,0.296875 0.34375,0.5 0,0.28125 -0.203125,0.46875 -0.546875,0.46875 -0.453125,0 -0.6875,-0.25 -0.828125,-0.921875 H 0.34375 V 0.03125 H 0.421875 C 0.46875,-0.046875 0.5,-0.046875 0.578125,-0.046875 c 0.078125,0 0.140625,0 0.296875,0.046875 0.1875,0.046875 0.359375,0.0625 0.5,0.0625 0.5,0 0.921875,-0.375 0.921875,-0.84375 z m 0,0"
             id="path7102" />
        </g>
      </g>
    </g>
    <g
       id="g106"
       transform="matrix(1.33333,0,0,1.33333,437.85598,894.395)"
       ns3:version="1.12.0"
       ns3:texconverter="pdflatex"
       ns3:pdfconverter="inkscape"
       ns3:text="$\\irs$"
       ns3:preamble="/home/mhinkkan/GitHub/motulator/docs/source/inkscape_textext_preamble.tex"
       ns3:scale="1.0"
       ns3:alignment="bottom right"
       ns3:inkscapeversion="1.4"
       ns3:jacobian_sqrt="1.33333">
      <defs
         id="defs2389" />
      <g
         fill="#000000"
         fill-opacity="1"
         id="g4339"
         transform="translate(-154.831,-129.49)">
        <g
           transform="translate(154.69,135.761)"
           id="g9750">
          <path
             d="m 2.28125,0 v -0.21875 c -0.3125,-0.046875 -0.421875,-0.171875 -0.421875,-0.5 v -3.421875 h -1.71875 v 0.21875 C 0.53125,-3.84375 0.625,-3.765625 0.625,-3.390625 V -0.75 c 0,0.359375 -0.0625,0.4375 -0.484375,0.53125 V 0 Z M 1.921875,-5.5 c 0,-0.40625 -0.3125,-0.703125 -0.6875,-0.703125 -0.390625,0 -0.703125,0.296875 -0.703125,0.703125 0,0.390625 0.3125,0.6875 0.703125,0.6875 0.375,0 0.6875,-0.296875 0.6875,-0.6875 z m 0,0"
             id="path7581" />
        </g>
      </g>
      <g
         fill="#000000"
         fill-opacity="1"
         id="g4701"
         transform="translate(-154.831,-129.49)">
        <g
           transform="translate(157.183,132.506)"
           id="g4033">
          <path
             d="m 2.296875,-0.78125 c 0,-0.328125 -0.15625,-0.546875 -0.5625,-0.78125 L 1.03125,-1.984375 C 0.84375,-2.078125 0.75,-2.25 0.75,-2.421875 0.75,-2.703125 0.953125,-2.875 1.25,-2.875 c 0.375,0 0.578125,0.21875 0.71875,0.8125 h 0.109375 l -0.03125,-0.890625 h -0.09375 c -0.046875,0.046875 -0.0625,0.0625 -0.078125,0.0625 -0.046875,0 -0.109375,-0.015625 -0.1875,-0.046875 C 1.546875,-3 1.40625,-3.015625 1.25,-3.015625 c -0.546875,0 -0.921875,0.328125 -0.921875,0.8125 0,0.359375 0.21875,0.625 0.78125,0.9375 l 0.375,0.21875 c 0.234375,0.125 0.34375,0.296875 0.34375,0.5 0,0.28125 -0.203125,0.46875 -0.546875,0.46875 -0.453125,0 -0.6875,-0.25 -0.828125,-0.921875 H 0.34375 V 0.03125 H 0.421875 C 0.46875,-0.046875 0.5,-0.046875 0.578125,-0.046875 c 0.078125,0 0.140625,0 0.296875,0.046875 0.1875,0.046875 0.359375,0.0625 0.5,0.0625 0.5,0 0.921875,-0.375 0.921875,-0.84375 z m 0,0"
             id="path2830" />
        </g>
      </g>
      <g
         fill="#000000"
         fill-opacity="1"
         id="g2047"
         transform="translate(-154.831,-129.49)">
        <g
           transform="translate(157.183,137.976)"
           id="g3285">
          <path
             d="m 2.203125,-2.671875 c 0,-0.21875 -0.140625,-0.359375 -0.359375,-0.359375 -0.28125,0 -0.46875,0.15625 -0.796875,0.625 V -3.015625 L 1.015625,-3.03125 C 0.671875,-2.875 0.4375,-2.796875 0.046875,-2.671875 V -2.5625 c 0.09375,-0.015625 0.15625,-0.03125 0.234375,-0.03125 0.15625,0 0.21875,0.109375 0.21875,0.390625 v 1.65625 c 0,0.328125 -0.046875,0.375 -0.46875,0.453125 V 0 h 1.578125 v -0.09375 c -0.4375,-0.03125 -0.5625,-0.125 -0.5625,-0.5 v -1.484375 c 0,-0.203125 0.28125,-0.53125 0.46875,-0.53125 0.03125,0 0.09375,0.03125 0.171875,0.09375 0.109375,0.09375 0.171875,0.140625 0.265625,0.140625 0.15625,0 0.25,-0.125 0.25,-0.296875 z m 0,0"
             id="path2025" />
        </g>
      </g>
    </g>
    <g
       id="g118"
       transform="matrix(1.33333 0 0 1.33333 431.548 857.797)"
       ns3:version="1.12.0"
       ns3:texconverter="pdflatex"
       ns3:pdfconverter="inkscape"
       ns3:text="$\\tauM$"
       ns3:preamble="/home/mhinkkan/GitHub/motulator/docs/source/inkscape_textext_preamble.tex"
       ns3:scale="1.0"
       ns3:alignment="bottom right"
       ns3:inkscapeversion="1.4"
       ns3:jacobian_sqrt="1.33333">
      <defs
         id="defs4796" />
      <g
         fill="#000000"
         fill-opacity="1"
         id="g8135"
         transform="translate(-154.837, -131.808)">
        <g
           transform="translate(154.806, 135.761)"
           id="g2617">
          <path
             d="M 4.21875,-3.953125 H 1.515625 c -0.828125,0 -1.40625,0.984375 -1.484375,1.15625 H 0.125 c 0.046875,-0.0625 0.421875,-0.5 0.890625,-0.5 H 2.03125 l -0.609375,1.9375 C 1.34375,-1.0625 1.28125,-0.8125 1.28125,-0.625 c 0,0.390625 0.203125,0.71875 0.640625,0.71875 0.21875,0 0.46875,-0.046875 0.46875,-0.375 C 2.390625,-0.796875 1.9375,-0.75 1.9375,-1.171875 1.9375,-1.265625 1.953125,-1.359375 2,-1.5 l 0.578125,-1.796875 h 1.4375 z m 0,0"
             id="path1972" />
        </g>
      </g>
      <g
         fill="#000000"
         fill-opacity="1"
         id="g3088"
         transform="translate(-154.837, -131.808)">
        <g
           transform="translate(158.545, 137.106)"
           id="g5820">
          <path
             d="m 5.671875,0 v -0.125 c -0.46875,-0.03125 -0.5625,-0.125 -0.5625,-0.59375 v -2.921875 c 0,-0.46875 0.078125,-0.546875 0.5625,-0.59375 v -0.125 H 4.375 L 2.921875,-1.03125 1.390625,-4.359375 H 0.09375 v 0.125 c 0.53125,0.03125 0.625,0.109375 0.625,0.59375 v 2.671875 c 0,0.671875 -0.09375,0.796875 -0.640625,0.84375 V 0 H 1.625 V -0.125 C 1.125,-0.15625 1,-0.296875 1,-0.96875 V -3.625 L 2.65625,0 H 2.75 l 1.6875,-3.765625 v 2.96875 C 4.4375,-0.25 4.359375,-0.15625 3.828125,-0.125 V 0 Z m 0,0"
             id="path9998" />
        </g>
      </g>
    </g>
  </g>
</svg>
