<?xml version="1.0" encoding="UTF-8" standalone="no"?>
<svg
   version="1.0"
   inkscape:output_extension="org.inkscape.output.svg.inkscape"
   sodipodi:docname="im_inv_gamma.svg"
   inkscape:version="1.4 (e7c3feb100, 2024-10-09)"
   sodipodi:version="0.32"
   id="svg3470"
   height="95"
   width="480"
   xmlns:inkscape="http://www.inkscape.org/namespaces/inkscape"
   xmlns:sodipodi="http://sodipodi.sourceforge.net/DTD/sodipodi-0.dtd"
   xmlns="http://www.w3.org/2000/svg"
   xmlns:svg="http://www.w3.org/2000/svg"
   xmlns:rdf="http://www.w3.org/1999/02/22-rdf-syntax-ns#"
   xmlns:cc="http://creativecommons.org/ns#"
   xmlns:dc="http://purl.org/dc/elements/1.1/"
   xmlns:ns3="http://www.iki.fi/pav/software/textext/">
  <sodipodi:namedview
     inkscape:document-rotation="0"
     inkscape:snap-to-guides="false"
     inkscape:snap-object-midpoints="false"
     inkscape:snap-grids="true"
     inkscape:window-maximized="1"
     inkscape:snap-guide="true"
     inkscape:snap-global="true"
     inkscape:bbox-paths="true"
     inkscape:snap-nodes="true"
     inkscape:snap-bbox="false"
     inkscape:object-bbox="true"
     inkscape:object-nodes="true"
     inkscape:guide-points="false"
     inkscape:guide-bbox="true"
     showguides="true"
     height="359.4px"
     width="349.29px"
     inkscape:window-y="0"
     inkscape:window-x="0"
     inkscape:window-height="1131"
     inkscape:window-width="1920"
     inkscape:grid-bbox="false"
     inkscape:object-points="false"
     inkscape:object-paths="true"
     inkscape:grid-points="true"
     showgrid="true"
     inkscape:current-layer="layer2"
     inkscape:document-units="px"
     inkscape:cy="96.736934"
     inkscape:cx="163.11709"
     inkscape:zoom="2.4706179"
     inkscape:pageshadow="2"
     inkscape:pageopacity="0.0"
     objecttolerance="10"
     guidetolerance="10"
     gridtolerance="36.6"
     borderopacity="1.0"
     bordercolor="#666666"
     pagecolor="#ffffff"
     id="base"
     fit-margin-top="0"
     fit-margin-left="0"
     fit-margin-right="0"
     fit-margin-bottom="0"
     inkscape:showpageshadow="2"
     inkscape:pagecheckerboard="0"
     inkscape:deskcolor="#d1d1d1">
    <inkscape:grid
       enabled="true"
       visible="true"
       id="GridFromPre046Settings"
       type="xygrid"
       originx="-215"
       originy="-40"
       spacingx="0.5"
       spacingy="0.5"
       color="#0000ff"
       empcolor="#0000ff"
       opacity="0.2"
       empopacity="0.4"
       empspacing="5"
       snapvisiblegridlinesonly="true"
       units="px" />
    <sodipodi:guide
       inkscape:locked="false"
       orientation="0,1"
       position="1734.5192,1079.6727"
       id="guide35742" />
    <sodipodi:guide
       inkscape:locked="false"
       orientation="1,0"
       position="-235,166.59587"
       id="guide3449" />
  </sodipodi:namedview>
  <defs
     id="defs3472">
    <marker
       inkscape:stockid="DotM"
       orient="auto"
       refY="0"
       refX="0"
       id="marker19838"
       style="overflow:visible">
      <path
         inkscape:connector-curvature="0"
         id="path19840"
         d="m -2.5,-1 c 0,2.76 -2.24,5 -5,5 -2.76,0 -5,-2.24 -5,-5 0,-2.76 2.24,-5 5,-5 2.76,0 5,2.24 5,5 z"
         style="fill-rule:evenodd;stroke:#000000;stroke-width:1pt;marker-start:none;marker-end:none"
         transform="matrix(0.4,0,0,0.4,2.96,0.4)" />
    </marker>
    <marker
       refX="0"
       inkscape:stockid="Arrow2Mstart"
       refY="0"
       orient="auto"
       id="Arrow2Mstart-021"
       style="overflow:visible">
      <path
         id="path21014-8"
         d="M 8.7185878,4.0337352 -2.2072895,0.01601326 8.7185884,-4.0017078 c -1.7454984,2.3720609 -1.7354408,5.6174519 -6e-7,8.035443 z"
         transform="scale(0.6)"
         style="font-size:12px;fill-rule:evenodd;stroke-width:0.625;stroke-linejoin:round" />
    </marker>
    <marker
       refX="0"
       inkscape:stockid="Arrow2Mstart"
       refY="0"
       orient="auto"
       id="Arrow2Mstart-021-3"
       style="overflow:visible">
      <path
         id="path21014-8-6"
         d="M 8.7185878,4.0337352 -2.2072895,0.01601326 8.7185884,-4.0017078 c -1.7454984,2.3720609 -1.7354408,5.6174519 -6e-7,8.035443 z"
         transform="scale(0.6)"
         style="font-size:12px;fill-rule:evenodd;stroke-width:0.625;stroke-linejoin:round" />
    </marker>
  </defs>
  <metadata
     id="metadata3475">
    <rdf:RDF>
      <cc:Work
         rdf:about="">
        <dc:format>image/svg+xml</dc:format>
        <dc:type
           rdf:resource="http://purl.org/dc/dcmitype/StillImage" />
        <dc:title />
      </cc:Work>
    </rdf:RDF>
  </metadata>
  <g
     inkscape:label="Circuit"
     style="display:inline"
     id="layer1"
     inkscape:groupmode="layer"
     transform="translate(-394.835,-369.65454)" />
  <g
     inkscape:label="Labels"
     style="display:inline;opacity:1"
     id="layer2"
     inkscape:groupmode="layer"
     transform="translate(-215,-40)">
    <g
       inkscape:label="Circuit"
       style="display:inline"
       id="layer1-7"
       transform="translate(80.78574,-103.71623)" />
    <g
       inkscape:label="Circuit"
       style="display:inline"
       id="layer1-3"
       transform="translate(-114.835,-29.65454)" />
    <g
       transform="matrix(0.47239618,0,0,0.47239618,58.540603,62.534665)"
       id="layer1-9"
       style="display:inline"
       inkscape:label="Circuit" />
    <path
       id="path1098"
       sodipodi:nodetypes="cccc"
       d="m 510,65.000001 h 20 V 125 H 340"
       style="display:inline;fill:none;stroke:#000000;stroke-width:1px;stroke-linecap:square;stroke-linejoin:miter;stroke-opacity:1;marker-end:none"
       inkscape:connector-curvature="0" />
    <path
       inkscape:connector-curvature="0"
       inkscape:export-ydpi="300"
       inkscape:export-xdpi="300"
       inkscape:export-filename="/home/mhinkkan/Desktop/testi.png"
       id="path1100"
       sodipodi:nodetypes="cc"
       d="m 410,65 -20,10e-7"
       style="display:inline;fill:none;stroke:#000000;stroke-width:1px;stroke-linecap:square;stroke-linejoin:miter;stroke-opacity:1;marker-start:none;marker-mid:none;marker-end:none" />
    <path
       inkscape:connector-curvature="0"
       style="display:inline;fill:none;stroke:#000000;stroke-width:1px;stroke-linecap:butt;stroke-linejoin:miter;stroke-opacity:1;marker-start:url(#Arrow2Mstart-021);marker-mid:none"
       d="M 472,120 V 70"
       sodipodi:nodetypes="cc"
       id="path1102"
       inkscape:export-filename="C:\Documents and Settings\mhinkkan\Desktop\testi.png"
       inkscape:export-xdpi="300"
       inkscape:export-ydpi="300" />
    <path
       inkscape:connector-curvature="0"
       style="display:inline;fill:none;stroke:#000000;stroke-width:1.333;stroke-linecap:round;stroke-linejoin:miter;stroke-miterlimit:4;stroke-dasharray:none;stroke-opacity:1"
       d="m 510,65.000001 -2.5,5 -5,-10 -5,10 -5,-10 -5,10 -5,-10 -2.5,5"
       sodipodi:nodetypes="cccccccc"
       id="path1104" />
    <g
       transform="matrix(-1,0,0,1,505,66.595851)"
       style="display:inline"
       id="g1116">
      <circle
         r="10"
         cy="49.458618"
         cx="110"
         style="font-style:normal;font-variant:normal;font-weight:normal;font-stretch:normal;font-size:12px;line-height:125%;font-family:'Nimbus Roman No9 L';text-align:start;writing-mode:lr-tb;text-anchor:start;display:inline;fill:none;stroke:#000000;stroke-width:1.333;stroke-linecap:round;stroke-linejoin:round;stroke-miterlimit:4;stroke-dasharray:none;stroke-dashoffset:0;stroke-opacity:1"
         id="circle1106"
         transform="translate(-135,-21.054466)" />
      <g
         style="font-style:normal;font-variant:normal;font-weight:normal;font-stretch:normal;font-size:16.5px;line-height:125%;font-family:'Nimbus Roman No9 L';text-align:start;writing-mode:lr-tb;text-anchor:start;display:inline"
         transform="matrix(0.7272727,0,0,0.7272727,-45.545449,204.31843)"
         id="g1112">
        <path
           inkscape:connector-curvature="0"
           style="font-style:normal;font-variant:normal;font-weight:normal;font-stretch:normal;font-size:16.5px;line-height:125%;font-family:'Nimbus Roman No9 L';text-align:start;writing-mode:lr-tb;text-anchor:start;fill:none;stroke:#000000;stroke-width:1px;stroke-linecap:butt;stroke-linejoin:miter;stroke-opacity:1"
           d="m 9.5,-274.09586 v -10"
           sodipodi:nodetypes="cc"
           id="path1108"
           transform="translate(10.5,17.500004)" />
        <path
           inkscape:connector-curvature="0"
           style="font-style:normal;font-variant:normal;font-weight:normal;font-stretch:normal;font-size:16.5px;line-height:125%;font-family:'Nimbus Roman No9 L';text-align:start;writing-mode:lr-tb;text-anchor:start;display:inline;fill:none;stroke:#000000;stroke-width:1px;stroke-linecap:butt;stroke-linejoin:miter;stroke-opacity:1"
           d="m 19.999996,-279.59586 v 10"
           sodipodi:nodetypes="cc"
           id="path1110"
           transform="rotate(-90,26.5,-268.09586)" />
      </g>
      <path
         inkscape:connector-curvature="0"
         style="font-style:normal;font-variant:normal;font-weight:normal;font-stretch:normal;font-size:16.5px;line-height:125%;font-family:'Nimbus Roman No9 L';text-align:start;writing-mode:lr-tb;text-anchor:start;display:inline;fill:none;stroke:#000000;stroke-width:0.727273px;stroke-linecap:butt;stroke-linejoin:miter;stroke-opacity:1"
         d="m -34.636349,41.358664 h 7.27273"
         sodipodi:nodetypes="cc"
         id="path1114" />
    </g>
    <path
       inkscape:connector-curvature="0"
       style="display:inline;fill:none;stroke:#000000;stroke-width:1px;stroke-linecap:round;stroke-linejoin:miter;stroke-opacity:1;marker-end:url(#marker19838)"
       d="M 460,80 V 65"
       sodipodi:nodetypes="cc"
       id="path1118" />
    <path
       inkscape:connector-curvature="0"
       style="font-style:normal;font-variant:normal;font-weight:normal;font-stretch:normal;font-size:12px;line-height:125%;font-family:'Bitstream Vera Sans';text-align:start;writing-mode:lr-tb;text-anchor:start;display:inline;fill:none;stroke:#000000;stroke-width:1.333;stroke-linecap:round;stroke-linejoin:round;stroke-miterlimit:4;stroke-dasharray:none;stroke-opacity:1"
       d="m 460,110.00001 c 7,0 7,-10 0,-10 7,0 7,-10.00001 0,-10.00001 7,0 7,-10 0,-10"
       sodipodi:nodetypes="cccc"
       id="path1120" />
    <path
       id="path1122"
       sodipodi:nodetypes="cc"
       d="m 460,110 v 15"
       style="display:inline;fill:none;stroke:#000000;stroke-width:1px;stroke-linecap:round;stroke-linejoin:miter;stroke-opacity:1;marker-end:url(#marker19838)"
       inkscape:connector-curvature="0" />
    <path
       id="path1124"
       sodipodi:nodetypes="cccccccc"
       d="m 390,65.000001 -2.5,5 -5,-10 -5,10 -5,-10 -5,10 -5,-10 -2.5,5"
       style="display:inline;fill:none;stroke:#000000;stroke-width:1.333;stroke-linecap:round;stroke-linejoin:miter;stroke-miterlimit:4;stroke-dasharray:none;stroke-opacity:1"
       inkscape:connector-curvature="0" />
    <path
       style="display:inline;fill:none;stroke:#000000;stroke-width:1px;stroke-linecap:square;stroke-linejoin:miter;stroke-opacity:1;marker-start:none;marker-mid:none;marker-end:none"
       d="M 360,65.000001 H 340"
       sodipodi:nodetypes="cc"
       id="path1126"
       inkscape:export-filename="/home/mhinkkan/Desktop/testi.png"
       inkscape:export-xdpi="300"
       inkscape:export-ydpi="300"
       inkscape:connector-curvature="0" />
    <circle
       r="2"
       cy="65"
       cx="340"
       id="circle1128"
       style="display:inline;fill:#ffffff;fill-opacity:1;stroke:#000000;stroke-width:0.5;stroke-miterlimit:4;stroke-dasharray:none;stroke-opacity:1" />
    <path
       inkscape:export-ydpi="300"
       inkscape:export-xdpi="300"
       inkscape:export-filename="C:\Documents and Settings\mhinkkan\Desktop\testi.png"
       id="path1130"
       sodipodi:nodetypes="cc"
       d="m 354,65.000001 h -5"
       style="display:inline;fill:none;stroke:#000000;stroke-width:1px;stroke-linecap:butt;stroke-linejoin:miter;stroke-opacity:1;marker-start:url(#Arrow2Mstart-021);marker-mid:none"
       inkscape:connector-curvature="0" />
    <circle
       r="2"
       cy="125"
       cx="340"
       style="display:inline;fill:#ffffff;fill-opacity:1;stroke:#000000;stroke-width:0.5;stroke-miterlimit:4;stroke-dasharray:none;stroke-opacity:1"
       id="circle1132" />
    <path
       inkscape:export-ydpi="300"
       inkscape:export-xdpi="300"
       inkscape:export-filename="C:\Documents and Settings\mhinkkan\Desktop\testi.png"
       id="path1134"
       sodipodi:nodetypes="cc"
       d="M 400,120 V 70.000001"
       style="display:inline;fill:none;stroke:#000000;stroke-width:1px;stroke-linecap:butt;stroke-linejoin:miter;stroke-opacity:1;marker-start:url(#Arrow2Mstart-021);marker-mid:none"
       inkscape:connector-curvature="0" />
    <path
       inkscape:connector-curvature="0"
       style="font-style:normal;font-variant:normal;font-weight:normal;font-stretch:normal;font-size:12px;line-height:125%;font-family:'Bitstream Vera Sans';text-align:start;writing-mode:lr-tb;text-anchor:start;display:inline;fill:none;stroke:#000000;stroke-width:1.333;stroke-linecap:round;stroke-linejoin:round;stroke-miterlimit:4;stroke-dasharray:none;stroke-opacity:1"
       d="m 440,65 c 0,-7 -10,-7 -10,0 0,-7 -10,-7 -10,0 0,-7 -10,-7 -10,0"
       sodipodi:nodetypes="cccc"
       id="path1138" />
    <path
       inkscape:connector-curvature="0"
       inkscape:export-ydpi="300"
       inkscape:export-xdpi="300"
       inkscape:export-filename="/home/mhinkkan/Desktop/testi.png"
       id="path1140"
       sodipodi:nodetypes="cc"
       d="M 480,65.000001 440,65"
       style="display:inline;fill:none;stroke:#000000;stroke-width:1px;stroke-linecap:round;stroke-linejoin:miter;stroke-opacity:1;marker-start:none;marker-mid:none;marker-end:none" />
    <path
       inkscape:export-ydpi="300"
       inkscape:export-xdpi="300"
       inkscape:export-filename="C:\Documents and Settings\mhinkkan\Desktop\testi.png"
       id="path1324"
       sodipodi:nodetypes="cc"
       d="m 518,65.000001 h 5"
       style="display:inline;fill:none;stroke:#000000;stroke-width:1px;stroke-linecap:butt;stroke-linejoin:miter;stroke-opacity:1;marker-start:url(#Arrow2Mstart-021);marker-mid:none"
       inkscape:connector-curvature="0" />
    <path
       inkscape:connector-curvature="0"
       style="display:inline;fill:none;stroke:#000000;stroke-width:1px;stroke-linecap:butt;stroke-linejoin:miter;stroke-opacity:1;marker-start:url(#Arrow2Mstart-021-3);marker-mid:none"
       d="M 340,120 V 70"
       sodipodi:nodetypes="cc"
       id="path52"
       inkscape:export-filename="C:\Documents and Settings\mhinkkan\Desktop\testi.png"
       inkscape:export-xdpi="300"
       inkscape:export-ydpi="300" />
    <g
       id="g63"
       transform="matrix(1.33333,0,0,1.33333,326.5037,89.300769)"
       ns3:version="1.12.0"
       ns3:texconverter="pdflatex"
       ns3:pdfconverter="inkscape"
       ns3:text="$\\uss$"
       ns3:preamble="/home/mhinkkan/GitHub/motulator/docs/source/inkscape_textext_preamble.sty"
       ns3:scale="1.0"
       ns3:alignment="middle right"
       ns3:inkscapeversion="1.4"
       ns3:jacobian_sqrt="1.33333"
       style="display:inline">
      <defs
         id="defs55" />
      <g
         fill="#000000"
         fill-opacity="1"
         id="g57"
         transform="translate(-154.831,-129.49)">
        <g
           transform="translate(154.69,135.761)"
           id="g56">
          <path
             d="m 4.8125,-0.171875 v -0.21875 c -0.390625,-0.015625 -0.5,-0.125 -0.5,-0.515625 V -4.140625 H 2.515625 v 0.21875 c 0.4375,0.03125 0.546875,0.140625 0.546875,0.53125 v 2.53125 c -0.296875,0.296875 -0.46875,0.40625 -0.734375,0.40625 -0.359375,0 -0.5,-0.1875 -0.5,-0.640625 v -3.046875 h -1.6875 v 0.21875 c 0.375,0.078125 0.4375,0.15625 0.4375,0.53125 V -1.125 c 0,0.78125 0.453125,1.25 1.203125,1.25 0.46875,0 0.78125,-0.140625 1.296875,-0.59375 v 0.578125 c 0.390625,-0.125 0.59375,-0.15625 1.1875,-0.21875 z m 0,0"
             id="path55" />
        </g>
      </g>
      <g
         fill="#000000"
         fill-opacity="1"
         id="g60"
         transform="translate(-154.831,-129.49)">
        <g
           transform="translate(159.675,132.506)"
           id="g58">
          <path
             d="m 2.296875,-0.78125 c 0,-0.328125 -0.15625,-0.546875 -0.5625,-0.78125 L 1.03125,-1.984375 C 0.84375,-2.078125 0.75,-2.25 0.75,-2.421875 0.75,-2.703125 0.953125,-2.875 1.25,-2.875 c 0.375,0 0.578125,0.21875 0.71875,0.8125 h 0.109375 l -0.03125,-0.890625 h -0.09375 c -0.046875,0.046875 -0.0625,0.0625 -0.078125,0.0625 -0.046875,0 -0.109375,-0.015625 -0.1875,-0.046875 C 1.546875,-3 1.40625,-3.015625 1.25,-3.015625 c -0.546875,0 -0.921875,0.328125 -0.921875,0.8125 0,0.359375 0.21875,0.625 0.78125,0.9375 l 0.375,0.21875 c 0.234375,0.125 0.34375,0.296875 0.34375,0.5 0,0.28125 -0.203125,0.46875 -0.546875,0.46875 -0.453125,0 -0.6875,-0.25 -0.828125,-0.921875 H 0.34375 V 0.03125 H 0.421875 C 0.46875,-0.046875 0.5,-0.046875 0.578125,-0.046875 c 0.078125,0 0.140625,0 0.296875,0.046875 0.1875,0.046875 0.359375,0.0625 0.5,0.0625 0.5,0 0.921875,-0.375 0.921875,-0.84375 z m 0,0"
             id="path57" />
        </g>
      </g>
      <g
         fill="#000000"
         fill-opacity="1"
         id="g62"
         transform="translate(-154.831,-129.49)">
        <g
           transform="translate(159.675,137.976)"
           id="g61">
          <path
             d="m 2.296875,-0.78125 c 0,-0.328125 -0.15625,-0.546875 -0.5625,-0.78125 L 1.03125,-1.984375 C 0.84375,-2.078125 0.75,-2.25 0.75,-2.421875 0.75,-2.703125 0.953125,-2.875 1.25,-2.875 c 0.375,0 0.578125,0.21875 0.71875,0.8125 h 0.109375 l -0.03125,-0.890625 h -0.09375 c -0.046875,0.046875 -0.0625,0.0625 -0.078125,0.0625 -0.046875,0 -0.109375,-0.015625 -0.1875,-0.046875 C 1.546875,-3 1.40625,-3.015625 1.25,-3.015625 c -0.546875,0 -0.921875,0.328125 -0.921875,0.8125 0,0.359375 0.21875,0.625 0.78125,0.9375 l 0.375,0.21875 c 0.234375,0.125 0.34375,0.296875 0.34375,0.5 0,0.28125 -0.203125,0.46875 -0.546875,0.46875 -0.453125,0 -0.6875,-0.25 -0.828125,-0.921875 H 0.34375 V 0.03125 H 0.421875 C 0.46875,-0.046875 0.5,-0.046875 0.578125,-0.046875 c 0.078125,0 0.140625,0 0.296875,0.046875 0.1875,0.046875 0.359375,0.0625 0.5,0.0625 0.5,0 0.921875,-0.375 0.921875,-0.84375 z m 0,0"
             id="path60" />
        </g>
      </g>
    </g>
    <g
       id="g83"
       transform="matrix(1.33333,0,0,1.33333,375.68169,82.371953)"
       ns3:version="1.12.0"
       ns3:texconverter="pdflatex"
       ns3:pdfconverter="inkscape"
       ns3:text="$\\dfrac{\\D\\psiss}{\\D t}$"
       ns3:preamble="/home/mhinkkan/GitHub/motulator/docs/source/inkscape_textext_preamble.sty"
       ns3:scale="1.0"
       ns3:alignment="middle right"
       ns3:inkscapeversion="1.4"
       ns3:jacobian_sqrt="1.33333"
       style="display:inline">
      <defs
         id="defs68" />
      <g
         fill="#000000"
         fill-opacity="1"
         id="g71"
         transform="translate(-155.887,-126.803)">
        <g
           transform="translate(155.885,133.074)"
           id="g70">
          <path
             d="m 4.40625,-0.375 v -0.140625 c -0.15625,0 -0.1875,0 -0.203125,0 -0.328125,0 -0.40625,-0.09375 -0.40625,-0.5 v -5.09375 L 3.765625,-6.125 c -0.4375,0.15625 -0.75,0.234375 -1.328125,0.390625 v 0.140625 c 0.078125,0 0.125,0 0.203125,0 0.328125,0 0.40625,0.09375 0.40625,0.453125 v 1.40625 C 2.703125,-4.03125 2.46875,-4.125 2.109375,-4.125 c -1.03125,0 -1.875,1.015625 -1.875,2.28125 0,1.15625 0.6875,1.9375 1.671875,1.9375 0.5,0 0.84375,-0.1875 1.140625,-0.609375 V 0.0625 l 0.03125,0.03125 z M 3.046875,-0.921875 c 0,0.0625 -0.0625,0.171875 -0.15625,0.28125 C 2.734375,-0.46875 2.515625,-0.375 2.25,-0.375 c -0.75,0 -1.234375,-0.71875 -1.234375,-1.828125 0,-1 0.4375,-1.671875 1.125,-1.671875 0.46875,0 0.90625,0.421875 0.90625,0.890625 z m 0,0"
             id="path68" />
        </g>
      </g>
      <g
         fill="#000000"
         fill-opacity="1"
         id="g73"
         transform="translate(-155.887,-126.803)">
        <g
           transform="translate(160.907,133.074)"
           id="g72">
          <path
             d="M 6.09375,-3.953125 V -4.25 C 5.875,-4.328125 5.6875,-4.375 5.5,-4.375 c -1.125,0 -1.15625,1.140625 -1.25,1.953125 L 4.125,-1.25 c -0.046875,0.421875 -0.28125,0.734375 -0.65625,0.859375 v -3.875 H 2.75 v 3.875 C 2.375,-0.515625 2.140625,-0.828125 2.09375,-1.25 l -0.125,-1.171875 C 1.875,-3.234375 1.84375,-4.375 0.703125,-4.375 c -0.1875,0 -0.359375,0.046875 -0.59375,0.125 v 0.296875 c 0.484375,0.09375 0.625,0.125 0.6875,0.515625 0.21875,1.59375 -0.078125,3 1.953125,3.578125 V 1.9375 H 3.46875 V 0.140625 C 5.484375,-0.4375 5.203125,-1.84375 5.421875,-3.4375 5.484375,-3.828125 5.625,-3.859375 6.09375,-3.953125 Z m 0,0"
             id="path71" />
        </g>
      </g>
      <g
         fill="#000000"
         fill-opacity="1"
         id="g75"
         transform="translate(-155.887,-126.803)">
        <g
           transform="translate(167.658,129.819)"
           id="g74">
          <path
             d="m 2.296875,-0.78125 c 0,-0.328125 -0.15625,-0.546875 -0.5625,-0.78125 L 1.03125,-1.984375 C 0.84375,-2.078125 0.75,-2.25 0.75,-2.421875 0.75,-2.703125 0.953125,-2.875 1.25,-2.875 c 0.375,0 0.578125,0.21875 0.71875,0.8125 h 0.109375 l -0.03125,-0.890625 h -0.09375 c -0.046875,0.046875 -0.0625,0.0625 -0.078125,0.0625 -0.046875,0 -0.109375,-0.015625 -0.1875,-0.046875 C 1.546875,-3 1.40625,-3.015625 1.25,-3.015625 c -0.546875,0 -0.921875,0.328125 -0.921875,0.8125 0,0.359375 0.21875,0.625 0.78125,0.9375 l 0.375,0.21875 c 0.234375,0.125 0.34375,0.296875 0.34375,0.5 0,0.28125 -0.203125,0.46875 -0.546875,0.46875 -0.453125,0 -0.6875,-0.25 -0.828125,-0.921875 H 0.34375 V 0.03125 H 0.421875 C 0.46875,-0.046875 0.5,-0.046875 0.578125,-0.046875 c 0.078125,0 0.140625,0 0.296875,0.046875 0.1875,0.046875 0.359375,0.0625 0.5,0.0625 0.5,0 0.921875,-0.375 0.921875,-0.84375 z m 0,0"
             id="path73" />
        </g>
      </g>
      <g
         fill="#000000"
         fill-opacity="1"
         id="g77"
         transform="translate(-155.887,-126.803)">
        <g
           transform="translate(167.658,135.366)"
           id="g76">
          <path
             d="m 2.296875,-0.78125 c 0,-0.328125 -0.15625,-0.546875 -0.5625,-0.78125 L 1.03125,-1.984375 C 0.84375,-2.078125 0.75,-2.25 0.75,-2.421875 0.75,-2.703125 0.953125,-2.875 1.25,-2.875 c 0.375,0 0.578125,0.21875 0.71875,0.8125 h 0.109375 l -0.03125,-0.890625 h -0.09375 c -0.046875,0.046875 -0.0625,0.0625 -0.078125,0.0625 -0.046875,0 -0.109375,-0.015625 -0.1875,-0.046875 C 1.546875,-3 1.40625,-3.015625 1.25,-3.015625 c -0.546875,0 -0.921875,0.328125 -0.921875,0.8125 0,0.359375 0.21875,0.625 0.78125,0.9375 l 0.375,0.21875 c 0.234375,0.125 0.34375,0.296875 0.34375,0.5 0,0.28125 -0.203125,0.46875 -0.546875,0.46875 -0.453125,0 -0.6875,-0.25 -0.828125,-0.921875 H 0.34375 V 0.03125 H 0.421875 C 0.46875,-0.046875 0.5,-0.046875 0.578125,-0.046875 c 0.078125,0 0.140625,0 0.296875,0.046875 0.1875,0.046875 0.359375,0.0625 0.5,0.0625 0.5,0 0.921875,-0.375 0.921875,-0.84375 z m 0,0"
             id="path75" />
        </g>
      </g>
      <path
         fill="#000000"
         d="m 0,10.140937 h 14.828125 v 0.502 H 0 Z"
         id="path77" />
      <g
         fill="#000000"
         fill-opacity="1"
         id="g80"
         transform="translate(-155.887,-126.803)">
        <g
           transform="translate(159.57,145.651)"
           id="g78">
          <path
             d="m 4.40625,-0.375 v -0.140625 c -0.15625,0 -0.1875,0 -0.203125,0 -0.328125,0 -0.40625,-0.09375 -0.40625,-0.5 v -5.09375 L 3.765625,-6.125 c -0.4375,0.15625 -0.75,0.234375 -1.328125,0.390625 v 0.140625 c 0.078125,0 0.125,0 0.203125,0 0.328125,0 0.40625,0.09375 0.40625,0.453125 v 1.40625 C 2.703125,-4.03125 2.46875,-4.125 2.109375,-4.125 c -1.03125,0 -1.875,1.015625 -1.875,2.28125 0,1.15625 0.6875,1.9375 1.671875,1.9375 0.5,0 0.84375,-0.1875 1.140625,-0.609375 V 0.0625 l 0.03125,0.03125 z M 3.046875,-0.921875 c 0,0.0625 -0.0625,0.171875 -0.15625,0.28125 C 2.734375,-0.46875 2.515625,-0.375 2.25,-0.375 c -0.75,0 -1.234375,-0.71875 -1.234375,-1.828125 0,-1 0.4375,-1.671875 1.125,-1.671875 0.46875,0 0.90625,0.421875 0.90625,0.890625 z m 0,0"
             id="path78" />
        </g>
      </g>
      <g
         fill="#000000"
         fill-opacity="1"
         id="g82"
         transform="translate(-155.887,-126.803)">
        <g
           transform="translate(164.017,145.651)"
           id="g81">
          <path
             d="M 2.65625,-3.84375 H 1.9375 l 0.25,-0.921875 c 0.015625,-0.015625 0.015625,-0.03125 0.015625,-0.046875 0,-0.0625 -0.03125,-0.078125 -0.078125,-0.078125 -0.046875,0 -0.078125,0 -0.140625,0.078125 -0.84375,1.109375 -1.46875,0.921875 -1.46875,1.203125 0,0.015625 0,0.03125 0,0.0625 H 1.1875 l -0.65625,2.46875 c -0.015625,0.109375 -0.203125,0.671875 -0.203125,0.84375 0,0.1875 0.1875,0.328125 0.4375,0.328125 0.40625,0 0.703125,-0.25 1.265625,-1.078125 l -0.109375,-0.0625 c -0.4375,0.5625 -0.578125,0.703125 -0.734375,0.703125 -0.078125,0 -0.125,-0.0625 -0.125,-0.171875 0,-0.015625 0,-0.015625 0,-0.046875 l 0.796875,-2.984375 h 0.75 z m 0,0"
             id="path80" />
        </g>
      </g>
    </g>
    <g
       id="g92"
       transform="matrix(1.33333,0,0,1.33333,440.306,90.1976)"
       ns3:version="1.12.0"
       ns3:texconverter="pdflatex"
       ns3:pdfconverter="inkscape"
       ns3:text="$\\LM$"
       ns3:preamble="/home/mhinkkan/GitHub/motulator/docs/source/inkscape_textext_preamble.sty"
       ns3:scale="1.0"
       ns3:alignment="middle right"
       ns3:inkscapeversion="1.0.2"
       ns3:jacobian_sqrt="1.33333"
       style="stroke-width:0">
      <defs
         id="defs1629"
         style="stroke-width:0" />
      <g
         fill="#000000"
         fill-opacity="1"
         id="g7503"
         transform="translate(-155.024,-129.902)"
         style="stroke-width:0">
        <g
           transform="translate(155.102,135.761)"
           id="g9835"
           style="stroke-width:0">
          <path
             d="m 5.015625,-1.609375 -0.1875,-0.046875 c -0.3125,0.640625 -0.546875,0.921875 -0.9375,1.125 -0.3125,0.15625 -0.6875,0.203125 -1.484375,0.203125 -0.671875,0 -0.890625,-0.0625 -0.890625,-0.296875 0,-0.078125 0.03125,-0.265625 0.09375,-0.453125 l 1.09375,-3.96875 c 0.140625,-0.453125 0.375,-0.625 0.90625,-0.671875 v -0.140625 h -2.4375 v 0.140625 c 0.5625,0.0625 0.6875,0.125 0.6875,0.390625 0,0.140625 -0.03125,0.3125 -0.09375,0.5625 L 0.65625,-0.8125 C 0.5,-0.28125 0.4375,-0.234375 -0.078125,-0.140625 V 0 H 4.5 Z m 0,0"
             id="path631"
             style="stroke-width:0" />
        </g>
      </g>
      <g
         fill="#000000"
         fill-opacity="1"
         id="g241"
         transform="translate(-155.024,-129.902)"
         style="stroke-width:0">
        <g
           transform="translate(160.518,137.106)"
           id="g490"
           style="stroke-width:0">
          <path
             d="m 5.671875,0 v -0.125 c -0.46875,-0.03125 -0.5625,-0.125 -0.5625,-0.59375 v -2.921875 c 0,-0.46875 0.078125,-0.546875 0.5625,-0.59375 v -0.125 H 4.375 L 2.921875,-1.03125 1.390625,-4.359375 H 0.09375 v 0.125 c 0.53125,0.03125 0.625,0.109375 0.625,0.59375 v 2.671875 c 0,0.671875 -0.09375,0.796875 -0.640625,0.84375 V 0 H 1.625 V -0.125 C 1.125,-0.15625 1,-0.296875 1,-0.96875 V -3.625 L 2.65625,0 H 2.75 l 1.6875,-3.765625 v 2.96875 C 4.4375,-0.25 4.359375,-0.15625 3.828125,-0.125 V 0 Z m 0,0"
             id="path3430"
             style="stroke-width:0" />
        </g>
      </g>
    </g>
    <g
       id="g117"
       transform="matrix(1.33333,0,0,1.33333,477.847,81.819955)"
       ns3:version="1.12.0"
       ns3:texconverter="pdflatex"
       ns3:pdfconverter="inkscape"
       ns3:text="$\\dfrac{\\D\\psiRs}{\\D t}$"
       ns3:preamble="/home/mhinkkan/GitHub/motulator/docs/source/inkscape_textext_preamble.sty"
       ns3:scale="1.0"
       ns3:alignment="middle left"
       ns3:inkscapeversion="1.0.2"
       ns3:jacobian_sqrt="1.33333"
       style="stroke-width:0">
      <defs
         id="defs8168"
         style="stroke-width:0" />
      <g
         fill="#000000"
         fill-opacity="1"
         id="g8157"
         transform="translate(-155.887,-126.803)"
         style="stroke-width:0">
        <g
           transform="translate(155.885,133.074)"
           id="g1287"
           style="stroke-width:0">
          <path
             d="m 4.40625,-0.375 v -0.140625 c -0.15625,0 -0.1875,0 -0.203125,0 -0.328125,0 -0.40625,-0.09375 -0.40625,-0.5 v -5.09375 L 3.765625,-6.125 c -0.4375,0.15625 -0.75,0.234375 -1.328125,0.390625 v 0.140625 c 0.078125,0 0.125,0 0.203125,0 0.328125,0 0.40625,0.09375 0.40625,0.453125 v 1.40625 C 2.703125,-4.03125 2.46875,-4.125 2.109375,-4.125 c -1.03125,0 -1.875,1.015625 -1.875,2.28125 0,1.15625 0.6875,1.9375 1.671875,1.9375 0.5,0 0.84375,-0.1875 1.140625,-0.609375 V 0.0625 l 0.03125,0.03125 z M 3.046875,-0.921875 c 0,0.0625 -0.0625,0.171875 -0.15625,0.28125 C 2.734375,-0.46875 2.515625,-0.375 2.25,-0.375 c -0.75,0 -1.234375,-0.71875 -1.234375,-1.828125 0,-1 0.4375,-1.671875 1.125,-1.671875 0.46875,0 0.90625,0.421875 0.90625,0.890625 z m 0,0"
             id="path8270"
             style="stroke-width:0" />
        </g>
      </g>
      <g
         fill="#000000"
         fill-opacity="1"
         id="g552"
         transform="translate(-155.887,-126.803)"
         style="stroke-width:0">
        <g
           transform="translate(160.907,133.074)"
           id="g6815"
           style="stroke-width:0">
          <path
             d="M 6.09375,-3.953125 V -4.25 C 5.875,-4.328125 5.6875,-4.375 5.5,-4.375 c -1.125,0 -1.15625,1.140625 -1.25,1.953125 L 4.125,-1.25 c -0.046875,0.421875 -0.28125,0.734375 -0.65625,0.859375 v -3.875 H 2.75 v 3.875 C 2.375,-0.515625 2.140625,-0.828125 2.09375,-1.25 l -0.125,-1.171875 C 1.875,-3.234375 1.84375,-4.375 0.703125,-4.375 c -0.1875,0 -0.359375,0.046875 -0.59375,0.125 v 0.296875 c 0.484375,0.09375 0.625,0.125 0.6875,0.515625 0.21875,1.59375 -0.078125,3 1.953125,3.578125 V 1.9375 H 3.46875 V 0.140625 C 5.484375,-0.4375 5.203125,-1.84375 5.421875,-3.4375 5.484375,-3.828125 5.625,-3.859375 6.09375,-3.953125 Z m 0,0"
             id="path1635"
             style="stroke-width:0" />
        </g>
      </g>
      <g
         fill="#000000"
         fill-opacity="1"
         id="g4960"
         transform="translate(-155.887,-126.803)"
         style="stroke-width:0">
        <g
           transform="translate(167.658,129.819)"
           id="g8367"
           style="stroke-width:0">
          <path
             d="m 2.296875,-0.78125 c 0,-0.328125 -0.15625,-0.546875 -0.5625,-0.78125 L 1.03125,-1.984375 C 0.84375,-2.078125 0.75,-2.25 0.75,-2.421875 0.75,-2.703125 0.953125,-2.875 1.25,-2.875 c 0.375,0 0.578125,0.21875 0.71875,0.8125 h 0.109375 l -0.03125,-0.890625 h -0.09375 c -0.046875,0.046875 -0.0625,0.0625 -0.078125,0.0625 -0.046875,0 -0.109375,-0.015625 -0.1875,-0.046875 C 1.546875,-3 1.40625,-3.015625 1.25,-3.015625 c -0.546875,0 -0.921875,0.328125 -0.921875,0.8125 0,0.359375 0.21875,0.625 0.78125,0.9375 l 0.375,0.21875 c 0.234375,0.125 0.34375,0.296875 0.34375,0.5 0,0.28125 -0.203125,0.46875 -0.546875,0.46875 -0.453125,0 -0.6875,-0.25 -0.828125,-0.921875 H 0.34375 V 0.03125 H 0.421875 C 0.46875,-0.046875 0.5,-0.046875 0.578125,-0.046875 c 0.078125,0 0.140625,0 0.296875,0.046875 0.1875,0.046875 0.359375,0.0625 0.5,0.0625 0.5,0 0.921875,-0.375 0.921875,-0.84375 z m 0,0"
             id="path6417"
             style="stroke-width:0" />
        </g>
      </g>
      <g
         fill="#000000"
         fill-opacity="1"
         id="g5279"
         transform="translate(-155.887,-126.803)"
         style="stroke-width:0">
        <g
           transform="translate(167.658,136.266)"
           id="g4422"
           style="stroke-width:0">
          <path
             d="m 4.328125,0 v -0.125 c -0.25,-0.015625 -0.375,-0.078125 -0.5625,-0.3125 L 2.40625,-2.09375 C 2.84375,-2.1875 3.046875,-2.265625 3.265625,-2.4375 3.46875,-2.609375 3.59375,-2.890625 3.59375,-3.203125 c 0,-0.28125 -0.078125,-0.515625 -0.25,-0.703125 -0.25,-0.28125 -0.796875,-0.453125 -1.421875,-0.453125 h -1.8125 v 0.125 c 0.5,0.0625 0.5625,0.125 0.5625,0.59375 v 2.84375 c 0,0.546875 -0.0625,0.625 -0.5625,0.671875 V 0 H 1.9375 V -0.125 C 1.421875,-0.15625 1.34375,-0.25 1.34375,-0.71875 V -2.015625 L 1.703125,-2.03125 3.28125,0 Z M 2.875,-3.203125 C 2.875,-2.875 2.75,-2.609375 2.5,-2.484375 2.203125,-2.3125 1.96875,-2.265625 1.34375,-2.25 v -1.625 c 0,-0.1875 0.078125,-0.234375 0.328125,-0.234375 0.828125,0 1.203125,0.28125 1.203125,0.90625 z m 0,0"
             id="path4287"
             style="stroke-width:0" />
        </g>
      </g>
      <path
         fill="#000000"
         d="m 0,10.969062 h 16.65625 v 0.502 H 0 Z"
         id="path865"
         style="stroke-width:0" />
      <g
         fill="#000000"
         fill-opacity="1"
         id="g1136"
         transform="translate(-155.887,-126.803)"
         style="stroke-width:0">
        <g
           transform="translate(160.484,146.479)"
           id="g2159"
           style="stroke-width:0">
          <path
             d="m 4.40625,-0.375 v -0.140625 c -0.15625,0 -0.1875,0 -0.203125,0 -0.328125,0 -0.40625,-0.09375 -0.40625,-0.5 v -5.09375 L 3.765625,-6.125 c -0.4375,0.15625 -0.75,0.234375 -1.328125,0.390625 v 0.140625 c 0.078125,0 0.125,0 0.203125,0 0.328125,0 0.40625,0.09375 0.40625,0.453125 v 1.40625 C 2.703125,-4.03125 2.46875,-4.125 2.109375,-4.125 c -1.03125,0 -1.875,1.015625 -1.875,2.28125 0,1.15625 0.6875,1.9375 1.671875,1.9375 0.5,0 0.84375,-0.1875 1.140625,-0.609375 V 0.0625 l 0.03125,0.03125 z M 3.046875,-0.921875 c 0,0.0625 -0.0625,0.171875 -0.15625,0.28125 C 2.734375,-0.46875 2.515625,-0.375 2.25,-0.375 c -0.75,0 -1.234375,-0.71875 -1.234375,-1.828125 0,-1 0.4375,-1.671875 1.125,-1.671875 0.46875,0 0.90625,0.421875 0.90625,0.890625 z m 0,0"
             id="path1791"
             style="stroke-width:0" />
        </g>
      </g>
      <g
         fill="#000000"
         fill-opacity="1"
         id="g4862"
         transform="translate(-155.887,-126.803)"
         style="stroke-width:0">
        <g
           transform="translate(164.931,146.479)"
           id="g4985"
           style="stroke-width:0">
          <path
             d="M 2.65625,-3.84375 H 1.9375 l 0.25,-0.921875 c 0.015625,-0.015625 0.015625,-0.03125 0.015625,-0.046875 0,-0.0625 -0.03125,-0.078125 -0.078125,-0.078125 -0.046875,0 -0.078125,0 -0.140625,0.078125 -0.84375,1.109375 -1.46875,0.921875 -1.46875,1.203125 0,0.015625 0,0.03125 0,0.0625 H 1.1875 l -0.65625,2.46875 c -0.015625,0.109375 -0.203125,0.671875 -0.203125,0.84375 0,0.1875 0.1875,0.328125 0.4375,0.328125 0.40625,0 0.703125,-0.25 1.265625,-1.078125 l -0.109375,-0.0625 c -0.4375,0.5625 -0.578125,0.703125 -0.734375,0.703125 -0.078125,0 -0.125,-0.0625 -0.125,-0.171875 0,-0.015625 0,-0.015625 0,-0.046875 l 0.796875,-2.984375 h 0.75 z m 0,0"
             id="path5960"
             style="stroke-width:0" />
        </g>
      </g>
    </g>
    <g
       id="g141"
       transform="matrix(1.33333,0,0,1.33333,544.35,88.691104)"
       ns3:version="1.12.0"
       ns3:texconverter="pdflatex"
       ns3:pdfconverter="inkscape"
       ns3:text="$\\jj\\omegam\\psiRs$"
       ns3:preamble="/home/mhinkkan/GitHub/motulator/docs/source/inkscape_textext_preamble.sty"
       ns3:scale="1.0"
       ns3:alignment="middle left"
       ns3:inkscapeversion="1.0.2"
       ns3:jacobian_sqrt="1.33333"
       style="stroke-width:0">
      <defs
         id="defs2779"
         style="stroke-width:0" />
      <g
         fill="#000000"
         fill-opacity="1"
         id="g140"
         transform="translate(-154.065,-129.49)"
         style="stroke-width:0">
        <g
           transform="translate(154.69,135.761)"
           id="g6295"
           style="stroke-width:0">
          <path
             d="M 1.734375,0 V -4.09375 L 1.6875,-4.125 c -0.53125,0.203125 -0.875,0.328125 -1.40625,0.484375 V -3.5 H 0.328125 C 0.46875,-3.53125 0.59375,-3.53125 0.6875,-3.53125 0.890625,-3.53125 0.984375,-3.375 0.984375,-3 v 3.40625 c 0,0.671875 -0.03125,0.90625 -0.125,1.078125 -0.0625,0.09375 -0.1875,0.171875 -0.3125,0.171875 -0.140625,0 -0.21875,-0.0625 -0.375,-0.25 -0.15625,-0.21875 -0.28125,-0.296875 -0.4375,-0.296875 -0.203125,0 -0.359375,0.15625 -0.359375,0.359375 0,0.28125 0.34375,0.484375 0.828125,0.484375 1,0 1.53125,-0.671875 1.53125,-1.953125 z M 1.8125,-5.671875 c 0,-0.25 -0.203125,-0.453125 -0.453125,-0.453125 -0.25,0 -0.46875,0.203125 -0.46875,0.453125 0,0.265625 0.21875,0.46875 0.46875,0.46875 0.25,0 0.453125,-0.203125 0.453125,-0.46875 z m 0,0"
             id="path3827"
             style="stroke-width:0" />
        </g>
      </g>
      <g
         fill="#000000"
         fill-opacity="1"
         id="g4379"
         transform="translate(-154.065,-129.49)"
         style="stroke-width:0">
        <g
           transform="translate(157.183,135.761)"
           id="g2933"
           style="stroke-width:0">
          <path
             d="m 5.984375,-2.265625 c 0,-0.9375 -0.609375,-1.609375 -0.6875,-1.6875 H 5 c 0.0625,0.109375 0.28125,0.53125 0.28125,1.171875 0,1.046875 -0.6875,2.515625 -1.5625,2.515625 -0.34375,0 -0.578125,-0.1875 -0.578125,-0.515625 0,-0.890625 0.484375,-1.734375 0.484375,-1.9375 0,-0.046875 -0.015625,-0.0625 -0.046875,-0.0625 h -0.4375 c -0.265625,0 -0.0625,2.515625 -1.453125,2.515625 -0.625,0 -0.671875,-0.625 -0.671875,-0.875 0,-1.421875 1.0625,-2.625 1.234375,-2.8125 H 1.953125 c 0,0 -1.75,1.171875 -1.75,2.78125 0,0.5625 0.296875,1.265625 1.234375,1.265625 1.09375,0 1.421875,-0.90625 1.421875,-0.921875 H 2.875 C 2.875,-0.8125 2.859375,-0.75 2.859375,-0.625 c 0,0.28125 0.109375,0.71875 0.90625,0.71875 1.125,0 2.21875,-1.21875 2.21875,-2.359375 z m 0,0"
             id="path7348"
             style="stroke-width:0" />
        </g>
      </g>
      <g
         fill="#000000"
         fill-opacity="1"
         id="g8493"
         transform="translate(-154.065,-129.49)"
         style="stroke-width:0">
        <g
           transform="translate(163.558,137.106)"
           id="g9555"
           style="stroke-width:0">
          <path
             d="M 5.09375,0 V -0.09375 L 4.921875,-0.109375 C 4.734375,-0.125 4.640625,-0.25 4.640625,-0.5 v -1.359375 c 0,-0.765625 -0.25,-1.171875 -0.765625,-1.171875 -0.375,0 -0.703125,0.171875 -1.0625,0.5625 -0.125,-0.375 -0.34375,-0.5625 -0.703125,-0.5625 -0.28125,0 -0.46875,0.09375 -1.015625,0.515625 v -0.5 L 1.046875,-3.03125 c -0.34375,0.125 -0.5625,0.203125 -0.921875,0.296875 V -2.625 c 0.078125,-0.015625 0.140625,-0.015625 0.203125,-0.015625 0.171875,0 0.234375,0.09375 0.234375,0.421875 v 1.65625 c 0,0.359375 -0.09375,0.453125 -0.453125,0.46875 V 0 H 1.5625 V -0.09375 C 1.21875,-0.109375 1.125,-0.1875 1.125,-0.4375 v -1.859375 c 0,0 0.046875,-0.078125 0.09375,-0.125 C 1.375,-2.578125 1.671875,-2.6875 1.890625,-2.6875 c 0.296875,0 0.4375,0.234375 0.4375,0.6875 v 1.4375 C 2.328125,-0.203125 2.25,-0.125 1.875,-0.09375 V 0 H 3.359375 V -0.09375 C 2.984375,-0.109375 2.875,-0.21875 2.875,-0.625 V -2.28125 C 3.078125,-2.5625 3.296875,-2.6875 3.59375,-2.6875 c 0.375,0 0.5,0.1875 0.5,0.734375 v 1.375 c 0,0.375 -0.0625,0.4375 -0.4375,0.484375 V 0 Z m 0,0"
             id="path8010"
             style="stroke-width:0" />
        </g>
      </g>
      <g
         fill="#000000"
         fill-opacity="1"
         id="g5768"
         transform="translate(-154.065,-129.49)"
         style="stroke-width:0">
        <g
           transform="translate(169.709,135.761)"
           id="g9023"
           style="stroke-width:0">
          <path
             d="M 6.09375,-3.953125 V -4.25 C 5.875,-4.328125 5.6875,-4.375 5.5,-4.375 c -1.125,0 -1.15625,1.140625 -1.25,1.953125 L 4.125,-1.25 c -0.046875,0.421875 -0.28125,0.734375 -0.65625,0.859375 v -3.875 H 2.75 v 3.875 C 2.375,-0.515625 2.140625,-0.828125 2.09375,-1.25 l -0.125,-1.171875 C 1.875,-3.234375 1.84375,-4.375 0.703125,-4.375 c -0.1875,0 -0.359375,0.046875 -0.59375,0.125 v 0.296875 c 0.484375,0.09375 0.625,0.125 0.6875,0.515625 0.21875,1.59375 -0.078125,3 1.953125,3.578125 V 1.9375 H 3.46875 V 0.140625 C 5.484375,-0.4375 5.203125,-1.84375 5.421875,-3.4375 5.484375,-3.828125 5.625,-3.859375 6.09375,-3.953125 Z m 0,0"
             id="path5897"
             style="stroke-width:0" />
        </g>
      </g>
      <g
         fill="#000000"
         fill-opacity="1"
         id="g8706"
         transform="translate(-154.065,-129.49)"
         style="stroke-width:0">
        <g
           transform="translate(176.461,132.506)"
           id="g5431"
           style="stroke-width:0">
          <path
             d="m 2.296875,-0.78125 c 0,-0.328125 -0.15625,-0.546875 -0.5625,-0.78125 L 1.03125,-1.984375 C 0.84375,-2.078125 0.75,-2.25 0.75,-2.421875 0.75,-2.703125 0.953125,-2.875 1.25,-2.875 c 0.375,0 0.578125,0.21875 0.71875,0.8125 h 0.109375 l -0.03125,-0.890625 h -0.09375 c -0.046875,0.046875 -0.0625,0.0625 -0.078125,0.0625 -0.046875,0 -0.109375,-0.015625 -0.1875,-0.046875 C 1.546875,-3 1.40625,-3.015625 1.25,-3.015625 c -0.546875,0 -0.921875,0.328125 -0.921875,0.8125 0,0.359375 0.21875,0.625 0.78125,0.9375 l 0.375,0.21875 c 0.234375,0.125 0.34375,0.296875 0.34375,0.5 0,0.28125 -0.203125,0.46875 -0.546875,0.46875 -0.453125,0 -0.6875,-0.25 -0.828125,-0.921875 H 0.34375 V 0.03125 H 0.421875 C 0.46875,-0.046875 0.5,-0.046875 0.578125,-0.046875 c 0.078125,0 0.140625,0 0.296875,0.046875 0.1875,0.046875 0.359375,0.0625 0.5,0.0625 0.5,0 0.921875,-0.375 0.921875,-0.84375 z m 0,0"
             id="path6392"
             style="stroke-width:0" />
        </g>
      </g>
      <g
         fill="#000000"
         fill-opacity="1"
         id="g1634"
         transform="translate(-154.065,-129.49)"
         style="stroke-width:0">
        <g
           transform="translate(176.461,138.953)"
           id="g1671"
           style="stroke-width:0">
          <path
             d="m 4.328125,0 v -0.125 c -0.25,-0.015625 -0.375,-0.078125 -0.5625,-0.3125 L 2.40625,-2.09375 C 2.84375,-2.1875 3.046875,-2.265625 3.265625,-2.4375 3.46875,-2.609375 3.59375,-2.890625 3.59375,-3.203125 c 0,-0.28125 -0.078125,-0.515625 -0.25,-0.703125 -0.25,-0.28125 -0.796875,-0.453125 -1.421875,-0.453125 h -1.8125 v 0.125 c 0.5,0.0625 0.5625,0.125 0.5625,0.59375 v 2.84375 c 0,0.546875 -0.0625,0.625 -0.5625,0.671875 V 0 H 1.9375 V -0.125 C 1.421875,-0.15625 1.34375,-0.25 1.34375,-0.71875 V -2.015625 L 1.703125,-2.03125 3.28125,0 Z M 2.875,-3.203125 C 2.875,-2.875 2.75,-2.609375 2.5,-2.484375 2.203125,-2.3125 1.96875,-2.265625 1.34375,-2.25 v -1.625 c 0,-0.1875 0.078125,-0.234375 0.328125,-0.234375 0.828125,0 1.203125,0.28125 1.203125,0.90625 z m 0,0"
             id="path2683"
             style="stroke-width:0" />
        </g>
      </g>
    </g>
    <g
       id="g151"
       transform="matrix(1.33333,0,0,1.33333,348.1645,47.5217)"
       ns3:version="1.12.0"
       ns3:texconverter="pdflatex"
       ns3:pdfconverter="inkscape"
       ns3:text="$\\iss$"
       ns3:preamble="/home/mhinkkan/GitHub/motulator/docs/source/inkscape_textext_preamble.sty"
       ns3:scale="1.0"
       ns3:alignment="bottom center"
       ns3:inkscapeversion="1.4"
       ns3:jacobian_sqrt="1.33333"
       style="display:inline">
      <defs
         id="defs144" />
      <g
         fill="#000000"
         fill-opacity="1"
         id="g146"
         transform="translate(-154.831,-129.49)">
        <g
           transform="translate(154.69,135.761)"
           id="g145">
          <path
             d="m 2.28125,0 v -0.21875 c -0.3125,-0.046875 -0.421875,-0.171875 -0.421875,-0.5 v -3.421875 h -1.71875 v 0.21875 C 0.53125,-3.84375 0.625,-3.765625 0.625,-3.390625 V -0.75 c 0,0.359375 -0.0625,0.4375 -0.484375,0.53125 V 0 Z M 1.921875,-5.5 c 0,-0.40625 -0.3125,-0.703125 -0.6875,-0.703125 -0.390625,0 -0.703125,0.296875 -0.703125,0.703125 0,0.390625 0.3125,0.6875 0.703125,0.6875 0.375,0 0.6875,-0.296875 0.6875,-0.6875 z m 0,0"
             id="path144" />
        </g>
      </g>
      <g
         fill="#000000"
         fill-opacity="1"
         id="g148"
         transform="translate(-154.831,-129.49)">
        <g
           transform="translate(157.183,132.506)"
           id="g147">
          <path
             d="m 2.296875,-0.78125 c 0,-0.328125 -0.15625,-0.546875 -0.5625,-0.78125 L 1.03125,-1.984375 C 0.84375,-2.078125 0.75,-2.25 0.75,-2.421875 0.75,-2.703125 0.953125,-2.875 1.25,-2.875 c 0.375,0 0.578125,0.21875 0.71875,0.8125 h 0.109375 l -0.03125,-0.890625 h -0.09375 c -0.046875,0.046875 -0.0625,0.0625 -0.078125,0.0625 -0.046875,0 -0.109375,-0.015625 -0.1875,-0.046875 C 1.546875,-3 1.40625,-3.015625 1.25,-3.015625 c -0.546875,0 -0.921875,0.328125 -0.921875,0.8125 0,0.359375 0.21875,0.625 0.78125,0.9375 l 0.375,0.21875 c 0.234375,0.125 0.34375,0.296875 0.34375,0.5 0,0.28125 -0.203125,0.46875 -0.546875,0.46875 -0.453125,0 -0.6875,-0.25 -0.828125,-0.921875 H 0.34375 V 0.03125 H 0.421875 C 0.46875,-0.046875 0.5,-0.046875 0.578125,-0.046875 c 0.078125,0 0.140625,0 0.296875,0.046875 0.1875,0.046875 0.359375,0.0625 0.5,0.0625 0.5,0 0.921875,-0.375 0.921875,-0.84375 z m 0,0"
             id="path146" />
        </g>
      </g>
      <g
         fill="#000000"
         fill-opacity="1"
         id="g150"
         transform="translate(-154.831,-129.49)">
        <g
           transform="translate(157.183,137.976)"
           id="g149">
          <path
             d="m 2.296875,-0.78125 c 0,-0.328125 -0.15625,-0.546875 -0.5625,-0.78125 L 1.03125,-1.984375 C 0.84375,-2.078125 0.75,-2.25 0.75,-2.421875 0.75,-2.703125 0.953125,-2.875 1.25,-2.875 c 0.375,0 0.578125,0.21875 0.71875,0.8125 h 0.109375 l -0.03125,-0.890625 h -0.09375 c -0.046875,0.046875 -0.0625,0.0625 -0.078125,0.0625 -0.046875,0 -0.109375,-0.015625 -0.1875,-0.046875 C 1.546875,-3 1.40625,-3.015625 1.25,-3.015625 c -0.546875,0 -0.921875,0.328125 -0.921875,0.8125 0,0.359375 0.21875,0.625 0.78125,0.9375 l 0.375,0.21875 c 0.234375,0.125 0.34375,0.296875 0.34375,0.5 0,0.28125 -0.203125,0.46875 -0.546875,0.46875 -0.453125,0 -0.6875,-0.25 -0.828125,-0.921875 H 0.34375 V 0.03125 H 0.421875 C 0.46875,-0.046875 0.5,-0.046875 0.578125,-0.046875 c 0.078125,0 0.140625,0 0.296875,0.046875 0.1875,0.046875 0.359375,0.0625 0.5,0.0625 0.5,0 0.921875,-0.375 0.921875,-0.84375 z m 0,0"
             id="path148" />
        </g>
      </g>
    </g>
    <g
       id="g162"
       transform="matrix(1.33333,0,0,1.33333,516.8105,46.3028)"
       ns3:version="1.12.0"
       ns3:texconverter="pdflatex"
       ns3:pdfconverter="inkscape"
       ns3:text="$\\iRs$"
       ns3:preamble="/home/mhinkkan/GitHub/motulator/docs/source/inkscape_textext_preamble.sty"
       ns3:scale="1.0"
       ns3:alignment="bottom center"
       ns3:inkscapeversion="1.0.2"
       ns3:jacobian_sqrt="1.33333"
       style="stroke-width:0">
      <defs
         id="defs5445"
         style="stroke-width:0" />
      <g
         fill="#000000"
         fill-opacity="1"
         id="g980"
         transform="translate(-154.831,-129.49)"
         style="stroke-width:0">
        <g
           transform="translate(154.69,135.761)"
           id="g188"
           style="stroke-width:0">
          <path
             d="m 2.28125,0 v -0.21875 c -0.3125,-0.046875 -0.421875,-0.171875 -0.421875,-0.5 v -3.421875 h -1.71875 v 0.21875 C 0.53125,-3.84375 0.625,-3.765625 0.625,-3.390625 V -0.75 c 0,0.359375 -0.0625,0.4375 -0.484375,0.53125 V 0 Z M 1.921875,-5.5 c 0,-0.40625 -0.3125,-0.703125 -0.6875,-0.703125 -0.390625,0 -0.703125,0.296875 -0.703125,0.703125 0,0.390625 0.3125,0.6875 0.703125,0.6875 0.375,0 0.6875,-0.296875 0.6875,-0.6875 z m 0,0"
             id="path3856"
             style="stroke-width:0" />
        </g>
      </g>
      <g
         fill="#000000"
         fill-opacity="1"
         id="g4255"
         transform="translate(-154.831,-129.49)"
         style="stroke-width:0">
        <g
           transform="translate(157.183,132.506)"
           id="g3910"
           style="stroke-width:0">
          <path
             d="m 2.296875,-0.78125 c 0,-0.328125 -0.15625,-0.546875 -0.5625,-0.78125 L 1.03125,-1.984375 C 0.84375,-2.078125 0.75,-2.25 0.75,-2.421875 0.75,-2.703125 0.953125,-2.875 1.25,-2.875 c 0.375,0 0.578125,0.21875 0.71875,0.8125 h 0.109375 l -0.03125,-0.890625 h -0.09375 c -0.046875,0.046875 -0.0625,0.0625 -0.078125,0.0625 -0.046875,0 -0.109375,-0.015625 -0.1875,-0.046875 C 1.546875,-3 1.40625,-3.015625 1.25,-3.015625 c -0.546875,0 -0.921875,0.328125 -0.921875,0.8125 0,0.359375 0.21875,0.625 0.78125,0.9375 l 0.375,0.21875 c 0.234375,0.125 0.34375,0.296875 0.34375,0.5 0,0.28125 -0.203125,0.46875 -0.546875,0.46875 -0.453125,0 -0.6875,-0.25 -0.828125,-0.921875 H 0.34375 V 0.03125 H 0.421875 C 0.46875,-0.046875 0.5,-0.046875 0.578125,-0.046875 c 0.078125,0 0.140625,0 0.296875,0.046875 0.1875,0.046875 0.359375,0.0625 0.5,0.0625 0.5,0 0.921875,-0.375 0.921875,-0.84375 z m 0,0"
             id="path6353"
             style="stroke-width:0" />
        </g>
      </g>
      <g
         fill="#000000"
         fill-opacity="1"
         id="g9837"
         transform="translate(-154.831,-129.49)"
         style="stroke-width:0">
        <g
           transform="translate(157.183,138.953)"
           id="g9030"
           style="stroke-width:0">
          <path
             d="m 4.328125,0 v -0.125 c -0.25,-0.015625 -0.375,-0.078125 -0.5625,-0.3125 L 2.40625,-2.09375 C 2.84375,-2.1875 3.046875,-2.265625 3.265625,-2.4375 3.46875,-2.609375 3.59375,-2.890625 3.59375,-3.203125 c 0,-0.28125 -0.078125,-0.515625 -0.25,-0.703125 -0.25,-0.28125 -0.796875,-0.453125 -1.421875,-0.453125 h -1.8125 v 0.125 c 0.5,0.0625 0.5625,0.125 0.5625,0.59375 v 2.84375 c 0,0.546875 -0.0625,0.625 -0.5625,0.671875 V 0 H 1.9375 V -0.125 C 1.421875,-0.15625 1.34375,-0.25 1.34375,-0.71875 V -2.015625 L 1.703125,-2.03125 3.28125,0 Z M 2.875,-3.203125 C 2.875,-2.875 2.75,-2.609375 2.5,-2.484375 2.203125,-2.3125 1.96875,-2.265625 1.34375,-2.25 v -1.625 c 0,-0.1875 0.078125,-0.234375 0.328125,-0.234375 0.828125,0 1.203125,0.28125 1.203125,0.90625 z m 0,0"
             id="path1526"
             style="stroke-width:0" />
        </g>
      </g>
    </g>
    <g
       id="g170"
       transform="matrix(1.33333,0,0,1.33333,369.68368,45.22997)"
       ns3:version="1.12.0"
       ns3:texconverter="pdflatex"
       ns3:pdfconverter="inkscape"
       ns3:text="$\\Rs$"
       ns3:preamble="/home/mhinkkan/GitHub/motulator/docs/source/inkscape_textext_preamble.sty"
       ns3:scale="1.0"
       ns3:alignment="bottom center"
       ns3:inkscapeversion="1.4"
       ns3:jacobian_sqrt="1.33333"
       style="display:inline">
      <defs
         id="defs165" />
      <g
         fill="#000000"
         fill-opacity="1"
         id="g167"
         transform="translate(-154.966,-129.902)">
        <g
           transform="translate(155.075,135.761)"
           id="g166">
          <path
             d="M 5.078125,0 V -0.140625 C 4.6875,-0.171875 4.515625,-0.328125 4.34375,-0.796875 L 3.5,-2.984375 c 0.703125,-0.15625 1,-0.28125 1.3125,-0.5625 C 5.109375,-3.8125 5.28125,-4.15625 5.28125,-4.5625 c 0,-0.84375 -0.65625,-1.296875 -1.875,-1.296875 H 1.1875 v 0.140625 c 0.375,0.0625 0.421875,0.0625 0.515625,0.125 0.0625,0.046875 0.125,0.15625 0.125,0.25 0,0.109375 -0.046875,0.328125 -0.109375,0.578125 L 0.609375,-0.8125 c -0.15625,0.53125 -0.21875,0.59375 -0.71875,0.671875 V 0 h 2.1875 V -0.140625 C 1.515625,-0.21875 1.46875,-0.25 1.46875,-0.5625 c 0,-0.09375 0.015625,-0.1875 0.09375,-0.515625 l 0.515625,-1.875 L 2.65625,-2.90625 3.765625,0 Z m -0.75,-4.578125 c 0,0.890625 -0.5625,1.34375 -1.6875,1.34375 -0.171875,0 -0.234375,-0.015625 -0.46875,-0.046875 l 0.59375,-2.0625 c 0.046875,-0.1875 0.171875,-0.25 0.453125,-0.25 0.75,0 1.109375,0.34375 1.109375,1.015625 z m 0,0"
             id="path165" />
        </g>
      </g>
      <g
         fill="#000000"
         fill-opacity="1"
         id="g169"
         transform="translate(-154.966,-129.902)">
        <g
           transform="translate(160.644,137.106)"
           id="g168">
          <path
             d="m 2.296875,-0.78125 c 0,-0.328125 -0.15625,-0.546875 -0.5625,-0.78125 L 1.03125,-1.984375 C 0.84375,-2.078125 0.75,-2.25 0.75,-2.421875 0.75,-2.703125 0.953125,-2.875 1.25,-2.875 c 0.375,0 0.578125,0.21875 0.71875,0.8125 h 0.109375 l -0.03125,-0.890625 h -0.09375 c -0.046875,0.046875 -0.0625,0.0625 -0.078125,0.0625 -0.046875,0 -0.109375,-0.015625 -0.1875,-0.046875 C 1.546875,-3 1.40625,-3.015625 1.25,-3.015625 c -0.546875,0 -0.921875,0.328125 -0.921875,0.8125 0,0.359375 0.21875,0.625 0.78125,0.9375 l 0.375,0.21875 c 0.234375,0.125 0.34375,0.296875 0.34375,0.5 0,0.28125 -0.203125,0.46875 -0.546875,0.46875 -0.453125,0 -0.6875,-0.25 -0.828125,-0.921875 H 0.34375 V 0.03125 H 0.421875 C 0.46875,-0.046875 0.5,-0.046875 0.578125,-0.046875 c 0.078125,0 0.140625,0 0.296875,0.046875 0.1875,0.046875 0.359375,0.0625 0.5,0.0625 0.5,0 0.921875,-0.375 0.921875,-0.84375 z m 0,0"
             id="path167" />
        </g>
      </g>
    </g>
    <g
       id="g178"
       transform="matrix(1.33333,0,0,1.33333,488.32952,45.3128)"
       ns3:version="1.12.0"
       ns3:texconverter="pdflatex"
       ns3:pdfconverter="inkscape"
       ns3:text="$\\RR$"
       ns3:preamble="/home/mhinkkan/GitHub/motulator/docs/source/inkscape_textext_preamble.sty"
       ns3:scale="1.0"
       ns3:alignment="bottom center"
       ns3:inkscapeversion="1.0.2"
       ns3:jacobian_sqrt="1.33333"
       style="stroke-width:0">
      <defs
         id="defs6416"
         style="stroke-width:0" />
      <g
         fill="#000000"
         fill-opacity="1"
         id="g6734"
         transform="translate(-154.966,-129.902)"
         style="stroke-width:0">
        <g
           transform="translate(155.075,135.761)"
           id="g3418"
           style="stroke-width:0">
          <path
             d="M 5.078125,0 V -0.140625 C 4.6875,-0.171875 4.515625,-0.328125 4.34375,-0.796875 L 3.5,-2.984375 c 0.703125,-0.15625 1,-0.28125 1.3125,-0.5625 C 5.109375,-3.8125 5.28125,-4.15625 5.28125,-4.5625 c 0,-0.84375 -0.65625,-1.296875 -1.875,-1.296875 H 1.1875 v 0.140625 c 0.375,0.0625 0.421875,0.0625 0.515625,0.125 0.0625,0.046875 0.125,0.15625 0.125,0.25 0,0.109375 -0.046875,0.328125 -0.109375,0.578125 L 0.609375,-0.8125 c -0.15625,0.53125 -0.21875,0.59375 -0.71875,0.671875 V 0 h 2.1875 V -0.140625 C 1.515625,-0.21875 1.46875,-0.25 1.46875,-0.5625 c 0,-0.09375 0.015625,-0.1875 0.09375,-0.515625 l 0.515625,-1.875 L 2.65625,-2.90625 3.765625,0 Z m -0.75,-4.578125 c 0,0.890625 -0.5625,1.34375 -1.6875,1.34375 -0.171875,0 -0.234375,-0.015625 -0.46875,-0.046875 l 0.59375,-2.0625 c 0.046875,-0.1875 0.171875,-0.25 0.453125,-0.25 0.75,0 1.109375,0.34375 1.109375,1.015625 z m 0,0"
             id="path1008"
             style="stroke-width:0" />
        </g>
      </g>
      <g
         fill="#000000"
         fill-opacity="1"
         id="g3115"
         transform="translate(-154.966,-129.902)"
         style="stroke-width:0">
        <g
           transform="translate(160.644,137.106)"
           id="g268"
           style="stroke-width:0">
          <path
             d="m 4.328125,0 v -0.125 c -0.25,-0.015625 -0.375,-0.078125 -0.5625,-0.3125 L 2.40625,-2.09375 C 2.84375,-2.1875 3.046875,-2.265625 3.265625,-2.4375 3.46875,-2.609375 3.59375,-2.890625 3.59375,-3.203125 c 0,-0.28125 -0.078125,-0.515625 -0.25,-0.703125 -0.25,-0.28125 -0.796875,-0.453125 -1.421875,-0.453125 h -1.8125 v 0.125 c 0.5,0.0625 0.5625,0.125 0.5625,0.59375 v 2.84375 c 0,0.546875 -0.0625,0.625 -0.5625,0.671875 V 0 H 1.9375 V -0.125 C 1.421875,-0.15625 1.34375,-0.25 1.34375,-0.71875 V -2.015625 L 1.703125,-2.03125 3.28125,0 Z M 2.875,-3.203125 C 2.875,-2.875 2.75,-2.609375 2.5,-2.484375 2.203125,-2.3125 1.96875,-2.265625 1.34375,-2.25 v -1.625 c 0,-0.1875 0.078125,-0.234375 0.328125,-0.234375 0.828125,0 1.203125,0.28125 1.203125,0.90625 z m 0,0"
             id="path7046"
             style="stroke-width:0" />
        </g>
      </g>
    </g>
    <g
       id="g189"
       transform="matrix(1.33333,0,0,1.33333,417.63027,45.2086)"
       ns3:version="1.12.0"
       ns3:texconverter="pdflatex"
       ns3:pdfconverter="inkscape"
       ns3:text="$\\Lsgm$"
       ns3:preamble="/home/mhinkkan/GitHub/motulator/docs/source/inkscape_textext_preamble.sty"
       ns3:scale="1.0"
       ns3:alignment="bottom center"
       ns3:inkscapeversion="1.0.2"
       ns3:jacobian_sqrt="1.33333"
       style="stroke-width:0">
      <defs
         id="defs7151"
         style="stroke-width:0" />
      <g
         fill="#000000"
         fill-opacity="1"
         id="g9898"
         transform="translate(-155.024,-129.902)"
         style="stroke-width:0">
        <g
           transform="translate(155.102,135.761)"
           id="g9001"
           style="stroke-width:0">
          <path
             d="m 5.015625,-1.609375 -0.1875,-0.046875 c -0.3125,0.640625 -0.546875,0.921875 -0.9375,1.125 -0.3125,0.15625 -0.6875,0.203125 -1.484375,0.203125 -0.671875,0 -0.890625,-0.0625 -0.890625,-0.296875 0,-0.078125 0.03125,-0.265625 0.09375,-0.453125 l 1.09375,-3.96875 c 0.140625,-0.453125 0.375,-0.625 0.90625,-0.671875 v -0.140625 h -2.4375 v 0.140625 c 0.5625,0.0625 0.6875,0.125 0.6875,0.390625 0,0.140625 -0.03125,0.3125 -0.09375,0.5625 L 0.65625,-0.8125 C 0.5,-0.28125 0.4375,-0.234375 -0.078125,-0.140625 V 0 H 4.5 Z m 0,0"
             id="path2735"
             style="stroke-width:0" />
        </g>
      </g>
      <g
         fill="#000000"
         fill-opacity="1"
         id="g2132"
         transform="translate(-155.024,-129.902)"
         style="stroke-width:0">
        <g
           transform="translate(161.11,137.106)"
           id="g2795"
           style="stroke-width:0">
          <path
             d="m 4.96875,-2.90625 h -2.6875 c -1.109375,0 -2.109375,0.828125 -2.109375,1.9375 0,0.671875 0.40625,1.046875 1.1875,1.046875 0.9375,0 2.109375,-0.78125 2.109375,-1.953125 0,-0.375 -0.203125,-0.53125 -0.203125,-0.53125 h 1.5625 z M 2.828125,-1.875 c 0,0.984375 -0.59375,1.78125 -1.328125,1.78125 -0.5625,0 -0.625,-0.65625 -0.625,-0.859375 0,-1.265625 0.734375,-1.765625 1.265625,-1.765625 0.28125,0 0.6875,0.0625 0.6875,0.84375 z m 0,0"
             id="path1919"
             style="stroke-width:0" />
        </g>
      </g>
    </g>
  </g>
</svg>
