<?xml version="1.0" encoding="UTF-8" standalone="no"?>
<svg
   width="480"
   height="85"
   id="svg3470"
   sodipodi:version="0.32"
   inkscape:version="1.3 (0e150ed6c4, 2023-07-21)"
   sodipodi:docname="lc_filter.svg"
   inkscape:output_extension="org.inkscape.output.svg.inkscape"
   version="1.0"
   xmlns:inkscape="http://www.inkscape.org/namespaces/inkscape"
   xmlns:sodipodi="http://sodipodi.sourceforge.net/DTD/sodipodi-0.dtd"
   xmlns="http://www.w3.org/2000/svg"
   xmlns:svg="http://www.w3.org/2000/svg"
   xmlns:rdf="http://www.w3.org/1999/02/22-rdf-syntax-ns#"
   xmlns:cc="http://creativecommons.org/ns#"
   xmlns:dc="http://purl.org/dc/elements/1.1/">
  <sodipodi:namedview
     id="base"
     pagecolor="#ffffff"
     bordercolor="#666666"
     borderopacity="1.0"
     gridtolerance="36.6"
     guidetolerance="10"
     objecttolerance="10"
     inkscape:pageopacity="0.0"
     inkscape:pageshadow="2"
     inkscape:zoom="2.2766006"
     inkscape:cx="240.05089"
     inkscape:cy="19.546687"
     inkscape:document-units="px"
     inkscape:current-layer="layer2"
     showgrid="true"
     inkscape:grid-points="true"
     inkscape:object-paths="true"
     inkscape:object-points="false"
     inkscape:grid-bbox="false"
     inkscape:window-width="2560"
     inkscape:window-height="1377"
     inkscape:window-x="-8"
     inkscape:window-y="-8"
     width="349.29px"
     height="359.4px"
     showguides="true"
     inkscape:guide-bbox="true"
     inkscape:guide-points="false"
     inkscape:object-nodes="true"
     inkscape:object-bbox="true"
     inkscape:snap-bbox="false"
     inkscape:snap-nodes="true"
     inkscape:bbox-paths="true"
     inkscape:snap-global="true"
     inkscape:snap-guide="true"
     inkscape:window-maximized="1"
     inkscape:snap-grids="true"
     inkscape:snap-object-midpoints="true"
     inkscape:snap-to-guides="false"
     inkscape:document-rotation="0"
     fit-margin-top="0"
     fit-margin-left="0"
     fit-margin-right="0"
     fit-margin-bottom="0"
     inkscape:showpageshadow="2"
     inkscape:pagecheckerboard="0"
     inkscape:deskcolor="#d1d1d1">
    <inkscape:grid
       snapvisiblegridlinesonly="true"
       empspacing="5"
       empopacity="0.4"
       opacity="0.2"
       empcolor="#0000ff"
       color="#0000ff"
       spacingy="0.5"
       spacingx="0.5"
       originy="-150"
       originx="215"
       type="xygrid"
       id="GridFromPre046Settings"
       visible="true"
       enabled="true"
       units="px" />
    <sodipodi:guide
       id="guide35742"
       position="2164.5192,1189.6728"
       orientation="0,1"
       inkscape:locked="false" />
  </sodipodi:namedview>
  <defs
     id="defs3472">
    <marker
       refX="0"
       inkscape:stockid="Dot_m"
       refY="0"
       orient="auto"
       id="marker52572"
       style="overflow:visible">
      <path
         inkscape:connector-curvature="0"
         id="path52574"
         d="m -2.5,-1 c 0,2.76 -2.24,5 -5,5 -2.76,0 -5,-2.24 -5,-5 0,-2.76 2.24,-5 5,-5 2.76,0 5,2.24 5,5 z"
         transform="matrix(0.4,0,0,0.4,2.96,0.4)"
         style="fill-rule:evenodd;stroke:#000000;stroke-width:1pt;marker-start:none;marker-end:none" />
    </marker>
    <marker
       style="overflow:visible"
       id="marker19838"
       refX="0"
       refY="0"
       orient="auto"
       inkscape:stockid="DotM">
      <path
         transform="matrix(0.4,0,0,0.4,2.96,0.4)"
         style="fill-rule:evenodd;stroke:#000000;stroke-width:1pt;marker-start:none;marker-end:none"
         d="m -2.5,-1 c 0,2.76 -2.24,5 -5,5 -2.76,0 -5,-2.24 -5,-5 0,-2.76 2.24,-5 5,-5 2.76,0 5,2.24 5,5 z"
         id="path19840"
         inkscape:connector-curvature="0" />
    </marker>
    <marker
       style="overflow:visible"
       id="marker19838-5"
       refX="0"
       refY="0"
       orient="auto"
       inkscape:stockid="DotM">
      <path
         transform="matrix(0.4,0,0,0.4,2.96,0.4)"
         style="fill-rule:evenodd;stroke:#000000;stroke-width:1pt;marker-start:none;marker-end:none"
         d="m -2.5,-1 c 0,2.76 -2.24,5 -5,5 -2.76,0 -5,-2.24 -5,-5 0,-2.76 2.24,-5 5,-5 2.76,0 5,2.24 5,5 z"
         id="path19840-4"
         inkscape:connector-curvature="0" />
    </marker>
    <marker
       inkscape:stockid="DotM"
       orient="auto"
       refY="0"
       refX="0"
       id="marker19838-3"
       style="overflow:visible">
      <path
         inkscape:connector-curvature="0"
         id="path19840-6"
         d="m -2.5,-1 c 0,2.76 -2.24,5 -5,5 -2.76,0 -5,-2.24 -5,-5 0,-2.76 2.24,-5 5,-5 2.76,0 5,2.24 5,5 z"
         style="fill-rule:evenodd;stroke:#000000;stroke-width:1pt;marker-start:none;marker-end:none"
         transform="matrix(0.4,0,0,0.4,2.96,0.4)" />
    </marker>
    <marker
       style="overflow:visible"
       id="marker52572-7"
       orient="auto"
       refY="0"
       inkscape:stockid="Dot_m"
       refX="0">
      <path
         style="fill-rule:evenodd;stroke:#000000;stroke-width:1pt;marker-start:none;marker-end:none"
         transform="matrix(0.4,0,0,0.4,2.96,0.4)"
         d="m -2.5,-1 c 0,2.76 -2.24,5 -5,5 -2.76,0 -5,-2.24 -5,-5 0,-2.76 2.24,-5 5,-5 2.76,0 5,2.24 5,5 z"
         id="path52574-5"
         inkscape:connector-curvature="0" />
    </marker>
    <marker
       style="overflow:visible"
       id="Arrow2Mend"
       orient="auto"
       refY="0"
       inkscape:stockid="Arrow2Mend"
       refX="0">
      <path
         style="font-size:12px;fill-rule:evenodd;stroke-width:0.625;stroke-linejoin:round"
         transform="scale(-0.6)"
         d="M 8.7185878,4.0337352 -2.2072895,0.01601326 8.7185884,-4.0017078 c -1.7454984,2.3720609 -1.7354408,5.6174519 -6e-7,8.035443 z"
         id="path18502" />
    </marker>
    <marker
       inkscape:stockid="DotM"
       orient="auto"
       refY="0"
       refX="0"
       id="DotM-5-93"
       style="overflow:visible">
      <path
         inkscape:connector-curvature="0"
         id="path4728-9-74-3"
         d="m -2.5,-1 c 0,2.76 -2.24,5 -5,5 -2.76,0 -5,-2.24 -5,-5 0,-2.76 2.24,-5 5,-5 2.76,0 5,2.24 5,5 z"
         style="fill-rule:evenodd;stroke:#000000;stroke-width:1pt;marker-start:none;marker-end:none"
         transform="matrix(0.4,0,0,0.4,2.96,0.4)" />
    </marker>
    <marker
       inkscape:stockid="DotM"
       orient="auto"
       refY="0"
       refX="0"
       id="DotM-7"
       style="overflow:visible">
      <path
         id="path4728-3"
         d="m -2.5,-1 c 0,2.76 -2.24,5 -5,5 -2.76,0 -5,-2.24 -5,-5 0,-2.76 2.24,-5 5,-5 2.76,0 5,2.24 5,5 z"
         style="fill-rule:evenodd;stroke:#000000;stroke-width:1pt;marker-start:none;marker-end:none"
         transform="matrix(0.4,0,0,0.4,2.96,0.4)" />
    </marker>
    <marker
       style="overflow:visible"
       id="Arrow2Mstart"
       orient="auto"
       refY="0"
       inkscape:stockid="Arrow2Mstart"
       refX="0">
      <path
         style="font-size:12px;fill-rule:evenodd;stroke-width:0.625;stroke-linejoin:round"
         transform="scale(0.6)"
         d="M 8.7185878,4.0337352 -2.2072895,0.01601326 8.7185884,-4.0017078 c -1.7454984,2.3720609 -1.7354408,5.6174519 -6e-7,8.035443 z"
         id="path21014" />
    </marker>
    <marker
       refX="0"
       inkscape:stockid="Arrow2Mstart"
       refY="0"
       orient="auto"
       id="Arrow2Mstart-3"
       style="overflow:visible">
      <path
         id="path21014-6"
         d="M 8.7185878,4.0337352 -2.2072895,0.01601326 8.7185884,-4.0017078 c -1.7454984,2.3720609 -1.7354408,5.6174519 -6e-7,8.035443 z"
         transform="scale(0.6)"
         style="font-size:12px;fill-rule:evenodd;stroke-width:0.625;stroke-linejoin:round"
         inkscape:connector-curvature="0" />
    </marker>
    <marker
       style="overflow:visible"
       id="marker19838-5-7"
       refX="0"
       refY="0"
       orient="auto"
       inkscape:stockid="DotM">
      <path
         transform="matrix(0.4,0,0,0.4,2.96,0.4)"
         style="fill-rule:evenodd;stroke:#000000;stroke-width:1pt;marker-start:none;marker-end:none"
         d="m -2.5,-1 c 0,2.76 -2.24,5 -5,5 -2.76,0 -5,-2.24 -5,-5 0,-2.76 2.24,-5 5,-5 2.76,0 5,2.24 5,5 z"
         id="path19840-4-5"
         inkscape:connector-curvature="0" />
    </marker>
    <marker
       style="overflow:visible"
       id="marker619"
       refX="0"
       refY="0"
       orient="auto"
       inkscape:stockid="DotM">
      <path
         transform="matrix(0.4,0,0,0.4,2.96,0.4)"
         style="fill-rule:evenodd;stroke:#000000;stroke-width:1pt;marker-start:none;marker-end:none"
         d="m -2.5,-1 c 0,2.76 -2.24,5 -5,5 -2.76,0 -5,-2.24 -5,-5 0,-2.76 2.24,-5 5,-5 2.76,0 5,2.24 5,5 z"
         id="path617"
         inkscape:connector-curvature="0" />
    </marker>
    <marker
       refX="0"
       inkscape:stockid="Arrow2Mstart"
       refY="0"
       orient="auto"
       id="marker623"
       style="overflow:visible">
      <path
         id="path621"
         d="M 8.7185878,4.0337352 -2.2072895,0.01601326 8.7185884,-4.0017078 c -1.7454984,2.3720609 -1.7354408,5.6174519 -6e-7,8.035443 z"
         transform="scale(0.6)"
         style="font-size:12px;fill-rule:evenodd;stroke-width:0.625;stroke-linejoin:round"
         inkscape:connector-curvature="0" />
    </marker>
    <marker
       refX="0"
       inkscape:stockid="Arrow2Mstart"
       refY="0"
       orient="auto"
       id="marker627"
       style="overflow:visible">
      <path
         id="path625"
         d="M 8.7185878,4.0337352 -2.2072895,0.01601326 8.7185884,-4.0017078 c -1.7454984,2.3720609 -1.7354408,5.6174519 -6e-7,8.035443 z"
         transform="scale(0.6)"
         style="font-size:12px;fill-rule:evenodd;stroke-width:0.625;stroke-linejoin:round"
         inkscape:connector-curvature="0" />
    </marker>
    <marker
       refX="0"
       inkscape:stockid="Arrow2Mstart"
       refY="0"
       orient="auto"
       id="marker631"
       style="overflow:visible">
      <path
         id="path629"
         d="M 8.7185878,4.0337352 -2.2072895,0.01601326 8.7185884,-4.0017078 c -1.7454984,2.3720609 -1.7354408,5.6174519 -6e-7,8.035443 z"
         transform="scale(0.6)"
         style="font-size:12px;fill-rule:evenodd;stroke-width:0.625;stroke-linejoin:round"
         inkscape:connector-curvature="0" />
    </marker>
    <marker
       refX="0"
       inkscape:stockid="Arrow2MstartS"
       refY="0"
       orient="auto"
       id="Arrow2MstartS"
       style="overflow:visible">
      <path
         id="path4316"
         d="M 8.7185878,4.0337352 -2.2072895,0.01601326 8.7185884,-4.0017078 c -1.7454984,2.3720609 -1.7354408,5.6174519 -6e-7,8.035443 z"
         transform="scale(0.6)"
         style="font-size:12px;fill:#ff0000;fill-opacity:1;fill-rule:evenodd;stroke:#ff0000;stroke-width:0.625;stroke-linejoin:round;stroke-opacity:1"
         inkscape:connector-curvature="0" />
    </marker>
    <marker
       refX="0"
       inkscape:stockid="Arrow2MstartS"
       refY="0"
       orient="auto"
       id="marker637"
       style="overflow:visible">
      <path
         id="path635"
         d="M 8.7185878,4.0337352 -2.2072895,0.01601326 8.7185884,-4.0017078 c -1.7454984,2.3720609 -1.7354408,5.6174519 -6e-7,8.035443 z"
         transform="scale(0.6)"
         style="font-size:12px;fill:#ff0000;fill-opacity:1;fill-rule:evenodd;stroke:#ff0000;stroke-width:0.625;stroke-linejoin:round;stroke-opacity:1"
         inkscape:connector-curvature="0" />
    </marker>
    <clipPath
       id="clipPath1484">
      <path
         clip-rule="nonzero"
         d="m 7,2 h 3 V 5.921875 H 7 Z m 0,0"
         id="path6275" />
    </clipPath>
    <clipPath
       id="clipPath480">
      <path
         clip-rule="nonzero"
         d="m 7,5 h 3 V 9.082031 H 7 Z m 0,0"
         id="path9423" />
    </clipPath>
    <clipPath
       id="clipPath3784">
      <path
         clip-rule="nonzero"
         d="M 4,6 H 7 V 9.910156 H 4 Z m 0,0"
         id="path5002" />
    </clipPath>
    <clipPath
       id="clipPath1202">
      <path
         clip-rule="nonzero"
         d="M 4,6 H 8 V 9.910156 H 4 Z m 0,0"
         id="path2162" />
    </clipPath>
    <clipPath
       id="clipPath85">
      <path
         clip-rule="nonzero"
         d="m 7,5 h 3.824219 V 9.082031 H 7 Z m 0,0"
         id="path6230" />
    </clipPath>
    <clipPath
       id="clipPath4672">
      <path
         clip-rule="nonzero"
         d="m 7,3 h 5.988281 V 8.300781 H 7 Z m 0,0"
         id="path7226" />
    </clipPath>
    <clipPath
       id="clipPath9839">
      <path
         clip-rule="nonzero"
         d="m 8,3 h 6 V 8.300781 H 8 Z m 0,0"
         id="path8415" />
    </clipPath>
    <clipPath
       id="clipPath9213">
      <path
         clip-rule="nonzero"
         d="M 0,0 H 7.832031 V 6.808594 H 0 Z m 0,0"
         id="path9016" />
    </clipPath>
  </defs>
  <metadata
     id="metadata3475">
    <rdf:RDF>
      <cc:Work
         rdf:about="">
        <dc:format>image/svg+xml</dc:format>
        <dc:type
           rdf:resource="http://purl.org/dc/dcmitype/StillImage" />
      </cc:Work>
    </rdf:RDF>
  </metadata>
  <g
     transform="translate(35.165005,-479.65454)"
     inkscape:groupmode="layer"
     id="layer1"
     style="display:inline"
     inkscape:label="Circuit" />
  <g
     inkscape:groupmode="layer"
     id="layer2"
     style="display:inline;opacity:1"
     inkscape:label="Labels"
     transform="translate(215,-150)">
    <g
       transform="translate(60.78574,-218.71623)"
       id="layer1-7"
       style="display:inline"
       inkscape:label="Circuit" />
    <g
       inkscape:label="Circuit"
       style="display:inline"
       id="layer1-47"
       transform="translate(-30.85972,-237.79024)" />
    <g
       transform="translate(359.14028,-162.79024)"
       id="layer1-0"
       style="display:inline"
       inkscape:label="Circuit" />
    <g
       inkscape:label="Circuit"
       style="display:inline"
       id="layer1-5"
       transform="translate(139.14028,57.209758)" />
    <g
       transform="translate(11.64029,-127.79026)"
       id="layer1-4"
       style="display:inline"
       inkscape:label="Circuit" />
    <g
       inkscape:label="Circuit"
       style="display:inline"
       id="layer1-3"
       transform="translate(319.14028,-167.79024)" />
    <g
       inkscape:label="Circuit"
       style="display:inline"
       id="layer1-4-8"
       transform="translate(214.14029,-110.29026)" />
    <g
       transform="translate(-87.335,-193.15454)"
       id="layer1-9"
       style="display:inline"
       inkscape:label="Circuit" />
    <path
       style="display:inline;fill:none;stroke:#000000;stroke-width:1px;stroke-linecap:square;stroke-linejoin:miter;stroke-opacity:1;marker-start:none;marker-mid:none;marker-end:none"
       d="m 99.99996,225 h -150"
       sodipodi:nodetypes="cc"
       id="path1802"
       inkscape:export-filename="/home/mhinkkan/Desktop/testi.png"
       inkscape:export-xdpi="300"
       inkscape:export-ydpi="300"
       inkscape:connector-curvature="0" />
    <path
       style="display:inline;fill:none;stroke:#000000;stroke-width:1px;stroke-linecap:round;stroke-linejoin:miter;stroke-opacity:1;marker-start:none;marker-mid:none;marker-end:none"
       d="m -20.00003,175 h -30"
       sodipodi:nodetypes="cc"
       id="path3464"
       inkscape:export-filename="/home/mhinkkan/Desktop/testi.png"
       inkscape:export-xdpi="300"
       inkscape:export-ydpi="300"
       inkscape:connector-curvature="0" />
    <path
       id="path24525-7-5-7-9-1"
       sodipodi:nodetypes="cccc"
       d="m 9.99993,175 c 0,-7 -10,-7 -10,0 0,-7 -10,-7 -10,0 0,-7 -10,-7 -10,0"
       style="font-style:normal;font-variant:normal;font-weight:normal;font-stretch:normal;font-size:12px;line-height:125%;font-family:'Bitstream Vera Sans';text-align:start;writing-mode:lr-tb;text-anchor:start;display:inline;fill:none;stroke:#000000;stroke-width:1.333;stroke-linecap:round;stroke-linejoin:round;stroke-miterlimit:4;stroke-dasharray:none;stroke-opacity:1"
       inkscape:connector-curvature="0" />
    <path
       inkscape:connector-curvature="0"
       inkscape:export-ydpi="300"
       inkscape:export-xdpi="300"
       inkscape:export-filename="/home/mhinkkan/Desktop/testi.png"
       id="path10918-9-9-0-97-32-7-4-3-4"
       sodipodi:nodetypes="cc"
       d="m 99.99996,175 h -45"
       style="display:inline;fill:none;stroke:#000000;stroke-width:1px;stroke-linecap:round;stroke-linejoin:miter;stroke-opacity:1;marker-start:none;marker-mid:none;marker-end:none" />
    <path
       inkscape:connector-curvature="0"
       style="display:inline;fill:none;stroke:#000000;stroke-width:1px;stroke-linecap:round;stroke-linejoin:miter;stroke-opacity:1;marker-start:url(#Arrow2Mstart-3);marker-mid:none"
       d="m -34.9122,175.00961 h -5"
       sodipodi:nodetypes="cc"
       id="path3533-1"
       inkscape:export-filename="C:\Documents and Settings\mhinkkan\Desktop\testi.png"
       inkscape:export-xdpi="300"
       inkscape:export-ydpi="300" />
    <g
       transform="matrix(-1,0,0,1,354.99994,134.09586)"
       id="g3875"
       style="display:inline">
      <path
         id="path3877"
         sodipodi:nodetypes="cc"
         d="m 280,63.404145 h 10"
         style="fill:none;stroke:#000000;stroke-width:2.55;stroke-linecap:square;stroke-linejoin:miter;stroke-miterlimit:4;stroke-dasharray:none;stroke-opacity:1"
         inkscape:connector-curvature="0" />
      <path
         id="path3879"
         sodipodi:nodetypes="cc"
         d="m 280,68.404145 h 10"
         style="display:inline;fill:none;stroke:#000000;stroke-width:2.55;stroke-linecap:square;stroke-linejoin:miter;stroke-miterlimit:4;stroke-dasharray:none;stroke-opacity:1"
         inkscape:connector-curvature="0" />
      <path
         id="path3881"
         sodipodi:nodetypes="cc"
         d="m 285,68.404145 v 7.5"
         style="fill:none;stroke:#000000;stroke-width:1px;stroke-linecap:round;stroke-linejoin:miter;stroke-opacity:1"
         inkscape:connector-curvature="0" />
      <path
         id="path3883"
         sodipodi:nodetypes="cc"
         d="m 285,55.904144 v 7"
         style="display:inline;fill:none;stroke:#000000;stroke-width:1px;stroke-linecap:round;stroke-linejoin:miter;stroke-opacity:1"
         inkscape:connector-curvature="0" />
    </g>
    <path
       inkscape:connector-curvature="0"
       inkscape:export-ydpi="300"
       inkscape:export-xdpi="300"
       inkscape:export-filename="/home/mhinkkan/Desktop/testi.png"
       sodipodi:nodetypes="cc"
       id="path3917"
       d="M 69.99996,190 70,175"
       style="display:inline;fill:none;stroke:#000000;stroke-width:1px;stroke-linecap:butt;stroke-linejoin:miter;stroke-opacity:1;marker-start:none;marker-mid:none;marker-end:url(#marker19838-5-7)" />
    <path
       inkscape:connector-curvature="0"
       inkscape:export-ydpi="300"
       inkscape:export-xdpi="300"
       inkscape:export-filename="/home/mhinkkan/Desktop/testi.png"
       sodipodi:nodetypes="cc"
       id="path3917-1"
       d="M 69.99996,210 70,225"
       style="display:inline;fill:none;stroke:#000000;stroke-width:1px;stroke-linecap:butt;stroke-linejoin:miter;stroke-opacity:1;marker-start:none;marker-mid:none;marker-end:url(#marker19838-5-7)" />
    <path
       inkscape:connector-curvature="0"
       style="display:inline;fill:none;stroke:#000000;stroke-width:1px;stroke-linecap:butt;stroke-linejoin:miter;stroke-opacity:1;marker-start:url(#Arrow2Mstart-3);marker-mid:none"
       d="M -50.00003,220 V 180"
       sodipodi:nodetypes="cc"
       id="path3458"
       inkscape:export-filename="C:\Documents and Settings\mhinkkan\Desktop\testi.png"
       inkscape:export-xdpi="300"
       inkscape:export-ydpi="300" />
    <circle
       r="2"
       cy="174.99997"
       cx="-50.000008"
       id="path3460"
       style="display:inline;fill:#ffffff;fill-opacity:1;stroke:#000000;stroke-width:0.5;stroke-miterlimit:4;stroke-dasharray:none;stroke-opacity:1" />
    <circle
       r="2"
       cy="224.99997"
       cx="-50.000008"
       style="display:inline;fill:#ffffff;fill-opacity:1;stroke:#000000;stroke-width:0.5;stroke-miterlimit:4;stroke-dasharray:none;stroke-opacity:1"
       id="path3462" />
    <path
       inkscape:export-ydpi="300"
       inkscape:export-xdpi="300"
       inkscape:export-filename="C:\Documents and Settings\mhinkkan\Desktop\testi.png"
       id="path5721"
       sodipodi:nodetypes="cc"
       d="m 87.08781,175.00961 h -5"
       style="display:inline;fill:none;stroke:#000000;stroke-width:1px;stroke-linecap:round;stroke-linejoin:miter;stroke-opacity:1;marker-start:url(#Arrow2Mstart-3);marker-mid:none"
       inkscape:connector-curvature="0" />
    <path
       id="path1124"
       sodipodi:nodetypes="cccccccc"
       d="m 54.99996,175 -2.5,5 -5,-10 -5,10 -5,-10 -5,10 -5,-10 -2.5,5"
       style="display:inline;fill:none;stroke:#000000;stroke-width:1.333;stroke-linecap:round;stroke-linejoin:miter;stroke-miterlimit:4;stroke-dasharray:none;stroke-opacity:1"
       inkscape:connector-curvature="0" />
    <g
       inkscape:label=""
       transform="translate(104.70831,193.60435)"
       id="g2383">
      <g
         fill="#000000"
         fill-opacity="1"
         id="g17"
         transform="matrix(1.33333,0,0,1.33333,-0.416667,0.141833)">
        <g
           id="use15"
           transform="translate(0,6.618)">
          <path
             d="m 5.609375,-3.15625 c 0.078125,-0.28125 0.1875,-0.765625 0.1875,-0.828125 0,-0.21875 -0.15625,-0.4375 -0.46875,-0.4375 -0.15625,0 -0.515625,0.078125 -0.65625,0.53125 -0.03125,0.125 -0.484375,1.9375 -0.5625,2.265625 -0.0625,0.234375 -0.125,0.515625 -0.15625,0.703125 C 3.78125,-0.6875 3.390625,-0.28125 2.875,-0.28125 c -0.578125,0 -0.59375,-0.5 -0.59375,-0.71875 0,-0.609375 0.3125,-1.390625 0.59375,-2.109375 C 2.96875,-3.375 3,-3.4375 3,-3.609375 3,-4.1875 2.421875,-4.5 1.875,-4.5 c -1.0625,0 -1.5625,1.34375 -1.5625,1.546875 0,0.140625 0.15625,0.140625 0.25,0.140625 0.109375,0 0.1875,0 0.21875,-0.125 0.328125,-1.109375 0.875,-1.203125 1.03125,-1.203125 0.078125,0 0.171875,0 0.171875,0.203125 0,0.234375 -0.125,0.515625 -0.15625,0.625 -0.421875,1.046875 -0.609375,1.609375 -0.609375,2.09375 0,1.140625 1,1.296875 1.578125,1.296875 0.296875,0 0.734375,-0.03125 1.265625,-0.546875 0.328125,0.484375 0.90625,0.546875 1.140625,0.546875 0.375,0 0.65625,-0.203125 0.875,-0.5625 0.234375,-0.40625 0.375,-0.9375 0.375,-0.984375 0,-0.140625 -0.15625,-0.140625 -0.25,-0.140625 -0.109375,0 -0.140625,0 -0.1875,0.046875 -0.03125,0.015625 -0.03125,0.03125 -0.078125,0.28125 -0.203125,0.78125 -0.421875,1 -0.6875,1 -0.140625,0 -0.21875,-0.09375 -0.21875,-0.359375 0,-0.171875 0.03125,-0.34375 0.125,-0.734375 0.078125,-0.28125 0.171875,-0.671875 0.234375,-0.890625 z m 0,0"
             id="path33" />
        </g>
      </g>
      <g
         fill="#000000"
         fill-opacity="1"
         id="g21"
         transform="matrix(1.33333,0,0,1.33333,-0.416667,0.141833)">
        <g
           id="use19"
           transform="translate(6.7849998,3.003)">
          <path
             d="m 2.640625,-2.921875 c 0,-0.125 0,-0.1875 -0.09375,-0.1875 -0.03125,0 -0.046875,0 -0.140625,0.078125 -0.015625,0.015625 -0.078125,0.078125 -0.125,0.109375 -0.21875,-0.140625 -0.46875,-0.1875 -0.734375,-0.1875 -1,0 -1.234375,0.53125 -1.234375,0.875 0,0.21875 0.09375,0.40625 0.265625,0.546875 0.265625,0.21875 0.53125,0.265625 0.96875,0.34375 0.34375,0.0625 0.90625,0.15625 0.90625,0.625 0,0.265625 -0.1875,0.59375 -0.859375,0.59375 -0.671875,0 -0.90625,-0.4375 -1.03125,-0.90625 -0.03125,-0.09375 -0.03125,-0.125 -0.125,-0.125 -0.125,0 -0.125,0.046875 -0.125,0.1875 v 0.859375 C 0.3125,0 0.3125,0.0625 0.40625,0.0625 0.46875,0.0625 0.609375,-0.078125 0.75,-0.234375 1.046875,0.0625 1.421875,0.0625 1.59375,0.0625 c 0.90625,0 1.25,-0.484375 1.25,-0.96875 0,-0.265625 -0.125,-0.484375 -0.3125,-0.640625 -0.265625,-0.25 -0.578125,-0.3125 -0.828125,-0.34375 -0.546875,-0.109375 -1,-0.1875 -1,-0.5625 0,-0.21875 0.1875,-0.484375 0.84375,-0.484375 0.8125,0 0.84375,0.5625 0.859375,0.765625 0,0.078125 0.09375,0.078125 0.109375,0.078125 0.125,0 0.125,-0.046875 0.125,-0.1875 z m 0,0"
             id="path37" />
        </g>
      </g>
      <g
         clip-path="url(#clipPath480)"
         id="g27"
         transform="matrix(1.33333,0,0,1.33333,-0.416667,0.141833)">
        <g
           fill="#000000"
           fill-opacity="1"
           id="g25">
          <g
             id="use23"
             transform="translate(6.7849998,9.0810003)">
            <path
               d="m 2.640625,-2.921875 c 0,-0.125 0,-0.1875 -0.09375,-0.1875 -0.03125,0 -0.046875,0 -0.140625,0.078125 -0.015625,0.015625 -0.078125,0.078125 -0.125,0.109375 -0.21875,-0.140625 -0.46875,-0.1875 -0.734375,-0.1875 -1,0 -1.234375,0.53125 -1.234375,0.875 0,0.21875 0.09375,0.40625 0.265625,0.546875 0.265625,0.21875 0.53125,0.265625 0.96875,0.34375 0.34375,0.0625 0.90625,0.15625 0.90625,0.625 0,0.265625 -0.1875,0.59375 -0.859375,0.59375 -0.671875,0 -0.90625,-0.4375 -1.03125,-0.90625 -0.03125,-0.09375 -0.03125,-0.125 -0.125,-0.125 -0.125,0 -0.125,0.046875 -0.125,0.1875 v 0.859375 C 0.3125,0 0.3125,0.0625 0.40625,0.0625 0.46875,0.0625 0.609375,-0.078125 0.75,-0.234375 1.046875,0.0625 1.421875,0.0625 1.59375,0.0625 c 0.90625,0 1.25,-0.484375 1.25,-0.96875 0,-0.265625 -0.125,-0.484375 -0.3125,-0.640625 -0.265625,-0.25 -0.578125,-0.3125 -0.828125,-0.34375 -0.546875,-0.109375 -1,-0.1875 -1,-0.5625 0,-0.21875 0.1875,-0.484375 0.84375,-0.484375 0.8125,0 0.84375,0.5625 0.859375,0.765625 0,0.078125 0.09375,0.078125 0.109375,0.078125 0.125,0 0.125,-0.046875 0.125,-0.1875 z m 0,0"
               id="path41" />
          </g>
        </g>
      </g>
    </g>
    <g
       inkscape:label=""
       transform="translate(80.97681,156.85685)"
       id="g3218">
      <g
         fill="#000000"
         fill-opacity="1"
         id="g3202"
         transform="matrix(1.33333,0,0,1.33333,-0.416667,0.143167)">
        <g
           id="g3200"
           transform="translate(0,7.4460001)">
          <path
             d="m 3.328125,-6.4375 c 0,-0.265625 -0.203125,-0.484375 -0.484375,-0.484375 -0.375,0 -0.703125,0.359375 -0.703125,0.6875 0,0.265625 0.1875,0.484375 0.484375,0.484375 0.359375,0 0.703125,-0.34375 0.703125,-0.6875 z m 0.25,4.96875 c 0,-0.140625 -0.15625,-0.140625 -0.234375,-0.140625 -0.125,0 -0.1875,0 -0.234375,0.125 -0.3125,1.046875 -0.8125,1.203125 -1.03125,1.203125 -0.09375,0 -0.15625,-0.03125 -0.15625,-0.21875 0,-0.234375 0.09375,-0.453125 0.328125,-1.046875 l 0.671875,-1.71875 C 2.96875,-3.40625 3,-3.515625 3,-3.609375 3,-4.140625 2.484375,-4.5 1.859375,-4.5 0.828125,-4.5 0.3125,-3.171875 0.3125,-2.953125 c 0,0.140625 0.15625,0.140625 0.25,0.140625 0.109375,0 0.1875,0 0.21875,-0.125 0.3125,-1.046875 0.828125,-1.203125 1.03125,-1.203125 0.09375,0 0.15625,0.03125 0.15625,0.21875 0,0.21875 -0.078125,0.4375 -0.328125,1.046875 l -0.65625,1.71875 c -0.0625,0.125 -0.09375,0.25 -0.09375,0.34375 0,0.515625 0.53125,0.890625 1.140625,0.890625 1.046875,0 1.546875,-1.328125 1.546875,-1.546875 z m 0,0"
             id="path3198" />
        </g>
      </g>
      <g
         fill="#000000"
         fill-opacity="1"
         id="g3208"
         transform="matrix(1.33333,0,0,1.33333,-0.416667,0.143167)">
        <g
           id="g3206"
           transform="translate(4.033,3.0020001)">
          <path
             d="m 2.640625,-2.921875 c 0,-0.125 0,-0.1875 -0.09375,-0.1875 -0.03125,0 -0.046875,0 -0.140625,0.078125 -0.015625,0.015625 -0.078125,0.078125 -0.125,0.109375 -0.21875,-0.140625 -0.46875,-0.1875 -0.734375,-0.1875 -1,0 -1.234375,0.53125 -1.234375,0.875 0,0.21875 0.09375,0.40625 0.265625,0.546875 0.265625,0.21875 0.53125,0.265625 0.96875,0.34375 0.34375,0.0625 0.90625,0.15625 0.90625,0.625 0,0.265625 -0.1875,0.59375 -0.859375,0.59375 -0.671875,0 -0.90625,-0.4375 -1.03125,-0.90625 -0.03125,-0.09375 -0.03125,-0.125 -0.125,-0.125 -0.125,0 -0.125,0.046875 -0.125,0.1875 v 0.859375 C 0.3125,0 0.3125,0.0625 0.40625,0.0625 0.46875,0.0625 0.609375,-0.078125 0.75,-0.234375 1.046875,0.0625 1.421875,0.0625 1.59375,0.0625 c 0.90625,0 1.25,-0.484375 1.25,-0.96875 0,-0.265625 -0.125,-0.484375 -0.3125,-0.640625 -0.265625,-0.25 -0.578125,-0.3125 -0.828125,-0.34375 -0.546875,-0.109375 -1,-0.1875 -1,-0.5625 0,-0.21875 0.1875,-0.484375 0.84375,-0.484375 0.8125,0 0.84375,0.5625 0.859375,0.765625 0,0.078125 0.09375,0.078125 0.109375,0.078125 0.125,0 0.125,-0.046875 0.125,-0.1875 z m 0,0"
             id="path3204" />
        </g>
      </g>
      <g
         clip-path="url(#clipPath3784)"
         id="g3216"
         transform="matrix(1.33333,0,0,1.33333,-0.416667,0.143167)">
        <g
           fill="#000000"
           fill-opacity="1"
           id="g3214">
          <g
             id="g3212"
             transform="translate(4.033,9.9090004)">
            <path
               d="m 2.640625,-2.921875 c 0,-0.125 0,-0.1875 -0.09375,-0.1875 -0.03125,0 -0.046875,0 -0.140625,0.078125 -0.015625,0.015625 -0.078125,0.078125 -0.125,0.109375 -0.21875,-0.140625 -0.46875,-0.1875 -0.734375,-0.1875 -1,0 -1.234375,0.53125 -1.234375,0.875 0,0.21875 0.09375,0.40625 0.265625,0.546875 0.265625,0.21875 0.53125,0.265625 0.96875,0.34375 0.34375,0.0625 0.90625,0.15625 0.90625,0.625 0,0.265625 -0.1875,0.59375 -0.859375,0.59375 -0.671875,0 -0.90625,-0.4375 -1.03125,-0.90625 -0.03125,-0.09375 -0.03125,-0.125 -0.125,-0.125 -0.125,0 -0.125,0.046875 -0.125,0.1875 v 0.859375 C 0.3125,0 0.3125,0.0625 0.40625,0.0625 0.46875,0.0625 0.609375,-0.078125 0.75,-0.234375 1.046875,0.0625 1.421875,0.0625 1.59375,0.0625 c 0.90625,0 1.25,-0.484375 1.25,-0.96875 0,-0.265625 -0.125,-0.484375 -0.3125,-0.640625 -0.265625,-0.25 -0.578125,-0.3125 -0.828125,-0.34375 -0.546875,-0.109375 -1,-0.1875 -1,-0.5625 0,-0.21875 0.1875,-0.484375 0.84375,-0.484375 0.8125,0 0.84375,0.5625 0.859375,0.765625 0,0.078125 0.09375,0.078125 0.109375,0.078125 0.125,0 0.125,-0.046875 0.125,-0.1875 z m 0,0"
               id="path3210" />
          </g>
        </g>
      </g>
    </g>
    <g
       inkscape:label=""
       transform="translate(-39.916693,156.85685)"
       id="g3567">
      <g
         fill="#000000"
         fill-opacity="1"
         id="g20"
         transform="matrix(1.33333,0,0,1.33333,-0.416667,0.143167)">
        <g
           id="use18"
           transform="translate(0,7.4460001)">
          <path
             d="m 3.328125,-6.4375 c 0,-0.265625 -0.203125,-0.484375 -0.484375,-0.484375 -0.375,0 -0.703125,0.359375 -0.703125,0.6875 0,0.265625 0.1875,0.484375 0.484375,0.484375 0.359375,0 0.703125,-0.34375 0.703125,-0.6875 z m 0.25,4.96875 c 0,-0.140625 -0.15625,-0.140625 -0.234375,-0.140625 -0.125,0 -0.1875,0 -0.234375,0.125 -0.3125,1.046875 -0.8125,1.203125 -1.03125,1.203125 -0.09375,0 -0.15625,-0.03125 -0.15625,-0.21875 0,-0.234375 0.09375,-0.453125 0.328125,-1.046875 l 0.671875,-1.71875 C 2.96875,-3.40625 3,-3.515625 3,-3.609375 3,-4.140625 2.484375,-4.5 1.859375,-4.5 0.828125,-4.5 0.3125,-3.171875 0.3125,-2.953125 c 0,0.140625 0.15625,0.140625 0.25,0.140625 0.109375,0 0.1875,0 0.21875,-0.125 0.3125,-1.046875 0.828125,-1.203125 1.03125,-1.203125 0.09375,0 0.15625,0.03125 0.15625,0.21875 0,0.21875 -0.078125,0.4375 -0.328125,1.046875 l -0.65625,1.71875 c -0.0625,0.125 -0.09375,0.25 -0.09375,0.34375 0,0.515625 0.53125,0.890625 1.140625,0.890625 1.046875,0 1.546875,-1.328125 1.546875,-1.546875 z m 0,0"
             id="path36" />
        </g>
      </g>
      <g
         fill="#000000"
         fill-opacity="1"
         id="g24"
         transform="matrix(1.33333,0,0,1.33333,-0.416667,0.143167)">
        <g
           id="use22"
           transform="translate(4.033,3.0020001)">
          <path
             d="m 2.640625,-2.921875 c 0,-0.125 0,-0.1875 -0.09375,-0.1875 -0.03125,0 -0.046875,0 -0.140625,0.078125 -0.015625,0.015625 -0.078125,0.078125 -0.125,0.109375 -0.21875,-0.140625 -0.46875,-0.1875 -0.734375,-0.1875 -1,0 -1.234375,0.53125 -1.234375,0.875 0,0.21875 0.09375,0.40625 0.265625,0.546875 0.265625,0.21875 0.53125,0.265625 0.96875,0.34375 0.34375,0.0625 0.90625,0.15625 0.90625,0.625 0,0.265625 -0.1875,0.59375 -0.859375,0.59375 -0.671875,0 -0.90625,-0.4375 -1.03125,-0.90625 -0.03125,-0.09375 -0.03125,-0.125 -0.125,-0.125 -0.125,0 -0.125,0.046875 -0.125,0.1875 v 0.859375 C 0.3125,0 0.3125,0.0625 0.40625,0.0625 0.46875,0.0625 0.609375,-0.078125 0.75,-0.234375 1.046875,0.0625 1.421875,0.0625 1.59375,0.0625 c 0.90625,0 1.25,-0.484375 1.25,-0.96875 0,-0.265625 -0.125,-0.484375 -0.3125,-0.640625 -0.265625,-0.25 -0.578125,-0.3125 -0.828125,-0.34375 -0.546875,-0.109375 -1,-0.1875 -1,-0.5625 0,-0.21875 0.1875,-0.484375 0.84375,-0.484375 0.8125,0 0.84375,0.5625 0.859375,0.765625 0,0.078125 0.09375,0.078125 0.109375,0.078125 0.125,0 0.125,-0.046875 0.125,-0.1875 z m 0,0"
             id="path40" />
        </g>
      </g>
      <g
         clip-path="url(#clipPath1202)"
         id="g30"
         transform="matrix(1.33333,0,0,1.33333,-0.416667,0.143167)">
        <g
           fill="#000000"
           fill-opacity="1"
           id="g28">
          <g
             id="use26"
             transform="translate(4.033,9.9090004)">
            <path
               d="m 2.703125,-2.78125 c -0.125,0.0625 -0.1875,0.171875 -0.1875,0.3125 0,0.1875 0.125,0.328125 0.328125,0.328125 0.1875,0 0.328125,-0.125 0.328125,-0.34375 0,-0.625 -0.96875,-0.625 -1.15625,-0.625 -1.046875,0 -1.6875,0.796875 -1.6875,1.609375 0,0.875 0.734375,1.5625 1.65625,1.5625 1.03125,0 1.28125,-0.8125 1.28125,-0.90625 0,-0.078125 -0.09375,-0.078125 -0.125,-0.078125 -0.09375,0 -0.09375,0.015625 -0.125,0.125 C 2.859375,-0.375 2.484375,-0.15625 2.0625,-0.15625 c -0.484375,0 -1.109375,-0.359375 -1.109375,-1.359375 0,-0.875 0.4375,-1.375 1.078125,-1.375 0.09375,0 0.421875,0 0.671875,0.109375 z m 0,0"
               id="path44" />
          </g>
        </g>
      </g>
    </g>
    <g
       inkscape:label=""
       transform="translate(-68.338343,193.60435)"
       id="g3952">
      <g
         fill="#000000"
         fill-opacity="1"
         id="g3936"
         transform="matrix(1.33333,0,0,1.33333,-0.416667,0.141833)">
        <g
           id="g3934"
           transform="translate(0,6.618)">
          <path
             d="m 5.609375,-3.15625 c 0.078125,-0.28125 0.1875,-0.765625 0.1875,-0.828125 0,-0.21875 -0.15625,-0.4375 -0.46875,-0.4375 -0.15625,0 -0.515625,0.078125 -0.65625,0.53125 -0.03125,0.125 -0.484375,1.9375 -0.5625,2.265625 -0.0625,0.234375 -0.125,0.515625 -0.15625,0.703125 C 3.78125,-0.6875 3.390625,-0.28125 2.875,-0.28125 c -0.578125,0 -0.59375,-0.5 -0.59375,-0.71875 0,-0.609375 0.3125,-1.390625 0.59375,-2.109375 C 2.96875,-3.375 3,-3.4375 3,-3.609375 3,-4.1875 2.421875,-4.5 1.875,-4.5 c -1.0625,0 -1.5625,1.34375 -1.5625,1.546875 0,0.140625 0.15625,0.140625 0.25,0.140625 0.109375,0 0.1875,0 0.21875,-0.125 0.328125,-1.109375 0.875,-1.203125 1.03125,-1.203125 0.078125,0 0.171875,0 0.171875,0.203125 0,0.234375 -0.125,0.515625 -0.15625,0.625 -0.421875,1.046875 -0.609375,1.609375 -0.609375,2.09375 0,1.140625 1,1.296875 1.578125,1.296875 0.296875,0 0.734375,-0.03125 1.265625,-0.546875 0.328125,0.484375 0.90625,0.546875 1.140625,0.546875 0.375,0 0.65625,-0.203125 0.875,-0.5625 0.234375,-0.40625 0.375,-0.9375 0.375,-0.984375 0,-0.140625 -0.15625,-0.140625 -0.25,-0.140625 -0.109375,0 -0.140625,0 -0.1875,0.046875 -0.03125,0.015625 -0.03125,0.03125 -0.078125,0.28125 -0.203125,0.78125 -0.421875,1 -0.6875,1 -0.140625,0 -0.21875,-0.09375 -0.21875,-0.359375 0,-0.171875 0.03125,-0.34375 0.125,-0.734375 0.078125,-0.28125 0.171875,-0.671875 0.234375,-0.890625 z m 0,0"
             id="path3932" />
        </g>
      </g>
      <g
         fill="#000000"
         fill-opacity="1"
         id="g3942"
         transform="matrix(1.33333,0,0,1.33333,-0.416667,0.141833)">
        <g
           id="g3940"
           transform="translate(6.7849998,3.003)">
          <path
             d="m 2.640625,-2.921875 c 0,-0.125 0,-0.1875 -0.09375,-0.1875 -0.03125,0 -0.046875,0 -0.140625,0.078125 -0.015625,0.015625 -0.078125,0.078125 -0.125,0.109375 -0.21875,-0.140625 -0.46875,-0.1875 -0.734375,-0.1875 -1,0 -1.234375,0.53125 -1.234375,0.875 0,0.21875 0.09375,0.40625 0.265625,0.546875 0.265625,0.21875 0.53125,0.265625 0.96875,0.34375 0.34375,0.0625 0.90625,0.15625 0.90625,0.625 0,0.265625 -0.1875,0.59375 -0.859375,0.59375 -0.671875,0 -0.90625,-0.4375 -1.03125,-0.90625 -0.03125,-0.09375 -0.03125,-0.125 -0.125,-0.125 -0.125,0 -0.125,0.046875 -0.125,0.1875 v 0.859375 C 0.3125,0 0.3125,0.0625 0.40625,0.0625 0.46875,0.0625 0.609375,-0.078125 0.75,-0.234375 1.046875,0.0625 1.421875,0.0625 1.59375,0.0625 c 0.90625,0 1.25,-0.484375 1.25,-0.96875 0,-0.265625 -0.125,-0.484375 -0.3125,-0.640625 -0.265625,-0.25 -0.578125,-0.3125 -0.828125,-0.34375 -0.546875,-0.109375 -1,-0.1875 -1,-0.5625 0,-0.21875 0.1875,-0.484375 0.84375,-0.484375 0.8125,0 0.84375,0.5625 0.859375,0.765625 0,0.078125 0.09375,0.078125 0.109375,0.078125 0.125,0 0.125,-0.046875 0.125,-0.1875 z m 0,0"
             id="path3938" />
        </g>
      </g>
      <g
         clip-path="url(#clipPath85)"
         id="g3950"
         transform="matrix(1.33333,0,0,1.33333,-0.416667,0.141833)">
        <g
           fill="#000000"
           fill-opacity="1"
           id="g3948">
          <g
             id="g3946"
             transform="translate(6.7849998,9.0810003)">
            <path
               d="m 2.703125,-2.78125 c -0.125,0.0625 -0.1875,0.171875 -0.1875,0.3125 0,0.1875 0.125,0.328125 0.328125,0.328125 0.1875,0 0.328125,-0.125 0.328125,-0.34375 0,-0.625 -0.96875,-0.625 -1.15625,-0.625 -1.046875,0 -1.6875,0.796875 -1.6875,1.609375 0,0.875 0.734375,1.5625 1.65625,1.5625 1.03125,0 1.28125,-0.8125 1.28125,-0.90625 0,-0.078125 -0.09375,-0.078125 -0.125,-0.078125 -0.09375,0 -0.09375,0.015625 -0.125,0.125 C 2.859375,-0.375 2.484375,-0.15625 2.0625,-0.15625 c -0.484375,0 -1.109375,-0.359375 -1.109375,-1.359375 0,-0.875 0.4375,-1.375 1.078125,-1.375 0.09375,0 0.421875,0 0.671875,0.109375 z m 0,0"
               id="path3944" />
          </g>
        </g>
      </g>
    </g>
    <g
       inkscape:label=""
       transform="translate(49.187472,195.75002)"
       id="g5185">
      <g
         clip-path="url(#clipPath9213)"
         id="g16"
         transform="matrix(1.33333,0,0,1.33333,-0.666667,0.297667)">
        <g
           fill="#000000"
           fill-opacity="1"
           id="g14">
          <g
             id="use12"
             transform="translate(0,6.8080001)">
            <path
               d="m 7.578125,-6.921875 c 0,-0.03125 -0.015625,-0.109375 -0.109375,-0.109375 -0.03125,0 -0.046875,0.015625 -0.15625,0.125 L 6.625,-6.140625 C 6.53125,-6.28125 6.078125,-7.03125 4.96875,-7.03125 2.734375,-7.03125 0.5,-4.828125 0.5,-2.515625 0.5,-0.875 1.671875,0.21875 3.203125,0.21875 c 0.859375,0 1.625,-0.390625 2.15625,-0.859375 0.921875,-0.8125 1.09375,-1.71875 1.09375,-1.75 C 6.453125,-2.5 6.34375,-2.5 6.328125,-2.5 c -0.0625,0 -0.109375,0.03125 -0.125,0.109375 -0.09375,0.28125 -0.328125,1 -1.015625,1.578125 -0.6875,0.546875 -1.3125,0.71875 -1.828125,0.71875 -0.890625,0 -1.953125,-0.515625 -1.953125,-2.0625 0,-0.578125 0.203125,-2.1875 1.203125,-3.359375 0.609375,-0.703125 1.546875,-1.203125 2.4375,-1.203125 1.015625,0 1.609375,0.765625 1.609375,1.921875 0,0.40625 -0.03125,0.40625 -0.03125,0.515625 0,0.09375 0.109375,0.09375 0.140625,0.09375 0.125,0 0.125,-0.015625 0.1875,-0.203125 z m 0,0"
               id="path22" />
          </g>
        </g>
      </g>
    </g>
    <g
       inkscape:label=""
       transform="translate(-9.0104757,154.33335)"
       id="g5613">
      <g
         fill="#000000"
         fill-opacity="1"
         id="g11"
         transform="matrix(1.33333,0,0,1.33333,-0.520833,0.00599988)">
        <g
           id="use9"
           transform="translate(0,6.8080001)">
          <path
             d="M 3.734375,-6.03125 C 3.8125,-6.390625 3.84375,-6.5 4.78125,-6.5 c 0.296875,0 0.375,0 0.375,-0.1875 0,-0.125 -0.109375,-0.125 -0.15625,-0.125 -0.328125,0 -1.140625,0.03125 -1.46875,0.03125 -0.296875,0 -1.03125,-0.03125 -1.328125,-0.03125 -0.0625,0 -0.1875,0 -0.1875,0.203125 0,0.109375 0.09375,0.109375 0.28125,0.109375 0.015625,0 0.203125,0 0.375,0.015625 0.171875,0.03125 0.265625,0.03125 0.265625,0.171875 0,0.03125 0,0.0625 -0.03125,0.1875 L 1.5625,-0.78125 c -0.09375,0.390625 -0.109375,0.46875 -0.90625,0.46875 -0.171875,0 -0.265625,0 -0.265625,0.203125 C 0.390625,0 0.484375,0 0.65625,0 h 4.625 C 5.515625,0 5.515625,0 5.578125,-0.171875 L 6.375,-2.328125 c 0.03125,-0.109375 0.03125,-0.125 0.03125,-0.140625 0,-0.03125 -0.03125,-0.109375 -0.109375,-0.109375 -0.09375,0 -0.109375,0.0625 -0.171875,0.21875 -0.34375,0.90625 -0.78125,2.046875 -2.5,2.046875 H 2.6875 c -0.140625,0 -0.171875,0 -0.21875,0 -0.109375,-0.015625 -0.140625,-0.03125 -0.140625,-0.109375 0,-0.03125 0,-0.046875 0.046875,-0.21875 z m 0,0"
             id="path17" />
        </g>
      </g>
    </g>
    <path
       inkscape:connector-curvature="0"
       style="display:inline;fill:none;stroke:#000000;stroke-width:1px;stroke-linecap:butt;stroke-linejoin:miter;stroke-opacity:1;marker-start:url(#Arrow2Mstart-3);marker-mid:none"
       d="M 99.99996,220 V 180"
       sodipodi:nodetypes="cc"
       id="path5725"
       inkscape:export-filename="C:\Documents and Settings\mhinkkan\Desktop\testi.png"
       inkscape:export-xdpi="300"
       inkscape:export-ydpi="300" />
    <circle
       r="2"
       cy="174.99997"
       cx="99.999977"
       id="circle5727"
       style="display:inline;fill:#ffffff;fill-opacity:1;stroke:#000000;stroke-width:0.5;stroke-miterlimit:4;stroke-dasharray:none;stroke-opacity:1" />
    <circle
       r="2"
       cy="224.99997"
       cx="99.999977"
       style="display:inline;fill:#ffffff;fill-opacity:1;stroke:#000000;stroke-width:0.5;stroke-miterlimit:4;stroke-dasharray:none;stroke-opacity:1"
       id="circle5729" />
    <path
       inkscape:connector-curvature="0"
       inkscape:export-ydpi="300"
       inkscape:export-xdpi="300"
       inkscape:export-filename="/home/mhinkkan/Desktop/testi.png"
       id="path1"
       sodipodi:nodetypes="cc"
       d="m 24.99996,175 h -15"
       style="display:inline;fill:none;stroke:#000000;stroke-width:1px;stroke-linecap:round;stroke-linejoin:miter;stroke-opacity:1;marker-start:none;marker-mid:none;marker-end:none" />
    <g
       inkscape:label=""
       transform="translate(35.24998,154.31253)"
       id="g1">
      <g
         fill="#000000"
         fill-opacity="1"
         id="g2"
         transform="matrix(1.33333,0,0,1.33333,-3.199,-2.65)">
        <g
           id="use1"
           transform="translate(1.993,8.8000002)">
          <path
             d="m 3.734375,-6.125 c 0.0625,-0.234375 0.09375,-0.328125 0.28125,-0.359375 C 4.109375,-6.5 4.421875,-6.5 4.625,-6.5 c 0.703125,0 1.8125,0 1.8125,0.984375 0,0.34375 -0.15625,1.03125 -0.546875,1.421875 -0.265625,0.25 -0.78125,0.578125 -1.6875,0.578125 H 3.09375 Z m 1.4375,2.734375 c 1.015625,-0.21875 2.1875,-0.921875 2.1875,-1.921875 0,-0.859375 -0.890625,-1.5 -2.203125,-1.5 H 2.328125 c -0.203125,0 -0.296875,0 -0.296875,0.203125 C 2.03125,-6.5 2.125,-6.5 2.3125,-6.5 c 0.015625,0 0.203125,0 0.375,0.015625 0.1875,0.03125 0.265625,0.03125 0.265625,0.171875 0,0.03125 0,0.0625 -0.03125,0.1875 l -1.34375,5.34375 C 1.484375,-0.390625 1.46875,-0.3125 0.671875,-0.3125 0.5,-0.3125 0.40625,-0.3125 0.40625,-0.109375 0.40625,0 0.53125,0 0.546875,0 c 0.28125,0 0.984375,-0.03125 1.25,-0.03125 0.28125,0 1,0.03125 1.28125,0.03125 0.078125,0 0.1875,0 0.1875,-0.203125 0,-0.109375 -0.078125,-0.109375 -0.28125,-0.109375 -0.359375,0 -0.640625,0 -0.640625,-0.171875 0,-0.0625 0.015625,-0.109375 0.03125,-0.171875 l 0.65625,-2.640625 h 1.1875 c 0.90625,0 1.078125,0.5625 1.078125,0.90625 0,0.140625 -0.078125,0.453125 -0.140625,0.6875 C 5.09375,-1.421875 5,-1.0625 5,-0.859375 5,0.21875 6.203125,0.21875 6.328125,0.21875 c 0.84375,0 1.203125,-1 1.203125,-1.140625 0,-0.125 -0.109375,-0.125 -0.125,-0.125 -0.09375,0 -0.109375,0.0625 -0.125,0.140625 C 7.03125,-0.171875 6.59375,0 6.375,0 6.046875,0 5.96875,-0.21875 5.96875,-0.609375 c 0,-0.3125 0.0625,-0.8125 0.109375,-1.140625 0.015625,-0.140625 0.03125,-0.328125 0.03125,-0.46875 0,-0.765625 -0.671875,-1.078125 -0.9375,-1.171875 z m 0,0"
             id="path2" />
        </g>
      </g>
    </g>
  </g>
</svg>
