<?xml version="1.0" encoding="UTF-8" standalone="no"?>
<svg
   width="480"
   height="85.000053"
   id="svg6781"
   version="1.1"
   inkscape:version="1.4 (e7c3feb100, 2024-10-09)"
   sodipodi:docname="mech_block.svg"
   viewBox="0 0 480.00001 85.000056"
   xmlns:inkscape="http://www.inkscape.org/namespaces/inkscape"
   xmlns:sodipodi="http://sodipodi.sourceforge.net/DTD/sodipodi-0.dtd"
   xmlns="http://www.w3.org/2000/svg"
   xmlns:svg="http://www.w3.org/2000/svg"
   xmlns:rdf="http://www.w3.org/1999/02/22-rdf-syntax-ns#"
   xmlns:cc="http://creativecommons.org/ns#"
   xmlns:dc="http://purl.org/dc/elements/1.1/"
   xmlns:ns3="http://www.iki.fi/pav/software/textext/">
  <sodipodi:namedview
     id="base"
     pagecolor="#ffffff"
     bordercolor="#666666"
     borderopacity="1.0"
     inkscape:pageopacity="0.0"
     inkscape:pageshadow="2"
     inkscape:zoom="2.8"
     inkscape:cx="206.07143"
     inkscape:cy="47.142857"
     inkscape:document-units="px"
     inkscape:current-layer="layer1"
     showgrid="true"
     inkscape:window-width="1920"
     inkscape:window-height="1131"
     inkscape:window-x="0"
     inkscape:window-y="0"
     inkscape:window-maximized="1"
     inkscape:snap-object-midpoints="true"
     inkscape:snap-intersection-paths="true"
     inkscape:snap-grids="true"
     inkscape:object-paths="true"
     inkscape:document-rotation="0"
     fit-margin-top="0"
     fit-margin-left="0"
     fit-margin-right="0"
     fit-margin-bottom="0"
     inkscape:showpageshadow="2"
     inkscape:pagecheckerboard="0"
     inkscape:deskcolor="#d1d1d1">
    <inkscape:grid
       spacingy="0.5"
       spacingx="0.5"
       snapvisiblegridlinesonly="true"
       enabled="true"
       visible="true"
       empspacing="5"
       id="grid7066"
       type="xygrid"
       originx="-75.000002"
       originy="-805.00001"
       units="px" />
  </sodipodi:namedview>
  <defs
     id="defs6783">
    <marker
       style="overflow:visible"
       id="DotM"
       refX="0"
       refY="0"
       orient="auto"
       inkscape:stockid="DotM">
      <path
         transform="matrix(0.4,0,0,0.4,2.96,0.4)"
         style="fill-rule:evenodd;stroke:#000000;stroke-width:1pt;marker-start:none;marker-end:none"
         d="m -2.5,-1 c 0,2.76 -2.24,5 -5,5 -2.76,0 -5,-2.24 -5,-5 0,-2.76 2.24,-5 5,-5 2.76,0 5,2.24 5,5 z"
         id="path4676"
         inkscape:connector-curvature="0" />
    </marker>
    <marker
       refX="0"
       inkscape:stockid="Arrow2Mend"
       refY="0"
       orient="auto"
       id="Arrow2Mend-9"
       style="overflow:visible">
      <path
         id="path18502-9"
         d="M 8.7185878,4.0337352 -2.2072895,0.01601326 8.7185884,-4.0017078 c -1.7454984,2.3720609 -1.7354408,5.6174519 -6e-7,8.035443 z"
         transform="scale(-0.6)"
         style="font-size:12px;fill-rule:evenodd;stroke-width:0.625;stroke-linejoin:round"
         inkscape:connector-curvature="0" />
    </marker>
    <marker
       style="overflow:visible"
       id="Arrow2Mend-9-7"
       orient="auto"
       refY="0"
       inkscape:stockid="Arrow2Mend"
       refX="0">
      <path
         inkscape:connector-curvature="0"
         style="font-size:12px;fill-rule:evenodd;stroke-width:0.625;stroke-linejoin:round"
         transform="scale(-0.6)"
         d="M 8.7185878,4.0337352 -2.2072895,0.01601326 8.7185884,-4.0017078 c -1.7454984,2.3720609 -1.7354408,5.6174519 -6e-7,8.035443 z"
         id="path18502-9-5" />
    </marker>
  </defs>
  <metadata
     id="metadata6786">
    <rdf:RDF>
      <cc:Work
         rdf:about="">
        <dc:format>image/svg+xml</dc:format>
        <dc:type
           rdf:resource="http://purl.org/dc/dcmitype/StillImage" />
        <dc:title />
      </cc:Work>
    </rdf:RDF>
  </metadata>
  <g
     id="layer1"
     inkscape:groupmode="layer"
     inkscape:label="Layer 1"
     transform="translate(-75, -805)">
    <g
       id="g1711"
       transform="matrix(1,0,0,-1,7.499994,1747.4999)">
      <path
         style="display:inline;fill:none;stroke:#000000;stroke-width:1px;stroke-linecap:butt;stroke-linejoin:miter;stroke-opacity:1;marker-start:none;marker-end:url(#Arrow2Mend-9-7)"
         d="m 287.5,874.99997 -30,-4e-5"
         id="path3787"
         inkscape:connector-curvature="0"
         sodipodi:nodetypes="cc" />
      <g
         id="g3793"
         transform="matrix(0,0.7272727,0.7272727,0,455.38788,852.45437)"
         style="font-style:normal;font-variant:normal;font-weight:normal;font-stretch:normal;font-size:16.5px;line-height:125%;font-family:'Nimbus Roman No9 L';text-align:start;writing-mode:lr-tb;text-anchor:start;display:inline">
        <path
           transform="translate(10.5,17.500004)"
           id="path3789"
           sodipodi:nodetypes="cc"
           d="m 9.5,-274.09586 v -10"
           style="font-style:normal;font-variant:normal;font-weight:normal;font-stretch:normal;font-size:16.5px;line-height:125%;font-family:'Nimbus Roman No9 L';text-align:start;writing-mode:lr-tb;text-anchor:start;fill:none;stroke:#000000;stroke-width:1px;stroke-linecap:butt;stroke-linejoin:miter;stroke-opacity:1"
           inkscape:connector-curvature="0" />
        <path
           transform="rotate(-90,26.5,-268.09586)"
           id="path3791"
           sodipodi:nodetypes="cc"
           d="m 19.999996,-279.59586 v 10"
           style="font-style:normal;font-variant:normal;font-weight:normal;font-stretch:normal;font-size:16.5px;line-height:125%;font-family:'Nimbus Roman No9 L';text-align:start;writing-mode:lr-tb;text-anchor:start;display:inline;fill:none;stroke:#000000;stroke-width:1px;stroke-linecap:butt;stroke-linejoin:miter;stroke-opacity:1"
           inkscape:connector-curvature="0" />
      </g>
    </g>
    <g
       id="g1685"
       transform="matrix(1,0,0,-1,7.500004,1747.4998)">
      <path
         style="display:inline;fill:none;stroke:#000000;stroke-width:1px;stroke-linecap:butt;stroke-linejoin:miter;stroke-opacity:1;marker-start:none;marker-end:url(#Arrow2Mend-9-7)"
         d="m 204.99999,874.99982 h 37.5"
         id="path3777"
         inkscape:connector-curvature="0"
         sodipodi:nodetypes="cc" />
      <g
         id="g3783"
         transform="matrix(0,0.7272727,-0.7272727,0,44.612114,852.45437)"
         style="font-style:normal;font-variant:normal;font-weight:normal;font-stretch:normal;font-size:16.5px;line-height:125%;font-family:'Nimbus Roman No9 L';text-align:start;writing-mode:lr-tb;text-anchor:start;display:inline">
        <path
           transform="translate(10.5,17.500004)"
           id="path3779"
           sodipodi:nodetypes="cc"
           d="m 9.5,-274.09586 v -10"
           style="font-style:normal;font-variant:normal;font-weight:normal;font-stretch:normal;font-size:16.5px;line-height:125%;font-family:'Nimbus Roman No9 L';text-align:start;writing-mode:lr-tb;text-anchor:start;fill:none;stroke:#000000;stroke-width:1px;stroke-linecap:butt;stroke-linejoin:miter;stroke-opacity:1"
           inkscape:connector-curvature="0" />
        <path
           transform="rotate(-90,26.5,-268.09586)"
           id="path3781"
           sodipodi:nodetypes="cc"
           d="m 19.999996,-279.59586 v 10"
           style="font-style:normal;font-variant:normal;font-weight:normal;font-stretch:normal;font-size:16.5px;line-height:125%;font-family:'Nimbus Roman No9 L';text-align:start;writing-mode:lr-tb;text-anchor:start;display:inline;fill:none;stroke:#000000;stroke-width:1px;stroke-linecap:butt;stroke-linejoin:miter;stroke-opacity:1"
           inkscape:connector-curvature="0" />
      </g>
    </g>
    <path
       sodipodi:nodetypes="cc"
       inkscape:connector-curvature="0"
       id="path3369"
       d="m 305,827.49996 h 20"
       style="display:inline;fill:none;stroke:#000000;stroke-width:1px;stroke-linecap:butt;stroke-linejoin:miter;stroke-opacity:1;marker-start:none;marker-end:url(#Arrow2Mend-9-7)" />
    <path
       style="display:inline;fill:none;stroke:#000000;stroke-width:1px;stroke-linecap:butt;stroke-linejoin:miter;stroke-opacity:1;marker-start:none;marker-end:url(#Arrow2Mend-9-7)"
       d="m 257.5,827.49992 27.5,7e-5"
       id="path4636"
       inkscape:connector-curvature="0"
       sodipodi:nodetypes="cc" />
    <path
       sodipodi:nodetypes="ccc"
       inkscape:connector-curvature="0"
       id="path4754"
       d="m 355,827.49996 v 44.99996 h -20"
       style="display:inline;fill:none;stroke:#000000;stroke-width:1px;stroke-linecap:butt;stroke-linejoin:miter;stroke-opacity:1;marker-start:url(#DotM);marker-end:url(#Arrow2Mend-9)" />
    <path
       sodipodi:nodetypes="cc"
       inkscape:connector-curvature="0"
       id="path4650"
       d="m 345,827.49993 h 30"
       style="display:inline;fill:none;stroke:#000000;stroke-width:1px;stroke-linecap:butt;stroke-linejoin:miter;stroke-opacity:1;marker-start:none;marker-end:url(#Arrow2Mend-9-7)" />
    <rect
       style="display:inline;fill:#ffffff;fill-opacity:1;fill-rule:nonzero;stroke:#000000;stroke-width:1.333;stroke-linecap:round;stroke-linejoin:miter;stroke-miterlimit:4;stroke-dasharray:none;stroke-dashoffset:0;stroke-opacity:1"
       id="rect4620"
       width="20"
       y="807.5"
       x="325"
       height="40"
       inkscape:export-filename="C:\Documents and Settings\mhinkkan\Desktop\testi3.png"
       inkscape:export-xdpi="300"
       inkscape:export-ydpi="300" />
    <path
       style="display:inline;fill:none;stroke:#000000;stroke-width:1px;stroke-linecap:butt;stroke-linejoin:miter;stroke-opacity:1;marker-start:none;marker-end:url(#Arrow2Mend-9-7)"
       d="M 212.5,827.4999 H 250"
       id="path4648"
       inkscape:connector-curvature="0"
       sodipodi:nodetypes="cc" />
    <g
       id="g4642"
       transform="matrix(0,0.7272727,-0.7272727,0,52.112112,804.95445)"
       style="font-style:normal;font-variant:normal;font-weight:normal;font-stretch:normal;font-size:16.5px;line-height:125%;font-family:'Nimbus Roman No9 L';text-align:start;writing-mode:lr-tb;text-anchor:start;display:inline">
      <path
         transform="translate(10.5,17.500004)"
         id="path4638"
         sodipodi:nodetypes="cc"
         d="m 9.5,-274.09586 v -10"
         style="font-style:normal;font-variant:normal;font-weight:normal;font-stretch:normal;font-size:16.5px;line-height:125%;font-family:'Nimbus Roman No9 L';text-align:start;writing-mode:lr-tb;text-anchor:start;fill:none;stroke:#000000;stroke-width:1px;stroke-linecap:butt;stroke-linejoin:miter;stroke-opacity:1"
         inkscape:connector-curvature="0" />
      <path
         transform="rotate(-90,26.5,-268.09586)"
         id="path4640"
         sodipodi:nodetypes="cc"
         d="m 19.999996,-279.59586 v 10"
         style="font-style:normal;font-variant:normal;font-weight:normal;font-stretch:normal;font-size:16.5px;line-height:125%;font-family:'Nimbus Roman No9 L';text-align:start;writing-mode:lr-tb;text-anchor:start;display:inline;fill:none;stroke:#000000;stroke-width:1px;stroke-linecap:butt;stroke-linejoin:miter;stroke-opacity:1"
         inkscape:connector-curvature="0" />
    </g>
    <path
       id="path4644"
       sodipodi:nodetypes="cc"
       d="m 245.22724,842.99998 h 7.27273"
       style="font-style:normal;font-variant:normal;font-weight:normal;font-stretch:normal;font-size:16.5px;line-height:125%;font-family:'Nimbus Roman No9 L';text-align:start;writing-mode:lr-tb;text-anchor:start;display:inline;fill:none;stroke:#000000;stroke-width:0.727273px;stroke-linecap:butt;stroke-linejoin:miter;stroke-opacity:1"
       inkscape:connector-curvature="0" />
    <rect
       style="display:inline;fill:#ffffff;fill-opacity:1;fill-rule:nonzero;stroke:#000000;stroke-width:1.333;stroke-linecap:round;stroke-linejoin:miter;stroke-miterlimit:4;stroke-dasharray:none;stroke-dashoffset:0;stroke-opacity:1"
       id="rect3367"
       width="20"
       y="807.5"
       x="285"
       height="40"
       inkscape:export-filename="C:\Documents and Settings\mhinkkan\Desktop\testi3.png"
       inkscape:export-xdpi="300"
       inkscape:export-ydpi="300" />
    <ellipse
       ry="7.4999976"
       rx="7.5000033"
       cy="-257.5"
       cx="872.49988"
       style="font-style:normal;font-variant:normal;font-weight:normal;font-stretch:normal;font-size:12px;line-height:125%;font-family:'Nimbus Roman No9 L';text-align:start;writing-mode:lr-tb;text-anchor:start;display:inline;fill:#ffffff;fill-opacity:1;stroke:#000000;stroke-width:1.333;stroke-linecap:round;stroke-linejoin:round;stroke-miterlimit:4;stroke-dasharray:none;stroke-dashoffset:0;stroke-opacity:1"
       id="ellipse3371"
       transform="rotate(90)" />
    <path
       sodipodi:nodetypes="cc"
       inkscape:connector-curvature="0"
       id="path3769"
       d="M 257.5,864.99991 V 834.99987"
       style="display:inline;fill:none;stroke:#000000;stroke-width:1px;stroke-linecap:butt;stroke-linejoin:miter;stroke-opacity:1;marker-end:url(#Arrow2Mend-9)" />
    <ellipse
       ry="7.4999976"
       rx="7.5000033"
       cy="-257.5"
       cx="827.49994"
       style="font-style:normal;font-variant:normal;font-weight:normal;font-stretch:normal;font-size:12px;line-height:125%;font-family:'Nimbus Roman No9 L';text-align:start;writing-mode:lr-tb;text-anchor:start;display:inline;fill:#ffffff;fill-opacity:1;stroke:#000000;stroke-width:1.333;stroke-linecap:round;stroke-linejoin:round;stroke-miterlimit:4;stroke-dasharray:none;stroke-dashoffset:0;stroke-opacity:1"
       id="ellipse4646"
       transform="rotate(90)" />
    <rect
       style="display:inline;fill:#ffffff;fill-opacity:1;fill-rule:nonzero;stroke:#000000;stroke-width:1.333;stroke-linecap:round;stroke-linejoin:miter;stroke-miterlimit:4;stroke-dasharray:none;stroke-dashoffset:0;stroke-opacity:1"
       id="rect1652"
       width="40.000004"
       y="857.49994"
       x="295"
       height="30.00001"
       inkscape:export-filename="C:\Documents and Settings\mhinkkan\Desktop\testi3.png"
       inkscape:export-xdpi="300"
       inkscape:export-ydpi="300" />
    <g
       id="g1669"
       transform="matrix(0.66666667,0,0,0.66666697,33.333326,255.833)"
       style="stroke-width:1.5">
      <rect
         inkscape:export-ydpi="300"
         inkscape:export-xdpi="300"
         inkscape:export-filename="C:\Documents and Settings\mhinkkan\Desktop\testi3.png"
         height="30"
         x="400"
         y="909.99994"
         width="45"
         id="rect1654"
         style="display:inline;fill:#ffffff;fill-opacity:1;fill-rule:nonzero;stroke:#000000;stroke-width:0.75;stroke-linecap:round;stroke-linejoin:miter;stroke-miterlimit:4;stroke-dasharray:none;stroke-dashoffset:0;stroke-opacity:1" />
      <path
         inkscape:connector-curvature="0"
         style="fill:none;stroke:#0000ff;stroke-width:2.25;stroke-linecap:round;stroke-linejoin:round;stroke-miterlimit:8.32;stroke-dasharray:none;stroke-dashoffset:0;stroke-opacity:1"
         d="m 422.5,925.17851 c 2.16655,9e-4 4.31035,-0.56958 6.25852,-1.52216 1.33717,-0.65338 2.59598,-1.46721 3.77246,-2.38674 2.8732,-2.24892 5.29672,-5.03814 7.46902,-7.98153"
         id="path1656"
         sodipodi:nodetypes="cccc" />
      <path
         sodipodi:nodetypes="cccc"
         id="path1658"
         d="m 422.5,925.25237 c -2.16655,-9e-4 -4.31035,0.56958 -6.25852,1.52216 -1.33717,0.65338 -2.59598,1.46721 -3.77246,2.38674 -2.8732,2.24892 -5.29672,5.03814 -7.46902,7.98153"
         style="fill:none;stroke:#0000ff;stroke-width:2.25;stroke-linecap:round;stroke-linejoin:round;stroke-miterlimit:8.32;stroke-dasharray:none;stroke-dashoffset:0;stroke-opacity:1"
         inkscape:connector-curvature="0" />
      <path
         style="display:inline;fill:none;stroke:#000000;stroke-width:0.75;stroke-linecap:square;stroke-linejoin:miter;stroke-miterlimit:4;stroke-dasharray:none;stroke-opacity:1;marker-start:none;marker-end:none"
         d="m 402.85714,925.17849 h 39.46429"
         id="path1660"
         inkscape:connector-curvature="0"
         sodipodi:nodetypes="cc" />
      <path
         sodipodi:nodetypes="cc"
         inkscape:connector-curvature="0"
         id="path1662"
         d="m 422.14285,912.49992 0.17858,25"
         style="display:inline;fill:none;stroke:#000000;stroke-width:0.75;stroke-linecap:square;stroke-linejoin:miter;stroke-miterlimit:4;stroke-dasharray:none;stroke-opacity:1;marker-start:none;marker-end:none" />
    </g>
    <g
       id="g3621"
       transform="matrix(1.33333,0,0,1.33333,212.49967,816.104)"
       ns3:version="1.12.0"
       ns3:texconverter="pdflatex"
       ns3:pdfconverter="inkscape"
       ns3:text="$\\tauM$"
       ns3:preamble="/home/mhinkkan/GitHub/motulator/docs/source/inkscape_textext_preamble.sty"
       ns3:scale="1.0"
       ns3:alignment="bottom left"
       ns3:inkscapeversion="1.2.2"
       ns3:jacobian_sqrt="1.33333"
       style="stroke-width:0">
      <defs
         id="defs7874"
         style="stroke-width:0" />
      <g
         fill="#000000"
         fill-opacity="1"
         id="g8161"
         transform="translate(-154.837,-131.808)"
         style="stroke-width:0">
        <g
           transform="translate(154.806,135.761)"
           id="g1085"
           style="stroke-width:0">
          <path
             d="M 4.21875,-3.953125 H 1.515625 c -0.828125,0 -1.40625,0.984375 -1.484375,1.15625 H 0.125 c 0.046875,-0.0625 0.421875,-0.5 0.890625,-0.5 H 2.03125 l -0.609375,1.9375 C 1.34375,-1.0625 1.28125,-0.8125 1.28125,-0.625 c 0,0.390625 0.203125,0.71875 0.640625,0.71875 0.21875,0 0.46875,-0.046875 0.46875,-0.375 C 2.390625,-0.796875 1.9375,-0.75 1.9375,-1.171875 1.9375,-1.265625 1.953125,-1.359375 2,-1.5 l 0.578125,-1.796875 h 1.4375 z m 0,0"
             id="path7771"
             style="stroke-width:0" />
        </g>
      </g>
      <g
         fill="#000000"
         fill-opacity="1"
         id="g8984"
         transform="translate(-154.837,-131.808)"
         style="stroke-width:0">
        <g
           transform="translate(158.545,137.106)"
           id="g3056"
           style="stroke-width:0">
          <path
             d="m 5.671875,0 v -0.125 c -0.46875,-0.03125 -0.5625,-0.125 -0.5625,-0.59375 v -2.921875 c 0,-0.46875 0.078125,-0.546875 0.5625,-0.59375 v -0.125 H 4.375 L 2.921875,-1.03125 1.390625,-4.359375 H 0.09375 v 0.125 c 0.53125,0.03125 0.625,0.109375 0.625,0.59375 v 2.671875 c 0,0.671875 -0.09375,0.796875 -0.640625,0.84375 V 0 H 1.625 V -0.125 C 1.125,-0.15625 1,-0.296875 1,-0.96875 V -3.625 L 2.65625,0 H 2.75 l 1.6875,-3.765625 v 2.96875 C 4.4375,-0.25 4.359375,-0.15625 3.828125,-0.125 V 0 Z m 0,0"
             id="path8978"
             style="stroke-width:0" />
        </g>
      </g>
    </g>
    <g
       id="g13"
       transform="matrix(1.33333,0,0,1.33333,212.49966,860.104)"
       ns3:version="1.12.0"
       ns3:texconverter="pdflatex"
       ns3:pdfconverter="inkscape"
       ns3:text="$\\tauL$"
       ns3:preamble="/home/mhinkkan/GitHub/motulator/docs/source/inkscape_textext_preamble.sty"
       ns3:scale="1.0"
       ns3:alignment="bottom left"
       ns3:inkscapeversion="1.2.2"
       ns3:jacobian_sqrt="1.33333"
       style="stroke-width:0">
      <defs
         id="defs862"
         style="stroke-width:0" />
      <g
         fill="#000000"
         fill-opacity="1"
         id="g121"
         transform="translate(-154.837,-131.808)"
         style="stroke-width:0">
        <g
           transform="translate(154.806,135.761)"
           id="g8762"
           style="stroke-width:0">
          <path
             d="M 4.21875,-3.953125 H 1.515625 c -0.828125,0 -1.40625,0.984375 -1.484375,1.15625 H 0.125 c 0.046875,-0.0625 0.421875,-0.5 0.890625,-0.5 H 2.03125 l -0.609375,1.9375 C 1.34375,-1.0625 1.28125,-0.8125 1.28125,-0.625 c 0,0.390625 0.203125,0.71875 0.640625,0.71875 0.21875,0 0.46875,-0.046875 0.46875,-0.375 C 2.390625,-0.796875 1.9375,-0.75 1.9375,-1.171875 1.9375,-1.265625 1.953125,-1.359375 2,-1.5 l 0.578125,-1.796875 h 1.4375 z m 0,0"
             id="path6844"
             style="stroke-width:0" />
        </g>
      </g>
      <g
         fill="#000000"
         fill-opacity="1"
         id="g9916"
         transform="translate(-154.837,-131.808)"
         style="stroke-width:0">
        <g
           transform="translate(158.545,137.106)"
           id="g1639"
           style="stroke-width:0">
          <path
             d="M 3.9375,-1.140625 H 3.765625 c -0.109375,0.21875 -0.1875,0.375 -0.28125,0.484375 C 3.25,-0.375 2.890625,-0.25 2.328125,-0.25 h -0.4375 c -0.484375,0 -0.5625,-0.046875 -0.5625,-0.28125 v -3.109375 c 0,-0.46875 0.09375,-0.5625 0.609375,-0.59375 v -0.125 H 0.078125 v 0.125 c 0.484375,0.046875 0.578125,0.125 0.578125,0.59375 v 2.921875 c 0,0.46875 -0.09375,0.5625 -0.578125,0.59375 V 0 H 3.625 Z m 0,0"
             id="path5221"
             style="stroke-width:0" />
        </g>
      </g>
    </g>
    <g
       id="g9226"
       transform="matrix(1.33333,0,0,1.33333,360.53258,815.10417)"
       ns3:version="1.12.0"
       ns3:texconverter="pdflatex"
       ns3:pdfconverter="inkscape"
       ns3:text="$\\omegaM$"
       ns3:preamble="/home/mhinkkan/GitHub/motulator/docs/source/inkscape_textext_preamble.sty"
       ns3:scale="1.0"
       ns3:alignment="bottom right"
       ns3:inkscapeversion="1.2.2"
       ns3:jacobian_sqrt="1.33333"
       style="stroke-width:0">
      <defs
         id="defs6421"
         style="stroke-width:0" />
      <g
         fill="#000000"
         fill-opacity="1"
         id="g5920"
         transform="translate(-154.893,-131.808)"
         style="stroke-width:0">
        <g
           transform="translate(154.69,135.761)"
           id="g4614"
           style="stroke-width:0">
          <path
             d="m 5.984375,-2.265625 c 0,-0.9375 -0.609375,-1.609375 -0.6875,-1.6875 H 5 c 0.0625,0.109375 0.28125,0.53125 0.28125,1.171875 0,1.046875 -0.6875,2.515625 -1.5625,2.515625 -0.34375,0 -0.578125,-0.1875 -0.578125,-0.515625 0,-0.890625 0.484375,-1.734375 0.484375,-1.9375 0,-0.046875 -0.015625,-0.0625 -0.046875,-0.0625 h -0.4375 c -0.265625,0 -0.0625,2.515625 -1.453125,2.515625 -0.625,0 -0.671875,-0.625 -0.671875,-0.875 0,-1.421875 1.0625,-2.625 1.234375,-2.8125 H 1.953125 c 0,0 -1.75,1.171875 -1.75,2.78125 0,0.5625 0.296875,1.265625 1.234375,1.265625 1.09375,0 1.421875,-0.90625 1.421875,-0.921875 H 2.875 C 2.875,-0.8125 2.859375,-0.75 2.859375,-0.625 c 0,0.28125 0.109375,0.71875 0.90625,0.71875 1.125,0 2.21875,-1.21875 2.21875,-2.359375 z m 0,0"
             id="path5102"
             style="stroke-width:0" />
        </g>
      </g>
      <g
         fill="#000000"
         fill-opacity="1"
         id="g3613"
         transform="translate(-154.893,-131.808)"
         style="stroke-width:0">
        <g
           transform="translate(161.065,137.106)"
           id="g3967"
           style="stroke-width:0">
          <path
             d="m 5.671875,0 v -0.125 c -0.46875,-0.03125 -0.5625,-0.125 -0.5625,-0.59375 v -2.921875 c 0,-0.46875 0.078125,-0.546875 0.5625,-0.59375 v -0.125 H 4.375 L 2.921875,-1.03125 1.390625,-4.359375 H 0.09375 v 0.125 c 0.53125,0.03125 0.625,0.109375 0.625,0.59375 v 2.671875 c 0,0.671875 -0.09375,0.796875 -0.640625,0.84375 V 0 H 1.625 V -0.125 C 1.125,-0.15625 1,-0.296875 1,-0.96875 V -3.625 L 2.65625,0 H 2.75 l 1.6875,-3.765625 v 2.96875 C 4.4375,-0.25 4.359375,-0.15625 3.828125,-0.125 V 0 Z m 0,0"
             id="path1274"
             style="stroke-width:0" />
        </g>
      </g>
    </g>
    <g
       id="g28"
       transform="matrix(1.33333,0,0,1.33333,260.167,851.468)"
       ns3:version="1.12.0"
       ns3:texconverter="pdflatex"
       ns3:pdfconverter="inkscape"
       ns3:text="$\\tauLtot$"
       ns3:preamble="/home/mhinkkan/GitHub/motulator/docs/source/inkscape_textext_preamble.sty"
       ns3:scale="1.0"
       ns3:alignment="middle left"
       ns3:inkscapeversion="1.2.2"
       ns3:jacobian_sqrt="1.33333"
       style="stroke-width:0">
      <defs
         id="defs5957"
         style="stroke-width:0" />
      <g
         fill="#000000"
         fill-opacity="1"
         id="g3349"
         transform="translate(-154.837,-131.808)"
         style="stroke-width:0">
        <g
           transform="translate(154.806,135.761)"
           id="g4353"
           style="stroke-width:0">
          <path
             d="M 4.21875,-3.953125 H 1.515625 c -0.828125,0 -1.40625,0.984375 -1.484375,1.15625 H 0.125 c 0.046875,-0.0625 0.421875,-0.5 0.890625,-0.5 H 2.03125 l -0.609375,1.9375 C 1.34375,-1.0625 1.28125,-0.8125 1.28125,-0.625 c 0,0.390625 0.203125,0.71875 0.640625,0.71875 0.21875,0 0.46875,-0.046875 0.46875,-0.375 C 2.390625,-0.796875 1.9375,-0.75 1.9375,-1.171875 1.9375,-1.265625 1.953125,-1.359375 2,-1.5 l 0.578125,-1.796875 h 1.4375 z m 0,0"
             id="path5345"
             style="stroke-width:0" />
        </g>
      </g>
      <g
         fill="#000000"
         fill-opacity="1"
         id="g8600"
         transform="translate(-154.837,-131.808)"
         style="stroke-width:0">
        <g
           transform="translate(158.545,137.106)"
           id="g474"
           style="stroke-width:0">
          <path
             d="M 3.9375,-1.140625 H 3.765625 c -0.109375,0.21875 -0.1875,0.375 -0.28125,0.484375 C 3.25,-0.375 2.890625,-0.25 2.328125,-0.25 h -0.4375 c -0.484375,0 -0.5625,-0.046875 -0.5625,-0.28125 v -3.109375 c 0,-0.46875 0.09375,-0.5625 0.609375,-0.59375 v -0.125 H 0.078125 v 0.125 c 0.484375,0.046875 0.578125,0.125 0.578125,0.59375 v 2.921875 c 0,0.46875 -0.09375,0.5625 -0.578125,0.59375 V 0 H 3.625 Z m 0,0"
             id="path1928"
             style="stroke-width:0" />
        </g>
      </g>
      <g
         fill="#000000"
         fill-opacity="1"
         id="g9379"
         transform="translate(-154.837,-131.808)"
         style="stroke-width:0">
        <g
           transform="translate(162.694,137.106)"
           id="g1505"
           style="stroke-width:0">
          <path
             d="m 1.4375,-0.046875 c 0,-0.53125 -0.421875,-0.625 -0.609375,-0.625 -0.1875,0 -0.4375,0.125 -0.4375,0.40625 C 0.390625,0 0.65625,0.0625 0.84375,0.0625 0.890625,0.0625 0.921875,0.046875 0.953125,0.046875 0.96875,0.046875 1,0.03125 1.015625,0.03125 1.0625,0.03125 1.125,0.0625 1.125,0.125 1.125,0.25 1,0.53125 0.515625,0.8125 l 0.0625,0.140625 C 0.8125,0.875 1.4375,0.421875 1.4375,-0.046875 Z m 0,0"
             id="path7687"
             style="stroke-width:0" />
        </g>
      </g>
      <g
         fill="#000000"
         fill-opacity="1"
         id="g3525"
         transform="translate(-154.837,-131.808)"
         style="stroke-width:0">
        <g
           transform="translate(164.779,137.106)"
           id="g8124"
           style="stroke-width:0">
          <path
             d="M 1.828125,-0.4375 1.75,-0.5 c -0.140625,0.171875 -0.25,0.21875 -0.390625,0.21875 -0.25,0 -0.34375,-0.171875 -0.34375,-0.59375 V -2.75 h 0.65625 V -2.953125 H 1.015625 V -3.71875 C 1.015625,-3.78125 1,-3.8125 0.96875,-3.8125 0.921875,-3.75 0.875,-3.6875 0.828125,-3.625 0.59375,-3.265625 0.375,-3.015625 0.203125,-2.921875 c -0.078125,0.046875 -0.125,0.09375 -0.125,0.125 0,0.015625 0.015625,0.03125 0.03125,0.046875 h 0.34375 v 1.984375 c 0,0.546875 0.203125,0.828125 0.59375,0.828125 0.328125,0 0.578125,-0.15625 0.78125,-0.5 z m 0,0"
             id="path2182"
             style="stroke-width:0" />
        </g>
        <g
           transform="translate(166.607,137.106)"
           id="g5957"
           style="stroke-width:0">
          <path
             d="m 3.09375,-1.546875 c 0,-0.859375 -0.609375,-1.484375 -1.453125,-1.484375 -0.84375,0 -1.453125,0.640625 -1.453125,1.546875 0,0.890625 0.609375,1.546875 1.4375,1.546875 0.828125,0 1.46875,-0.6875 1.46875,-1.609375 z M 2.5,-1.3125 c 0,0.75 -0.296875,1.1875 -0.796875,1.1875 -0.25,0 -0.5,-0.15625 -0.625,-0.421875 C 0.890625,-0.875 0.78125,-1.34375 0.78125,-1.8125 c 0,-0.625 0.3125,-1.03125 0.78125,-1.03125 0.546875,0 0.9375,0.640625 0.9375,1.53125 z m 0,0"
             id="path8014"
             style="stroke-width:0" />
        </g>
        <g
           transform="translate(169.895,137.106)"
           id="g4994"
           style="stroke-width:0">
          <path
             d="M 1.828125,-0.4375 1.75,-0.5 c -0.140625,0.171875 -0.25,0.21875 -0.390625,0.21875 -0.25,0 -0.34375,-0.171875 -0.34375,-0.59375 V -2.75 h 0.65625 V -2.953125 H 1.015625 V -3.71875 C 1.015625,-3.78125 1,-3.8125 0.96875,-3.8125 0.921875,-3.75 0.875,-3.6875 0.828125,-3.625 0.59375,-3.265625 0.375,-3.015625 0.203125,-2.921875 c -0.078125,0.046875 -0.125,0.09375 -0.125,0.125 0,0.015625 0.015625,0.03125 0.03125,0.046875 h 0.34375 v 1.984375 c 0,0.546875 0.203125,0.828125 0.59375,0.828125 0.328125,0 0.578125,-0.15625 0.78125,-0.5 z m 0,0"
             id="path3740"
             style="stroke-width:0" />
        </g>
      </g>
    </g>
    <g
       id="g36"
       transform="matrix(1.33333,0,0,1.33333,332.01303,815.23745)"
       ns3:version="1.12.0"
       ns3:texconverter="pdflatex"
       ns3:pdfconverter="inkscape"
       ns3:text="$\\dfrac{1}{s}$"
       ns3:preamble="/home/mhinkkan/GitHub/motulator/docs/source/inkscape_textext_preamble.sty"
       ns3:scale="1.0"
       ns3:alignment="middle center"
       ns3:inkscapeversion="1.2.2"
       ns3:jacobian_sqrt="1.33333"
       style="stroke-width:0">
      <defs
         id="defs7259"
         style="stroke-width:0" />
      <g
         fill="#000000"
         fill-opacity="1"
         id="g6227"
         transform="translate(-155.887,-126.784)"
         style="stroke-width:0">
        <g
           transform="translate(155.885,132.847)"
           id="g132"
           style="stroke-width:0">
          <path
             d="m 3.53125,0 v -0.140625 c -0.703125,0 -0.84375,-0.09375 -0.84375,-0.515625 V -6.046875 L 2.609375,-6.0625 1,-5.25 v 0.125 c 0.109375,-0.046875 0.203125,-0.078125 0.234375,-0.09375 0.171875,-0.0625 0.3125,-0.09375 0.40625,-0.09375 0.1875,0 0.265625,0.125 0.265625,0.421875 v 4.0625 c 0,0.296875 -0.0625,0.5 -0.21875,0.578125 -0.125,0.078125 -0.25,0.109375 -0.625,0.109375 V 0 Z m 0,0"
             id="path7649"
             style="stroke-width:0" />
        </g>
      </g>
      <path
         fill="#000000"
         d="M 0,9.5777811 H 4.4804682 V 10.079781 H 0 Z"
         id="path4750"
         style="stroke-width:0" />
      <g
         fill="#000000"
         fill-opacity="1"
         id="g3535"
         transform="translate(-155.887,-126.784)"
         style="stroke-width:0">
        <g
           transform="translate(156.388,145.068)"
           id="g206"
           style="stroke-width:0">
          <path
             d="m 2.71875,-1.0625 c 0,-0.359375 -0.1875,-0.734375 -0.609375,-1.265625 C 1.78125,-2.75 1.625,-3.015625 1.625,-3.265625 1.625,-3.5625 1.828125,-3.75 2.140625,-3.75 c 0.453125,0 0.734375,0.328125 0.8125,1.03125 h 0.15625 l 0.171875,-1.25 h -0.125 c -0.078125,0.125 -0.140625,0.171875 -0.265625,0.171875 -0.078125,0 -0.15625,-0.03125 -0.328125,-0.0625 -0.21875,-0.078125 -0.34375,-0.09375 -0.5,-0.09375 -0.65625,0 -1.078125,0.390625 -1.078125,0.984375 0,0.28125 0.1875,0.671875 0.5625,1.15625 0.34375,0.453125 0.5,0.765625 0.5,1.03125 0,0.40625 -0.265625,0.6875 -0.671875,0.6875 -0.5,0 -0.765625,-0.359375 -0.90625,-1.21875 H 0.328125 l -0.1875,1.421875 H 0.28125 c 0.09375,-0.140625 0.125,-0.1875 0.21875,-0.1875 0.09375,0 0.265625,0.046875 0.4375,0.09375 0.203125,0.0625 0.34375,0.078125 0.5,0.078125 0.75,0 1.28125,-0.484375 1.28125,-1.15625 z m 0,0"
             id="path6993"
             style="stroke-width:0" />
        </g>
      </g>
    </g>
    <g
       id="g44"
       transform="matrix(1.33333,0,0,1.33333,291.8099,815.2062)"
       ns3:version="1.12.0"
       ns3:texconverter="pdflatex"
       ns3:pdfconverter="inkscape"
       ns3:text="$\\dfrac{1}{J}$"
       ns3:preamble="/home/mhinkkan/GitHub/motulator/docs/source/inkscape_textext_preamble.sty"
       ns3:scale="1.0"
       ns3:alignment="middle center"
       ns3:inkscapeversion="1.2.2"
       ns3:jacobian_sqrt="1.33333"
       style="stroke-width:0">
      <defs
         id="defs7100"
         style="stroke-width:0" />
      <g
         fill="#000000"
         fill-opacity="1"
         id="g4387"
         transform="translate(-155.887,-126.784)"
         style="stroke-width:0">
        <g
           transform="translate(156.038,132.847)"
           id="g3640"
           style="stroke-width:0">
          <path
             d="m 3.53125,0 v -0.140625 c -0.703125,0 -0.84375,-0.09375 -0.84375,-0.515625 V -6.046875 L 2.609375,-6.0625 1,-5.25 v 0.125 c 0.109375,-0.046875 0.203125,-0.078125 0.234375,-0.09375 0.171875,-0.0625 0.3125,-0.09375 0.40625,-0.09375 0.1875,0 0.265625,0.125 0.265625,0.421875 v 4.0625 c 0,0.296875 -0.0625,0.5 -0.21875,0.578125 -0.125,0.078125 -0.25,0.109375 -0.625,0.109375 V 0 Z m 0,0"
             id="path8327"
             style="stroke-width:0" />
        </g>
      </g>
      <path
         fill="#000000"
         d="M 0,9.5777811 H 4.7851562 V 10.079781 H 0 Z"
         id="path2798"
         style="stroke-width:0" />
      <g
         fill="#000000"
         fill-opacity="1"
         id="g2290"
         transform="translate(-155.887,-126.784)"
         style="stroke-width:0">
        <g
           transform="translate(156.119,145.068)"
           id="g9978"
           style="stroke-width:0">
          <path
             d="M 4.40625,-5.71875 V -5.859375 H 2.125 v 0.140625 c 0.5625,0.0625 0.6875,0.125 0.6875,0.375 0,0.140625 -0.03125,0.3125 -0.109375,0.578125 L 1.53125,-0.59375 C 1.4375,-0.25 1.3125,-0.109375 1.09375,-0.109375 c -0.21875,0 -0.3125,-0.109375 -0.3125,-0.359375 0,-0.046875 0,-0.09375 0.015625,-0.140625 V -0.6875 c 0,-0.234375 -0.203125,-0.421875 -0.453125,-0.421875 -0.234375,0 -0.390625,0.1875 -0.390625,0.484375 0,0.46875 0.421875,0.78125 1.046875,0.78125 0.453125,0 0.859375,-0.171875 1.140625,-0.5 C 2.375,-0.640625 2.5625,-1.046875 2.75,-1.71875 l 0.921875,-3.328125 c 0.15625,-0.546875 0.21875,-0.59375 0.734375,-0.671875 z m 0,0"
             id="path5878"
             style="stroke-width:0" />
        </g>
      </g>
    </g>
  </g>
</svg>
