<?xml version="1.0" encoding="UTF-8" standalone="no"?>
<svg
   width="480"
   height="170"
   id="svg3470"
   sodipodi:version="0.32"
   inkscape:version="1.3.2 (091e20e, 2023-11-25, custom)"
   sodipodi:docname="pwm_inverter.svg"
   inkscape:output_extension="org.inkscape.output.svg.inkscape"
   version="1.0"
   xmlns:inkscape="http://www.inkscape.org/namespaces/inkscape"
   xmlns:sodipodi="http://sodipodi.sourceforge.net/DTD/sodipodi-0.dtd"
   xmlns:xlink="http://www.w3.org/1999/xlink"
   xmlns="http://www.w3.org/2000/svg"
   xmlns:svg="http://www.w3.org/2000/svg"
   xmlns:rdf="http://www.w3.org/1999/02/22-rdf-syntax-ns#"
   xmlns:cc="http://creativecommons.org/ns#"
   xmlns:dc="http://purl.org/dc/elements/1.1/">
  <sodipodi:namedview
     id="base"
     pagecolor="#ffffff"
     bordercolor="#666666"
     borderopacity="1.0"
     gridtolerance="36.6"
     guidetolerance="10"
     objecttolerance="10"
     inkscape:pageopacity="0.0"
     inkscape:pageshadow="2"
     inkscape:zoom="3.2195994"
     inkscape:cx="202.50967"
     inkscape:cy="70.350367"
     inkscape:document-units="px"
     inkscape:current-layer="layer2"
     showgrid="true"
     inkscape:grid-points="true"
     inkscape:object-paths="true"
     inkscape:object-points="false"
     inkscape:grid-bbox="false"
     inkscape:window-width="1680"
     inkscape:window-height="979"
     inkscape:window-x="-8"
     inkscape:window-y="-8"
     width="349.29px"
     height="359.4px"
     showguides="true"
     inkscape:guide-bbox="true"
     inkscape:guide-points="false"
     inkscape:object-nodes="true"
     inkscape:object-bbox="true"
     inkscape:snap-bbox="false"
     inkscape:snap-nodes="true"
     inkscape:bbox-paths="true"
     inkscape:snap-global="true"
     inkscape:snap-guide="true"
     inkscape:window-maximized="1"
     inkscape:snap-grids="true"
     inkscape:snap-object-midpoints="true"
     inkscape:snap-to-guides="false"
     inkscape:document-rotation="0"
     fit-margin-top="0"
     fit-margin-left="0"
     fit-margin-right="0"
     fit-margin-bottom="0"
     inkscape:showpageshadow="2"
     inkscape:pagecheckerboard="0"
     inkscape:deskcolor="#d1d1d1">
    <inkscape:grid
       snapvisiblegridlinesonly="true"
       empspacing="5"
       empopacity="0.4"
       opacity="0.2"
       empcolor="#0000ff"
       color="#0000ff"
       spacingy="0.5"
       spacingx="0.5"
       originy="-115"
       originx="-30"
       type="xygrid"
       id="GridFromPre046Settings"
       visible="true"
       enabled="true"
       units="px" />
    <sodipodi:guide
       id="guide35742"
       position="1919.5192,1229.6728"
       orientation="0,1"
       inkscape:locked="false" />
  </sodipodi:namedview>
  <defs
     id="defs3472">
    <marker
       refX="0"
       inkscape:stockid="Dot_m"
       refY="0"
       orient="auto"
       id="marker52572"
       style="overflow:visible">
      <path
         inkscape:connector-curvature="0"
         id="path52574"
         d="m -2.5,-1 c 0,2.76 -2.24,5 -5,5 -2.76,0 -5,-2.24 -5,-5 0,-2.76 2.24,-5 5,-5 2.76,0 5,2.24 5,5 z"
         transform="matrix(0.4,0,0,0.4,2.96,0.4)"
         style="fill-rule:evenodd;stroke:#000000;stroke-width:1pt;marker-start:none;marker-end:none" />
    </marker>
    <marker
       style="overflow:visible"
       id="marker19838"
       refX="0"
       refY="0"
       orient="auto"
       inkscape:stockid="DotM">
      <path
         transform="matrix(0.4,0,0,0.4,2.96,0.4)"
         style="fill-rule:evenodd;stroke:#000000;stroke-width:1pt;marker-start:none;marker-end:none"
         d="m -2.5,-1 c 0,2.76 -2.24,5 -5,5 -2.76,0 -5,-2.24 -5,-5 0,-2.76 2.24,-5 5,-5 2.76,0 5,2.24 5,5 z"
         id="path19840"
         inkscape:connector-curvature="0" />
    </marker>
    <marker
       style="overflow:visible"
       id="marker19838-5"
       refX="0"
       refY="0"
       orient="auto"
       inkscape:stockid="DotM">
      <path
         transform="matrix(0.4,0,0,0.4,2.96,0.4)"
         style="fill-rule:evenodd;stroke:#000000;stroke-width:1pt;marker-start:none;marker-end:none"
         d="m -2.5,-1 c 0,2.76 -2.24,5 -5,5 -2.76,0 -5,-2.24 -5,-5 0,-2.76 2.24,-5 5,-5 2.76,0 5,2.24 5,5 z"
         id="path19840-4"
         inkscape:connector-curvature="0" />
    </marker>
    <marker
       inkscape:stockid="Arrow2Mend"
       orient="auto"
       refY="0"
       refX="0"
       id="Arrow2Mend-3"
       style="overflow:visible">
      <path
         inkscape:connector-curvature="0"
         id="path4054"
         style="font-size:12px;fill-rule:evenodd;stroke-width:0.625;stroke-linejoin:round"
         d="M 8.7185878,4.0337352 -2.2072895,0.01601326 8.7185884,-4.0017078 c -1.7454984,2.3720609 -1.7354408,5.6174519 -6e-7,8.035443 z"
         transform="scale(-0.6)" />
    </marker>
    <marker
       style="overflow:visible"
       id="marker19838-5-6"
       refX="0"
       refY="0"
       orient="auto"
       inkscape:stockid="DotM">
      <path
         transform="matrix(0.4,0,0,0.4,2.96,0.4)"
         style="fill-rule:evenodd;stroke:#000000;stroke-width:1pt;marker-start:none;marker-end:none"
         d="m -2.5,-1 c 0,2.76 -2.24,5 -5,5 -2.76,0 -5,-2.24 -5,-5 0,-2.76 2.24,-5 5,-5 2.76,0 5,2.24 5,5 z"
         id="path19840-4-2"
         inkscape:connector-curvature="0" />
    </marker>
    <g
       id="g1956">
      <symbol
         overflow="visible"
         id="symbol712">
        <path
           style="stroke:none"
           d=""
           id="path3244" />
      </symbol>
      <symbol
         overflow="visible"
         id="symbol4092">
        <path
           style="stroke:none"
           d="M 1.09375,-3.421875 V -0.75 c 0,0.4375 -0.109375,0.4375 -0.78125,0.4375 V 0 c 0.359375,-0.015625 0.859375,-0.03125 1.140625,-0.03125 0.25,0 0.765625,0.015625 1.109375,0.03125 v -0.3125 c -0.671875,0 -0.78125,0 -0.78125,-0.4375 V -2.59375 C 1.78125,-3.625 2.5,-4.1875 3.125,-4.1875 c 0.640625,0 0.75,0.53125 0.75,1.109375 V -0.75 c 0,0.4375 -0.109375,0.4375 -0.78125,0.4375 V 0 c 0.34375,-0.015625 0.859375,-0.03125 1.125,-0.03125 0.25,0 0.78125,0.015625 1.109375,0.03125 v -0.3125 c -0.515625,0 -0.765625,0 -0.765625,-0.296875 v -1.90625 c 0,-0.859375 0,-1.15625 -0.3125,-1.515625 -0.140625,-0.171875 -0.46875,-0.375 -1.046875,-0.375 C 2.46875,-4.40625 2,-3.984375 1.71875,-3.359375 V -4.40625 L 0.3125,-4.296875 v 0.3125 c 0.703125,0 0.78125,0.0625 0.78125,0.5625 z m 0,0"
           id="path4308" />
      </symbol>
    </g>
    <g
       id="g1623">
      <symbol
         overflow="visible"
         id="symbol5492">
        <path
           style="stroke:none"
           d=""
           id="path7701" />
      </symbol>
      <symbol
         overflow="visible"
         id="symbol1455">
        <path
           style="stroke:none"
           d="M 2.3125,-6.671875 C 2.21875,-6.796875 2.21875,-6.8125 2.03125,-6.8125 H 0.328125 V -6.5 H 0.625 c 0.140625,0 0.34375,0.015625 0.484375,0.015625 0.234375,0.03125 0.25,0.046875 0.25,0.234375 v 5.203125 c 0,0.265625 0,0.734375 -1.03125,0.734375 V 0 C 0.671875,-0.015625 1.171875,-0.03125 1.5,-0.03125 c 0.328125,0 0.8125,0.015625 1.15625,0.03125 v -0.3125 c -1.015625,0 -1.015625,-0.46875 -1.015625,-0.734375 v -5.1875 c 0.046875,0.046875 0.046875,0.0625 0.09375,0.125 L 5.796875,-0.125 C 5.890625,-0.015625 5.90625,0 5.96875,0 6.109375,0 6.109375,-0.0625 6.109375,-0.265625 v -5.5 c 0,-0.265625 0,-0.734375 1.03125,-0.734375 v -0.3125 c -0.359375,0.015625 -0.84375,0.03125 -1.171875,0.03125 -0.328125,0 -0.8125,-0.015625 -1.15625,-0.03125 V -6.5 c 1.015625,0 1.015625,0.46875 1.015625,0.734375 V -1.5 Z m 0,0"
           id="path6046" />
      </symbol>
    </g>
    <g
       id="g9263">
      <symbol
         overflow="visible"
         id="symbol1044">
        <path
           style="stroke:none"
           d=""
           id="path7323" />
      </symbol>
      <symbol
         overflow="visible"
         id="symbol2423">
        <path
           style="stroke:none"
           d="m 5.796875,-2.578125 h -0.25 c -0.109375,1.015625 -0.25,2.265625 -2,2.265625 h -0.8125 C 2.265625,-0.3125 2.25,-0.375 2.25,-0.703125 v -5.3125 C 2.25,-6.359375 2.25,-6.5 3.1875,-6.5 H 3.515625 V -6.8125 C 3.15625,-6.78125 2.25,-6.78125 1.84375,-6.78125 c -0.390625,0 -1.171875,0 -1.515625,-0.03125 V -6.5 H 0.5625 c 0.765625,0 0.796875,0.109375 0.796875,0.46875 v 5.25 c 0,0.359375 -0.03125,0.46875 -0.796875,0.46875 H 0.328125 V 0 h 5.1875 z m 0,0"
           id="path4519" />
      </symbol>
      <symbol
         overflow="visible"
         id="symbol3575">
        <path
           style="stroke:none"
           d="M 4.6875,-2.140625 C 4.6875,-3.40625 3.703125,-4.46875 2.5,-4.46875 c -1.25,0 -2.21875,1.09375 -2.21875,2.328125 0,1.296875 1.03125,2.25 2.203125,2.25 1.203125,0 2.203125,-0.984375 2.203125,-2.25 z m -2.1875,2 c -0.4375,0 -0.875,-0.203125 -1.140625,-0.671875 -0.25,-0.4375 -0.25,-1.046875 -0.25,-1.40625 0,-0.390625 0,-0.921875 0.234375,-1.359375 C 1.609375,-4.03125 2.078125,-4.25 2.484375,-4.25 c 0.4375,0 0.859375,0.21875 1.125,0.65625 0.265625,0.421875 0.265625,1 0.265625,1.375 0,0.359375 0,0.90625 -0.21875,1.34375 C 3.421875,-0.421875 2.984375,-0.140625 2.5,-0.140625 Z m 0,0"
           id="path5913" />
      </symbol>
      <symbol
         overflow="visible"
         id="symbol1042">
        <path
           style="stroke:none"
           d="m 3.3125,-0.75 c 0.046875,0.390625 0.3125,0.8125 0.78125,0.8125 0.21875,0 0.828125,-0.140625 0.828125,-0.953125 v -0.5625 h -0.25 v 0.5625 c 0,0.578125 -0.25,0.640625 -0.359375,0.640625 -0.328125,0 -0.375,-0.453125 -0.375,-0.5 v -1.984375 c 0,-0.421875 0,-0.8125 -0.359375,-1.1875 C 3.1875,-4.3125 2.6875,-4.46875 2.21875,-4.46875 c -0.828125,0 -1.515625,0.46875 -1.515625,1.125 0,0.296875 0.203125,0.46875 0.46875,0.46875 0.28125,0 0.453125,-0.203125 0.453125,-0.453125 0,-0.125 -0.046875,-0.453125 -0.515625,-0.453125 C 1.390625,-4.140625 1.875,-4.25 2.1875,-4.25 c 0.5,0 1.0625,0.390625 1.0625,1.28125 v 0.359375 c -0.515625,0.03125 -1.203125,0.0625 -1.828125,0.359375 -0.75,0.34375 -1,0.859375 -1,1.296875 0,0.8125 0.96875,1.0625 1.59375,1.0625 0.65625,0 1.109375,-0.40625 1.296875,-0.859375 z M 3.25,-2.390625 v 1 c 0,0.9375 -0.71875,1.28125 -1.171875,1.28125 -0.484375,0 -0.890625,-0.34375 -0.890625,-0.84375 0,-0.546875 0.421875,-1.375 2.0625,-1.4375 z m 0,0"
           id="path2015" />
      </symbol>
      <symbol
         overflow="visible"
         id="symbol3790">
        <path
           style="stroke:none"
           d="m 3.78125,-0.546875 v 0.65625 L 5.25,0 v -0.3125 c -0.6875,0 -0.78125,-0.0625 -0.78125,-0.5625 V -6.921875 L 3.046875,-6.8125 V -6.5 c 0.6875,0 0.765625,0.0625 0.765625,0.5625 v 2.15625 c -0.28125,-0.359375 -0.71875,-0.625 -1.25,-0.625 -1.171875,0 -2.21875,0.984375 -2.21875,2.265625 0,1.265625 0.96875,2.25 2.109375,2.25 0.640625,0 1.078125,-0.34375 1.328125,-0.65625 z m 0,-2.671875 v 2.046875 c 0,0.171875 0,0.1875 -0.109375,0.359375 C 3.375,-0.328125 2.9375,-0.109375 2.5,-0.109375 2.046875,-0.109375 1.6875,-0.375 1.453125,-0.75 1.203125,-1.15625 1.171875,-1.71875 1.171875,-2.140625 1.171875,-2.5 1.1875,-3.09375 1.46875,-3.546875 1.6875,-3.859375 2.0625,-4.1875 2.609375,-4.1875 c 0.34375,0 0.765625,0.15625 1.0625,0.59375 0.109375,0.171875 0.109375,0.1875 0.109375,0.375 z m 0,0"
           id="path26" />
      </symbol>
    </g>
    <g
       id="g8461">
      <symbol
         overflow="visible"
         id="symbol4862">
        <path
           style="stroke:none"
           d=""
           id="path6978" />
      </symbol>
      <symbol
         overflow="visible"
         id="symbol2322">
        <path
           style="stroke:none"
           d="m 0.5625,-3.40625 c 0,2.0625 1.609375,3.625 3.46875,3.625 1.625,0 2.59375,-1.390625 2.59375,-2.546875 C 6.625,-2.421875 6.625,-2.5 6.5,-2.5 6.390625,-2.5 6.390625,-2.4375 6.375,-2.328125 6.296875,-0.90625 5.234375,-0.09375 4.140625,-0.09375 c -0.609375,0 -2.5625,-0.328125 -2.5625,-3.3125 0,-2.96875 1.953125,-3.3125 2.5625,-3.3125 1.078125,0 1.96875,0.90625 2.171875,2.359375 C 6.328125,-4.21875 6.328125,-4.1875 6.46875,-4.1875 6.625,-4.1875 6.625,-4.21875 6.625,-4.421875 V -6.78125 c 0,-0.171875 0,-0.25 -0.109375,-0.25 -0.03125,0 -0.078125,0 -0.15625,0.125 l -0.5,0.734375 C 5.5,-6.53125 4.984375,-7.03125 4.03125,-7.03125 c -1.875,0 -3.46875,1.59375 -3.46875,3.625 z m 0,0"
           id="path8236" />
      </symbol>
      <symbol
         overflow="visible"
         id="symbol9835">
        <path
           style="stroke:none"
           d="m 3.3125,-0.75 c 0.046875,0.390625 0.3125,0.8125 0.78125,0.8125 0.21875,0 0.828125,-0.140625 0.828125,-0.953125 v -0.5625 h -0.25 v 0.5625 c 0,0.578125 -0.25,0.640625 -0.359375,0.640625 -0.328125,0 -0.375,-0.453125 -0.375,-0.5 v -1.984375 c 0,-0.421875 0,-0.8125 -0.359375,-1.1875 C 3.1875,-4.3125 2.6875,-4.46875 2.21875,-4.46875 c -0.828125,0 -1.515625,0.46875 -1.515625,1.125 0,0.296875 0.203125,0.46875 0.46875,0.46875 0.28125,0 0.453125,-0.203125 0.453125,-0.453125 0,-0.125 -0.046875,-0.453125 -0.515625,-0.453125 C 1.390625,-4.140625 1.875,-4.25 2.1875,-4.25 c 0.5,0 1.0625,0.390625 1.0625,1.28125 v 0.359375 c -0.515625,0.03125 -1.203125,0.0625 -1.828125,0.359375 -0.75,0.34375 -1,0.859375 -1,1.296875 0,0.8125 0.96875,1.0625 1.59375,1.0625 0.65625,0 1.109375,-0.40625 1.296875,-0.859375 z M 3.25,-2.390625 v 1 c 0,0.9375 -0.71875,1.28125 -1.171875,1.28125 -0.484375,0 -0.890625,-0.34375 -0.890625,-0.84375 0,-0.546875 0.421875,-1.375 2.0625,-1.4375 z m 0,0"
           id="path7796" />
      </symbol>
      <symbol
         overflow="visible"
         id="symbol3479">
        <path
           style="stroke:none"
           d="M 1.671875,-3.3125 V -4.40625 L 0.28125,-4.296875 v 0.3125 c 0.703125,0 0.78125,0.0625 0.78125,0.5625 V -0.75 c 0,0.4375 -0.109375,0.4375 -0.78125,0.4375 V 0 c 0.390625,-0.015625 0.859375,-0.03125 1.140625,-0.03125 0.390625,0 0.859375,0 1.265625,0.03125 V -0.3125 H 2.46875 c -0.734375,0 -0.75,-0.109375 -0.75,-0.46875 V -2.3125 c 0,-0.984375 0.421875,-1.875 1.171875,-1.875 0.0625,0 0.09375,0 0.109375,0.015625 -0.03125,0 -0.234375,0.125 -0.234375,0.390625 0,0.265625 0.21875,0.421875 0.4375,0.421875 0.171875,0 0.421875,-0.125 0.421875,-0.4375 0,-0.3125 -0.3125,-0.609375 -0.734375,-0.609375 -0.734375,0 -1.09375,0.671875 -1.21875,1.09375 z m 0,0"
           id="path7114" />
      </symbol>
      <symbol
         overflow="visible"
         id="symbol7922">
        <path
           style="stroke:none"
           d="M 1.765625,-4.40625 0.375,-4.296875 v 0.3125 c 0.640625,0 0.734375,0.0625 0.734375,0.546875 V -0.75 c 0,0.4375 -0.109375,0.4375 -0.78125,0.4375 V 0 C 0.640625,-0.015625 1.1875,-0.03125 1.421875,-0.03125 1.78125,-0.03125 2.125,-0.015625 2.46875,0 v -0.3125 c -0.671875,0 -0.703125,-0.046875 -0.703125,-0.4375 z m 0.03125,-1.734375 c 0,-0.3125 -0.234375,-0.53125 -0.515625,-0.53125 -0.3125,0 -0.53125,0.265625 -0.53125,0.53125 0,0.265625 0.21875,0.53125 0.53125,0.53125 0.28125,0 0.515625,-0.21875 0.515625,-0.53125 z m 0,0"
           id="path4521" />
      </symbol>
      <symbol
         overflow="visible"
         id="symbol9975">
        <path
           style="stroke:none"
           d="M 1.109375,-2.515625 C 1.171875,-4 2.015625,-4.25 2.359375,-4.25 c 1.015625,0 1.125,1.34375 1.125,1.734375 z m 0,0.21875 h 2.78125 c 0.21875,0 0.25,0 0.25,-0.21875 0,-0.984375 -0.546875,-1.953125 -1.78125,-1.953125 -1.15625,0 -2.078125,1.03125 -2.078125,2.28125 0,1.328125 1.046875,2.296875 2.1875,2.296875 C 3.6875,0.109375 4.140625,-1 4.140625,-1.1875 4.140625,-1.28125 4.0625,-1.3125 4,-1.3125 c -0.078125,0 -0.109375,0.0625 -0.125,0.140625 -0.34375,1.03125 -1.25,1.03125 -1.34375,1.03125 -0.5,0 -0.890625,-0.296875 -1.125,-0.671875 -0.296875,-0.46875 -0.296875,-1.125 -0.296875,-1.484375 z m 0,0"
           id="path3377" />
      </symbol>
    </g>
    <g
       id="g9049">
      <symbol
         overflow="visible"
         id="symbol9519">
        <path
           style="stroke:none"
           d=""
           id="path6164" />
      </symbol>
      <symbol
         overflow="visible"
         id="symbol6141">
        <path
           style="stroke:none"
           d="m 1.171875,-2.171875 c 0,-1.625 0.8125,-2.046875 1.34375,-2.046875 0.09375,0 0.71875,0.015625 1.0625,0.375 -0.40625,0.03125 -0.46875,0.328125 -0.46875,0.453125 0,0.265625 0.1875,0.453125 0.453125,0.453125 0.265625,0 0.46875,-0.15625 0.46875,-0.46875 0,-0.671875 -0.765625,-1.0625 -1.53125,-1.0625 -1.25,0 -2.15625,1.078125 -2.15625,2.3125 0,1.28125 0.984375,2.265625 2.140625,2.265625 1.328125,0 1.65625,-1.203125 1.65625,-1.296875 0,-0.09375 -0.109375,-0.09375 -0.140625,-0.09375 -0.078125,0 -0.109375,0.03125 -0.125,0.09375 -0.28125,0.921875 -0.9375,1.046875 -1.296875,1.046875 -0.53125,0 -1.40625,-0.421875 -1.40625,-2.03125 z m 0,0"
           id="path3259" />
      </symbol>
      <symbol
         overflow="visible"
         id="symbol1861">
        <path
           style="stroke:none"
           d="M 4.6875,-2.140625 C 4.6875,-3.40625 3.703125,-4.46875 2.5,-4.46875 c -1.25,0 -2.21875,1.09375 -2.21875,2.328125 0,1.296875 1.03125,2.25 2.203125,2.25 1.203125,0 2.203125,-0.984375 2.203125,-2.25 z m -2.1875,2 c -0.4375,0 -0.875,-0.203125 -1.140625,-0.671875 -0.25,-0.4375 -0.25,-1.046875 -0.25,-1.40625 0,-0.390625 0,-0.921875 0.234375,-1.359375 C 1.609375,-4.03125 2.078125,-4.25 2.484375,-4.25 c 0.4375,0 0.859375,0.21875 1.125,0.65625 0.265625,0.421875 0.265625,1 0.265625,1.375 0,0.359375 0,0.90625 -0.21875,1.34375 C 3.421875,-0.421875 2.984375,-0.140625 2.5,-0.140625 Z m 0,0"
           id="path8055" />
      </symbol>
      <symbol
         overflow="visible"
         id="symbol1341">
        <path
           style="stroke:none"
           d="M 1.09375,-3.421875 V -0.75 c 0,0.4375 -0.109375,0.4375 -0.78125,0.4375 V 0 c 0.359375,-0.015625 0.859375,-0.03125 1.140625,-0.03125 0.25,0 0.765625,0.015625 1.109375,0.03125 v -0.3125 c -0.671875,0 -0.78125,0 -0.78125,-0.4375 V -2.59375 C 1.78125,-3.625 2.5,-4.1875 3.125,-4.1875 c 0.640625,0 0.75,0.53125 0.75,1.109375 V -0.75 c 0,0.4375 -0.109375,0.4375 -0.78125,0.4375 V 0 c 0.34375,-0.015625 0.859375,-0.03125 1.125,-0.03125 0.25,0 0.78125,0.015625 1.109375,0.03125 v -0.3125 c -0.65625,0 -0.765625,0 -0.765625,-0.4375 v -1.84375 c 0,-1.03125 0.703125,-1.59375 1.34375,-1.59375 0.625,0 0.734375,0.53125 0.734375,1.109375 V -0.75 c 0,0.4375 -0.109375,0.4375 -0.78125,0.4375 V 0 c 0.34375,-0.015625 0.859375,-0.03125 1.125,-0.03125 0.265625,0 0.78125,0.015625 1.125,0.03125 v -0.3125 c -0.515625,0 -0.765625,0 -0.78125,-0.296875 v -1.90625 c 0,-0.859375 0,-1.15625 -0.3125,-1.515625 -0.140625,-0.171875 -0.46875,-0.375 -1.046875,-0.375 -0.828125,0 -1.28125,0.59375 -1.4375,0.984375 C 4.390625,-4.296875 3.65625,-4.40625 3.203125,-4.40625 2.46875,-4.40625 2,-3.984375 1.71875,-3.359375 V -4.40625 L 0.3125,-4.296875 v 0.3125 c 0.703125,0 0.78125,0.0625 0.78125,0.5625 z m 0,0"
           id="path6423" />
      </symbol>
      <symbol
         overflow="visible"
         id="symbol7762">
        <path
           style="stroke:none"
           d="m 1.71875,-3.75 v -0.65625 l -1.4375,0.109375 v 0.3125 c 0.703125,0 0.78125,0.0625 0.78125,0.5 v 4.65625 C 1.0625,1.625 0.953125,1.625 0.28125,1.625 V 1.9375 C 0.625,1.921875 1.140625,1.90625 1.390625,1.90625 c 0.28125,0 0.78125,0.015625 1.125,0.03125 V 1.625 C 1.859375,1.625 1.75,1.625 1.75,1.171875 V -0.59375 c 0.046875,0.171875 0.46875,0.703125 1.21875,0.703125 1.1875,0 2.21875,-0.984375 2.21875,-2.265625 0,-1.265625 -0.953125,-2.25 -2.078125,-2.25 -0.78125,0 -1.203125,0.4375 -1.390625,0.65625 z M 1.75,-1.140625 v -2.21875 C 2.03125,-3.875 2.515625,-4.15625 3.03125,-4.15625 c 0.734375,0 1.328125,0.875 1.328125,2 0,1.203125 -0.6875,2.046875 -1.421875,2.046875 -0.40625,0 -0.78125,-0.203125 -1.046875,-0.609375 C 1.75,-0.921875 1.75,-0.9375 1.75,-1.140625 Z m 0,0"
           id="path3858" />
      </symbol>
      <symbol
         overflow="visible"
         id="symbol9624">
        <path
           style="stroke:none"
           d="m 3.3125,-0.75 c 0.046875,0.390625 0.3125,0.8125 0.78125,0.8125 0.21875,0 0.828125,-0.140625 0.828125,-0.953125 v -0.5625 h -0.25 v 0.5625 c 0,0.578125 -0.25,0.640625 -0.359375,0.640625 -0.328125,0 -0.375,-0.453125 -0.375,-0.5 v -1.984375 c 0,-0.421875 0,-0.8125 -0.359375,-1.1875 C 3.1875,-4.3125 2.6875,-4.46875 2.21875,-4.46875 c -0.828125,0 -1.515625,0.46875 -1.515625,1.125 0,0.296875 0.203125,0.46875 0.46875,0.46875 0.28125,0 0.453125,-0.203125 0.453125,-0.453125 0,-0.125 -0.046875,-0.453125 -0.515625,-0.453125 C 1.390625,-4.140625 1.875,-4.25 2.1875,-4.25 c 0.5,0 1.0625,0.390625 1.0625,1.28125 v 0.359375 c -0.515625,0.03125 -1.203125,0.0625 -1.828125,0.359375 -0.75,0.34375 -1,0.859375 -1,1.296875 0,0.8125 0.96875,1.0625 1.59375,1.0625 0.65625,0 1.109375,-0.40625 1.296875,-0.859375 z M 3.25,-2.390625 v 1 c 0,0.9375 -0.71875,1.28125 -1.171875,1.28125 -0.484375,0 -0.890625,-0.34375 -0.890625,-0.84375 0,-0.546875 0.421875,-1.375 2.0625,-1.4375 z m 0,0"
           id="path640" />
      </symbol>
      <symbol
         overflow="visible"
         id="symbol8944">
        <path
           style="stroke:none"
           d="M 1.671875,-3.3125 V -4.40625 L 0.28125,-4.296875 v 0.3125 c 0.703125,0 0.78125,0.0625 0.78125,0.5625 V -0.75 c 0,0.4375 -0.109375,0.4375 -0.78125,0.4375 V 0 c 0.390625,-0.015625 0.859375,-0.03125 1.140625,-0.03125 0.390625,0 0.859375,0 1.265625,0.03125 V -0.3125 H 2.46875 c -0.734375,0 -0.75,-0.109375 -0.75,-0.46875 V -2.3125 c 0,-0.984375 0.421875,-1.875 1.171875,-1.875 0.0625,0 0.09375,0 0.109375,0.015625 -0.03125,0 -0.234375,0.125 -0.234375,0.390625 0,0.265625 0.21875,0.421875 0.4375,0.421875 0.171875,0 0.421875,-0.125 0.421875,-0.4375 0,-0.3125 -0.3125,-0.609375 -0.734375,-0.609375 -0.734375,0 -1.09375,0.671875 -1.21875,1.09375 z m 0,0"
           id="path4284" />
      </symbol>
      <symbol
         overflow="visible"
         id="symbol5781">
        <path
           style="stroke:none"
           d="M 1.765625,-4.40625 0.375,-4.296875 v 0.3125 c 0.640625,0 0.734375,0.0625 0.734375,0.546875 V -0.75 c 0,0.4375 -0.109375,0.4375 -0.78125,0.4375 V 0 C 0.640625,-0.015625 1.1875,-0.03125 1.421875,-0.03125 1.78125,-0.03125 2.125,-0.015625 2.46875,0 v -0.3125 c -0.671875,0 -0.703125,-0.046875 -0.703125,-0.4375 z m 0.03125,-1.734375 c 0,-0.3125 -0.234375,-0.53125 -0.515625,-0.53125 -0.3125,0 -0.53125,0.265625 -0.53125,0.53125 0,0.265625 0.21875,0.53125 0.53125,0.53125 0.28125,0 0.515625,-0.21875 0.515625,-0.53125 z m 0,0"
           id="path3597" />
      </symbol>
      <symbol
         overflow="visible"
         id="symbol3009">
        <path
           style="stroke:none"
           d="m 2.078125,-1.9375 c 0.21875,0.046875 1.03125,0.203125 1.03125,0.921875 0,0.5 -0.34375,0.90625 -1.125,0.90625 -0.84375,0 -1.203125,-0.5625 -1.390625,-1.421875 C 0.5625,-1.65625 0.5625,-1.6875 0.453125,-1.6875 c -0.125,0 -0.125,0.0625 -0.125,0.234375 V -0.125 c 0,0.171875 0,0.234375 0.109375,0.234375 0.046875,0 0.0625,-0.015625 0.25,-0.203125 0.015625,-0.015625 0.015625,-0.03125 0.203125,-0.21875 0.4375,0.40625 0.890625,0.421875 1.09375,0.421875 1.140625,0 1.609375,-0.671875 1.609375,-1.390625 0,-0.515625 -0.296875,-0.828125 -0.421875,-0.9375 C 2.84375,-2.546875 2.453125,-2.625 2.03125,-2.703125 1.46875,-2.8125 0.8125,-2.9375 0.8125,-3.515625 c 0,-0.359375 0.25,-0.765625 1.109375,-0.765625 1.09375,0 1.15625,0.90625 1.171875,1.203125 0,0.09375 0.09375,0.09375 0.109375,0.09375 0.140625,0 0.140625,-0.046875 0.140625,-0.234375 v -1.015625 c 0,-0.15625 0,-0.234375 -0.109375,-0.234375 -0.046875,0 -0.078125,0 -0.203125,0.125 -0.03125,0.03125 -0.125,0.125 -0.171875,0.15625 -0.375,-0.28125 -0.78125,-0.28125 -0.9375,-0.28125 -1.21875,0 -1.59375,0.671875 -1.59375,1.234375 0,0.34375 0.15625,0.625 0.421875,0.84375 0.328125,0.25 0.609375,0.3125 1.328125,0.453125 z m 0,0"
           id="path6228" />
      </symbol>
      <symbol
         overflow="visible"
         id="symbol2925">
        <path
           style="stroke:none"
           d="M 1.09375,-3.421875 V -0.75 c 0,0.4375 -0.109375,0.4375 -0.78125,0.4375 V 0 c 0.359375,-0.015625 0.859375,-0.03125 1.140625,-0.03125 0.25,0 0.765625,0.015625 1.109375,0.03125 v -0.3125 c -0.671875,0 -0.78125,0 -0.78125,-0.4375 V -2.59375 C 1.78125,-3.625 2.5,-4.1875 3.125,-4.1875 c 0.640625,0 0.75,0.53125 0.75,1.109375 V -0.75 c 0,0.4375 -0.109375,0.4375 -0.78125,0.4375 V 0 c 0.34375,-0.015625 0.859375,-0.03125 1.125,-0.03125 0.25,0 0.78125,0.015625 1.109375,0.03125 v -0.3125 c -0.515625,0 -0.765625,0 -0.765625,-0.296875 v -1.90625 c 0,-0.859375 0,-1.15625 -0.3125,-1.515625 -0.140625,-0.171875 -0.46875,-0.375 -1.046875,-0.375 C 2.46875,-4.40625 2,-3.984375 1.71875,-3.359375 V -4.40625 L 0.3125,-4.296875 v 0.3125 c 0.703125,0 0.78125,0.0625 0.78125,0.5625 z m 0,0"
           id="path3329" />
      </symbol>
    </g>
    <g
       id="g2385">
      <symbol
         overflow="visible"
         id="symbol6969">
        <path
           style="stroke:none"
           d=""
           id="path4933" />
      </symbol>
      <symbol
         overflow="visible"
         id="symbol4465">
        <path
           style="stroke:none"
           d="m 5.140625,-6.8125 c 0,0 0,-0.109375 -0.125,-0.109375 -0.15625,0 -1.09375,0.09375 -1.265625,0.109375 -0.078125,0.015625 -0.140625,0.0625 -0.140625,0.1875 0,0.125 0.09375,0.125 0.234375,0.125 0.484375,0 0.5,0.0625 0.5,0.171875 L 4.3125,-6.125 3.71875,-3.765625 C 3.53125,-4.140625 3.25,-4.40625 2.796875,-4.40625 c -1.15625,0 -2.390625,1.46875 -2.390625,2.921875 0,0.9375 0.546875,1.59375 1.3125,1.59375 0.203125,0 0.703125,-0.046875 1.296875,-0.75 0.078125,0.421875 0.4375,0.75 0.90625,0.75 0.359375,0 0.578125,-0.234375 0.75,-0.546875 0.15625,-0.359375 0.296875,-0.96875 0.296875,-0.984375 0,-0.109375 -0.09375,-0.109375 -0.125,-0.109375 -0.09375,0 -0.109375,0.046875 -0.140625,0.1875 -0.171875,0.640625 -0.34375,1.234375 -0.75,1.234375 -0.28125,0 -0.296875,-0.265625 -0.296875,-0.453125 0,-0.25 0.015625,-0.3125 0.046875,-0.484375 z m -2.0625,5.625 C 3.015625,-1 3.015625,-0.984375 2.875,-0.8125 2.4375,-0.265625 2.03125,-0.109375 1.75,-0.109375 c -0.5,0 -0.640625,-0.546875 -0.640625,-0.9375 0,-0.5 0.3125,-1.71875 0.546875,-2.1875 0.3125,-0.578125 0.75,-0.953125 1.15625,-0.953125 0.640625,0 0.78125,0.8125 0.78125,0.875 0,0.0625 -0.015625,0.125 -0.03125,0.171875 z m 0,0"
           id="path5074" />
      </symbol>
      <symbol
         overflow="visible"
         id="symbol4404">
        <path
           style="stroke:none"
           d=""
           id="path1500" />
      </symbol>
      <symbol
         overflow="visible"
         id="symbol9493">
        <path
           style="stroke:none"
           d="m 3.109375,-1.875 c 0,-0.359375 0,-0.625 -0.328125,-0.890625 C 2.5,-3 2.171875,-3.109375 1.75,-3.109375 c -0.65625,0 -1.125,0.25 -1.125,0.671875 0,0.234375 0.15625,0.34375 0.34375,0.34375 0.1875,0 0.328125,-0.140625 0.328125,-0.328125 0,-0.109375 -0.0625,-0.265625 -0.25,-0.3125 0.25,-0.171875 0.65625,-0.171875 0.6875,-0.171875 0.390625,0 0.828125,0.25 0.828125,0.84375 v 0.203125 C 2.171875,-1.84375 1.71875,-1.8125 1.203125,-1.625 c -0.625,0.21875 -0.8125,0.609375 -0.8125,0.921875 0,0.59375 0.71875,0.765625 1.21875,0.765625 0.546875,0 0.875,-0.3125 1.03125,-0.578125 0.015625,0.28125 0.203125,0.546875 0.53125,0.546875 0.015625,0 0.6875,0 0.6875,-0.65625 V -1.015625 H 3.625 v 0.375 c 0,0.078125 0,0.40625 -0.265625,0.40625 -0.25,0 -0.25,-0.328125 -0.25,-0.40625 z M 2.5625,-0.984375 c 0,0.671875 -0.59375,0.859375 -0.90625,0.859375 -0.359375,0 -0.6875,-0.234375 -0.6875,-0.578125 0,-0.390625 0.328125,-0.921875 1.59375,-0.96875 z m 0,0"
           id="path1195" />
      </symbol>
    </g>
    <g
       id="g4772">
      <symbol
         overflow="visible"
         id="symbol2173">
        <path
           style="stroke:none"
           d=""
           id="path9885" />
      </symbol>
      <symbol
         overflow="visible"
         id="symbol8877">
        <path
           style="stroke:none"
           d="m 5.140625,-6.8125 c 0,0 0,-0.109375 -0.125,-0.109375 -0.15625,0 -1.09375,0.09375 -1.265625,0.109375 -0.078125,0.015625 -0.140625,0.0625 -0.140625,0.1875 0,0.125 0.09375,0.125 0.234375,0.125 0.484375,0 0.5,0.0625 0.5,0.171875 L 4.3125,-6.125 3.71875,-3.765625 C 3.53125,-4.140625 3.25,-4.40625 2.796875,-4.40625 c -1.15625,0 -2.390625,1.46875 -2.390625,2.921875 0,0.9375 0.546875,1.59375 1.3125,1.59375 0.203125,0 0.703125,-0.046875 1.296875,-0.75 0.078125,0.421875 0.4375,0.75 0.90625,0.75 0.359375,0 0.578125,-0.234375 0.75,-0.546875 0.15625,-0.359375 0.296875,-0.96875 0.296875,-0.984375 0,-0.109375 -0.09375,-0.109375 -0.125,-0.109375 -0.09375,0 -0.109375,0.046875 -0.140625,0.1875 -0.171875,0.640625 -0.34375,1.234375 -0.75,1.234375 -0.28125,0 -0.296875,-0.265625 -0.296875,-0.453125 0,-0.25 0.015625,-0.3125 0.046875,-0.484375 z m -2.0625,5.625 C 3.015625,-1 3.015625,-0.984375 2.875,-0.8125 2.4375,-0.265625 2.03125,-0.109375 1.75,-0.109375 c -0.5,0 -0.640625,-0.546875 -0.640625,-0.9375 0,-0.5 0.3125,-1.71875 0.546875,-2.1875 0.3125,-0.578125 0.75,-0.953125 1.15625,-0.953125 0.640625,0 0.78125,0.8125 0.78125,0.875 0,0.0625 -0.015625,0.125 -0.03125,0.171875 z m 0,0"
           id="path6676" />
      </symbol>
      <symbol
         overflow="visible"
         id="symbol8703">
        <path
           style="stroke:none"
           d=""
           id="path5765" />
      </symbol>
      <symbol
         overflow="visible"
         id="symbol1584">
        <path
           style="stroke:none"
           d="M 1.390625,-4.84375 0.34375,-4.765625 v 0.25 c 0.46875,0 0.515625,0.0625 0.515625,0.40625 V 0 H 1.09375 l 0.25,-0.421875 C 1.609375,-0.078125 2,0.0625 2.359375,0.0625 3.28125,0.0625 4.0625,-0.625 4.0625,-1.5 c 0,-0.859375 -0.703125,-1.578125 -1.625,-1.578125 -0.421875,0 -0.796875,0.171875 -1.046875,0.421875 z m 0.03125,2.515625 C 1.609375,-2.65625 1.984375,-2.875 2.40625,-2.875 c 0.390625,0 0.671875,0.21875 0.8125,0.421875 0.140625,0.203125 0.21875,0.484375 0.21875,0.9375 0,0.15625 0,0.6875 -0.28125,1.015625 -0.28125,0.3125 -0.625,0.375 -0.828125,0.375 -0.5625,0 -0.84375,-0.4375 -0.90625,-0.578125 z m 0,0"
           id="path1832" />
      </symbol>
    </g>
    <g
       id="g9365">
      <symbol
         overflow="visible"
         id="symbol5488">
        <path
           style="stroke:none"
           d=""
           id="path7381" />
      </symbol>
      <symbol
         overflow="visible"
         id="symbol2465">
        <path
           style="stroke:none"
           d="m 5.140625,-6.8125 c 0,0 0,-0.109375 -0.125,-0.109375 -0.15625,0 -1.09375,0.09375 -1.265625,0.109375 -0.078125,0.015625 -0.140625,0.0625 -0.140625,0.1875 0,0.125 0.09375,0.125 0.234375,0.125 0.484375,0 0.5,0.0625 0.5,0.171875 L 4.3125,-6.125 3.71875,-3.765625 C 3.53125,-4.140625 3.25,-4.40625 2.796875,-4.40625 c -1.15625,0 -2.390625,1.46875 -2.390625,2.921875 0,0.9375 0.546875,1.59375 1.3125,1.59375 0.203125,0 0.703125,-0.046875 1.296875,-0.75 0.078125,0.421875 0.4375,0.75 0.90625,0.75 0.359375,0 0.578125,-0.234375 0.75,-0.546875 0.15625,-0.359375 0.296875,-0.96875 0.296875,-0.984375 0,-0.109375 -0.09375,-0.109375 -0.125,-0.109375 -0.09375,0 -0.109375,0.046875 -0.140625,0.1875 -0.171875,0.640625 -0.34375,1.234375 -0.75,1.234375 -0.28125,0 -0.296875,-0.265625 -0.296875,-0.453125 0,-0.25 0.015625,-0.3125 0.046875,-0.484375 z m -2.0625,5.625 C 3.015625,-1 3.015625,-0.984375 2.875,-0.8125 2.4375,-0.265625 2.03125,-0.109375 1.75,-0.109375 c -0.5,0 -0.640625,-0.546875 -0.640625,-0.9375 0,-0.5 0.3125,-1.71875 0.546875,-2.1875 0.3125,-0.578125 0.75,-0.953125 1.15625,-0.953125 0.640625,0 0.78125,0.8125 0.78125,0.875 0,0.0625 -0.015625,0.125 -0.03125,0.171875 z m 0,0"
           id="path458" />
      </symbol>
      <symbol
         overflow="visible"
         id="symbol2162">
        <path
           style="stroke:none"
           d=""
           id="path4083" />
      </symbol>
      <symbol
         overflow="visible"
         id="symbol4569">
        <path
           style="stroke:none"
           d="m 2.703125,-2.78125 c -0.125,0.0625 -0.1875,0.171875 -0.1875,0.3125 0,0.1875 0.125,0.328125 0.328125,0.328125 0.1875,0 0.328125,-0.125 0.328125,-0.34375 0,-0.625 -0.96875,-0.625 -1.15625,-0.625 -1.046875,0 -1.6875,0.796875 -1.6875,1.609375 0,0.875 0.734375,1.5625 1.65625,1.5625 1.03125,0 1.28125,-0.8125 1.28125,-0.90625 0,-0.078125 -0.09375,-0.078125 -0.125,-0.078125 -0.09375,0 -0.09375,0.015625 -0.125,0.125 C 2.859375,-0.375 2.484375,-0.15625 2.0625,-0.15625 c -0.484375,0 -1.109375,-0.359375 -1.109375,-1.359375 0,-0.875 0.4375,-1.375 1.078125,-1.375 0.09375,0 0.421875,0 0.671875,0.109375 z m 0,0"
           id="path1128" />
      </symbol>
    </g>
    <g
       id="g2276">
      <symbol
         overflow="visible"
         id="symbol1086">
        <path
           style="stroke:none"
           d=""
           id="path3275" />
      </symbol>
      <symbol
         overflow="visible"
         id="symbol5986">
        <path
           style="stroke:none"
           d="m 4.5,-4.296875 c 0,-0.046875 -0.03125,-0.09375 -0.09375,-0.09375 -0.109375,0 -0.515625,0.390625 -0.671875,0.6875 C 3.515625,-4.25 3.125,-4.40625 2.796875,-4.40625 c -1.171875,0 -2.390625,1.46875 -2.390625,2.921875 0,0.96875 0.578125,1.59375 1.3125,1.59375 0.421875,0 0.8125,-0.234375 1.171875,-0.59375 -0.09375,0.34375 -0.421875,1.6875 -0.453125,1.78125 -0.078125,0.28125 -0.15625,0.3125 -0.71875,0.328125 -0.125,0 -0.21875,0 -0.21875,0.203125 0,0 0,0.109375 0.125,0.109375 0.3125,0 0.671875,-0.03125 1,-0.03125 0.328125,0 0.6875,0.03125 1.03125,0.03125 0.046875,0 0.171875,0 0.171875,-0.203125 C 3.828125,1.625 3.734375,1.625 3.5625,1.625 3.09375,1.625 3.09375,1.5625 3.09375,1.46875 3.09375,1.390625 3.109375,1.328125 3.125,1.25 Z m -2.75,4.1875 c -0.609375,0 -0.640625,-0.765625 -0.640625,-0.9375 0,-0.484375 0.28125,-1.5625 0.453125,-1.984375 0.3125,-0.734375 0.828125,-1.15625 1.234375,-1.15625 0.65625,0 0.796875,0.8125 0.796875,0.875 0,0.0625 -0.546875,2.25 -0.578125,2.28125 C 2.859375,-0.75 2.296875,-0.109375 1.75,-0.109375 Z m 0,0"
           id="path7647" />
      </symbol>
      <symbol
         overflow="visible"
         id="symbol4363">
        <path
           style="stroke:none"
           d=""
           id="path4657" />
      </symbol>
      <symbol
         overflow="visible"
         id="symbol8474">
        <path
           style="stroke:none"
           d="m 2.703125,-2.78125 c -0.125,0.0625 -0.1875,0.171875 -0.1875,0.3125 0,0.1875 0.125,0.328125 0.328125,0.328125 0.1875,0 0.328125,-0.125 0.328125,-0.34375 0,-0.625 -0.96875,-0.625 -1.15625,-0.625 -1.046875,0 -1.6875,0.796875 -1.6875,1.609375 0,0.875 0.734375,1.5625 1.65625,1.5625 1.03125,0 1.28125,-0.8125 1.28125,-0.90625 0,-0.078125 -0.09375,-0.078125 -0.125,-0.078125 -0.09375,0 -0.09375,0.015625 -0.125,0.125 C 2.859375,-0.375 2.484375,-0.15625 2.0625,-0.15625 c -0.484375,0 -1.109375,-0.359375 -1.109375,-1.359375 0,-0.875 0.4375,-1.375 1.078125,-1.375 0.09375,0 0.421875,0 0.671875,0.109375 z m 0,0"
           id="path8477" />
      </symbol>
    </g>
    <g
       id="g9551">
      <symbol
         overflow="visible"
         id="symbol2752">
        <path
           style="stroke:none"
           d=""
           id="path9684" />
      </symbol>
      <symbol
         overflow="visible"
         id="symbol7012">
        <path
           style="stroke:none"
           d="m 4.5,-4.296875 c 0,-0.046875 -0.03125,-0.09375 -0.09375,-0.09375 -0.109375,0 -0.515625,0.390625 -0.671875,0.6875 C 3.515625,-4.25 3.125,-4.40625 2.796875,-4.40625 c -1.171875,0 -2.390625,1.46875 -2.390625,2.921875 0,0.96875 0.578125,1.59375 1.3125,1.59375 0.421875,0 0.8125,-0.234375 1.171875,-0.59375 -0.09375,0.34375 -0.421875,1.6875 -0.453125,1.78125 -0.078125,0.28125 -0.15625,0.3125 -0.71875,0.328125 -0.125,0 -0.21875,0 -0.21875,0.203125 0,0 0,0.109375 0.125,0.109375 0.3125,0 0.671875,-0.03125 1,-0.03125 0.328125,0 0.6875,0.03125 1.03125,0.03125 0.046875,0 0.171875,0 0.171875,-0.203125 C 3.828125,1.625 3.734375,1.625 3.5625,1.625 3.09375,1.625 3.09375,1.5625 3.09375,1.46875 3.09375,1.390625 3.109375,1.328125 3.125,1.25 Z m -2.75,4.1875 c -0.609375,0 -0.640625,-0.765625 -0.640625,-0.9375 0,-0.484375 0.28125,-1.5625 0.453125,-1.984375 0.3125,-0.734375 0.828125,-1.15625 1.234375,-1.15625 0.65625,0 0.796875,0.8125 0.796875,0.875 0,0.0625 -0.546875,2.25 -0.578125,2.28125 C 2.859375,-0.75 2.296875,-0.109375 1.75,-0.109375 Z m 0,0"
           id="path6198" />
      </symbol>
      <symbol
         overflow="visible"
         id="symbol8920">
        <path
           style="stroke:none"
           d=""
           id="path7194" />
      </symbol>
      <symbol
         overflow="visible"
         id="symbol7416">
        <path
           style="stroke:none"
           d="M 1.390625,-4.84375 0.34375,-4.765625 v 0.25 c 0.46875,0 0.515625,0.0625 0.515625,0.40625 V 0 H 1.09375 l 0.25,-0.421875 C 1.609375,-0.078125 2,0.0625 2.359375,0.0625 3.28125,0.0625 4.0625,-0.625 4.0625,-1.5 c 0,-0.859375 -0.703125,-1.578125 -1.625,-1.578125 -0.421875,0 -0.796875,0.171875 -1.046875,0.421875 z m 0.03125,2.515625 C 1.609375,-2.65625 1.984375,-2.875 2.40625,-2.875 c 0.390625,0 0.671875,0.21875 0.8125,0.421875 0.140625,0.203125 0.21875,0.484375 0.21875,0.9375 0,0.15625 0,0.6875 -0.28125,1.015625 -0.28125,0.3125 -0.625,0.375 -0.828125,0.375 -0.5625,0 -0.84375,-0.4375 -0.90625,-0.578125 z m 0,0"
           id="path8979" />
      </symbol>
    </g>
    <g
       id="g3107">
      <symbol
         overflow="visible"
         id="symbol4212">
        <path
           style="stroke:none"
           d=""
           id="path1685" />
      </symbol>
      <symbol
         overflow="visible"
         id="symbol2631">
        <path
           style="stroke:none"
           d="m 4.5,-4.296875 c 0,-0.046875 -0.03125,-0.09375 -0.09375,-0.09375 -0.109375,0 -0.515625,0.390625 -0.671875,0.6875 C 3.515625,-4.25 3.125,-4.40625 2.796875,-4.40625 c -1.171875,0 -2.390625,1.46875 -2.390625,2.921875 0,0.96875 0.578125,1.59375 1.3125,1.59375 0.421875,0 0.8125,-0.234375 1.171875,-0.59375 -0.09375,0.34375 -0.421875,1.6875 -0.453125,1.78125 -0.078125,0.28125 -0.15625,0.3125 -0.71875,0.328125 -0.125,0 -0.21875,0 -0.21875,0.203125 0,0 0,0.109375 0.125,0.109375 0.3125,0 0.671875,-0.03125 1,-0.03125 0.328125,0 0.6875,0.03125 1.03125,0.03125 0.046875,0 0.171875,0 0.171875,-0.203125 C 3.828125,1.625 3.734375,1.625 3.5625,1.625 3.09375,1.625 3.09375,1.5625 3.09375,1.46875 3.09375,1.390625 3.109375,1.328125 3.125,1.25 Z m -2.75,4.1875 c -0.609375,0 -0.640625,-0.765625 -0.640625,-0.9375 0,-0.484375 0.28125,-1.5625 0.453125,-1.984375 0.3125,-0.734375 0.828125,-1.15625 1.234375,-1.15625 0.65625,0 0.796875,0.8125 0.796875,0.875 0,0.0625 -0.546875,2.25 -0.578125,2.28125 C 2.859375,-0.75 2.296875,-0.109375 1.75,-0.109375 Z m 0,0"
           id="path2118" />
      </symbol>
      <symbol
         overflow="visible"
         id="symbol4603">
        <path
           style="stroke:none"
           d=""
           id="path7656" />
      </symbol>
      <symbol
         overflow="visible"
         id="symbol7407">
        <path
           style="stroke:none"
           d="m 3.109375,-1.875 c 0,-0.359375 0,-0.625 -0.328125,-0.890625 C 2.5,-3 2.171875,-3.109375 1.75,-3.109375 c -0.65625,0 -1.125,0.25 -1.125,0.671875 0,0.234375 0.15625,0.34375 0.34375,0.34375 0.1875,0 0.328125,-0.140625 0.328125,-0.328125 0,-0.109375 -0.0625,-0.265625 -0.25,-0.3125 0.25,-0.171875 0.65625,-0.171875 0.6875,-0.171875 0.390625,0 0.828125,0.25 0.828125,0.84375 v 0.203125 C 2.171875,-1.84375 1.71875,-1.8125 1.203125,-1.625 c -0.625,0.21875 -0.8125,0.609375 -0.8125,0.921875 0,0.59375 0.71875,0.765625 1.21875,0.765625 0.546875,0 0.875,-0.3125 1.03125,-0.578125 0.015625,0.28125 0.203125,0.546875 0.53125,0.546875 0.015625,0 0.6875,0 0.6875,-0.65625 V -1.015625 H 3.625 v 0.375 c 0,0.078125 0,0.40625 -0.265625,0.40625 -0.25,0 -0.25,-0.328125 -0.25,-0.40625 z M 2.5625,-0.984375 c 0,0.671875 -0.59375,0.859375 -0.90625,0.859375 -0.359375,0 -0.6875,-0.234375 -0.6875,-0.578125 0,-0.390625 0.328125,-0.921875 1.59375,-0.96875 z m 0,0"
           id="path524" />
      </symbol>
    </g>
    <marker
       style="overflow:visible"
       id="Arrow2Mstart-9-7"
       orient="auto"
       refY="0"
       inkscape:stockid="Arrow2Mstart"
       refX="0">
      <path
         style="font-size:12px;fill-rule:evenodd;stroke-width:0.625;stroke-linejoin:round"
         transform="scale(0.6)"
         d="M 8.7185878,4.0337352 -2.2072895,0.01601326 8.7185884,-4.0017078 c -1.7454984,2.3720609 -1.7354408,5.6174519 -6e-7,8.035443 z"
         id="path21014-9-0" />
    </marker>
  </defs>
  <metadata
     id="metadata3475">
    <rdf:RDF>
      <cc:Work
         rdf:about="">
        <dc:format>image/svg+xml</dc:format>
        <dc:type
           rdf:resource="http://purl.org/dc/dcmitype/StillImage" />
        <dc:title />
      </cc:Work>
    </rdf:RDF>
  </metadata>
  <g
     transform="translate(-209.835,-444.65454)"
     inkscape:groupmode="layer"
     id="layer1"
     style="display:inline"
     inkscape:label="Circuit" />
  <g
     inkscape:groupmode="layer"
     id="layer2"
     style="display:inline;opacity:1"
     inkscape:label="Labels"
     transform="translate(-30,-115)">
    <path
       inkscape:connector-curvature="0"
       inkscape:export-ydpi="300"
       inkscape:export-xdpi="300"
       inkscape:export-filename="/home/mhinkkan/Desktop/testi.png"
       sodipodi:nodetypes="cc"
       id="path6341"
       d="M 257.5,275 V 260"
       style="display:inline;fill:none;stroke:#000000;stroke-width:0.7;stroke-linecap:butt;stroke-linejoin:miter;stroke-miterlimit:4;stroke-dasharray:none;stroke-opacity:1;marker-start:none;marker-mid:none;marker-end:url(#Arrow2Mend-3)" />
    <path
       inkscape:connector-curvature="0"
       inkscape:export-ydpi="300"
       inkscape:export-xdpi="300"
       inkscape:export-filename="/home/mhinkkan/Desktop/testi.png"
       sodipodi:nodetypes="cc"
       id="path6343"
       d="M 292.5,275 V 260"
       style="display:inline;fill:none;stroke:#000000;stroke-width:0.7;stroke-linecap:butt;stroke-linejoin:miter;stroke-miterlimit:4;stroke-dasharray:none;stroke-opacity:1;marker-start:none;marker-mid:none;marker-end:url(#Arrow2Mend-3)" />
    <path
       inkscape:connector-curvature="0"
       inkscape:export-ydpi="300"
       inkscape:export-xdpi="300"
       inkscape:export-filename="/home/mhinkkan/Desktop/testi.png"
       sodipodi:nodetypes="cc"
       id="path3451"
       d="M 222.5,275 V 260"
       style="display:inline;fill:none;stroke:#000000;stroke-width:0.7;stroke-linecap:butt;stroke-linejoin:miter;stroke-miterlimit:4;stroke-dasharray:none;stroke-opacity:1;marker-start:none;marker-mid:none;marker-end:url(#Arrow2Mend-3)" />
    <rect
       transform="rotate(90)"
       y="-297.5"
       x="230"
       height="80"
       width="30"
       id="rect5876"
       style="display:inline;fill:#ffffff;fill-opacity:1;fill-rule:nonzero;stroke:#000000;stroke-width:1;stroke-linecap:butt;stroke-linejoin:miter;stroke-miterlimit:10;stroke-dasharray:none;stroke-dashoffset:0;stroke-opacity:1" />
    <rect
       style="fill:#e0e0e0;fill-opacity:1;fill-rule:nonzero;stroke:none"
       id="rect4128"
       width="65"
       height="75"
       x="325"
       y="130" />
    <path
       inkscape:connector-curvature="0"
       inkscape:export-ydpi="300"
       inkscape:export-xdpi="300"
       inkscape:export-filename="/home/mhinkkan/Desktop/testi.png"
       sodipodi:nodetypes="cc"
       id="path3907"
       d="m 315,170 h 20"
       style="display:inline;fill:none;stroke:#000000;stroke-width:1px;stroke-linecap:square;stroke-linejoin:miter;stroke-opacity:1;marker-start:none;marker-mid:none;marker-end:none" />
    <path
       style="display:inline;fill:none;stroke:#000000;stroke-width:1px;stroke-linecap:square;stroke-linejoin:miter;stroke-opacity:1;marker-start:none;marker-mid:none;marker-end:none"
       d="m 315,145 h 20"
       id="path3905"
       sodipodi:nodetypes="cc"
       inkscape:export-filename="/home/mhinkkan/Desktop/testi.png"
       inkscape:export-xdpi="300"
       inkscape:export-ydpi="300"
       inkscape:connector-curvature="0" />
    <path
       inkscape:connector-curvature="0"
       inkscape:export-ydpi="300"
       inkscape:export-xdpi="300"
       inkscape:export-filename="/home/mhinkkan/Desktop/testi.png"
       sodipodi:nodetypes="cc"
       id="path3903"
       d="m 315,195 h 20"
       style="display:inline;fill:none;stroke:#000000;stroke-width:1px;stroke-linecap:square;stroke-linejoin:miter;stroke-opacity:1;marker-start:none;marker-mid:none;marker-end:none" />
    <path
       id="path3096"
       sodipodi:nodetypes="cccc"
       d="m 365,145 c 0,-7 -10,-7 -10,0 0,-7 -10,-7 -10,0 0,-7 -10,-7 -10,0"
       style="font-style:normal;font-variant:normal;font-weight:normal;font-stretch:normal;font-size:12px;line-height:125%;font-family:'Bitstream Vera Sans';text-align:start;writing-mode:lr-tb;text-anchor:start;display:inline;fill:none;stroke:#000000;stroke-width:1;stroke-linecap:round;stroke-linejoin:round;stroke-miterlimit:4;stroke-dasharray:none;stroke-opacity:1"
       inkscape:connector-curvature="0" />
    <path
       inkscape:connector-curvature="0"
       style="font-style:normal;font-variant:normal;font-weight:normal;font-stretch:normal;font-size:12px;line-height:125%;font-family:'Bitstream Vera Sans';text-align:start;writing-mode:lr-tb;text-anchor:start;display:inline;fill:none;stroke:#000000;stroke-width:1;stroke-linecap:round;stroke-linejoin:round;stroke-miterlimit:4;stroke-dasharray:none;stroke-opacity:1"
       d="m 365,170 c 0,-7 -10,-7 -10,0 0,-7 -10,-7 -10,0 0,-7 -10,-7 -10,0"
       sodipodi:nodetypes="cccc"
       id="path3093" />
    <path
       id="path3095"
       sodipodi:nodetypes="cccc"
       d="m 365,195 c 0,-7 -10,-7 -10,0 0,-7 -10,-7 -10,0 0,-7 -10,-7 -10,0"
       style="font-style:normal;font-variant:normal;font-weight:normal;font-stretch:normal;font-size:12px;line-height:125%;font-family:'Bitstream Vera Sans';text-align:start;writing-mode:lr-tb;text-anchor:start;display:inline;fill:none;stroke:#000000;stroke-width:1;stroke-linecap:round;stroke-linejoin:round;stroke-miterlimit:4;stroke-dasharray:none;stroke-opacity:1"
       inkscape:connector-curvature="0" />
    <path
       style="display:inline;fill:none;stroke:#000000;stroke-width:1px;stroke-linecap:square;stroke-linejoin:miter;stroke-opacity:1;marker-start:none;marker-mid:none;marker-end:none"
       d="M 375,195 V 145"
       id="path3097"
       sodipodi:nodetypes="cc"
       inkscape:export-filename="/home/mhinkkan/Desktop/testi.png"
       inkscape:export-xdpi="300"
       inkscape:export-ydpi="300"
       inkscape:connector-curvature="0" />
    <path
       inkscape:connector-curvature="0"
       style="display:inline;fill:none;stroke:#000000;stroke-width:1px;stroke-linecap:round;stroke-linejoin:miter;stroke-opacity:1;marker-start:url(#marker19838-5-6)"
       d="M 375,170 H 365"
       sodipodi:nodetypes="cc"
       id="path3099" />
    <path
       inkscape:connector-curvature="0"
       inkscape:export-ydpi="300"
       inkscape:export-xdpi="300"
       inkscape:export-filename="/home/mhinkkan/Desktop/testi.png"
       sodipodi:nodetypes="cc"
       id="path3899"
       d="m 365,145 h 10"
       style="display:inline;fill:none;stroke:#000000;stroke-width:1px;stroke-linecap:square;stroke-linejoin:miter;stroke-opacity:1;marker-start:none;marker-mid:none;marker-end:none" />
    <path
       style="display:inline;fill:none;stroke:#000000;stroke-width:1px;stroke-linecap:square;stroke-linejoin:miter;stroke-opacity:1;marker-start:none;marker-mid:none;marker-end:none"
       d="m 365,195 h 10"
       id="path3901"
       sodipodi:nodetypes="cc"
       inkscape:export-filename="/home/mhinkkan/Desktop/testi.png"
       inkscape:export-xdpi="300"
       inkscape:export-ydpi="300"
       inkscape:connector-curvature="0" />
    <g
       transform="translate(60.78574,-218.71623)"
       id="layer1-7"
       style="display:inline"
       inkscape:label="Circuit" />
    <g
       inkscape:label="Circuit"
       style="display:inline"
       id="layer1-47"
       transform="translate(-30.85972,-237.79024)" />
    <g
       transform="translate(359.14028,-162.79024)"
       id="layer1-0"
       style="display:inline"
       inkscape:label="Circuit" />
    <g
       inkscape:label="Circuit"
       style="display:inline"
       id="layer1-5"
       transform="translate(139.14028,57.209758)" />
    <g
       transform="translate(11.64029,-127.79026)"
       id="layer1-4"
       style="display:inline"
       inkscape:label="Circuit" />
    <g
       inkscape:label="Circuit"
       style="display:inline"
       id="layer1-3"
       transform="translate(319.14028,-167.79024)" />
    <g
       inkscape:label="Circuit"
       style="display:inline"
       id="layer1-4-8"
       transform="translate(214.14029,-110.29026)" />
    <g
       transform="translate(-87.335,-193.15454)"
       id="layer1-9"
       style="display:inline"
       inkscape:label="Circuit" />
    <path
       inkscape:connector-curvature="0"
       inkscape:export-ydpi="300"
       inkscape:export-xdpi="300"
       inkscape:export-filename="/home/mhinkkan/Desktop/testi.png"
       id="path10918-9-9-0-0-8-9-9"
       sodipodi:nodetypes="cc"
       d="m 250,177.88667 v 32.5"
       style="display:inline;fill:none;stroke:#000000;stroke-width:1px;stroke-linecap:round;stroke-linejoin:miter;stroke-opacity:1;marker-start:none;marker-mid:none;marker-end:url(#marker52572)" />
    <path
       id="path5837-9-6-8-9-5-6-0-5"
       sodipodi:nodetypes="cc"
       d="M 315,195 H 300"
       style="display:inline;fill:none;stroke:#000000;stroke-width:1px;stroke-linecap:round;stroke-linejoin:miter;stroke-opacity:1;marker-end:url(#marker19838)"
       inkscape:connector-curvature="0" />
    <path
       id="path5837-9-6-8-9-5-8-6"
       sodipodi:nodetypes="cc"
       d="m 215,130 v 7.50001"
       style="display:inline;fill:none;stroke:#000000;stroke-width:1px;stroke-linecap:round;stroke-linejoin:miter;stroke-opacity:1;marker-start:url(#marker19838-5)"
       inkscape:connector-curvature="0" />
    <path
       d="M 299.99996,213.95175 Z"
       id="path5859-6-9-6-3-1-5-8-6"
       style="display:inline;fill:none;stroke:#000000;stroke-width:1px;stroke-linecap:butt;stroke-linejoin:miter;stroke-opacity:1"
       inkscape:connector-curvature="0" />
    <path
       inkscape:connector-curvature="0"
       inkscape:export-ydpi="300"
       inkscape:export-xdpi="300"
       inkscape:export-filename="/home/mhinkkan/Desktop/testi.png"
       id="path10918-9-9-0-0-8-9-18"
       sodipodi:nodetypes="cc"
       d="M 215,152.5 V 210"
       style="display:inline;fill:none;stroke:#000000;stroke-width:1px;stroke-linecap:round;stroke-linejoin:miter;stroke-opacity:1;marker-start:none;marker-mid:none;marker-end:url(#marker52572)" />
    <g
       id="g8557"
       transform="matrix(1,0,0,-1,112.5,394.90414)">
      <path
         style="display:inline;fill:none;stroke:#000000;stroke-width:1.333;stroke-linecap:round;stroke-linejoin:miter;stroke-miterlimit:4;stroke-dasharray:none;stroke-opacity:1;marker-start:none;marker-mid:none;marker-end:none"
         d="m 187.5,199.90415 -15,-5.00001"
         sodipodi:nodetypes="cc"
         id="path10918-9-9-9-5-3-0-8-4"
         inkscape:export-filename="/home/mhinkkan/Desktop/testi.png"
         inkscape:export-xdpi="300"
         inkscape:export-ydpi="300"
         inkscape:connector-curvature="0" />
      <circle
         style="display:inline;fill:#ffffff;fill-opacity:1;stroke:#000000;stroke-width:0.375;stroke-miterlimit:4;stroke-dasharray:none;stroke-opacity:1"
         id="path7041-8-0-5-5-1-8-9"
         transform="matrix(1.3333333,0,0,1.3333333,142.5,144.53196)"
         cx="22.5"
         cy="35.904144"
         r="1.5" />
      <circle
         style="display:inline;fill:#ffffff;fill-opacity:1;stroke:#000000;stroke-width:0.375;stroke-miterlimit:4;stroke-dasharray:none;stroke-opacity:1"
         id="path7041-8-0-5-6-6-7-8-1"
         transform="matrix(1.3333333,0,0,1.3333333,142.5,159.53195)"
         cx="22.5"
         cy="35.904144"
         r="1.5" />
    </g>
    <path
       id="path5837-9-6-8-9-5-6-0-8-5"
       sodipodi:nodetypes="cc"
       d="M 315,145 H 230"
       style="display:inline;fill:none;stroke:#000000;stroke-width:1px;stroke-linecap:round;stroke-linejoin:miter;stroke-opacity:1;marker-end:url(#marker19838)"
       inkscape:connector-curvature="0" />
    <path
       id="path5837-9-6-8-9-5-8-3"
       sodipodi:nodetypes="cc"
       d="m 250,130 v 32.5"
       style="display:inline;fill:none;stroke:#000000;stroke-width:1px;stroke-linecap:round;stroke-linejoin:miter;stroke-opacity:1;marker-start:url(#marker19838-5)"
       inkscape:connector-curvature="0" />
    <g
       id="g8552"
       transform="matrix(1,0,0,-1,112.5,334.90414)">
      <path
         style="display:inline;fill:none;stroke:#000000;stroke-width:1.333;stroke-linecap:round;stroke-linejoin:miter;stroke-miterlimit:4;stroke-dasharray:none;stroke-opacity:1;marker-start:none;marker-mid:none;marker-end:none"
         d="m 152.5,164.90414 -15,-5"
         sodipodi:nodetypes="cc"
         id="path10918-9-9-9-5-3-0-3"
         inkscape:export-filename="/home/mhinkkan/Desktop/testi.png"
         inkscape:export-xdpi="300"
         inkscape:export-ydpi="300"
         inkscape:connector-curvature="0" />
      <circle
         style="display:inline;fill:#ffffff;fill-opacity:1;stroke:#000000;stroke-width:0.375;stroke-miterlimit:4;stroke-dasharray:none;stroke-opacity:1"
         id="path7041-8-0-5-5-1-3"
         transform="matrix(1.3333333,0,0,1.3333333,107.5,109.53195)"
         cx="22.5"
         cy="35.904144"
         r="1.5" />
      <circle
         style="display:inline;fill:#ffffff;fill-opacity:1;stroke:#000000;stroke-width:0.375;stroke-miterlimit:4;stroke-dasharray:none;stroke-opacity:1"
         id="path7041-8-0-5-6-6-7-86"
         transform="matrix(1.3333333,0,0,1.3333333,107.5,124.53195)"
         cx="22.5"
         cy="35.904144"
         r="1.5" />
    </g>
    <path
       id="path5837-9-6-8-9-5-6-0-8-0"
       sodipodi:nodetypes="cc"
       d="M 315,170 H 265"
       style="display:inline;fill:none;stroke:#000000;stroke-width:1px;stroke-linecap:round;stroke-linejoin:miter;stroke-opacity:1;marker-end:url(#marker19838)"
       inkscape:connector-curvature="0" />
    <circle
       style="display:inline;fill:#ffffff;fill-opacity:1;stroke:#000000;stroke-width:0.5;stroke-miterlimit:4;stroke-dasharray:none;stroke-opacity:1"
       id="path8581"
       cx="315"
       cy="145"
       r="2" />
    <circle
       id="path8583"
       style="display:inline;fill:#ffffff;fill-opacity:1;stroke:#000000;stroke-width:0.5;stroke-miterlimit:4;stroke-dasharray:none;stroke-opacity:1"
       cx="315"
       cy="169.99998"
       r="2" />
    <circle
       style="display:inline;fill:#ffffff;fill-opacity:1;stroke:#000000;stroke-width:0.5;stroke-miterlimit:4;stroke-dasharray:none;stroke-opacity:1"
       id="path8585"
       cx="315"
       cy="194.99998"
       r="2" />
    <g
       id="g1676"
       transform="translate(42.500001,-54.904151)">
      <path
         style="display:inline;fill:none;stroke:#000000;stroke-width:1.333;stroke-linecap:round;stroke-linejoin:miter;stroke-miterlimit:4;stroke-dasharray:none;stroke-opacity:1;marker-start:none;marker-mid:none;marker-end:none"
         d="m 187.5,199.90415 -15,-5.00001"
         sodipodi:nodetypes="cc"
         id="path1670"
         inkscape:export-filename="/home/mhinkkan/Desktop/testi.png"
         inkscape:export-xdpi="300"
         inkscape:export-ydpi="300"
         inkscape:connector-curvature="0" />
      <circle
         style="display:inline;fill:#ffffff;fill-opacity:1;stroke:#000000;stroke-width:0.375;stroke-miterlimit:4;stroke-dasharray:none;stroke-opacity:1"
         id="circle1672"
         transform="matrix(1.3333333,0,0,1.3333333,142.5,144.53196)"
         cx="22.5"
         cy="35.904144"
         r="1.5" />
      <circle
         style="display:inline;fill:#ffffff;fill-opacity:1;stroke:#000000;stroke-width:0.375;stroke-miterlimit:4;stroke-dasharray:none;stroke-opacity:1"
         id="circle1674"
         transform="matrix(1.3333333,0,0,1.3333333,142.5,159.53195)"
         cx="22.5"
         cy="35.904144"
         r="1.5" />
    </g>
    <g
       inkscape:label=""
       transform="matrix(1.25,0,0,1.25,195.66015,36.425783)"
       id="g1686"
       style="display:inline;fill:#ff0000;fill-opacity:1;stroke-width:0.8">
      <g
         id="g1684"
         style="fill:#ff0000;fill-opacity:1;stroke-width:0.8">
        <g
           style="fill:#ff0000;fill-opacity:1;stroke-width:0.8"
           id="g1682">
          <g
             id="g1680"
             style="fill:#ff0000;fill-opacity:1;stroke-width:0.8"
             transform="translate(91.925003,81.962997)">
            <path
               style="fill:#ff0000;fill-opacity:1;stroke:none"
               d="m 3.3125,-0.75 c 0.046875,0.390625 0.3125,0.8125 0.78125,0.8125 0.21875,0 0.828125,-0.140625 0.828125,-0.953125 v -0.5625 h -0.25 v 0.5625 c 0,0.578125 -0.25,0.640625 -0.359375,0.640625 -0.328125,0 -0.375,-0.453125 -0.375,-0.5 v -1.984375 c 0,-0.421875 0,-0.8125 -0.359375,-1.1875 C 3.1875,-4.3125 2.6875,-4.46875 2.21875,-4.46875 c -0.828125,0 -1.515625,0.46875 -1.515625,1.125 0,0.296875 0.203125,0.46875 0.46875,0.46875 0.28125,0 0.453125,-0.203125 0.453125,-0.453125 0,-0.125 -0.046875,-0.453125 -0.515625,-0.453125 C 1.390625,-4.140625 1.875,-4.25 2.1875,-4.25 c 0.5,0 1.0625,0.390625 1.0625,1.28125 v 0.359375 c -0.515625,0.03125 -1.203125,0.0625 -1.828125,0.359375 -0.75,0.34375 -1,0.859375 -1,1.296875 0,0.8125 0.96875,1.0625 1.59375,1.0625 0.65625,0 1.109375,-0.40625 1.296875,-0.859375 z M 3.25,-2.390625 v 1 c 0,0.9375 -0.71875,1.28125 -1.171875,1.28125 -0.484375,0 -0.890625,-0.34375 -0.890625,-0.84375 0,-0.546875 0.421875,-1.375 2.0625,-1.4375 z m 0,0"
               id="path1678" />
          </g>
        </g>
      </g>
    </g>
    <g
       inkscape:label=""
       transform="matrix(1.25,0,0,1.25,195.58203,62.425783)"
       id="g1696"
       style="display:inline;fill:#ff0000;fill-opacity:1;stroke-width:0.8">
      <g
         id="g1694"
         style="fill:#ff0000;fill-opacity:1;stroke-width:0.8">
        <g
           style="fill:#ff0000;fill-opacity:1;stroke-width:0.8"
           id="g1692">
          <g
             id="g1690"
             style="fill:#ff0000;fill-opacity:1;stroke-width:0.8"
             transform="translate(91.925003,81.962997)">
            <path
               style="fill:#ff0000;fill-opacity:1;stroke:none"
               d="m 1.71875,-3.765625 v -3.15625 L 0.28125,-6.8125 V -6.5 c 0.703125,0 0.78125,0.0625 0.78125,0.5625 V 0 h 0.25 c 0,-0.015625 0.078125,-0.15625 0.359375,-0.625 0.140625,0.234375 0.5625,0.734375 1.296875,0.734375 1.1875,0 2.21875,-0.984375 2.21875,-2.265625 0,-1.265625 -0.96875,-2.25 -2.109375,-2.25 -0.78125,0 -1.203125,0.46875 -1.359375,0.640625 z m 0.03125,2.625 V -3.1875 c 0,-0.1875 0,-0.203125 0.109375,-0.359375 C 2.25,-4.109375 2.796875,-4.1875 3.03125,-4.1875 c 0.453125,0 0.8125,0.265625 1.046875,0.640625 0.265625,0.40625 0.28125,0.96875 0.28125,1.390625 0,0.359375 -0.015625,0.953125 -0.296875,1.40625 -0.21875,0.3125 -0.59375,0.640625 -1.125,0.640625 -0.453125,0 -0.8125,-0.234375 -1.046875,-0.609375 C 1.75,-0.921875 1.75,-0.953125 1.75,-1.140625 Z m 0,0"
               id="path1688" />
          </g>
        </g>
      </g>
    </g>
    <g
       inkscape:label=""
       transform="matrix(1.25,0,0,1.25,196.19726,86.42578)"
       id="g1706"
       style="display:inline;fill:#ff0000;fill-opacity:1;stroke-width:0.8">
      <g
         id="g1704"
         style="fill:#ff0000;fill-opacity:1;stroke-width:0.8">
        <g
           style="fill:#ff0000;fill-opacity:1;stroke-width:0.8"
           id="g1702">
          <g
             id="g1700"
             style="fill:#ff0000;fill-opacity:1;stroke-width:0.8"
             transform="translate(91.925003,81.962997)">
            <path
               style="fill:#ff0000;fill-opacity:1;stroke:none"
               d="m 1.171875,-2.171875 c 0,-1.625 0.8125,-2.046875 1.34375,-2.046875 0.09375,0 0.71875,0.015625 1.0625,0.375 -0.40625,0.03125 -0.46875,0.328125 -0.46875,0.453125 0,0.265625 0.1875,0.453125 0.453125,0.453125 0.265625,0 0.46875,-0.15625 0.46875,-0.46875 0,-0.671875 -0.765625,-1.0625 -1.53125,-1.0625 -1.25,0 -2.15625,1.078125 -2.15625,2.3125 0,1.28125 0.984375,2.265625 2.140625,2.265625 1.328125,0 1.65625,-1.203125 1.65625,-1.296875 0,-0.09375 -0.109375,-0.09375 -0.140625,-0.09375 -0.078125,0 -0.109375,0.03125 -0.125,0.09375 -0.28125,0.921875 -0.9375,1.046875 -1.296875,1.046875 -0.53125,0 -1.40625,-0.421875 -1.40625,-2.03125 z m 0,0"
               id="path1698" />
          </g>
        </g>
      </g>
    </g>
    <g
       inkscape:label=""
       transform="matrix(1.25,0,0,1.25,265.35156,69.199219)"
       id="g1820"
       style="fill:#ff0000;fill-opacity:1;stroke:none;stroke-width:0.8;stroke-opacity:1">
      <g
         id="g8409"
         style="fill:#ff0000;fill-opacity:1;stroke:none;stroke-width:0.8;stroke-opacity:1">
        <g
           style="fill:#ff0000;fill-opacity:1;stroke:none;stroke-width:0.8;stroke-opacity:1"
           id="g5236">
          <use
             xlink:href="#symbol4092"
             x="91.925003"
             y="81.962997"
             id="use2154"
             width="100%"
             height="100%"
             style="fill:#ff0000;fill-opacity:1;stroke:none;stroke-width:0.8;stroke-opacity:1" />
        </g>
      </g>
    </g>
    <g
       inkscape:label=""
       transform="matrix(1.25,0,0,1.25,78.951681,104.18597)"
       id="g2059"
       style="fill:#ff0000;fill-opacity:1;stroke:none;stroke-width:0.8;stroke-opacity:1">
      <g
         id="g762"
         style="fill:#ff0000;fill-opacity:1;stroke:none;stroke-width:0.8;stroke-opacity:1">
        <g
           style="fill:#ff0000;fill-opacity:1;stroke:none;stroke-width:0.8;stroke-opacity:1"
           id="g821">
          <use
             xlink:href="#symbol1455"
             x="91.925003"
             y="81.962997"
             id="use9203"
             width="100%"
             height="100%"
             style="fill:#ff0000;fill-opacity:1;stroke:none;stroke-width:0.8;stroke-opacity:1" />
        </g>
      </g>
    </g>
    <path
       style="display:inline;fill:none;stroke:#000000;stroke-width:0.75;stroke-linecap:butt;stroke-linejoin:miter;stroke-miterlimit:4;stroke-dasharray:none;stroke-opacity:1;marker-start:none;marker-mid:none;marker-end:url(#Arrow2Mend-3)"
       d="m 222.5,208.5 1e-5,-63.5"
       id="path2088"
       sodipodi:nodetypes="cc"
       inkscape:export-filename="/home/mhinkkan/Desktop/testi.png"
       inkscape:export-xdpi="300"
       inkscape:export-ydpi="300"
       inkscape:connector-curvature="0" />
    <path
       style="display:inline;fill:none;stroke:#000000;stroke-width:0.75;stroke-linecap:butt;stroke-linejoin:miter;stroke-miterlimit:4;stroke-dasharray:none;stroke-opacity:1;marker-start:none;marker-mid:none;marker-end:url(#Arrow2Mend-3)"
       d="m 292.5,230 10e-6,-30"
       id="path2090"
       sodipodi:nodetypes="cc"
       inkscape:export-filename="/home/mhinkkan/Desktop/testi.png"
       inkscape:export-xdpi="300"
       inkscape:export-ydpi="300"
       inkscape:connector-curvature="0" />
    <path
       style="display:inline;fill:none;stroke:#000000;stroke-width:0.75;stroke-linecap:butt;stroke-linejoin:miter;stroke-miterlimit:4;stroke-dasharray:none;stroke-opacity:1;marker-start:none;marker-mid:none;marker-end:url(#Arrow2Mend-3)"
       d="m 257.5,208.5 10e-6,-33.5"
       id="path2092"
       sodipodi:nodetypes="cc"
       inkscape:export-filename="/home/mhinkkan/Desktop/testi.png"
       inkscape:export-xdpi="300"
       inkscape:export-ydpi="300"
       inkscape:connector-curvature="0" />
    <g
       inkscape:label=""
       transform="matrix(1.25,0,0,1.25,228.98915,22.558884)"
       id="g2352"
       style="stroke-width:0.8">
      <g
         id="g6232"
         style="stroke-width:0.8">
        <g
           style="fill:#000000;fill-opacity:1;stroke-width:0.8"
           id="g802">
          <use
             xlink:href="#symbol2423"
             x="91.925003"
             y="81.962997"
             id="use6827"
             width="100%"
             height="100%"
             style="stroke-width:0.8" />
          <use
             xlink:href="#symbol3575"
             x="98.151627"
             y="81.962997"
             id="use5162"
             width="100%"
             height="100%"
             style="stroke-width:0.8" />
          <use
             xlink:href="#symbol1042"
             x="103.13293"
             y="81.962997"
             id="use7461"
             width="100%"
             height="100%"
             style="stroke-width:0.8" />
          <use
             xlink:href="#symbol3790"
             x="108.11423"
             y="81.962997"
             id="use8856"
             width="100%"
             height="100%"
             style="stroke-width:0.8" />
        </g>
      </g>
    </g>
    <g
       inkscape:label=""
       transform="matrix(1.25,0,0,1.25,94.324435,171.34375)"
       id="g3795"
       style="stroke-width:0.8">
      <g
         id="g9842"
         style="stroke-width:0.8">
        <g
           style="fill:#000000;fill-opacity:1;stroke-width:0.8"
           id="g4085">
          <use
             xlink:href="#symbol4465"
             x="91.925003"
             y="81.962997"
             id="use8710"
             width="100%"
             height="100%"
             style="stroke-width:0.8" />
        </g>
        <g
           style="fill:#000000;fill-opacity:1;stroke-width:0.8"
           id="g6107">
          <use
             xlink:href="#symbol9493"
             x="97.111"
             y="83.457001"
             id="use6030"
             width="100%"
             height="100%"
             style="stroke-width:0.8" />
        </g>
      </g>
    </g>
    <g
       inkscape:label=""
       transform="matrix(1.25,0,0,1.25,129.32343,171.34375)"
       id="g4171"
       style="stroke-width:0.8">
      <g
         id="g8458"
         style="stroke-width:0.8">
        <g
           style="fill:#000000;fill-opacity:1;stroke-width:0.8"
           id="g8219">
          <use
             xlink:href="#symbol8877"
             x="91.925003"
             y="81.962997"
             id="use7977"
             width="100%"
             height="100%"
             style="stroke-width:0.8" />
        </g>
        <g
           style="fill:#000000;fill-opacity:1;stroke-width:0.8"
           id="g2277">
          <use
             xlink:href="#symbol1584"
             x="97.111"
             y="83.457001"
             id="use1408"
             width="100%"
             height="100%"
             style="stroke-width:0.8" />
        </g>
      </g>
    </g>
    <g
       inkscape:label=""
       transform="matrix(1.25,0,0,1.25,164.32359,171.34375)"
       id="g4562"
       style="stroke-width:0.8">
      <g
         id="g4366"
         style="stroke-width:0.8">
        <g
           style="fill:#000000;fill-opacity:1;stroke-width:0.8"
           id="g5376">
          <use
             xlink:href="#symbol2465"
             x="91.925003"
             y="81.962997"
             id="use4826"
             width="100%"
             height="100%"
             style="stroke-width:0.8" />
        </g>
        <g
           style="fill:#000000;fill-opacity:1;stroke-width:0.8"
           id="g3890">
          <use
             xlink:href="#symbol4569"
             x="97.111"
             y="83.457001"
             id="use3723"
             width="100%"
             height="100%"
             style="stroke-width:0.8" />
        </g>
      </g>
    </g>
    <g
       inkscape:label=""
       transform="matrix(1.25,0,0,1.25,165.24609,121.98836)"
       id="g4968"
       style="stroke-width:0.8">
      <g
         id="g669"
         style="stroke-width:0.8">
        <g
           style="fill:#000000;fill-opacity:1;stroke-width:0.8"
           id="g2239">
          <use
             xlink:href="#symbol5986"
             x="91.925003"
             y="81.962997"
             id="use9777"
             width="100%"
             height="100%"
             style="stroke-width:0.8" />
        </g>
        <g
           style="fill:#000000;fill-opacity:1;stroke-width:0.8"
           id="g2216">
          <use
             xlink:href="#symbol8474"
             x="96.373001"
             y="83.457001"
             id="use9318"
             width="100%"
             height="100%"
             style="stroke-width:0.8" />
        </g>
      </g>
    </g>
    <g
       inkscape:label=""
       transform="matrix(1.25,0,0,1.25,130.24593,121.98836)"
       id="g5389"
       style="stroke-width:0.8">
      <g
         id="g7233"
         style="stroke-width:0.8">
        <g
           style="fill:#000000;fill-opacity:1;stroke-width:0.8"
           id="g4901">
          <use
             xlink:href="#symbol7012"
             x="91.925003"
             y="81.962997"
             id="use5641"
             width="100%"
             height="100%"
             style="stroke-width:0.8" />
        </g>
        <g
           style="fill:#000000;fill-opacity:1;stroke-width:0.8"
           id="g1879">
          <use
             xlink:href="#symbol7416"
             x="96.373001"
             y="83.457001"
             id="use6509"
             width="100%"
             height="100%"
             style="stroke-width:0.8" />
        </g>
      </g>
    </g>
    <g
       inkscape:label=""
       transform="matrix(1.25,0,0,1.25,95.246934,121.98836)"
       id="g5825"
       style="stroke-width:0.8">
      <g
         id="g9085"
         style="stroke-width:0.8">
        <g
           style="fill:#000000;fill-opacity:1;stroke-width:0.8"
           id="g9425">
          <use
             xlink:href="#symbol2631"
             x="91.925003"
             y="81.962997"
             id="use6635"
             width="100%"
             height="100%"
             style="stroke-width:0.8" />
        </g>
        <g
           style="fill:#000000;fill-opacity:1;stroke-width:0.8"
           id="g5034">
          <use
             xlink:href="#symbol7407"
             x="96.373001"
             y="83.457001"
             id="use7792"
             width="100%"
             height="100%"
             style="stroke-width:0.8" />
        </g>
      </g>
    </g>
    <g
       inkscape:label=""
       transform="matrix(1.25,0,0,1.25,122.99158,140.77101)"
       id="g5896"
       style="stroke-width:0.8">
      <g
         id="g5894"
         style="stroke-width:0.8">
        <g
           style="fill:#000000;fill-opacity:1;stroke-width:0.8"
           id="g5892">
          <use
             xlink:href="#symbol2322"
             x="91.925003"
             y="81.962997"
             id="use5878"
             width="100%"
             height="100%"
             style="stroke-width:0.8" />
          <use
             xlink:href="#symbol9835"
             x="99.119987"
             y="81.962997"
             id="use5880"
             width="100%"
             height="100%"
             style="stroke-width:0.8" />
          <use
             xlink:href="#symbol3479"
             x="104.10129"
             y="81.962997"
             id="use5882"
             width="100%"
             height="100%"
             style="stroke-width:0.8" />
          <use
             xlink:href="#symbol3479"
             x="108.00364"
             y="81.962997"
             id="use5884"
             width="100%"
             height="100%"
             style="stroke-width:0.8" />
          <use
             xlink:href="#symbol7922"
             x="111.90599"
             y="81.962997"
             id="use5886"
             width="100%"
             height="100%"
             style="stroke-width:0.8" />
          <use
             xlink:href="#symbol9975"
             x="114.6736"
             y="81.962997"
             id="use5888"
             width="100%"
             height="100%"
             style="stroke-width:0.8" />
          <use
             xlink:href="#symbol3479"
             x="119.10098"
             y="81.962997"
             id="use5890"
             width="100%"
             height="100%"
             style="stroke-width:0.8" />
        </g>
      </g>
    </g>
    <g
       inkscape:label=""
       transform="matrix(1.25,0,0,1.25,111.66911,152.51125)"
       id="g5922"
       style="stroke-width:0.8">
      <g
         id="g5920"
         style="stroke-width:0.8">
        <g
           style="fill:#000000;fill-opacity:1;stroke-width:0.8"
           id="g5918">
          <use
             xlink:href="#symbol6141"
             x="91.925003"
             y="81.962997"
             id="use5898"
             width="100%"
             height="100%"
             style="stroke-width:0.8" />
          <use
             xlink:href="#symbol1861"
             x="96.352379"
             y="81.962997"
             id="use5900"
             width="100%"
             height="100%"
             style="stroke-width:0.8" />
          <use
             xlink:href="#symbol1341"
             x="101.33368"
             y="81.962997"
             id="use5902"
             width="100%"
             height="100%"
             style="stroke-width:0.8" />
          <use
             xlink:href="#symbol7762"
             x="109.63551"
             y="81.962997"
             id="use5904"
             width="100%"
             height="100%"
             style="stroke-width:0.8" />
          <use
             xlink:href="#symbol9624"
             x="115.17074"
             y="81.962997"
             id="use5906"
             width="100%"
             height="100%"
             style="stroke-width:0.8" />
          <use
             xlink:href="#symbol8944"
             x="120.15204"
             y="81.962997"
             id="use5908"
             width="100%"
             height="100%"
             style="stroke-width:0.8" />
          <use
             xlink:href="#symbol5781"
             x="124.05438"
             y="81.962997"
             id="use5910"
             width="100%"
             height="100%"
             style="stroke-width:0.8" />
          <use
             xlink:href="#symbol3009"
             x="126.822"
             y="81.962997"
             id="use5912"
             width="100%"
             height="100%"
             style="stroke-width:0.8" />
          <use
             xlink:href="#symbol1861"
             x="130.75125"
             y="81.962997"
             id="use5914"
             width="100%"
             height="100%"
             style="stroke-width:0.8" />
          <use
             xlink:href="#symbol2925"
             x="135.73254"
             y="81.962997"
             id="use5916"
             width="100%"
             height="100%"
             style="stroke-width:0.8" />
        </g>
      </g>
    </g>
    <path
       style="display:inline;fill:none;stroke:#000000;stroke-width:0.75;stroke-linecap:butt;stroke-linejoin:miter;stroke-miterlimit:4;stroke-dasharray:none;stroke-opacity:1;marker-start:none;marker-mid:none"
       d="M 222.5,230 V 211.5"
       id="path6325"
       sodipodi:nodetypes="cc"
       inkscape:export-filename="/home/mhinkkan/Desktop/testi.png"
       inkscape:export-xdpi="300"
       inkscape:export-ydpi="300"
       inkscape:connector-curvature="0" />
    <path
       style="display:inline;fill:none;stroke:#000000;stroke-width:0.75;stroke-linecap:butt;stroke-linejoin:miter;stroke-miterlimit:4;stroke-dasharray:none;stroke-opacity:1;marker-start:none;marker-mid:none"
       d="M 257.5,230 V 211.5"
       id="path6327"
       sodipodi:nodetypes="cc"
       inkscape:export-filename="/home/mhinkkan/Desktop/testi.png"
       inkscape:export-xdpi="300"
       inkscape:export-ydpi="300"
       inkscape:connector-curvature="0" />
    <path
       style="fill:none;stroke:#000004;stroke-width:1"
       d="M 285,204.49999 V 210 H 179.5"
       id="path1" />
    <path
       style="fill:none;stroke:#000004;stroke-width:1"
       d="M 285,185.5 V 130 H 179.5"
       id="path2" />
    <g
       inkscape:label=""
       transform="matrix(1.25,0,0,1.25,40.308593,67.370473)"
       id="g1654-6-0"
       style="display:inline;stroke-width:0.8">
      <g
         id="g1652-2-6"
         style="stroke-width:0.8">
        <g
           style="fill:#000000;fill-opacity:1;stroke-width:0.8"
           id="g1640-2-5">
          <g
             id="g1638-6-0"
             style="stroke-width:0.8"
             transform="translate(91.925003,81.962997)">
            <path
               style="stroke:none"
               d="M 3.484375,-0.5625 C 3.59375,-0.15625 3.953125,0.109375 4.375,0.109375 4.71875,0.109375 4.953125,-0.125 5.109375,-0.4375 5.28125,-0.796875 5.40625,-1.40625 5.40625,-1.421875 c 0,-0.109375 -0.078125,-0.109375 -0.109375,-0.109375 -0.109375,0 -0.109375,0.046875 -0.140625,0.1875 -0.140625,0.5625 -0.328125,1.234375 -0.75,1.234375 -0.203125,0 -0.3125,-0.125 -0.3125,-0.453125 0,-0.21875 0.125,-0.6875 0.203125,-1.046875 L 4.578125,-2.6875 C 4.609375,-2.828125 4.703125,-3.203125 4.75,-3.359375 4.796875,-3.59375 4.890625,-3.96875 4.890625,-4.03125 c 0,-0.171875 -0.140625,-0.265625 -0.28125,-0.265625 -0.046875,0 -0.3125,0.015625 -0.390625,0.34375 -0.1875,0.734375 -0.625,2.484375 -0.75,3 -0.015625,0.046875 -0.40625,0.84375 -1.140625,0.84375 -0.515625,0 -0.609375,-0.453125 -0.609375,-0.8125 0,-0.5625 0.28125,-1.34375 0.53125,-2.03125 0.125,-0.3125 0.171875,-0.453125 0.171875,-0.640625 0,-0.4375 -0.3125,-0.8125 -0.8125,-0.8125 -0.953125,0 -1.3125,1.453125 -1.3125,1.53125 0,0.109375 0.09375,0.109375 0.109375,0.109375 0.109375,0 0.109375,-0.03125 0.15625,-0.1875 0.25,-0.859375 0.640625,-1.234375 1.015625,-1.234375 0.09375,0 0.25,0.015625 0.25,0.328125 0,0.234375 -0.109375,0.53125 -0.171875,0.671875 -0.375,1 -0.578125,1.609375 -0.578125,2.09375 0,0.953125 0.6875,1.203125 1.21875,1.203125 0.65625,0 1.015625,-0.453125 1.1875,-0.671875 z m 0,0"
               id="path1636-1-1" />
          </g>
        </g>
        <g
           style="fill:#000000;fill-opacity:1;stroke-width:0.8"
           id="g1650-8-2">
          <g
             id="g1644-9-1"
             style="stroke-width:0.8"
             transform="translate(97.627998,83.457001)">
            <path
               style="stroke:none"
               d="m 2.484375,-4.765625 v 0.25 C 2.953125,-4.515625 3,-4.453125 3,-4.125 v 1.453125 c -0.25,-0.25 -0.59375,-0.40625 -0.96875,-0.40625 -0.9375,0 -1.703125,0.703125 -1.703125,1.578125 0,0.875 0.734375,1.5625 1.609375,1.5625 0.578125,0 0.921875,-0.296875 1.03125,-0.421875 V 0.0625 L 4.046875,0 V -0.25 C 3.578125,-0.25 3.53125,-0.296875 3.53125,-0.640625 V -4.84375 Z m 0.484375,4.03125 C 2.796875,-0.40625 2.4375,-0.125 1.984375,-0.125 1.59375,-0.125 1.3125,-0.359375 1.171875,-0.5625 1.03125,-0.765625 0.953125,-1.046875 0.953125,-1.484375 c 0,-0.171875 0,-0.6875 0.28125,-1.015625 0.28125,-0.3125 0.625,-0.375 0.828125,-0.375 0.328125,0 0.640625,0.15625 0.828125,0.40625 0.078125,0.109375 0.078125,0.109375 0.078125,0.25 z m 0,0"
               id="path1642-2-6" />
          </g>
          <g
             id="g1648-7-1"
             style="stroke-width:0.8"
             transform="translate(102.02847,83.457001)">
            <path
               style="stroke:none"
               d="m 2.703125,-2.78125 c -0.125,0.0625 -0.1875,0.171875 -0.1875,0.3125 0,0.1875 0.125,0.328125 0.328125,0.328125 0.1875,0 0.328125,-0.125 0.328125,-0.34375 0,-0.625 -0.96875,-0.625 -1.15625,-0.625 -1.046875,0 -1.6875,0.796875 -1.6875,1.609375 0,0.875 0.734375,1.5625 1.65625,1.5625 1.03125,0 1.28125,-0.8125 1.28125,-0.90625 0,-0.078125 -0.09375,-0.078125 -0.125,-0.078125 -0.09375,0 -0.09375,0.015625 -0.125,0.125 C 2.859375,-0.375 2.484375,-0.15625 2.0625,-0.15625 c -0.484375,0 -1.109375,-0.359375 -1.109375,-1.359375 0,-0.875 0.4375,-1.375 1.078125,-1.375 0.09375,0 0.421875,0 0.671875,0.109375 z m 0,0"
               id="path1646-5-3" />
          </g>
        </g>
      </g>
    </g>
    <path
       inkscape:connector-curvature="0"
       style="display:inline;fill:none;stroke:#000000;stroke-width:1px;stroke-linecap:butt;stroke-linejoin:miter;stroke-opacity:1;marker-start:url(#Arrow2Mstart-9-7);marker-mid:none"
       d="M 177.5,205 V 135"
       sodipodi:nodetypes="cc"
       id="path2221-5"
       inkscape:export-filename="C:\Documents and Settings\mhinkkan\Desktop\testi.png"
       inkscape:export-xdpi="300"
       inkscape:export-ydpi="300" />
    <circle
       style="display:inline;fill:#ffffff;fill-opacity:1;stroke:#000000;stroke-width:0.5;stroke-miterlimit:4;stroke-dasharray:none;stroke-opacity:1"
       id="path8585-3"
       cx="177.5"
       cy="130"
       r="2" />
    <circle
       style="display:inline;fill:#ffffff;fill-opacity:1;stroke:#000000;stroke-width:0.5;stroke-miterlimit:4;stroke-dasharray:none;stroke-opacity:1"
       id="path8585-3-9"
       cx="177.5"
       cy="210"
       r="2" />
  </g>
</svg>
