<?xml version="1.0" encoding="UTF-8" standalone="no"?>
<svg
   version="1.0"
   inkscape:output_extension="org.inkscape.output.svg.inkscape"
   sodipodi:docname="sm.svg"
   inkscape:version="1.4 (e7c3feb100, 2024-10-09)"
   sodipodi:version="0.32"
   id="svg3470"
   height="95"
   width="480"
   xmlns:inkscape="http://www.inkscape.org/namespaces/inkscape"
   xmlns:sodipodi="http://sodipodi.sourceforge.net/DTD/sodipodi-0.dtd"
   xmlns="http://www.w3.org/2000/svg"
   xmlns:svg="http://www.w3.org/2000/svg"
   xmlns:rdf="http://www.w3.org/1999/02/22-rdf-syntax-ns#"
   xmlns:cc="http://creativecommons.org/ns#"
   xmlns:dc="http://purl.org/dc/elements/1.1/"
   xmlns:ns3="http://www.iki.fi/pav/software/textext/">
  <sodipodi:namedview
     inkscape:document-rotation="0"
     inkscape:snap-to-guides="false"
     inkscape:snap-object-midpoints="false"
     inkscape:snap-grids="true"
     inkscape:window-maximized="1"
     inkscape:snap-guide="true"
     inkscape:snap-global="true"
     inkscape:bbox-paths="true"
     inkscape:snap-nodes="true"
     inkscape:snap-bbox="false"
     inkscape:object-bbox="true"
     inkscape:object-nodes="true"
     inkscape:guide-points="false"
     inkscape:guide-bbox="true"
     showguides="true"
     height="359.4px"
     width="349.29px"
     inkscape:window-y="0"
     inkscape:window-x="0"
     inkscape:window-height="1131"
     inkscape:window-width="1920"
     inkscape:grid-bbox="false"
     inkscape:object-points="false"
     inkscape:object-paths="true"
     inkscape:grid-points="true"
     showgrid="true"
     inkscape:current-layer="layer2"
     inkscape:document-units="px"
     inkscape:cy="93.017095"
     inkscape:cx="225.53068"
     inkscape:zoom="3.4939814"
     inkscape:pageshadow="2"
     inkscape:pageopacity="0.0"
     objecttolerance="10"
     guidetolerance="10"
     gridtolerance="36.6"
     borderopacity="1.0"
     bordercolor="#666666"
     pagecolor="#ffffff"
     id="base"
     fit-margin-top="0"
     fit-margin-left="0"
     fit-margin-right="0"
     fit-margin-bottom="0"
     inkscape:showpageshadow="2"
     inkscape:pagecheckerboard="0"
     inkscape:deskcolor="#d1d1d1">
    <inkscape:grid
       enabled="true"
       visible="true"
       id="GridFromPre046Settings"
       type="xygrid"
       originx="70"
       originy="-40"
       spacingx="0.5"
       spacingy="0.5"
       color="#0000ff"
       empcolor="#0000ff"
       opacity="0.2"
       empopacity="0.4"
       empspacing="5"
       snapvisiblegridlinesonly="true"
       units="px" />
    <sodipodi:guide
       inkscape:locked="false"
       orientation="0,1"
       position="2019.5192,1079.6727"
       id="guide35742" />
    <sodipodi:guide
       inkscape:locked="false"
       orientation="1,0"
       position="50,166.59587"
       id="guide3449" />
  </sodipodi:namedview>
  <defs
     id="defs3472">
    <marker
       style="overflow:visible"
       id="Arrow2Mstart-021-3-7"
       orient="auto"
       refY="0"
       inkscape:stockid="Arrow2Mstart"
       refX="0">
      <path
         inkscape:connector-curvature="0"
         style="font-size:12px;fill-rule:evenodd;stroke-width:0.625;stroke-linejoin:round"
         transform="scale(0.6)"
         d="M 8.7185878,4.0337352 -2.2072895,0.01601326 8.7185884,-4.0017078 c -1.7454984,2.3720609 -1.7354408,5.6174519 -6e-7,8.035443 z"
         id="path21014-8-6-1" />
    </marker>
  </defs>
  <metadata
     id="metadata3475">
    <rdf:RDF>
      <cc:Work
         rdf:about="">
        <dc:format>image/svg+xml</dc:format>
        <dc:type
           rdf:resource="http://purl.org/dc/dcmitype/StillImage" />
        <dc:title />
      </cc:Work>
    </rdf:RDF>
  </metadata>
  <g
     inkscape:label="Circuit"
     style="display:inline"
     id="layer1"
     inkscape:groupmode="layer"
     transform="translate(-109.835,-369.65454)" />
  <g
     inkscape:label="Labels"
     style="display:inline;opacity:1"
     id="layer2"
     inkscape:groupmode="layer"
     transform="translate(70, -40)">
    <g
       inkscape:label="Circuit"
       style="display:inline"
       id="layer1-7"
       transform="translate(80.78574,-103.71623)" />
    <g
       inkscape:label="Circuit"
       style="display:inline"
       id="layer1-3"
       transform="translate(-114.835,-29.65454)" />
    <g
       transform="matrix(0.47239618,0,0,0.47239618,58.540603,62.534665)"
       id="layer1-9"
       style="display:inline"
       inkscape:label="Circuit" />
    <g
       id="g3621"
       transform="matrix(1.33333,0,0,1.33333,80.0032,96.300754)"
       ns3:version="1.12.0"
       ns3:texconverter="pdflatex"
       ns3:pdfconverter="inkscape"
       ns3:text="$\\us$"
       ns3:preamble="/home/mhinkkan/GitHub/motulator/docs/source/inkscape_textext_preamble.sty"
       ns3:scale="1.0"
       ns3:alignment="middle right"
       ns3:inkscapeversion="1.4"
       ns3:jacobian_sqrt="1.33333">
      <defs
         id="defs4983" />
      <g
         fill="#000000"
         fill-opacity="1"
         id="g8811"
         transform="translate(-154.831,-131.62)">
        <g
           transform="translate(154.69,135.761)"
           id="g1093">
          <path
             d="m 4.8125,-0.171875 v -0.21875 c -0.390625,-0.015625 -0.5,-0.125 -0.5,-0.515625 V -4.140625 H 2.515625 v 0.21875 c 0.4375,0.03125 0.546875,0.140625 0.546875,0.53125 v 2.53125 c -0.296875,0.296875 -0.46875,0.40625 -0.734375,0.40625 -0.359375,0 -0.5,-0.1875 -0.5,-0.640625 v -3.046875 h -1.6875 v 0.21875 c 0.375,0.078125 0.4375,0.15625 0.4375,0.53125 V -1.125 c 0,0.78125 0.453125,1.25 1.203125,1.25 0.46875,0 0.78125,-0.140625 1.296875,-0.59375 v 0.578125 c 0.390625,-0.125 0.59375,-0.15625 1.1875,-0.21875 z m 0,0"
             id="path7528" />
        </g>
      </g>
      <g
         fill="#000000"
         fill-opacity="1"
         id="g8079"
         transform="translate(-154.831,-131.62)">
        <g
           transform="translate(159.675,137.106)"
           id="g2555">
          <path
             d="m 2.296875,-0.78125 c 0,-0.328125 -0.15625,-0.546875 -0.5625,-0.78125 L 1.03125,-1.984375 C 0.84375,-2.078125 0.75,-2.25 0.75,-2.421875 0.75,-2.703125 0.953125,-2.875 1.25,-2.875 c 0.375,0 0.578125,0.21875 0.71875,0.8125 h 0.109375 l -0.03125,-0.890625 h -0.09375 c -0.046875,0.046875 -0.0625,0.0625 -0.078125,0.0625 -0.046875,0 -0.109375,-0.015625 -0.1875,-0.046875 C 1.546875,-3 1.40625,-3.015625 1.25,-3.015625 c -0.546875,0 -0.921875,0.328125 -0.921875,0.8125 0,0.359375 0.21875,0.625 0.78125,0.9375 l 0.375,0.21875 c 0.234375,0.125 0.34375,0.296875 0.34375,0.5 0,0.28125 -0.203125,0.46875 -0.546875,0.46875 -0.453125,0 -0.6875,-0.25 -0.828125,-0.921875 H 0.34375 V 0.03125 H 0.421875 C 0.46875,-0.046875 0.5,-0.046875 0.578125,-0.046875 c 0.078125,0 0.140625,0 0.296875,0.046875 0.1875,0.046875 0.359375,0.0625 0.5,0.0625 0.5,0 0.921875,-0.375 0.921875,-0.84375 z m 0,0"
             id="path1017" />
        </g>
      </g>
    </g>
    <path
       d="M 226.99996,129.3384 Z"
       id="path4671"
       style="display:inline;fill:none;stroke:#000000;stroke-width:1px;stroke-linecap:butt;stroke-linejoin:miter;stroke-opacity:1"
       inkscape:connector-curvature="0" />
    <path
       inkscape:connector-curvature="0"
       style="display:inline;fill:none;stroke:#000000;stroke-width:1px;stroke-linecap:round;stroke-linejoin:miter;stroke-opacity:1"
       d="M 215,84.99999 V 70 h -65"
       sodipodi:nodetypes="ccc"
       id="path4679" />
    <path
       inkscape:connector-curvature="0"
       style="font-style:normal;font-variant:normal;font-weight:normal;font-stretch:normal;font-size:12px;line-height:125%;font-family:'Bitstream Vera Sans';text-align:start;writing-mode:lr-tb;text-anchor:start;display:inline;fill:none;stroke:#000000;stroke-width:1.333;stroke-linecap:round;stroke-linejoin:round;stroke-miterlimit:4;stroke-dasharray:none;stroke-opacity:1"
       d="m 215,115 c 7,0 7,-10 0,-10 7,0 7,-10.00001 0,-10.00001 7,0 7,-10 0,-10"
       sodipodi:nodetypes="cccc"
       id="path4681" />
    <path
       id="path4683"
       sodipodi:nodetypes="ccc"
       d="m 215,115 v 15 H 95"
       style="display:inline;fill:none;stroke:#000000;stroke-width:1px;stroke-linecap:round;stroke-linejoin:miter;stroke-opacity:1"
       inkscape:connector-curvature="0" />
    <path
       id="path4685"
       sodipodi:nodetypes="cccccccc"
       d="m 150,70 -2.5,5 -5,-10 -5,10 -5,-10 -5,10 -5,-10 -2.5,5"
       style="display:inline;fill:none;stroke:#000000;stroke-width:1.333;stroke-linecap:round;stroke-linejoin:miter;stroke-miterlimit:4;stroke-dasharray:none;stroke-opacity:1"
       inkscape:connector-curvature="0" />
    <path
       style="display:inline;fill:none;stroke:#000000;stroke-width:1px;stroke-linecap:square;stroke-linejoin:miter;stroke-opacity:1;marker-start:none;marker-mid:none;marker-end:none"
       d="M 120,70 H 95"
       sodipodi:nodetypes="cc"
       id="path4687"
       inkscape:export-filename="/home/mhinkkan/Desktop/testi.png"
       inkscape:export-xdpi="300"
       inkscape:export-ydpi="300"
       inkscape:connector-curvature="0" />
    <circle
       r="2"
       cy="70"
       cx="95"
       id="circle4689"
       style="display:inline;fill:#ffffff;fill-opacity:1;stroke:#000000;stroke-width:0.5;stroke-miterlimit:4;stroke-dasharray:none;stroke-opacity:1" />
    <path
       inkscape:export-ydpi="300"
       inkscape:export-xdpi="300"
       inkscape:export-filename="C:\Documents and Settings\mhinkkan\Desktop\testi.png"
       id="path4691"
       sodipodi:nodetypes="cc"
       d="m 110,70 h -5"
       style="display:inline;fill:none;stroke:#000000;stroke-width:1px;stroke-linecap:butt;stroke-linejoin:miter;stroke-opacity:1;marker-start:url(#Arrow2Mstart-021-3-7);marker-mid:none"
       inkscape:connector-curvature="0" />
    <circle
       r="2"
       cy="130.00002"
       cx="95"
       style="display:inline;fill:#ffffff;fill-opacity:1;stroke:#000000;stroke-width:0.5;stroke-miterlimit:4;stroke-dasharray:none;stroke-opacity:1"
       id="circle4693" />
    <path
       inkscape:export-ydpi="300"
       inkscape:export-xdpi="300"
       inkscape:export-filename="C:\Documents and Settings\mhinkkan\Desktop\testi.png"
       id="path4703"
       sodipodi:nodetypes="cc"
       d="M 205,125 V 75"
       style="display:inline;fill:none;stroke:#000000;stroke-width:1px;stroke-linecap:butt;stroke-linejoin:miter;stroke-opacity:1;marker-start:url(#Arrow2Mstart-021-3-7);marker-mid:none"
       inkscape:connector-curvature="0" />
    <path
       inkscape:connector-curvature="0"
       style="display:inline;fill:none;stroke:#000000;stroke-width:1px;stroke-linecap:butt;stroke-linejoin:miter;stroke-opacity:1;marker-start:url(#Arrow2Mstart-021-3-7);marker-mid:none"
       d="M 95,125 V 75"
       sodipodi:nodetypes="cc"
       id="path4705"
       inkscape:export-filename="C:\Documents and Settings\mhinkkan\Desktop\testi.png"
       inkscape:export-xdpi="300"
       inkscape:export-ydpi="300" />
    <g
       transform="translate(48.49997,41.09586)"
       id="g4725"
       style="display:inline">
      <circle
         transform="matrix(0,1,1,0,0,0)"
         id="circle4715"
         style="font-style:normal;font-variant:normal;font-weight:normal;font-stretch:normal;font-size:12px;line-height:125%;font-family:'Nimbus Roman No9 L';text-align:start;writing-mode:lr-tb;text-anchor:start;display:inline;opacity:1;fill:none;stroke:#000000;stroke-width:1.333;stroke-linecap:round;stroke-linejoin:round;stroke-miterlimit:4;stroke-dasharray:none;stroke-dashoffset:0;stroke-opacity:1"
         cx="28.404148"
         cy="131.99997"
         r="10" />
      <g
         id="g4721"
         transform="matrix(0,0.7272727,0.7272727,0,307.91427,7.8586943)"
         style="font-style:normal;font-variant:normal;font-weight:normal;font-stretch:normal;font-size:16.5px;line-height:125%;font-family:'Nimbus Roman No9 L';text-align:start;writing-mode:lr-tb;text-anchor:start;display:inline;opacity:1">
        <path
           transform="translate(10.5,17.500004)"
           id="path4717"
           sodipodi:nodetypes="cc"
           d="m 9.5,-274.09586 v -10"
           style="font-style:normal;font-variant:normal;font-weight:normal;font-stretch:normal;font-size:16.5px;line-height:125%;font-family:'Nimbus Roman No9 L';text-align:start;writing-mode:lr-tb;text-anchor:start;fill:none;stroke:#000000;stroke-width:1px;stroke-linecap:butt;stroke-linejoin:miter;stroke-opacity:1"
           inkscape:connector-curvature="0" />
        <path
           transform="rotate(-90,26.5,-268.09586)"
           id="path4719"
           sodipodi:nodetypes="cc"
           d="m 19.999996,-279.59586 v 10"
           style="font-style:normal;font-variant:normal;font-weight:normal;font-stretch:normal;font-size:16.5px;line-height:125%;font-family:'Nimbus Roman No9 L';text-align:start;writing-mode:lr-tb;text-anchor:start;display:inline;fill:none;stroke:#000000;stroke-width:1px;stroke-linecap:butt;stroke-linejoin:miter;stroke-opacity:1"
           inkscape:connector-curvature="0" />
      </g>
      <path
         id="path4723"
         sodipodi:nodetypes="cc"
         d="m 142.70089,22.404154 h 7.27273"
         style="font-style:normal;font-variant:normal;font-weight:normal;font-stretch:normal;font-size:16.5px;line-height:125%;font-family:'Nimbus Roman No9 L';text-align:start;writing-mode:lr-tb;text-anchor:start;display:inline;opacity:1;fill:none;stroke:#000000;stroke-width:0.727273px;stroke-linecap:butt;stroke-linejoin:miter;stroke-opacity:1"
         inkscape:connector-curvature="0" />
    </g>
    <g
       id="g9"
       transform="matrix(1.33333,0,0,1.33333,225.065,94.13801)"
       ns3:version="1.12.0"
       ns3:texconverter="pdflatex"
       ns3:pdfconverter="inkscape"
       ns3:text="$\\is \\!=\\! \\isfcn(\\psis)$"
       ns3:preamble="/home/mhinkkan/GitHub/motulator/docs/source/inkscape_textext_preamble.sty"
       ns3:scale="1.0"
       ns3:alignment="bottom center"
       ns3:inkscapeversion="1.4"
       ns3:jacobian_sqrt="1.33333">
      <defs
         id="defs1312" />
      <g
         fill="#000000"
         fill-opacity="1"
         id="g5564"
         transform="translate(-154.831,-129.323)">
        <g
           transform="translate(154.69,135.761)"
           id="g9027">
          <path
             d="m 2.28125,0 v -0.21875 c -0.3125,-0.046875 -0.421875,-0.171875 -0.421875,-0.5 v -3.421875 h -1.71875 v 0.21875 C 0.53125,-3.84375 0.625,-3.765625 0.625,-3.390625 V -0.75 c 0,0.359375 -0.0625,0.4375 -0.484375,0.53125 V 0 Z M 1.921875,-5.5 c 0,-0.40625 -0.3125,-0.703125 -0.6875,-0.703125 -0.390625,0 -0.703125,0.296875 -0.703125,0.703125 0,0.390625 0.3125,0.6875 0.703125,0.6875 0.375,0 0.6875,-0.296875 0.6875,-0.6875 z m 0,0"
             id="path9249" />
        </g>
      </g>
      <g
         fill="#000000"
         fill-opacity="1"
         id="g3354"
         transform="translate(-154.831,-129.323)">
        <g
           transform="translate(157.183,137.106)"
           id="g9073">
          <path
             d="m 2.296875,-0.78125 c 0,-0.328125 -0.15625,-0.546875 -0.5625,-0.78125 L 1.03125,-1.984375 C 0.84375,-2.078125 0.75,-2.25 0.75,-2.421875 0.75,-2.703125 0.953125,-2.875 1.25,-2.875 c 0.375,0 0.578125,0.21875 0.71875,0.8125 h 0.109375 l -0.03125,-0.890625 h -0.09375 c -0.046875,0.046875 -0.0625,0.0625 -0.078125,0.0625 -0.046875,0 -0.109375,-0.015625 -0.1875,-0.046875 C 1.546875,-3 1.40625,-3.015625 1.25,-3.015625 c -0.546875,0 -0.921875,0.328125 -0.921875,0.8125 0,0.359375 0.21875,0.625 0.78125,0.9375 l 0.375,0.21875 c 0.234375,0.125 0.34375,0.296875 0.34375,0.5 0,0.28125 -0.203125,0.46875 -0.546875,0.46875 -0.453125,0 -0.6875,-0.25 -0.828125,-0.921875 H 0.34375 V 0.03125 H 0.421875 C 0.46875,-0.046875 0.5,-0.046875 0.578125,-0.046875 c 0.078125,0 0.140625,0 0.296875,0.046875 0.1875,0.046875 0.359375,0.0625 0.5,0.0625 0.5,0 0.921875,-0.375 0.921875,-0.84375 z m 0,0"
             id="path7957" />
        </g>
      </g>
      <g
         fill="#000000"
         fill-opacity="1"
         id="g3134"
         transform="translate(-154.831,-129.323)">
        <g
           transform="translate(161.235,135.761)"
           id="g1957">
          <path
             d="M 5.140625,-2.953125 V -3.46875 H 0.5625 v 0.515625 z m 0,1.8125 v -0.5 H 0.5625 v 0.5 z m 0,0"
             id="path4753" />
        </g>
      </g>
      <g
         fill="#000000"
         fill-opacity="1"
         id="g4536"
         transform="translate(-154.831,-129.323)">
        <g
           transform="translate(167.934,135.761)"
           id="g9009">
          <path
             d="m 4.328125,0.5 c 0,-0.703125 -0.546875,-1.109375 -1.46875,-1.109375 H 2.28125 c -0.71875,0 -0.90625,-0.0625 -0.90625,-0.3125 0,-0.265625 0.25,-0.46875 0.609375,-0.46875 L 2.390625,-1.375 c 0.421875,0 0.65625,-0.0625 0.953125,-0.234375 C 3.75,-1.84375 3.953125,-2.21875 3.953125,-2.6875 c 0,-0.359375 -0.109375,-0.625 -0.359375,-0.875 H 4.328125 V -4.046875 H 3.15625 C 2.765625,-4.1875 2.515625,-4.25 2.15625,-4.25 c -1.078125,0 -1.828125,0.59375 -1.828125,1.453125 0,0.296875 0.125,0.59375 0.328125,0.84375 0.203125,0.21875 0.359375,0.34375 0.78125,0.515625 -0.703125,0.25 -1.0625,0.578125 -1.0625,1.046875 0,0.375 0.15625,0.53125 0.734375,0.734375 C 0.546875,0.4375 0.25,0.65625 0.25,1.015625 c 0,0.53125 0.671875,0.828125 1.796875,0.828125 1.5,0 2.28125,-0.46875 2.28125,-1.34375 z M 3.625,0.921875 c 0,0.40625 -0.5,0.640625 -1.375,0.640625 -0.796875,0 -1.203125,-0.203125 -1.203125,-0.609375 0,-0.1875 0.0625,-0.28125 0.3125,-0.484375 H 2.90625 C 3.390625,0.46875 3.625,0.625 3.625,0.921875 Z M 2.75,-2.796875 c 0,0.84375 -0.171875,1.171875 -0.59375,1.171875 -0.4375,0 -0.59375,-0.328125 -0.59375,-1.171875 0,-0.828125 0.171875,-1.171875 0.59375,-1.171875 0.421875,0 0.59375,0.34375 0.59375,1.171875 z m 0,0"
             id="path6869" />
        </g>
      </g>
      <g
         fill="#000000"
         fill-opacity="1"
         id="g8607"
         transform="translate(-154.831,-129.323)">
        <g
           transform="translate(172.865,135.761)"
           id="g8727">
          <path
             d="M 2.640625,-6.4375 C 1.34375,-5.59375 0.4375,-4.140625 0.4375,-2.3125 c 0,1.671875 0.9375,3.359375 2.1875,4.125 L 2.71875,1.671875 c -1.171875,-0.9375 -1.515625,-2.015625 -1.515625,-4 0,-2 0.359375,-3.03125 1.515625,-3.953125 z m 0,0"
             id="path1203" />
        </g>
      </g>
      <g
         fill="#000000"
         fill-opacity="1"
         id="g4285"
         transform="translate(-154.831,-129.323)">
        <g
           transform="translate(176.748,135.761)"
           id="g8737">
          <path
             d="M 6.09375,-3.953125 V -4.25 C 5.875,-4.328125 5.6875,-4.375 5.5,-4.375 c -1.125,0 -1.15625,1.140625 -1.25,1.953125 L 4.125,-1.25 c -0.046875,0.421875 -0.28125,0.734375 -0.65625,0.859375 v -3.875 H 2.75 v 3.875 C 2.375,-0.515625 2.140625,-0.828125 2.09375,-1.25 l -0.125,-1.171875 C 1.875,-3.234375 1.84375,-4.375 0.703125,-4.375 c -0.1875,0 -0.359375,0.046875 -0.59375,0.125 v 0.296875 c 0.484375,0.09375 0.625,0.125 0.6875,0.515625 0.21875,1.59375 -0.078125,3 1.953125,3.578125 V 1.9375 H 3.46875 V 0.140625 C 5.484375,-0.4375 5.203125,-1.84375 5.421875,-3.4375 5.484375,-3.828125 5.625,-3.859375 6.09375,-3.953125 Z m 0,0"
             id="path5156" />
        </g>
      </g>
      <g
         fill="#000000"
         fill-opacity="1"
         id="g5195"
         transform="translate(-154.831,-129.323)">
        <g
           transform="translate(183.499,138.053)"
           id="g6651">
          <path
             d="m 2.296875,-0.78125 c 0,-0.328125 -0.15625,-0.546875 -0.5625,-0.78125 L 1.03125,-1.984375 C 0.84375,-2.078125 0.75,-2.25 0.75,-2.421875 0.75,-2.703125 0.953125,-2.875 1.25,-2.875 c 0.375,0 0.578125,0.21875 0.71875,0.8125 h 0.109375 l -0.03125,-0.890625 h -0.09375 c -0.046875,0.046875 -0.0625,0.0625 -0.078125,0.0625 -0.046875,0 -0.109375,-0.015625 -0.1875,-0.046875 C 1.546875,-3 1.40625,-3.015625 1.25,-3.015625 c -0.546875,0 -0.921875,0.328125 -0.921875,0.8125 0,0.359375 0.21875,0.625 0.78125,0.9375 l 0.375,0.21875 c 0.234375,0.125 0.34375,0.296875 0.34375,0.5 0,0.28125 -0.203125,0.46875 -0.546875,0.46875 -0.453125,0 -0.6875,-0.25 -0.828125,-0.921875 H 0.34375 V 0.03125 H 0.421875 C 0.46875,-0.046875 0.5,-0.046875 0.578125,-0.046875 c 0.078125,0 0.140625,0 0.296875,0.046875 0.1875,0.046875 0.359375,0.0625 0.5,0.0625 0.5,0 0.921875,-0.375 0.921875,-0.84375 z m 0,0"
             id="path9485" />
        </g>
      </g>
      <g
         fill="#000000"
         fill-opacity="1"
         id="g5293"
         transform="translate(-154.831,-129.323)">
        <g
           transform="translate(186.555,135.761)"
           id="g3117">
          <path
             d="m 0.34375,-6.4375 -0.078125,0.15625 c 1.15625,0.921875 1.515625,1.953125 1.515625,3.953125 0,1.984375 -0.34375,3.0625 -1.515625,4 L 0.375,1.8125 c 1.234375,-0.765625 2.1875,-2.453125 2.1875,-4.125 0,-1.828125 -0.921875,-3.28125 -2.21875,-4.125 z m 0,0"
             id="path5143" />
        </g>
      </g>
    </g>
    <g
       id="g24"
       transform="matrix(1.33333,0,0,1.33333,164.161,43.8865)"
       ns3:version="1.12.0"
       ns3:texconverter="pdflatex"
       ns3:pdfconverter="inkscape"
       ns3:text="$\\jj\\omegam\\psis$"
       ns3:preamble="/home/mhinkkan/GitHub/motulator/docs/source/inkscape_textext_preamble.sty"
       ns3:scale="1.0"
       ns3:alignment="middle left"
       ns3:inkscapeversion="1.4"
       ns3:jacobian_sqrt="1.33333">
      <defs
         id="defs1487" />
      <g
         fill="#000000"
         fill-opacity="1"
         id="g7201"
         transform="translate(-154.065,-129.636)">
        <g
           transform="translate(154.69,135.761)"
           id="g23">
          <path
             d="M 1.734375,0 V -4.09375 L 1.6875,-4.125 c -0.53125,0.203125 -0.875,0.328125 -1.40625,0.484375 V -3.5 H 0.328125 C 0.46875,-3.53125 0.59375,-3.53125 0.6875,-3.53125 0.890625,-3.53125 0.984375,-3.375 0.984375,-3 v 3.40625 c 0,0.671875 -0.03125,0.90625 -0.125,1.078125 -0.0625,0.09375 -0.1875,0.171875 -0.3125,0.171875 -0.140625,0 -0.21875,-0.0625 -0.375,-0.25 -0.15625,-0.21875 -0.28125,-0.296875 -0.4375,-0.296875 -0.203125,0 -0.359375,0.15625 -0.359375,0.359375 0,0.28125 0.34375,0.484375 0.828125,0.484375 1,0 1.53125,-0.671875 1.53125,-1.953125 z M 1.8125,-5.671875 c 0,-0.25 -0.203125,-0.453125 -0.453125,-0.453125 -0.25,0 -0.46875,0.203125 -0.46875,0.453125 0,0.265625 0.21875,0.46875 0.46875,0.46875 0.25,0 0.453125,-0.203125 0.453125,-0.46875 z m 0,0"
             id="path509" />
        </g>
      </g>
      <g
         fill="#000000"
         fill-opacity="1"
         id="g7560"
         transform="translate(-154.065,-129.636)">
        <g
           transform="translate(157.183,135.761)"
           id="g544">
          <path
             d="m 5.984375,-2.265625 c 0,-0.9375 -0.609375,-1.609375 -0.6875,-1.6875 H 5 c 0.0625,0.109375 0.28125,0.53125 0.28125,1.171875 0,1.046875 -0.6875,2.515625 -1.5625,2.515625 -0.34375,0 -0.578125,-0.1875 -0.578125,-0.515625 0,-0.890625 0.484375,-1.734375 0.484375,-1.9375 0,-0.046875 -0.015625,-0.0625 -0.046875,-0.0625 h -0.4375 c -0.265625,0 -0.0625,2.515625 -1.453125,2.515625 -0.625,0 -0.671875,-0.625 -0.671875,-0.875 0,-1.421875 1.0625,-2.625 1.234375,-2.8125 H 1.953125 c 0,0 -1.75,1.171875 -1.75,2.78125 0,0.5625 0.296875,1.265625 1.234375,1.265625 1.09375,0 1.421875,-0.90625 1.421875,-0.921875 H 2.875 C 2.875,-0.8125 2.859375,-0.75 2.859375,-0.625 c 0,0.28125 0.109375,0.71875 0.90625,0.71875 1.125,0 2.21875,-1.21875 2.21875,-2.359375 z m 0,0"
             id="path8704" />
        </g>
      </g>
      <g
         fill="#000000"
         fill-opacity="1"
         id="g533"
         transform="translate(-154.065,-129.636)">
        <g
           transform="translate(163.558,137.106)"
           id="g7776">
          <path
             d="M 5.09375,0 V -0.09375 L 4.921875,-0.109375 C 4.734375,-0.125 4.640625,-0.25 4.640625,-0.5 v -1.359375 c 0,-0.765625 -0.25,-1.171875 -0.765625,-1.171875 -0.375,0 -0.703125,0.171875 -1.0625,0.5625 -0.125,-0.375 -0.34375,-0.5625 -0.703125,-0.5625 -0.28125,0 -0.46875,0.09375 -1.015625,0.515625 v -0.5 L 1.046875,-3.03125 c -0.34375,0.125 -0.5625,0.203125 -0.921875,0.296875 V -2.625 c 0.078125,-0.015625 0.140625,-0.015625 0.203125,-0.015625 0.171875,0 0.234375,0.09375 0.234375,0.421875 v 1.65625 c 0,0.359375 -0.09375,0.453125 -0.453125,0.46875 V 0 H 1.5625 V -0.09375 C 1.21875,-0.109375 1.125,-0.1875 1.125,-0.4375 v -1.859375 c 0,0 0.046875,-0.078125 0.09375,-0.125 C 1.375,-2.578125 1.671875,-2.6875 1.890625,-2.6875 c 0.296875,0 0.4375,0.234375 0.4375,0.6875 v 1.4375 C 2.328125,-0.203125 2.25,-0.125 1.875,-0.09375 V 0 H 3.359375 V -0.09375 C 2.984375,-0.109375 2.875,-0.21875 2.875,-0.625 V -2.28125 C 3.078125,-2.5625 3.296875,-2.6875 3.59375,-2.6875 c 0.375,0 0.5,0.1875 0.5,0.734375 v 1.375 c 0,0.375 -0.0625,0.4375 -0.4375,0.484375 V 0 Z m 0,0"
             id="path4213" />
        </g>
      </g>
      <g
         fill="#000000"
         fill-opacity="1"
         id="g6382"
         transform="translate(-154.065,-129.636)">
        <g
           transform="translate(169.709,135.761)"
           id="g3121">
          <path
             d="M 6.09375,-3.953125 V -4.25 C 5.875,-4.328125 5.6875,-4.375 5.5,-4.375 c -1.125,0 -1.15625,1.140625 -1.25,1.953125 L 4.125,-1.25 c -0.046875,0.421875 -0.28125,0.734375 -0.65625,0.859375 v -3.875 H 2.75 v 3.875 C 2.375,-0.515625 2.140625,-0.828125 2.09375,-1.25 l -0.125,-1.171875 C 1.875,-3.234375 1.84375,-4.375 0.703125,-4.375 c -0.1875,0 -0.359375,0.046875 -0.59375,0.125 v 0.296875 c 0.484375,0.09375 0.625,0.125 0.6875,0.515625 0.21875,1.59375 -0.078125,3 1.953125,3.578125 V 1.9375 H 3.46875 V 0.140625 C 5.484375,-0.4375 5.203125,-1.84375 5.421875,-3.4375 5.484375,-3.828125 5.625,-3.859375 6.09375,-3.953125 Z m 0,0"
             id="path2656" />
        </g>
      </g>
      <g
         fill="#000000"
         fill-opacity="1"
         id="g8434"
         transform="translate(-154.065,-129.636)">
        <g
           transform="translate(176.461,138.053)"
           id="g8594">
          <path
             d="m 2.296875,-0.78125 c 0,-0.328125 -0.15625,-0.546875 -0.5625,-0.78125 L 1.03125,-1.984375 C 0.84375,-2.078125 0.75,-2.25 0.75,-2.421875 0.75,-2.703125 0.953125,-2.875 1.25,-2.875 c 0.375,0 0.578125,0.21875 0.71875,0.8125 h 0.109375 l -0.03125,-0.890625 h -0.09375 c -0.046875,0.046875 -0.0625,0.0625 -0.078125,0.0625 -0.046875,0 -0.109375,-0.015625 -0.1875,-0.046875 C 1.546875,-3 1.40625,-3.015625 1.25,-3.015625 c -0.546875,0 -0.921875,0.328125 -0.921875,0.8125 0,0.359375 0.21875,0.625 0.78125,0.9375 l 0.375,0.21875 c 0.234375,0.125 0.34375,0.296875 0.34375,0.5 0,0.28125 -0.203125,0.46875 -0.546875,0.46875 -0.453125,0 -0.6875,-0.25 -0.828125,-0.921875 H 0.34375 V 0.03125 H 0.421875 C 0.46875,-0.046875 0.5,-0.046875 0.578125,-0.046875 c 0.078125,0 0.140625,0 0.296875,0.046875 0.1875,0.046875 0.359375,0.0625 0.5,0.0625 0.5,0 0.921875,-0.375 0.921875,-0.84375 z m 0,0"
             id="path6563" />
        </g>
      </g>
    </g>
    <g
       id="g29"
       transform="matrix(1.33333,0,0,1.33333,129.18368,48.729967)"
       ns3:version="1.12.0"
       ns3:texconverter="pdflatex"
       ns3:pdfconverter="inkscape"
       ns3:text="$\\Rs$"
       ns3:preamble="/home/mhinkkan/GitHub/motulator/docs/source/inkscape_textext_preamble.sty"
       ns3:scale="1.0"
       ns3:alignment="bottom center"
       ns3:inkscapeversion="1.4"
       ns3:jacobian_sqrt="1.33333">
      <defs
         id="defs24" />
      <g
         fill="#000000"
         fill-opacity="1"
         id="g26"
         transform="translate(-154.966,-129.902)">
        <g
           transform="translate(155.075,135.761)"
           id="g25">
          <path
             d="M 5.078125,0 V -0.140625 C 4.6875,-0.171875 4.515625,-0.328125 4.34375,-0.796875 L 3.5,-2.984375 c 0.703125,-0.15625 1,-0.28125 1.3125,-0.5625 C 5.109375,-3.8125 5.28125,-4.15625 5.28125,-4.5625 c 0,-0.84375 -0.65625,-1.296875 -1.875,-1.296875 H 1.1875 v 0.140625 c 0.375,0.0625 0.421875,0.0625 0.515625,0.125 0.0625,0.046875 0.125,0.15625 0.125,0.25 0,0.109375 -0.046875,0.328125 -0.109375,0.578125 L 0.609375,-0.8125 c -0.15625,0.53125 -0.21875,0.59375 -0.71875,0.671875 V 0 h 2.1875 V -0.140625 C 1.515625,-0.21875 1.46875,-0.25 1.46875,-0.5625 c 0,-0.09375 0.015625,-0.1875 0.09375,-0.515625 l 0.515625,-1.875 L 2.65625,-2.90625 3.765625,0 Z m -0.75,-4.578125 c 0,0.890625 -0.5625,1.34375 -1.6875,1.34375 -0.171875,0 -0.234375,-0.015625 -0.46875,-0.046875 l 0.59375,-2.0625 c 0.046875,-0.1875 0.171875,-0.25 0.453125,-0.25 0.75,0 1.109375,0.34375 1.109375,1.015625 z m 0,0"
             id="path24" />
        </g>
      </g>
      <g
         fill="#000000"
         fill-opacity="1"
         id="g28"
         transform="translate(-154.966,-129.902)">
        <g
           transform="translate(160.644,137.106)"
           id="g27">
          <path
             d="m 2.296875,-0.78125 c 0,-0.328125 -0.15625,-0.546875 -0.5625,-0.78125 L 1.03125,-1.984375 C 0.84375,-2.078125 0.75,-2.25 0.75,-2.421875 0.75,-2.703125 0.953125,-2.875 1.25,-2.875 c 0.375,0 0.578125,0.21875 0.71875,0.8125 h 0.109375 l -0.03125,-0.890625 h -0.09375 c -0.046875,0.046875 -0.0625,0.0625 -0.078125,0.0625 -0.046875,0 -0.109375,-0.015625 -0.1875,-0.046875 C 1.546875,-3 1.40625,-3.015625 1.25,-3.015625 c -0.546875,0 -0.921875,0.328125 -0.921875,0.8125 0,0.359375 0.21875,0.625 0.78125,0.9375 l 0.375,0.21875 c 0.234375,0.125 0.34375,0.296875 0.34375,0.5 0,0.28125 -0.203125,0.46875 -0.546875,0.46875 -0.453125,0 -0.6875,-0.25 -0.828125,-0.921875 H 0.34375 V 0.03125 H 0.421875 C 0.46875,-0.046875 0.5,-0.046875 0.578125,-0.046875 c 0.078125,0 0.140625,0 0.296875,0.046875 0.1875,0.046875 0.359375,0.0625 0.5,0.0625 0.5,0 0.921875,-0.375 0.921875,-0.84375 z m 0,0"
             id="path26" />
        </g>
      </g>
    </g>
    <g
       id="g36"
       transform="matrix(1.33333,0,0,1.33333,103.665,52.2722)"
       ns3:version="1.12.0"
       ns3:texconverter="pdflatex"
       ns3:pdfconverter="inkscape"
       ns3:text="$\\is$"
       ns3:preamble="/home/mhinkkan/GitHub/motulator/docs/source/inkscape_textext_preamble.sty"
       ns3:scale="1.0"
       ns3:alignment="bottom center"
       ns3:inkscapeversion="1.4"
       ns3:jacobian_sqrt="1.33333">
      <defs
         id="defs5547" />
      <g
         fill="#000000"
         fill-opacity="1"
         id="g5835"
         transform="translate(-154.831,-129.558)">
        <g
           transform="translate(154.69,135.761)"
           id="g4356">
          <path
             d="m 2.28125,0 v -0.21875 c -0.3125,-0.046875 -0.421875,-0.171875 -0.421875,-0.5 v -3.421875 h -1.71875 v 0.21875 C 0.53125,-3.84375 0.625,-3.765625 0.625,-3.390625 V -0.75 c 0,0.359375 -0.0625,0.4375 -0.484375,0.53125 V 0 Z M 1.921875,-5.5 c 0,-0.40625 -0.3125,-0.703125 -0.6875,-0.703125 -0.390625,0 -0.703125,0.296875 -0.703125,0.703125 0,0.390625 0.3125,0.6875 0.703125,0.6875 0.375,0 0.6875,-0.296875 0.6875,-0.6875 z m 0,0"
             id="path9407" />
        </g>
      </g>
      <g
         fill="#000000"
         fill-opacity="1"
         id="g911"
         transform="translate(-154.831,-129.558)">
        <g
           transform="translate(157.183,137.106)"
           id="g6609">
          <path
             d="m 2.296875,-0.78125 c 0,-0.328125 -0.15625,-0.546875 -0.5625,-0.78125 L 1.03125,-1.984375 C 0.84375,-2.078125 0.75,-2.25 0.75,-2.421875 0.75,-2.703125 0.953125,-2.875 1.25,-2.875 c 0.375,0 0.578125,0.21875 0.71875,0.8125 h 0.109375 l -0.03125,-0.890625 h -0.09375 c -0.046875,0.046875 -0.0625,0.0625 -0.078125,0.0625 -0.046875,0 -0.109375,-0.015625 -0.1875,-0.046875 C 1.546875,-3 1.40625,-3.015625 1.25,-3.015625 c -0.546875,0 -0.921875,0.328125 -0.921875,0.8125 0,0.359375 0.21875,0.625 0.78125,0.9375 l 0.375,0.21875 c 0.234375,0.125 0.34375,0.296875 0.34375,0.5 0,0.28125 -0.203125,0.46875 -0.546875,0.46875 -0.453125,0 -0.6875,-0.25 -0.828125,-0.921875 H 0.34375 V 0.03125 H 0.421875 C 0.46875,-0.046875 0.5,-0.046875 0.578125,-0.046875 c 0.078125,0 0.140625,0 0.296875,0.046875 0.1875,0.046875 0.359375,0.0625 0.5,0.0625 0.5,0 0.921875,-0.375 0.921875,-0.84375 z m 0,0"
             id="path1208" />
        </g>
      </g>
    </g>
    <g
       id="g50"
       transform="matrix(1.33333,0,0,1.33333,179.827,87.469526)"
       ns3:version="1.12.0"
       ns3:texconverter="pdflatex"
       ns3:pdfconverter="inkscape"
       ns3:text="$\\dfrac{\\D\\psis}{\\D t}$"
       ns3:preamble="/home/mhinkkan/GitHub/motulator/docs/source/inkscape_textext_preamble.sty"
       ns3:scale="1.0"
       ns3:alignment="middle right"
       ns3:inkscapeversion="1.4"
       ns3:jacobian_sqrt="1.33333">
      <defs
         id="defs9593" />
      <g
         fill="#000000"
         fill-opacity="1"
         id="g2424"
         transform="translate(-155.887,-126.843)">
        <g
           transform="translate(155.885,132.968)"
           id="g1940">
          <path
             d="m 4.40625,-0.375 v -0.140625 c -0.15625,0 -0.1875,0 -0.203125,0 -0.328125,0 -0.40625,-0.09375 -0.40625,-0.5 v -5.09375 L 3.765625,-6.125 c -0.4375,0.15625 -0.75,0.234375 -1.328125,0.390625 v 0.140625 c 0.078125,0 0.125,0 0.203125,0 0.328125,0 0.40625,0.09375 0.40625,0.453125 v 1.40625 C 2.703125,-4.03125 2.46875,-4.125 2.109375,-4.125 c -1.03125,0 -1.875,1.015625 -1.875,2.28125 0,1.15625 0.6875,1.9375 1.671875,1.9375 0.5,0 0.84375,-0.1875 1.140625,-0.609375 V 0.0625 l 0.03125,0.03125 z M 3.046875,-0.921875 c 0,0.0625 -0.0625,0.171875 -0.15625,0.28125 C 2.734375,-0.46875 2.515625,-0.375 2.25,-0.375 c -0.75,0 -1.234375,-0.71875 -1.234375,-1.828125 0,-1 0.4375,-1.671875 1.125,-1.671875 0.46875,0 0.90625,0.421875 0.90625,0.890625 z m 0,0"
             id="path4294" />
        </g>
      </g>
      <g
         fill="#000000"
         fill-opacity="1"
         id="g835"
         transform="translate(-155.887,-126.843)">
        <g
           transform="translate(160.907,132.968)"
           id="g3564">
          <path
             d="M 6.09375,-3.953125 V -4.25 C 5.875,-4.328125 5.6875,-4.375 5.5,-4.375 c -1.125,0 -1.15625,1.140625 -1.25,1.953125 L 4.125,-1.25 c -0.046875,0.421875 -0.28125,0.734375 -0.65625,0.859375 v -3.875 H 2.75 v 3.875 C 2.375,-0.515625 2.140625,-0.828125 2.09375,-1.25 l -0.125,-1.171875 C 1.875,-3.234375 1.84375,-4.375 0.703125,-4.375 c -0.1875,0 -0.359375,0.046875 -0.59375,0.125 v 0.296875 c 0.484375,0.09375 0.625,0.125 0.6875,0.515625 0.21875,1.59375 -0.078125,3 1.953125,3.578125 V 1.9375 H 3.46875 V 0.140625 C 5.484375,-0.4375 5.203125,-1.84375 5.421875,-3.4375 5.484375,-3.828125 5.625,-3.859375 6.09375,-3.953125 Z m 0,0"
             id="path408" />
        </g>
      </g>
      <g
         fill="#000000"
         fill-opacity="1"
         id="g5339"
         transform="translate(-155.887,-126.843)">
        <g
           transform="translate(167.658,135.26)"
           id="g1834">
          <path
             d="m 2.296875,-0.78125 c 0,-0.328125 -0.15625,-0.546875 -0.5625,-0.78125 L 1.03125,-1.984375 C 0.84375,-2.078125 0.75,-2.25 0.75,-2.421875 0.75,-2.703125 0.953125,-2.875 1.25,-2.875 c 0.375,0 0.578125,0.21875 0.71875,0.8125 h 0.109375 l -0.03125,-0.890625 h -0.09375 c -0.046875,0.046875 -0.0625,0.0625 -0.078125,0.0625 -0.046875,0 -0.109375,-0.015625 -0.1875,-0.046875 C 1.546875,-3 1.40625,-3.015625 1.25,-3.015625 c -0.546875,0 -0.921875,0.328125 -0.921875,0.8125 0,0.359375 0.21875,0.625 0.78125,0.9375 l 0.375,0.21875 c 0.234375,0.125 0.34375,0.296875 0.34375,0.5 0,0.28125 -0.203125,0.46875 -0.546875,0.46875 -0.453125,0 -0.6875,-0.25 -0.828125,-0.921875 H 0.34375 V 0.03125 H 0.421875 C 0.46875,-0.046875 0.5,-0.046875 0.578125,-0.046875 c 0.078125,0 0.140625,0 0.296875,0.046875 0.1875,0.046875 0.359375,0.0625 0.5,0.0625 0.5,0 0.921875,-0.375 0.921875,-0.84375 z m 0,0"
             id="path2096" />
        </g>
      </g>
      <path
         fill="#000000"
         d="m 0,9.995841 h 14.828125 v 0.502 H 0 Z"
         id="path2955" />
      <g
         fill="#000000"
         fill-opacity="1"
         id="g5390"
         transform="translate(-155.887,-126.843)">
        <g
           transform="translate(159.57,145.545)"
           id="g5957">
          <path
             d="m 4.40625,-0.375 v -0.140625 c -0.15625,0 -0.1875,0 -0.203125,0 -0.328125,0 -0.40625,-0.09375 -0.40625,-0.5 v -5.09375 L 3.765625,-6.125 c -0.4375,0.15625 -0.75,0.234375 -1.328125,0.390625 v 0.140625 c 0.078125,0 0.125,0 0.203125,0 0.328125,0 0.40625,0.09375 0.40625,0.453125 v 1.40625 C 2.703125,-4.03125 2.46875,-4.125 2.109375,-4.125 c -1.03125,0 -1.875,1.015625 -1.875,2.28125 0,1.15625 0.6875,1.9375 1.671875,1.9375 0.5,0 0.84375,-0.1875 1.140625,-0.609375 V 0.0625 l 0.03125,0.03125 z M 3.046875,-0.921875 c 0,0.0625 -0.0625,0.171875 -0.15625,0.28125 C 2.734375,-0.46875 2.515625,-0.375 2.25,-0.375 c -0.75,0 -1.234375,-0.71875 -1.234375,-1.828125 0,-1 0.4375,-1.671875 1.125,-1.671875 0.46875,0 0.90625,0.421875 0.90625,0.890625 z m 0,0"
             id="path8839" />
        </g>
      </g>
      <g
         fill="#000000"
         fill-opacity="1"
         id="g7951"
         transform="translate(-155.887,-126.843)">
        <g
           transform="translate(164.017,145.545)"
           id="g6222">
          <path
             d="M 2.65625,-3.84375 H 1.9375 l 0.25,-0.921875 c 0.015625,-0.015625 0.015625,-0.03125 0.015625,-0.046875 0,-0.0625 -0.03125,-0.078125 -0.078125,-0.078125 -0.046875,0 -0.078125,0 -0.140625,0.078125 -0.84375,1.109375 -1.46875,0.921875 -1.46875,1.203125 0,0.015625 0,0.03125 0,0.0625 H 1.1875 l -0.65625,2.46875 c -0.015625,0.109375 -0.203125,0.671875 -0.203125,0.84375 0,0.1875 0.1875,0.328125 0.4375,0.328125 0.40625,0 0.703125,-0.25 1.265625,-1.078125 l -0.109375,-0.0625 c -0.4375,0.5625 -0.578125,0.703125 -0.734375,0.703125 -0.078125,0 -0.125,-0.0625 -0.125,-0.171875 0,-0.015625 0,-0.015625 0,-0.046875 l 0.796875,-2.984375 h 0.75 z m 0,0"
             id="path1293" />
        </g>
      </g>
    </g>
    <path
       style="display:inline;fill:none;stroke:#000000;stroke-width:0.5;stroke-dasharray:none;stroke-opacity:1"
       d="m 215,120 h -5 l 10,-40 h -5"
       id="path7"
       sodipodi:nodetypes="cccc"
       inkscape:export-filename="im_gamma.pdf"
       inkscape:export-xdpi="300"
       inkscape:export-ydpi="300" />
  </g>
</svg>
