<?xml version="1.0" encoding="UTF-8" standalone="no"?>
<svg
   width="480"
   height="85"
   id="svg6781"
   version="1.1"
   inkscape:version="1.4 (e7c3feb100, 2024-10-09)"
   sodipodi:docname="sm_block_stat.svg"
   viewBox="0 0 480 84.999998"
   xmlns:inkscape="http://www.inkscape.org/namespaces/inkscape"
   xmlns:sodipodi="http://sodipodi.sourceforge.net/DTD/sodipodi-0.dtd"
   xmlns="http://www.w3.org/2000/svg"
   xmlns:svg="http://www.w3.org/2000/svg"
   xmlns:rdf="http://www.w3.org/1999/02/22-rdf-syntax-ns#"
   xmlns:cc="http://creativecommons.org/ns#"
   xmlns:dc="http://purl.org/dc/elements/1.1/"
   xmlns:ns3="http://www.iki.fi/pav/software/textext/">
  <sodipodi:namedview
     id="base"
     pagecolor="#ffffff"
     bordercolor="#666666"
     borderopacity="1.0"
     inkscape:pageopacity="0.0"
     inkscape:pageshadow="2"
     inkscape:zoom="1.979899"
     inkscape:cx="263.14474"
     inkscape:cy="113.13708"
     inkscape:document-units="px"
     inkscape:current-layer="layer1"
     showgrid="true"
     inkscape:window-width="2560"
     inkscape:window-height="1403"
     inkscape:window-x="0"
     inkscape:window-y="0"
     inkscape:window-maximized="1"
     inkscape:snap-object-midpoints="true"
     inkscape:snap-intersection-paths="true"
     inkscape:snap-grids="true"
     inkscape:object-paths="true"
     inkscape:document-rotation="0"
     fit-margin-top="0"
     fit-margin-left="0"
     fit-margin-right="0"
     fit-margin-bottom="0"
     inkscape:showpageshadow="2"
     inkscape:pagecheckerboard="0"
     inkscape:deskcolor="#d1d1d1">
    <inkscape:grid
       spacingy="0.5"
       spacingx="0.5"
       snapvisiblegridlinesonly="true"
       enabled="true"
       visible="true"
       empspacing="5"
       id="grid7066"
       type="xygrid"
       originx="-80"
       originy="-950"
       units="px" />
  </sodipodi:namedview>
  <defs
     id="defs6783">
    <marker
       style="overflow:visible"
       id="ConcaveTriangle"
       refX="5"
       refY="0"
       orient="auto-start-reverse"
       inkscape:stockid="Concave triangle arrow"
       markerWidth="0.833"
       markerHeight="0.833"
       viewBox="0 0 1 1"
       inkscape:isstock="true"
       inkscape:collect="always"
       preserveAspectRatio="xMidYMid">
      <path
         transform="scale(0.7)"
         d="M -2,-4 9,0 -2,4 c 2,-2.33 2,-5.66 0,-8 z"
         style="fill:context-stroke;fill-rule:evenodd;stroke:none"
         id="path7" />
    </marker>
    <marker
       style="overflow:visible"
       id="DotM"
       refX="0"
       refY="0"
       orient="auto"
       inkscape:stockid="DotM">
      <path
         transform="matrix(0.4,0,0,0.4,2.96,0.4)"
         style="fill-rule:evenodd;stroke:#000000;stroke-width:1pt;marker-start:none;marker-end:none"
         d="m -2.5,-1 c 0,2.76 -2.24,5 -5,5 -2.76,0 -5,-2.24 -5,-5 0,-2.76 2.24,-5 5,-5 2.76,0 5,2.24 5,5 z"
         id="path4676"
         inkscape:connector-curvature="0" />
    </marker>
    <marker
       refX="0"
       inkscape:stockid="Arrow2Mend"
       refY="0"
       orient="auto"
       id="Arrow2Mend-9"
       style="overflow:visible">
      <path
         id="path18502-9"
         d="M 8.7185878,4.0337352 -2.2072895,0.01601326 8.7185884,-4.0017078 c -1.7454984,2.3720609 -1.7354408,5.6174519 -6e-7,8.035443 z"
         transform="scale(-0.6)"
         style="font-size:12px;fill-rule:evenodd;stroke-width:0.625;stroke-linejoin:round"
         inkscape:connector-curvature="0" />
    </marker>
    <marker
       style="overflow:visible"
       id="Arrow2Mend-9-7"
       orient="auto"
       refY="0"
       inkscape:stockid="Arrow2Mend"
       refX="0">
      <path
         inkscape:connector-curvature="0"
         style="font-size:12px;fill-rule:evenodd;stroke-width:0.625;stroke-linejoin:round"
         transform="scale(-0.6)"
         d="M 8.7185878,4.0337352 -2.2072895,0.01601326 8.7185884,-4.0017078 c -1.7454984,2.3720609 -1.7354408,5.6174519 -6e-7,8.035443 z"
         id="path18502-9-5" />
    </marker>
  </defs>
  <metadata
     id="metadata6786">
    <rdf:RDF>
      <cc:Work
         rdf:about="">
        <dc:format>image/svg+xml</dc:format>
        <dc:type
           rdf:resource="http://purl.org/dc/dcmitype/StillImage" />
      </cc:Work>
    </rdf:RDF>
  </metadata>
  <g
     id="layer1"
     inkscape:groupmode="layer"
     inkscape:label="Layer 1"
     transform="translate(-80,-950.00006)">
    <path
       sodipodi:nodetypes="cccc"
       inkscape:connector-curvature="0"
       id="path1065"
       d="m 420,985.00002 v 40.00008 H 265 v -40.00004"
       style="display:inline;fill:none;stroke:#000000;stroke-width:1px;stroke-linecap:butt;stroke-linejoin:miter;stroke-opacity:1;marker-start:url(#ConcaveTriangle);marker-end:url(#Arrow2Mend-9)" />
    <path
       style="display:inline;fill:none;stroke:#000000;stroke-width:1px;stroke-linecap:butt;stroke-linejoin:miter;stroke-opacity:1;marker-start:url(#DotM)"
       d="m 342.5,1025.0001 v -15"
       id="path1075"
       inkscape:connector-curvature="0"
       sodipodi:nodetypes="cc" />
    <path
       style="display:inline;fill:none;stroke:#000000;stroke-width:1px;stroke-linecap:butt;stroke-linejoin:miter;stroke-opacity:1;marker-start:none;marker-end:url(#Arrow2Mend-9-7)"
       d="m 215,1000.0001 h 95"
       id="path1069"
       inkscape:connector-curvature="0"
       sodipodi:nodetypes="cc" />
    <path
       sodipodi:nodetypes="cc"
       inkscape:connector-curvature="0"
       id="path1039"
       d="m 375,975.0001 25,-6e-5"
       style="display:inline;fill:none;stroke:#000000;stroke-width:1px;stroke-linecap:butt;stroke-linejoin:miter;stroke-opacity:1;marker-start:none;marker-end:url(#Arrow2Mend-9-7)" />
    <path
       sodipodi:nodetypes="cc"
       inkscape:connector-curvature="0"
       id="path927"
       d="m 215,975.00006 30,2e-5"
       style="display:inline;fill:none;stroke:#000000;stroke-width:1px;stroke-linecap:butt;stroke-linejoin:miter;stroke-opacity:1;marker-start:none;marker-end:url(#Arrow2Mend-9-7)" />
    <rect
       inkscape:export-ydpi="300"
       inkscape:export-xdpi="300"
       inkscape:export-filename="C:\Documents and Settings\mhinkkan\Desktop\testi3.png"
       height="20"
       x="245"
       y="965.00006"
       width="40"
       id="rect911"
       style="display:inline;fill:#ffffff;fill-opacity:1;fill-rule:nonzero;stroke:#000000;stroke-width:1.333;stroke-linecap:round;stroke-linejoin:miter;stroke-miterlimit:4;stroke-dasharray:none;stroke-dashoffset:0;stroke-opacity:1" />
    <rect
       style="display:inline;fill:#ffffff;fill-opacity:1;fill-rule:nonzero;stroke:#000000;stroke-width:1.333;stroke-linecap:round;stroke-linejoin:miter;stroke-miterlimit:4;stroke-dasharray:none;stroke-dashoffset:0;stroke-opacity:1"
       id="rect943"
       width="40"
       y="965.00006"
       x="400"
       height="20"
       inkscape:export-filename="C:\Documents and Settings\mhinkkan\Desktop\testi3.png"
       inkscape:export-xdpi="300"
       inkscape:export-ydpi="300" />
    <path
       style="display:inline;fill:none;stroke:#000000;stroke-width:1px;stroke-linecap:butt;stroke-linejoin:miter;stroke-opacity:1;marker-start:none;marker-end:url(#Arrow2Mend-9-7)"
       d="m 440,975.00004 h 25"
       id="path955"
       inkscape:connector-curvature="0"
       sodipodi:nodetypes="cc" />
    <path
       style="display:inline;fill:none;stroke:#000000;stroke-width:1px;stroke-linecap:butt;stroke-linejoin:miter;stroke-opacity:1;marker-start:none;marker-end:url(#Arrow2Mend-9-7)"
       d="m 285,975.00004 25,6e-5"
       id="path1025"
       inkscape:connector-curvature="0"
       sodipodi:nodetypes="cc" />
    <rect
       style="display:inline;fill:#ffffff;fill-opacity:1;fill-rule:nonzero;stroke:#000000;stroke-width:1.333;stroke-linecap:round;stroke-linejoin:miter;stroke-miterlimit:4;stroke-dasharray:none;stroke-dashoffset:0;stroke-opacity:1"
       id="rect1029"
       width="65"
       y="965.00012"
       x="310"
       height="45"
       inkscape:export-filename="C:\Documents and Settings\mhinkkan\Desktop\testi3.png"
       inkscape:export-xdpi="300"
       inkscape:export-ydpi="300" />
    <path
       style="display:inline;fill:none;stroke:#000000;stroke-width:1px;stroke-linecap:butt;stroke-linejoin:miter;stroke-opacity:1;marker-start:none;marker-end:url(#Arrow2Mend-9-7)"
       d="M 375,1000.0001 465,1000"
       id="path1059"
       inkscape:connector-curvature="0"
       sodipodi:nodetypes="cc" />
    <text
       xml:space="preserve"
       style="font-size:10.6667px;font-family:'Liberation Sans';-inkscape-font-specification:'Liberation Sans';text-align:center;text-anchor:middle;fill:#000000;fill-opacity:1;stroke-width:1.333;stroke-linejoin:round;stroke-dashoffset:3.15"
       x="342.46616"
       y="977.97919"
       id="text2943"><tspan
         sodipodi:role="line"
         x="342.46616"
         y="977.97919"
         id="tspan2941"
         style="font-style:normal;font-variant:normal;font-weight:normal;font-stretch:normal;font-size:10.6667px;font-family:'Liberation Sans';-inkscape-font-specification:'Liberation Sans';text-align:center;text-anchor:middle">Model</tspan><tspan
         sodipodi:role="line"
         x="342.46616"
         y="991.31256"
         style="font-style:normal;font-variant:normal;font-weight:normal;font-stretch:normal;font-size:10.6667px;font-family:'Liberation Sans';-inkscape-font-specification:'Liberation Sans';text-align:center;text-anchor:middle"
         id="tspan5937">in rotor</tspan><tspan
         sodipodi:role="line"
         x="342.46616"
         y="1004.6459"
         style="font-style:normal;font-variant:normal;font-weight:normal;font-stretch:normal;font-size:10.6667px;font-family:'Liberation Sans';-inkscape-font-specification:'Liberation Sans';text-align:center;text-anchor:middle"
         id="tspan5939">coordinates</tspan></text>
    <g
       id="g3621"
       transform="matrix(1.33333,0,0,1.33333,292.90187,962.96904)"
       ns3:version="1.12.0"
       ns3:texconverter="pdflatex"
       ns3:pdfconverter="inkscape"
       ns3:text="$\\us$"
       ns3:preamble="/home/mhinkkan/GitHub/motulator/docs/source/inkscape_textext_preamble.sty"
       ns3:scale="1.0"
       ns3:alignment="bottom center"
       ns3:inkscapeversion="1.2.2"
       ns3:jacobian_sqrt="1.33333"
       style="stroke-width:0">
      <defs
         id="defs1520"
         style="stroke-width:0" />
      <g
         fill="#000000"
         fill-opacity="1"
         id="g778"
         transform="translate(-154.831,-131.62)"
         style="stroke-width:0">
        <g
           transform="translate(154.69,135.761)"
           id="g1949"
           style="stroke-width:0">
          <path
             d="m 4.8125,-0.171875 v -0.21875 c -0.390625,-0.015625 -0.5,-0.125 -0.5,-0.515625 V -4.140625 H 2.515625 v 0.21875 c 0.4375,0.03125 0.546875,0.140625 0.546875,0.53125 v 2.53125 c -0.296875,0.296875 -0.46875,0.40625 -0.734375,0.40625 -0.359375,0 -0.5,-0.1875 -0.5,-0.640625 v -3.046875 h -1.6875 v 0.21875 c 0.375,0.078125 0.4375,0.15625 0.4375,0.53125 V -1.125 c 0,0.78125 0.453125,1.25 1.203125,1.25 0.46875,0 0.78125,-0.140625 1.296875,-0.59375 v 0.578125 c 0.390625,-0.125 0.59375,-0.15625 1.1875,-0.21875 z m 0,0"
             id="path6924"
             style="stroke-width:0" />
        </g>
      </g>
      <g
         fill="#000000"
         fill-opacity="1"
         id="g3623"
         transform="translate(-154.831,-131.62)"
         style="stroke-width:0">
        <g
           transform="translate(159.675,137.106)"
           id="g4249"
           style="stroke-width:0">
          <path
             d="m 2.296875,-0.78125 c 0,-0.328125 -0.15625,-0.546875 -0.5625,-0.78125 L 1.03125,-1.984375 C 0.84375,-2.078125 0.75,-2.25 0.75,-2.421875 0.75,-2.703125 0.953125,-2.875 1.25,-2.875 c 0.375,0 0.578125,0.21875 0.71875,0.8125 h 0.109375 l -0.03125,-0.890625 h -0.09375 c -0.046875,0.046875 -0.0625,0.0625 -0.078125,0.0625 -0.046875,0 -0.109375,-0.015625 -0.1875,-0.046875 C 1.546875,-3 1.40625,-3.015625 1.25,-3.015625 c -0.546875,0 -0.921875,0.328125 -0.921875,0.8125 0,0.359375 0.21875,0.625 0.78125,0.9375 l 0.375,0.21875 c 0.234375,0.125 0.34375,0.296875 0.34375,0.5 0,0.28125 -0.203125,0.46875 -0.546875,0.46875 -0.453125,0 -0.6875,-0.25 -0.828125,-0.921875 H 0.34375 V 0.03125 H 0.421875 C 0.46875,-0.046875 0.5,-0.046875 0.578125,-0.046875 c 0.078125,0 0.140625,0 0.296875,0.046875 0.1875,0.046875 0.359375,0.0625 0.5,0.0625 0.5,0 0.921875,-0.375 0.921875,-0.84375 z m 0,0"
             id="path3829"
             style="stroke-width:0" />
        </g>
      </g>
    </g>
    <g
       id="g53"
       transform="matrix(1.33333,0,0,1.33333,453.8179,988.00004)"
       ns3:version="1.12.0"
       ns3:texconverter="pdflatex"
       ns3:pdfconverter="inkscape"
       ns3:text="$\\tauM$"
       ns3:preamble="/home/mhinkkan/GitHub/motulator/docs/source/inkscape_textext_preamble.sty"
       ns3:scale="1.0"
       ns3:alignment="bottom right"
       ns3:inkscapeversion="1.4"
       ns3:jacobian_sqrt="1.33333"
       style="stroke-width:0">
      <defs
         id="defs6565"
         style="stroke-width:0" />
      <g
         fill="#000000"
         fill-opacity="1"
         id="g6130"
         transform="translate(-154.837,-131.808)"
         style="stroke-width:0">
        <g
           transform="translate(154.806,135.761)"
           id="g8151"
           style="stroke-width:0">
          <path
             d="M 4.21875,-3.953125 H 1.515625 c -0.828125,0 -1.40625,0.984375 -1.484375,1.15625 H 0.125 c 0.046875,-0.0625 0.421875,-0.5 0.890625,-0.5 H 2.03125 l -0.609375,1.9375 C 1.34375,-1.0625 1.28125,-0.8125 1.28125,-0.625 c 0,0.390625 0.203125,0.71875 0.640625,0.71875 0.21875,0 0.46875,-0.046875 0.46875,-0.375 C 2.390625,-0.796875 1.9375,-0.75 1.9375,-1.171875 1.9375,-1.265625 1.953125,-1.359375 2,-1.5 l 0.578125,-1.796875 h 1.4375 z m 0,0"
             id="path3174"
             style="stroke-width:0" />
        </g>
      </g>
      <g
         fill="#000000"
         fill-opacity="1"
         id="g8515"
         transform="translate(-154.837,-131.808)"
         style="stroke-width:0">
        <g
           transform="translate(158.545,137.106)"
           id="g9699"
           style="stroke-width:0">
          <path
             d="m 5.671875,0 v -0.125 c -0.46875,-0.03125 -0.5625,-0.125 -0.5625,-0.59375 v -2.921875 c 0,-0.46875 0.078125,-0.546875 0.5625,-0.59375 v -0.125 H 4.375 L 2.921875,-1.03125 1.390625,-4.359375 H 0.09375 v 0.125 c 0.53125,0.03125 0.625,0.109375 0.625,0.59375 v 2.671875 c 0,0.671875 -0.09375,0.796875 -0.640625,0.84375 V 0 H 1.625 V -0.125 C 1.125,-0.15625 1,-0.296875 1,-0.96875 V -3.625 L 2.65625,0 H 2.75 l 1.6875,-3.765625 v 2.96875 C 4.4375,-0.25 4.359375,-0.15625 3.828125,-0.125 V 0 Z m 0,0"
             id="path1850"
             style="stroke-width:0" />
        </g>
      </g>
    </g>
    <g
       id="g52"
       transform="matrix(1.33333,0,0,1.33333,215.0005,958.97004)"
       ns3:version="1.12.0"
       ns3:texconverter="pdflatex"
       ns3:pdfconverter="inkscape"
       ns3:text="$\\uss$"
       ns3:preamble="/home/mhinkkan/GitHub/motulator/docs/source/inkscape_textext_preamble.sty"
       ns3:scale="1.0"
       ns3:alignment="bottom left"
       ns3:inkscapeversion="1.2.2"
       ns3:jacobian_sqrt="1.33333"
       style="stroke-width:0">
      <defs
         id="defs4400"
         style="stroke-width:0" />
      <g
         fill="#000000"
         fill-opacity="1"
         id="g9216"
         transform="translate(-154.831,-129.49)"
         style="stroke-width:0">
        <g
           transform="translate(154.69,135.761)"
           id="g4585"
           style="stroke-width:0">
          <path
             d="m 4.8125,-0.171875 v -0.21875 c -0.390625,-0.015625 -0.5,-0.125 -0.5,-0.515625 V -4.140625 H 2.515625 v 0.21875 c 0.4375,0.03125 0.546875,0.140625 0.546875,0.53125 v 2.53125 c -0.296875,0.296875 -0.46875,0.40625 -0.734375,0.40625 -0.359375,0 -0.5,-0.1875 -0.5,-0.640625 v -3.046875 h -1.6875 v 0.21875 c 0.375,0.078125 0.4375,0.15625 0.4375,0.53125 V -1.125 c 0,0.78125 0.453125,1.25 1.203125,1.25 0.46875,0 0.78125,-0.140625 1.296875,-0.59375 v 0.578125 c 0.390625,-0.125 0.59375,-0.15625 1.1875,-0.21875 z m 0,0"
             id="path6613"
             style="stroke-width:0" />
        </g>
      </g>
      <g
         fill="#000000"
         fill-opacity="1"
         id="g9527"
         transform="translate(-154.831,-129.49)"
         style="stroke-width:0">
        <g
           transform="translate(159.675,132.506)"
           id="g363"
           style="stroke-width:0">
          <path
             d="m 2.296875,-0.78125 c 0,-0.328125 -0.15625,-0.546875 -0.5625,-0.78125 L 1.03125,-1.984375 C 0.84375,-2.078125 0.75,-2.25 0.75,-2.421875 0.75,-2.703125 0.953125,-2.875 1.25,-2.875 c 0.375,0 0.578125,0.21875 0.71875,0.8125 h 0.109375 l -0.03125,-0.890625 h -0.09375 c -0.046875,0.046875 -0.0625,0.0625 -0.078125,0.0625 -0.046875,0 -0.109375,-0.015625 -0.1875,-0.046875 C 1.546875,-3 1.40625,-3.015625 1.25,-3.015625 c -0.546875,0 -0.921875,0.328125 -0.921875,0.8125 0,0.359375 0.21875,0.625 0.78125,0.9375 l 0.375,0.21875 c 0.234375,0.125 0.34375,0.296875 0.34375,0.5 0,0.28125 -0.203125,0.46875 -0.546875,0.46875 -0.453125,0 -0.6875,-0.25 -0.828125,-0.921875 H 0.34375 V 0.03125 H 0.421875 C 0.46875,-0.046875 0.5,-0.046875 0.578125,-0.046875 c 0.078125,0 0.140625,0 0.296875,0.046875 0.1875,0.046875 0.359375,0.0625 0.5,0.0625 0.5,0 0.921875,-0.375 0.921875,-0.84375 z m 0,0"
             id="path202"
             style="stroke-width:0" />
        </g>
      </g>
      <g
         fill="#000000"
         fill-opacity="1"
         id="g1134"
         transform="translate(-154.831,-129.49)"
         style="stroke-width:0">
        <g
           transform="translate(159.675,137.976)"
           id="g1451"
           style="stroke-width:0">
          <path
             d="m 2.296875,-0.78125 c 0,-0.328125 -0.15625,-0.546875 -0.5625,-0.78125 L 1.03125,-1.984375 C 0.84375,-2.078125 0.75,-2.25 0.75,-2.421875 0.75,-2.703125 0.953125,-2.875 1.25,-2.875 c 0.375,0 0.578125,0.21875 0.71875,0.8125 h 0.109375 l -0.03125,-0.890625 h -0.09375 c -0.046875,0.046875 -0.0625,0.0625 -0.078125,0.0625 -0.046875,0 -0.109375,-0.015625 -0.1875,-0.046875 C 1.546875,-3 1.40625,-3.015625 1.25,-3.015625 c -0.546875,0 -0.921875,0.328125 -0.921875,0.8125 0,0.359375 0.21875,0.625 0.78125,0.9375 l 0.375,0.21875 c 0.234375,0.125 0.34375,0.296875 0.34375,0.5 0,0.28125 -0.203125,0.46875 -0.546875,0.46875 -0.453125,0 -0.6875,-0.25 -0.828125,-0.921875 H 0.34375 V 0.03125 H 0.421875 C 0.46875,-0.046875 0.5,-0.046875 0.578125,-0.046875 c 0.078125,0 0.140625,0 0.296875,0.046875 0.1875,0.046875 0.359375,0.0625 0.5,0.0625 0.5,0 0.921875,-0.375 0.921875,-0.84375 z m 0,0"
             id="path489"
             style="stroke-width:0" />
        </g>
      </g>
    </g>
    <g
       id="g63"
       transform="matrix(1.33333,0,0,1.33333,383.412,960.22004)"
       ns3:version="1.12.0"
       ns3:texconverter="pdflatex"
       ns3:pdfconverter="inkscape"
       ns3:text="$\\is$"
       ns3:preamble="/home/mhinkkan/GitHub/motulator/docs/source/inkscape_textext_preamble.sty"
       ns3:scale="1.0"
       ns3:alignment="bottom center"
       ns3:inkscapeversion="1.2.2"
       ns3:jacobian_sqrt="1.33333"
       style="stroke-width:0">
      <defs
         id="defs6747"
         style="stroke-width:0" />
      <g
         fill="#000000"
         fill-opacity="1"
         id="g3522"
         transform="translate(-154.831,-129.558)"
         style="stroke-width:0">
        <g
           transform="translate(154.69,135.761)"
           id="g5173"
           style="stroke-width:0">
          <path
             d="m 2.28125,0 v -0.21875 c -0.3125,-0.046875 -0.421875,-0.171875 -0.421875,-0.5 v -3.421875 h -1.71875 v 0.21875 C 0.53125,-3.84375 0.625,-3.765625 0.625,-3.390625 V -0.75 c 0,0.359375 -0.0625,0.4375 -0.484375,0.53125 V 0 Z M 1.921875,-5.5 c 0,-0.40625 -0.3125,-0.703125 -0.6875,-0.703125 -0.390625,0 -0.703125,0.296875 -0.703125,0.703125 0,0.390625 0.3125,0.6875 0.703125,0.6875 0.375,0 0.6875,-0.296875 0.6875,-0.6875 z m 0,0"
             id="path4420"
             style="stroke-width:0" />
        </g>
      </g>
      <g
         fill="#000000"
         fill-opacity="1"
         id="g6378"
         transform="translate(-154.831,-129.558)"
         style="stroke-width:0">
        <g
           transform="translate(157.183,137.106)"
           id="g8441"
           style="stroke-width:0">
          <path
             d="m 2.296875,-0.78125 c 0,-0.328125 -0.15625,-0.546875 -0.5625,-0.78125 L 1.03125,-1.984375 C 0.84375,-2.078125 0.75,-2.25 0.75,-2.421875 0.75,-2.703125 0.953125,-2.875 1.25,-2.875 c 0.375,0 0.578125,0.21875 0.71875,0.8125 h 0.109375 l -0.03125,-0.890625 h -0.09375 c -0.046875,0.046875 -0.0625,0.0625 -0.078125,0.0625 -0.046875,0 -0.109375,-0.015625 -0.1875,-0.046875 C 1.546875,-3 1.40625,-3.015625 1.25,-3.015625 c -0.546875,0 -0.921875,0.328125 -0.921875,0.8125 0,0.359375 0.21875,0.625 0.78125,0.9375 l 0.375,0.21875 c 0.234375,0.125 0.34375,0.296875 0.34375,0.5 0,0.28125 -0.203125,0.46875 -0.546875,0.46875 -0.453125,0 -0.6875,-0.25 -0.828125,-0.921875 H 0.34375 V 0.03125 H 0.421875 C 0.46875,-0.046875 0.5,-0.046875 0.578125,-0.046875 c 0.078125,0 0.140625,0 0.296875,0.046875 0.1875,0.046875 0.359375,0.0625 0.5,0.0625 0.5,0 0.921875,-0.375 0.921875,-0.84375 z m 0,0"
             id="path63"
             style="stroke-width:0" />
        </g>
      </g>
    </g>
    <g
       id="g73"
       transform="matrix(1.33333,0,0,1.33333,460.12589,958.97004)"
       ns3:version="1.12.0"
       ns3:texconverter="pdflatex"
       ns3:pdfconverter="inkscape"
       ns3:text="$\\iss$"
       ns3:preamble="/home/mhinkkan/GitHub/motulator/docs/source/inkscape_textext_preamble.sty"
       ns3:scale="1.0"
       ns3:alignment="bottom right"
       ns3:inkscapeversion="1.2.2"
       ns3:jacobian_sqrt="1.33333"
       style="stroke-width:0">
      <defs
         id="defs856"
         style="stroke-width:0" />
      <g
         fill="#000000"
         fill-opacity="1"
         id="g8089"
         transform="translate(-154.831,-129.49)"
         style="stroke-width:0">
        <g
           transform="translate(154.69,135.761)"
           id="g6889"
           style="stroke-width:0">
          <path
             d="m 2.28125,0 v -0.21875 c -0.3125,-0.046875 -0.421875,-0.171875 -0.421875,-0.5 v -3.421875 h -1.71875 v 0.21875 C 0.53125,-3.84375 0.625,-3.765625 0.625,-3.390625 V -0.75 c 0,0.359375 -0.0625,0.4375 -0.484375,0.53125 V 0 Z M 1.921875,-5.5 c 0,-0.40625 -0.3125,-0.703125 -0.6875,-0.703125 -0.390625,0 -0.703125,0.296875 -0.703125,0.703125 0,0.390625 0.3125,0.6875 0.703125,0.6875 0.375,0 0.6875,-0.296875 0.6875,-0.6875 z m 0,0"
             id="path9469"
             style="stroke-width:0" />
        </g>
      </g>
      <g
         fill="#000000"
         fill-opacity="1"
         id="g129"
         transform="translate(-154.831,-129.49)"
         style="stroke-width:0">
        <g
           transform="translate(157.183,132.506)"
           id="g1613"
           style="stroke-width:0">
          <path
             d="m 2.296875,-0.78125 c 0,-0.328125 -0.15625,-0.546875 -0.5625,-0.78125 L 1.03125,-1.984375 C 0.84375,-2.078125 0.75,-2.25 0.75,-2.421875 0.75,-2.703125 0.953125,-2.875 1.25,-2.875 c 0.375,0 0.578125,0.21875 0.71875,0.8125 h 0.109375 l -0.03125,-0.890625 h -0.09375 c -0.046875,0.046875 -0.0625,0.0625 -0.078125,0.0625 -0.046875,0 -0.109375,-0.015625 -0.1875,-0.046875 C 1.546875,-3 1.40625,-3.015625 1.25,-3.015625 c -0.546875,0 -0.921875,0.328125 -0.921875,0.8125 0,0.359375 0.21875,0.625 0.78125,0.9375 l 0.375,0.21875 c 0.234375,0.125 0.34375,0.296875 0.34375,0.5 0,0.28125 -0.203125,0.46875 -0.546875,0.46875 -0.453125,0 -0.6875,-0.25 -0.828125,-0.921875 H 0.34375 V 0.03125 H 0.421875 C 0.46875,-0.046875 0.5,-0.046875 0.578125,-0.046875 c 0.078125,0 0.140625,0 0.296875,0.046875 0.1875,0.046875 0.359375,0.0625 0.5,0.0625 0.5,0 0.921875,-0.375 0.921875,-0.84375 z m 0,0"
             id="path4556"
             style="stroke-width:0" />
        </g>
      </g>
      <g
         fill="#000000"
         fill-opacity="1"
         id="g7666"
         transform="translate(-154.831,-129.49)"
         style="stroke-width:0">
        <g
           transform="translate(157.183,137.976)"
           id="g4506"
           style="stroke-width:0">
          <path
             d="m 2.296875,-0.78125 c 0,-0.328125 -0.15625,-0.546875 -0.5625,-0.78125 L 1.03125,-1.984375 C 0.84375,-2.078125 0.75,-2.25 0.75,-2.421875 0.75,-2.703125 0.953125,-2.875 1.25,-2.875 c 0.375,0 0.578125,0.21875 0.71875,0.8125 h 0.109375 l -0.03125,-0.890625 h -0.09375 c -0.046875,0.046875 -0.0625,0.0625 -0.078125,0.0625 -0.046875,0 -0.109375,-0.015625 -0.1875,-0.046875 C 1.546875,-3 1.40625,-3.015625 1.25,-3.015625 c -0.546875,0 -0.921875,0.328125 -0.921875,0.8125 0,0.359375 0.21875,0.625 0.78125,0.9375 l 0.375,0.21875 c 0.234375,0.125 0.34375,0.296875 0.34375,0.5 0,0.28125 -0.203125,0.46875 -0.546875,0.46875 -0.453125,0 -0.6875,-0.25 -0.828125,-0.921875 H 0.34375 V 0.03125 H 0.421875 C 0.46875,-0.046875 0.5,-0.046875 0.578125,-0.046875 c 0.078125,0 0.140625,0 0.296875,0.046875 0.1875,0.046875 0.359375,0.0625 0.5,0.0625 0.5,0 0.921875,-0.375 0.921875,-0.84375 z m 0,0"
             id="path3516"
             style="stroke-width:0" />
        </g>
      </g>
    </g>
    <g
       id="g81"
       transform="matrix(1.33333,0,0,1.33333,214.99983,988.00004)"
       ns3:version="1.12.0"
       ns3:texconverter="pdflatex"
       ns3:pdfconverter="inkscape"
       ns3:text="$\\omegaM$"
       ns3:preamble="/home/mhinkkan/GitHub/motulator/docs/source/inkscape_textext_preamble.sty"
       ns3:scale="1.0"
       ns3:alignment="bottom left"
       ns3:inkscapeversion="1.2.2"
       ns3:jacobian_sqrt="1.33333"
       style="stroke-width:0">
      <defs
         id="defs7528"
         style="stroke-width:0" />
      <g
         fill="#000000"
         fill-opacity="1"
         id="g9485"
         transform="translate(-154.893,-131.808)"
         style="stroke-width:0">
        <g
           transform="translate(154.69,135.761)"
           id="g6833"
           style="stroke-width:0">
          <path
             d="m 5.984375,-2.265625 c 0,-0.9375 -0.609375,-1.609375 -0.6875,-1.6875 H 5 c 0.0625,0.109375 0.28125,0.53125 0.28125,1.171875 0,1.046875 -0.6875,2.515625 -1.5625,2.515625 -0.34375,0 -0.578125,-0.1875 -0.578125,-0.515625 0,-0.890625 0.484375,-1.734375 0.484375,-1.9375 0,-0.046875 -0.015625,-0.0625 -0.046875,-0.0625 h -0.4375 c -0.265625,0 -0.0625,2.515625 -1.453125,2.515625 -0.625,0 -0.671875,-0.625 -0.671875,-0.875 0,-1.421875 1.0625,-2.625 1.234375,-2.8125 H 1.953125 c 0,0 -1.75,1.171875 -1.75,2.78125 0,0.5625 0.296875,1.265625 1.234375,1.265625 1.09375,0 1.421875,-0.90625 1.421875,-0.921875 H 2.875 C 2.875,-0.8125 2.859375,-0.75 2.859375,-0.625 c 0,0.28125 0.109375,0.71875 0.90625,0.71875 1.125,0 2.21875,-1.21875 2.21875,-2.359375 z m 0,0"
             id="path6510"
             style="stroke-width:0" />
        </g>
      </g>
      <g
         fill="#000000"
         fill-opacity="1"
         id="g9738"
         transform="translate(-154.893,-131.808)"
         style="stroke-width:0">
        <g
           transform="translate(161.065,137.106)"
           id="g9662"
           style="stroke-width:0">
          <path
             d="m 5.671875,0 v -0.125 c -0.46875,-0.03125 -0.5625,-0.125 -0.5625,-0.59375 v -2.921875 c 0,-0.46875 0.078125,-0.546875 0.5625,-0.59375 v -0.125 H 4.375 L 2.921875,-1.03125 1.390625,-4.359375 H 0.09375 v 0.125 c 0.53125,0.03125 0.625,0.109375 0.625,0.59375 v 2.671875 c 0,0.671875 -0.09375,0.796875 -0.640625,0.84375 V 0 H 1.625 V -0.125 C 1.125,-0.15625 1,-0.296875 1,-0.96875 V -3.625 L 2.65625,0 H 2.75 l 1.6875,-3.765625 v 2.96875 C 4.4375,-0.25 4.359375,-0.15625 3.828125,-0.125 V 0 Z m 0,0"
             id="path1161"
             style="stroke-width:0" />
        </g>
      </g>
    </g>
    <g
       id="g90"
       transform="matrix(1.33333,0,0,1.33333,290.98154,1011.17)"
       ns3:version="1.12.0"
       ns3:texconverter="pdflatex"
       ns3:pdfconverter="inkscape"
       ns3:text="$\\thetam$"
       ns3:preamble="/home/mhinkkan/GitHub/motulator/docs/source/inkscape_textext_preamble.sty"
       ns3:scale="1.0"
       ns3:alignment="bottom center"
       ns3:inkscapeversion="1.2.2"
       ns3:jacobian_sqrt="1.33333"
       style="stroke-width:0">
      <defs
         id="defs3611"
         style="stroke-width:0" />
      <g
         fill="#000000"
         fill-opacity="1"
         id="g5827"
         transform="translate(-154.945,-129.683)"
         style="stroke-width:0">
        <g
           transform="translate(154.789,135.761)"
           id="g3279"
           style="stroke-width:0">
          <path
             d="m 5.1875,-3.203125 c 0,-0.390625 -0.25,-0.515625 -0.625,-0.515625 0.03125,-0.25 0.0625,-0.5 0.0625,-0.75 0,-0.734375 -0.1875,-1.609375 -1.125,-1.609375 -0.859375,0 -1.609375,0.703125 -1.609375,1.53125 C 1.890625,-3.59375 2.96875,-3.5 3.71875,-3.5 L 3.3125,-1.921875 C 3.140625,-1.25 2.75,-0.109375 1.875,-0.109375 c -0.359375,0 -0.515625,-0.171875 -0.515625,-0.515625 0,-0.8125 0.484375,-1.59375 0.484375,-2.40625 0,-0.4375 -0.171875,-0.78125 -0.671875,-0.78125 -0.703125,0 -0.875,0.5625 -1.015625,1.09375 H 0.375 c 0.0625,-0.25 0.203125,-0.734375 0.546875,-0.734375 0.1875,0 0.25,0.125 0.25,0.296875 0,0.71875 -0.484375,1.484375 -0.484375,2.28125 0,0.703125 0.421875,0.96875 1.125,0.96875 1.71875,0 2.515625,-2.25 2.703125,-3.59375 0.296875,0 0.4375,0.140625 0.4375,0.421875 0,0.109375 -0.015625,0.203125 -0.046875,0.3125 H 5.125 c 0.03125,-0.15625 0.0625,-0.296875 0.0625,-0.4375 z M 3.953125,-5.25 c 0,0.484375 -0.125,1.046875 -0.203125,1.53125 -0.5625,0 -1.21875,-0.125 -1.21875,-0.796875 0,-0.546875 0.265625,-1.3125 0.9375,-1.3125 0.375,0 0.484375,0.25 0.484375,0.578125 z m 0,0"
             id="path9462"
             style="stroke-width:0" />
        </g>
      </g>
      <g
         fill="#000000"
         fill-opacity="1"
         id="g6724"
         transform="translate(-154.945,-129.683)"
         style="stroke-width:0">
        <g
           transform="translate(159.872,137.106)"
           id="g1106"
           style="stroke-width:0">
          <path
             d="M 5.09375,0 V -0.09375 L 4.921875,-0.109375 C 4.734375,-0.125 4.640625,-0.25 4.640625,-0.5 v -1.359375 c 0,-0.765625 -0.25,-1.171875 -0.765625,-1.171875 -0.375,0 -0.703125,0.171875 -1.0625,0.5625 -0.125,-0.375 -0.34375,-0.5625 -0.703125,-0.5625 -0.28125,0 -0.46875,0.09375 -1.015625,0.515625 v -0.5 L 1.046875,-3.03125 c -0.34375,0.125 -0.5625,0.203125 -0.921875,0.296875 V -2.625 c 0.078125,-0.015625 0.140625,-0.015625 0.203125,-0.015625 0.171875,0 0.234375,0.09375 0.234375,0.421875 v 1.65625 c 0,0.359375 -0.09375,0.453125 -0.453125,0.46875 V 0 H 1.5625 V -0.09375 C 1.21875,-0.109375 1.125,-0.1875 1.125,-0.4375 v -1.859375 c 0,0 0.046875,-0.078125 0.09375,-0.125 C 1.375,-2.578125 1.671875,-2.6875 1.890625,-2.6875 c 0.296875,0 0.4375,0.234375 0.4375,0.6875 v 1.4375 C 2.328125,-0.203125 2.25,-0.125 1.875,-0.09375 V 0 H 3.359375 V -0.09375 C 2.984375,-0.109375 2.875,-0.21875 2.875,-0.625 V -2.28125 C 3.078125,-2.5625 3.296875,-2.6875 3.59375,-2.6875 c 0.375,0 0.5,0.1875 0.5,0.734375 v 1.375 c 0,0.375 -0.0625,0.4375 -0.4375,0.484375 V 0 Z m 0,0"
             id="path396"
             style="stroke-width:0" />
        </g>
      </g>
    </g>
    <g
       id="g106"
       transform="matrix(1.33333,0,0,1.33333,252.0622,969.76755)"
       ns3:version="1.12.0"
       ns3:texconverter="pdflatex"
       ns3:pdfconverter="inkscape"
       ns3:text="$\\e^{-\\jj\\thetam}$"
       ns3:preamble="/home/mhinkkan/GitHub/motulator/docs/source/inkscape_textext_preamble.sty"
       ns3:scale="1.0"
       ns3:alignment="middle center"
       ns3:inkscapeversion="1.2.2"
       ns3:jacobian_sqrt="1.33333"
       style="stroke-width:0">
      <defs
         id="defs9812"
         style="stroke-width:0" />
      <g
         fill="#000000"
         fill-opacity="1"
         id="g8384"
         transform="translate(-154.909,-128.006)"
         style="stroke-width:0">
        <g
           transform="translate(154.69,135.761)"
           id="g6876"
           style="stroke-width:0">
          <path
             d="M 3.796875,-1.40625 3.65625,-1.46875 c -0.421875,0.671875 -0.8125,0.9375 -1.390625,0.9375 -0.484375,0 -0.859375,-0.234375 -1.125,-0.71875 -0.1875,-0.34375 -0.25,-0.65625 -0.265625,-1.234375 h 2.75 C 3.5625,-3.0625 3.46875,-3.328125 3.25,-3.609375 2.984375,-3.9375 2.5625,-4.125 2.09375,-4.125 c -1.109375,0 -1.875,0.890625 -1.875,2.203125 0,1.234375 0.65625,2.015625 1.6875,2.015625 0.859375,0 1.515625,-0.53125 1.890625,-1.5 z M 2.71875,-2.765625 H 0.890625 c 0.09375,-0.71875 0.40625,-1.03125 0.953125,-1.03125 0.546875,0 0.75,0.25 0.875,1.03125 z m 0,0"
             id="path4474"
             style="stroke-width:0" />
        </g>
      </g>
      <g
         fill="#000000"
         fill-opacity="1"
         id="g9467"
         transform="translate(-154.909,-128.006)"
         style="stroke-width:0">
        <g
           transform="translate(158.934,132.506)"
           id="g6956"
           style="stroke-width:0">
          <path
             d="m 3.78125,-1.5 v -0.375 h -3.375 V -1.5 Z m 0,0"
             id="path6121"
             style="stroke-width:0" />
        </g>
      </g>
      <g
         fill="#000000"
         fill-opacity="1"
         id="g7077"
         transform="translate(-154.909,-128.006)"
         style="stroke-width:0">
        <g
           transform="translate(163.379,132.506)"
           id="g1348"
           style="stroke-width:0">
          <path
             d="M 1.265625,0 V -3 L 1.234375,-3.03125 C 0.84375,-2.875 0.59375,-2.796875 0.203125,-2.671875 V -2.5625 L 0.25,-2.578125 c 0.09375,0 0.1875,-0.015625 0.25,-0.015625 0.15625,0 0.21875,0.109375 0.21875,0.390625 v 2.5 c 0,0.5 -0.015625,0.65625 -0.09375,0.796875 C 0.578125,1.15625 0.5,1.203125 0.40625,1.203125 0.296875,1.203125 0.234375,1.171875 0.125,1.03125 0,0.875 -0.078125,0.8125 -0.1875,0.8125 c -0.15625,0 -0.265625,0.109375 -0.265625,0.265625 0,0.203125 0.25,0.359375 0.609375,0.359375 0.71875,0 1.109375,-0.5 1.109375,-1.4375 z m 0.0625,-4.15625 C 1.328125,-4.34375 1.1875,-4.5 1,-4.5 c -0.1875,0 -0.34375,0.15625 -0.34375,0.34375 0,0.1875 0.15625,0.328125 0.34375,0.328125 0.1875,0 0.328125,-0.140625 0.328125,-0.328125 z m 0,0"
             id="path8413"
             style="stroke-width:0" />
        </g>
      </g>
      <g
         fill="#000000"
         fill-opacity="1"
         id="g7455"
         transform="translate(-154.909,-128.006)"
         style="stroke-width:0">
        <g
           transform="translate(165.733,132.506)"
           id="g8836"
           style="stroke-width:0">
          <path
             d="m 4.40625,-2.34375 c 0,-0.28125 -0.21875,-0.375 -0.5625,-0.375 0.03125,-0.1875 0.03125,-0.375 0.03125,-0.5625 0,-0.53125 -0.140625,-1.171875 -0.953125,-1.171875 -0.71875,0 -1.359375,0.515625 -1.359375,1.125 0,0.6875 0.890625,0.75 1.515625,0.75 L 2.75,-1.40625 c -0.140625,0.484375 -0.46875,1.328125 -1.171875,1.328125 -0.28125,0 -0.40625,-0.125 -0.40625,-0.375 0,-0.59375 0.4375,-1.171875 0.4375,-1.765625 0,-0.328125 -0.15625,-0.578125 -0.59375,-0.578125 C 0.40625,-2.796875 0.25,-2.390625 0.125,-2 H 0.3125 C 0.359375,-2.171875 0.484375,-2.53125 0.765625,-2.53125 0.9375,-2.53125 1,-2.4375 1,-2.3125 c 0,0.53125 -0.453125,1.09375 -0.453125,1.671875 0,0.515625 0.375,0.71875 0.953125,0.71875 1.453125,0 2.125,-1.65625 2.28125,-2.65625 0.28125,0 0.421875,0.125 0.421875,0.328125 0,0.078125 -0.03125,0.140625 -0.0625,0.21875 h 0.1875 C 4.375,-2.140625 4.40625,-2.25 4.40625,-2.34375 Z M 3.265625,-3.859375 c 0,0.359375 -0.109375,0.78125 -0.171875,1.140625 -0.4375,0 -0.9375,-0.09375 -0.9375,-0.59375 0,-0.390625 0.203125,-0.96875 0.734375,-0.96875 0.296875,0 0.375,0.1875 0.375,0.421875 z m 0,0"
             id="path106"
             style="stroke-width:0" />
        </g>
      </g>
      <g
         fill="#000000"
         fill-opacity="1"
         id="g6027"
         transform="translate(-154.909,-128.006)"
         style="stroke-width:0">
        <g
           transform="translate(170.066,133.492)"
           id="g4062"
           style="stroke-width:0">
          <path
             d="M 4.25,0 V -0.078125 L 4.109375,-0.09375 C 3.9375,-0.109375 3.875,-0.203125 3.875,-0.421875 v -1.125 c 0,-0.640625 -0.21875,-0.96875 -0.640625,-0.96875 -0.3125,0 -0.59375,0.140625 -0.890625,0.453125 C 2.25,-2.375 2.0625,-2.515625 1.765625,-2.515625 c -0.25,0 -0.40625,0.0625 -0.859375,0.421875 V -2.515625 H 0.875 c -0.28125,0.09375 -0.46875,0.15625 -0.765625,0.234375 v 0.09375 c 0.0625,-0.015625 0.109375,-0.015625 0.171875,-0.015625 0.140625,0 0.1875,0.09375 0.1875,0.34375 v 1.390625 c 0,0.296875 -0.078125,0.375 -0.375,0.390625 V 0 H 1.3125 V -0.078125 C 1.015625,-0.09375 0.9375,-0.15625 0.9375,-0.375 v -1.53125 c 0,0 0.03125,-0.078125 0.078125,-0.109375 0.140625,-0.125 0.375,-0.21875 0.5625,-0.21875 0.25,0 0.359375,0.1875 0.359375,0.578125 v 1.1875 c 0,0.296875 -0.0625,0.359375 -0.375,0.390625 V 0 H 2.796875 V -0.078125 C 2.484375,-0.09375 2.40625,-0.1875 2.40625,-0.515625 V -1.90625 C 2.5625,-2.140625 2.75,-2.234375 3,-2.234375 c 0.3125,0 0.40625,0.140625 0.40625,0.59375 v 1.15625 c 0,0.3125 -0.03125,0.359375 -0.359375,0.40625 V 0 Z m 0,0"
             id="path5701"
             style="stroke-width:0" />
        </g>
      </g>
    </g>
    <g
       id="g123"
       transform="matrix(1.33333,0,0,1.33333,410.20086,969.76755)"
       ns3:version="1.12.0"
       ns3:texconverter="pdflatex"
       ns3:pdfconverter="inkscape"
       ns3:text="$\\e^{\\jj\\thetam}$"
       ns3:preamble="/home/mhinkkan/GitHub/motulator/docs/source/inkscape_textext_preamble.sty"
       ns3:scale="1.0"
       ns3:alignment="middle center"
       ns3:inkscapeversion="1.2.2"
       ns3:jacobian_sqrt="1.33333"
       style="stroke-width:0">
      <defs
         id="defs3626"
         style="stroke-width:0" />
      <g
         fill="#000000"
         fill-opacity="1"
         id="g8448"
         transform="translate(-154.909,-128.006)"
         style="stroke-width:0">
        <g
           transform="translate(154.69,135.761)"
           id="g5269"
           style="stroke-width:0">
          <path
             d="M 3.796875,-1.40625 3.65625,-1.46875 c -0.421875,0.671875 -0.8125,0.9375 -1.390625,0.9375 -0.484375,0 -0.859375,-0.234375 -1.125,-0.71875 -0.1875,-0.34375 -0.25,-0.65625 -0.265625,-1.234375 h 2.75 C 3.5625,-3.0625 3.46875,-3.328125 3.25,-3.609375 2.984375,-3.9375 2.5625,-4.125 2.09375,-4.125 c -1.109375,0 -1.875,0.890625 -1.875,2.203125 0,1.234375 0.65625,2.015625 1.6875,2.015625 0.859375,0 1.515625,-0.53125 1.890625,-1.5 z M 2.71875,-2.765625 H 0.890625 c 0.09375,-0.71875 0.40625,-1.03125 0.953125,-1.03125 0.546875,0 0.75,0.25 0.875,1.03125 z m 0,0"
             id="path5976"
             style="stroke-width:0" />
        </g>
      </g>
      <g
         fill="#000000"
         fill-opacity="1"
         id="g4365"
         transform="translate(-154.909,-128.006)"
         style="stroke-width:0">
        <g
           transform="translate(158.671,132.506)"
           id="g2052"
           style="stroke-width:0">
          <path
             d="M 1.265625,0 V -3 L 1.234375,-3.03125 C 0.84375,-2.875 0.59375,-2.796875 0.203125,-2.671875 V -2.5625 L 0.25,-2.578125 c 0.09375,0 0.1875,-0.015625 0.25,-0.015625 0.15625,0 0.21875,0.109375 0.21875,0.390625 v 2.5 c 0,0.5 -0.015625,0.65625 -0.09375,0.796875 C 0.578125,1.15625 0.5,1.203125 0.40625,1.203125 0.296875,1.203125 0.234375,1.171875 0.125,1.03125 0,0.875 -0.078125,0.8125 -0.1875,0.8125 c -0.15625,0 -0.265625,0.109375 -0.265625,0.265625 0,0.203125 0.25,0.359375 0.609375,0.359375 0.71875,0 1.109375,-0.5 1.109375,-1.4375 z m 0.0625,-4.15625 C 1.328125,-4.34375 1.1875,-4.5 1,-4.5 c -0.1875,0 -0.34375,0.15625 -0.34375,0.34375 0,0.1875 0.15625,0.328125 0.34375,0.328125 0.1875,0 0.328125,-0.140625 0.328125,-0.328125 z m 0,0"
             id="path750"
             style="stroke-width:0" />
        </g>
      </g>
      <g
         fill="#000000"
         fill-opacity="1"
         id="g3235"
         transform="translate(-154.909,-128.006)"
         style="stroke-width:0">
        <g
           transform="translate(161.025,132.506)"
           id="g8503"
           style="stroke-width:0">
          <path
             d="m 4.40625,-2.34375 c 0,-0.28125 -0.21875,-0.375 -0.5625,-0.375 0.03125,-0.1875 0.03125,-0.375 0.03125,-0.5625 0,-0.53125 -0.140625,-1.171875 -0.953125,-1.171875 -0.71875,0 -1.359375,0.515625 -1.359375,1.125 0,0.6875 0.890625,0.75 1.515625,0.75 L 2.75,-1.40625 c -0.140625,0.484375 -0.46875,1.328125 -1.171875,1.328125 -0.28125,0 -0.40625,-0.125 -0.40625,-0.375 0,-0.59375 0.4375,-1.171875 0.4375,-1.765625 0,-0.328125 -0.15625,-0.578125 -0.59375,-0.578125 C 0.40625,-2.796875 0.25,-2.390625 0.125,-2 H 0.3125 C 0.359375,-2.171875 0.484375,-2.53125 0.765625,-2.53125 0.9375,-2.53125 1,-2.4375 1,-2.3125 c 0,0.53125 -0.453125,1.09375 -0.453125,1.671875 0,0.515625 0.375,0.71875 0.953125,0.71875 1.453125,0 2.125,-1.65625 2.28125,-2.65625 0.28125,0 0.421875,0.125 0.421875,0.328125 0,0.078125 -0.03125,0.140625 -0.0625,0.21875 h 0.1875 C 4.375,-2.140625 4.40625,-2.25 4.40625,-2.34375 Z M 3.265625,-3.859375 c 0,0.359375 -0.109375,0.78125 -0.171875,1.140625 -0.4375,0 -0.9375,-0.09375 -0.9375,-0.59375 0,-0.390625 0.203125,-0.96875 0.734375,-0.96875 0.296875,0 0.375,0.1875 0.375,0.421875 z m 0,0"
             id="path2539"
             style="stroke-width:0" />
        </g>
      </g>
      <g
         fill="#000000"
         fill-opacity="1"
         id="g2046"
         transform="translate(-154.909,-128.006)"
         style="stroke-width:0">
        <g
           transform="translate(165.358,133.492)"
           id="g8053"
           style="stroke-width:0">
          <path
             d="M 4.25,0 V -0.078125 L 4.109375,-0.09375 C 3.9375,-0.109375 3.875,-0.203125 3.875,-0.421875 v -1.125 c 0,-0.640625 -0.21875,-0.96875 -0.640625,-0.96875 -0.3125,0 -0.59375,0.140625 -0.890625,0.453125 C 2.25,-2.375 2.0625,-2.515625 1.765625,-2.515625 c -0.25,0 -0.40625,0.0625 -0.859375,0.421875 V -2.515625 H 0.875 c -0.28125,0.09375 -0.46875,0.15625 -0.765625,0.234375 v 0.09375 c 0.0625,-0.015625 0.109375,-0.015625 0.171875,-0.015625 0.140625,0 0.1875,0.09375 0.1875,0.34375 v 1.390625 c 0,0.296875 -0.078125,0.375 -0.375,0.390625 V 0 H 1.3125 V -0.078125 C 1.015625,-0.09375 0.9375,-0.15625 0.9375,-0.375 v -1.53125 c 0,0 0.03125,-0.078125 0.078125,-0.109375 0.140625,-0.125 0.375,-0.21875 0.5625,-0.21875 0.25,0 0.359375,0.1875 0.359375,0.578125 v 1.1875 c 0,0.296875 -0.0625,0.359375 -0.375,0.390625 V 0 H 2.796875 V -0.078125 C 2.484375,-0.09375 2.40625,-0.1875 2.40625,-0.515625 V -1.90625 C 2.5625,-2.140625 2.75,-2.234375 3,-2.234375 c 0.3125,0 0.40625,0.140625 0.40625,0.59375 v 1.15625 c 0,0.3125 -0.03125,0.359375 -0.359375,0.40625 V 0 Z m 0,0"
             id="path6864"
             style="stroke-width:0" />
        </g>
      </g>
    </g>
  </g>
</svg>
